<svg width="207" height="225" viewBox="0 0 207 225" fill="none" xmlns="http://www.w3.org/2000/svg">
<path d="M205.407 130.3C205.253 129.477 205.047 128.674 204.892 127.892C204.728 127.068 204.614 126.255 204.45 125.473C204.275 124.649 204.048 123.856 203.873 123.074C203.688 122.251 203.462 121.458 203.266 120.686C203.07 119.863 203.07 119.008 202.865 118.246C202.648 117.423 202.113 116.723 201.887 115.961C201.65 115.148 201.413 114.355 201.166 113.604C200.898 112.791 200.857 111.936 200.579 111.195C200.281 110.392 199.818 109.682 199.509 108.961C199.169 108.169 198.376 107.644 198.026 106.954C197.635 106.182 197.779 105.173 197.368 104.515C196.904 103.784 196.06 103.382 195.577 102.775C195.041 102.106 194.825 101.179 194.259 100.644C193.641 100.068 192.663 99.9853 191.994 99.553C191.294 99.1001 190.852 98.1942 190.1 97.8751C189.349 97.556 188.402 97.803 187.599 97.5972C186.827 97.4016 186.086 96.9693 185.252 96.8457C184.47 96.7325 183.615 97.0722 182.771 97.0104C181.979 96.959 181.186 96.3413 180.393 96.3928C179.601 96.4443 178.808 96.6913 178.026 96.8354C177.243 96.9795 176.564 97.5457 175.802 97.7516C175.03 97.9678 174.227 98.0089 173.486 98.2869C172.735 98.5648 171.973 98.8015 171.263 99.1309C170.522 99.4706 169.667 99.553 168.988 99.9236C168.267 100.315 167.629 100.84 166.981 101.241C166.26 101.684 165.684 102.271 165.076 102.693C164.345 103.207 163.532 103.475 162.997 103.887C161.834 104.792 162.606 105.698 161.504 105.276C160.382 104.844 161.031 104.793 160.65 103.351C160.475 102.682 160.454 101.848 160.146 101.004C159.899 100.304 159.61 99.553 159.25 98.7707C158.931 98.0707 158.437 97.4325 158.025 96.7016C157.644 96.0222 157.037 95.487 156.563 94.8076C156.11 94.1694 155.997 93.2532 155.462 92.6356C154.947 92.0489 154.577 91.2459 153.969 90.6901C153.393 90.1651 152.322 90.2063 151.653 89.7225C151.015 89.2695 150.552 88.5387 149.831 88.1475C149.152 87.7667 148.483 87.2829 147.721 86.9638C147 86.6652 146.198 86.4903 145.405 86.2638C144.654 86.0476 143.799 86.2432 142.986 86.0991C142.224 85.9653 141.473 85.6153 140.649 85.5432C139.877 85.4815 139.074 85.6874 138.251 85.6874C137.479 85.6874 136.666 85.3888 135.842 85.4403C135.07 85.4917 134.216 85.2653 133.402 85.3682C132.62 85.4712 131.941 86.377 131.097 86.5417C130.314 86.6961 129.378 86.2432 128.544 86.4491C127.772 86.6447 126.928 86.7476 126.115 86.9946C125.343 87.2211 124.787 88.199 123.984 88.4666C123.222 88.724 122.203 88.3019 121.41 88.5902C120.649 88.8681 119.856 89.1254 119.074 89.4342C118.322 89.7328 117.694 90.4019 116.922 90.7313C116.171 91.0504 115.553 91.6989 114.791 92.0283C114.05 92.3577 112.99 92.0283 112.239 92.3885C111.497 92.7385 110.942 93.5003 110.2 93.8606C109.47 94.2208 108.615 94.3752 107.874 94.7458C107.143 95.1164 106.309 95.3017 105.568 95.6928C104.848 96.084 104.354 96.9075 103.633 97.3089C102.912 97.7104 102.12 97.978 101.41 98.4001C100.699 98.8118 100.185 99.553 99.4744 99.9853C98.7641 100.407 97.848 100.49 97.148 100.922C96.448 101.365 95.6039 101.581 94.9143 102.034C94.2246 102.487 93.9364 103.547 93.257 104.01C92.5776 104.473 91.7129 104.679 91.0438 105.153C90.3644 105.626 89.438 105.76 88.7689 106.244C88.0998 106.738 87.6572 107.52 87.0087 108.025C86.3499 108.529 85.7632 109.126 85.1249 109.641C84.4764 110.166 83.972 110.835 83.3441 111.37C82.7059 111.905 81.7692 112.08 81.1619 112.626C80.5442 113.182 80.0501 113.872 79.4634 114.438C78.8561 115.014 78.2796 115.591 77.7032 116.177C77.1164 116.774 76.4988 117.32 75.9429 117.927C75.3768 118.545 75.1297 119.42 74.6048 120.037C74.0592 120.676 73.2357 121.057 72.7313 121.705C72.2166 122.364 71.8872 123.146 71.424 123.815C70.9402 124.505 70.302 125.071 69.8799 125.761C69.4373 126.481 69.2108 127.295 68.8403 128.015C68.4491 128.767 67.6359 129.312 67.3374 130.064C67.0183 130.846 67.1109 131.772 66.8845 132.544C66.6477 133.347 66.3904 134.15 66.2668 134.943C66.133 135.766 65.8242 136.6 65.8139 137.413C65.8036 138.247 65.9786 139.091 66.1021 139.915C66.2154 140.728 66.5859 141.5 66.8433 142.293C67.0903 143.065 67.5741 143.775 67.883 144.578C68.1712 145.339 68.5315 146.081 68.8609 146.873C69.18 147.625 69.1491 148.551 69.5094 149.323C69.8593 150.064 70.1784 150.847 70.5593 151.598C70.9299 152.329 71.1152 153.183 71.5166 153.935C71.9078 154.666 72.9578 155.036 73.3798 155.777C73.7813 156.498 73.8327 157.435 74.2548 158.155C74.6665 158.865 75.14 159.555 75.5827 160.276C76.015 160.986 76.7458 161.511 77.1988 162.221C77.6414 162.921 78.0943 163.611 78.5472 164.321C79.0002 165.021 79.2575 165.845 79.7207 166.545C80.184 167.234 80.7192 167.872 81.1927 168.572C81.6559 169.262 82.0471 170.003 82.5206 170.693C82.9941 171.372 83.1177 172.309 83.6015 172.988C84.0853 173.668 84.7647 174.203 85.2587 174.882C85.7528 175.562 86.4528 176.076 86.9572 176.746C87.4513 177.415 88.0689 178.001 88.5733 178.671C89.0777 179.34 89.4792 180.081 89.9836 180.74C90.488 181.409 90.7041 182.294 91.2188 182.953C91.7335 183.611 92.382 184.178 92.8864 184.826C93.4011 185.485 94.0702 186.02 94.5952 186.669C95.1201 187.328 95.4804 188.11 95.9951 188.758C96.5201 189.417 97.3024 189.86 97.8274 190.498C98.3627 191.146 98.4553 192.155 98.9906 192.783C99.5258 193.432 100.483 193.72 101.018 194.358C101.564 195.007 102.079 195.665 102.614 196.293C103.17 196.942 103.757 197.529 104.292 198.157C104.848 198.805 105.27 199.536 105.815 200.154C106.381 200.792 106.629 201.687 107.174 202.295C107.74 202.933 108.8 203.108 109.346 203.705C109.923 204.343 110.17 205.249 110.715 205.846C111.302 206.484 111.745 207.215 112.29 207.802C112.897 208.44 113.711 208.821 114.256 209.387C114.884 210.036 115.43 210.663 115.975 211.199C116.644 211.868 116.943 212.763 117.468 213.247C118.096 213.824 118.899 214.204 119.516 214.76C120.154 215.326 120.916 215.748 121.544 216.294C122.193 216.85 122.748 217.498 123.407 218.023C124.076 218.548 124.982 218.744 125.662 219.217C126.362 219.712 127.062 220.134 127.782 220.566C128.513 221.009 129.244 221.348 130.006 221.709C130.767 222.079 131.405 222.666 132.208 222.944C133.001 223.222 133.814 223.366 134.648 223.551C135.461 223.726 136.264 223.911 137.119 223.984C137.942 224.056 138.755 223.87 139.62 223.839C140.433 223.809 141.267 223.984 142.132 223.86C142.934 223.747 143.861 224.025 144.715 223.808C145.508 223.613 146.156 222.82 146.99 222.542C147.762 222.285 148.637 222.244 149.45 221.904C150.202 221.585 151.077 221.451 151.869 221.06C152.621 220.689 153.269 220.103 154 219.742C154.752 219.372 155.513 219.022 156.244 218.662C156.996 218.281 157.85 218.126 158.581 217.756C159.332 217.375 159.868 216.593 160.598 216.212C161.35 215.831 162.132 215.532 162.853 215.151C163.604 214.76 164.417 214.524 165.138 214.143C165.879 213.752 166.487 213.124 167.217 212.732C167.959 212.331 168.833 212.207 169.554 211.816C170.295 211.415 170.944 210.859 171.664 210.468C172.405 210.056 173.198 209.778 173.908 209.377C174.639 208.965 175.154 208.183 175.864 207.781C176.595 207.359 177.563 207.369 178.273 206.958C179.004 206.536 179.467 205.681 180.167 205.259C180.887 204.827 181.824 204.765 182.514 204.333C183.234 203.89 183.718 203.098 184.408 202.665C185.128 202.212 186.137 202.274 186.827 201.831C187.537 201.368 187.939 200.483 188.618 200.03C189.318 199.567 190.214 199.443 190.78 198.97C191.428 198.424 191.799 197.673 192.293 197.117C192.849 196.489 193.683 196.087 194.063 195.449C194.485 194.739 194.753 193.926 194.99 193.195C195.237 192.423 195.247 191.589 195.319 190.807C195.391 190.024 195.618 189.191 195.546 188.398C195.474 187.616 195.391 186.782 195.227 186C195.062 185.238 194.846 184.435 194.609 183.673C194.382 182.922 193.96 182.212 193.693 181.46C193.425 180.709 193.085 179.988 192.818 179.257C192.55 178.506 192.272 177.826 192.036 177.096C192.396 175.891 192.406 176.272 193.435 175.037C193.888 174.491 194.877 174.193 195.453 173.421C195.906 172.803 195.885 171.753 196.39 171.002C196.832 170.343 197.337 169.684 197.8 168.933C198.222 168.243 198.613 167.512 199.035 166.75C199.426 166.04 200.343 165.577 200.734 164.795C201.094 164.064 201.506 163.312 201.856 162.52C202.185 161.768 202.031 160.79 202.34 159.987C202.638 159.226 203.338 158.577 203.606 157.774C203.873 156.992 203.884 156.107 204.12 155.293C204.347 154.501 204.141 153.585 204.337 152.751C204.532 151.948 205.078 151.217 205.242 150.373C205.397 149.56 205.654 148.747 205.767 147.903C205.881 147.079 206.261 146.266 206.344 145.422C206.416 144.598 205.87 143.713 205.911 142.869C205.953 142.045 205.963 141.212 205.963 140.357C205.963 139.523 205.963 138.7 205.922 137.846C205.881 137.022 206.189 136.157 206.107 135.303C206.035 134.48 205.85 133.646 205.726 132.802C205.51 132.009 205.561 131.144 205.407 130.3ZM183.883 151.227C183.399 150.033 183.348 150.054 182.874 148.86C182.39 147.666 182.431 147.645 181.958 146.451C181.474 145.257 181.423 145.278 180.939 144.084C180.455 142.89 180.414 142.91 179.93 141.706C179.446 140.512 179.642 140.429 179.168 139.246C178.685 138.052 178.386 138.175 177.902 136.981C177.418 135.787 177.429 135.777 176.945 134.583C176.461 133.388 176.688 133.296 176.204 132.102C175.72 130.908 175.566 130.969 175.082 129.775C174.598 128.581 174.145 128.767 173.661 127.562C173.177 126.368 173.754 126.131 173.27 124.937C172.889 123.99 172.375 123.023 172.58 122.065C172.786 121.108 173.661 120.46 174.423 119.76C174.979 119.255 175.277 118.298 175.977 117.804C176.626 117.341 177.624 117.423 178.365 117.063C179.096 116.713 179.673 115.93 180.476 115.745C181.258 115.57 182.112 115.786 182.936 115.858C183.708 115.93 184.645 115.735 185.437 116.095C186.127 116.404 186.497 117.351 187.177 117.917C187.753 118.39 188.402 118.833 188.968 119.523C189.483 120.14 190.265 120.655 190.625 121.437C190.965 122.158 191.058 123.043 191.284 123.877C191.49 124.649 191.583 125.483 191.706 126.337C191.819 127.14 191.593 127.984 191.644 128.839C191.686 129.652 191.84 130.465 191.83 131.309C191.819 132.133 191.963 132.966 191.912 133.8C191.861 134.624 191.521 135.427 191.438 136.26C191.356 137.084 191.161 137.887 191.047 138.721C190.934 139.544 191.418 140.46 191.274 141.284C191.13 142.107 190.769 142.9 190.615 143.703C190.45 144.537 190.275 145.35 190.1 146.142C189.915 146.976 189.884 147.831 189.689 148.613C189.483 149.457 189.503 150.322 189.297 151.094C189.071 151.938 188.134 152.36 187.486 152.689C186.786 153.039 186.127 152.813 185.396 152.545C184.696 152.298 184.212 152.041 183.883 151.227Z" fill="#40EC80"/>
<path d="M205.407 130.3C205.253 129.477 205.047 128.674 204.892 127.892C204.728 127.068 204.614 126.255 204.45 125.473C204.275 124.649 204.048 123.856 203.873 123.074C203.688 122.251 203.462 121.458 203.266 120.686C203.07 119.863 203.07 119.008 202.865 118.246C202.648 117.423 202.113 116.723 201.887 115.961C201.65 115.148 201.413 114.355 201.166 113.604C200.898 112.791 200.857 111.936 200.579 111.195C200.281 110.392 199.818 109.682 199.509 108.961C199.169 108.169 198.376 107.644 198.026 106.954C197.635 106.182 197.779 105.173 197.368 104.515C196.904 103.784 196.06 103.382 195.577 102.775C195.041 102.106 194.825 101.179 194.259 100.644C193.641 100.068 192.663 99.9853 191.994 99.553C191.294 99.1001 190.852 98.1942 190.1 97.8751C189.349 97.556 188.402 97.803 187.599 97.5972C186.827 97.4016 186.086 96.9693 185.252 96.8457C184.47 96.7325 183.615 97.0722 182.771 97.0104C181.979 96.959 181.186 96.3413 180.393 96.3928C179.601 96.4443 178.808 96.6913 178.026 96.8354C177.243 96.9795 176.564 97.5457 175.802 97.7516C175.03 97.9678 174.227 98.0089 173.486 98.2869C172.735 98.5648 171.973 98.8015 171.263 99.1309C170.522 99.4706 169.667 99.553 168.988 99.9236C168.267 100.315 167.629 100.84 166.981 101.241C166.26 101.684 165.684 102.271 165.076 102.693C164.345 103.207 163.532 103.475 162.997 103.887C161.834 104.792 162.606 105.698 161.504 105.276C160.382 104.844 161.031 104.793 160.65 103.351C160.475 102.682 160.454 101.848 160.146 101.004C159.899 100.304 159.61 99.553 159.25 98.7707C158.931 98.0707 158.437 97.4325 158.025 96.7016C157.644 96.0222 157.037 95.487 156.563 94.8076C156.11 94.1694 155.997 93.2532 155.462 92.6356C154.947 92.0489 154.577 91.2459 153.969 90.6901C153.393 90.1651 152.322 90.2063 151.653 89.7225C151.015 89.2695 150.552 88.5387 149.831 88.1475C149.152 87.7667 148.483 87.2829 147.721 86.9638C147 86.6652 146.198 86.4903 145.405 86.2638C144.654 86.0476 143.799 86.2432 142.986 86.0991C142.224 85.9653 141.473 85.6153 140.649 85.5432C139.877 85.4815 139.074 85.6874 138.251 85.6874C137.479 85.6874 136.666 85.3888 135.842 85.4403C135.07 85.4917 134.216 85.2653 133.402 85.3682C132.62 85.4712 131.941 86.377 131.097 86.5417C130.314 86.6961 129.378 86.2432 128.544 86.4491C127.772 86.6447 126.928 86.7476 126.115 86.9946C125.343 87.2211 124.787 88.199 123.984 88.4666C123.222 88.724 122.203 88.3019 121.41 88.5902C120.649 88.8681 119.856 89.1254 119.074 89.4342C118.322 89.7328 117.694 90.4019 116.922 90.7313C116.171 91.0504 115.553 91.6989 114.791 92.0283C114.05 92.3577 112.99 92.0283 112.239 92.3885C111.497 92.7385 110.942 93.5003 110.2 93.8606C109.47 94.2208 108.615 94.3752 107.874 94.7458C107.143 95.1164 106.309 95.3017 105.568 95.6928C104.848 96.084 104.354 96.9075 103.633 97.3089C102.912 97.7104 102.12 97.978 101.41 98.4001C100.699 98.8118 100.185 99.553 99.4744 99.9853C98.7641 100.407 97.848 100.49 97.148 100.922C96.448 101.365 95.6039 101.581 94.9143 102.034C94.2246 102.487 93.9364 103.547 93.257 104.01C92.5776 104.473 91.7129 104.679 91.0438 105.153C90.3644 105.626 89.438 105.76 88.7689 106.244C88.0998 106.738 87.6572 107.52 87.0087 108.025C86.3499 108.529 85.7632 109.126 85.1249 109.641C84.4764 110.166 83.972 110.835 83.3441 111.37C82.7059 111.905 81.7692 112.08 81.1619 112.626C80.5442 113.182 80.0501 113.872 79.4634 114.438C78.8561 115.014 78.2796 115.591 77.7032 116.177C77.1164 116.774 76.4988 117.32 75.9429 117.927C75.3768 118.545 75.1297 119.42 74.6048 120.037C74.0592 120.676 73.2357 121.057 72.7313 121.705C72.2166 122.364 71.8872 123.146 71.424 123.815C70.9402 124.505 70.302 125.071 69.8799 125.761C69.4373 126.481 69.2108 127.295 68.8403 128.015C68.4491 128.767 67.6359 129.312 67.3374 130.064C67.0183 130.846 67.1109 131.772 66.8845 132.544C66.6477 133.347 66.3904 134.15 66.2668 134.943C66.133 135.766 65.8242 136.6 65.8139 137.413C65.8036 138.247 65.9786 139.091 66.1021 139.915C66.2154 140.728 66.5859 141.5 66.8433 142.293C67.0903 143.065 67.5741 143.775 67.883 144.578C68.1712 145.339 68.5315 146.081 68.8609 146.873C69.18 147.625 69.1491 148.551 69.5094 149.323C69.8593 150.064 70.1784 150.847 70.5593 151.598C70.9299 152.329 71.1152 153.183 71.5166 153.935C71.9078 154.666 72.9578 155.036 73.3798 155.777C73.7813 156.498 73.8327 157.435 74.2548 158.155C74.6665 158.865 75.14 159.555 75.5827 160.276C76.015 160.986 76.7458 161.511 77.1988 162.221C77.6414 162.921 78.0943 163.611 78.5472 164.321C79.0002 165.021 79.2575 165.845 79.7207 166.545C80.184 167.234 80.7192 167.872 81.1927 168.572C81.6559 169.262 82.0471 170.003 82.5206 170.693C82.9941 171.372 83.1177 172.309 83.6015 172.988C84.0853 173.668 84.7647 174.203 85.2587 174.882C85.7528 175.562 86.4528 176.077 86.9572 176.746C87.4513 177.415 88.0689 178.001 88.5733 178.671C89.0777 179.34 89.4792 180.081 89.9836 180.74C90.488 181.409 90.7041 182.294 91.2188 182.953C91.7335 183.611 92.382 184.178 92.8864 184.826C93.4011 185.485 94.0702 186.02 94.5952 186.669C95.1201 187.328 95.4804 188.11 95.9951 188.758C96.5201 189.417 97.3024 189.86 97.8274 190.498C98.3627 191.146 98.4553 192.155 98.9906 192.783C99.5258 193.432 100.483 193.72 101.018 194.358C101.564 195.007 102.079 195.665 102.614 196.293C103.17 196.942 103.757 197.529 104.292 198.157C104.848 198.805 105.27 199.536 105.815 200.154C106.381 200.792 106.629 201.687 107.174 202.295C107.74 202.933 108.8 203.108 109.346 203.705C109.923 204.343 110.17 205.249 110.715 205.846C111.302 206.484 111.745 207.215 112.29 207.802C112.897 208.44 113.711 208.821 114.256 209.387C114.884 210.036 115.43 210.663 115.975 211.199C116.644 211.868 116.943 212.763 117.468 213.247C118.096 213.824 118.899 214.204 119.516 214.76C120.154 215.326 120.916 215.748 121.544 216.294C122.193 216.85 122.748 217.498 123.407 218.023C124.076 218.548 124.982 218.744 125.662 219.218C126.362 219.712 127.062 220.134 127.782 220.566C128.513 221.009 129.244 221.348 130.006 221.709C130.767 222.079 131.405 222.666 132.208 222.944C133.001 223.222 133.814 223.366 134.648 223.551C135.461 223.726 136.264 223.911 137.119 223.984C137.942 224.056 138.755 223.87 139.62 223.839C140.433 223.808 141.267 223.984 142.132 223.86C142.934 223.747 143.861 224.025 144.715 223.808C145.508 223.613 146.156 222.82 146.99 222.542C147.762 222.285 148.637 222.244 149.45 221.904C150.202 221.585 151.077 221.451 151.869 221.06C152.621 220.689 153.269 220.103 154 219.742C154.752 219.372 155.513 219.022 156.244 218.662C156.996 218.281 157.85 218.126 158.581 217.756C159.332 217.375 159.868 216.593 160.598 216.212C161.35 215.831 162.132 215.532 162.853 215.151C163.604 214.76 164.417 214.524 165.138 214.143C165.879 213.752 166.487 213.124 167.217 212.732C167.959 212.331 168.833 212.207 169.554 211.816C170.295 211.415 170.944 210.859 171.664 210.468C172.405 210.056 173.198 209.778 173.908 209.377C174.639 208.965 175.154 208.183 175.864 207.781C176.595 207.359 177.563 207.369 178.273 206.958C179.004 206.536 179.467 205.681 180.167 205.259C180.887 204.827 181.824 204.765 182.514 204.333C183.234 203.89 183.718 203.098 184.408 202.665C185.128 202.212 186.137 202.274 186.827 201.831C187.537 201.368 187.939 200.483 188.618 200.03C189.318 199.567 190.214 199.443 190.78 198.97C191.428 198.424 191.799 197.673 192.293 197.117C192.849 196.489 193.683 196.087 194.063 195.449C194.485 194.739 194.753 193.926 194.99 193.195C195.237 192.423 195.247 191.589 195.319 190.807C195.391 190.024 195.618 189.191 195.546 188.398C195.474 187.616 195.391 186.782 195.227 186C195.062 185.238 194.846 184.435 194.609 183.673C194.382 182.922 193.96 182.212 193.693 181.46C193.425 180.709 193.085 179.988 192.818 179.257C192.55 178.506 192.272 177.826 192.036 177.096C192.396 175.891 192.406 176.272 193.435 175.037C193.888 174.491 194.877 174.193 195.453 173.421C195.906 172.803 195.885 171.753 196.39 171.002C196.832 170.343 197.337 169.684 197.8 168.933C198.222 168.243 198.613 167.512 199.035 166.75C199.426 166.04 200.343 165.577 200.734 164.795C201.094 164.064 201.506 163.312 201.856 162.52C202.185 161.768 202.031 160.79 202.34 159.987C202.638 159.226 203.338 158.577 203.606 157.774C203.873 156.992 203.884 156.107 204.12 155.293C204.347 154.501 204.141 153.585 204.337 152.751C204.532 151.948 205.078 151.217 205.242 150.373C205.397 149.56 205.654 148.747 205.767 147.903C205.881 147.079 206.261 146.266 206.344 145.422C206.416 144.598 205.87 143.713 205.911 142.869C205.953 142.045 205.963 141.212 205.963 140.357C205.963 139.523 205.963 138.7 205.922 137.846C205.881 137.022 206.189 136.157 206.107 135.303C206.035 134.48 205.85 133.646 205.726 132.802C205.51 132.009 205.561 131.144 205.407 130.3ZM183.883 151.227C183.399 150.033 183.348 150.054 182.874 148.86C182.39 147.666 182.431 147.645 181.958 146.451C181.474 145.257 181.423 145.278 180.939 144.084C180.455 142.89 180.414 142.91 179.93 141.706C179.446 140.512 179.642 140.429 179.168 139.246C178.685 138.052 178.386 138.175 177.902 136.981C177.418 135.787 177.429 135.777 176.945 134.583C176.461 133.388 176.688 133.296 176.204 132.102C175.72 130.908 175.566 130.969 175.082 129.775C174.598 128.581 174.145 128.767 173.661 127.562C173.177 126.368 173.754 126.131 173.27 124.937C172.889 123.99 172.375 123.023 172.58 122.065C172.786 121.108 173.661 120.46 174.423 119.76C174.979 119.255 175.277 118.298 175.977 117.804C176.626 117.341 177.624 117.423 178.365 117.063C179.096 116.713 179.673 115.93 180.476 115.745C181.258 115.57 182.112 115.786 182.936 115.858C183.708 115.93 184.645 115.735 185.437 116.095C186.127 116.404 186.497 117.351 187.177 117.917C187.753 118.391 188.402 118.833 188.968 119.523C189.483 120.14 190.265 120.655 190.625 121.437C190.965 122.158 191.058 123.043 191.284 123.877C191.49 124.649 191.583 125.483 191.706 126.337C191.819 127.14 191.593 127.984 191.644 128.839C191.686 129.652 191.84 130.465 191.83 131.309C191.819 132.133 191.963 132.966 191.912 133.8C191.861 134.624 191.521 135.427 191.438 136.26C191.356 137.084 191.161 137.887 191.047 138.721C190.934 139.544 191.418 140.46 191.274 141.284C191.13 142.107 190.769 142.9 190.615 143.703C190.45 144.537 190.275 145.35 190.1 146.142C189.915 146.976 189.884 147.831 189.689 148.613C189.483 149.457 189.503 150.322 189.297 151.094C189.071 151.938 188.134 152.36 187.486 152.689C186.786 153.039 186.127 152.813 185.396 152.545C184.696 152.298 184.212 152.041 183.883 151.227Z" stroke="#161B18" stroke-miterlimit="10" stroke-linecap="round" stroke-linejoin="round"/>
<path d="M88.0067 125.534C87.2347 126.461 87.2553 126.09 86.37 127.284C85.9583 127.84 85.6083 128.55 85.1245 129.322C84.7231 129.95 84.2701 130.589 83.8687 131.35C83.5084 132.03 82.9834 132.658 82.6643 133.43C82.3658 134.15 82.3349 134.974 82.0878 135.766C81.8511 136.518 81.2129 137.177 81.0585 137.979C80.8938 138.793 80.7908 139.647 80.7908 140.46C80.7908 141.294 80.6673 142.2 80.8526 142.993C81.0379 143.816 81.3364 144.701 81.7173 145.412C82.1084 146.142 82.7981 146.801 83.4157 147.347C84.0128 147.872 84.8877 148.088 85.701 148.386C86.4215 148.644 87.2244 148.5 88.12 148.531C88.8714 148.551 89.6229 148.479 90.5081 148.314C91.2596 148.17 92.0419 148.088 92.886 147.789C93.6065 147.532 94.4609 147.45 95.2535 147.069C95.9535 146.729 96.8285 146.606 97.5902 146.163C98.2696 145.772 98.6299 144.784 99.3504 144.3C100.009 143.857 101.069 143.991 101.739 143.538C102.397 143.095 102.84 142.313 103.519 141.86C104.178 141.418 104.909 141.047 105.578 140.594C106.237 140.141 107.019 139.874 107.688 139.41C108.347 138.957 108.965 138.443 109.634 137.979C110.293 137.516 110.571 136.528 111.24 136.055C111.898 135.591 112.969 135.705 113.628 135.241C114.287 134.778 114.894 134.243 115.553 133.78C116.212 133.306 116.86 132.843 117.509 132.369C118.157 131.896 118.775 131.371 119.423 130.897C120.072 130.414 120.453 129.57 121.091 129.086C121.739 128.602 122.738 128.592 123.376 128.108C124.024 127.614 124.364 126.728 124.992 126.245C125.641 125.751 126.279 125.267 126.907 124.773C127.545 124.268 128.43 124.083 129.048 123.589C129.686 123.074 130.376 122.642 130.983 122.137C131.621 121.612 131.951 120.758 132.558 120.243C133.186 119.708 133.979 119.389 134.576 118.874C135.203 118.329 135.656 117.629 136.233 117.104C136.85 116.548 137.417 115.982 137.983 115.436C138.59 114.86 139.362 114.489 139.897 113.933C140.484 113.326 141.05 112.739 141.544 112.173C142.131 111.494 142.347 110.639 142.738 110.011C143.212 109.229 143.48 108.509 143.665 107.809C143.891 106.944 144.2 106.151 144.025 105.4C143.85 104.618 143.531 103.753 142.975 103.115C142.481 102.548 141.627 102.229 140.875 101.776C140.227 101.385 139.372 101.354 138.559 101.066C137.828 100.809 137.077 100.644 136.243 100.469C135.481 100.304 134.771 99.6457 133.937 99.5427C133.155 99.4501 132.311 99.7795 131.477 99.7486C130.685 99.7177 129.871 99.3574 129.038 99.3883C128.235 99.4192 127.586 99.2133 126.763 99.3059C125.558 98.8221 125.692 99.0692 124.858 97.7619C124.457 97.1237 123.973 96.3414 123.613 95.4458C123.314 94.7047 123.139 93.8091 122.975 92.9033C122.82 92.1003 123.119 91.2151 123.139 90.2989C123.15 89.4857 123.366 88.7034 123.561 87.8079C123.736 87.0153 123.551 86.0785 123.911 85.2241C124.22 84.4727 124.447 83.5977 124.92 82.8051C125.342 82.1051 126.135 81.5905 126.701 80.8596C127.185 80.2317 127.576 79.4905 128.121 78.8523C128.646 78.245 129.511 77.9156 130.077 77.298C130.623 76.7009 130.921 75.8672 131.498 75.2598C132.054 74.6731 132.362 73.829 132.939 73.232C133.505 72.6452 134.462 72.429 135.039 71.832C135.605 71.2453 135.965 70.4424 136.521 69.8453C137.087 69.2483 137.633 68.6409 138.178 68.0336C138.734 67.416 139.599 67.0763 140.124 66.4587C140.659 65.8308 140.896 64.9558 141.4 64.3176C141.915 63.6588 142.409 63.0103 142.862 62.3412C143.335 61.6515 144.056 61.1265 144.458 60.4266C144.88 59.706 145.158 58.8928 145.487 58.1619C145.827 57.4002 146.053 56.587 146.279 55.815C146.506 55.0121 146.177 54.1474 146.269 53.3342C146.362 52.521 146.702 51.7593 146.63 50.9358C146.557 50.1328 146.619 49.2887 146.382 48.4755C146.156 47.7241 145.837 46.9418 145.446 46.1801C145.085 45.4904 144.581 44.8213 144.077 44.1213C143.572 43.4316 143.119 42.7317 142.584 42.1964C141.987 41.5891 141.452 40.8994 140.814 40.467C140.124 39.9935 139.146 40.0759 138.415 39.7774C137.664 39.4686 136.953 39.0671 136.161 38.9333C135.368 38.7995 134.565 38.5524 133.742 38.573C132.949 38.5833 132.157 38.923 131.343 39.0465C130.561 39.17 129.676 38.9847 128.883 39.2009C128.121 39.4171 127.318 39.6435 126.546 39.9215C125.795 40.1994 125.28 41.0744 124.529 41.4038C123.798 41.7229 122.902 41.7023 122.172 42.0626C121.451 42.4126 120.813 42.9478 120.092 43.3287C119.372 43.7095 118.713 44.1831 118.003 44.5639C117.282 44.9551 116.623 45.4286 115.923 45.8198C115.203 46.2212 114.523 46.6536 113.823 47.0344C113.103 47.4359 112.3 47.6726 111.61 48.0329C110.869 48.4241 110.231 48.9697 109.531 49.2991C108.759 49.6593 107.76 49.3608 107.05 49.6182C106.247 49.9167 105.547 50.4931 104.703 50.6578C103.859 50.8225 102.984 50.5549 102.13 50.5858C101.275 50.6269 100.411 51.0593 99.5666 50.9769C98.7019 50.8946 97.8064 50.8946 96.9829 50.6887C96.1388 50.4828 95.2535 50.2564 94.4815 49.927C93.6683 49.5873 93.1845 48.6505 92.4845 48.1976C91.7434 47.7241 90.7963 47.5388 90.2096 46.9418C89.6023 46.3139 89.3861 45.408 88.9743 44.6669C88.5626 43.9154 88.47 43.1434 88.3053 42.289C88.1509 41.4758 87.9656 40.7244 88.0788 39.8185C88.1714 39.0259 87.842 38.048 88.1714 37.1833C88.4494 36.4319 89.314 35.8863 89.7876 35.0937C90.1993 34.404 90.6728 33.7246 91.0434 33.0041C91.414 32.2835 91.5066 31.4291 91.836 30.688C92.1654 29.9468 92.186 29.0925 92.4536 28.341C92.7316 27.5793 93.6271 27.0132 93.8433 26.2411C94.0697 25.4588 93.6992 24.5324 93.8536 23.75C94.0183 22.9471 94.5741 22.2163 94.6668 21.4339C94.7594 20.6207 94.4712 19.787 94.4815 18.9943C94.4918 18.1811 94.5536 17.3679 94.4815 16.5856C94.4094 15.7724 94.3271 14.9592 94.1521 14.1872C93.9771 13.3945 93.8433 12.5711 93.5551 11.8299C93.2668 11.0785 92.5874 10.5123 92.186 9.81232C91.7845 9.12264 91.7537 8.13447 91.2287 7.51684C90.714 6.90951 89.767 6.70362 89.1391 6.17864C88.5317 5.67425 88.0067 5.06692 87.2862 4.63458C86.6171 4.24342 85.7833 4.15078 85.0113 3.83167C84.3525 3.55374 83.6319 3.22437 82.7466 2.98761C82.0158 2.79203 81.2952 2.29791 80.4306 2.13322C79.6688 1.9891 78.835 2.05086 77.9807 1.93763C77.2086 1.83469 76.416 1.56706 75.5616 1.48471C74.7793 1.41265 73.9764 1.08325 73.1323 1.03178C72.3397 0.990604 71.5059 1.02149 70.6721 1.0009C69.8692 0.980312 69.0457 1.32 68.2119 1.32C67.409 1.32 66.6061 1.54646 65.7723 1.57735C64.9694 1.60823 64.1253 1.08325 63.3018 1.13472C62.4989 1.18619 61.7269 1.88618 60.9034 1.95824C60.1005 2.0303 59.2976 2.15381 58.4741 2.23616C57.6711 2.3288 56.8682 2.41115 56.055 2.52438C55.2521 2.63761 54.3463 2.11264 53.5331 2.24646C52.7302 2.38028 52.0508 3.21407 51.2376 3.36847C50.4347 3.52288 49.4876 2.93614 48.6847 3.11113C47.8921 3.28612 47.1407 3.70816 46.3481 3.90374C45.5554 4.09932 44.7422 4.22283 43.9496 4.439C43.1673 4.65517 42.3644 4.85075 41.5821 5.08751C40.7997 5.32426 40.0792 5.7566 39.3071 6.02424C38.5351 6.28158 37.8351 6.75511 37.0631 7.03304C36.3014 7.32126 35.4985 7.51684 34.747 7.83595C33.9956 8.14476 33.2339 8.44326 32.4824 8.78295C31.7413 9.12264 30.8354 9.13295 30.1046 9.50352C29.3737 9.8638 28.9311 10.8005 28.2208 11.1917C27.5003 11.5828 26.4812 11.4388 25.7812 11.8608C25.0812 12.2828 24.6798 13.199 24.0004 13.6416C23.321 14.0842 22.446 14.2489 21.7769 14.7327C21.1079 15.2062 20.2946 15.5048 19.6564 16.0092C19.0182 16.5136 18.5962 17.3062 17.9683 17.8414C17.3506 18.3767 16.6404 18.8193 16.0536 19.3855C15.4669 19.9517 14.9728 20.6207 14.4066 21.2178C13.8405 21.8045 13.3876 22.4942 12.8523 23.1118C12.317 23.7294 11.5553 24.1618 11.0509 24.8103C10.5568 25.4485 10.5465 26.4573 10.073 27.1367C9.60977 27.8058 9.08478 28.4234 8.65245 29.1234C8.23041 29.813 7.38633 30.266 6.98487 30.9968C6.59371 31.7071 6.17166 32.4276 5.81138 33.1688C5.46139 33.8996 5.20406 34.6923 4.88495 35.454C4.56585 36.2157 4.74083 37.1627 4.4629 37.8936C4.16439 38.6759 3.8144 39.3965 3.56735 40.1376C3.29971 40.9303 3.19677 41.7332 2.98061 42.4846C2.74385 43.2875 2.10564 43.9463 1.92035 44.6978C1.72477 45.511 2.04388 46.3962 1.89977 47.1579C1.74536 47.9814 1.39538 48.7226 1.30273 49.4946C1.21009 50.3284 1.04539 51.121 1.01451 51.8931C0.983628 52.7371 1.00422 53.5401 1.05569 54.3018C1.11745 55.1459 1.52919 55.8768 1.67331 56.6385C1.82771 57.462 1.6836 58.3061 1.93065 59.0472C2.19829 59.8398 2.3424 60.6633 2.70268 61.353C3.08355 62.0839 3.59823 62.7426 4.07175 63.3706C4.56584 64.0191 5.07024 64.6779 5.64668 65.2337C6.23343 65.7999 6.99516 66.1602 7.64367 66.6234C8.29217 67.0969 9.14655 67.1998 9.85681 67.591C10.5568 67.9822 10.948 69.0321 11.6891 69.3409C12.4302 69.66 13.3464 69.5571 14.1081 69.8144C14.8802 70.0718 15.7448 69.9585 16.5169 70.1644C17.3095 70.3703 17.9065 71.3482 18.6888 71.5129C19.502 71.6879 20.3255 71.7599 21.0976 71.8938C21.9314 72.0379 22.7754 71.8526 23.5372 71.9658C24.3915 72.0893 25.2356 71.9452 25.9665 72.0585C26.8929 72.2026 27.6444 72.5938 28.2929 72.7482C29.0958 72.9437 29.981 72.882 30.6707 73.2011C31.4119 73.5511 32.1427 74.004 32.7398 74.4878C33.3574 74.9922 33.7897 75.7539 34.2529 76.3921C34.7059 77.0304 35.2411 77.6994 35.5191 78.4509C35.7867 79.1714 35.3852 80.0773 35.4882 80.8802C35.5808 81.6316 35.5191 82.3522 35.4573 83.1757C35.3955 83.9271 35.8999 84.7918 35.7043 85.5947C35.5294 86.3256 35.2 87.077 34.9014 87.849C34.6235 88.5593 34.0985 89.1872 33.7177 89.9078C33.3677 90.5769 32.7706 91.1327 32.3383 91.8224C31.906 92.5018 31.731 93.3768 31.3398 94.1179C30.9589 94.8385 30.8972 95.7134 30.5678 96.4752C30.2384 97.2266 29.4149 97.8031 29.1575 98.5751C28.9002 99.3574 29.1164 100.284 28.9414 101.076C28.7561 101.89 28.2002 102.631 28.1076 103.444C28.0149 104.268 28.509 105.112 28.5296 105.925C28.5605 106.759 28.0252 107.644 28.1899 108.447C28.3546 109.26 29.0958 109.898 29.4149 110.66C29.7237 111.411 30.0428 112.142 30.5163 112.822C30.9692 113.48 31.6486 113.913 32.2662 114.499C32.8427 115.035 33.378 115.591 34.1088 116.064C34.7676 116.486 35.3029 117.196 36.0955 117.557C36.8058 117.876 37.6499 117.979 38.4837 118.236C39.2351 118.473 40.0586 118.504 40.9027 118.689C41.6747 118.854 42.4467 119.132 43.3011 119.245C44.1658 119.368 44.979 119.605 45.7922 119.698C46.6569 119.79 47.4701 120.295 48.2833 120.357C49.1582 120.429 50.0229 120.233 50.8361 120.264C51.7111 120.295 52.5655 120.264 53.3787 120.264C54.2639 120.264 55.108 120.336 55.9212 120.305C56.7962 120.264 57.63 119.976 58.4329 119.893C59.3078 119.801 60.1828 119.945 60.9857 119.821C61.8504 119.688 62.6636 119.41 63.4562 119.245C64.3106 119.07 65.1856 119.07 65.9782 118.864C66.812 118.658 67.4605 117.804 68.2634 117.588C69.0869 117.361 70.0133 117.577 70.8265 117.351C71.6397 117.124 72.35 116.507 73.1632 116.311C73.9764 116.116 74.8925 116.424 75.7366 116.27C76.5395 116.126 77.363 116.033 78.2277 115.941C79.1644 115.838 80.0085 115.539 80.832 115.539C81.7893 115.539 82.5922 116.044 83.3849 116.177C84.3422 116.342 85.1245 116.476 85.8451 116.795C86.7406 117.196 87.8729 117.155 88.3979 117.752C89.0052 118.432 89.0567 119.502 89.1905 120.357C89.3243 121.17 89.2111 122.024 88.9126 122.92C88.6244 123.723 88.5626 124.752 88.0067 125.534Z" fill="white"/>
<path d="M88.0067 125.534C87.2347 126.461 87.2553 126.09 86.37 127.284C85.9583 127.84 85.6083 128.55 85.1245 129.322C84.7231 129.95 84.2701 130.589 83.8687 131.35C83.5084 132.03 82.9834 132.658 82.6643 133.43C82.3658 134.15 82.3349 134.974 82.0878 135.766C81.8511 136.518 81.2129 137.177 81.0585 137.979C80.8938 138.793 80.7908 139.647 80.7908 140.46C80.7908 141.294 80.6673 142.2 80.8526 142.993C81.0379 143.816 81.3364 144.701 81.7173 145.412C82.1084 146.142 82.7981 146.801 83.4157 147.347C84.0128 147.872 84.8877 148.088 85.701 148.386C86.4215 148.644 87.2244 148.5 88.12 148.531C88.8714 148.551 89.6229 148.479 90.5081 148.314C91.2596 148.17 92.0419 148.088 92.886 147.789C93.6065 147.532 94.4609 147.45 95.2535 147.069C95.9535 146.729 96.8285 146.606 97.5902 146.163C98.2696 145.772 98.6299 144.784 99.3504 144.3C100.009 143.857 101.069 143.991 101.739 143.538C102.397 143.095 102.84 142.313 103.519 141.86C104.178 141.418 104.909 141.047 105.578 140.594C106.237 140.141 107.019 139.874 107.688 139.41C108.347 138.957 108.965 138.443 109.634 137.979C110.293 137.516 110.571 136.528 111.24 136.055C111.898 135.591 112.969 135.705 113.628 135.241C114.287 134.778 114.894 134.243 115.553 133.78C116.212 133.306 116.86 132.843 117.509 132.369C118.157 131.896 118.775 131.371 119.423 130.897C120.072 130.414 120.453 129.57 121.091 129.086C121.739 128.602 122.738 128.592 123.376 128.108C124.024 127.614 124.364 126.728 124.992 126.245C125.641 125.751 126.279 125.267 126.907 124.773C127.545 124.268 128.43 124.083 129.048 123.589C129.686 123.074 130.376 122.642 130.983 122.137C131.621 121.612 131.951 120.758 132.558 120.243C133.186 119.708 133.979 119.389 134.576 118.874C135.203 118.329 135.656 117.629 136.233 117.104C136.85 116.548 137.417 115.982 137.983 115.436C138.59 114.86 139.362 114.489 139.897 113.933C140.484 113.326 141.05 112.739 141.544 112.173C142.131 111.494 142.347 110.639 142.738 110.011C143.212 109.229 143.48 108.509 143.665 107.809C143.891 106.944 144.2 106.151 144.025 105.4C143.85 104.618 143.531 103.753 142.975 103.115C142.481 102.548 141.627 102.229 140.875 101.776C140.227 101.385 139.372 101.354 138.559 101.066C137.828 100.809 137.077 100.644 136.243 100.469C135.481 100.304 134.771 99.6457 133.937 99.5427C133.155 99.4501 132.311 99.7795 131.477 99.7486C130.685 99.7177 129.871 99.3574 129.038 99.3883C128.235 99.4192 127.586 99.2133 126.763 99.3059C125.558 98.8221 125.692 99.0692 124.858 97.7619C124.457 97.1237 123.973 96.3414 123.613 95.4458C123.314 94.7047 123.139 93.8091 122.975 92.9033C122.82 92.1003 123.119 91.2151 123.139 90.2989C123.15 89.4857 123.366 88.7034 123.561 87.8079C123.736 87.0153 123.551 86.0785 123.911 85.2241C124.22 84.4727 124.447 83.5977 124.92 82.8051C125.342 82.1051 126.135 81.5905 126.701 80.8596C127.185 80.2317 127.576 79.4905 128.121 78.8523C128.646 78.245 129.511 77.9156 130.077 77.298C130.623 76.7009 130.921 75.8672 131.498 75.2598C132.054 74.6731 132.362 73.829 132.939 73.232C133.505 72.6452 134.462 72.429 135.039 71.832C135.605 71.2453 135.965 70.4424 136.521 69.8453C137.087 69.2483 137.633 68.6409 138.178 68.0336C138.734 67.416 139.599 67.0763 140.124 66.4587C140.659 65.8308 140.896 64.9558 141.4 64.3176C141.915 63.6588 142.409 63.0103 142.862 62.3412C143.336 61.6515 144.056 61.1265 144.458 60.4266C144.88 59.706 145.157 58.8928 145.487 58.1619C145.827 57.4002 146.053 56.587 146.279 55.815C146.506 55.0121 146.177 54.1474 146.269 53.3342C146.362 52.521 146.702 51.7593 146.629 50.9358C146.557 50.1328 146.619 49.2887 146.382 48.4755C146.156 47.7241 145.837 46.9418 145.446 46.1801C145.085 45.4904 144.581 44.8213 144.077 44.1213C143.572 43.4316 143.119 42.7317 142.584 42.1964C141.987 41.5891 141.452 40.8994 140.814 40.467C140.124 39.9935 139.146 40.0759 138.415 39.7774C137.664 39.4686 136.953 39.0671 136.161 38.9333C135.368 38.7995 134.565 38.5524 133.742 38.573C132.949 38.5833 132.157 38.923 131.343 39.0465C130.561 39.17 129.676 38.9848 128.883 39.2009C128.121 39.4171 127.318 39.6435 126.546 39.9215C125.795 40.1994 125.28 41.0744 124.529 41.4038C123.798 41.7229 122.902 41.7023 122.172 42.0626C121.451 42.4126 120.813 42.9478 120.092 43.3287C119.372 43.7095 118.713 44.1831 118.003 44.5639C117.282 44.9551 116.623 45.4286 115.923 45.8198C115.203 46.2212 114.523 46.6536 113.823 47.0344C113.103 47.4359 112.3 47.6726 111.61 48.0329C110.869 48.4241 110.231 48.9697 109.531 49.2991C108.759 49.6593 107.76 49.3608 107.05 49.6182C106.247 49.9167 105.547 50.4931 104.703 50.6578C103.859 50.8225 102.984 50.5549 102.13 50.5858C101.275 50.6269 100.411 51.0593 99.5666 50.9769C98.7019 50.8946 97.8064 50.8946 96.9829 50.6887C96.1388 50.4828 95.2535 50.2564 94.4815 49.927C93.6683 49.5873 93.1845 48.6505 92.4845 48.1976C91.7434 47.7241 90.7963 47.5388 90.2096 46.9418C89.6023 46.3139 89.3861 45.408 88.9743 44.6669C88.5626 43.9154 88.47 43.1434 88.3053 42.289C88.1509 41.4758 87.9656 40.7244 88.0788 39.8185C88.1714 39.0259 87.842 38.048 88.1714 37.1833C88.4494 36.4319 89.314 35.8863 89.7876 35.0937C90.1993 34.404 90.6728 33.7246 91.0434 33.0041C91.414 32.2835 91.5066 31.4291 91.836 30.688C92.1654 29.9468 92.186 29.0925 92.4536 28.341C92.7316 27.5793 93.6271 27.0132 93.8433 26.2411C94.0697 25.4588 93.6992 24.5324 93.8536 23.75C94.0183 22.9471 94.5741 22.2163 94.6668 21.4339C94.7594 20.6207 94.4712 19.787 94.4815 18.9943C94.4918 18.1811 94.5536 17.3679 94.4815 16.5856C94.4094 15.7724 94.3271 14.9592 94.1521 14.1872C93.9771 13.3945 93.8433 12.5711 93.5551 11.8299C93.2668 11.0785 92.5874 10.5123 92.186 9.81232C91.7845 9.12264 91.7537 8.13447 91.2287 7.51684C90.714 6.90951 89.767 6.70362 89.1391 6.17864C88.5317 5.67425 88.0067 5.06692 87.2862 4.63458C86.6171 4.24342 85.7833 4.15078 85.0113 3.83167C84.3525 3.55374 83.6319 3.22437 82.7466 2.98761C82.0158 2.79203 81.2952 2.29791 80.4306 2.13322C79.6688 1.9891 78.835 2.05086 77.9807 1.93763C77.2086 1.83469 76.416 1.56706 75.5616 1.48471C74.7793 1.41265 73.9764 1.08325 73.1323 1.03178C72.3397 0.990604 71.5059 1.02149 70.6721 1.0009C69.8692 0.980312 69.0457 1.32 68.2119 1.32C67.409 1.32 66.6061 1.54646 65.7723 1.57735C64.9694 1.60823 64.1253 1.08325 63.3018 1.13472C62.4989 1.18619 61.7269 1.88618 60.9034 1.95824C60.1005 2.0303 59.2975 2.15381 58.4741 2.23616C57.6711 2.3288 56.8682 2.41115 56.055 2.52438C55.2521 2.63761 54.3463 2.11264 53.5331 2.24646C52.7302 2.38028 52.0508 3.21407 51.2376 3.36847C50.4347 3.52288 49.4876 2.93614 48.6847 3.11113C47.8921 3.28612 47.1407 3.70816 46.3481 3.90374C45.5554 4.09932 44.7422 4.22283 43.9496 4.439C43.1673 4.65517 42.3644 4.85075 41.5821 5.08751C40.7997 5.32426 40.0792 5.7566 39.3071 6.02424C38.5351 6.28158 37.8351 6.75511 37.0631 7.03304C36.3014 7.32126 35.4985 7.51684 34.747 7.83595C33.9956 8.14476 33.2339 8.44326 32.4824 8.78295C31.7413 9.12264 30.8354 9.13295 30.1046 9.50352C29.3737 9.8638 28.9311 10.8005 28.2208 11.1917C27.5003 11.5828 26.4812 11.4388 25.7812 11.8608C25.0812 12.2828 24.6798 13.199 24.0004 13.6416C23.321 14.0842 22.446 14.2489 21.7769 14.7327C21.1079 15.2062 20.2946 15.5048 19.6564 16.0092C19.0182 16.5136 18.5962 17.3062 17.9683 17.8414C17.3506 18.3767 16.6404 18.8193 16.0536 19.3855C15.4669 19.9517 14.9728 20.6207 14.4066 21.2178C13.8405 21.8045 13.3876 22.4942 12.8523 23.1118C12.317 23.7294 11.5553 24.1618 11.0509 24.8103C10.5568 25.4485 10.5465 26.4573 10.073 27.1367C9.60977 27.8058 9.08478 28.4234 8.65245 29.1234C8.23041 29.813 7.38633 30.266 6.98487 30.9968C6.59371 31.7071 6.17166 32.4276 5.81138 33.1688C5.46139 33.8996 5.20406 34.6923 4.88495 35.454C4.56584 36.2157 4.74083 37.1627 4.4629 37.8936C4.16439 38.6759 3.8144 39.3965 3.56735 40.1377C3.29971 40.9303 3.19677 41.7332 2.98061 42.4846C2.74385 43.2875 2.10564 43.9463 1.92035 44.6978C1.72477 45.511 2.04388 46.3962 1.89977 47.1579C1.74536 47.9814 1.39538 48.7226 1.30273 49.4946C1.21009 50.3284 1.04539 51.121 1.01451 51.8931C0.983628 52.7371 1.00422 53.5401 1.05569 54.3018C1.11745 55.1459 1.52919 55.8768 1.67331 56.6385C1.82771 57.462 1.6836 58.3061 1.93065 59.0472C2.19829 59.8398 2.3424 60.6633 2.70268 61.353C3.08355 62.0839 3.59823 62.7426 4.07175 63.3706C4.56584 64.0191 5.07024 64.6779 5.64668 65.2337C6.23343 65.7999 6.99516 66.1602 7.64367 66.6234C8.29217 67.0969 9.14655 67.1998 9.85681 67.591C10.5568 67.9822 10.948 69.0321 11.6891 69.3409C12.4302 69.66 13.3464 69.5571 14.1081 69.8144C14.8802 70.0718 15.7448 69.9586 16.5169 70.1644C17.3095 70.3703 17.9065 71.3482 18.6888 71.5129C19.502 71.6879 20.3255 71.7599 21.0976 71.8938C21.9314 72.0379 22.7754 71.8526 23.5372 71.9658C24.3915 72.0894 25.2356 71.9452 25.9665 72.0585C26.8929 72.2026 27.6444 72.5938 28.2929 72.7482C29.0958 72.9437 29.981 72.882 30.6707 73.2011C31.4119 73.5511 32.1427 74.004 32.7398 74.4878C33.3574 74.9922 33.7897 75.7539 34.2529 76.3921C34.7059 77.0304 35.2411 77.6994 35.5191 78.4509C35.7867 79.1715 35.3852 80.0773 35.4882 80.8802C35.5808 81.6316 35.5191 82.3522 35.4573 83.1757C35.3955 83.9271 35.8999 84.7918 35.7043 85.5947C35.5294 86.3256 35.2 87.077 34.9014 87.849C34.6235 88.5593 34.0985 89.1872 33.7177 89.9078C33.3677 90.5769 32.7706 91.1327 32.3383 91.8224C31.906 92.5018 31.731 93.3768 31.3398 94.1179C30.9589 94.8385 30.8972 95.7134 30.5678 96.4752C30.2384 97.2266 29.4149 97.8031 29.1575 98.5751C28.9002 99.3574 29.1164 100.284 28.9414 101.076C28.7561 101.89 28.2002 102.631 28.1076 103.444C28.0149 104.268 28.509 105.112 28.5296 105.925C28.5605 106.759 28.0252 107.644 28.1899 108.447C28.3546 109.26 29.0958 109.898 29.4149 110.66C29.7237 111.411 30.0428 112.142 30.5163 112.822C30.9692 113.48 31.6486 113.913 32.2662 114.499C32.8427 115.035 33.378 115.591 34.1088 116.064C34.7676 116.486 35.3029 117.196 36.0955 117.557C36.8058 117.876 37.6499 117.979 38.4837 118.236C39.2351 118.473 40.0586 118.504 40.9027 118.689C41.6747 118.854 42.4467 119.132 43.3011 119.245C44.1658 119.368 44.979 119.605 45.7922 119.698C46.6569 119.79 47.4701 120.295 48.2833 120.357C49.1582 120.429 50.0229 120.233 50.8361 120.264C51.7111 120.295 52.5655 120.264 53.3787 120.264C54.2639 120.264 55.108 120.336 55.9212 120.305C56.7962 120.264 57.63 119.976 58.4329 119.893C59.3078 119.801 60.1828 119.945 60.9857 119.821C61.8504 119.688 62.6636 119.41 63.4562 119.245C64.3106 119.07 65.1856 119.07 65.9782 118.864C66.812 118.658 67.4605 117.804 68.2634 117.588C69.0869 117.361 70.0133 117.577 70.8265 117.351C71.6397 117.124 72.35 116.507 73.1632 116.311C73.9764 116.116 74.8925 116.424 75.7366 116.27C76.5395 116.126 77.363 116.033 78.2277 115.941C79.1644 115.838 80.0085 115.539 80.832 115.539C81.7893 115.539 82.5922 116.044 83.3849 116.177C84.3422 116.342 85.1245 116.476 85.8451 116.795C86.7406 117.196 87.8729 117.155 88.3979 117.752C89.0052 118.432 89.0567 119.502 89.1905 120.357C89.3243 121.17 89.2111 122.024 88.9126 122.92C88.6244 123.723 88.5626 124.752 88.0067 125.534Z" stroke="#161B18" stroke-miterlimit="10" stroke-linecap="round" stroke-linejoin="round"/>
<path d="M163.368 156.436C163.779 157.146 164.068 157.888 164.418 158.618C164.768 159.36 165.025 160.111 165.303 160.862C165.591 161.634 166.198 162.273 166.415 163.055C166.631 163.848 166.394 164.723 166.538 165.515C166.682 166.318 167.197 167.059 167.269 167.862C167.341 168.675 167.475 169.489 167.475 170.302C167.475 171.115 167.248 171.928 167.176 172.731C167.104 173.544 167.31 174.399 167.176 175.202C167.043 176.004 166.363 176.694 166.157 177.477C165.951 178.269 166.332 179.237 166.054 180.009C165.776 180.77 165.334 181.501 164.994 182.243C164.654 182.984 164.376 183.787 163.965 184.487C163.563 185.197 162.668 185.598 162.204 186.278C161.741 186.947 161.505 187.781 160.98 188.408C160.465 189.036 159.991 189.726 159.415 190.302C158.849 190.879 157.902 191.054 157.274 191.579C156.656 192.104 156.389 193.092 155.719 193.566C155.061 194.029 154.145 194.142 153.434 194.564C152.724 194.976 152.148 195.645 151.417 195.995C150.676 196.345 149.873 196.602 149.111 196.88C148.339 197.168 147.464 197.107 146.682 197.323C145.889 197.539 145.086 197.57 144.283 197.714C143.48 197.858 142.718 198.218 141.905 198.29C141.092 198.362 140.279 198.671 139.466 198.671C138.652 198.671 137.85 198.177 137.036 198.115C136.223 198.043 135.4 198.146 134.597 198.002C133.794 197.868 133.022 197.611 132.229 197.405C131.437 197.199 130.644 197.045 129.872 196.767C129.11 196.489 128.369 196.149 127.628 195.81C126.887 195.47 126.331 194.811 125.621 194.41C124.91 194.008 124.2 193.668 123.531 193.195C122.862 192.732 121.812 192.752 121.184 192.238C120.556 191.723 120.422 190.652 119.846 190.076C119.269 189.51 118.415 189.191 117.89 188.563C117.365 187.945 117.087 187.132 116.614 186.463C116.15 185.804 115.306 185.361 114.895 184.651C114.483 183.941 114.195 183.148 113.845 182.417C113.495 181.676 113.073 180.946 112.795 180.184C112.506 179.412 112.187 178.629 111.981 177.847C111.765 177.054 111.889 176.169 111.745 175.377C111.601 174.574 111.745 173.74 111.673 172.927C111.601 172.113 111.354 171.321 111.354 170.508C111.354 169.694 111.673 168.902 111.745 168.089C111.817 167.275 111.456 166.411 111.59 165.608C111.724 164.805 111.889 163.992 112.105 163.199C112.311 162.407 112.712 161.676 112.98 160.904C113.258 160.142 113.361 159.287 113.7 158.546C114.04 157.805 114.73 157.239 115.131 156.529C115.533 155.818 115.862 155.067 116.325 154.398C116.789 153.729 117.005 152.854 117.53 152.226C118.044 151.598 119.146 151.495 119.722 150.919C120.288 150.342 120.762 149.694 121.39 149.158C122.008 148.633 122.471 147.913 123.14 147.439C123.799 146.976 124.334 146.266 125.044 145.844C125.754 145.432 126.619 145.278 127.35 144.938C128.091 144.588 128.966 144.578 129.728 144.3C130.5 144.012 131.107 143.24 131.889 143.023C132.682 142.807 133.495 142.591 134.298 142.447C135.101 142.303 135.966 142.457 136.779 142.385C137.592 142.313 138.416 141.973 139.229 141.973C140.042 141.973 140.866 142.406 141.669 142.478C142.482 142.55 143.243 142.91 144.046 143.044C144.849 143.178 145.621 143.363 146.414 143.569C147.207 143.775 148.071 143.703 148.833 143.981C149.595 144.259 150.243 144.815 150.984 145.165C151.725 145.504 152.673 145.453 153.383 145.854C154.093 146.256 154.803 146.698 155.472 147.161C156.141 147.625 156.883 148.036 157.511 148.561C158.138 149.076 158.674 149.745 159.25 150.322C159.827 150.888 160.383 151.516 160.918 152.144C161.443 152.761 161.988 153.399 162.462 154.069C162.946 154.758 162.956 155.726 163.368 156.436Z" fill="white"/>
<path d="M163.368 156.436C163.779 157.146 164.068 157.888 164.418 158.618C164.768 159.36 165.025 160.111 165.303 160.862C165.591 161.634 166.198 162.273 166.415 163.055C166.631 163.848 166.394 164.723 166.538 165.515C166.682 166.318 167.197 167.059 167.269 167.862C167.341 168.675 167.475 169.489 167.475 170.302C167.475 171.115 167.248 171.928 167.176 172.731C167.104 173.544 167.31 174.399 167.176 175.202C167.043 176.004 166.363 176.694 166.157 177.477C165.951 178.269 166.332 179.237 166.054 180.009C165.776 180.77 165.334 181.501 164.994 182.243C164.654 182.984 164.376 183.787 163.965 184.487C163.563 185.197 162.668 185.598 162.204 186.278C161.741 186.947 161.505 187.781 160.98 188.408C160.465 189.036 159.991 189.726 159.415 190.302C158.849 190.879 157.902 191.054 157.274 191.579C156.656 192.104 156.389 193.092 155.719 193.566C155.061 194.029 154.145 194.142 153.434 194.564C152.724 194.976 152.148 195.645 151.417 195.995C150.676 196.345 149.873 196.602 149.111 196.88C148.339 197.168 147.464 197.107 146.682 197.323C145.889 197.539 145.086 197.57 144.283 197.714C143.48 197.858 142.718 198.218 141.905 198.29C141.092 198.362 140.279 198.671 139.466 198.671C138.652 198.671 137.85 198.177 137.036 198.115C136.223 198.043 135.4 198.146 134.597 198.002C133.794 197.868 133.022 197.611 132.229 197.405C131.437 197.199 130.644 197.045 129.872 196.767C129.11 196.489 128.369 196.149 127.628 195.81C126.887 195.47 126.331 194.811 125.621 194.41C124.91 194.008 124.2 193.668 123.531 193.195C122.862 192.732 121.812 192.752 121.184 192.238C120.556 191.723 120.422 190.652 119.846 190.076C119.269 189.51 118.415 189.191 117.89 188.563C117.365 187.945 117.087 187.132 116.614 186.463C116.15 185.804 115.306 185.361 114.895 184.651C114.483 183.941 114.195 183.148 113.845 182.417C113.495 181.676 113.073 180.946 112.795 180.184C112.506 179.412 112.187 178.629 111.981 177.847C111.765 177.054 111.889 176.169 111.745 175.377C111.601 174.574 111.745 173.74 111.673 172.927C111.601 172.113 111.354 171.321 111.354 170.508C111.354 169.694 111.673 168.902 111.745 168.089C111.817 167.275 111.456 166.411 111.59 165.608C111.724 164.805 111.889 163.992 112.105 163.199C112.311 162.407 112.712 161.676 112.98 160.904C113.258 160.142 113.361 159.287 113.7 158.546C114.04 157.805 114.73 157.239 115.131 156.529C115.533 155.818 115.862 155.067 116.325 154.398C116.789 153.729 117.005 152.854 117.53 152.226C118.044 151.598 119.146 151.495 119.722 150.919C120.288 150.342 120.762 149.694 121.39 149.158C122.008 148.633 122.471 147.913 123.14 147.439C123.799 146.976 124.334 146.266 125.044 145.844C125.754 145.432 126.619 145.278 127.35 144.938C128.091 144.588 128.966 144.578 129.728 144.3C130.5 144.012 131.107 143.24 131.889 143.023C132.682 142.807 133.495 142.591 134.298 142.447C135.101 142.303 135.966 142.457 136.779 142.385C137.592 142.313 138.416 141.973 139.229 141.973C140.042 141.973 140.866 142.406 141.669 142.478C142.482 142.55 143.243 142.91 144.046 143.044C144.849 143.178 145.621 143.363 146.414 143.569C147.207 143.775 148.071 143.703 148.833 143.981C149.595 144.259 150.243 144.815 150.984 145.165C151.725 145.504 152.673 145.453 153.383 145.854C154.093 146.256 154.803 146.698 155.472 147.161C156.141 147.625 156.883 148.036 157.511 148.561C158.138 149.076 158.674 149.745 159.25 150.322C159.827 150.888 160.383 151.516 160.918 152.144C161.443 152.761 161.988 153.399 162.462 154.069C162.946 154.758 162.956 155.726 163.368 156.436Z" stroke="#161B18" stroke-miterlimit="10" stroke-linecap="round" stroke-linejoin="round"/>
<path d="M151.612 160.554C152.024 161.264 152.024 162.149 152.322 162.89C152.621 163.652 153.403 164.259 153.578 165.052C153.753 165.855 153.979 166.689 154.021 167.492C154.062 168.305 153.516 169.128 153.434 169.931C153.351 170.744 153.176 171.506 152.971 172.288C152.765 173.071 152.806 173.946 152.476 174.687C152.147 175.428 151.931 176.272 151.488 176.962C151.056 177.641 150.315 178.146 149.769 178.753C149.234 179.35 148.76 180.081 148.133 180.595C147.515 181.1 146.784 181.553 146.074 181.965C145.363 182.376 144.509 182.531 143.768 182.819C143.006 183.117 142.183 183.159 141.4 183.323C140.598 183.498 139.846 183.92 139.043 183.972C138.23 184.013 137.396 184.064 136.583 183.982C135.77 183.9 134.998 183.54 134.215 183.334C133.433 183.128 132.795 182.572 132.054 182.243C131.313 181.913 130.541 181.728 129.851 181.285C129.171 180.853 128.719 180.173 128.111 179.628C127.514 179.093 126.402 179.031 125.888 178.393C125.383 177.775 124.889 177.065 124.478 176.344" stroke="#161B18" stroke-miterlimit="10" stroke-linecap="round" stroke-linejoin="round"/>
<path d="M134.236 168.562C134.617 169.211 135.173 170.003 134.998 170.683C134.823 171.362 133.824 171.568 133.176 171.949C132.527 172.33 131.941 172.752 131.261 172.566C130.582 172.391 129.686 172.093 129.305 171.434C128.925 170.775 129.388 169.921 129.563 169.242C129.738 168.562 130.108 168.181 130.757 167.8C131.405 167.42 132.054 166.781 132.733 166.956C133.413 167.142 133.855 167.903 134.236 168.562Z" fill="#141414"/>
<path d="M145.734 161.902C146.115 162.551 146.887 163.199 146.702 163.878C146.527 164.558 145.631 164.908 144.973 165.289C144.324 165.67 143.768 165.525 143.089 165.34C142.41 165.155 141.648 165.145 141.267 164.486C140.886 163.837 140.855 163.055 141.03 162.376C141.205 161.696 141.854 161.439 142.502 161.058C143.151 160.677 143.624 160.554 144.304 160.729C144.993 160.914 145.354 161.243 145.734 161.902Z" fill="#141414"/>
</svg>
