<svg width="1000" height="1000" viewBox="0 0 1000 1000" fill="none" xmlns="http://www.w3.org/2000/svg">
<g clip-path="url(#clip0_781_1826)">
<rect width="1000" height="1000" fill="white"/>
<mask id="mask0_781_1826" style="mask-type:luminance" maskUnits="userSpaceOnUse" x="0" y="0" width="1000" height="1000">
<path d="M1000 0H0V1000H1000V0Z" fill="white"/>
</mask>
<g mask="url(#mask0_781_1826)">
<path d="M846 154H154V846H846V154Z" fill="white"/>
<path d="M846 154H154V846H846V154Z" fill="black"/>
<path d="M773.34 223.2H226.66C224.749 223.2 223.2 224.749 223.2 226.66V773.34C223.2 775.251 224.749 776.8 226.66 776.8H773.34C775.251 776.8 776.8 775.251 776.8 773.34V226.66C776.8 224.749 775.251 223.2 773.34 223.2Z" fill="white"/>
<path d="M750.504 249.496H249.496V750.504H750.504V249.496Z" fill="black"/>
<path d="M408.773 724.208H336.701C334.018 724.208 332.677 722.868 332.677 720.187V705.032C332.677 702.351 334.017 701.011 336.698 701.011H360.207V525.312H301.745V558.1C301.745 560.987 300.301 562.431 297.414 562.431H280.095C277.208 562.431 275.764 560.987 275.764 558.1V506.131C275.764 503.45 277.208 502.11 280.095 502.11H466.617C469.504 502.11 470.948 503.45 470.948 506.131V558.1C470.948 560.987 469.504 562.431 466.617 562.431H448.986C446.305 562.431 444.964 560.987 444.964 558.1V525.312H387.121V701.011H408.773C411.661 701.011 413.104 702.351 413.104 705.032V720.187C413.104 722.868 411.661 724.208 408.773 724.208Z" fill="white"/>
</g>
</g>
<defs>
<clipPath id="clip0_781_1826">
<rect width="1000" height="1000" fill="white"/>
</clipPath>
</defs>
</svg>
