<svg width="450" height="317" viewBox="0 0 450 317" fill="none" xmlns="http://www.w3.org/2000/svg">
<path d="M170.682 105H181.091C181.357 105.004 181.611 105.111 181.799 105.3C181.987 105.488 182.095 105.742 182.098 106.009V210.991C182.095 211.258 181.987 211.512 181.799 211.7C181.611 211.889 181.357 211.996 181.091 212H170.682C170.416 211.996 170.163 211.889 169.976 211.7C169.788 211.512 169.682 211.257 169.68 210.991V106.009C169.683 105.742 169.791 105.488 169.979 105.3C170.167 105.111 170.421 105.004 170.687 105H170.682ZM242.563 191.378V194.036C242.528 195.648 242.315 197.251 241.929 198.816C241.452 201.011 240.384 203.033 238.841 204.662C236.759 206.915 234.196 208.669 231.343 209.792C226.91 211.354 222.223 212.067 217.526 211.895C212.832 212.068 208.149 211.354 203.719 209.792C200.843 208.713 198.27 206.953 196.221 204.662C194.679 202.985 193.606 200.931 193.109 198.706C192.769 197.17 192.555 195.608 192.469 194.036V134.221C192.472 133.955 192.579 133.7 192.767 133.511C192.955 133.322 193.21 133.215 193.476 133.213H203.9C204.166 133.215 204.421 133.322 204.609 133.511C204.798 133.7 204.904 133.955 204.907 134.221V190.188C204.89 191.609 205.067 193.026 205.432 194.399C205.746 195.501 206.275 196.529 206.988 197.425C207.977 198.528 209.238 199.352 210.644 199.815C212.726 200.557 214.93 200.9 217.139 200.824C219.437 200.897 221.73 200.555 223.907 199.815C225.315 199.347 226.597 198.564 227.658 197.526C228.503 196.733 229.105 195.717 229.396 194.595C229.856 193.145 230.072 191.628 230.035 190.107V134.221C230.038 133.955 230.145 133.7 230.333 133.511C230.521 133.322 230.776 133.215 231.042 133.213H241.466C241.732 133.215 241.987 133.322 242.175 133.511C242.363 133.7 242.47 133.955 242.473 134.221L242.563 191.378ZM278.244 133.304H285.284C285.537 133.304 285.78 133.404 285.959 133.584C286.138 133.763 286.238 134.006 286.238 134.26C286.234 134.342 286.223 134.423 286.205 134.503L283.819 143.662C283.768 143.868 283.65 144.051 283.484 144.182C283.319 144.314 283.114 144.387 282.902 144.389H277.977C275.79 144.306 273.611 144.681 271.577 145.488C270.166 146.038 268.888 146.88 267.825 147.96C267.041 148.783 266.476 149.79 266.184 150.89C265.937 151.847 265.815 152.832 265.821 153.82V210.991C265.817 211.258 265.71 211.512 265.522 211.7C265.334 211.889 265.08 211.996 264.814 212H254.314C254.048 211.996 253.794 211.889 253.606 211.7C253.418 211.512 253.311 211.258 253.307 210.991V151.239C253.355 149.664 253.569 148.098 253.946 146.569C254.425 144.337 255.501 142.279 257.058 140.612C259.142 138.359 261.707 136.606 264.561 135.483C268.936 133.823 273.604 133.075 278.278 133.284L278.244 133.304ZM134.419 133.284C142.934 133.284 149.238 134.938 153.257 138.328C155.135 139.848 156.646 141.776 157.675 143.964C158.704 146.153 159.225 148.547 159.199 150.966V194.017C159.146 195.979 158.808 197.922 158.197 199.787C157.504 201.999 156.241 203.989 154.536 205.556C152.324 207.514 149.744 209.009 146.947 209.954C142.896 211.254 138.651 211.843 134.4 211.694C130.157 211.804 125.925 211.216 121.872 209.954C119.065 209.045 116.484 207.546 114.302 205.556C112.565 204.016 111.296 202.016 110.642 199.787C110.026 197.923 109.687 195.979 109.634 194.017V187.181C109.631 183.624 110.612 180.136 112.469 177.105C114.31 174.094 117.143 171.821 120.478 170.68C122.215 170.035 124.139 169.485 126.425 168.663C128.62 167.841 130.811 167.195 132.92 166.373C135.02 165.646 136.739 165.001 138.404 164.461C139.96 163.816 140.967 163.543 141.33 163.361C141.835 163.117 142.325 162.841 142.795 162.534C143.448 162.104 144.059 161.614 144.623 161.072C145.225 160.388 145.719 159.616 146.088 158.782C146.542 157.808 146.761 156.74 146.728 155.665V152.907C146.712 151.797 146.468 150.703 146.011 149.691C145.555 148.68 144.895 147.773 144.074 147.028C142.946 146.076 141.64 145.359 140.232 144.919C138.281 144.313 136.242 144.035 134.2 144.097C129.35 144.097 126.148 145.106 124.32 147.118C122.812 148.896 121.914 151.111 121.757 153.438C121.745 153.683 121.639 153.914 121.461 154.083C121.284 154.252 121.048 154.346 120.803 154.346H110.503C110.237 154.344 109.983 154.236 109.795 154.048C109.608 153.859 109.502 153.604 109.501 153.337V150.804C109.477 148.442 109.944 146.102 110.871 143.93C111.862 141.691 113.402 139.739 115.347 138.256C117.655 136.484 120.301 135.205 123.122 134.499C126.821 133.717 130.591 133.316 134.371 133.304L134.419 133.284ZM146.9 171.961C146.815 172.407 146.642 172.831 146.391 173.208C146.14 173.586 145.817 173.909 145.439 174.16C144.754 174.615 144.015 174.983 143.239 175.255C141.774 175.8 140.127 176.354 138.466 176.904C136.82 177.544 135.173 178.094 133.694 178.553C131.956 179.193 130.219 179.743 128.754 180.293C127.557 180.842 126.422 181.518 125.37 182.31C124.412 183.177 123.605 184.198 122.984 185.331C122.214 186.731 121.835 188.313 121.886 189.911C121.678 192.912 122.645 195.877 124.583 198.176C126.32 199.916 129.613 200.924 134.362 200.924C139.211 200.924 142.504 199.916 144.322 198.085C146.198 195.834 147.147 192.952 146.976 190.025L146.9 171.961ZM315.724 133.304C324.234 133.304 330.519 134.958 334.557 138.347C336.435 139.868 337.945 141.796 338.974 143.984C340.003 146.173 340.524 148.566 340.499 150.986V194.036C340.446 195.998 340.108 197.941 339.497 199.806C338.804 202.018 337.542 204.008 335.836 205.575C333.625 207.534 331.045 209.029 328.248 209.973C324.203 211.271 319.964 211.859 315.719 211.713C311.476 211.823 307.244 211.235 303.191 209.973C300.377 209.064 297.788 207.565 295.598 205.575C293.863 204.033 292.596 202.034 291.942 199.806C291.326 197.942 290.987 195.998 290.935 194.036V187.181C290.931 183.624 291.912 180.136 293.77 177.105C295.626 174.082 298.482 171.809 301.84 170.68C303.578 170.035 305.501 169.485 307.787 168.663C309.983 167.841 312.173 167.195 314.278 166.373C316.383 165.646 318.096 165.001 319.767 164.461C321.322 163.816 322.329 163.543 322.692 163.361C323.197 163.117 323.687 162.841 324.157 162.534C324.809 162.102 325.421 161.613 325.985 161.072C326.587 160.388 327.081 159.616 327.451 158.782C327.904 157.808 328.123 156.74 328.09 155.665V152.907C328.087 151.867 327.869 150.838 327.451 149.886C327.015 148.792 326.324 147.819 325.437 147.047C324.317 146.096 323.019 145.379 321.618 144.939C319.665 144.331 317.625 144.054 315.581 144.116C310.737 144.116 307.534 145.125 305.706 147.137C304.198 148.914 303.301 151.13 303.148 153.457C303.136 153.702 303.03 153.933 302.852 154.102C302.674 154.271 302.439 154.365 302.193 154.365H291.574C291.308 154.363 291.053 154.256 290.865 154.067C290.677 153.878 290.57 153.623 290.567 153.357V150.804C290.546 148.442 291.014 146.101 291.942 143.93C292.934 141.689 294.477 139.736 296.428 138.256C298.741 136.479 301.396 135.199 304.227 134.499C308.02 133.731 311.878 133.331 315.748 133.304H315.724ZM328.186 171.961C328.1 172.407 327.926 172.831 327.674 173.208C327.423 173.586 327.098 173.909 326.72 174.16C326.038 174.619 325.301 174.988 324.525 175.259C323.064 175.804 321.418 176.359 319.752 176.909C318.106 177.549 316.459 178.099 314.98 178.558C313.242 179.198 311.505 179.748 310.04 180.293C308.844 180.844 307.71 181.52 306.656 182.31C305.699 183.18 304.892 184.202 304.27 185.336C303.489 186.73 303.109 188.314 303.172 189.911C302.958 192.91 303.919 195.874 305.849 198.176C307.587 199.916 310.875 200.924 315.629 200.924C320.473 200.924 323.766 199.916 325.589 198.085C327.461 195.832 328.409 192.952 328.243 190.025L328.186 171.961Z" fill="white"/>
</svg>
