<svg width="281" height="199" viewBox="0 0 281 199" fill="none" xmlns="http://www.w3.org/2000/svg">
<path d="M273.617 14.6283C273.441 13.7397 274.145 14.4904 275.034 13.9849C275.524 13.7014 275.815 12.966 276.329 12.629C276.888 12.2613 277.639 12.1924 277.999 11.84C278.451 11.4033 278.573 10.7522 278.857 10.2466C279.163 9.70276 279.76 9.28144 279.883 8.70692C280.013 8.10941 280.029 7.43531 279.96 6.84546C279.891 6.2403 279.286 5.80366 279.025 5.25978C278.772 4.72356 278.657 4.1184 278.221 3.68942C277.807 3.28342 277.432 2.69358 276.857 2.43313C276.344 2.19566 275.685 2.08841 275.049 2.00415C274.49 1.92755 273.839 1.78966 273.196 1.85861C272.636 1.91989 272.093 2.38717 271.472 2.56335C270.959 2.71656 270.384 2.98467 269.725 3.17617C269.174 3.32938 268.576 3.49791 267.948 3.6741C267.381 3.83496 266.738 3.83496 266.125 4.01115C265.551 4.17202 264.999 4.50907 264.394 4.66994C263.812 4.8308 263.176 4.85378 262.571 5.02231C261.981 5.18318 261.422 5.49725 260.832 5.65812C260.234 5.81898 259.66 6.05645 259.062 6.21732C258.457 6.37818 257.729 6.04879 257.14 6.20966C256.527 6.37819 256.075 7.05995 255.5 7.22082C254.88 7.38935 254.229 7.35104 253.662 7.50425C253.026 7.67278 252.436 7.88727 251.885 8.03281C251.21 8.21666 250.59 8.29326 250.084 8.43114C248.966 8.7299 249.119 9.31208 248.231 9.05929C247.342 8.81416 247.909 8.30858 246.944 7.58085C246.53 7.27444 245.971 6.99867 245.358 6.62331C244.883 6.33222 244.37 5.99517 243.772 5.6811C243.267 5.42065 242.799 4.94571 242.202 4.6776C241.673 4.44013 240.984 4.48609 240.379 4.25628C239.835 4.04945 239.176 4.0801 238.563 3.88093C238.004 3.69708 237.468 3.36769 236.855 3.1915C236.281 3.03063 235.691 2.89275 235.07 2.7472C234.488 2.60931 233.959 2.15736 233.339 2.03479C232.757 1.91989 232.09 2.12671 231.462 2.02713C230.872 1.9352 230.244 2.01181 229.616 1.92755C229.026 1.85094 228.467 1.35303 227.839 1.28408C227.241 1.2228 226.613 1.36068 225.985 1.31472C225.388 1.26876 224.767 1.30706 224.139 1.27642C223.534 1.24578 222.921 1.33004 222.293 1.31472C221.688 1.2994 221.083 1.24578 220.447 1.24578C219.842 1.24578 219.229 0.98533 218.601 1.00065C217.995 1.01597 217.398 1.40664 216.77 1.42963C216.165 1.45261 215.559 1.48325 214.931 1.52155C214.326 1.55985 213.706 1.45261 213.085 1.49857C212.48 1.54453 211.859 1.49091 211.231 1.55219C210.626 1.60582 210.021 1.75136 209.401 1.8203C208.795 1.88925 208.167 1.81264 207.547 1.88924C206.942 1.96585 206.313 1.91989 205.693 2.00415C205.088 2.08841 204.544 2.54037 203.946 2.63996C203.349 2.73954 202.736 2.76252 202.139 2.86977C201.541 2.98467 200.875 2.77018 200.285 2.89275C199.687 3.02297 199.182 3.53621 198.592 3.6741C198.002 3.81198 197.382 3.8273 196.792 3.98051C196.202 4.13372 195.604 4.24862 195.022 4.40948C194.44 4.57035 193.904 4.92273 193.329 5.09891C192.747 5.2751 192.134 5.35936 191.56 5.54321C190.977 5.72706 190.472 6.11774 189.905 6.3169C189.331 6.51607 188.695 6.52373 188.12 6.73056C187.546 6.93739 187.025 7.26678 186.458 7.48893C185.891 7.71108 185.209 7.6498 184.65 7.87195C184.083 8.10175 183.608 8.53839 183.049 8.77586C182.49 9.01333 181.969 9.34272 181.417 9.58785C180.858 9.83298 180.115 9.66446 179.564 9.91725C179.012 10.17 178.629 10.7905 178.085 11.0586C177.534 11.3267 176.982 11.5719 176.438 11.84C175.894 12.1158 175.282 12.2536 174.745 12.5371C174.201 12.8205 173.749 13.2495 173.213 13.5406C172.677 13.8317 172.026 13.9083 171.497 14.1994C170.961 14.4981 170.547 14.996 170.027 15.2948C169.498 15.6012 168.908 15.7927 168.387 16.0991C167.859 16.4132 167.192 16.4821 166.679 16.7962C166.158 17.1179 165.867 17.8074 165.361 18.1291C164.841 18.4585 164.243 18.65 163.737 18.9717C163.217 19.3088 162.703 19.6305 162.205 19.9599C161.692 20.3046 161.095 20.5114 160.604 20.8485C160.091 21.2009 159.632 21.5992 159.141 21.9363C158.636 22.2886 158.391 22.9934 157.908 23.3381C157.402 23.7058 156.805 23.905 156.33 24.2573C155.824 24.6327 155.403 25.0693 154.936 25.4294C154.438 25.8124 153.71 25.8583 153.251 26.2184C152.753 26.6091 152.431 27.1912 151.987 27.5513C151.481 27.9573 150.914 28.2177 150.47 28.5777C149.964 28.9991 149.466 29.3591 149.045 29.7115C148.509 30.1634 148.003 30.5082 147.62 30.8452C146.739 31.6189 147.321 32.0862 146.425 32.2241C145.521 32.3619 145.92 31.7951 144.816 31.3508C144.342 31.1669 143.767 30.9371 143.101 30.6997C142.58 30.5158 141.959 30.4469 141.323 30.2477C140.78 30.0792 140.197 29.8953 139.577 29.7191C139.025 29.5659 138.458 29.2825 137.846 29.1293C137.279 28.9837 136.674 28.8918 136.053 28.7539C135.479 28.6237 134.804 28.8688 134.192 28.7463C133.609 28.6314 133.119 27.9802 132.499 27.8653C131.917 27.7581 131.265 27.9266 130.645 27.8347C130.055 27.7428 129.442 27.7658 128.822 27.6815C128.232 27.6049 127.611 27.7045 126.991 27.6355C126.401 27.5666 125.804 27.467 125.183 27.4057C124.586 27.3521 124.003 27.107 123.383 27.061C122.785 27.015 122.196 26.7086 121.575 26.6703C120.978 26.632 120.342 27.0534 119.729 27.0304C119.131 27.0074 118.534 26.6397 117.914 26.6244C117.316 26.6091 116.703 26.632 116.083 26.632C115.485 26.632 114.872 26.7469 114.252 26.7546C113.647 26.7623 113.049 27.0227 112.429 27.038C111.824 27.0534 111.195 26.5554 110.575 26.5861C109.97 26.6167 109.38 26.9614 108.767 26.9997C108.162 27.038 107.534 26.7623 106.913 26.8082C106.308 26.8542 105.718 27.1606 105.105 27.2219C104.485 27.2832 103.88 27.4211 103.275 27.4977C102.654 27.5743 102.064 27.7351 101.459 27.827C100.846 27.919 100.249 28.0798 99.6513 28.1871C99.0385 28.302 98.4563 28.4858 97.8588 28.6161C97.2537 28.7463 96.5259 28.325 95.9284 28.4705C95.3233 28.616 94.7794 28.9837 94.1895 29.1446C93.592 29.3055 92.9792 29.4127 92.397 29.5889C91.7995 29.7728 91.3093 30.2477 90.7347 30.4469C90.1449 30.646 89.4172 30.4392 88.8426 30.646C88.2605 30.8605 87.8468 31.504 87.2799 31.7261C86.6978 31.9559 86.0313 31.956 85.4798 32.2011C84.9052 32.4539 84.4226 32.8752 83.8711 33.1356C83.3042 33.4037 82.6455 33.465 82.1092 33.7408C81.55 34.0242 81.0291 34.3689 80.5006 34.66C79.949 34.9588 79.543 35.495 79.0221 35.8014C78.4783 36.1155 77.8424 36.2457 77.3292 36.5598C76.793 36.8892 76.2568 37.1956 75.7588 37.525C75.2303 37.8697 74.7017 38.1914 74.2115 38.5361C73.6906 38.9038 73.3152 39.4247 72.8403 39.7848C72.327 40.1678 71.8751 40.5815 71.4154 40.9491C70.9099 41.3475 70.2128 41.47 69.7608 41.8454C69.2629 42.2667 69.1403 43.0634 68.7113 43.4464C68.2134 43.8907 67.6006 44.1282 67.1946 44.5112C66.6814 45.0014 66.2754 45.4611 65.9153 45.8364C65.0957 46.6867 64.3986 46.2424 64.728 47.1004C65.3408 47.108 65.8464 47.0391 66.4439 47.0621C67.0567 47.0851 67.6619 47.131 68.2594 47.177C68.8722 47.2229 69.4391 47.6749 70.0289 47.7362C70.6341 47.7975 71.2776 47.4757 71.8751 47.5523C72.4802 47.6289 73.0547 47.9124 73.6446 48.0043C74.2498 48.1039 74.8702 48.0656 75.4524 48.1805C76.0499 48.303 76.6091 48.5712 77.1913 48.7167C77.7888 48.8622 78.371 49.0078 78.9455 49.1687C79.5354 49.3372 80.1252 49.4751 80.6921 49.6589C81.2743 49.8504 81.956 49.7585 82.5152 49.9653C83.0898 50.1798 83.58 50.5935 84.1315 50.8309C84.6908 51.0761 85.3112 51.1986 85.8475 51.4591C86.399 51.7272 86.6901 52.4702 87.2187 52.7537C87.7549 53.0524 88.5669 52.8609 89.0725 53.1827C89.5857 53.5044 89.8615 54.1938 90.3517 54.5385C90.8496 54.8909 91.248 55.3429 91.7152 55.7182C92.1902 56.1012 92.6192 56.4996 93.0635 56.9056C93.5154 57.3192 93.998 57.6639 94.4117 58.0929C94.833 58.5296 95.1777 59.0121 95.5607 59.4718C95.9514 59.939 96.7021 60.1076 97.0621 60.5978C97.4222 61.0881 97.7669 61.5937 98.0886 62.1069C98.4104 62.6201 98.4487 63.3019 98.7321 63.8305C99.0155 64.359 99.3143 64.8799 99.5671 65.4315C99.8199 65.983 100.318 66.435 100.525 67.0018C100.739 67.561 100.448 68.2964 100.624 68.8786C100.8 69.4531 101.459 69.8974 101.597 70.4873C101.735 71.0695 101.865 71.6746 101.965 72.2798C102.064 72.8696 102.034 73.4978 102.095 74.103C102.164 74.7005 101.98 75.3209 102.011 75.9261C102.041 76.5236 102.172 77.1211 102.172 77.7339C102.172 78.2931 102.041 78.8983 102.034 79.5494C102.026 80.124 102.103 80.7291 102.087 81.3726C102.072 81.9548 101.903 82.5523 101.88 83.1881C101.865 83.7703 101.957 84.3831 101.934 85.0036C101.911 85.5934 101.735 86.1909 101.712 86.8114C101.689 87.4012 101.957 88.0217 101.926 88.6346C101.903 89.2244 101.804 89.8296 101.781 90.45C101.758 91.0475 102.018 91.6604 101.988 92.2809C101.957 92.8784 101.383 93.4605 101.352 94.0734C101.321 94.6709 101.697 95.299 101.666 95.9118C101.635 96.5093 101.574 97.1145 101.543 97.7273C101.513 98.3248 101.329 98.9223 101.298 99.5352C101.268 100.133 101.505 100.753 101.474 101.366C101.444 101.963 101.413 102.576 101.383 103.181C101.352 103.787 101 104.369 100.961 104.982C100.931 105.587 100.961 106.192 100.931 106.805C100.9 107.41 100.869 108.015 100.831 108.62C100.8 109.225 101.107 109.854 101.068 110.459C101.03 111.064 100.609 111.646 100.578 112.251C100.54 112.856 100.578 113.469 100.548 114.074C100.509 114.68 100.249 115.269 100.211 115.882C100.172 116.487 100.402 117.116 100.364 117.721C100.325 118.326 100.172 118.931 100.134 119.536C100.096 120.141 99.9578 120.747 99.9195 121.352C99.8811 121.957 100.004 122.577 99.9654 123.183C99.9271 123.788 99.6743 124.385 99.636 124.99C99.5977 125.596 99.8965 126.224 99.8582 126.829C99.8199 127.442 99.9348 128.054 99.8965 128.66C99.8582 129.272 99.7892 129.878 99.7509 130.475C99.7126 131.088 99.5747 131.685 99.5364 132.291C99.4981 132.903 99.6437 133.524 99.6054 134.121C99.5671 134.734 99.2377 135.324 99.1994 135.922C99.1611 136.534 99.1534 137.147 99.1151 137.745C99.0768 138.358 99.0615 138.97 99.0232 139.568C98.9849 140.181 98.9772 140.794 98.9389 141.391C98.9006 142.012 98.487 142.586 98.441 143.184C98.4027 143.804 98.7857 144.44 98.7474 145.03C98.7091 145.65 98.8164 146.271 98.7704 146.861C98.7244 147.481 98.2801 148.063 98.2418 148.653C98.1959 149.281 98.1193 149.886 98.081 150.469C98.035 151.104 98.1499 151.717 98.1039 152.299C98.058 152.943 97.8435 153.54 97.8052 154.107C97.7592 154.766 97.7975 155.379 97.7592 155.93C97.7133 156.627 97.9891 157.263 97.9584 157.769C97.8742 158.941 96.9856 158.887 97.6443 159.508C98.3261 160.144 98.4104 160.013 99.23 160.45C100.057 160.887 99.9271 161.132 100.747 161.568C101.574 162.005 101.796 161.576 102.624 162.013C103.451 162.449 103.474 162.388 104.301 162.825C105.128 163.261 104.998 163.506 105.818 163.943C106.645 164.38 106.576 164.495 107.404 164.931C108.231 165.368 108.315 165.199 109.142 165.628C109.97 166.065 109.977 166.034 110.805 166.471C111.632 166.908 111.578 166.999 112.406 167.428C113.233 167.865 113.141 168.034 113.968 168.47C114.796 168.907 114.926 168.654 115.746 169.091C116.565 169.52 116.435 169.773 117.262 170.209C118.082 170.646 118.327 170.186 119.147 170.615C119.974 171.052 119.79 171.396 120.618 171.825C121.445 172.262 121.567 172.025 122.387 172.454C123.214 172.89 123.115 173.074 123.934 173.503C124.762 173.94 124.67 174.108 125.49 174.545C126.317 174.982 126.325 174.966 127.144 175.403C127.971 175.839 128.033 175.717 128.852 176.154C129.68 176.59 129.634 176.674 130.453 177.111C131.281 177.548 131.403 177.303 132.231 177.732C133.058 178.168 132.981 178.306 133.809 178.743C134.636 179.179 134.804 178.85 135.632 179.279C136.459 179.716 136.222 180.16 137.049 180.589C137.876 181.025 137.861 181.056 138.681 181.485C139.508 181.922 139.554 181.83 140.374 182.266C141.201 182.703 141.147 182.803 141.975 183.232C142.802 183.668 143.062 183.17 143.89 183.599C144.717 184.036 144.495 184.457 145.322 184.886C146.149 185.323 146.111 185.392 146.938 185.829C147.766 186.265 148.034 185.752 148.861 186.189C149.688 186.625 149.474 187.039 150.401 187.177C150.447 186.564 150.585 186.112 150.631 185.507C150.684 184.894 150.485 184.258 150.546 183.653C150.608 183.04 150.853 182.45 150.929 181.845C151.006 181.232 151.067 180.627 151.152 180.022C151.236 179.417 151.251 178.796 151.351 178.191C151.45 177.586 151.619 176.989 151.726 176.391C151.833 175.786 152.01 175.196 152.124 174.598C152.239 173.993 152.033 173.327 152.163 172.729C152.293 172.132 152.622 171.573 152.76 170.975C152.898 170.378 153.22 169.826 153.373 169.236C153.519 168.639 153.84 168.095 154.001 167.505C154.162 166.915 154.323 166.325 154.491 165.743C154.66 165.153 154.384 164.433 154.56 163.851C154.737 163.261 155.051 162.717 155.235 162.135C155.426 161.553 155.794 161.032 155.993 160.45C156.192 159.868 156.537 159.339 156.736 158.765C156.943 158.182 156.667 157.432 156.881 156.865C157.096 156.29 157.425 155.754 157.648 155.187C157.87 154.613 157.992 154 158.222 153.441C158.452 152.874 158.697 152.307 158.934 151.748C159.172 151.181 159.746 150.76 159.992 150.208C160.244 149.641 160.26 148.982 160.512 148.431C160.773 147.872 160.918 147.259 161.179 146.715C161.447 146.156 161.7 145.597 161.968 145.053C162.244 144.501 162.55 143.965 162.826 143.429C163.109 142.877 163.745 142.517 164.029 141.981C164.32 141.437 164.258 140.709 164.549 140.173C164.848 139.629 165.315 139.185 165.607 138.656C165.913 138.12 166.434 137.714 166.74 137.193C167.054 136.657 167.238 136.06 167.552 135.539C167.874 135.01 167.958 134.336 168.272 133.823C168.602 133.294 169.161 132.919 169.483 132.413C169.82 131.885 169.95 131.241 170.279 130.736C170.624 130.215 170.915 129.671 171.252 129.173C171.605 128.652 171.926 128.131 172.263 127.641C172.616 127.128 172.93 126.599 173.275 126.109C173.642 125.596 174.454 125.435 174.807 124.952C175.182 124.446 175.412 123.857 175.772 123.382C176.155 122.876 176.308 122.225 176.668 121.765C177.059 121.26 177.718 120.999 178.085 120.547C178.491 120.042 178.874 119.567 179.242 119.123C179.663 118.609 179.694 117.836 180.062 117.414C180.521 116.878 181.226 116.679 181.571 116.304C182.36 115.423 181.885 115.346 182.781 115.185C183.302 115.476 183.761 115.492 184.252 115.852C184.727 116.204 185.125 116.656 185.577 117.07C186.014 117.468 186.274 118.027 186.68 118.479C187.078 118.916 187.798 119.084 188.174 119.567C188.534 120.034 189.009 120.455 189.346 120.953C189.675 121.444 189.775 122.102 190.089 122.623C190.395 123.129 190.556 123.726 190.84 124.263C191.123 124.784 191.521 125.251 191.789 125.795C192.05 126.331 192.517 126.783 192.755 127.334C192.992 127.878 193.007 128.529 193.23 129.089C193.452 129.64 193.628 130.215 193.835 130.782C194.042 131.341 194.218 131.915 194.417 132.482C194.608 133.049 194.777 133.624 194.953 134.198C195.137 134.773 195.175 135.385 195.344 135.96C195.512 136.534 195.88 137.055 196.033 137.63C196.194 138.212 196.347 138.794 196.493 139.369C196.638 139.951 196.539 140.594 196.677 141.177C196.815 141.766 197.075 142.318 197.198 142.9C197.328 143.49 197.382 144.087 197.504 144.677C197.627 145.267 197.772 145.849 197.887 146.439C198.002 147.037 198.048 147.634 198.148 148.224C198.255 148.822 198.577 149.373 198.668 149.955C198.768 150.56 199.028 151.12 199.12 151.702C199.22 152.376 199.074 153.088 199.327 153.648C199.595 154.253 200.216 154.636 200.622 155.111C201.043 155.609 201.288 156.336 201.824 156.681C202.368 157.033 203.18 156.827 203.793 157.018C204.406 157.21 204.965 157.424 205.616 157.447C206.26 157.47 206.965 157.861 207.593 157.715C208.213 157.57 208.673 156.919 209.24 156.597C209.784 156.29 210.511 156.16 210.971 155.685C211.4 155.241 211.568 154.551 211.898 153.962C212.197 153.425 212.725 152.996 213.016 152.414C213.292 151.863 213.315 151.181 213.575 150.583C213.828 150.024 214.426 149.588 214.671 148.99C214.901 148.423 215.146 147.826 215.368 147.221C215.575 146.638 215.736 146.018 215.927 145.405C216.119 144.815 216.279 144.202 216.456 143.582C216.624 142.992 216.417 142.28 216.578 141.659C216.731 141.062 216.754 140.426 216.892 139.798C217.03 139.193 217.658 138.687 217.781 138.059C217.903 137.454 217.605 136.757 217.72 136.121C217.827 135.508 217.988 134.895 218.08 134.259C218.172 133.647 218.509 133.072 218.578 132.459C218.647 131.846 218.631 131.218 218.677 130.605C218.723 129.993 218.662 129.364 218.692 128.752C218.723 128.131 218.616 127.518 218.624 126.898C218.631 126.277 218.516 125.672 218.509 125.052C218.501 124.431 218.853 123.811 218.83 123.198C218.807 122.577 218.984 121.949 218.945 121.336C218.907 120.724 218.562 120.126 218.509 119.513C218.447 118.9 218.332 118.288 218.264 117.682C218.187 117.07 218.087 116.457 218.003 115.852C217.919 115.239 217.842 114.626 217.743 114.021C217.643 113.408 217.344 112.841 217.229 112.236C217.114 111.623 217.513 110.918 217.39 110.313C217.26 109.708 216.555 109.233 216.417 108.628C216.279 108.023 216.448 107.349 216.295 106.759C216.142 106.154 215.69 105.64 215.529 105.051C215.368 104.453 215.337 103.817 215.169 103.235C214.993 102.638 214.694 102.086 214.518 101.504C214.334 100.906 214.602 100.171 214.41 99.5964C214.211 99.0066 213.736 98.5163 213.537 97.9342C213.33 97.3443 213.062 96.7851 212.848 96.2182C212.633 95.6284 212.557 95.0003 212.334 94.4334C212.112 93.8436 211.66 93.361 211.431 92.8018C211.193 92.2196 211.4 91.4612 211.162 90.9097C210.917 90.3275 210.274 89.9291 210.036 89.3776C209.784 88.7954 209.485 88.2515 209.24 87.7153C208.972 87.1331 208.765 86.5509 208.512 86.0224C208.229 85.4325 208.029 84.8427 207.769 84.3295C207.47 83.732 207.539 83.0042 207.279 82.5063C206.949 81.8782 206.673 81.319 206.428 80.8593C205.861 79.8175 204.743 80.1929 205.027 79.3196C205.616 79.1128 206.428 78.9672 207.003 78.7451C207.585 78.5229 208.091 78.117 208.657 77.8871C209.24 77.6573 209.822 77.4658 210.389 77.236C210.963 76.9985 211.499 76.6768 212.059 76.4317C212.633 76.1789 213.215 75.9874 213.775 75.7346C214.341 75.4741 215.039 75.5125 215.59 75.2443C216.149 74.9762 216.563 74.4094 217.107 74.1336C217.666 73.8502 218.417 73.9574 218.961 73.674C219.512 73.3829 219.826 72.6551 220.362 72.3641C220.906 72.0576 221.649 72.1189 222.178 71.8049C222.722 71.4908 223.212 71.1001 223.733 70.7784C224.269 70.449 224.637 69.8745 225.15 69.5451C225.679 69.208 226.399 69.1774 226.904 68.8403C227.425 68.4956 227.908 68.0973 228.406 67.7449C228.919 67.3849 229.333 66.8946 229.823 66.5346C230.328 66.1669 230.888 65.8834 231.37 65.5081C231.868 65.1251 232.351 64.7344 232.818 64.3514C233.308 63.9607 233.722 63.4858 234.182 63.0951C234.664 62.6891 235.101 62.2601 235.56 61.8541C236.028 61.4328 236.564 61.1034 237.008 60.6898C237.468 60.2608 237.774 59.6863 238.211 59.2573C238.663 58.813 239.414 58.6904 239.835 58.2538C240.272 57.8018 240.563 57.212 240.969 56.7677C241.398 56.3004 241.65 55.6952 242.041 55.2433C242.455 54.7683 242.853 54.3011 243.236 53.8338C243.642 53.3435 243.987 52.8303 244.355 52.3553C244.745 51.8498 245.006 51.2829 245.358 50.8003C245.741 50.2794 246.247 49.8964 246.584 49.4061C246.951 48.8699 247.311 48.372 247.633 47.8817C247.985 47.3302 248.269 46.7786 248.568 46.2807C248.912 45.6985 249.571 45.3615 249.839 44.8712C250.176 44.2431 250.253 43.5766 250.483 43.117C251.004 42.0369 250.636 42.1595 251.256 41.47C251.854 40.8036 251.655 40.8802 252.658 40.3516C253.11 40.1142 253.869 40.2521 254.466 39.9227C254.949 39.6622 255.416 39.2562 255.983 38.9422C256.481 38.6664 256.864 38.1225 257.408 37.8161C257.906 37.5327 258.465 37.2875 259.001 36.9811C259.507 36.69 260.043 36.4296 260.571 36.1155C261.077 35.8167 261.69 35.6635 262.203 35.3418C262.709 35.0277 263.283 34.8056 263.789 34.4838C264.294 34.1621 264.685 33.6642 265.191 33.3348C265.688 33.0054 266.225 32.7143 266.723 32.3849C267.221 32.0479 267.588 31.5193 268.078 31.1746C268.576 30.8299 268.998 30.3932 269.48 30.0409C269.971 29.6808 270.4 29.2672 270.874 28.8995C271.357 28.5241 271.947 28.3096 272.399 27.9343C272.874 27.5436 273.548 27.4057 273.985 27.0151C274.444 26.6014 274.697 25.9809 275.103 25.5749C275.547 25.1306 276.045 24.7782 276.421 24.3493C276.88 23.8207 277.087 23.2002 277.401 22.7176C277.792 22.1201 278.106 21.5992 278.297 21.0783C278.55 20.3965 278.504 19.822 278.474 19.2628C278.435 18.581 278.535 17.9146 278.198 17.409C277.845 16.8805 277.401 16.3289 276.888 15.9689C276.344 15.5859 275.517 15.7544 274.98 15.5323C274.038 15.1186 273.801 15.5552 273.617 14.6283Z" fill="#40EC80"/>
<path d="M273.617 14.6283C273.441 13.7397 274.145 14.4904 275.034 13.9849C275.524 13.7014 275.815 12.966 276.329 12.629C276.888 12.2613 277.639 12.1924 277.999 11.84C278.451 11.4033 278.573 10.7522 278.857 10.2466C279.163 9.70276 279.76 9.28144 279.883 8.70692C280.013 8.10941 280.029 7.43531 279.96 6.84546C279.891 6.2403 279.286 5.80366 279.025 5.25978C278.772 4.72356 278.657 4.1184 278.221 3.68942C277.807 3.28342 277.432 2.69358 276.857 2.43313C276.344 2.19566 275.685 2.08841 275.049 2.00415C274.49 1.92755 273.839 1.78966 273.196 1.85861C272.636 1.91989 272.093 2.38717 271.472 2.56335C270.959 2.71656 270.384 2.98467 269.725 3.17617C269.174 3.32938 268.576 3.49791 267.948 3.6741C267.381 3.83496 266.738 3.83496 266.125 4.01115C265.551 4.17202 264.999 4.50907 264.394 4.66994C263.812 4.8308 263.176 4.85378 262.571 5.02231C261.981 5.18318 261.422 5.49725 260.832 5.65812C260.234 5.81898 259.66 6.05645 259.062 6.21732C258.457 6.37818 257.729 6.04879 257.14 6.20966C256.527 6.37819 256.075 7.05995 255.5 7.22082C254.88 7.38935 254.229 7.35104 253.662 7.50425C253.026 7.67278 252.436 7.88727 251.885 8.03281C251.21 8.21666 250.59 8.29326 250.084 8.43114C248.966 8.7299 249.119 9.31208 248.231 9.05929C247.342 8.81416 247.909 8.30858 246.944 7.58085C246.53 7.27444 245.971 6.99867 245.358 6.62331C244.883 6.33222 244.37 5.99517 243.772 5.6811C243.267 5.42065 242.799 4.94571 242.202 4.6776C241.673 4.44013 240.984 4.48609 240.379 4.25628C239.835 4.04945 239.176 4.0801 238.563 3.88093C238.004 3.69708 237.468 3.36769 236.855 3.1915C236.281 3.03063 235.691 2.89275 235.07 2.7472C234.488 2.60931 233.959 2.15736 233.339 2.03479C232.757 1.91989 232.09 2.12671 231.462 2.02713C230.872 1.9352 230.244 2.01181 229.616 1.92755C229.026 1.85094 228.467 1.35303 227.839 1.28408C227.241 1.2228 226.613 1.36068 225.985 1.31472C225.388 1.26876 224.767 1.30706 224.139 1.27642C223.534 1.24578 222.921 1.33004 222.293 1.31472C221.688 1.2994 221.083 1.24578 220.447 1.24578C219.842 1.24578 219.229 0.98533 218.601 1.00065C217.995 1.01597 217.398 1.40664 216.77 1.42963C216.165 1.45261 215.559 1.48325 214.931 1.52155C214.326 1.55985 213.706 1.45261 213.085 1.49857C212.48 1.54453 211.859 1.49091 211.231 1.55219C210.626 1.60582 210.021 1.75136 209.401 1.8203C208.795 1.88925 208.167 1.81264 207.547 1.88924C206.942 1.96585 206.313 1.91989 205.693 2.00415C205.088 2.08841 204.544 2.54037 203.946 2.63996C203.349 2.73954 202.736 2.76252 202.139 2.86977C201.541 2.98467 200.875 2.77018 200.285 2.89275C199.687 3.02297 199.182 3.53621 198.592 3.6741C198.002 3.81198 197.382 3.8273 196.792 3.98051C196.202 4.13372 195.604 4.24862 195.022 4.40948C194.44 4.57035 193.904 4.92273 193.329 5.09891C192.747 5.2751 192.134 5.35936 191.56 5.54321C190.977 5.72706 190.472 6.11774 189.905 6.3169C189.331 6.51607 188.695 6.52373 188.12 6.73056C187.546 6.93739 187.025 7.26678 186.458 7.48893C185.891 7.71108 185.209 7.6498 184.65 7.87195C184.083 8.10175 183.608 8.53839 183.049 8.77586C182.49 9.01333 181.969 9.34272 181.417 9.58785C180.858 9.83298 180.115 9.66446 179.564 9.91725C179.012 10.17 178.629 10.7905 178.085 11.0586C177.534 11.3267 176.982 11.5719 176.438 11.84C175.894 12.1158 175.282 12.2536 174.745 12.5371C174.201 12.8205 173.749 13.2495 173.213 13.5406C172.677 13.8317 172.026 13.9083 171.497 14.1994C170.961 14.4981 170.547 14.996 170.027 15.2948C169.498 15.6012 168.908 15.7927 168.387 16.0991C167.859 16.4132 167.192 16.4821 166.679 16.7962C166.158 17.1179 165.867 17.8074 165.361 18.1291C164.841 18.4585 164.243 18.65 163.737 18.9717C163.217 19.3088 162.703 19.6305 162.205 19.9599C161.692 20.3046 161.095 20.5114 160.604 20.8485C160.091 21.2009 159.632 21.5992 159.141 21.9363C158.636 22.2886 158.391 22.9934 157.908 23.3381C157.402 23.7058 156.805 23.905 156.33 24.2573C155.824 24.6327 155.403 25.0693 154.936 25.4294C154.438 25.8124 153.71 25.8583 153.251 26.2184C152.753 26.6091 152.431 27.1912 151.987 27.5513C151.481 27.9573 150.914 28.2177 150.47 28.5777C149.964 28.9991 149.466 29.3591 149.045 29.7115C148.509 30.1634 148.003 30.5082 147.62 30.8452C146.739 31.6189 147.321 32.0862 146.425 32.2241C145.521 32.3619 145.92 31.7951 144.816 31.3508C144.342 31.1669 143.767 30.9371 143.101 30.6997C142.58 30.5158 141.959 30.4469 141.323 30.2477C140.78 30.0792 140.197 29.8953 139.577 29.7191C139.025 29.5659 138.458 29.2825 137.846 29.1293C137.279 28.9837 136.674 28.8918 136.053 28.7539C135.479 28.6237 134.804 28.8688 134.192 28.7463C133.609 28.6314 133.119 27.9802 132.499 27.8653C131.917 27.7581 131.265 27.9266 130.645 27.8347C130.055 27.7428 129.442 27.7658 128.822 27.6815C128.232 27.6049 127.611 27.7045 126.991 27.6355C126.401 27.5666 125.804 27.467 125.183 27.4057C124.586 27.3521 124.003 27.107 123.383 27.061C122.785 27.015 122.196 26.7086 121.575 26.6703C120.978 26.632 120.342 27.0534 119.729 27.0304C119.131 27.0074 118.534 26.6397 117.914 26.6244C117.316 26.6091 116.703 26.632 116.083 26.632C115.485 26.632 114.872 26.7469 114.252 26.7546C113.647 26.7623 113.049 27.0227 112.429 27.038C111.824 27.0534 111.195 26.5554 110.575 26.5861C109.97 26.6167 109.38 26.9614 108.767 26.9997C108.162 27.038 107.534 26.7623 106.913 26.8082C106.308 26.8542 105.718 27.1606 105.105 27.2219C104.485 27.2832 103.88 27.4211 103.275 27.4977C102.654 27.5743 102.064 27.7351 101.459 27.827C100.846 27.919 100.249 28.0798 99.6513 28.1871C99.0385 28.302 98.4563 28.4858 97.8588 28.6161C97.2537 28.7463 96.5259 28.325 95.9284 28.4705C95.3233 28.616 94.7794 28.9837 94.1895 29.1446C93.592 29.3055 92.9792 29.4127 92.397 29.5889C91.7995 29.7728 91.3093 30.2477 90.7347 30.4469C90.1449 30.646 89.4172 30.4392 88.8426 30.646C88.2605 30.8605 87.8468 31.504 87.2799 31.7261C86.6978 31.9559 86.0313 31.956 85.4798 32.2011C84.9052 32.4539 84.4226 32.8752 83.8711 33.1356C83.3042 33.4037 82.6455 33.465 82.1092 33.7408C81.55 34.0242 81.0291 34.3689 80.5006 34.66C79.949 34.9588 79.543 35.495 79.0221 35.8014C78.4783 36.1155 77.8424 36.2457 77.3292 36.5598C76.793 36.8892 76.2568 37.1956 75.7588 37.525C75.2303 37.8697 74.7017 38.1914 74.2115 38.5361C73.6906 38.9038 73.3152 39.4247 72.8403 39.7848C72.327 40.1678 71.8751 40.5815 71.4154 40.9491C70.9099 41.3475 70.2128 41.47 69.7608 41.8454C69.2629 42.2667 69.1403 43.0634 68.7113 43.4464C68.2134 43.8907 67.6006 44.1282 67.1946 44.5112C66.6814 45.0014 66.2754 45.4611 65.9153 45.8364C65.0957 46.6867 64.3986 46.2424 64.728 47.1004C65.3408 47.108 65.8464 47.0391 66.4439 47.0621C67.0567 47.0851 67.6619 47.131 68.2594 47.177C68.8722 47.2229 69.4391 47.6749 70.0289 47.7362C70.6341 47.7975 71.2776 47.4757 71.8751 47.5523C72.4802 47.6289 73.0547 47.9124 73.6446 48.0043C74.2498 48.1039 74.8702 48.0656 75.4524 48.1805C76.0499 48.303 76.6091 48.5712 77.1913 48.7167C77.7888 48.8622 78.371 49.0078 78.9455 49.1687C79.5354 49.3372 80.1252 49.4751 80.6921 49.6589C81.2743 49.8504 81.956 49.7585 82.5152 49.9653C83.0898 50.1798 83.58 50.5935 84.1315 50.8309C84.6908 51.0761 85.3112 51.1986 85.8475 51.4591C86.399 51.7272 86.6901 52.4702 87.2187 52.7537C87.7549 53.0524 88.5669 52.8609 89.0725 53.1827C89.5857 53.5044 89.8615 54.1938 90.3517 54.5385C90.8496 54.8909 91.248 55.3429 91.7152 55.7182C92.1902 56.1012 92.6192 56.4996 93.0635 56.9056C93.5154 57.3192 93.998 57.6639 94.4117 58.0929C94.833 58.5296 95.1777 59.0121 95.5607 59.4718C95.9514 59.939 96.7021 60.1076 97.0621 60.5978C97.4222 61.0881 97.7669 61.5937 98.0886 62.1069C98.4104 62.6201 98.4487 63.3019 98.7321 63.8305C99.0155 64.359 99.3143 64.8799 99.5671 65.4315C99.8199 65.983 100.318 66.435 100.525 67.0018C100.739 67.561 100.448 68.2964 100.624 68.8786C100.8 69.4531 101.459 69.8974 101.597 70.4873C101.735 71.0695 101.865 71.6746 101.965 72.2798C102.064 72.8696 102.034 73.4978 102.095 74.103C102.164 74.7005 101.98 75.3209 102.011 75.9261C102.041 76.5236 102.172 77.1211 102.172 77.7339C102.172 78.2931 102.041 78.8983 102.034 79.5494C102.026 80.124 102.103 80.7291 102.087 81.3726C102.072 81.9548 101.903 82.5523 101.88 83.1881C101.865 83.7703 101.957 84.3831 101.934 85.0036C101.911 85.5934 101.735 86.1909 101.712 86.8114C101.689 87.4012 101.957 88.0217 101.926 88.6346C101.903 89.2244 101.804 89.8296 101.781 90.45C101.758 91.0475 102.018 91.6604 101.988 92.2809C101.957 92.8784 101.383 93.4605 101.352 94.0734C101.321 94.6709 101.697 95.299 101.666 95.9118C101.635 96.5093 101.574 97.1145 101.543 97.7273C101.513 98.3248 101.329 98.9223 101.298 99.5352C101.268 100.133 101.505 100.753 101.474 101.366C101.444 101.963 101.413 102.576 101.383 103.181C101.352 103.787 101 104.369 100.961 104.982C100.931 105.587 100.961 106.192 100.931 106.805C100.9 107.41 100.869 108.015 100.831 108.62C100.8 109.225 101.107 109.854 101.068 110.459C101.03 111.064 100.609 111.646 100.578 112.251C100.54 112.856 100.578 113.469 100.548 114.074C100.509 114.68 100.249 115.269 100.211 115.882C100.172 116.487 100.402 117.116 100.364 117.721C100.325 118.326 100.172 118.931 100.134 119.536C100.096 120.141 99.9578 120.747 99.9195 121.352C99.8811 121.957 100.004 122.577 99.9654 123.183C99.9271 123.788 99.6743 124.385 99.636 124.99C99.5977 125.596 99.8965 126.224 99.8582 126.829C99.8199 127.442 99.9348 128.054 99.8965 128.66C99.8582 129.272 99.7892 129.878 99.7509 130.475C99.7126 131.088 99.5747 131.685 99.5364 132.291C99.4981 132.903 99.6437 133.524 99.6054 134.121C99.5671 134.734 99.2377 135.324 99.1994 135.922C99.1611 136.534 99.1534 137.147 99.1151 137.745C99.0768 138.358 99.0615 138.97 99.0232 139.568C98.9849 140.181 98.9772 140.794 98.9389 141.391C98.9006 142.012 98.487 142.586 98.441 143.184C98.4027 143.804 98.7857 144.44 98.7474 145.03C98.7091 145.65 98.8164 146.271 98.7704 146.861C98.7244 147.481 98.2801 148.063 98.2418 148.653C98.1959 149.281 98.1193 149.886 98.081 150.469C98.035 151.104 98.1499 151.717 98.1039 152.299C98.058 152.943 97.8435 153.54 97.8052 154.107C97.7592 154.766 97.7975 155.379 97.7592 155.93C97.7133 156.627 97.9891 157.263 97.9584 157.769C97.8742 158.941 96.9856 158.887 97.6443 159.508C98.3261 160.144 98.4104 160.013 99.23 160.45C100.057 160.887 99.9271 161.132 100.747 161.568C101.574 162.005 101.796 161.576 102.624 162.013C103.451 162.449 103.474 162.388 104.301 162.825C105.128 163.261 104.998 163.506 105.818 163.943C106.645 164.38 106.576 164.495 107.404 164.931C108.231 165.368 108.315 165.199 109.142 165.628C109.97 166.065 109.977 166.034 110.805 166.471C111.632 166.908 111.578 166.999 112.406 167.428C113.233 167.865 113.141 168.034 113.968 168.47C114.796 168.907 114.926 168.654 115.746 169.091C116.565 169.52 116.435 169.773 117.262 170.209C118.082 170.646 118.327 170.186 119.147 170.615C119.974 171.052 119.79 171.396 120.618 171.825C121.445 172.262 121.567 172.025 122.387 172.454C123.214 172.89 123.115 173.074 123.934 173.503C124.762 173.94 124.67 174.108 125.49 174.545C126.317 174.982 126.325 174.966 127.144 175.403C127.971 175.839 128.033 175.717 128.852 176.154C129.68 176.59 129.634 176.674 130.453 177.111C131.281 177.548 131.403 177.303 132.231 177.732C133.058 178.168 132.981 178.306 133.809 178.743C134.636 179.179 134.804 178.85 135.632 179.279C136.459 179.716 136.222 180.16 137.049 180.589C137.876 181.025 137.861 181.056 138.681 181.485C139.508 181.922 139.554 181.83 140.374 182.266C141.201 182.703 141.147 182.803 141.975 183.232C142.802 183.668 143.062 183.17 143.89 183.599C144.717 184.036 144.495 184.457 145.322 184.886C146.149 185.323 146.111 185.392 146.938 185.829C147.766 186.265 148.034 185.752 148.861 186.189C149.688 186.625 149.474 187.039 150.401 187.177C150.447 186.564 150.585 186.112 150.631 185.507C150.684 184.894 150.485 184.258 150.546 183.653C150.608 183.04 150.853 182.45 150.929 181.845C151.006 181.232 151.067 180.627 151.152 180.022C151.236 179.417 151.251 178.796 151.351 178.191C151.45 177.586 151.619 176.989 151.726 176.391C151.833 175.786 152.01 175.196 152.124 174.598C152.239 173.993 152.033 173.327 152.163 172.729C152.293 172.132 152.622 171.573 152.76 170.975C152.898 170.378 153.22 169.826 153.373 169.236C153.519 168.639 153.84 168.095 154.001 167.505C154.162 166.915 154.323 166.325 154.491 165.743C154.66 165.153 154.384 164.433 154.56 163.851C154.737 163.261 155.051 162.717 155.235 162.135C155.426 161.553 155.794 161.032 155.993 160.45C156.192 159.868 156.537 159.339 156.736 158.765C156.943 158.182 156.667 157.432 156.881 156.865C157.096 156.29 157.425 155.754 157.648 155.187C157.87 154.613 157.992 154 158.222 153.441C158.452 152.874 158.697 152.307 158.934 151.748C159.172 151.181 159.746 150.76 159.992 150.208C160.244 149.641 160.26 148.982 160.512 148.431C160.773 147.872 160.918 147.259 161.179 146.715C161.447 146.156 161.7 145.597 161.968 145.053C162.244 144.501 162.55 143.965 162.826 143.429C163.109 142.877 163.745 142.517 164.029 141.981C164.32 141.437 164.258 140.709 164.549 140.173C164.848 139.629 165.315 139.185 165.607 138.656C165.913 138.12 166.434 137.714 166.74 137.193C167.054 136.657 167.238 136.06 167.552 135.539C167.874 135.01 167.958 134.336 168.272 133.823C168.602 133.294 169.161 132.919 169.483 132.413C169.82 131.885 169.95 131.241 170.279 130.736C170.624 130.215 170.915 129.671 171.252 129.173C171.605 128.652 171.926 128.131 172.263 127.641C172.616 127.128 172.93 126.599 173.275 126.109C173.642 125.596 174.454 125.435 174.807 124.952C175.182 124.446 175.412 123.857 175.772 123.382C176.155 122.876 176.308 122.225 176.668 121.765C177.059 121.26 177.718 120.999 178.085 120.547C178.491 120.042 178.874 119.567 179.242 119.123C179.663 118.609 179.694 117.836 180.062 117.414C180.521 116.878 181.226 116.679 181.571 116.304C182.36 115.423 181.885 115.346 182.781 115.185C183.302 115.476 183.761 115.492 184.252 115.852C184.727 116.204 185.125 116.656 185.577 117.07C186.014 117.468 186.274 118.027 186.68 118.479C187.078 118.916 187.798 119.084 188.174 119.567C188.534 120.034 189.009 120.455 189.346 120.953C189.675 121.444 189.775 122.102 190.089 122.623C190.395 123.129 190.556 123.726 190.84 124.263C191.123 124.784 191.521 125.251 191.789 125.795C192.05 126.331 192.517 126.783 192.755 127.334C192.992 127.878 193.007 128.529 193.23 129.089C193.452 129.64 193.628 130.215 193.835 130.782C194.042 131.341 194.218 131.915 194.417 132.482C194.608 133.049 194.777 133.624 194.953 134.198C195.137 134.773 195.175 135.385 195.344 135.96C195.512 136.534 195.88 137.055 196.033 137.63C196.194 138.212 196.347 138.794 196.493 139.369C196.638 139.951 196.539 140.594 196.677 141.177C196.815 141.766 197.075 142.318 197.198 142.9C197.328 143.49 197.382 144.087 197.504 144.677C197.627 145.267 197.772 145.849 197.887 146.439C198.002 147.037 198.048 147.634 198.148 148.224C198.255 148.822 198.577 149.373 198.668 149.955C198.768 150.56 199.028 151.12 199.12 151.702C199.22 152.376 199.074 153.088 199.327 153.648C199.595 154.253 200.216 154.636 200.622 155.111C201.043 155.609 201.288 156.336 201.824 156.681C202.368 157.033 203.18 156.827 203.793 157.018C204.406 157.21 204.965 157.424 205.616 157.447C206.26 157.47 206.965 157.861 207.593 157.715C208.213 157.57 208.673 156.919 209.24 156.597C209.784 156.29 210.511 156.16 210.971 155.685C211.4 155.241 211.568 154.551 211.898 153.962C212.197 153.425 212.725 152.996 213.016 152.414C213.292 151.863 213.315 151.181 213.575 150.583C213.828 150.024 214.426 149.588 214.671 148.99C214.901 148.423 215.146 147.826 215.368 147.221C215.575 146.638 215.736 146.018 215.927 145.405C216.119 144.815 216.279 144.202 216.456 143.582C216.624 142.992 216.417 142.28 216.578 141.659C216.731 141.062 216.754 140.426 216.892 139.798C217.03 139.193 217.658 138.687 217.781 138.059C217.903 137.454 217.605 136.757 217.72 136.121C217.827 135.508 217.988 134.895 218.08 134.259C218.172 133.647 218.509 133.072 218.578 132.459C218.647 131.846 218.631 131.218 218.677 130.605C218.723 129.993 218.662 129.364 218.692 128.752C218.723 128.131 218.616 127.518 218.624 126.898C218.631 126.277 218.516 125.672 218.509 125.052C218.501 124.431 218.853 123.811 218.83 123.198C218.807 122.577 218.984 121.949 218.945 121.336C218.907 120.724 218.562 120.126 218.509 119.513C218.447 118.9 218.332 118.288 218.264 117.682C218.187 117.07 218.087 116.457 218.003 115.852C217.919 115.239 217.842 114.626 217.743 114.021C217.643 113.408 217.344 112.841 217.229 112.236C217.114 111.623 217.513 110.918 217.39 110.313C217.26 109.708 216.555 109.233 216.417 108.628C216.279 108.023 216.448 107.349 216.295 106.759C216.142 106.154 215.69 105.64 215.529 105.051C215.368 104.453 215.337 103.817 215.169 103.235C214.993 102.638 214.694 102.086 214.518 101.504C214.334 100.906 214.602 100.171 214.41 99.5964C214.211 99.0066 213.736 98.5163 213.537 97.9342C213.33 97.3443 213.062 96.7851 212.848 96.2182C212.633 95.6284 212.557 95.0003 212.334 94.4334C212.112 93.8436 211.66 93.361 211.431 92.8018C211.193 92.2196 211.4 91.4612 211.162 90.9097C210.917 90.3275 210.274 89.9291 210.036 89.3776C209.784 88.7954 209.485 88.2515 209.24 87.7153C208.972 87.1331 208.765 86.5509 208.512 86.0224C208.229 85.4325 208.029 84.8427 207.769 84.3295C207.47 83.732 207.539 83.0042 207.279 82.5063C206.949 81.8782 206.673 81.319 206.428 80.8593C205.861 79.8175 204.743 80.1929 205.027 79.3196C205.616 79.1128 206.428 78.9672 207.003 78.7451C207.585 78.5229 208.091 78.117 208.657 77.8871C209.24 77.6573 209.822 77.4658 210.389 77.236C210.963 76.9985 211.499 76.6768 212.059 76.4317C212.633 76.1789 213.215 75.9874 213.775 75.7346C214.341 75.4741 215.039 75.5125 215.59 75.2443C216.149 74.9762 216.563 74.4094 217.107 74.1336C217.666 73.8502 218.417 73.9574 218.961 73.674C219.512 73.3829 219.826 72.6551 220.362 72.3641C220.906 72.0576 221.649 72.1189 222.178 71.8049C222.722 71.4908 223.212 71.1001 223.733 70.7784C224.269 70.449 224.637 69.8745 225.15 69.5451C225.679 69.208 226.399 69.1774 226.904 68.8403C227.425 68.4956 227.908 68.0973 228.406 67.7449C228.919 67.3849 229.333 66.8946 229.823 66.5346C230.328 66.1669 230.888 65.8834 231.37 65.5081C231.868 65.1251 232.351 64.7344 232.818 64.3514C233.308 63.9607 233.722 63.4858 234.182 63.0951C234.664 62.6891 235.101 62.2601 235.56 61.8541C236.028 61.4328 236.564 61.1034 237.008 60.6898C237.468 60.2608 237.774 59.6863 238.211 59.2573C238.663 58.813 239.414 58.6904 239.835 58.2538C240.272 57.8018 240.563 57.212 240.969 56.7677C241.398 56.3004 241.65 55.6952 242.041 55.2433C242.455 54.7683 242.853 54.3011 243.236 53.8338C243.642 53.3435 243.987 52.8303 244.355 52.3553C244.745 51.8498 245.006 51.2829 245.358 50.8003C245.741 50.2794 246.247 49.8964 246.584 49.4061C246.951 48.8699 247.311 48.372 247.633 47.8817C247.985 47.3302 248.269 46.7786 248.568 46.2807C248.912 45.6985 249.571 45.3615 249.839 44.8712C250.176 44.2431 250.253 43.5766 250.483 43.117C251.004 42.0369 250.636 42.1595 251.256 41.47C251.854 40.8036 251.655 40.8802 252.658 40.3516C253.11 40.1142 253.869 40.2521 254.466 39.9227C254.949 39.6622 255.416 39.2562 255.983 38.9422C256.481 38.6664 256.864 38.1225 257.408 37.8161C257.906 37.5327 258.465 37.2875 259.001 36.9811C259.507 36.69 260.043 36.4296 260.571 36.1155C261.077 35.8167 261.69 35.6635 262.203 35.3418C262.709 35.0277 263.283 34.8056 263.789 34.4838C264.294 34.1621 264.685 33.6642 265.191 33.3348C265.688 33.0054 266.225 32.7143 266.723 32.3849C267.221 32.0479 267.588 31.5193 268.078 31.1746C268.576 30.8299 268.998 30.3932 269.48 30.0409C269.971 29.6808 270.4 29.2672 270.874 28.8995C271.357 28.5241 271.947 28.3096 272.399 27.9343C272.874 27.5436 273.548 27.4057 273.985 27.0151C274.444 26.6014 274.697 25.9809 275.103 25.5749C275.547 25.1306 276.045 24.7782 276.421 24.3493C276.88 23.8207 277.087 23.2002 277.401 22.7176C277.792 22.1201 278.106 21.5992 278.297 21.0783C278.55 20.3965 278.504 19.822 278.474 19.2628C278.435 18.581 278.535 17.9146 278.198 17.409C277.845 16.8805 277.401 16.3289 276.888 15.9689C276.344 15.5859 275.517 15.7544 274.98 15.5323C274.038 15.1186 273.801 15.5552 273.617 14.6283Z" stroke="#161B18" stroke-miterlimit="10" stroke-linecap="round" stroke-linejoin="round"/>
<path d="M273.187 14.4521C272.421 14.9501 272.697 14.9424 271.732 15.5629C271.295 15.8463 270.813 16.2293 270.231 16.6047C269.756 16.9111 269.15 17.1026 268.599 17.4473C268.109 17.7614 267.718 18.2823 267.182 18.627C266.684 18.9411 266.056 19.0866 265.527 19.4237C265.022 19.7377 264.524 20.0901 263.995 20.4195C263.482 20.7412 263.076 21.2392 262.547 21.5609C262.034 21.8826 261.429 22.0741 260.908 22.3959C260.387 22.7176 259.927 23.1389 259.407 23.453C258.878 23.7747 258.357 24.0965 257.844 24.4105C257.308 24.7323 256.787 25.054 256.273 25.3604C255.73 25.6821 255.094 25.797 254.58 26.0881C254.029 26.4099 253.661 26.9997 253.156 27.2832C252.589 27.5972 251.892 27.6049 251.394 27.873C250.796 28.1947 250.367 28.708 249.892 28.9378C249.318 29.2135 248.713 29.3514 248.169 29.5583C247.571 29.7881 247.027 30.1021 246.476 30.2707C245.848 30.4545 245.197 30.3396 244.637 30.4545C243.986 30.5847 243.435 30.9907 242.883 31.0444C242.186 31.121 241.558 31.075 241.045 31.075C239.888 31.0673 240.064 31.3278 239.168 31.1439" stroke="#161B18" stroke-miterlimit="10" stroke-linecap="round" stroke-linejoin="round"/>
<path d="M228.1 29.4893C228.1 30.0868 227.954 30.692 227.847 31.2512C227.732 31.8334 227.686 32.4692 227.464 33.0054C227.242 33.5493 226.698 33.9476 226.369 34.4302C226.047 34.9128 225.603 35.2958 225.189 35.7095C224.775 36.1231 224.568 36.8126 224.078 37.1343C223.596 37.456 222.822 37.2492 222.278 37.479C221.742 37.7012 221.267 38.0152 220.685 38.1301C220.125 38.245 219.559 38.2757 218.969 38.2757C218.379 38.2757 217.797 38.3217 217.23 38.2067C216.648 38.0918 216.119 37.8544 215.59 37.6322C215.047 37.4101 214.556 37.1266 214.074 36.8049C213.591 36.4832 212.963 36.307 212.557 35.8933C212.143 35.4797 211.929 34.8898 211.607 34.3996C211.285 33.917 211.201 33.3348 210.979 32.7909C210.757 32.2547 210.343 31.7951 210.228 31.2206C210.113 30.6613 210.267 30.0792 210.267 29.4817C210.267 28.8842 210.366 28.3556 210.481 27.7887C210.596 27.2065 210.282 26.5018 210.504 25.9656C210.726 25.4217 211.469 25.1536 211.791 24.6786C212.113 24.196 212.074 23.407 212.488 22.9934C212.902 22.5797 213.499 22.3423 213.989 22.0129C214.472 21.6911 215.008 21.4383 215.552 21.2085C216.088 20.9864 216.701 21.063 217.283 20.9481C217.843 20.8332 218.386 20.7106 218.976 20.7106C219.566 20.7106 220.133 20.7336 220.692 20.8408C221.274 20.9557 221.926 20.8332 222.462 21.0553C223.006 21.2775 223.289 21.9746 223.764 22.2963C224.247 22.618 225.059 22.5567 225.472 22.9704C225.886 23.3841 226.208 23.9356 226.529 24.4182C226.851 24.9008 226.752 25.6055 226.981 26.1494C227.204 26.6856 227.648 27.1376 227.763 27.7198C227.878 28.3096 228.1 28.8995 228.1 29.4893Z" fill="white"/>
<path d="M228.1 29.4893C228.1 30.0868 227.954 30.692 227.847 31.2512C227.732 31.8334 227.686 32.4692 227.464 33.0054C227.242 33.5493 226.698 33.9476 226.369 34.4302C226.047 34.9128 225.603 35.2958 225.189 35.7095C224.775 36.1231 224.568 36.8126 224.078 37.1343C223.596 37.456 222.822 37.2492 222.278 37.479C221.742 37.7012 221.267 38.0152 220.685 38.1301C220.125 38.245 219.559 38.2757 218.969 38.2757C218.379 38.2757 217.797 38.3217 217.23 38.2067C216.648 38.0918 216.119 37.8544 215.59 37.6322C215.047 37.4101 214.556 37.1266 214.074 36.8049C213.591 36.4832 212.963 36.307 212.557 35.8933C212.143 35.4797 211.929 34.8898 211.607 34.3996C211.285 33.917 211.201 33.3348 210.979 32.7909C210.757 32.2547 210.343 31.7951 210.228 31.2206C210.113 30.6613 210.267 30.0792 210.267 29.4817C210.267 28.8842 210.366 28.3556 210.481 27.7887C210.596 27.2065 210.282 26.5018 210.504 25.9656C210.726 25.4217 211.469 25.1536 211.791 24.6786C212.113 24.196 212.074 23.407 212.488 22.9934C212.902 22.5797 213.499 22.3423 213.989 22.0129C214.472 21.6911 215.008 21.4383 215.552 21.2085C216.088 20.9864 216.701 21.063 217.283 20.9481C217.843 20.8332 218.386 20.7106 218.976 20.7106C219.566 20.7106 220.133 20.7336 220.692 20.8408C221.274 20.9557 221.926 20.8332 222.462 21.0553C223.006 21.2775 223.289 21.9746 223.764 22.2963C224.247 22.618 225.059 22.5567 225.472 22.9704C225.886 23.3841 226.208 23.9356 226.529 24.4182C226.851 24.9008 226.752 25.6055 226.981 26.1494C227.204 26.6856 227.648 27.1376 227.763 27.7198C227.878 28.3096 228.1 28.8995 228.1 29.4893Z" stroke="#161B18" stroke-miterlimit="10" stroke-linecap="round" stroke-linejoin="round"/>
<path d="M213.666 24.7016C212.862 24.7016 211.958 24.5025 211.223 24.7016C210.947 25.1613 210.671 25.7741 210.48 26.2797C210.288 26.7776 210.503 27.3904 210.411 27.9266C210.319 28.4475 210.143 28.9454 210.143 29.4893C210.143 30.0868 210.196 30.6537 210.311 31.2129C210.426 31.7951 210.495 32.3773 210.717 32.9135C210.939 33.4574 211.399 33.8557 211.728 34.3383C212.05 34.8209 212.318 35.3341 212.732 35.7478C213.145 36.1614 213.482 36.6823 213.965 37.0041C214.448 37.3258 215.053 37.4484 215.597 37.6782C216.133 37.9003 216.707 37.9463 217.282 38.0612C217.841 38.1761 218.393 38.4979 218.99 38.4979C219.795 38.4979 220.607 38.337 221.342 38.1378C221.618 37.6782 221.587 37.05 221.779 36.5521C221.97 36.0542 222.568 35.6712 222.667 35.135C222.759 34.6141 222.782 34.0396 222.782 33.4957C222.782 32.8982 222.767 32.27 222.66 31.7108C222.545 31.1286 222.169 30.6077 221.947 30.0715C221.725 29.5276 221.319 29.091 220.997 28.6084C220.676 28.1258 220.247 27.7504 219.833 27.3444C219.419 26.9308 219.182 26.3103 218.699 25.9886C218.217 25.6668 217.665 25.414 217.121 25.1919C216.585 24.9697 215.941 25.1459 215.367 25.031C214.792 24.9161 214.264 24.7016 213.666 24.7016Z" fill="#141414"/>
<path d="M213.666 24.7016C212.862 24.7016 211.958 24.5025 211.223 24.7016C210.947 25.1613 210.671 25.7741 210.48 26.2797C210.288 26.7776 210.503 27.3904 210.411 27.9266C210.319 28.4475 210.143 28.9454 210.143 29.4893C210.143 30.0868 210.196 30.6537 210.311 31.2129C210.426 31.7951 210.495 32.3773 210.717 32.9135C210.939 33.4574 211.399 33.8557 211.728 34.3383C212.05 34.8209 212.318 35.3341 212.732 35.7478C213.145 36.1614 213.482 36.6823 213.965 37.0041C214.448 37.3258 215.053 37.4484 215.597 37.6782C216.133 37.9003 216.707 37.9463 217.282 38.0612C217.841 38.1761 218.393 38.4979 218.99 38.4979C219.795 38.4979 220.607 38.337 221.342 38.1378C221.618 37.6782 221.587 37.05 221.779 36.5521C221.97 36.0542 222.568 35.6712 222.667 35.135C222.759 34.6141 222.782 34.0396 222.782 33.4957C222.782 32.8982 222.767 32.27 222.66 31.7108C222.545 31.1286 222.169 30.6077 221.947 30.0715C221.725 29.5276 221.319 29.091 220.997 28.6084C220.676 28.1258 220.247 27.7504 219.833 27.3444C219.419 26.9308 219.182 26.3103 218.699 25.9886C218.217 25.6668 217.665 25.414 217.121 25.1919C216.585 24.9697 215.941 25.1459 215.367 25.031C214.792 24.9161 214.264 24.7016 213.666 24.7016Z" stroke="#161B18" stroke-miterlimit="10" stroke-linecap="round" stroke-linejoin="round"/>
<path d="M169.682 26.4405C169.935 26.8848 170.088 27.4899 169.874 28.0568C169.705 28.5088 169.177 28.8305 168.763 29.2595C168.41 29.6195 168.02 29.9566 167.522 30.24C167.032 30.5234 166.526 30.6307 166.036 30.7532C165.461 30.8988 164.94 31.2129 164.465 31.1286C163.876 31.029 163.217 30.7686 162.956 30.3243C162.704 29.88 162.727 29.1522 162.941 28.5854C163.11 28.1334 163.623 27.781 164.036 27.3597C164.389 26.9997 164.802 26.678 165.3 26.3945C165.791 26.1111 166.312 26.0268 166.794 25.9043C167.369 25.7587 167.844 25.7357 168.319 25.8123C168.916 25.9043 169.422 25.9962 169.682 26.4405Z" fill="#141414"/>
<path d="M169.682 26.4405C169.935 26.8848 170.088 27.4899 169.874 28.0568C169.705 28.5088 169.177 28.8305 168.763 29.2595C168.41 29.6195 168.02 29.9566 167.522 30.24C167.032 30.5234 166.526 30.6307 166.036 30.7532C165.461 30.8988 164.94 31.2129 164.465 31.1286C163.876 31.029 163.217 30.7686 162.956 30.3243C162.704 29.88 162.727 29.1522 162.941 28.5854C163.11 28.1334 163.623 27.781 164.036 27.3597C164.389 26.9997 164.802 26.678 165.3 26.3945C165.791 26.1111 166.312 26.0268 166.794 25.9043C167.369 25.7587 167.844 25.7357 168.319 25.8123C168.916 25.9043 169.422 25.9962 169.682 26.4405Z" stroke="#161B18" stroke-miterlimit="10" stroke-linecap="round" stroke-linejoin="round"/>
<path d="M126.798 187.138C126.116 187.766 125.787 186.747 124.875 186.594C123.964 186.441 123.948 186.525 123.037 186.379C122.125 186.226 122.148 186.104 121.236 185.958C120.325 185.805 120.325 185.82 119.413 185.667C118.502 185.514 118.525 185.376 117.613 185.223C116.702 185.07 116.686 185.192 115.775 185.039C114.863 184.886 114.802 185.261 113.89 185.108C112.979 184.955 113.032 184.641 112.121 184.495C111.209 184.342 111.232 184.227 110.321 184.081C109.409 183.928 109.332 184.38 108.428 184.227C107.517 184.074 107.586 183.645 106.674 183.499C105.763 183.346 105.709 183.652 104.797 183.499C103.886 183.346 103.916 183.162 103.005 183.009C102.093 182.856 102.116 182.733 101.205 182.58C100.293 182.427 100.247 182.703 99.3356 182.549C98.4241 182.396 98.4623 182.189 97.5508 182.036C96.6392 181.883 96.5932 182.159 95.6817 182.013C94.7701 181.86 94.7548 181.967 93.8432 181.814C92.9316 181.661 92.9316 181.684 92.02 181.53C91.1084 181.377 91.1697 181.01 90.2582 180.864C89.3466 180.711 89.2853 181.056 88.3737 180.91C87.4622 180.757 87.4775 180.657 86.5659 180.504C85.6543 180.351 85.7156 179.998 84.804 179.845C83.8925 179.692 83.8312 180.067 82.9196 179.914C82.008 179.761 82.0693 179.409 81.1577 179.255C80.2461 179.102 80.2002 179.37 79.2886 179.217C78.377 179.064 78.4153 178.826 77.5038 178.681C76.5922 178.528 76.6075 178.428 75.6959 178.275C74.7843 178.122 74.7614 178.26 73.8498 178.106C72.9382 177.953 72.9076 178.122 71.996 177.968C71.0844 177.815 71.0997 177.723 70.1882 177.57C69.2766 177.417 69.3072 177.256 68.388 177.103C67.4764 176.95 67.3921 177.471 66.4806 177.325C65.569 177.172 65.6456 176.704 64.734 176.551C63.8224 176.398 63.8301 176.329 62.9185 176.184C62.007 176.03 62.0069 176.046 61.0877 175.9C60.1761 175.747 60.0919 176.276 59.1726 176.122C58.2611 175.969 58.2841 175.816 57.3725 175.663C56.4609 175.51 56.5069 175.234 55.5953 175.088C54.6837 174.935 54.6224 175.295 53.7185 175.142C52.8069 174.989 52.8069 174.989 51.8954 174.843C50.9838 174.69 51.0068 174.537 50.0952 174.391C49.1836 174.238 49.2142 174.054 48.3027 173.901C47.3911 173.748 47.3451 174.039 46.4335 173.893C45.522 173.74 45.5449 173.594 44.6334 173.449C43.7218 173.296 43.7065 173.395 42.7949 173.242C41.8833 173.089 41.868 173.188 40.9564 173.043C40.0449 172.89 40.0372 172.92 39.1256 172.767C38.214 172.614 38.283 172.216 37.3637 172.062C36.4522 171.909 36.4368 172.001 35.5253 171.848C34.6137 171.695 34.6137 171.679 33.7021 171.534C32.7905 171.381 32.8135 171.227 31.9019 171.074C30.9904 170.921 30.9751 171.005 30.0635 170.86C29.1519 170.706 29.1672 170.592 28.2556 170.446C27.3441 170.293 27.3287 170.369 26.4172 170.216C25.5056 170.063 25.4366 170.454 24.5251 170.308C23.6135 170.155 23.6595 169.856 22.7479 169.711C21.8363 169.557 21.8057 169.734 20.8941 169.58C19.9749 169.427 20.0285 169.113 19.1169 168.968C18.1977 168.814 18.144 169.182 17.2248 169.029C16.5737 168.922 15.9762 168.646 15.3863 168.408C14.7812 168.163 14.2143 167.857 13.6857 167.497C13.1495 167.129 12.6439 166.723 12.2073 166.248C11.7707 165.773 11.5715 165.145 11.2421 164.586C10.9204 164.034 10.3458 163.59 10.1467 162.97C9.95517 162.364 9.71771 161.713 9.65642 161.055C9.57216 160.143 9.61046 160.143 9.53386 159.231C9.44959 158.32 9.5262 158.312 9.44194 157.401C9.35767 156.489 9.78665 156.451 9.70238 155.539C9.61812 154.627 9.53385 154.635 9.44959 153.724C9.36533 152.812 8.97466 152.843 8.89039 151.931C8.80613 151.019 9.13552 150.989 9.05125 150.077C8.96699 149.166 8.5227 149.204 8.44609 148.292C8.36183 147.381 8.50737 147.366 8.43077 146.454C8.34651 145.542 8.53801 145.527 8.45375 144.615C8.36949 143.704 8.59164 143.681 8.51503 142.769C8.43077 141.858 8.33118 141.865 8.24692 140.954C8.16265 140.042 7.94817 140.058 7.8639 139.146C7.77964 138.234 7.64176 138.242 7.55749 137.331C7.47323 136.419 7.64941 136.404 7.56515 135.492C7.48089 134.58 7.61878 134.565 7.53451 133.654C7.45025 132.742 7.22044 132.765 7.13618 131.853C7.05191 130.942 7.09787 130.934 7.01361 130.023C6.92934 129.111 7.00595 129.103 6.92169 128.192C6.83743 127.28 6.67656 127.296 6.5923 126.384C6.50804 125.472 6.76083 125.449 6.67656 124.538C6.5923 123.626 6.27823 123.657 6.19396 122.738C6.1097 121.826 6.33184 121.803 6.24758 120.892C6.16331 119.98 6.3012 119.965 6.21694 119.053C6.13268 118.141 5.8186 118.172 5.73434 117.253C5.65008 116.341 6.0714 116.303 5.9948 115.391C5.91053 114.48 5.39729 114.526 5.31303 113.614C5.22877 112.703 5.71903 112.657 5.63476 111.745C5.5505 110.834 5.39729 110.849 5.32069 109.93C5.23642 109.018 5.1445 109.026 5.0679 108.114C4.98363 107.203 4.90704 107.21 4.82277 106.291C4.73851 105.379 5.12918 105.341 5.04492 104.43C4.96065 103.518 4.8151 103.533 4.73084 102.622C4.64658 101.71 4.56231 101.718 4.47805 100.806C4.39379 99.8946 4.58529 99.8793 4.50103 98.9601C4.41677 98.0485 4.18696 98.0715 4.1027 97.1522C4.01844 96.2406 3.85757 96.256 3.78097 95.3444C3.69671 94.4328 3.98013 94.4098 3.89587 93.4906C3.81161 92.579 3.68904 92.5867 3.60477 91.6751C3.52051 90.7635 3.75799 90.7405 3.68138 89.829C3.59712 88.9174 3.5818 88.9174 3.5052 88.0058C3.42094 87.0942 3.36731 87.0942 3.28304 86.1827C3.19878 85.2711 3.33667 85.2558 3.25241 84.3442C3.16814 83.4326 2.81576 83.4633 2.7315 82.5517C2.64724 81.6401 2.81576 81.6248 2.7315 80.7055C2.64724 79.794 2.43275 79.8093 2.34848 78.8977C2.26422 77.9861 2.28721 77.9861 2.2106 77.0669C2.12634 76.1553 1.97313 76.163 1.89653 75.2514C1.81227 74.3398 2.3638 74.2862 2.2872 73.3746C2.20294 72.4631 2.02676 72.4784 1.95016 71.5591C1.86589 70.6399 1.65141 70.6629 1.56714 69.7513C1.48288 68.8321 1.50586 68.8321 1.42159 67.9128C1.33733 66.9936 0.609596 66.6412 1.2837 66.0131C1.95781 65.3849 2.19529 66.5033 3.0992 66.6489C4.00312 66.8021 4.01843 66.7332 4.92235 66.8787C5.82626 67.0319 5.87989 66.7102 6.78381 66.8634C7.68772 67.0166 7.62644 67.4149 8.53036 67.5605C9.43427 67.7137 9.44193 67.6754 10.3535 67.8209C11.2574 67.9741 11.3417 67.4762 12.2533 67.6217C13.1572 67.775 13.1265 67.9741 14.0381 68.1273C14.942 68.2805 14.9727 68.0967 15.8842 68.2422C16.7882 68.3954 16.7958 68.3495 17.7074 68.5027C18.6113 68.6559 18.6113 68.6942 19.5152 68.8397C20.4191 68.9929 20.3655 69.3223 21.2694 69.4755C22.1734 69.6287 22.2346 69.2534 23.1462 69.3989C24.0501 69.5521 23.9582 70.1037 24.8698 70.2492C25.7737 70.4024 25.8197 70.1267 26.7312 70.2799C27.6352 70.4331 27.6198 70.5556 28.5237 70.7012C29.4277 70.8544 29.42 70.931 30.3239 71.0842C31.2355 71.2374 31.2508 71.1072 32.1624 71.2527C33.0663 71.4059 33.0433 71.5438 33.9549 71.697C34.8588 71.8502 34.9278 71.4672 35.8317 71.6128C36.7356 71.766 36.705 71.9728 37.6089 72.126C38.5128 72.2792 38.5205 72.2486 39.4244 72.4018C40.3283 72.555 40.2976 72.7771 41.2016 72.9227C42.1055 73.0759 42.1131 73.0606 43.017 73.2061C43.9286 73.3593 43.9746 73.0529 44.8862 73.2061C45.7977 73.3593 45.7594 73.5738 46.6634 73.727C47.5673 73.8802 47.5673 73.8879 48.4788 74.0411C49.3828 74.1943 49.444 73.8496 50.348 73.9951C51.2519 74.1483 51.1906 74.5237 52.1022 74.6769C53.0061 74.8301 53.0904 74.3398 53.9943 74.493C54.9058 74.6463 54.8599 74.8837 55.7715 75.0369C56.683 75.1901 56.6371 75.4276 57.5486 75.5731C58.4526 75.7263 58.5292 75.2974 59.4331 75.4429C60.337 75.5961 60.337 75.6191 61.2409 75.7646C62.1525 75.9179 62.0989 76.2319 63.0028 76.3775C63.9144 76.5307 63.9527 76.2779 64.8643 76.4234C65.7758 76.5766 65.7528 76.7069 66.6568 76.8601C67.5607 77.0133 67.576 76.952 68.4799 77.0975C69.3915 77.2507 69.3532 77.4423 70.2648 77.5878C71.1763 77.741 71.1687 77.7717 72.0726 77.9249C72.9842 78.0781 73.0148 77.8789 73.9187 78.0321C74.8303 78.1853 74.838 78.1393 75.7419 78.2849C76.6535 78.4381 76.6152 78.6296 77.5267 78.7752C78.4307 78.9284 78.4613 78.7368 79.3729 78.8901C80.2768 79.0433 80.3074 78.8594 81.2113 79.0126C82.1153 79.1658 82.0923 79.342 82.9962 79.4876C83.9078 79.6408 83.9078 79.6331 84.8117 79.7863C85.7233 79.9395 85.6773 80.177 86.5889 80.3302C87.4928 80.4834 87.5541 80.1234 88.4657 80.2766C89.3772 80.4298 89.3772 80.3991 90.2888 80.5523C91.2004 80.7055 91.2004 80.7055 92.1043 80.8511C93.0159 81.0043 93.0312 80.9047 93.9351 81.0503C94.8467 81.2035 94.8084 81.418 95.72 81.5712C96.6315 81.7244 96.6392 81.6631 97.5431 81.8163C98.4547 81.9695 98.4241 82.115 99.3356 82.2682C100.247 82.4215 100.232 82.4751 101.143 82.6283C102.055 82.7815 102.032 82.9117 102.936 83.0649C103.848 83.2181 103.901 82.8887 104.805 83.0419C105.709 83.1951 105.694 83.2947 106.605 83.4479C107.517 83.6011 107.509 83.6318 108.421 83.7773C109.332 83.9305 109.348 83.8233 110.259 83.9765C111.171 84.1297 111.133 84.3595 112.044 84.5127C112.956 84.6659 112.948 84.7272 113.852 84.8727C114.763 85.026 114.756 85.0566 115.667 85.2098C116.579 85.363 116.847 84.6276 117.483 85.3017C118.103 85.9682 117.391 86.1827 117.475 87.0866C117.56 87.9905 117.567 87.9905 117.651 88.9021C117.736 89.806 118.042 89.783 118.126 90.6869C118.211 91.5908 118.073 91.6062 118.149 92.5101C118.234 93.414 118.326 93.4063 118.402 94.3179C118.486 95.2218 118.134 95.2601 118.218 96.164C118.303 97.068 118.379 97.068 118.456 97.9719C118.54 98.8835 118.754 98.8605 118.831 99.7721C118.915 100.684 118.808 100.691 118.885 101.603C118.969 102.514 118.885 102.522 118.969 103.426C119.053 104.338 118.961 104.345 119.038 105.249C119.122 106.153 119.229 106.145 119.306 107.057C119.39 107.961 119.589 107.946 119.674 108.857C119.758 109.761 119.812 109.761 119.888 110.665C119.972 111.577 120.126 111.561 120.202 112.465C120.287 113.377 120.241 113.377 120.325 114.288C120.409 115.2 120.264 115.208 120.348 116.119C120.432 117.031 120.202 117.046 120.287 117.958C120.371 118.869 120.325 118.869 120.409 119.781C120.493 120.692 121.007 120.639 121.091 121.55C121.175 122.462 120.662 122.508 120.746 123.412C120.83 124.323 121.198 124.285 121.275 125.197C121.359 126.108 121.367 126.108 121.451 127.012C121.535 127.924 121.244 127.947 121.328 128.851C121.413 129.762 121.344 129.762 121.428 130.674C121.512 131.585 121.78 131.555 121.865 132.466C121.949 133.378 121.926 133.378 122.01 134.289C122.094 135.201 122.294 135.178 122.378 136.09C122.462 137.001 121.987 137.039 122.071 137.951C122.156 138.863 122.416 138.84 122.493 139.744C122.577 140.655 122.638 140.647 122.723 141.559C122.807 142.471 122.945 142.455 123.029 143.367C123.113 144.278 122.922 144.294 123.006 145.198C123.09 146.109 123.014 146.117 123.098 147.021C123.182 147.925 123.32 147.917 123.404 148.821C123.489 149.725 123.565 149.717 123.649 150.629C123.734 151.533 123.312 151.571 123.397 152.483C123.481 153.394 123.458 153.394 123.535 154.306C123.619 155.217 124.04 155.179 124.124 156.083C124.209 156.995 123.78 157.033 123.856 157.937C123.941 158.848 124.14 158.825 124.224 159.737C124.308 160.649 124.224 160.656 124.308 161.56C124.392 162.472 124.592 162.449 124.676 163.36C124.76 164.272 124.783 164.264 124.86 165.176C124.944 166.087 124.737 166.103 124.814 167.014C124.898 167.926 125.09 167.91 125.174 168.814C125.258 169.726 124.982 169.749 125.067 170.661C125.151 171.572 125.312 171.557 125.396 172.468C125.48 173.38 125.181 173.403 125.266 174.314C125.35 175.226 125.488 175.211 125.572 176.115C125.656 177.026 125.687 177.019 125.764 177.93C125.848 178.842 125.856 178.842 125.94 179.753C126.024 180.665 126.361 180.634 126.438 181.546C126.522 182.457 126.223 182.48 126.3 183.392C126.384 184.304 126.461 184.273 126.767 185.131C127.089 186.119 127.472 186.525 126.798 187.138Z" fill="#727D73"/>
<path d="M126.798 187.138C126.116 187.766 125.787 186.747 124.875 186.594C123.964 186.441 123.948 186.525 123.037 186.379C122.125 186.226 122.148 186.104 121.236 185.958C120.325 185.805 120.325 185.82 119.413 185.667C118.502 185.514 118.525 185.376 117.613 185.223C116.702 185.07 116.686 185.192 115.775 185.039C114.863 184.886 114.802 185.261 113.89 185.108C112.979 184.955 113.032 184.641 112.121 184.495C111.209 184.342 111.232 184.227 110.321 184.081C109.409 183.928 109.332 184.38 108.428 184.227C107.517 184.074 107.586 183.645 106.674 183.499C105.763 183.346 105.709 183.652 104.797 183.499C103.886 183.346 103.916 183.162 103.005 183.009C102.093 182.856 102.116 182.733 101.205 182.58C100.293 182.427 100.247 182.703 99.3356 182.549C98.4241 182.396 98.4623 182.189 97.5508 182.036C96.6392 181.883 96.5932 182.159 95.6817 182.013C94.7701 181.86 94.7548 181.967 93.8432 181.814C92.9316 181.661 92.9316 181.684 92.02 181.53C91.1084 181.377 91.1697 181.01 90.2582 180.864C89.3466 180.711 89.2853 181.056 88.3737 180.91C87.4622 180.757 87.4775 180.657 86.5659 180.504C85.6543 180.351 85.7156 179.998 84.804 179.845C83.8925 179.692 83.8312 180.067 82.9196 179.914C82.008 179.761 82.0693 179.409 81.1577 179.255C80.2461 179.102 80.2002 179.37 79.2886 179.217C78.377 179.064 78.4153 178.826 77.5038 178.681C76.5922 178.528 76.6075 178.428 75.6959 178.275C74.7843 178.122 74.7614 178.26 73.8498 178.106C72.9382 177.953 72.9076 178.122 71.996 177.968C71.0844 177.815 71.0997 177.723 70.1882 177.57C69.2766 177.417 69.3072 177.256 68.388 177.103C67.4764 176.95 67.3921 177.471 66.4806 177.325C65.569 177.172 65.6456 176.704 64.734 176.551C63.8224 176.398 63.8301 176.329 62.9185 176.184C62.007 176.03 62.0069 176.046 61.0877 175.9C60.1761 175.747 60.0919 176.276 59.1726 176.122C58.2611 175.969 58.2841 175.816 57.3725 175.663C56.4609 175.51 56.5069 175.234 55.5953 175.088C54.6837 174.935 54.6224 175.295 53.7185 175.142C52.8069 174.989 52.8069 174.989 51.8954 174.843C50.9838 174.69 51.0068 174.537 50.0952 174.391C49.1836 174.238 49.2142 174.054 48.3027 173.901C47.3911 173.748 47.3451 174.039 46.4335 173.893C45.522 173.74 45.5449 173.594 44.6334 173.449C43.7218 173.296 43.7065 173.395 42.7949 173.242C41.8833 173.089 41.868 173.188 40.9564 173.043C40.0449 172.89 40.0372 172.92 39.1256 172.767C38.214 172.614 38.283 172.216 37.3637 172.062C36.4522 171.909 36.4368 172.001 35.5253 171.848C34.6137 171.695 34.6137 171.679 33.7021 171.534C32.7905 171.381 32.8135 171.227 31.9019 171.074C30.9904 170.921 30.9751 171.005 30.0635 170.86C29.1519 170.706 29.1672 170.592 28.2556 170.446C27.3441 170.293 27.3287 170.369 26.4172 170.216C25.5056 170.063 25.4366 170.454 24.5251 170.308C23.6135 170.155 23.6595 169.856 22.7479 169.711C21.8363 169.557 21.8057 169.734 20.8941 169.58C19.9749 169.427 20.0285 169.113 19.1169 168.968C18.1977 168.814 18.144 169.182 17.2248 169.029C16.5737 168.922 15.9762 168.646 15.3863 168.408C14.7812 168.163 14.2143 167.857 13.6857 167.497C13.1495 167.129 12.6439 166.723 12.2073 166.248C11.7707 165.773 11.5715 165.145 11.2421 164.586C10.9204 164.034 10.3458 163.59 10.1467 162.97C9.95517 162.364 9.71771 161.713 9.65642 161.055C9.57216 160.143 9.61046 160.143 9.53386 159.231C9.44959 158.32 9.5262 158.312 9.44194 157.401C9.35767 156.489 9.78665 156.451 9.70238 155.539C9.61812 154.627 9.53385 154.635 9.44959 153.724C9.36533 152.812 8.97466 152.843 8.89039 151.931C8.80613 151.019 9.13552 150.989 9.05125 150.077C8.96699 149.166 8.5227 149.204 8.44609 148.292C8.36183 147.381 8.50737 147.366 8.43077 146.454C8.34651 145.542 8.53801 145.527 8.45375 144.615C8.36949 143.704 8.59164 143.681 8.51503 142.769C8.43077 141.858 8.33118 141.865 8.24692 140.954C8.16265 140.042 7.94817 140.058 7.8639 139.146C7.77964 138.234 7.64176 138.242 7.55749 137.331C7.47323 136.419 7.64941 136.404 7.56515 135.492C7.48089 134.58 7.61878 134.565 7.53451 133.654C7.45025 132.742 7.22044 132.765 7.13618 131.853C7.05191 130.942 7.09787 130.934 7.01361 130.023C6.92934 129.111 7.00595 129.103 6.92169 128.192C6.83743 127.28 6.67656 127.296 6.5923 126.384C6.50804 125.472 6.76083 125.449 6.67656 124.538C6.5923 123.626 6.27823 123.657 6.19396 122.738C6.1097 121.826 6.33184 121.803 6.24758 120.892C6.16331 119.98 6.3012 119.965 6.21694 119.053C6.13268 118.141 5.8186 118.172 5.73434 117.253C5.65008 116.341 6.0714 116.303 5.9948 115.391C5.91053 114.48 5.39729 114.526 5.31303 113.614C5.22877 112.703 5.71903 112.657 5.63476 111.745C5.5505 110.834 5.39729 110.849 5.32069 109.93C5.23642 109.018 5.1445 109.026 5.0679 108.114C4.98363 107.203 4.90704 107.21 4.82277 106.291C4.73851 105.379 5.12918 105.341 5.04492 104.43C4.96065 103.518 4.8151 103.533 4.73084 102.622C4.64658 101.71 4.56231 101.718 4.47805 100.806C4.39379 99.8946 4.58529 99.8793 4.50103 98.9601C4.41677 98.0485 4.18696 98.0715 4.1027 97.1522C4.01844 96.2406 3.85757 96.256 3.78097 95.3444C3.69671 94.4328 3.98013 94.4098 3.89587 93.4906C3.81161 92.579 3.68904 92.5867 3.60477 91.6751C3.52051 90.7635 3.75799 90.7405 3.68138 89.829C3.59712 88.9174 3.5818 88.9174 3.5052 88.0058C3.42094 87.0942 3.36731 87.0942 3.28304 86.1827C3.19878 85.2711 3.33667 85.2558 3.25241 84.3442C3.16814 83.4326 2.81576 83.4633 2.7315 82.5517C2.64724 81.6401 2.81576 81.6248 2.7315 80.7055C2.64724 79.794 2.43275 79.8093 2.34848 78.8977C2.26422 77.9861 2.28721 77.9861 2.2106 77.0669C2.12634 76.1553 1.97313 76.163 1.89653 75.2514C1.81227 74.3398 2.3638 74.2862 2.2872 73.3746C2.20294 72.4631 2.02676 72.4784 1.95016 71.5591C1.86589 70.6399 1.65141 70.6629 1.56714 69.7513C1.48288 68.8321 1.50586 68.8321 1.42159 67.9128C1.33733 66.9936 0.609596 66.6412 1.2837 66.0131C1.95781 65.3849 2.19529 66.5033 3.0992 66.6489C4.00312 66.8021 4.01843 66.7332 4.92235 66.8787C5.82626 67.0319 5.87989 66.7102 6.78381 66.8634C7.68772 67.0166 7.62644 67.4149 8.53036 67.5605C9.43427 67.7137 9.44193 67.6754 10.3535 67.8209C11.2574 67.9741 11.3417 67.4762 12.2533 67.6217C13.1572 67.775 13.1265 67.9741 14.0381 68.1273C14.942 68.2805 14.9727 68.0967 15.8842 68.2422C16.7882 68.3954 16.7958 68.3495 17.7074 68.5027C18.6113 68.6559 18.6113 68.6942 19.5152 68.8397C20.4191 68.9929 20.3655 69.3223 21.2694 69.4755C22.1734 69.6287 22.2346 69.2534 23.1462 69.3989C24.0501 69.5521 23.9582 70.1037 24.8698 70.2492C25.7737 70.4024 25.8197 70.1267 26.7312 70.2799C27.6352 70.4331 27.6198 70.5556 28.5237 70.7012C29.4277 70.8544 29.42 70.931 30.3239 71.0842C31.2355 71.2374 31.2508 71.1072 32.1624 71.2527C33.0663 71.4059 33.0433 71.5438 33.9549 71.697C34.8588 71.8502 34.9278 71.4672 35.8317 71.6128C36.7356 71.766 36.705 71.9728 37.6089 72.126C38.5128 72.2792 38.5205 72.2486 39.4244 72.4018C40.3283 72.555 40.2976 72.7771 41.2016 72.9227C42.1055 73.0759 42.1131 73.0606 43.017 73.2061C43.9286 73.3593 43.9746 73.0529 44.8862 73.2061C45.7977 73.3593 45.7594 73.5738 46.6634 73.727C47.5673 73.8802 47.5673 73.8879 48.4788 74.0411C49.3828 74.1943 49.444 73.8496 50.348 73.9951C51.2519 74.1483 51.1906 74.5237 52.1022 74.6769C53.0061 74.8301 53.0904 74.3398 53.9943 74.493C54.9058 74.6463 54.8599 74.8837 55.7715 75.0369C56.683 75.1901 56.6371 75.4276 57.5486 75.5731C58.4526 75.7263 58.5292 75.2974 59.4331 75.4429C60.337 75.5961 60.337 75.6191 61.2409 75.7646C62.1525 75.9179 62.0989 76.2319 63.0028 76.3775C63.9144 76.5307 63.9527 76.2779 64.8643 76.4234C65.7758 76.5766 65.7528 76.7069 66.6568 76.8601C67.5607 77.0133 67.576 76.952 68.4799 77.0975C69.3915 77.2507 69.3532 77.4423 70.2648 77.5878C71.1763 77.741 71.1687 77.7717 72.0726 77.9249C72.9842 78.0781 73.0148 77.8789 73.9187 78.0321C74.8303 78.1853 74.838 78.1393 75.7419 78.2849C76.6535 78.4381 76.6152 78.6296 77.5267 78.7752C78.4307 78.9284 78.4613 78.7368 79.3729 78.8901C80.2768 79.0433 80.3074 78.8594 81.2113 79.0126C82.1153 79.1658 82.0923 79.342 82.9962 79.4876C83.9078 79.6408 83.9078 79.6331 84.8117 79.7863C85.7233 79.9395 85.6773 80.177 86.5889 80.3302C87.4928 80.4834 87.5541 80.1234 88.4657 80.2766C89.3772 80.4298 89.3772 80.3991 90.2888 80.5523C91.2004 80.7055 91.2004 80.7055 92.1043 80.8511C93.0159 81.0043 93.0312 80.9047 93.9351 81.0503C94.8467 81.2035 94.8084 81.418 95.72 81.5712C96.6315 81.7244 96.6392 81.6631 97.5431 81.8163C98.4547 81.9695 98.4241 82.115 99.3356 82.2682C100.247 82.4215 100.232 82.4751 101.143 82.6283C102.055 82.7815 102.032 82.9117 102.936 83.0649C103.848 83.2181 103.901 82.8887 104.805 83.0419C105.709 83.1951 105.694 83.2947 106.605 83.4479C107.517 83.6011 107.509 83.6318 108.421 83.7773C109.332 83.9305 109.348 83.8233 110.259 83.9765C111.171 84.1297 111.133 84.3595 112.044 84.5127C112.956 84.6659 112.948 84.7272 113.852 84.8727C114.763 85.026 114.756 85.0566 115.667 85.2098C116.579 85.363 116.847 84.6276 117.483 85.3017C118.103 85.9682 117.391 86.1827 117.475 87.0866C117.56 87.9905 117.567 87.9905 117.651 88.9021C117.736 89.806 118.042 89.783 118.126 90.6869C118.211 91.5908 118.073 91.6062 118.149 92.5101C118.234 93.414 118.326 93.4063 118.402 94.3179C118.486 95.2218 118.134 95.2601 118.218 96.164C118.303 97.068 118.379 97.068 118.456 97.9719C118.54 98.8835 118.754 98.8605 118.831 99.7721C118.915 100.684 118.808 100.691 118.885 101.603C118.969 102.514 118.885 102.522 118.969 103.426C119.053 104.338 118.961 104.345 119.038 105.249C119.122 106.153 119.229 106.145 119.306 107.057C119.39 107.961 119.589 107.946 119.674 108.857C119.758 109.761 119.812 109.761 119.888 110.665C119.972 111.577 120.126 111.561 120.202 112.465C120.287 113.377 120.241 113.377 120.325 114.288C120.409 115.2 120.264 115.208 120.348 116.119C120.432 117.031 120.202 117.046 120.287 117.958C120.371 118.869 120.325 118.869 120.409 119.781C120.493 120.692 121.007 120.639 121.091 121.55C121.175 122.462 120.662 122.508 120.746 123.412C120.83 124.323 121.198 124.285 121.275 125.197C121.359 126.108 121.367 126.108 121.451 127.012C121.535 127.924 121.244 127.947 121.328 128.851C121.413 129.762 121.344 129.762 121.428 130.674C121.512 131.585 121.78 131.555 121.865 132.466C121.949 133.378 121.926 133.378 122.01 134.289C122.094 135.201 122.294 135.178 122.378 136.09C122.462 137.001 121.987 137.039 122.071 137.951C122.156 138.863 122.416 138.84 122.493 139.744C122.577 140.655 122.638 140.647 122.723 141.559C122.807 142.471 122.945 142.455 123.029 143.367C123.113 144.278 122.922 144.294 123.006 145.198C123.09 146.109 123.014 146.117 123.098 147.021C123.182 147.925 123.32 147.917 123.404 148.821C123.489 149.725 123.565 149.717 123.649 150.629C123.734 151.533 123.312 151.571 123.397 152.483C123.481 153.394 123.458 153.394 123.535 154.306C123.619 155.217 124.04 155.179 124.124 156.083C124.209 156.995 123.78 157.033 123.856 157.937C123.941 158.848 124.14 158.825 124.224 159.737C124.308 160.649 124.224 160.656 124.308 161.56C124.392 162.472 124.592 162.449 124.676 163.36C124.76 164.272 124.783 164.264 124.86 165.176C124.944 166.087 124.737 166.103 124.814 167.014C124.898 167.926 125.09 167.91 125.174 168.814C125.258 169.726 124.982 169.749 125.067 170.661C125.151 171.572 125.312 171.557 125.396 172.468C125.48 173.38 125.181 173.403 125.266 174.314C125.35 175.226 125.488 175.211 125.572 176.115C125.656 177.026 125.687 177.019 125.764 177.93C125.848 178.842 125.856 178.842 125.94 179.753C126.024 180.665 126.361 180.634 126.438 181.546C126.522 182.457 126.223 182.48 126.3 183.392C126.384 184.304 126.461 184.273 126.767 185.131C127.089 186.119 127.472 186.525 126.798 187.138Z" stroke="#161B18" stroke-miterlimit="10" stroke-linecap="round" stroke-linejoin="round"/>
<path d="M186.89 188.061C186.002 187.892 185.917 188.314 185.029 188.145C184.14 187.976 184.224 187.517 183.336 187.348C182.447 187.18 182.44 187.21 181.551 187.034C180.662 186.866 180.563 187.371 179.674 187.203C178.786 187.034 178.809 186.896 177.92 186.728C177.031 186.559 177.008 186.659 176.12 186.483C175.231 186.314 175.231 186.299 174.343 186.123C173.454 185.954 173.485 185.786 172.596 185.617C171.707 185.449 171.669 185.64 170.781 185.472C169.892 185.303 169.984 184.843 169.095 184.667C168.207 184.499 168.138 184.874 167.249 184.706C166.361 184.537 166.391 184.345 165.503 184.177C164.614 184.008 164.583 184.146 163.695 183.978C162.806 183.809 162.845 183.618 161.948 183.449C161.06 183.281 161.037 183.373 160.148 183.204C159.259 183.036 159.214 183.281 158.317 183.112C157.429 182.944 157.49 182.599 156.601 182.43C155.713 182.262 155.751 182.047 154.862 181.879C153.974 181.71 153.92 181.971 153.032 181.795C152.143 181.626 152.12 181.741 151.224 181.572C150.335 181.404 150.335 181.389 149.447 181.22C148.558 181.052 148.619 180.699 147.731 180.531C146.842 180.362 146.781 180.661 145.892 180.492C145.004 180.324 145.042 180.102 144.153 179.933C143.265 179.765 143.249 179.818 142.361 179.65C141.472 179.481 141.396 179.872 140.499 179.696C139.611 179.527 139.603 179.558 138.707 179.389C137.818 179.221 137.918 178.677 137.029 178.508C136.133 178.34 136.072 178.684 135.175 178.516C134.279 178.347 133.957 178.822 133.352 178.148C132.739 177.459 133.176 177.198 133.092 176.279C133.008 175.36 132.954 175.368 132.87 174.448C132.785 173.529 132.862 173.521 132.778 172.602C132.694 171.683 133.115 171.645 133.031 170.725C132.946 169.806 132.709 169.829 132.632 168.91C132.548 167.991 132.349 168.006 132.265 167.087C132.18 166.168 132.027 166.183 131.943 165.264C131.859 164.344 132.295 164.306 132.211 163.387C132.127 162.468 131.813 162.498 131.728 161.579C131.644 160.66 132.111 160.614 132.027 159.695C131.943 158.775 131.675 158.798 131.59 157.879C131.506 156.96 131.391 156.968 131.307 156.048C131.223 155.129 131.23 155.129 131.146 154.21C131.062 153.291 131.047 153.291 130.962 152.371C130.878 151.452 130.801 151.46 130.725 150.541C130.641 149.621 130.74 149.614 130.656 148.687C130.572 147.767 130.832 147.745 130.748 146.825C130.664 145.906 130.664 145.906 130.579 144.987C130.495 144.068 130.143 144.098 130.058 143.179C129.974 142.26 130.296 142.229 130.212 141.31C130.127 140.391 130.097 140.391 130.012 139.471C129.928 138.552 129.913 138.552 129.829 137.633C129.744 136.714 129.737 136.714 129.652 135.794C129.568 134.875 129.193 134.906 129.109 133.987C129.024 133.067 129.407 133.029 129.323 132.11C129.239 131.191 129.185 131.198 129.101 130.271C129.017 129.352 129.177 129.337 129.093 128.418C129.009 127.498 128.672 127.529 128.595 126.61C128.511 125.691 128.634 125.683 128.549 124.764C128.465 123.844 128.58 123.837 128.503 122.917C128.419 121.998 128.565 121.983 128.48 121.064C128.396 120.144 128.113 120.167 128.036 119.248C127.952 118.329 127.776 118.344 127.699 117.425C127.615 116.506 127.822 116.49 127.737 115.564C127.653 114.644 127.607 114.644 127.523 113.725C127.439 112.806 127.362 112.814 127.278 111.887C127.193 110.967 127.53 110.937 127.446 110.018C127.362 109.098 127.347 109.098 127.27 108.179C127.186 107.26 127.178 107.26 127.102 106.341C127.017 105.421 127.094 105.414 127.01 104.487C126.925 103.568 126.512 103.606 126.427 102.679C126.343 101.76 126.588 101.737 126.504 100.81C126.42 99.8906 126.397 99.8906 126.312 98.9714C126.228 98.0521 126.305 98.0445 126.228 97.1252C126.144 96.206 125.807 96.2366 125.723 95.3097C125.638 94.3905 125.983 94.3599 125.899 93.433C125.815 92.5137 125.523 92.5367 125.439 91.6175C125.355 90.6982 125.692 90.6676 125.615 89.7407C125.531 88.8138 125.493 88.8215 125.409 87.8946C125.324 86.9677 125.73 86.7302 125.117 86.0331C124.566 85.405 124.237 86.1174 123.409 85.9948C122.582 85.8799 122.62 85.5658 121.793 85.4433C120.966 85.3284 120.966 85.3284 120.131 85.2058C119.303 85.0909 119.257 85.3743 118.43 85.2594C117.603 85.1445 117.388 84.2866 116.814 84.8994C116.186 85.5735 116.691 85.811 116.768 86.7379C116.852 87.6571 116.737 87.6724 116.814 88.5916C116.898 89.5109 117.158 89.4879 117.243 90.4148C117.327 91.334 117.089 91.357 117.174 92.2763C117.258 93.1955 117.45 93.1802 117.534 94.0994C117.618 95.0186 117.863 94.9957 117.947 95.9226C118.032 96.8418 118.101 96.8418 118.185 97.761C118.269 98.6879 118.162 98.6956 118.246 99.6148C118.33 100.534 118.476 100.526 118.56 101.446C118.645 102.365 118.185 102.411 118.269 103.33C118.353 104.249 118.79 104.211 118.874 105.138C118.959 106.057 118.553 106.095 118.629 107.022C118.713 107.942 119.02 107.919 119.104 108.838C119.188 109.757 119.211 109.757 119.296 110.684C119.38 111.611 119.051 111.634 119.135 112.561C119.219 113.488 119.426 113.465 119.51 114.392C119.594 115.311 119.663 115.311 119.748 116.23C119.832 117.149 119.48 117.188 119.564 118.107C119.648 119.026 119.694 119.026 119.778 119.945C119.863 120.865 120.138 120.842 120.223 121.768C120.307 122.695 120.031 122.718 120.115 123.638C120.2 124.564 120.33 124.549 120.414 125.476C120.498 126.395 120.307 126.418 120.383 127.337C120.468 128.257 120.743 128.234 120.828 129.161C120.912 130.088 120.705 130.103 120.782 131.03C120.866 131.957 120.989 131.941 121.073 132.868C121.157 133.795 121.126 133.795 121.211 134.714C121.295 135.641 121.555 135.611 121.64 136.538C121.724 137.464 121.364 137.495 121.448 138.414C121.532 139.341 121.701 139.326 121.778 140.245C121.862 141.172 122.168 141.141 122.253 142.061C122.337 142.987 121.938 143.018 122.023 143.945C122.107 144.872 122.475 144.834 122.559 145.761C122.643 146.68 122.62 146.687 122.704 147.607C122.789 148.526 122.39 148.564 122.475 149.483C122.559 150.403 122.406 150.418 122.49 151.345C122.574 152.272 122.689 152.256 122.773 153.183C122.858 154.11 122.827 154.11 122.911 155.029C122.996 155.949 123.111 155.941 123.195 156.86C123.279 157.787 123.639 157.749 123.723 158.676C123.808 159.603 123.432 159.633 123.516 160.56C123.601 161.487 123.471 161.495 123.555 162.422C123.639 163.349 124.037 163.31 124.122 164.237C124.206 165.164 124.206 165.164 124.29 166.083C124.374 167.01 124.466 167.003 124.551 167.922C124.635 168.849 124.229 168.879 124.313 169.806C124.397 170.733 124.428 170.725 124.512 171.652C124.597 172.579 124.551 172.579 124.635 173.506C124.719 174.425 124.742 174.425 124.826 175.352C124.911 176.279 124.987 176.272 125.072 177.191C125.156 178.118 125.049 178.125 125.133 179.052C125.217 179.979 125.462 179.956 125.546 180.883C125.631 181.81 125.255 181.841 125.34 182.767C125.424 183.694 125.577 183.679 125.661 184.606C125.746 185.533 125.424 185.678 126.029 186.383C126.581 187.019 126.757 186.751 127.584 186.881C128.419 187.019 128.465 186.72 129.3 186.858C130.135 186.996 130.127 187.034 130.955 187.172C131.79 187.31 131.805 187.226 132.632 187.364C133.467 187.502 133.452 187.578 134.287 187.708C134.295 187.708 134.272 187.747 134.279 187.747C135.183 187.915 135.214 187.777 136.118 187.946C137.022 188.122 137.022 188.137 137.926 188.314C138.829 188.49 138.829 188.49 139.741 188.658C140.645 188.834 140.591 189.141 141.495 189.309C142.399 189.486 142.445 189.248 143.357 189.424C144.261 189.6 144.199 189.945 145.103 190.114C146.007 190.29 146.068 189.953 146.98 190.129C147.884 190.305 147.915 190.144 148.818 190.321C149.722 190.497 149.715 190.55 150.619 190.727C151.523 190.903 151.538 190.826 152.449 191.002C153.353 191.178 153.277 191.615 154.181 191.784C155.085 191.96 155.077 192.021 155.981 192.197C156.885 192.373 156.892 192.343 157.796 192.519C158.7 192.695 158.792 192.22 159.704 192.396C160.608 192.573 160.592 192.665 161.496 192.833C162.408 193.009 162.362 193.231 163.266 193.408C164.17 193.584 164.162 193.637 165.066 193.814C165.978 193.99 165.985 193.944 166.889 194.12C167.793 194.296 167.778 194.403 168.682 194.58C169.593 194.756 169.662 194.388 170.566 194.564C171.478 194.741 171.416 195.039 172.328 195.208C173.232 195.384 173.217 195.476 174.12 195.644C175.024 195.821 175.032 195.813 175.936 195.989C176.848 196.165 176.893 195.905 177.805 196.073C178.717 196.25 178.747 196.05 179.659 196.227C180.57 196.403 180.57 196.395 181.474 196.571C182.386 196.748 182.348 196.924 183.259 197.092C184.171 197.261 184.155 197.345 185.067 197.521C185.688 197.644 186.369 197.881 186.959 197.759C187.564 197.636 188.07 197.092 188.568 196.748C189.073 196.403 189.426 195.92 189.77 195.399C190.1 194.901 190.636 194.426 190.759 193.806L190.376 193.729C190.498 193.109 190.736 192.504 190.613 191.922C190.491 191.316 189.985 190.88 189.64 190.374C189.296 189.869 189.196 189.064 188.683 188.72C188.208 188.405 187.518 188.183 186.89 188.061Z" fill="#29302C"/>
<path d="M186.89 188.061C186.002 187.892 185.917 188.314 185.029 188.145C184.14 187.976 184.224 187.517 183.336 187.348C182.447 187.18 182.44 187.21 181.551 187.034C180.662 186.866 180.563 187.371 179.674 187.203C178.786 187.034 178.809 186.896 177.92 186.728C177.031 186.559 177.008 186.659 176.12 186.483C175.231 186.314 175.231 186.299 174.343 186.123C173.454 185.954 173.485 185.786 172.596 185.617C171.707 185.449 171.669 185.64 170.781 185.472C169.892 185.303 169.984 184.843 169.095 184.667C168.207 184.499 168.138 184.874 167.249 184.706C166.361 184.537 166.391 184.345 165.503 184.177C164.614 184.008 164.583 184.146 163.695 183.978C162.806 183.809 162.845 183.618 161.948 183.449C161.06 183.281 161.037 183.373 160.148 183.204C159.259 183.036 159.214 183.281 158.317 183.112C157.429 182.944 157.49 182.599 156.601 182.43C155.713 182.262 155.751 182.047 154.862 181.879C153.974 181.71 153.92 181.971 153.032 181.795C152.143 181.626 152.12 181.741 151.224 181.572C150.335 181.404 150.335 181.389 149.447 181.22C148.558 181.052 148.619 180.699 147.731 180.531C146.842 180.362 146.781 180.661 145.892 180.492C145.004 180.324 145.042 180.102 144.153 179.933C143.265 179.765 143.249 179.818 142.361 179.65C141.472 179.481 141.396 179.872 140.499 179.696C139.611 179.527 139.603 179.558 138.707 179.389C137.818 179.221 137.918 178.677 137.029 178.508C136.133 178.34 136.072 178.684 135.175 178.516C134.279 178.347 133.957 178.822 133.352 178.148C132.739 177.459 133.176 177.198 133.092 176.279C133.008 175.36 132.954 175.368 132.87 174.448C132.785 173.529 132.862 173.521 132.778 172.602C132.694 171.683 133.115 171.645 133.031 170.725C132.946 169.806 132.709 169.829 132.632 168.91C132.548 167.991 132.349 168.006 132.265 167.087C132.18 166.168 132.027 166.183 131.943 165.264C131.859 164.344 132.295 164.306 132.211 163.387C132.127 162.468 131.813 162.498 131.728 161.579C131.644 160.66 132.111 160.614 132.027 159.695C131.943 158.775 131.675 158.798 131.59 157.879C131.506 156.96 131.391 156.968 131.307 156.048C131.223 155.129 131.23 155.129 131.146 154.21C131.062 153.291 131.047 153.291 130.962 152.371C130.878 151.452 130.801 151.46 130.725 150.541C130.641 149.621 130.74 149.614 130.656 148.687C130.572 147.767 130.832 147.745 130.748 146.825C130.664 145.906 130.664 145.906 130.579 144.987C130.495 144.068 130.143 144.098 130.058 143.179C129.974 142.26 130.296 142.229 130.212 141.31C130.127 140.391 130.097 140.391 130.012 139.471C129.928 138.552 129.913 138.552 129.829 137.633C129.744 136.714 129.737 136.714 129.652 135.794C129.568 134.875 129.193 134.906 129.109 133.987C129.024 133.067 129.407 133.029 129.323 132.11C129.239 131.191 129.185 131.198 129.101 130.271C129.017 129.352 129.177 129.337 129.093 128.418C129.009 127.498 128.672 127.529 128.595 126.61C128.511 125.691 128.634 125.683 128.549 124.764C128.465 123.844 128.58 123.837 128.503 122.917C128.419 121.998 128.565 121.983 128.48 121.064C128.396 120.144 128.113 120.167 128.036 119.248C127.952 118.329 127.776 118.344 127.699 117.425C127.615 116.506 127.822 116.49 127.737 115.564C127.653 114.644 127.607 114.644 127.523 113.725C127.439 112.806 127.362 112.814 127.278 111.887C127.193 110.967 127.53 110.937 127.446 110.018C127.362 109.098 127.347 109.098 127.27 108.179C127.186 107.26 127.178 107.26 127.102 106.341C127.017 105.421 127.094 105.414 127.01 104.487C126.925 103.568 126.512 103.606 126.427 102.679C126.343 101.76 126.588 101.737 126.504 100.81C126.42 99.8906 126.397 99.8906 126.312 98.9714C126.228 98.0521 126.305 98.0445 126.228 97.1252C126.144 96.206 125.807 96.2366 125.723 95.3097C125.638 94.3905 125.983 94.3599 125.899 93.433C125.815 92.5137 125.523 92.5367 125.439 91.6175C125.355 90.6982 125.692 90.6676 125.615 89.7407C125.531 88.8138 125.493 88.8215 125.409 87.8946C125.324 86.9677 125.73 86.7302 125.117 86.0331C124.566 85.405 124.237 86.1174 123.409 85.9948C122.582 85.8799 122.62 85.5658 121.793 85.4433C120.966 85.3284 120.966 85.3284 120.131 85.2058C119.303 85.0909 119.257 85.3743 118.43 85.2594C117.603 85.1445 117.388 84.2866 116.814 84.8994C116.186 85.5735 116.691 85.811 116.768 86.7379C116.852 87.6571 116.737 87.6724 116.814 88.5916C116.898 89.5109 117.158 89.4879 117.243 90.4148C117.327 91.334 117.089 91.357 117.174 92.2763C117.258 93.1955 117.45 93.1802 117.534 94.0994C117.618 95.0186 117.863 94.9957 117.947 95.9226C118.032 96.8418 118.101 96.8418 118.185 97.761C118.269 98.6879 118.162 98.6956 118.246 99.6148C118.33 100.534 118.476 100.526 118.56 101.446C118.645 102.365 118.185 102.411 118.269 103.33C118.353 104.249 118.79 104.211 118.874 105.138C118.959 106.057 118.553 106.095 118.629 107.022C118.713 107.942 119.02 107.919 119.104 108.838C119.188 109.757 119.211 109.757 119.296 110.684C119.38 111.611 119.051 111.634 119.135 112.561C119.219 113.488 119.426 113.465 119.51 114.392C119.594 115.311 119.663 115.311 119.748 116.23C119.832 117.149 119.48 117.188 119.564 118.107C119.648 119.026 119.694 119.026 119.778 119.945C119.863 120.865 120.138 120.842 120.223 121.768C120.307 122.695 120.031 122.718 120.115 123.638C120.2 124.564 120.33 124.549 120.414 125.476C120.498 126.395 120.307 126.418 120.383 127.337C120.468 128.257 120.743 128.234 120.828 129.161C120.912 130.088 120.705 130.103 120.782 131.03C120.866 131.957 120.989 131.941 121.073 132.868C121.157 133.795 121.126 133.795 121.211 134.714C121.295 135.641 121.555 135.611 121.64 136.538C121.724 137.464 121.364 137.495 121.448 138.414C121.532 139.341 121.701 139.326 121.778 140.245C121.862 141.172 122.168 141.141 122.253 142.061C122.337 142.987 121.938 143.018 122.023 143.945C122.107 144.872 122.475 144.834 122.559 145.761C122.643 146.68 122.62 146.687 122.704 147.607C122.789 148.526 122.39 148.564 122.475 149.483C122.559 150.403 122.406 150.418 122.49 151.345C122.574 152.272 122.689 152.256 122.773 153.183C122.858 154.11 122.827 154.11 122.911 155.029C122.996 155.949 123.111 155.941 123.195 156.86C123.279 157.787 123.639 157.749 123.723 158.676C123.808 159.603 123.432 159.633 123.516 160.56C123.601 161.487 123.471 161.495 123.555 162.422C123.639 163.349 124.037 163.31 124.122 164.237C124.206 165.164 124.206 165.164 124.29 166.083C124.374 167.01 124.466 167.003 124.551 167.922C124.635 168.849 124.229 168.879 124.313 169.806C124.397 170.733 124.428 170.725 124.512 171.652C124.597 172.579 124.551 172.579 124.635 173.506C124.719 174.425 124.742 174.425 124.826 175.352C124.911 176.279 124.987 176.272 125.072 177.191C125.156 178.118 125.049 178.125 125.133 179.052C125.217 179.979 125.462 179.956 125.546 180.883C125.631 181.81 125.255 181.841 125.34 182.767C125.424 183.694 125.577 183.679 125.661 184.606C125.746 185.533 125.424 185.678 126.029 186.383C126.581 187.019 126.757 186.751 127.584 186.881C128.419 187.019 128.465 186.72 129.3 186.858C130.135 186.996 130.127 187.034 130.955 187.172C131.79 187.31 131.805 187.226 132.632 187.364C133.467 187.502 133.452 187.578 134.287 187.708C134.295 187.708 134.272 187.747 134.279 187.747C135.183 187.915 135.214 187.777 136.118 187.946C137.022 188.122 137.022 188.137 137.926 188.314C138.829 188.49 138.829 188.49 139.741 188.658C140.645 188.834 140.591 189.141 141.495 189.309C142.399 189.486 142.445 189.248 143.357 189.424C144.261 189.6 144.199 189.945 145.103 190.114C146.007 190.29 146.068 189.953 146.98 190.129C147.884 190.305 147.915 190.144 148.818 190.321C149.722 190.497 149.715 190.55 150.619 190.727C151.523 190.903 151.538 190.826 152.449 191.002C153.353 191.178 153.277 191.615 154.181 191.784C155.085 191.96 155.077 192.021 155.981 192.197C156.885 192.373 156.892 192.343 157.796 192.519C158.7 192.695 158.792 192.22 159.704 192.396C160.608 192.573 160.592 192.665 161.496 192.833C162.408 193.009 162.362 193.231 163.266 193.408C164.17 193.584 164.162 193.637 165.066 193.814C165.978 193.99 165.985 193.944 166.889 194.12C167.793 194.296 167.778 194.403 168.682 194.58C169.593 194.756 169.662 194.388 170.566 194.564C171.478 194.741 171.416 195.039 172.328 195.208C173.232 195.384 173.217 195.476 174.12 195.644C175.024 195.821 175.032 195.813 175.936 195.989C176.848 196.165 176.893 195.905 177.805 196.073C178.717 196.25 178.747 196.05 179.659 196.227C180.57 196.403 180.57 196.395 181.474 196.571C182.386 196.748 182.348 196.924 183.259 197.092C184.171 197.261 184.155 197.345 185.067 197.521C185.688 197.644 186.369 197.881 186.959 197.759C187.564 197.636 188.07 197.092 188.568 196.748C189.073 196.403 189.426 195.92 189.77 195.399C190.1 194.901 190.636 194.426 190.759 193.806L190.376 193.729C190.498 193.109 190.736 192.504 190.613 191.922C190.491 191.316 189.985 190.88 189.64 190.374C189.296 189.869 189.196 189.064 188.683 188.72C188.208 188.405 187.518 188.183 186.89 188.061Z" stroke="#161B18" stroke-miterlimit="10" stroke-linecap="round" stroke-linejoin="round"/>
</svg>
