<svg width="41" height="80" viewBox="0 0 41 80" fill="none" xmlns="http://www.w3.org/2000/svg">
<path d="M39.9853 78.9379C39.4394 79.4838 39.1209 78.9314 38.3475 78.9314C37.574 78.9314 37.574 78.9899 36.7941 78.9899C36.0206 78.9899 36.0206 79.0419 35.2407 79.0419C34.4673 79.0419 34.4673 79.0484 33.6938 79.0484C32.9204 79.0484 32.9204 78.6649 32.147 78.6649C31.3735 78.6649 31.3735 78.6649 30.6001 78.6649C29.8266 78.6649 29.8266 79.0224 29.0467 79.0224C28.2733 79.0224 28.2733 78.7559 27.4998 78.7559C26.7264 78.7559 26.7264 78.9509 25.9529 78.9509C25.1795 78.9509 25.1795 78.9314 24.4061 78.9314C23.6326 78.9314 23.6326 78.7754 22.8527 78.7754C22.0792 78.7754 22.0792 78.8274 21.3058 78.8274C20.5324 78.8274 20.5324 78.8209 19.7524 78.8209C18.979 78.8209 18.979 78.6259 18.1991 78.6259C17.4256 78.6259 17.4256 78.6519 16.6457 78.6519C15.8722 78.6519 15.8722 78.6779 15.0923 78.6779C14.3189 78.6779 14.3189 78.6584 13.5389 78.6584C12.7655 78.6584 12.7655 78.9639 11.9855 78.9639C11.2121 78.9639 11.2121 78.5934 10.4387 78.5934C9.66523 78.5934 9.66523 78.8859 8.88529 78.8859C8.11185 78.8859 8.11185 78.8469 7.33191 78.8469C6.55198 78.8469 6.55198 78.7494 5.77854 78.7494C4.9986 78.7494 4.9986 78.6519 4.22516 78.6519C3.44522 78.6519 3.44522 78.7104 2.67178 78.7104C1.89835 78.7104 1.70986 79.3474 1.1574 78.8014C0.611446 78.2555 1.1704 78.067 1.1704 77.2935C1.1704 76.5201 1.04691 76.5201 1.04691 75.7401C1.04691 74.9667 1.11191 74.9667 1.11191 74.1868C1.11191 73.4133 1.13791 73.4133 1.13791 72.6399C1.13791 71.8664 1.2159 71.8665 1.2159 71.093C1.2159 70.3196 1.05991 70.3196 1.05991 69.5461C1.05991 68.7727 0.942919 68.7727 0.942919 67.9928C0.942919 67.2193 1.34589 67.2193 1.34589 66.4459C1.34589 65.6724 1.37838 65.6724 1.37838 64.899C1.37838 64.1256 1.05341 64.1256 1.05341 63.3521C1.05341 62.5787 0.981914 62.5787 0.981914 61.7987C0.981914 61.0253 0.929927 61.0253 0.929927 60.2519C0.929927 59.4784 1.2549 59.4784 1.2549 58.6985C1.2549 57.9251 1.34589 57.9251 1.34589 57.1451C1.34589 56.3717 1.13791 56.3717 1.13791 55.5917C1.13791 54.8183 0.910419 54.8183 0.910419 54.0384C0.910419 53.2649 0.98842 53.2649 0.98842 52.485C0.98842 51.7115 0.897427 51.7115 0.897427 50.9316C0.897427 50.1582 1.13791 50.1582 1.13791 49.3847C1.13791 48.6113 0.936423 48.6113 0.936423 47.8313C0.936423 47.0579 0.87793 47.0579 0.87793 46.278C0.87793 45.498 1.2029 45.498 1.2029 44.7246C1.2029 43.9447 1.07291 43.9447 1.07291 43.1712C1.07291 42.3913 1.36539 42.3913 1.36539 41.6178C1.36539 40.8444 0.52695 40.5779 1.07291 40.0255C1.61886 39.4795 1.88534 40.175 2.65878 40.175C3.43222 40.175 3.43222 39.9995 4.21216 39.9995C4.9856 39.9995 4.9856 39.915 5.76554 39.915C6.53897 39.915 6.53898 40.292 7.31242 40.292C8.08586 40.292 8.08586 39.876 8.8593 39.876C9.63274 39.876 9.63273 39.9735 10.4062 39.9735C11.1796 39.9735 11.1796 40.2854 11.9595 40.2854C12.733 40.2854 12.733 40.0385 13.5064 40.0385C14.2799 40.0385 14.2799 40.0645 15.0533 40.0645C15.8267 40.0645 15.8267 39.8825 16.6002 39.8825C17.3736 39.8825 17.3736 39.98 18.1536 39.98C18.927 39.98 18.927 40.2595 19.7004 40.2595C20.4739 40.2595 20.4739 40.019 21.2538 40.019C22.0272 40.019 22.0272 40.1815 22.8072 40.1815C23.5806 40.1815 23.5806 39.902 24.3606 39.902C25.134 39.902 25.134 39.9475 25.9139 39.9475C26.6874 39.9475 26.6874 39.8435 27.4673 39.8435C28.2408 39.8435 28.2408 39.863 29.0207 39.863C29.7941 39.863 29.7941 39.8045 30.5676 39.8045C31.341 39.8045 31.341 39.837 32.121 39.837C32.8944 39.837 32.8944 40.1555 33.6743 40.1555C34.4543 40.1555 34.4543 40.227 35.2277 40.227C36.0076 40.227 36.0076 40.149 36.7811 40.149C37.561 40.149 37.561 39.863 38.3345 39.863C39.1144 39.863 39.4654 39.382 40.0178 39.9345C40.5638 40.4804 39.8228 40.8314 39.8228 41.6113C39.8228 42.3848 39.8423 42.3848 39.8423 43.1647C39.8423 43.9382 40.1478 43.9382 40.1478 44.7181C40.1478 45.4915 40.1478 45.4915 40.1478 46.265C40.1478 47.0384 40.0893 47.0384 40.0893 47.8119C40.0893 48.5853 39.6669 48.5853 39.6669 49.3587C39.6669 50.1322 40.0828 50.1322 40.0828 50.9121C40.0828 51.6855 39.8553 51.6855 39.8553 52.459C39.8553 53.2324 40.1023 53.2324 40.1023 54.0059C40.1023 54.7793 40.1088 54.7793 40.1088 55.5527C40.1088 56.3262 39.6799 56.3262 39.6799 57.1061C39.6799 57.8796 39.8033 57.8796 39.8033 58.653C39.8033 59.4264 40.1283 59.4264 40.1283 60.2064C40.1283 60.9798 39.7448 60.9798 39.7448 61.7598C39.7448 62.5332 39.7644 62.5332 39.7644 63.3131C39.7644 64.0866 39.7448 64.0866 39.7448 64.8665C39.7448 65.6399 40.1023 65.6399 40.1023 66.4199C40.1023 67.1933 39.9788 67.1933 39.9788 67.9733C39.9788 68.7467 40.1283 68.7467 40.1283 69.5201C40.1283 70.2936 39.7319 70.2936 39.7319 71.0735C39.7319 71.847 39.9853 71.847 39.9853 72.6269C39.9853 73.4068 40.1153 73.4068 40.1153 74.1803C40.1153 74.9602 39.6669 74.9602 39.6669 75.7336C39.6669 76.5136 39.6344 76.5526 39.8163 77.3065C40.0178 78.171 40.5378 78.3919 39.9853 78.9379Z" stroke="#40EC80" stroke-miterlimit="10" stroke-linecap="round" stroke-linejoin="round"/>
<path d="M39.9203 40.097C39.3744 40.6429 39.1209 39.824 38.3475 39.824C37.574 39.824 37.574 39.8955 36.7941 39.8955C36.0207 39.8955 36.0207 39.915 35.2407 39.915C34.4673 39.915 34.4673 40.058 33.6938 40.058C32.9204 40.058 32.9204 40.3309 32.147 40.3309C31.3735 40.3309 31.3735 40.2594 30.6001 40.2594C29.8266 40.2594 29.8266 39.9345 29.0467 39.9345C28.2733 39.9345 28.2733 39.8825 27.4998 39.8825C26.7264 39.8825 26.7264 40.3179 25.953 40.3179C25.1795 40.3179 25.1795 40.1555 24.4061 40.1555C23.6326 40.1555 23.6326 40.097 22.8527 40.097C22.0793 40.097 22.0793 40.2205 21.3058 40.2205C20.5324 40.2205 20.5324 40.084 19.7524 40.084C18.979 40.084 18.979 39.941 18.1991 39.941C17.4256 39.941 17.4256 39.928 16.6457 39.928C15.8722 39.928 15.8722 39.9865 15.0923 39.9865C14.3189 39.9865 14.3189 39.902 13.5389 39.902C12.7655 39.902 12.7655 40.2659 11.9856 40.2659C11.2121 40.2659 11.2121 39.9345 10.4387 39.9345C9.66524 39.9345 9.66524 39.8955 8.8853 39.8955C8.11186 39.8955 8.11186 39.915 7.33192 39.915C6.55198 39.915 6.55198 40.188 5.77854 40.188C4.99861 40.188 4.99861 40.032 4.22517 40.032C3.44523 40.032 3.44523 39.941 2.67179 39.941C1.89835 39.941 1.59288 40.6949 1.04692 40.1424C0.500963 39.5965 1.09242 39.2975 1.09242 38.5241C1.09242 37.7506 1.04692 37.7506 1.04692 36.9707C1.04692 36.1973 0.897434 36.1973 0.897434 35.4173C0.897434 34.6439 1.14441 34.6439 1.14441 33.8704C1.14441 33.097 1.2939 33.097 1.2939 32.3236C1.2939 31.5501 0.962423 31.5501 0.962423 30.7767C0.962423 30.0033 1.10541 30.0033 1.10541 29.2233C1.10541 28.4499 1.20941 28.4499 1.20941 27.6764C1.20941 26.903 1.2159 26.903 1.2159 26.1296C1.2159 25.3561 1.37189 25.3561 1.37189 24.5827C1.37189 23.8092 1.2484 23.8092 1.2484 23.0293C1.2484 22.2559 1.00792 22.2559 1.00792 21.4824C1.00792 20.709 1.20941 20.709 1.20941 19.9291C1.20941 19.1556 1.2939 19.1556 1.2939 18.3757C1.2939 17.6022 1.11841 17.6022 1.11841 16.8223C1.11841 16.0489 0.871431 16.0489 0.871431 15.2689C0.871431 14.4955 1.15741 14.4955 1.15741 13.7155C1.15741 12.9421 1.08592 12.9421 1.08592 12.1622C1.08592 11.3887 0.910426 11.3887 0.910426 10.6153C0.910426 9.84185 1.3199 9.84185 1.3199 9.06191C1.3199 8.28847 1.02093 8.28847 1.02093 7.50853C1.02093 6.72859 0.890929 6.72859 0.890929 5.95515C0.890929 5.17522 1.11841 5.17522 1.11841 4.40178C1.11841 3.62184 0.962423 3.62184 0.962423 2.8484C0.962423 2.07496 0.461964 1.73049 1.01442 1.17803C1.56038 0.632077 1.89835 1.51601 2.67829 1.51601C3.45173 1.51601 3.45173 1.49651 4.23166 1.49651C5.0051 1.49651 5.0051 1.04805 5.78504 1.04805C6.55848 1.04805 6.55848 1.26903 7.33192 1.26903C8.10536 1.26903 8.10536 1.18453 8.8788 1.18453C9.65224 1.18453 9.65224 1.38602 10.4257 1.38602C11.1991 1.38602 11.1991 1.05454 11.9791 1.05454C12.7525 1.05454 12.7525 1.52251 13.5259 1.52251C14.2994 1.52251 14.2994 1.52901 15.0728 1.52901C15.8463 1.52901 15.8463 1.31452 16.6197 1.31452C17.3931 1.31452 17.3931 1.18453 18.1731 1.18453C18.9465 1.18453 18.9465 1.542 19.7199 1.542C20.4934 1.542 20.4934 1.49651 21.2733 1.49651C22.0468 1.49651 22.0468 1.24953 22.8267 1.24953C23.6001 1.24953 23.6001 1.16504 24.3801 1.16504C25.1535 1.16504 25.1535 1.24303 25.9334 1.24303C26.7069 1.24303 26.7069 1.23003 27.4868 1.23003C28.2603 1.23003 28.2603 1.53551 29.0402 1.53551C29.8137 1.53551 29.8136 1.27553 30.5871 1.27553C31.3605 1.27553 31.3605 1.34702 32.1405 1.34702C32.9139 1.34702 32.9139 1.22353 33.6938 1.22353C34.4738 1.22353 34.4738 1.23003 35.2472 1.23003C36.0271 1.23003 36.0271 1.11304 36.8006 1.11304C37.5805 1.11304 37.5805 1.47701 38.354 1.47701C39.1274 1.47701 39.2444 0.859558 39.7969 1.40551C40.3428 1.95147 40.0503 2.06846 40.0503 2.8419C40.0503 3.61534 40.0893 3.61534 40.0893 4.39528C40.0893 5.16872 39.9398 5.16872 39.9398 5.94866C39.9398 6.7221 40.1283 6.7221 40.1283 7.49553C40.1283 8.26897 39.7189 8.26897 39.7189 9.04241C39.7189 9.81585 40.0048 9.81585 40.0048 10.5893C40.0048 11.3627 40.1673 11.3627 40.1673 12.1427C40.1673 12.9161 39.7969 12.9161 39.7969 13.6895C39.7969 14.463 39.9398 14.463 39.9398 15.2364C39.9398 16.0099 40.1153 16.0099 40.1153 16.7833C40.1153 17.5567 39.8163 17.5567 39.8163 18.3367C39.8163 19.1101 39.9463 19.1101 39.9463 19.8836C39.9463 20.657 39.6929 20.657 39.6929 21.4369C39.6929 22.2104 40.0178 22.2104 40.0178 22.9903C40.0178 23.7637 39.9788 23.7638 39.9788 24.5437C39.9788 25.3171 39.8749 25.3171 39.8749 26.0971C39.8749 26.8705 40.1088 26.8705 40.1088 27.6504C40.1088 28.4239 39.8878 28.4239 39.8878 29.2038C39.8878 29.9773 39.7579 29.9773 39.7579 30.7507C39.7579 31.5241 40.0828 31.5241 40.0828 32.3041C40.0828 33.0775 40.0633 33.0775 40.0633 33.8574C40.0633 34.6374 39.7709 34.6374 39.7709 35.4108C39.7709 36.1908 39.8944 36.1908 39.8944 36.9642C39.8944 37.7441 39.7579 37.7636 39.9268 38.5241C40.0763 39.343 40.4663 39.5445 39.9203 40.097Z" fill="#40EC80"/>
<path d="M39.9203 40.097C39.3744 40.6429 39.1209 39.824 38.3475 39.824C37.574 39.824 37.574 39.8955 36.7941 39.8955C36.0207 39.8955 36.0207 39.915 35.2407 39.915C34.4673 39.915 34.4673 40.058 33.6938 40.058C32.9204 40.058 32.9204 40.3309 32.147 40.3309C31.3735 40.3309 31.3735 40.2594 30.6001 40.2594C29.8266 40.2594 29.8266 39.9345 29.0467 39.9345C28.2733 39.9345 28.2733 39.8825 27.4998 39.8825C26.7264 39.8825 26.7264 40.3179 25.953 40.3179C25.1795 40.3179 25.1795 40.1555 24.4061 40.1555C23.6326 40.1555 23.6326 40.097 22.8527 40.097C22.0793 40.097 22.0793 40.2204 21.3058 40.2204C20.5324 40.2204 20.5324 40.084 19.7524 40.084C18.979 40.084 18.979 39.941 18.1991 39.941C17.4256 39.941 17.4256 39.928 16.6457 39.928C15.8722 39.928 15.8722 39.9865 15.0923 39.9865C14.3189 39.9865 14.3189 39.902 13.5389 39.902C12.7655 39.902 12.7655 40.2659 11.9856 40.2659C11.2121 40.2659 11.2121 39.9345 10.4387 39.9345C9.66524 39.9345 9.66524 39.8955 8.8853 39.8955C8.11186 39.8955 8.11186 39.915 7.33192 39.915C6.55198 39.915 6.55198 40.188 5.77854 40.188C4.99861 40.188 4.99861 40.032 4.22517 40.032C3.44523 40.032 3.44523 39.941 2.67179 39.941C1.89835 39.941 1.59288 40.6949 1.04692 40.1424C0.500963 39.5965 1.09242 39.2975 1.09242 38.5241C1.09242 37.7506 1.04692 37.7506 1.04692 36.9707C1.04692 36.1973 0.897434 36.1973 0.897434 35.4173C0.897434 34.6439 1.14441 34.6439 1.14441 33.8704C1.14441 33.097 1.2939 33.097 1.2939 32.3236C1.2939 31.5501 0.962423 31.5501 0.962423 30.7767C0.962423 30.0033 1.10541 30.0033 1.10541 29.2233C1.10541 28.4499 1.20941 28.4499 1.20941 27.6764C1.20941 26.903 1.2159 26.903 1.2159 26.1296C1.2159 25.3561 1.37189 25.3561 1.37189 24.5827C1.37189 23.8092 1.2484 23.8092 1.2484 23.0293C1.2484 22.2559 1.00792 22.2559 1.00792 21.4824C1.00792 20.709 1.20941 20.709 1.20941 19.929C1.20941 19.1556 1.2939 19.1556 1.2939 18.3757C1.2939 17.6022 1.11841 17.6022 1.11841 16.8223C1.11841 16.0489 0.871431 16.0489 0.871431 15.2689C0.871431 14.4955 1.15741 14.4955 1.15741 13.7155C1.15741 12.9421 1.08592 12.9421 1.08592 12.1622C1.08592 11.3887 0.910426 11.3887 0.910426 10.6153C0.910426 9.84185 1.3199 9.84185 1.3199 9.06191C1.3199 8.28847 1.02093 8.28847 1.02093 7.50853C1.02093 6.72859 0.890929 6.72859 0.890929 5.95515C0.890929 5.17522 1.11841 5.17522 1.11841 4.40178C1.11841 3.62184 0.962423 3.62184 0.962423 2.8484C0.962423 2.07496 0.461964 1.73049 1.01442 1.17803C1.56038 0.632077 1.89835 1.51601 2.67829 1.51601C3.45173 1.51601 3.45173 1.49651 4.23166 1.49651C5.0051 1.49651 5.0051 1.04805 5.78504 1.04805C6.55848 1.04805 6.55848 1.26903 7.33192 1.26903C8.10536 1.26903 8.10536 1.18453 8.8788 1.18453C9.65224 1.18453 9.65223 1.38602 10.4257 1.38602C11.1991 1.38602 11.1991 1.05454 11.9791 1.05454C12.7525 1.05454 12.7525 1.52251 13.5259 1.52251C14.2994 1.52251 14.2994 1.52901 15.0728 1.52901C15.8463 1.52901 15.8463 1.31452 16.6197 1.31452C17.3931 1.31452 17.3931 1.18453 18.1731 1.18453C18.9465 1.18453 18.9465 1.542 19.7199 1.542C20.4934 1.542 20.4934 1.49651 21.2733 1.49651C22.0468 1.49651 22.0468 1.24953 22.8267 1.24953C23.6001 1.24953 23.6001 1.16504 24.3801 1.16504C25.1535 1.16504 25.1535 1.24303 25.9334 1.24303C26.7069 1.24303 26.7069 1.23003 27.4868 1.23003C28.2603 1.23003 28.2603 1.53551 29.0402 1.53551C29.8136 1.53551 29.8136 1.27553 30.5871 1.27553C31.3605 1.27553 31.3605 1.34702 32.1405 1.34702C32.9139 1.34702 32.9139 1.22353 33.6938 1.22353C34.4738 1.22353 34.4738 1.23003 35.2472 1.23003C36.0272 1.23003 36.0272 1.11304 36.8006 1.11304C37.5805 1.11304 37.5805 1.47701 38.354 1.47701C39.1274 1.47701 39.2444 0.859558 39.7969 1.40551C40.3428 1.95147 40.0503 2.06846 40.0503 2.8419C40.0503 3.61534 40.0893 3.61534 40.0893 4.39528C40.0893 5.16872 39.9398 5.16872 39.9398 5.94866C39.9398 6.7221 40.1283 6.7221 40.1283 7.49553C40.1283 8.26897 39.7189 8.26897 39.7189 9.04241C39.7189 9.81585 40.0048 9.81585 40.0048 10.5893C40.0048 11.3627 40.1673 11.3627 40.1673 12.1427C40.1673 12.9161 39.7969 12.9161 39.7969 13.6895C39.7969 14.463 39.9398 14.463 39.9398 15.2364C39.9398 16.0099 40.1153 16.0099 40.1153 16.7833C40.1153 17.5567 39.8164 17.5567 39.8164 18.3367C39.8164 19.1101 39.9463 19.1101 39.9463 19.8836C39.9463 20.657 39.6929 20.657 39.6929 21.4369C39.6929 22.2104 40.0178 22.2104 40.0178 22.9903C40.0178 23.7637 39.9788 23.7637 39.9788 24.5437C39.9788 25.3171 39.8749 25.3171 39.8749 26.0971C39.8749 26.8705 40.1088 26.8705 40.1088 27.6504C40.1088 28.4239 39.8878 28.4239 39.8878 29.2038C39.8878 29.9773 39.7579 29.9773 39.7579 30.7507C39.7579 31.5241 40.0828 31.5241 40.0828 32.3041C40.0828 33.0775 40.0633 33.0775 40.0633 33.8574C40.0633 34.6374 39.7709 34.6374 39.7709 35.4108C39.7709 36.1908 39.8944 36.1908 39.8944 36.9642C39.8944 37.7441 39.7579 37.7636 39.9268 38.5241C40.0763 39.343 40.4663 39.5445 39.9203 40.097Z" stroke="#40EC80" stroke-miterlimit="10" stroke-linecap="round" stroke-linejoin="round"/>
</svg>
