<svg width="235" height="157" viewBox="0 0 235 157" fill="none" xmlns="http://www.w3.org/2000/svg">
<path d="M39.8678 156.02C39.3219 156.566 39.0229 155.747 38.2495 155.747C37.476 155.747 37.476 156.079 36.6961 156.079C35.9226 156.079 35.9227 156.027 35.1427 156.027C34.3693 156.027 34.3693 156.085 33.5958 156.085C32.8224 156.085 32.8224 155.975 32.049 155.975C31.2755 155.975 31.2755 155.689 30.5021 155.689C29.7286 155.689 29.7286 156.183 28.9487 156.183C28.1753 156.183 28.1753 155.89 27.4018 155.89C26.6284 155.89 26.6284 155.708 25.8549 155.708C25.0815 155.708 25.0815 155.877 24.3081 155.877C23.5346 155.877 23.5346 155.741 22.7547 155.741C21.9813 155.741 21.9813 156.183 21.2078 156.183C20.4344 156.183 20.4344 156.085 19.6544 156.085C18.881 156.085 18.881 156.066 18.101 156.066C17.3276 156.066 17.3276 155.786 16.5477 155.786C15.7742 155.786 15.7743 155.871 14.9943 155.871C14.2209 155.871 14.2209 155.916 13.4409 155.916C12.6675 155.916 12.6675 155.845 11.8875 155.845C11.1141 155.845 11.1141 155.994 10.3407 155.994C9.56722 155.994 9.56721 155.799 8.78728 155.799C8.01384 155.799 8.01387 155.975 7.23393 155.975C6.45399 155.975 6.45398 155.845 5.68054 155.845C4.9006 155.845 4.90059 155.994 4.12715 155.994C3.34722 155.994 3.34721 155.838 2.57377 155.838C1.79383 155.838 1.61187 156.449 1.05942 155.897C0.51346 155.351 1.2609 155.162 1.2609 154.389C1.2609 153.616 1.05942 153.616 1.05942 152.836C1.05942 152.062 0.987892 152.062 0.987892 151.282C0.987892 150.509 0.883918 150.509 0.883918 149.735C0.883918 148.962 1.13741 148.962 1.13741 148.189C1.13741 147.415 1.2154 147.415 1.2154 146.642C1.2154 145.868 0.994398 145.868 0.994398 145.088C0.994398 144.315 1.00741 144.315 1.00741 143.541C1.00741 142.768 0.838416 142.768 0.838416 141.994C0.838416 141.221 1.07239 141.221 1.07239 140.448C1.07239 139.674 0.955402 139.674 0.955402 138.894C0.955402 138.121 0.968414 138.121 0.968414 137.347C0.968414 136.574 1.23488 136.574 1.23488 135.794C1.23488 135.021 0.97492 135.021 0.97492 134.241C0.97492 133.467 1.02689 133.467 1.02689 132.687C1.02689 131.914 1.01392 131.914 1.01392 131.134C1.01392 130.36 0.844922 130.36 0.844922 129.58C0.844922 128.807 0.916407 128.807 0.916407 128.027C0.916407 127.254 1.02042 127.254 1.02042 126.48C1.02042 125.707 1.15688 125.707 1.15688 124.927C1.15688 124.153 0.773438 124.153 0.773438 123.373C0.773438 122.594 1.2609 122.594 1.2609 121.82C1.2609 121.04 1.03339 121.04 1.03339 120.267C1.03339 119.487 1.09191 119.487 1.09191 118.713C1.09191 117.933 0.604429 117.855 1.15688 117.309C1.70284 116.763 1.78085 117.283 2.55429 117.283C3.32773 117.283 3.32774 117.205 4.10768 117.205C4.88112 117.205 4.88109 117.121 5.66102 117.121C6.43446 117.121 6.43447 117.199 7.2079 117.199C7.98134 117.199 7.98135 117.238 8.75479 117.238C9.52822 117.238 9.52823 117.088 10.3017 117.088C11.0751 117.088 11.0751 117.374 11.8551 117.374C12.6285 117.374 12.6285 117.381 13.4019 117.381C14.1754 117.381 14.1754 117.394 14.9488 117.394C15.7223 117.394 15.7223 116.971 16.4957 116.971C17.2691 116.971 17.2691 117.368 18.049 117.368C18.8225 117.368 18.8225 117.277 19.5959 117.277C20.3694 117.277 20.3694 117.017 21.1493 117.017C21.9227 117.017 21.9228 116.945 22.7027 116.945C23.4761 116.945 23.4761 117.29 24.2561 117.29C25.0295 117.29 25.0295 117.004 25.8094 117.004C26.5829 117.004 26.5829 117.173 27.3628 117.173C28.1363 117.173 28.1363 117.186 28.9162 117.186C29.6896 117.186 29.6896 116.965 30.4631 116.965C31.2365 116.965 31.2365 117.186 32.0165 117.186C32.7899 117.186 32.7899 116.997 33.5698 116.997C34.3498 116.997 34.3498 117.342 35.1232 117.342C35.9031 117.342 35.9032 116.952 36.6766 116.952C37.4565 116.952 37.4565 117.121 38.23 117.121C39.0034 117.121 39.4064 116.439 39.9588 116.991C40.5048 117.537 39.6598 117.94 39.6598 118.713C39.6598 119.487 39.8223 119.487 39.8223 120.267C39.8223 121.04 39.6404 121.04 39.6404 121.82C39.6404 122.594 40.0303 122.594 40.0303 123.367C40.0303 124.14 39.7378 124.14 39.7378 124.914C39.7378 125.687 39.7183 125.687 39.7183 126.461C39.7183 127.234 39.8548 127.234 39.8548 128.014C39.8548 128.788 39.9718 128.788 39.9718 129.561C39.9718 130.334 39.5559 130.334 39.5559 131.108C39.5559 131.881 39.9718 131.881 39.9718 132.655C39.9718 133.428 39.6924 133.428 39.6924 134.208C39.6924 134.982 40.0108 134.982 40.0108 135.755C40.0108 136.528 39.6534 136.528 39.6534 137.308C39.6534 138.082 39.7508 138.082 39.7508 138.862C39.7508 139.635 39.9393 139.635 39.9393 140.415C39.9393 141.189 39.9913 141.189 39.9913 141.969C39.9913 142.742 39.9458 142.742 39.9458 143.522C39.9458 144.295 39.8353 144.295 39.8353 145.075C39.8353 145.849 39.7249 145.849 39.7249 146.622C39.7249 147.396 39.7963 147.396 39.7963 148.176C39.7963 148.949 39.6794 148.949 39.6794 149.729C39.6794 150.509 39.7053 150.509 39.7053 151.282C39.7053 152.062 39.7898 152.062 39.7898 152.836C39.7898 153.616 39.6274 153.629 39.8093 154.389C40.0108 155.234 40.4138 155.468 39.8678 156.02Z" stroke="#40EC80" stroke-miterlimit="10" stroke-linecap="round" stroke-linejoin="round"/>
<path d="M117.244 155.845C116.698 156.391 116.575 156.053 115.801 156.053C115.028 156.053 115.028 156.137 114.248 156.137C113.475 156.137 113.475 155.91 112.695 155.91C111.921 155.91 111.921 155.786 111.148 155.786C110.374 155.786 110.374 155.754 109.601 155.754C108.827 155.754 108.827 155.936 108.054 155.936C107.281 155.936 107.281 155.812 106.501 155.812C105.727 155.812 105.727 155.929 104.954 155.929C104.18 155.929 104.18 155.845 103.407 155.845C102.633 155.845 102.633 156.046 101.86 156.046C101.087 156.046 101.087 155.916 100.307 155.916C99.5332 155.916 99.5332 156.196 98.7598 156.196C97.9863 156.196 97.9863 155.851 97.2064 155.851C96.4329 155.851 96.4329 156.196 95.653 156.196C94.8796 156.196 94.8796 155.786 94.0996 155.786C93.3262 155.786 93.3262 155.871 92.5462 155.871C91.7728 155.871 91.7728 155.851 90.9929 155.851C90.2194 155.851 90.2194 155.968 89.4395 155.968C88.6661 155.968 88.6661 155.864 87.8926 155.864C87.1192 155.864 87.1192 155.819 86.3392 155.819C85.5658 155.819 85.5658 156.118 84.7859 156.118C84.0059 156.118 84.0059 155.988 83.2325 155.988C82.4526 155.988 82.4525 155.793 81.6791 155.793C80.8992 155.793 80.8992 156.001 80.1257 156.001C79.3458 156.001 79.2288 156.41 78.6763 155.864C78.1304 155.318 78.6698 155.195 78.6698 154.421C78.6698 153.648 78.4749 153.648 78.4749 152.868C78.4749 152.095 78.4294 152.095 78.4294 151.315C78.4294 150.541 78.3384 150.541 78.3384 149.768C78.3384 148.994 78.4879 148.994 78.4879 148.221C78.4879 147.447 78.6958 147.447 78.6958 146.674C78.6958 145.901 78.3579 145.901 78.3579 145.121C78.3579 144.347 78.5788 144.347 78.5788 143.574C78.5788 142.8 78.3189 142.8 78.3189 142.027C78.3189 141.254 78.6633 141.253 78.6633 140.48C78.6633 139.707 78.3579 139.707 78.3579 138.927C78.3579 138.153 78.3579 138.153 78.3579 137.38C78.3579 136.606 78.7998 136.606 78.7998 135.826C78.7998 135.053 78.4294 135.053 78.4294 134.273C78.4294 133.5 78.4229 133.5 78.4229 132.72C78.4229 131.946 78.7088 131.946 78.7088 131.166C78.7088 130.393 78.8323 130.393 78.8323 129.613C78.8323 128.839 78.4814 128.839 78.4814 128.06C78.4814 127.286 78.8258 127.286 78.8258 126.513C78.8258 125.739 78.8129 125.739 78.8129 124.959C78.8129 124.186 78.4684 124.186 78.4684 123.406C78.4684 122.626 78.8193 122.626 78.8193 121.853C78.8193 121.073 78.3514 121.073 78.3514 120.299C78.3514 119.519 78.5139 119.519 78.5139 118.746C78.5139 117.966 77.8899 117.602 78.4359 117.049C78.9818 116.503 79.3523 117.426 80.1257 117.426C80.8992 117.426 80.8992 117.27 81.6791 117.27C82.4525 117.27 82.4526 117.335 83.2325 117.335C84.0059 117.335 84.0059 117.426 84.7794 117.426C85.5528 117.426 85.5528 116.997 86.3263 116.997C87.0997 116.997 87.0997 117.335 87.8731 117.335C88.6466 117.335 88.6465 117.049 89.4265 117.049C90.1999 117.049 90.1999 116.978 90.9734 116.978C91.7468 116.978 91.7468 117.329 92.5202 117.329C93.2937 117.329 93.2937 117.03 94.0671 117.03C94.8406 117.03 94.8406 117.192 95.6205 117.192C96.3939 117.192 96.394 117.355 97.1674 117.355C97.9408 117.355 97.9408 117.088 98.7207 117.088C99.4942 117.088 99.4942 117.114 100.274 117.114C101.048 117.114 101.048 117.166 101.828 117.166C102.601 117.166 102.601 117.387 103.381 117.387C104.154 117.387 104.154 117.387 104.934 117.387C105.708 117.387 105.708 117.374 106.488 117.374C107.261 117.374 107.261 117.101 108.035 117.101C108.808 117.101 108.808 117.238 109.588 117.238C110.361 117.238 110.361 117.335 111.141 117.335C111.921 117.335 111.921 117.29 112.695 117.29C113.475 117.29 113.475 117.14 114.248 117.14C115.028 117.14 115.028 117.394 115.801 117.394C116.581 117.394 116.822 116.633 117.368 117.186C117.914 117.732 117.556 117.972 117.556 118.746C117.556 119.519 117.212 119.519 117.212 120.299C117.212 121.073 117.42 121.073 117.42 121.853C117.42 122.626 117.491 122.626 117.491 123.399C117.491 124.173 117.465 124.173 117.465 124.946C117.465 125.72 117.277 125.72 117.277 126.493C117.277 127.267 117.205 127.267 117.205 128.047C117.205 128.82 117.589 128.82 117.589 129.593C117.589 130.367 117.459 130.367 117.459 131.14C117.459 131.914 117.127 131.914 117.127 132.687C117.127 133.461 117.14 133.461 117.14 134.241C117.14 135.014 117.212 135.014 117.212 135.787C117.212 136.561 117.608 136.561 117.608 137.341C117.608 138.114 117.342 138.114 117.342 138.894C117.342 139.668 117.472 139.668 117.472 140.448C117.472 141.221 117.498 141.221 117.498 142.001C117.498 142.774 117.485 142.774 117.485 143.554C117.485 144.328 117.524 144.328 117.524 145.108C117.524 145.881 117.179 145.881 117.179 146.655C117.179 147.428 117.446 147.428 117.446 148.208C117.446 148.981 117.283 148.981 117.283 149.761C117.283 150.541 117.576 150.541 117.576 151.315C117.576 152.095 117.205 152.095 117.205 152.868C117.205 153.648 117.075 153.681 117.212 154.447C117.355 155.182 117.797 155.292 117.244 155.845Z" fill="#40EC80"/>
<path d="M117.244 155.845C116.698 156.391 116.575 156.053 115.801 156.053C115.028 156.053 115.028 156.137 114.248 156.137C113.475 156.137 113.475 155.91 112.695 155.91C111.921 155.91 111.921 155.786 111.148 155.786C110.374 155.786 110.374 155.754 109.601 155.754C108.827 155.754 108.827 155.936 108.054 155.936C107.281 155.936 107.281 155.812 106.501 155.812C105.727 155.812 105.727 155.929 104.954 155.929C104.18 155.929 104.18 155.845 103.407 155.845C102.633 155.845 102.633 156.046 101.86 156.046C101.087 156.046 101.087 155.916 100.307 155.916C99.5332 155.916 99.5332 156.196 98.7598 156.196C97.9863 156.196 97.9863 155.851 97.2064 155.851C96.4329 155.851 96.4329 156.196 95.653 156.196C94.8796 156.196 94.8796 155.786 94.0996 155.786C93.3262 155.786 93.3262 155.871 92.5462 155.871C91.7728 155.871 91.7728 155.851 90.9929 155.851C90.2194 155.851 90.2194 155.968 89.4395 155.968C88.6661 155.968 88.6661 155.864 87.8926 155.864C87.1192 155.864 87.1192 155.819 86.3392 155.819C85.5658 155.819 85.5658 156.118 84.7859 156.118C84.0059 156.118 84.0059 155.988 83.2325 155.988C82.4526 155.988 82.4525 155.793 81.6791 155.793C80.8992 155.793 80.8992 156.001 80.1257 156.001C79.3458 156.001 79.2288 156.41 78.6763 155.864C78.1304 155.318 78.6698 155.195 78.6698 154.421C78.6698 153.648 78.4749 153.648 78.4749 152.868C78.4749 152.095 78.4294 152.095 78.4294 151.315C78.4294 150.541 78.3384 150.541 78.3384 149.768C78.3384 148.994 78.4879 148.994 78.4879 148.221C78.4879 147.447 78.6958 147.447 78.6958 146.674C78.6958 145.901 78.3579 145.901 78.3579 145.121C78.3579 144.347 78.5788 144.347 78.5788 143.574C78.5788 142.8 78.3189 142.8 78.3189 142.027C78.3189 141.254 78.6633 141.253 78.6633 140.48C78.6633 139.707 78.3579 139.707 78.3579 138.927C78.3579 138.153 78.3579 138.153 78.3579 137.38C78.3579 136.606 78.7998 136.606 78.7998 135.826C78.7998 135.053 78.4294 135.053 78.4294 134.273C78.4294 133.5 78.4229 133.5 78.4229 132.72C78.4229 131.946 78.7088 131.946 78.7088 131.166C78.7088 130.393 78.8323 130.393 78.8323 129.613C78.8323 128.839 78.4814 128.839 78.4814 128.06C78.4814 127.286 78.8258 127.286 78.8258 126.513C78.8258 125.739 78.8129 125.739 78.8129 124.959C78.8129 124.186 78.4684 124.186 78.4684 123.406C78.4684 122.626 78.8193 122.626 78.8193 121.853C78.8193 121.073 78.3514 121.073 78.3514 120.299C78.3514 119.519 78.5139 119.519 78.5139 118.746C78.5139 117.966 77.8899 117.602 78.4359 117.049C78.9818 116.503 79.3523 117.426 80.1257 117.426C80.8992 117.426 80.8992 117.27 81.6791 117.27C82.4525 117.27 82.4526 117.335 83.2325 117.335C84.0059 117.335 84.0059 117.426 84.7794 117.426C85.5528 117.426 85.5528 116.997 86.3263 116.997C87.0997 116.997 87.0997 117.335 87.8731 117.335C88.6466 117.335 88.6465 117.049 89.4265 117.049C90.1999 117.049 90.1999 116.978 90.9734 116.978C91.7468 116.978 91.7468 117.329 92.5202 117.329C93.2937 117.329 93.2937 117.03 94.0671 117.03C94.8406 117.03 94.8406 117.192 95.6205 117.192C96.394 117.192 96.394 117.355 97.1674 117.355C97.9408 117.355 97.9408 117.088 98.7207 117.088C99.4942 117.088 99.4942 117.114 100.274 117.114C101.048 117.114 101.048 117.166 101.828 117.166C102.601 117.166 102.601 117.387 103.381 117.387C104.154 117.387 104.154 117.387 104.934 117.387C105.708 117.387 105.708 117.374 106.488 117.374C107.261 117.374 107.261 117.101 108.035 117.101C108.808 117.101 108.808 117.238 109.588 117.238C110.361 117.238 110.361 117.335 111.141 117.335C111.921 117.335 111.921 117.29 112.695 117.29C113.475 117.29 113.475 117.14 114.248 117.14C115.028 117.14 115.028 117.394 115.801 117.394C116.581 117.394 116.822 116.633 117.368 117.186C117.914 117.732 117.556 117.972 117.556 118.746C117.556 119.519 117.212 119.519 117.212 120.299C117.212 121.073 117.42 121.073 117.42 121.853C117.42 122.626 117.491 122.626 117.491 123.399C117.491 124.173 117.465 124.173 117.465 124.946C117.465 125.72 117.277 125.72 117.277 126.493C117.277 127.267 117.205 127.267 117.205 128.047C117.205 128.82 117.589 128.82 117.589 129.593C117.589 130.367 117.459 130.367 117.459 131.14C117.459 131.914 117.127 131.914 117.127 132.687C117.127 133.461 117.14 133.461 117.14 134.241C117.14 135.014 117.212 135.014 117.212 135.787C117.212 136.561 117.608 136.561 117.608 137.341C117.608 138.114 117.342 138.114 117.342 138.894C117.342 139.668 117.472 139.668 117.472 140.448C117.472 141.221 117.498 141.221 117.498 142.001C117.498 142.774 117.485 142.774 117.485 143.554C117.485 144.328 117.524 144.328 117.524 145.108C117.524 145.881 117.179 145.881 117.179 146.655C117.179 147.428 117.446 147.428 117.446 148.208C117.446 148.981 117.283 148.981 117.283 149.761C117.283 150.541 117.576 150.541 117.576 151.315C117.576 152.095 117.205 152.095 117.205 152.868C117.205 153.648 117.075 153.681 117.212 154.447C117.355 155.182 117.797 155.292 117.244 155.845Z" stroke="#40EC80" stroke-miterlimit="10" stroke-linecap="round" stroke-linejoin="round"/>
<path d="M155.981 155.799C155.435 156.345 155.357 155.916 154.584 155.916C153.81 155.916 153.81 155.949 153.03 155.949C152.257 155.949 152.257 155.793 151.477 155.793C150.704 155.793 150.704 156.033 149.93 156.033C149.157 156.033 149.157 155.747 148.383 155.747C147.61 155.747 147.61 155.734 146.836 155.734C146.063 155.734 146.063 155.708 145.283 155.708C144.509 155.708 144.509 156.124 143.736 156.124C142.963 156.124 142.963 156.059 142.189 156.059C141.416 156.059 141.416 156.118 140.642 156.118C139.869 156.118 139.869 156.202 139.089 156.202C138.315 156.202 138.315 155.825 137.542 155.825C136.769 155.825 136.769 155.715 135.989 155.715C135.215 155.715 135.215 155.773 134.435 155.773C133.662 155.773 133.662 155.741 132.882 155.741C132.108 155.741 132.108 155.981 131.329 155.981C130.555 155.981 130.555 155.715 129.775 155.715C129.002 155.715 129.002 156.092 128.222 156.092C127.448 156.092 127.448 155.955 126.675 155.955C125.901 155.955 125.901 156.046 125.122 156.046C124.348 156.046 124.348 155.903 123.568 155.903C122.788 155.903 122.788 155.858 122.015 155.858C121.235 155.858 121.235 155.968 120.461 155.968C119.681 155.968 119.681 155.812 118.908 155.812C118.128 155.812 118.037 156.371 117.485 155.825C116.939 155.279 117.569 155.182 117.569 154.408C117.569 153.635 117.108 153.635 117.108 152.855C117.108 152.082 117.348 152.082 117.348 151.302C117.348 150.528 117.517 150.528 117.517 149.755C117.517 148.981 117.335 148.981 117.335 148.208C117.335 147.435 117.53 147.435 117.53 146.661C117.53 145.888 117.205 145.888 117.205 145.108C117.205 144.334 117.238 144.334 117.238 143.561C117.238 142.787 117.491 142.787 117.491 142.014C117.491 141.241 117.485 141.24 117.485 140.467C117.485 139.694 117.459 139.694 117.459 138.914C117.459 138.14 117.374 138.14 117.374 137.367C117.374 136.593 117.491 136.593 117.491 135.813C117.491 135.04 117.27 135.04 117.27 134.26C117.27 133.487 117.348 133.487 117.348 132.707C117.348 131.933 117.42 131.933 117.42 131.153C117.42 130.38 117.413 130.38 117.413 129.6C117.413 128.826 117.563 128.826 117.563 128.047C117.563 127.273 117.517 127.273 117.517 126.5C117.517 125.726 117.524 125.726 117.524 124.946C117.524 124.173 117.231 124.173 117.231 123.393C117.231 122.613 117.602 122.613 117.602 121.84C117.602 121.06 117.231 121.06 117.231 120.286C117.231 119.506 117.537 119.506 117.537 118.733C117.537 117.953 116.848 117.764 117.4 117.218C117.946 116.672 118.135 117.426 118.908 117.426C119.681 117.426 119.681 117.134 120.461 117.134C121.235 117.134 121.235 117.173 122.015 117.173C122.788 117.173 122.788 116.952 123.562 116.952C124.335 116.952 124.335 117.01 125.109 117.01C125.882 117.01 125.882 117.108 126.655 117.108C127.429 117.108 127.429 117.017 128.209 117.017C128.982 117.017 128.982 116.919 129.756 116.919C130.529 116.919 130.529 117.062 131.303 117.062C132.076 117.062 132.076 116.919 132.849 116.919C133.623 116.919 133.623 117.004 134.403 117.004C135.176 117.004 135.176 116.971 135.95 116.971C136.723 116.971 136.723 117.017 137.503 117.017C138.276 117.017 138.277 116.958 139.056 116.958C139.83 116.958 139.83 117.218 140.61 117.218C141.383 117.218 141.383 117.413 142.163 117.413C142.937 117.413 142.937 117.387 143.717 117.387C144.49 117.387 144.49 116.965 145.27 116.965C146.043 116.965 146.043 117.257 146.817 117.257C147.59 117.257 147.59 116.997 148.37 116.997C149.144 116.997 149.144 117.186 149.924 117.186C150.703 117.186 150.704 117.387 151.477 117.387C152.257 117.387 152.257 117.407 153.03 117.407C153.81 117.407 153.81 117.426 154.584 117.426C155.364 117.426 155.448 116.77 156.001 117.322C156.547 117.868 156.384 117.953 156.384 118.726C156.384 119.5 156.059 119.5 156.059 120.28C156.059 121.053 155.91 121.053 155.91 121.833C155.91 122.606 156.397 122.606 156.397 123.38C156.397 124.153 156.092 124.153 156.092 124.927C156.092 125.7 156.202 125.7 156.202 126.474C156.202 127.247 156.124 127.247 156.124 128.027C156.124 128.8 155.884 128.8 155.884 129.574C155.884 130.347 155.903 130.347 155.903 131.121C155.903 131.894 156.391 131.894 156.391 132.668C156.391 133.441 156.365 133.441 156.365 134.221C156.365 134.995 156.3 134.995 156.3 135.768C156.3 136.541 155.949 136.541 155.949 137.321C155.949 138.095 156.202 138.095 156.202 138.875C156.202 139.648 156.228 139.648 156.228 140.428C156.228 141.202 156.014 141.202 156.014 141.981C156.014 142.755 156.215 142.755 156.215 143.535C156.215 144.308 156.339 144.308 156.339 145.088C156.339 145.862 156.04 145.862 156.04 146.635C156.04 147.409 155.903 147.409 155.903 148.188C155.903 148.962 155.897 148.962 155.897 149.742C155.897 150.522 156.137 150.522 156.137 151.295C156.137 152.075 156.15 152.075 156.15 152.849C156.15 153.629 155.884 153.655 156.014 154.428C156.131 155.156 156.534 155.247 155.981 155.799Z" stroke="#40EC80" stroke-miterlimit="10" stroke-linecap="round" stroke-linejoin="round"/>
<path d="M233.812 156.072C233.266 156.618 232.915 156.157 232.142 156.157C231.369 156.157 231.369 155.89 230.589 155.89C229.815 155.89 229.815 156.033 229.035 156.033C228.262 156.033 228.262 155.864 227.488 155.864C226.715 155.864 226.715 155.929 225.942 155.929C225.168 155.929 225.168 156.027 224.395 156.027C223.621 156.027 223.621 156.163 222.841 156.163C222.068 156.163 222.068 155.903 221.294 155.903C220.521 155.903 220.521 156.033 219.748 156.033C218.974 156.033 218.974 155.988 218.201 155.988C217.427 155.988 217.427 156.098 216.647 156.098C215.874 156.098 215.874 156.04 215.1 156.04C214.327 156.04 214.327 155.793 213.547 155.793C212.774 155.793 212.774 155.786 211.994 155.786C211.22 155.786 211.22 155.741 210.44 155.741C209.667 155.741 209.667 156.163 208.887 156.163C208.113 156.163 208.113 156.124 207.334 156.124C206.56 156.124 206.56 155.968 205.78 155.968C205.007 155.968 205.007 156.131 204.233 156.131C203.46 156.131 203.46 156.014 202.68 156.014C201.906 156.014 201.906 155.702 201.127 155.702C200.347 155.702 200.347 156.02 199.573 156.02C198.793 156.02 198.793 156.092 198.02 156.092C197.24 156.092 197.24 155.812 196.466 155.812C195.686 155.812 195.4 156.553 194.855 156.007C194.309 155.461 194.796 155.175 194.796 154.402C194.796 153.629 195.049 153.629 195.049 152.849C195.049 152.075 194.991 152.075 194.991 151.295C194.991 150.522 194.757 150.522 194.757 149.748C194.757 148.975 195.024 148.975 195.024 148.201C195.024 147.428 195.069 147.428 195.069 146.655C195.069 145.881 194.764 145.881 194.764 145.101C194.764 144.328 194.9 144.328 194.9 143.554C194.9 142.781 195.121 142.781 195.121 142.007C195.121 141.234 194.692 141.234 194.692 140.461C194.692 139.687 194.764 139.687 194.764 138.907C194.764 138.134 194.932 138.134 194.932 137.36C194.932 136.587 194.868 136.587 194.868 135.807C194.868 135.033 195.16 135.033 195.16 134.254C195.16 133.48 194.699 133.48 194.699 132.7C194.699 131.927 195.082 131.927 195.082 131.147C195.082 130.373 194.88 130.373 194.88 129.593C194.88 128.82 194.926 128.82 194.926 128.04C194.926 127.267 195.036 127.267 195.036 126.493C195.036 125.72 195.108 125.72 195.108 124.94C195.108 124.166 195.115 124.166 195.115 123.386C195.115 122.606 194.926 122.606 194.926 121.833C194.926 121.053 194.919 121.053 194.919 120.28C194.919 119.5 194.971 119.5 194.971 118.726C194.971 117.946 194.426 117.771 194.971 117.218C195.517 116.672 195.699 117.166 196.473 117.166C197.246 117.166 197.246 117.368 198.026 117.368C198.8 117.368 198.8 117.121 199.58 117.121C200.353 117.121 200.353 117.075 201.127 117.075C201.9 117.075 201.9 117.277 202.673 117.277C203.447 117.277 203.447 117.095 204.22 117.095C204.994 117.095 204.994 117.218 205.774 117.218C206.547 117.218 206.547 117.062 207.321 117.062C208.094 117.062 208.094 117.036 208.867 117.036C209.641 117.036 209.641 117.277 210.414 117.277C211.188 117.277 211.188 117.244 211.968 117.244C212.741 117.244 212.741 117.296 213.515 117.296C214.288 117.296 214.288 116.945 215.068 116.945C215.841 116.945 215.841 117.212 216.621 117.212C217.395 117.212 217.395 117.036 218.175 117.036C218.948 117.036 218.948 117.192 219.728 117.192C220.501 117.192 220.501 116.919 221.281 116.919C222.055 116.919 222.055 117.199 222.835 117.199C223.608 117.199 223.608 117.088 224.382 117.088C225.155 117.088 225.155 117.179 225.935 117.179C226.708 117.179 226.709 116.971 227.488 116.971C228.268 116.971 228.268 116.971 229.042 116.971C229.822 116.971 229.822 117.407 230.595 117.407C231.375 117.407 231.375 117.413 232.149 117.413C232.922 117.413 233.058 116.705 233.611 117.251C234.157 117.797 233.825 117.933 233.825 118.707C233.825 119.48 233.806 119.48 233.806 120.26C233.806 121.034 233.955 121.034 233.955 121.814C233.955 122.587 233.598 122.587 233.598 123.36C233.598 124.134 233.507 124.134 233.507 124.907C233.507 125.681 233.507 125.681 233.507 126.454C233.507 127.228 233.63 127.228 233.63 128.008C233.63 128.781 233.494 128.781 233.494 129.554C233.494 130.328 233.546 130.328 233.546 131.101C233.546 131.875 233.916 131.875 233.916 132.648C233.916 133.422 233.949 133.422 233.949 134.202C233.949 134.975 233.637 134.975 233.637 135.748C233.637 136.522 233.702 136.522 233.702 137.302C233.702 138.075 233.962 138.075 233.962 138.855C233.962 139.629 233.955 139.629 233.955 140.409C233.955 141.182 233.962 141.182 233.962 141.962C233.962 142.735 233.825 142.735 233.825 143.515C233.825 144.289 233.637 144.289 233.637 145.069C233.637 145.842 233.851 145.842 233.851 146.616C233.851 147.389 233.533 147.389 233.533 148.169C233.533 148.942 233.877 148.942 233.877 149.722C233.877 150.502 233.552 150.502 233.552 151.276C233.552 152.056 233.565 152.056 233.565 152.829C233.565 153.609 233.63 153.609 233.819 154.363C234.007 155.24 234.358 155.52 233.812 156.072Z" stroke="#40EC80" stroke-miterlimit="10" stroke-linecap="round" stroke-linejoin="round"/>
<path d="M194.4 78.345C193.854 78.8909 193.672 78.6375 192.898 78.6375C192.125 78.6375 192.125 78.1825 191.345 78.1825C190.571 78.1825 190.571 78.358 189.791 78.358C189.018 78.358 189.018 78.6505 188.245 78.6505C187.471 78.6505 187.471 78.4295 186.698 78.4295C185.924 78.4295 185.924 78.2605 185.151 78.2605C184.377 78.2605 184.377 78.28 183.597 78.28C182.824 78.28 182.824 78.241 182.051 78.241C181.277 78.241 181.277 78.384 180.504 78.384C179.73 78.384 179.73 78.2215 178.957 78.2215C178.183 78.2215 178.183 78.1435 177.403 78.1435C176.63 78.1435 176.63 78.5075 175.857 78.5075C175.083 78.5075 175.083 78.618 174.303 78.618C173.53 78.618 173.53 78.6245 172.75 78.6245C171.976 78.6245 171.976 78.176 171.196 78.176C170.423 78.176 170.423 78.488 169.643 78.488C168.87 78.488 168.87 78.5985 168.09 78.5985C167.316 78.5985 167.316 78.631 166.536 78.631C165.763 78.631 165.763 78.5465 164.989 78.5465C164.216 78.5465 164.216 78.2345 163.436 78.2345C162.663 78.2345 162.663 78.5335 161.883 78.5335C161.103 78.5335 161.103 78.6375 160.329 78.6375C159.549 78.6375 159.549 78.475 158.776 78.475C157.996 78.475 157.996 78.5075 157.223 78.5075C156.443 78.5075 156.358 78.8 155.806 78.2475C155.26 77.7016 155.676 77.6105 155.676 76.8371C155.676 76.0637 155.565 76.0637 155.565 75.2837C155.565 74.5103 155.786 74.5103 155.786 73.7304C155.786 72.9569 155.604 72.9569 155.604 72.1835C155.604 71.41 155.728 71.41 155.728 70.6366C155.728 69.8632 155.461 69.8632 155.461 69.0897C155.461 68.3163 155.617 68.3163 155.617 67.5363C155.617 66.7629 155.89 66.7629 155.89 65.9895C155.89 65.216 155.643 65.216 155.643 64.4426C155.643 63.6692 155.903 63.6692 155.903 62.8957C155.903 62.1223 155.838 62.1223 155.838 61.3423C155.838 60.5689 155.767 60.5689 155.767 59.7955C155.767 59.022 155.851 59.022 155.851 58.2421C155.851 57.4686 155.435 57.4686 155.435 56.6887C155.435 55.9152 155.773 55.9153 155.773 55.1353C155.773 54.3619 155.929 54.3619 155.929 53.5819C155.929 52.8085 155.624 52.8085 155.624 52.0286C155.624 51.2551 155.78 51.2551 155.78 50.4752C155.78 49.7017 155.91 49.7018 155.91 48.9283C155.91 48.1549 155.812 48.1549 155.812 47.3749C155.812 46.6015 155.598 46.6015 155.598 45.8216C155.598 45.0416 155.786 45.0416 155.786 44.2682C155.786 43.4882 155.812 43.4882 155.812 42.7148C155.812 41.9348 155.637 41.9349 155.637 41.1614C155.637 40.3815 155.045 40.089 155.598 39.5366C156.144 38.9906 156.443 39.777 157.216 39.777C157.989 39.777 157.989 39.595 158.769 39.595C159.543 39.595 159.543 39.8615 160.323 39.8615C161.096 39.8615 161.096 39.8615 161.87 39.8615C162.643 39.8615 162.643 39.8485 163.417 39.8485C164.19 39.8485 164.19 39.556 164.963 39.556C165.737 39.556 165.737 39.79 166.517 39.79C167.29 39.79 167.29 39.634 168.064 39.634C168.837 39.634 168.837 39.6015 169.611 39.6015C170.384 39.6015 170.384 39.686 171.157 39.686C171.931 39.686 171.931 39.4196 172.711 39.4196C173.484 39.4196 173.484 39.4456 174.258 39.4456C175.031 39.4456 175.031 39.7315 175.811 39.7315C176.584 39.7315 176.584 39.6991 177.364 39.6991C178.138 39.6991 178.138 39.764 178.918 39.764C179.691 39.764 179.691 39.7575 180.471 39.7575C181.245 39.7575 181.245 39.5105 182.025 39.5105C182.798 39.5105 182.798 39.751 183.578 39.751C184.351 39.751 184.351 39.5756 185.125 39.5756C185.898 39.5756 185.898 39.5171 186.678 39.5171C187.452 39.5171 187.452 39.5431 188.232 39.5431C189.012 39.5431 189.012 39.4456 189.785 39.4456C190.565 39.4456 190.565 39.3741 191.338 39.3741C192.118 39.3741 192.118 39.6925 192.892 39.6925C193.665 39.6925 193.964 38.9776 194.517 39.5236C195.063 40.0695 194.569 40.3685 194.569 41.1419C194.569 41.9154 194.25 41.9154 194.25 42.6953C194.25 43.4687 194.315 43.4688 194.315 44.2487C194.315 45.0221 194.627 45.0221 194.627 45.7956C194.627 46.569 194.205 46.569 194.205 47.3425C194.205 48.1159 194.647 48.1159 194.647 48.8893C194.647 49.6627 194.517 49.6627 194.517 50.4427C194.517 51.2161 194.673 51.2161 194.673 51.9896C194.673 52.763 194.445 52.763 194.445 53.5364C194.445 54.3099 194.699 54.3099 194.699 55.0833C194.699 55.8568 194.25 55.8568 194.25 56.6367C194.25 57.4102 194.582 57.4102 194.582 58.1836C194.582 58.957 194.556 58.957 194.556 59.7369C194.556 60.5104 194.621 60.5104 194.621 61.2903C194.621 62.0638 194.686 62.0638 194.686 62.8437C194.686 63.6172 194.445 63.6172 194.445 64.3971C194.445 65.1705 194.322 65.1705 194.322 65.9505C194.322 66.7239 194.66 66.7239 194.66 67.5038C194.66 68.2773 194.673 68.2773 194.673 69.0507C194.673 69.8242 194.64 69.8242 194.64 70.6041C194.64 71.3775 194.4 71.3776 194.4 72.1575C194.4 72.9374 194.471 72.9374 194.471 73.7108C194.471 74.4908 194.562 74.4908 194.562 75.2642C194.562 76.0442 194.068 76.1027 194.224 76.8696C194.367 77.6756 194.952 77.799 194.4 78.345Z" stroke="#40EC80" stroke-miterlimit="10" stroke-linecap="round" stroke-linejoin="round"/>
<path d="M233.566 39.4911C233.02 40.0371 232.916 39.3546 232.142 39.3546C231.369 39.3546 231.369 39.6471 230.589 39.6471C229.815 39.6471 229.815 39.6406 229.035 39.6406C228.262 39.6406 228.262 39.4261 227.489 39.4261C226.715 39.4261 226.715 39.7511 225.942 39.7511C225.168 39.7511 225.168 39.4781 224.395 39.4781C223.621 39.4781 223.621 39.5886 222.841 39.5886C222.068 39.5886 222.068 39.4196 221.295 39.4196C220.521 39.4196 220.521 39.7186 219.748 39.7186C218.974 39.7186 218.974 39.8356 218.201 39.8356C217.427 39.8356 217.427 39.4976 216.647 39.4976C215.874 39.4976 215.874 39.4391 215.101 39.4391C214.327 39.4391 214.327 39.4976 213.547 39.4976C212.774 39.4976 212.774 39.8226 211.994 39.8226C211.22 39.8226 211.22 39.4521 210.44 39.4521C209.667 39.4521 209.667 39.7771 208.887 39.7771C208.114 39.7771 208.114 39.5886 207.334 39.5886C206.56 39.5886 206.56 39.7706 205.78 39.7706C205.007 39.7706 205.007 39.5431 204.233 39.5431C203.46 39.5431 203.46 39.8031 202.68 39.8031C201.907 39.8031 201.907 39.4131 201.127 39.4131C200.347 39.4131 200.347 39.6081 199.573 39.6081C198.793 39.6081 198.793 39.4716 198.02 39.4716C197.24 39.4716 197.24 39.7901 196.467 39.7901C195.687 39.7901 195.323 40.31 194.77 39.7576C194.224 39.2116 194.881 38.8411 194.881 38.0677C194.881 37.2943 194.946 37.2943 194.946 36.5143C194.946 35.7409 195.017 35.7409 195.017 34.9609C195.017 34.1875 195.134 34.1875 195.134 33.4141C195.134 32.6406 195.115 32.6407 195.115 31.8672C195.115 31.0938 194.712 31.0938 194.712 30.3203C194.712 29.5469 194.666 29.5469 194.666 28.7669C194.666 27.9935 194.751 27.9935 194.751 27.2201C194.751 26.4466 194.725 26.4466 194.725 25.6732C194.725 24.8997 194.712 24.8997 194.712 24.1263C194.712 23.3529 194.705 23.3529 194.705 22.5729C194.705 21.7995 195.063 21.7995 195.063 21.026C195.063 20.2526 195.095 20.2526 195.095 19.4727C195.095 18.6993 194.848 18.6992 194.848 17.9193C194.848 17.1459 194.998 17.1459 194.998 16.3659C194.998 15.5925 194.887 15.5925 194.887 14.8125C194.887 14.0391 194.783 14.0391 194.783 13.2592C194.783 12.4857 195.115 12.4857 195.115 11.7058C195.115 10.9324 194.764 10.9324 194.764 10.1589C194.764 9.38548 195.108 9.38547 195.108 8.60553C195.108 7.83209 195.121 7.83208 195.121 7.05214C195.121 6.2722 194.809 6.27223 194.809 5.49879C194.809 4.71886 194.712 4.71885 194.712 3.94541C194.712 3.16547 195.102 3.16546 195.102 2.39202C195.102 1.61858 194.53 1.56008 195.082 1.00763C195.628 0.461671 195.68 0.87763 196.454 0.87763C197.227 0.87763 197.227 0.929637 198.007 0.929637C198.78 0.929637 198.78 0.637152 199.56 0.637152C200.334 0.637152 200.334 0.890642 201.107 0.890642C201.881 0.890642 201.881 0.955621 202.654 0.955621C203.428 0.955621 203.428 0.611169 204.201 0.611169C204.974 0.611169 204.974 0.578679 205.754 0.578679C206.528 0.578679 206.528 0.702171 207.301 0.702171C208.075 0.702171 208.075 0.819157 208.848 0.819157C209.622 0.819157 209.622 0.741166 210.395 0.741166C211.168 0.741166 211.168 0.780162 211.948 0.780162C212.722 0.780162 212.722 0.819157 213.495 0.819157C214.269 0.819157 214.269 0.923131 215.049 0.923131C215.822 0.923131 215.822 0.630647 216.602 0.630647C217.375 0.630647 217.375 0.897148 218.155 0.897148C218.929 0.897148 218.929 0.676148 219.709 0.676148C220.482 0.676148 220.482 0.715143 221.262 0.715143C222.036 0.715143 222.036 0.760644 222.816 0.760644C223.589 0.760644 223.589 0.806145 224.362 0.806145C225.136 0.806145 225.136 1.01413 225.916 1.01413C226.689 1.01413 226.689 1.03365 227.469 1.03365C228.249 1.03365 228.249 1.03365 229.023 1.03365C229.802 1.03365 229.802 0.936143 230.576 0.936143C231.356 0.936143 231.356 0.760644 232.129 0.760644C232.903 0.760644 233.202 0.234205 233.748 0.780162C234.294 1.32612 233.689 1.61859 233.689 2.39853C233.689 3.17197 233.475 3.17198 233.475 3.95191C233.475 4.72535 233.657 4.72532 233.657 5.50526C233.657 6.2787 233.546 6.2787 233.546 7.05214C233.546 7.82558 233.826 7.82558 233.826 8.59902C233.826 9.37246 233.52 9.37246 233.52 10.1459C233.52 10.9193 233.501 10.9194 233.501 11.6993C233.501 12.4727 233.787 12.4727 233.787 13.2462C233.787 14.0196 233.423 14.0196 233.423 14.7931C233.423 15.5665 233.904 15.5665 233.904 16.3399C233.904 17.1134 233.611 17.1134 233.611 17.8933C233.611 18.6668 233.54 18.6667 233.54 19.4402C233.54 20.2136 233.878 20.2136 233.878 20.9935C233.878 21.767 233.949 21.767 233.949 22.5469C233.949 23.3204 233.683 23.3204 233.683 24.1003C233.683 24.8738 233.91 24.8737 233.91 25.6537C233.91 26.4271 233.676 26.4271 233.676 27.2071C233.676 27.9805 233.553 27.9805 233.553 28.7604C233.553 29.5339 233.592 29.5339 233.592 30.3073C233.592 31.0808 233.462 31.0808 233.462 31.8607C233.462 32.6341 233.722 32.6341 233.722 33.4141C233.722 34.194 233.559 34.194 233.559 34.9674C233.559 35.7474 233.631 35.7474 233.631 36.5208C233.631 37.3008 233.735 37.2748 233.871 38.0417C234.014 38.7762 234.112 38.9386 233.566 39.4911Z" fill="#40EC80"/>
<path d="M233.566 39.4911C233.02 40.0371 232.916 39.3546 232.142 39.3546C231.369 39.3546 231.369 39.6471 230.589 39.6471C229.815 39.6471 229.815 39.6406 229.035 39.6406C228.262 39.6406 228.262 39.4261 227.489 39.4261C226.715 39.4261 226.715 39.7511 225.942 39.7511C225.168 39.7511 225.168 39.4781 224.395 39.4781C223.621 39.4781 223.621 39.5886 222.841 39.5886C222.068 39.5886 222.068 39.4196 221.295 39.4196C220.521 39.4196 220.521 39.7186 219.748 39.7186C218.974 39.7186 218.974 39.8356 218.201 39.8356C217.427 39.8356 217.427 39.4976 216.647 39.4976C215.874 39.4976 215.874 39.4391 215.101 39.4391C214.327 39.4391 214.327 39.4976 213.547 39.4976C212.774 39.4976 212.774 39.8226 211.994 39.8226C211.22 39.8226 211.22 39.4521 210.44 39.4521C209.667 39.4521 209.667 39.7771 208.887 39.7771C208.114 39.7771 208.114 39.5886 207.334 39.5886C206.56 39.5886 206.56 39.7706 205.78 39.7706C205.007 39.7706 205.007 39.5431 204.233 39.5431C203.46 39.5431 203.46 39.8031 202.68 39.8031C201.907 39.8031 201.907 39.4131 201.127 39.4131C200.347 39.4131 200.347 39.6081 199.573 39.6081C198.793 39.6081 198.793 39.4716 198.02 39.4716C197.24 39.4716 197.24 39.7901 196.467 39.7901C195.687 39.7901 195.323 40.31 194.77 39.7576C194.224 39.2116 194.881 38.8411 194.881 38.0677C194.881 37.2943 194.946 37.2943 194.946 36.5143C194.946 35.7409 195.017 35.7409 195.017 34.9609C195.017 34.1875 195.134 34.1875 195.134 33.4141C195.134 32.6406 195.115 32.6407 195.115 31.8672C195.115 31.0938 194.712 31.0938 194.712 30.3203C194.712 29.5469 194.666 29.5469 194.666 28.7669C194.666 27.9935 194.751 27.9935 194.751 27.2201C194.751 26.4466 194.725 26.4466 194.725 25.6732C194.725 24.8997 194.712 24.8997 194.712 24.1263C194.712 23.3529 194.705 23.3529 194.705 22.5729C194.705 21.7995 195.063 21.7995 195.063 21.026C195.063 20.2526 195.095 20.2526 195.095 19.4727C195.095 18.6993 194.848 18.6992 194.848 17.9193C194.848 17.1459 194.998 17.1459 194.998 16.3659C194.998 15.5925 194.887 15.5925 194.887 14.8125C194.887 14.0391 194.783 14.0391 194.783 13.2592C194.783 12.4857 195.115 12.4857 195.115 11.7058C195.115 10.9324 194.764 10.9324 194.764 10.1589C194.764 9.38548 195.108 9.38547 195.108 8.60553C195.108 7.83209 195.121 7.83208 195.121 7.05214C195.121 6.2722 194.809 6.27223 194.809 5.49879C194.809 4.71886 194.712 4.71885 194.712 3.94541C194.712 3.16547 195.102 3.16546 195.102 2.39202C195.102 1.61858 194.53 1.56008 195.082 1.00763C195.628 0.461671 195.68 0.87763 196.454 0.87763C197.227 0.87763 197.227 0.929637 198.007 0.929637C198.78 0.929637 198.78 0.637152 199.56 0.637152C200.334 0.637152 200.334 0.890642 201.107 0.890642C201.881 0.890642 201.881 0.955621 202.654 0.955621C203.428 0.955621 203.428 0.611169 204.201 0.611169C204.974 0.611169 204.974 0.578679 205.754 0.578679C206.528 0.578679 206.528 0.702171 207.301 0.702171C208.075 0.702171 208.075 0.819157 208.848 0.819157C209.622 0.819157 209.622 0.741166 210.395 0.741166C211.168 0.741166 211.168 0.780162 211.948 0.780162C212.722 0.780162 212.722 0.819157 213.495 0.819157C214.269 0.819157 214.269 0.923131 215.049 0.923131C215.822 0.923131 215.822 0.630647 216.602 0.630647C217.375 0.630647 217.375 0.897148 218.155 0.897148C218.929 0.897148 218.929 0.676148 219.709 0.676148C220.482 0.676148 220.482 0.715143 221.262 0.715143C222.036 0.715143 222.036 0.760644 222.816 0.760644C223.589 0.760644 223.589 0.806145 224.362 0.806145C225.136 0.806145 225.136 1.01413 225.916 1.01413C226.689 1.01413 226.689 1.03365 227.469 1.03365C228.249 1.03365 228.249 1.03365 229.023 1.03365C229.802 1.03365 229.802 0.936143 230.576 0.936143C231.356 0.936143 231.356 0.760644 232.129 0.760644C232.903 0.760644 233.202 0.234205 233.748 0.780162C234.294 1.32612 233.689 1.61859 233.689 2.39853C233.689 3.17197 233.475 3.17198 233.475 3.95191C233.475 4.72535 233.657 4.72532 233.657 5.50526C233.657 6.2787 233.546 6.2787 233.546 7.05214C233.546 7.82558 233.826 7.82558 233.826 8.59902C233.826 9.37246 233.52 9.37246 233.52 10.1459C233.52 10.9193 233.501 10.9194 233.501 11.6993C233.501 12.4727 233.787 12.4727 233.787 13.2462C233.787 14.0196 233.423 14.0196 233.423 14.7931C233.423 15.5665 233.904 15.5665 233.904 16.3399C233.904 17.1134 233.611 17.1134 233.611 17.8933C233.611 18.6668 233.54 18.6667 233.54 19.4402C233.54 20.2136 233.878 20.2136 233.878 20.9935C233.878 21.767 233.949 21.767 233.949 22.5469C233.949 23.3204 233.683 23.3204 233.683 24.1003C233.683 24.8738 233.91 24.8737 233.91 25.6537C233.91 26.4271 233.676 26.4271 233.676 27.2071C233.676 27.9805 233.553 27.9805 233.553 28.7604C233.553 29.5339 233.592 29.5339 233.592 30.3073C233.592 31.0808 233.462 31.0808 233.462 31.8607C233.462 32.6341 233.722 32.6341 233.722 33.4141C233.722 34.194 233.559 34.194 233.559 34.9674C233.559 35.7474 233.631 35.7474 233.631 36.5208C233.631 37.3008 233.735 37.2748 233.871 38.0417C234.014 38.7762 234.112 38.9386 233.566 39.4911Z" stroke="#40EC80" stroke-miterlimit="10" stroke-linecap="round" stroke-linejoin="round"/>
<path d="M233.67 117.154C233.124 117.699 232.916 117.414 232.136 117.414C231.362 117.414 231.362 117.303 230.582 117.303C229.809 117.303 229.809 117.102 229.029 117.102C228.256 117.102 228.256 117.037 227.482 117.037C226.709 117.037 226.709 117.095 225.935 117.095C225.162 117.095 225.162 117.115 224.388 117.115C223.615 117.115 223.615 117.089 222.835 117.089C222.061 117.089 222.061 117.037 221.288 117.037C220.515 117.037 220.515 117.218 219.741 117.218C218.968 117.218 218.968 117.42 218.194 117.42C217.421 117.42 217.421 117.414 216.641 117.414C215.867 117.414 215.867 116.92 215.094 116.92C214.321 116.92 214.321 117.115 213.541 117.115C212.767 117.115 212.767 117.218 211.987 117.218C211.214 117.218 211.214 117.218 210.434 117.218C209.66 117.218 209.66 117.284 208.881 117.284C208.107 117.284 208.107 117.245 207.327 117.245C206.554 117.245 206.554 117.277 205.774 117.277C205 117.277 205 116.952 204.227 116.952C203.453 116.952 203.453 117.375 202.673 117.375C201.9 117.375 201.9 117.296 201.12 117.296C200.34 117.296 200.34 117.284 199.567 117.284C198.787 117.284 198.787 116.913 198.013 116.913C197.233 116.913 197.233 116.985 196.46 116.985C195.68 116.985 195.602 117.569 195.05 117.017C194.504 116.471 195.108 116.387 195.108 115.613C195.108 114.84 194.887 114.84 194.887 114.06C194.887 113.286 194.887 113.286 194.887 112.506C194.887 111.733 195.063 111.733 195.063 110.959C195.063 110.186 194.965 110.186 194.965 109.413C194.965 108.639 195.128 108.639 195.128 107.866C195.128 107.092 194.738 107.092 194.738 106.312C194.738 105.539 194.809 105.539 194.809 104.765C194.809 103.992 194.965 103.992 194.965 103.219C194.965 102.445 195.154 102.445 195.154 101.672C195.154 100.898 194.861 100.898 194.861 100.118C194.861 99.3449 194.764 99.3449 194.764 98.5715C194.764 97.798 194.757 97.7981 194.757 97.0181C194.757 96.2447 194.829 96.2447 194.829 95.4647C194.829 94.6913 195.024 94.6913 195.024 93.9113C195.024 93.1379 194.881 93.1379 194.881 92.358C194.881 91.5845 194.9 91.5846 194.9 90.8046C194.9 90.0312 195.089 90.0312 195.089 89.2512C195.089 88.4778 195.141 88.4778 195.141 87.7043C195.141 86.9309 195.011 86.9309 195.011 86.151C195.011 85.3775 195.154 85.3775 195.154 84.5976C195.154 83.8176 194.978 83.8177 194.978 83.0442C194.978 82.2643 194.777 82.2643 194.777 81.4908C194.777 80.7109 194.842 80.7109 194.842 79.9375C194.842 79.1575 194.185 78.7676 194.731 78.2151C195.277 77.6692 195.674 78.1696 196.447 78.1696C197.22 78.1696 197.22 78.2996 198 78.2996C198.774 78.2996 198.774 78.4231 199.554 78.4231C200.327 78.4231 200.327 78.4621 201.101 78.4621C201.874 78.4621 201.874 78.4621 202.648 78.4621C203.421 78.4621 203.421 78.3516 204.194 78.3516C204.968 78.3516 204.968 78.4101 205.748 78.4101C206.521 78.4101 206.521 78.3191 207.295 78.3191C208.068 78.3191 208.068 78.1371 208.842 78.1371C209.615 78.1371 209.615 78.3906 210.388 78.3906C211.162 78.3906 211.162 78.4101 211.942 78.4101C212.715 78.4101 212.715 78.2541 213.489 78.2541C214.262 78.2541 214.262 78.1501 215.042 78.1501C215.815 78.1501 215.815 78.1826 216.595 78.1826C217.369 78.1826 217.369 78.2216 218.149 78.2216C218.922 78.2216 218.922 78.2021 219.702 78.2021C220.476 78.2021 220.476 78.3841 221.256 78.3841C222.029 78.3841 222.029 78.3191 222.809 78.3191C223.582 78.3191 223.582 78.3191 224.356 78.3191C225.129 78.3191 225.129 78.4166 225.909 78.4166C226.683 78.4166 226.683 78.2801 227.463 78.2801C228.242 78.2801 228.242 78.4426 229.016 78.4426C229.796 78.4426 229.796 78.1826 230.569 78.1826C231.349 78.1826 231.349 78.3256 232.123 78.3256C232.896 78.3256 233.137 77.8121 233.683 78.3581C234.229 78.904 233.904 79.138 233.904 79.9115C233.904 80.6849 233.468 80.6849 233.468 81.4649C233.468 82.2383 233.715 82.2383 233.715 83.0182C233.715 83.7916 233.462 83.7916 233.462 84.5651C233.462 85.3385 233.462 85.3385 233.462 86.112C233.462 86.8854 233.917 86.8854 233.917 87.6588C233.917 88.4323 233.8 88.4323 233.8 89.2122C233.8 89.9857 233.514 89.9857 233.514 90.7591C233.514 91.5326 233.527 91.5326 233.527 92.306C233.527 93.0794 233.819 93.0794 233.819 93.8529C233.819 94.6263 233.592 94.6263 233.592 95.4062C233.592 96.1797 233.54 96.1797 233.54 96.9531C233.54 97.7265 233.735 97.7266 233.735 98.5065C233.735 99.2799 233.475 99.2799 233.475 100.06C233.475 100.833 233.683 100.833 233.683 101.613C233.683 102.387 233.585 102.387 233.585 103.167C233.585 103.94 233.91 103.94 233.91 104.72C233.91 105.493 233.527 105.493 233.527 106.273C233.527 107.047 233.715 107.047 233.715 107.82C233.715 108.594 233.696 108.594 233.696 109.374C233.696 110.147 233.93 110.147 233.93 110.927C233.93 111.707 233.91 111.707 233.91 112.48C233.91 113.26 233.904 113.26 233.904 114.034C233.904 114.814 233.67 114.801 233.832 115.561C234.001 116.387 234.222 116.601 233.67 117.154Z" fill="#40EC80"/>
<path d="M233.67 117.154C233.124 117.699 232.916 117.414 232.136 117.414C231.362 117.414 231.362 117.303 230.582 117.303C229.809 117.303 229.809 117.102 229.029 117.102C228.256 117.102 228.255 117.037 227.482 117.037C226.709 117.037 226.709 117.095 225.935 117.095C225.162 117.095 225.162 117.115 224.388 117.115C223.615 117.115 223.615 117.089 222.835 117.089C222.061 117.089 222.061 117.037 221.288 117.037C220.515 117.037 220.515 117.218 219.741 117.218C218.968 117.218 218.968 117.42 218.194 117.42C217.421 117.42 217.421 117.414 216.641 117.414C215.867 117.414 215.867 116.92 215.094 116.92C214.321 116.92 214.321 117.115 213.541 117.115C212.767 117.115 212.767 117.218 211.987 117.218C211.214 117.218 211.214 117.218 210.434 117.218C209.66 117.218 209.66 117.284 208.881 117.284C208.107 117.284 208.107 117.245 207.327 117.245C206.554 117.245 206.554 117.277 205.774 117.277C205 117.277 205 116.952 204.227 116.952C203.453 116.952 203.453 117.375 202.673 117.375C201.9 117.375 201.9 117.296 201.12 117.296C200.34 117.296 200.34 117.284 199.567 117.284C198.787 117.284 198.787 116.913 198.013 116.913C197.233 116.913 197.233 116.985 196.46 116.985C195.68 116.985 195.602 117.569 195.05 117.017C194.504 116.471 195.108 116.387 195.108 115.613C195.108 114.84 194.887 114.84 194.887 114.06C194.887 113.286 194.887 113.286 194.887 112.506C194.887 111.733 195.063 111.733 195.063 110.959C195.063 110.186 194.965 110.186 194.965 109.413C194.965 108.639 195.128 108.639 195.128 107.866C195.128 107.092 194.738 107.092 194.738 106.312C194.738 105.539 194.809 105.539 194.809 104.765C194.809 103.992 194.965 103.992 194.965 103.219C194.965 102.445 195.154 102.445 195.154 101.672C195.154 100.898 194.861 100.898 194.861 100.118C194.861 99.3449 194.764 99.3449 194.764 98.5715C194.764 97.798 194.757 97.7981 194.757 97.0181C194.757 96.2447 194.829 96.2447 194.829 95.4647C194.829 94.6913 195.024 94.6913 195.024 93.9113C195.024 93.1379 194.881 93.1379 194.881 92.358C194.881 91.5845 194.9 91.5846 194.9 90.8046C194.9 90.0312 195.089 90.0312 195.089 89.2512C195.089 88.4778 195.141 88.4778 195.141 87.7043C195.141 86.9309 195.011 86.9309 195.011 86.151C195.011 85.3775 195.154 85.3775 195.154 84.5976C195.154 83.8176 194.978 83.8177 194.978 83.0442C194.978 82.2643 194.777 82.2643 194.777 81.4908C194.777 80.7109 194.842 80.7109 194.842 79.9375C194.842 79.1575 194.185 78.7676 194.731 78.2151C195.277 77.6692 195.674 78.1696 196.447 78.1696C197.22 78.1696 197.22 78.2996 198 78.2996C198.774 78.2996 198.774 78.4231 199.554 78.4231C200.327 78.4231 200.327 78.4621 201.101 78.4621C201.874 78.4621 201.874 78.4621 202.648 78.4621C203.421 78.4621 203.421 78.3516 204.194 78.3516C204.968 78.3516 204.968 78.4101 205.748 78.4101C206.521 78.4101 206.521 78.3191 207.295 78.3191C208.068 78.3191 208.068 78.1371 208.842 78.1371C209.615 78.1371 209.615 78.3906 210.388 78.3906C211.162 78.3906 211.162 78.4101 211.942 78.4101C212.715 78.4101 212.715 78.2541 213.489 78.2541C214.262 78.2541 214.262 78.1501 215.042 78.1501C215.815 78.1501 215.815 78.1826 216.595 78.1826C217.369 78.1826 217.369 78.2216 218.149 78.2216C218.922 78.2216 218.922 78.2021 219.702 78.2021C220.476 78.2021 220.476 78.3841 221.256 78.3841C222.029 78.3841 222.029 78.3191 222.809 78.3191C223.582 78.3191 223.582 78.3191 224.356 78.3191C225.129 78.3191 225.129 78.4166 225.909 78.4166C226.683 78.4166 226.683 78.2801 227.463 78.2801C228.242 78.2801 228.242 78.4426 229.016 78.4426C229.796 78.4426 229.796 78.1826 230.569 78.1826C231.349 78.1826 231.349 78.3256 232.123 78.3256C232.896 78.3256 233.137 77.8121 233.683 78.3581C234.229 78.904 233.904 79.138 233.904 79.9115C233.904 80.6849 233.468 80.6849 233.468 81.4649C233.468 82.2383 233.715 82.2383 233.715 83.0182C233.715 83.7916 233.462 83.7916 233.462 84.5651C233.462 85.3385 233.462 85.3385 233.462 86.112C233.462 86.8854 233.917 86.8854 233.917 87.6588C233.917 88.4323 233.8 88.4323 233.8 89.2122C233.8 89.9857 233.514 89.9857 233.514 90.7591C233.514 91.5326 233.527 91.5326 233.527 92.306C233.527 93.0794 233.819 93.0794 233.819 93.8529C233.819 94.6263 233.592 94.6263 233.592 95.4062C233.592 96.1797 233.54 96.1797 233.54 96.9531C233.54 97.7265 233.735 97.7266 233.735 98.5065C233.735 99.2799 233.475 99.2799 233.475 100.06C233.475 100.833 233.683 100.833 233.683 101.613C233.683 102.387 233.585 102.387 233.585 103.167C233.585 103.94 233.91 103.94 233.91 104.72C233.91 105.493 233.527 105.493 233.527 106.273C233.527 107.047 233.715 107.047 233.715 107.82C233.715 108.594 233.696 108.594 233.696 109.374C233.696 110.147 233.93 110.147 233.93 110.927C233.93 111.707 233.91 111.707 233.91 112.48C233.91 113.26 233.904 113.26 233.904 114.034C233.904 114.814 233.67 114.801 233.832 115.561C234.001 116.387 234.222 116.601 233.67 117.154Z" stroke="#40EC80" stroke-miterlimit="10" stroke-linecap="round" stroke-linejoin="round"/>
</svg>
