<svg width="119" height="28" viewBox="0 0 119 28" fill="none" xmlns="http://www.w3.org/2000/svg">
<path d="M9.6304 22.7086C12.5785 22.7086 13.7658 21.5177 13.7658 18.2737V9.52693C13.7658 6.32373 12.5373 5.21526 9.6304 5.21526H6.15019V22.7086H9.6304ZM0.5 -1.71661e-05H9.54849C16.1403 -1.71661e-05 19.416 3.20318 19.416 9.77336V18.0273C19.416 25.6651 15.9358 27.9236 9.6304 27.9236H0.5V-1.71661e-05Z" fill="#8B949E"/>
<path d="M23.019 -1.71661e-05H28.7703L33.8281 22.754H34.1545L39.1311 -1.71661e-05H44.6374L37.9074 27.9236H29.8309L23.019 -1.71661e-05Z" fill="#8B949E"/>
<path d="M55.8175 22.5852H68.958V27.9236H50.042V-1.71661e-05H55.8175V22.5852Z" fill="#8B949E"/>
<path d="M82.1549 12.8118C86.1511 12.8118 87.5934 11.8676 87.5934 9.03405C87.5934 6.20076 86.1511 5.25608 82.1549 5.25608H79.0648V12.8118H82.1549ZM73.4618 -1.71661e-05H81.4956C90.0237 -1.71661e-05 93.2786 2.7103 93.2786 9.03405C93.2786 15.358 90.0237 18.0681 81.4956 18.0681H79.0648V27.9236H73.4618V-1.71661e-05Z" fill="#8B949E"/>
<path d="M104.239 12.6067H107.348C111.121 12.6067 112.447 11.6622 112.447 8.91083C112.447 6.11837 111.121 5.21526 107.348 5.21526H104.239V12.6067ZM112.282 27.9236L107.265 17.74H104.239V27.9236H98.6832V-1.71661e-05H106.602C114.976 -1.71661e-05 118.169 2.66947 118.169 8.87C118.169 13.1406 116.676 15.7277 112.986 16.9594L118.5 27.9236H112.282Z" fill="#8B949E"/>
</svg>
