<svg width="40" height="47" viewBox="0 0 40 47" fill="none" xmlns="http://www.w3.org/2000/svg">
<path d="M18.898 29.0834L14.5593 31.9255C14.5593 31.9255 14.5588 31.9265 14.5578 31.9271C14.5568 31.9276 14.5552 31.9286 14.5552 31.9286L13.3682 32.7057V41.1018H26.6329V30.2771L23.0466 25.0146L23.0456 25.0135L23.045 25.012L21.4038 22.604C20.9754 22.7981 20.5006 22.9089 19.999 22.9089C19.0262 22.9089 18.1507 22.5 17.5338 21.8506L15.5182 23.171L19.0442 28.3449C19.1246 28.4618 19.1534 28.606 19.1261 28.745C19.0983 28.8836 19.0164 29.0056 18.898 29.0834ZM19.6612 30.3379H20.3394C21.8761 30.3379 23.1259 31.5171 23.1259 32.9663V37.5815C23.1259 37.8729 22.89 38.1088 22.5986 38.1088H17.402C17.111 38.1088 16.8746 37.8729 16.8746 37.5815L16.8741 32.9663C16.8741 31.5171 18.1245 30.3379 19.6612 30.3379Z" fill="#8B949E"/>
<path d="M23.6311 23.999L26.6329 22.0333V18.4213C26.6329 17.6545 26.4784 16.8918 26.1931 16.1812L23.0754 18.2235C23.267 18.6401 23.3767 19.101 23.3767 19.5872C23.3767 20.5512 22.9544 21.4174 22.2855 22.0245L23.6311 23.999Z" fill="#8B949E"/>
<path d="M19.999 17.3208C18.7177 17.3208 17.6759 18.3379 17.6759 19.5877C17.6759 20.837 18.7177 21.8541 19.999 21.8541C21.2797 21.8541 22.322 20.837 22.322 19.5877C22.322 18.3379 21.2797 17.3208 19.999 17.3208Z" fill="#8B949E"/>
<path d="M33.9995 39.2146L36.8427 37.353C37.3819 37.0003 37.747 36.4626 37.8711 35.8395C37.9937 35.2236 37.8654 34.5969 37.5101 34.0747L36.5368 32.6472L34.1051 34.2405C34.016 34.2987 33.9156 34.3265 33.8167 34.3265C33.6447 34.3265 33.4763 34.2426 33.3749 34.0881C33.2157 33.8445 33.2837 33.5175 33.5273 33.3578L35.943 31.7753L34.2575 29.3024L31.8258 30.8963C31.7367 30.955 31.6368 30.9828 31.5374 30.9828C31.3654 30.9828 31.197 30.8989 31.0961 30.7444C30.9365 30.5008 31.0044 30.1743 31.248 30.0146L33.6638 28.4311L31.9788 25.9592L29.546 27.5526C29.457 27.6108 29.3565 27.6386 29.2577 27.6386C29.0857 27.6386 28.9173 27.5546 28.8158 27.4001C28.6567 27.1565 28.7247 26.8295 28.9682 26.6699L31.3845 25.0874L29.0733 21.6963L24.2253 24.8716L33.9995 39.2146Z" fill="#8B949E"/>
<path d="M22.0712 32.9658C22.0712 32.0981 21.2941 31.3921 20.3394 31.3921H19.6611C18.7064 31.3921 17.9288 32.0981 17.9288 32.9658V37.0537H22.0712V32.9658Z" fill="#8B949E"/>
<path d="M13.5309 17.0738C13.429 17.5162 13.3682 17.9678 13.3682 18.422V23.3189L16.937 20.9809C16.7361 20.5566 16.6213 20.0854 16.6213 19.5879C16.6213 18.6321 17.0369 17.7711 17.696 17.165L16.3684 15.2158L13.5309 17.0738Z" fill="#8B949E"/>
<path d="M27.3265 42.1562H27.1628L27.1602 42.1568L27.1576 42.1562H12.844L12.8409 42.1568L12.8388 42.1562H12.673C10.5152 42.1562 8.75919 43.902 8.75919 46.0479V46.2075H12.8409H27.1602H31.2403V46.0479C31.2403 43.902 29.4848 42.1562 27.3265 42.1562Z" fill="#8B949E"/>
<path d="M40 5.87762L38.1147 3.11016C37.369 2.01893 35.857 1.7254 34.7416 2.45614L33.2986 3.40163L34.9095 5.76639C35.0737 6.0074 35.0114 6.33544 34.7704 6.49971C34.6798 6.56151 34.5763 6.59086 34.4743 6.59086C34.3059 6.59086 34.1401 6.51001 34.0381 6.36067L32.4165 3.97943L29.8869 5.6361L31.4993 8.00034C31.6636 8.24135 31.6013 8.56887 31.3608 8.73315C31.2696 8.79546 31.1666 8.82481 31.0642 8.82481C30.8958 8.82481 30.7299 8.74396 30.628 8.59462L29.0048 6.21442L26.4758 7.87057L28.0876 10.2358C28.2519 10.4763 28.1896 10.8044 27.9491 10.9686C27.8579 11.0304 27.7549 11.0603 27.6525 11.0603C27.4841 11.0603 27.3183 10.9795 27.2163 10.8296L25.5936 8.44888L22.1284 10.7189L25.3624 15.4649L40 5.87762Z" fill="#8B949E"/>
<path d="M11.9103 28.9796C11.746 28.7391 11.8083 28.4111 12.0488 28.2468C12.2898 28.083 12.6179 28.1453 12.7816 28.3853L14.4043 30.7655L17.8706 28.495L14.636 23.749L0 33.3378L1.88532 36.1043C2.62894 37.196 4.14193 37.489 5.25787 36.7583L6.70031 35.8133L5.08845 33.4485C4.92468 33.2075 4.98648 32.8795 5.22749 32.7157C5.4685 32.5525 5.79602 32.6138 5.95978 32.8543L7.58246 35.2355L10.1115 33.5783L8.49963 31.2136C8.33586 30.9725 8.39766 30.6445 8.63867 30.4807C8.87916 30.317 9.2072 30.3788 9.37096 30.6193L10.9942 33.0005L13.5222 31.3438L11.9103 28.9796Z" fill="#8B949E"/>
<path d="M19.9989 16.266C20.9841 16.266 21.8688 16.6852 22.4868 17.3485L24.4802 16.043L22.0908 12.5365C21.5712 12.3965 21.0366 12.3213 20.4985 12.3213H19.5025C18.3588 12.3213 17.2593 12.6354 16.2922 13.2312L18.5745 16.5801C19.0081 16.3808 19.4896 16.266 19.9989 16.266Z" fill="#8B949E"/>
<path d="M15.1346 13.4053C15.1335 13.4042 15.132 13.4032 15.132 13.4032C15.131 13.4017 15.131 13.4001 15.1299 13.3986L5.99843 0L3.15681 1.86317C2.6166 2.21644 2.25097 2.7551 2.12635 3.37925C2.00378 3.99516 2.1315 4.62085 2.48683 5.14149L3.46013 6.56899L5.89389 4.97515C6.13799 4.81551 6.46448 4.884 6.62361 5.12707C6.78325 5.37117 6.71476 5.69766 6.47169 5.8573L4.05389 7.44033L5.7394 9.91271L8.17316 8.31887C8.41726 8.15923 8.74375 8.22824 8.90339 8.4713C9.06303 8.71488 8.99454 9.04189 8.75096 9.20153L6.33368 10.7846L8.01918 13.2559L10.4519 11.6631C10.6965 11.5035 11.0225 11.5714 11.1816 11.815C11.3413 12.0586 11.2733 12.3856 11.0297 12.5447L8.61295 14.1278L10.9252 17.5183L15.7742 14.3441L15.1346 13.4053Z" fill="#8B949E"/>
</svg>
