<svg width="77" height="80" viewBox="0 0 77 80" fill="none" xmlns="http://www.w3.org/2000/svg">
<path d="M70.733 78.8963C69.953 78.8963 69.9531 78.7209 69.1666 78.7209C68.3867 78.7209 68.3867 78.9353 67.6003 78.9353C66.8203 78.9353 66.8203 78.8248 66.0339 78.8248C65.2539 78.8248 65.2539 78.9678 64.4675 78.9678C63.6811 78.9678 63.6875 79.0393 62.9011 79.0393C62.1212 79.0393 62.1212 78.8314 61.3347 78.8314C60.5548 78.8314 60.5548 78.8508 59.7683 78.8508C58.9884 78.8508 58.9884 78.7664 58.202 78.7664C57.422 78.7664 57.422 78.9808 56.6356 78.9808C55.8557 78.9808 55.8557 78.8183 55.0692 78.8183C54.2893 78.8183 54.2893 79.0328 53.5029 79.0328C52.7164 79.0328 52.7164 79.0328 51.9365 79.0328C51.1565 79.0328 51.1566 79.1043 50.3701 79.1043C49.5902 79.1043 49.5902 79.0003 48.8037 79.0003C48.0238 79.0003 48.0238 79.0328 47.2374 79.0328C46.4509 79.0328 46.4509 79.0198 45.671 79.0198C44.891 79.0198 44.891 78.8833 44.1046 78.8833C43.3247 78.8833 43.3247 78.8833 42.5382 78.8833C41.7518 78.8833 41.7518 78.6234 40.9718 78.6234C40.1919 78.6234 40.1919 79.0328 39.4055 79.0328C38.6255 79.0328 38.6255 79.0393 37.8456 79.0393C37.0657 79.0393 37.0657 78.9028 36.2792 78.9028C35.4993 78.9028 35.4993 78.6234 34.7128 78.6234C33.9329 78.6234 33.9329 79.0458 33.1465 79.0458C32.3665 79.0458 32.3665 78.8768 31.5801 78.8768C30.8001 78.8768 30.8002 78.8053 30.0137 78.8053C29.2273 78.8053 29.2273 78.9548 28.4473 78.9548C27.6674 78.9548 27.6674 78.7143 26.881 78.7143C26.0945 78.7143 26.0945 78.8638 25.3146 78.8638C24.5282 78.8638 24.5281 78.9093 23.7482 78.9093C22.9618 78.9093 22.9618 78.9223 22.1818 78.9223C21.3954 78.9223 21.3954 78.6234 20.6154 78.6234C19.829 78.6234 19.829 78.6104 19.0491 78.6104C18.2626 78.6104 18.2626 78.9873 17.4827 78.9873C16.7027 78.9873 16.7028 78.9093 15.9163 78.9093C15.1299 78.9093 15.1299 78.7728 14.3499 78.7728C13.5635 78.7728 13.5635 78.9288 12.7836 78.9288C11.9971 78.9288 11.9972 78.7403 11.2172 78.7403C10.4308 78.7403 10.4308 78.7274 9.65082 78.7274C8.86438 78.7274 8.86439 78.8898 8.07795 78.8898C7.29151 78.8898 7.29152 78.7274 6.50509 78.7274C5.93963 78.7274 5.40014 78.7534 4.88668 78.5844C4.35372 78.4154 3.98975 77.9994 3.54779 77.6744C3.09932 77.3495 2.76138 77.005 2.4364 76.563C2.11793 76.1211 1.58496 75.7896 1.40947 75.2631C1.24048 74.7497 1 74.1712 1 73.6058C1 72.8258 1.41598 72.8258 1.41598 72.0459C1.41598 71.2659 1.02598 71.2659 1.02598 70.486C1.02598 69.7061 1.36397 69.7061 1.36397 68.9261C1.36397 68.1462 1.42899 68.1462 1.42899 67.3662C1.42899 66.5863 1.221 66.5863 1.221 65.8064C1.221 65.0264 1.10401 65.0264 1.10401 64.2465C1.10401 63.4666 1.12349 63.4665 1.12349 62.6866C1.12349 61.9067 1.37048 61.9067 1.37048 61.1267C1.37048 60.3468 1.31196 60.3468 1.31196 59.5669C1.31196 58.7869 1.48746 58.7869 1.48746 58.007C1.48746 57.2271 1.11699 57.2271 1.11699 56.4471C1.11699 55.6672 1.44847 55.6672 1.44847 54.8872C1.44847 54.1073 1.44847 54.1073 1.44847 53.3274C1.44847 52.5474 1.36397 52.5474 1.36397 51.7675C1.36397 50.9875 1.0455 50.9875 1.0455 50.2076C1.0455 49.4277 1.35746 49.4277 1.35746 48.6477C1.35746 47.8678 1.42248 47.8678 1.42248 47.0878C1.42248 46.3079 1.46148 46.3079 1.46148 45.528C1.46148 44.748 1.01952 44.748 1.01952 43.9681C1.01952 43.1882 1.40947 43.1882 1.40947 42.4082C1.40947 41.6283 1.31196 41.6283 1.31196 40.8484C1.31196 40.0684 1.01301 40.0684 1.01301 39.2885C1.01301 38.5085 1.35746 38.5085 1.35746 37.7286C1.35746 36.9486 1.34449 36.9487 1.34449 36.1687C1.34449 35.3888 1.21449 35.3888 1.21449 34.6088C1.21449 33.8289 1.05851 33.8289 1.05851 33.049C1.05851 32.269 1.14301 32.269 1.14301 31.4891C1.14301 30.7091 1.03249 30.7091 1.03249 29.9292C1.03249 29.1493 1.40296 29.1493 1.40296 28.3693C1.40296 27.5894 1.51345 27.5894 1.51345 26.8095C1.51345 26.0295 1.07148 26.0295 1.07148 25.2496C1.07148 24.4696 1.29248 24.4696 1.29248 23.6897C1.29248 22.9098 1.34449 22.9098 1.34449 22.1298C1.34449 21.3499 1.48096 21.3499 1.48096 20.5699C1.48096 19.79 1.50047 19.79 1.50047 19.0101C1.50047 18.2301 1.10401 18.2301 1.10401 17.4502C1.10401 16.6703 1 16.6702 1 15.8903C1 15.1104 1.07148 15.1104 1.07148 14.3304C1.07148 13.5505 1.24048 13.5505 1.24048 12.7706C1.24048 11.9906 1.38995 11.9906 1.38995 11.2107C1.38995 10.4307 1.33148 10.4307 1.33148 9.64431C1.33148 8.86437 1.18847 8.86437 1.18847 8.07793C1.18847 7.29799 1 7.29799 1 6.51155C1 5.9461 1.35096 5.40014 1.51345 4.88668C1.68243 4.35372 1.94243 3.86626 2.2609 3.4243C2.58588 2.97583 2.93037 2.52736 3.37883 2.20239C3.8208 1.88391 4.39272 1.81893 4.92568 1.64344C5.43914 1.47446 5.93963 1.05199 6.50509 1.05199C7.28502 1.05199 7.28501 1.46146 8.07144 1.46146C8.85138 1.46146 8.85137 1.26646 9.6378 1.26646C10.4177 1.26646 10.4178 1.14948 11.2042 1.14948C11.9841 1.14948 11.9841 1.23397 12.7706 1.23397C13.557 1.23397 13.5505 1.29246 14.337 1.29246C15.1169 1.29246 15.1169 1.07799 15.9033 1.07799C16.6833 1.07799 16.6833 1.28596 17.4697 1.28596C18.2497 1.28596 18.2496 1.49395 19.0361 1.49395C19.816 1.49395 19.816 1.36397 20.6025 1.36397C21.3824 1.36397 21.3824 1.48096 22.1688 1.48096C22.9488 1.48096 22.9488 1.26646 23.7352 1.26646C24.5216 1.26646 24.5217 1.13648 25.3016 1.13648C26.0815 1.13648 26.0815 1.20797 26.8679 1.20797C27.6479 1.20797 27.6479 1.48096 28.4343 1.48096C29.2143 1.48096 29.2143 1.34447 30.0007 1.34447C30.7871 1.34447 30.7872 1.50045 31.5671 1.50045C32.347 1.50045 32.347 1.31847 33.1335 1.31847C33.9134 1.31847 33.9134 1.38347 34.6998 1.38347C35.4863 1.38347 35.4863 1.02598 36.2662 1.02598C37.0462 1.02598 37.0461 1.03249 37.8326 1.03249C38.6125 1.03249 38.6125 1.20797 39.3925 1.20797C40.1724 1.20797 40.1724 1.06498 40.9588 1.06498C41.7388 1.06498 41.7388 1.22747 42.5252 1.22747C43.3052 1.22747 43.3052 1.43545 44.0916 1.43545C44.8715 1.43545 44.8715 1.16249 45.658 1.16249C46.4379 1.16249 46.4379 1.37696 47.2243 1.37696C48.0108 1.37696 48.0108 1.19498 48.7907 1.19498C49.5707 1.19498 49.5707 1.039 50.3571 1.039C51.1435 1.039 51.1435 1.37696 51.9235 1.37696C52.7099 1.37696 52.7099 1.11048 53.4899 1.11048C54.2763 1.11048 54.2763 1.16249 55.0562 1.16249C55.8427 1.16249 55.8427 1.48096 56.6226 1.48096C57.4091 1.48096 57.409 1 58.189 1C58.9754 1 58.9754 1.16897 59.7554 1.16897C60.5353 1.16897 60.5353 1.46796 61.3217 1.46796C62.1082 1.46796 62.1082 1.35096 62.8881 1.35096C63.6746 1.35096 63.6746 1.15598 64.4545 1.15598C65.2409 1.15598 65.2409 1.27947 66.0208 1.27947C66.8073 1.27947 66.8073 1.35746 67.5872 1.35746C68.3737 1.35746 68.3737 1.31847 69.1601 1.31847C69.9466 1.31847 69.9465 1.48746 70.733 1.48746C71.2984 1.48746 71.8704 1.25998 72.3839 1.42246C72.9168 1.59145 73.5343 1.72143 73.9697 2.0399C74.4182 2.36488 74.7757 2.87834 75.0941 3.32681C75.4126 3.76877 75.7441 4.28223 75.9196 4.80869C76.0886 5.32215 76.1926 5.9266 76.1926 6.49205C76.1926 7.27199 76.0431 7.27199 76.0431 8.05193C76.0431 8.83187 75.8351 8.83188 75.8351 9.61182C75.8351 10.3918 75.9131 10.3918 75.9131 11.1717C75.9131 11.9516 75.9261 11.9516 75.9261 12.7316C75.9261 13.5115 75.9521 13.5115 75.9521 14.2914C75.9521 15.0714 75.7896 15.0714 75.7896 15.8513C75.7896 16.6312 75.7311 16.6313 75.7311 17.4112C75.7311 18.1911 76.1991 18.1911 76.1991 18.9711C76.1991 19.751 76.1666 19.751 76.1666 20.5309C76.1666 21.3109 75.8091 21.3109 75.8091 22.0908C75.8091 22.8708 76.2056 22.8708 76.2056 23.6507C76.2056 24.4306 75.8936 24.4306 75.8936 25.2106C75.8936 25.9905 75.7831 25.9905 75.7831 26.7705C75.7831 27.5504 76.1211 27.5504 76.1211 28.3303C76.1211 29.1103 75.8806 29.1103 75.8806 29.8902C75.8806 30.6701 75.9846 30.6701 75.9846 31.4501C75.9846 32.23 75.7506 32.23 75.7506 33.01C75.7506 33.7899 75.7181 33.7899 75.7181 34.5698C75.7181 35.3498 75.8676 35.3498 75.8676 36.1297C75.8676 36.9097 76.1731 36.9097 76.1731 37.6896C76.1731 38.4695 75.7441 38.4695 75.7441 39.2495C75.7441 40.0294 75.7571 40.0294 75.7571 40.8094C75.7571 41.5893 76.0041 41.5893 76.0041 42.3692C76.0041 43.1492 76.0041 43.1492 76.0041 43.9291C76.0041 44.709 76.1016 44.709 76.1016 45.489C76.1016 46.2689 76.1276 46.2689 76.1276 47.0488C76.1276 47.8288 75.9521 47.8288 75.9521 48.6087C75.9521 49.3887 75.7311 49.3887 75.7311 50.1686C75.7311 50.9486 76.1991 50.9485 76.1991 51.7285C76.1991 52.5084 75.7506 52.5084 75.7506 53.2884C75.7506 54.0683 75.8611 54.0683 75.8611 54.8482C75.8611 55.6282 76.0106 55.6282 76.0106 56.4081C76.0106 57.1881 76.2251 57.1881 76.2251 57.968C76.2251 58.7479 75.7636 58.7479 75.7636 59.5279C75.7636 60.3078 75.8871 60.3078 75.8871 61.0877C75.8871 61.8677 75.8221 61.8677 75.8221 62.6476C75.8221 63.4276 75.7896 63.4276 75.7896 64.2075C75.7896 64.9874 75.7571 64.9874 75.7571 65.7674C75.7571 66.5473 75.9651 66.5473 75.9651 67.3273C75.9651 68.1072 76.0041 68.1072 76.0041 68.8871C76.0041 69.6671 75.8676 69.6671 75.8676 70.4535C75.8676 71.2334 75.8221 71.2334 75.8221 72.0199C75.8221 72.8063 76.1471 72.7998 76.1471 73.5863C76.1471 74.1517 75.7506 74.6522 75.5816 75.1656C75.4126 75.6986 75.2371 76.1926 74.9186 76.6345C74.5937 77.083 74.3077 77.5834 73.8657 77.9084C73.4238 78.2269 72.8128 78.2074 72.2864 78.3829C71.7794 78.5714 71.2984 78.8963 70.733 78.8963Z" fill="#29302C"/>
<path d="M70.733 78.8963C69.953 78.8963 69.9531 78.7209 69.1666 78.7209C68.3867 78.7209 68.3867 78.9353 67.6003 78.9353C66.8203 78.9353 66.8203 78.8248 66.0339 78.8248C65.2539 78.8248 65.2539 78.9678 64.4675 78.9678C63.6811 78.9678 63.6875 79.0393 62.9011 79.0393C62.1212 79.0393 62.1212 78.8314 61.3347 78.8314C60.5548 78.8314 60.5548 78.8508 59.7683 78.8508C58.9884 78.8508 58.9884 78.7664 58.202 78.7664C57.422 78.7664 57.422 78.9808 56.6356 78.9808C55.8557 78.9808 55.8557 78.8183 55.0692 78.8183C54.2893 78.8183 54.2893 79.0328 53.5029 79.0328C52.7164 79.0328 52.7164 79.0328 51.9365 79.0328C51.1565 79.0328 51.1566 79.1043 50.3701 79.1043C49.5902 79.1043 49.5902 79.0003 48.8037 79.0003C48.0238 79.0003 48.0238 79.0328 47.2374 79.0328C46.4509 79.0328 46.4509 79.0198 45.671 79.0198C44.891 79.0198 44.891 78.8833 44.1046 78.8833C43.3247 78.8833 43.3247 78.8833 42.5382 78.8833C41.7518 78.8833 41.7518 78.6234 40.9718 78.6234C40.1919 78.6234 40.1919 79.0328 39.4055 79.0328C38.6255 79.0328 38.6255 79.0393 37.8456 79.0393C37.0657 79.0393 37.0657 78.9028 36.2792 78.9028C35.4993 78.9028 35.4993 78.6234 34.7128 78.6234C33.9329 78.6234 33.9329 79.0458 33.1465 79.0458C32.3665 79.0458 32.3665 78.8768 31.5801 78.8768C30.8001 78.8768 30.8002 78.8053 30.0137 78.8053C29.2273 78.8053 29.2273 78.9548 28.4473 78.9548C27.6674 78.9548 27.6674 78.7143 26.881 78.7143C26.0945 78.7143 26.0945 78.8638 25.3146 78.8638C24.5282 78.8638 24.5281 78.9093 23.7482 78.9093C22.9618 78.9093 22.9618 78.9223 22.1818 78.9223C21.3954 78.9223 21.3954 78.6234 20.6154 78.6234C19.829 78.6234 19.829 78.6104 19.0491 78.6104C18.2626 78.6104 18.2626 78.9873 17.4827 78.9873C16.7027 78.9873 16.7028 78.9093 15.9163 78.9093C15.1299 78.9093 15.1299 78.7728 14.3499 78.7728C13.5635 78.7728 13.5635 78.9288 12.7836 78.9288C11.9971 78.9288 11.9972 78.7403 11.2172 78.7403C10.4308 78.7403 10.4308 78.7274 9.65082 78.7274C8.86438 78.7274 8.86439 78.8898 8.07795 78.8898C7.29151 78.8898 7.29152 78.7274 6.50509 78.7274C5.93963 78.7274 5.40014 78.7534 4.88668 78.5844C4.35372 78.4154 3.98975 77.9994 3.54779 77.6744C3.09932 77.3495 2.76138 77.005 2.4364 76.563C2.11793 76.1211 1.58496 75.7896 1.40947 75.2631C1.24048 74.7497 1 74.1712 1 73.6058C1 72.8258 1.41598 72.8258 1.41598 72.0459C1.41598 71.2659 1.02598 71.2659 1.02598 70.486C1.02598 69.7061 1.36397 69.7061 1.36397 68.9261C1.36397 68.1462 1.42899 68.1462 1.42899 67.3662C1.42899 66.5863 1.221 66.5863 1.221 65.8064C1.221 65.0264 1.10401 65.0264 1.10401 64.2465C1.10401 63.4666 1.12349 63.4665 1.12349 62.6866C1.12349 61.9067 1.37048 61.9067 1.37048 61.1267C1.37048 60.3468 1.31196 60.3468 1.31196 59.5669C1.31196 58.7869 1.48746 58.7869 1.48746 58.007C1.48746 57.2271 1.11699 57.2271 1.11699 56.4471C1.11699 55.6672 1.44847 55.6672 1.44847 54.8872C1.44847 54.1073 1.44847 54.1073 1.44847 53.3274C1.44847 52.5474 1.36397 52.5474 1.36397 51.7675C1.36397 50.9875 1.0455 50.9875 1.0455 50.2076C1.0455 49.4277 1.35746 49.4277 1.35746 48.6477C1.35746 47.8678 1.42248 47.8678 1.42248 47.0878C1.42248 46.3079 1.46148 46.3079 1.46148 45.528C1.46148 44.748 1.01952 44.748 1.01952 43.9681C1.01952 43.1882 1.40947 43.1882 1.40947 42.4082C1.40947 41.6283 1.31196 41.6283 1.31196 40.8484C1.31196 40.0684 1.01301 40.0684 1.01301 39.2885C1.01301 38.5085 1.35746 38.5085 1.35746 37.7286C1.35746 36.9486 1.34449 36.9487 1.34449 36.1687C1.34449 35.3888 1.21449 35.3888 1.21449 34.6088C1.21449 33.8289 1.05851 33.8289 1.05851 33.049C1.05851 32.269 1.14301 32.269 1.14301 31.4891C1.14301 30.7091 1.03249 30.7091 1.03249 29.9292C1.03249 29.1493 1.40296 29.1493 1.40296 28.3693C1.40296 27.5894 1.51345 27.5894 1.51345 26.8095C1.51345 26.0295 1.07148 26.0295 1.07148 25.2496C1.07148 24.4696 1.29248 24.4696 1.29248 23.6897C1.29248 22.9098 1.34449 22.9098 1.34449 22.1298C1.34449 21.3499 1.48096 21.3499 1.48096 20.5699C1.48096 19.79 1.50047 19.79 1.50047 19.0101C1.50047 18.2301 1.10401 18.2301 1.10401 17.4502C1.10401 16.6703 1 16.6702 1 15.8903C1 15.1104 1.07148 15.1104 1.07148 14.3304C1.07148 13.5505 1.24048 13.5505 1.24048 12.7706C1.24048 11.9906 1.38995 11.9906 1.38995 11.2107C1.38995 10.4307 1.33148 10.4307 1.33148 9.64431C1.33148 8.86437 1.18847 8.86437 1.18847 8.07793C1.18847 7.29799 1 7.29799 1 6.51155C1 5.9461 1.35096 5.40014 1.51345 4.88668C1.68243 4.35372 1.94243 3.86626 2.2609 3.4243C2.58588 2.97583 2.93037 2.52736 3.37883 2.20239C3.8208 1.88391 4.39272 1.81893 4.92568 1.64344C5.43914 1.47446 5.93963 1.05199 6.50509 1.05199C7.28502 1.05199 7.28501 1.46146 8.07144 1.46146C8.85138 1.46146 8.85137 1.26646 9.6378 1.26646C10.4177 1.26646 10.4178 1.14948 11.2042 1.14948C11.9841 1.14948 11.9841 1.23397 12.7706 1.23397C13.557 1.23397 13.5505 1.29246 14.337 1.29246C15.1169 1.29246 15.1169 1.07799 15.9033 1.07799C16.6833 1.07799 16.6833 1.28596 17.4697 1.28596C18.2497 1.28596 18.2496 1.49395 19.0361 1.49395C19.816 1.49395 19.816 1.36397 20.6025 1.36397C21.3824 1.36397 21.3824 1.48096 22.1688 1.48096C22.9488 1.48096 22.9488 1.26646 23.7352 1.26646C24.5216 1.26646 24.5217 1.13648 25.3016 1.13648C26.0815 1.13648 26.0815 1.20797 26.8679 1.20797C27.6479 1.20797 27.6479 1.48096 28.4343 1.48096C29.2143 1.48096 29.2143 1.34447 30.0007 1.34447C30.7871 1.34447 30.7872 1.50045 31.5671 1.50045C32.347 1.50045 32.347 1.31847 33.1335 1.31847C33.9134 1.31847 33.9134 1.38347 34.6998 1.38347C35.4863 1.38347 35.4863 1.02598 36.2662 1.02598C37.0462 1.02598 37.0461 1.03249 37.8326 1.03249C38.6125 1.03249 38.6125 1.20797 39.3925 1.20797C40.1724 1.20797 40.1724 1.06498 40.9588 1.06498C41.7388 1.06498 41.7388 1.22747 42.5252 1.22747C43.3052 1.22747 43.3052 1.43545 44.0916 1.43545C44.8715 1.43545 44.8715 1.16249 45.658 1.16249C46.4379 1.16249 46.4379 1.37696 47.2243 1.37696C48.0108 1.37696 48.0108 1.19498 48.7907 1.19498C49.5707 1.19498 49.5707 1.039 50.3571 1.039C51.1435 1.039 51.1435 1.37696 51.9235 1.37696C52.7099 1.37696 52.7099 1.11048 53.4899 1.11048C54.2763 1.11048 54.2763 1.16249 55.0562 1.16249C55.8427 1.16249 55.8427 1.48096 56.6226 1.48096C57.4091 1.48096 57.409 1 58.189 1C58.9754 1 58.9754 1.16897 59.7554 1.16897C60.5353 1.16897 60.5353 1.46796 61.3217 1.46796C62.1082 1.46796 62.1082 1.35096 62.8881 1.35096C63.6746 1.35096 63.6746 1.15598 64.4545 1.15598C65.2409 1.15598 65.2409 1.27947 66.0208 1.27947C66.8073 1.27947 66.8073 1.35746 67.5872 1.35746C68.3737 1.35746 68.3737 1.31847 69.1601 1.31847C69.9466 1.31847 69.9465 1.48746 70.733 1.48746C71.2984 1.48746 71.8704 1.25998 72.3839 1.42246C72.9168 1.59145 73.5343 1.72143 73.9697 2.0399C74.4182 2.36488 74.7757 2.87834 75.0941 3.32681C75.4126 3.76877 75.7441 4.28223 75.9196 4.80869C76.0886 5.32215 76.1926 5.9266 76.1926 6.49205C76.1926 7.27199 76.0431 7.27199 76.0431 8.05193C76.0431 8.83187 75.8351 8.83188 75.8351 9.61182C75.8351 10.3918 75.9131 10.3918 75.9131 11.1717C75.9131 11.9516 75.9261 11.9516 75.9261 12.7316C75.9261 13.5115 75.9521 13.5115 75.9521 14.2914C75.9521 15.0714 75.7896 15.0714 75.7896 15.8513C75.7896 16.6312 75.7311 16.6313 75.7311 17.4112C75.7311 18.1911 76.1991 18.1911 76.1991 18.9711C76.1991 19.751 76.1666 19.751 76.1666 20.5309C76.1666 21.3109 75.8091 21.3109 75.8091 22.0908C75.8091 22.8708 76.2056 22.8708 76.2056 23.6507C76.2056 24.4306 75.8936 24.4306 75.8936 25.2106C75.8936 25.9905 75.7831 25.9905 75.7831 26.7705C75.7831 27.5504 76.1211 27.5504 76.1211 28.3303C76.1211 29.1103 75.8806 29.1103 75.8806 29.8902C75.8806 30.6701 75.9846 30.6701 75.9846 31.4501C75.9846 32.23 75.7506 32.23 75.7506 33.01C75.7506 33.7899 75.7181 33.7899 75.7181 34.5698C75.7181 35.3498 75.8676 35.3498 75.8676 36.1297C75.8676 36.9097 76.1731 36.9097 76.1731 37.6896C76.1731 38.4695 75.7441 38.4695 75.7441 39.2495C75.7441 40.0294 75.7571 40.0294 75.7571 40.8094C75.7571 41.5893 76.0041 41.5893 76.0041 42.3692C76.0041 43.1492 76.0041 43.1492 76.0041 43.9291C76.0041 44.709 76.1016 44.709 76.1016 45.489C76.1016 46.2689 76.1276 46.2689 76.1276 47.0488C76.1276 47.8288 75.9521 47.8288 75.9521 48.6087C75.9521 49.3887 75.7311 49.3887 75.7311 50.1686C75.7311 50.9486 76.1991 50.9485 76.1991 51.7285C76.1991 52.5084 75.7506 52.5084 75.7506 53.2884C75.7506 54.0683 75.8611 54.0683 75.8611 54.8482C75.8611 55.6282 76.0106 55.6282 76.0106 56.4081C76.0106 57.1881 76.2251 57.1881 76.2251 57.968C76.2251 58.7479 75.7636 58.7479 75.7636 59.5279C75.7636 60.3078 75.8871 60.3078 75.8871 61.0877C75.8871 61.8677 75.8221 61.8677 75.8221 62.6476C75.8221 63.4276 75.7896 63.4276 75.7896 64.2075C75.7896 64.9874 75.7571 64.9874 75.7571 65.7674C75.7571 66.5473 75.9651 66.5473 75.9651 67.3273C75.9651 68.1072 76.0041 68.1072 76.0041 68.8871C76.0041 69.6671 75.8676 69.6671 75.8676 70.4535C75.8676 71.2334 75.8221 71.2334 75.8221 72.0199C75.8221 72.8063 76.1471 72.7998 76.1471 73.5863C76.1471 74.1517 75.7506 74.6522 75.5816 75.1656C75.4126 75.6986 75.2371 76.1926 74.9186 76.6345C74.5937 77.083 74.3077 77.5834 73.8657 77.9084C73.4238 78.2269 72.8128 78.2074 72.2864 78.3829C71.7794 78.5714 71.2984 78.8963 70.733 78.8963Z" stroke="#161B18" stroke-miterlimit="10" stroke-linecap="round" stroke-linejoin="round"/>
<path d="M38.2615 12.7445C37.7156 12.751 37.1761 12.6731 36.6496 12.7511C36.1102 12.829 35.5253 12.738 35.0118 12.8875C34.4918 13.037 34.0109 13.349 33.5169 13.57C33.023 13.791 32.6005 14.1549 32.139 14.4344C31.6776 14.7139 31.3396 15.1494 30.9236 15.4873C30.5076 15.8253 30.1112 16.1568 29.7407 16.5533C29.3703 16.9432 28.9218 17.2552 28.6033 17.6972C28.2913 18.1326 28.1224 18.6526 27.8689 19.127C27.6154 19.6015 27.0564 19.946 26.8679 20.4594C26.6859 20.9599 26.855 21.5838 26.7315 22.1103C26.6145 22.6303 26.6145 23.1567 26.569 23.7027C26.504 24.4696 26.101 24.4371 26.036 25.1976C25.971 25.9645 26.1205 25.9775 26.0555 26.7379C25.9905 27.5049 25.9385 27.4984 25.8735 28.2653C25.8085 29.0323 25.828 29.0323 25.763 29.7992C25.698 30.5661 25.9775 30.5921 25.9125 31.3591C25.8475 32.126 25.6201 32.1065 25.5551 32.8735C25.4901 33.6404 25.6915 33.6599 25.62 34.4268C25.555 35.1938 24.9506 35.2523 25.4706 35.8177C25.9905 36.3832 26.0945 35.9022 26.8614 35.9022C27.6284 35.9022 27.6284 35.7657 28.4018 35.7657C29.1688 35.7657 29.1688 35.6942 29.9422 35.6942C30.7091 35.6942 30.7091 35.8567 31.4826 35.8567C32.256 35.8567 32.256 35.7852 33.023 35.7852C33.7964 35.7852 33.9914 36.4742 34.5308 35.9217C35.1093 35.3368 34.7063 35.1353 34.7453 34.3163C34.7843 33.4974 34.4918 33.4844 34.5243 32.659C34.5633 31.8335 34.9728 31.853 35.0053 31.0341C35.0443 30.2087 34.8363 30.2022 34.8753 29.3767C34.9143 28.5513 35.1353 28.5643 35.1678 27.7389C35.2068 26.9134 34.9793 26.9069 35.0183 26.0815C35.0573 25.2561 35.0248 25.2561 35.0703 24.4306C35.1223 23.8587 35.2718 23.2997 35.5642 22.8448C35.8697 22.3768 36.3572 22.0843 36.8447 21.8178C37.3191 21.5579 37.8261 21.5124 38.398 21.5059C38.4305 21.5059 38.424 21.3304 38.4565 21.3304C39.074 21.3304 39.6914 21.4344 40.1919 21.7203C40.7053 22.0193 41.3098 22.3898 41.6088 22.9032C41.8947 23.4037 41.9727 24.1057 41.9727 24.7231C41.9532 25.5225 41.7193 25.516 41.6998 26.3155C41.6738 27.1149 41.9987 27.1279 41.9727 27.9274C41.9467 28.7268 41.8493 28.7268 41.8298 29.5262C41.8038 30.3257 41.9403 30.3322 41.9208 31.1316C41.8948 31.931 41.4203 31.918 41.3943 32.724C41.3683 33.5299 41.7518 33.5364 41.7258 34.3423C41.6998 35.1483 40.8548 35.4667 41.3943 36.0647C41.9013 36.6237 42.2782 35.9347 43.0321 35.9347C43.7861 35.9347 43.7861 35.7787 44.54 35.7787C45.294 35.7787 45.294 36.0322 46.0479 36.0322C46.8019 36.0322 46.8019 35.7397 47.5558 35.7397C48.3097 35.7397 48.3097 35.8502 49.0637 35.8502C49.8176 35.8502 50.1556 36.5977 50.6755 36.0452C51.2215 35.4603 50.591 35.1483 50.591 34.3488C50.591 33.5494 50.786 33.5494 50.786 32.75C50.786 31.9505 50.786 31.9505 50.786 31.1446C50.786 30.3452 50.4546 30.3452 50.4546 29.5392C50.4546 28.7398 50.5066 28.7398 50.5066 27.9338C50.5066 27.1279 50.4676 27.1279 50.4676 26.3285C50.4676 25.5226 50.786 25.5225 50.786 24.7231C50.786 24.1837 50.6886 23.6312 50.6171 23.1047C50.5456 22.5718 50.3701 22.0453 50.2271 21.5319C50.0841 21.0119 49.6226 20.6154 49.4146 20.128C49.2067 19.634 49.0182 19.1595 48.7517 18.6981C48.4787 18.2366 48.3098 17.7232 47.9783 17.3072C47.6468 16.8847 47.2633 16.5208 46.8863 16.1503C46.5029 15.7733 46.0934 15.4548 45.6645 15.1364C45.242 14.8179 44.969 14.2329 44.5075 13.973C44.0461 13.713 43.4741 13.622 42.9737 13.4205C42.4797 13.2255 41.9273 13.219 41.4008 13.089C40.8873 12.959 40.4129 12.5756 39.8734 12.5106C39.3534 12.4456 38.801 12.7315 38.2615 12.7445Z" fill="#A4A5AB"/>
<path d="M38.2615 12.7445C37.7156 12.751 37.1761 12.6731 36.6496 12.7511C36.1102 12.829 35.5253 12.738 35.0118 12.8875C34.4918 13.037 34.0109 13.349 33.5169 13.57C33.023 13.791 32.6005 14.1549 32.139 14.4344C31.6776 14.7139 31.3396 15.1494 30.9236 15.4873C30.5076 15.8253 30.1112 16.1568 29.7407 16.5533C29.3703 16.9432 28.9218 17.2552 28.6033 17.6972C28.2913 18.1326 28.1224 18.6526 27.8689 19.127C27.6154 19.6015 27.0564 19.946 26.8679 20.4594C26.6859 20.9599 26.855 21.5838 26.7315 22.1103C26.6145 22.6303 26.6145 23.1567 26.569 23.7027C26.504 24.4696 26.101 24.4371 26.036 25.1976C25.971 25.9645 26.1205 25.9775 26.0555 26.7379C25.9905 27.5049 25.9385 27.4984 25.8735 28.2653C25.8085 29.0323 25.828 29.0323 25.763 29.7992C25.698 30.5661 25.9775 30.5921 25.9125 31.3591C25.8475 32.126 25.6201 32.1065 25.5551 32.8735C25.4901 33.6404 25.6915 33.6599 25.62 34.4268C25.555 35.1938 24.9506 35.2523 25.4706 35.8177C25.9905 36.3832 26.0945 35.9022 26.8614 35.9022C27.6284 35.9022 27.6284 35.7657 28.4018 35.7657C29.1688 35.7657 29.1688 35.6942 29.9422 35.6942C30.7091 35.6942 30.7091 35.8567 31.4826 35.8567C32.256 35.8567 32.256 35.7852 33.023 35.7852C33.7964 35.7852 33.9914 36.4742 34.5308 35.9217C35.1093 35.3368 34.7063 35.1353 34.7453 34.3163C34.7843 33.4974 34.4918 33.4844 34.5243 32.659C34.5633 31.8335 34.9728 31.853 35.0053 31.0341C35.0443 30.2087 34.8363 30.2022 34.8753 29.3767C34.9143 28.5513 35.1353 28.5643 35.1678 27.7389C35.2068 26.9134 34.9793 26.9069 35.0183 26.0815C35.0573 25.2561 35.0248 25.2561 35.0703 24.4306C35.1223 23.8587 35.2718 23.2997 35.5642 22.8448C35.8697 22.3768 36.3572 22.0843 36.8447 21.8178C37.3191 21.5579 37.8261 21.5124 38.398 21.5059C38.4305 21.5059 38.424 21.3304 38.4565 21.3304C39.074 21.3304 39.6914 21.4344 40.1919 21.7203C40.7053 22.0193 41.3098 22.3898 41.6088 22.9032C41.8947 23.4037 41.9727 24.1057 41.9727 24.7231C41.9532 25.5225 41.7193 25.516 41.6998 26.3155C41.6738 27.1149 41.9987 27.1279 41.9727 27.9274C41.9467 28.7268 41.8493 28.7268 41.8298 29.5262C41.8038 30.3257 41.9403 30.3322 41.9208 31.1316C41.8948 31.931 41.4203 31.918 41.3943 32.724C41.3683 33.5299 41.7518 33.5364 41.7258 34.3423C41.6998 35.1483 40.8548 35.4667 41.3943 36.0647C41.9013 36.6237 42.2782 35.9347 43.0321 35.9347C43.7861 35.9347 43.7861 35.7787 44.54 35.7787C45.294 35.7787 45.294 36.0322 46.0479 36.0322C46.8019 36.0322 46.8019 35.7397 47.5558 35.7397C48.3097 35.7397 48.3097 35.8502 49.0637 35.8502C49.8176 35.8502 50.1556 36.5977 50.6755 36.0452C51.2215 35.4603 50.591 35.1483 50.591 34.3488C50.591 33.5494 50.786 33.5494 50.786 32.75C50.786 31.9505 50.786 31.9505 50.786 31.1446C50.786 30.3452 50.4546 30.3452 50.4546 29.5392C50.4546 28.7398 50.5066 28.7398 50.5066 27.9338C50.5066 27.1279 50.4676 27.1279 50.4676 26.3285C50.4676 25.5226 50.786 25.5225 50.786 24.7231C50.786 24.1837 50.6886 23.6312 50.6171 23.1047C50.5456 22.5718 50.3701 22.0453 50.2271 21.5319C50.0841 21.0119 49.6226 20.6154 49.4146 20.128C49.2067 19.634 49.0182 19.1595 48.7517 18.6981C48.4787 18.2366 48.3098 17.7232 47.9783 17.3072C47.6468 16.8847 47.2633 16.5208 46.8863 16.1503C46.5029 15.7733 46.0934 15.4548 45.6645 15.1364C45.242 14.8179 44.969 14.2329 44.5075 13.973C44.0461 13.713 43.4741 13.622 42.9737 13.4205C42.4797 13.2255 41.9273 13.219 41.4008 13.089C40.8873 12.959 40.4129 12.5756 39.8734 12.5106C39.3534 12.4456 38.801 12.7315 38.2615 12.7445Z" stroke="#161B18" stroke-miterlimit="10" stroke-linecap="round" stroke-linejoin="round"/>
<path d="M21.285 61.6597C22.0779 61.6597 22.0779 61.6792 22.8709 61.6792C23.6638 61.6792 23.6638 61.7182 24.4567 61.7182C25.2497 61.7182 25.2497 61.6532 26.0426 61.6532C26.8355 61.6532 26.8355 61.4777 27.635 61.4777C28.4279 61.4777 28.4279 61.2697 29.2273 61.2697C30.0203 61.2697 30.0203 61.4972 30.8197 61.4972C31.6127 61.4972 31.6127 61.6142 32.4121 61.6142C33.205 61.6142 33.205 61.3997 34.0045 61.3997C34.7974 61.3997 34.7974 61.2827 35.5968 61.2827C36.3963 61.2827 36.3963 61.3802 37.1892 61.3802C37.9821 61.3802 37.9822 61.7117 38.7816 61.7117C39.581 61.7117 39.581 61.6662 40.374 61.6662C41.1669 61.6662 41.1669 61.6662 41.9664 61.6662C42.7658 61.6662 42.7658 61.7052 43.5587 61.7052C44.3581 61.7052 44.3581 61.4972 45.1511 61.4972C45.944 61.4972 45.944 61.6012 46.7435 61.6012C47.5364 61.6012 47.5364 61.2242 48.3358 61.2242C49.1353 61.2242 49.1353 61.4517 49.9282 61.4517C50.7277 61.4517 50.7276 61.2372 51.5206 61.2372C52.32 61.2372 52.32 61.3217 53.1129 61.3217C53.9124 61.3217 53.9124 61.4647 54.7118 61.4647C55.5113 61.4647 55.5112 61.4517 56.3107 61.4517C56.8176 61.4517 57.2856 61.3412 57.7276 61.1592C58.1826 60.9708 58.501 60.6133 58.8455 60.2753C59.19 59.9308 59.5735 59.6254 59.762 59.1704C59.9439 58.7284 60.2299 58.2475 60.2299 57.7405C60.2299 56.9736 59.9179 56.9735 59.9179 56.2066C59.9179 55.4397 60.2624 55.4397 60.2624 54.6792C60.2624 53.9123 60.0739 53.9123 60.0739 53.1454C60.0739 52.3784 59.9829 52.3784 59.9829 51.618C59.9829 50.851 60.0804 50.851 60.0804 50.0841C60.0804 49.3172 59.9179 49.3172 59.9179 48.5502C59.9179 47.7833 60.0089 47.7833 60.0089 47.0229C60.0089 46.2559 59.9374 46.2559 59.9374 45.489C59.9374 44.722 60.1259 44.722 60.1259 43.9551C60.1259 43.1882 60.0934 43.1881 60.0934 42.4212C60.0934 41.6543 59.8854 41.6543 59.8854 40.8873C59.8854 40.1204 59.8724 40.1204 59.8724 39.3534C59.8724 38.5865 59.8789 38.5865 59.8789 37.8196C59.8789 37.3126 59.8659 36.8642 59.6839 36.4222C59.4954 35.9672 59.2225 35.6033 58.878 35.2588C58.5335 34.9143 58.1371 34.7128 57.6821 34.5243C57.2401 34.3423 56.8242 33.9589 56.3172 33.9589C55.5243 33.9589 55.5243 33.9979 54.7313 33.9979C53.9384 33.9979 53.9384 33.8354 53.1454 33.8354C52.3525 33.8354 52.3525 34.2644 51.5596 34.2644C50.7666 34.2644 50.7667 33.9784 49.9672 33.9784C49.1743 33.9784 49.1743 34.2254 48.3748 34.2254C47.5819 34.2254 47.5819 34.2904 46.7825 34.2904C45.9895 34.2904 45.9895 34.1019 45.1901 34.1019C44.3971 34.1019 44.3971 34.2968 43.5977 34.2968C42.8048 34.2968 42.8048 33.9459 42.0053 33.9459C41.2059 33.9459 41.2059 34.2513 40.413 34.2513C39.62 34.2513 39.62 34.3163 38.8206 34.3163C38.0211 34.3163 38.0211 34.1799 37.2282 34.1799C36.4353 34.1799 36.4353 34.0304 35.6358 34.0304C34.8364 34.0304 34.8364 34.2839 34.0435 34.2839C33.244 34.2839 33.244 33.9329 32.4511 33.9329C31.6582 33.9329 31.6581 33.9719 30.8587 33.9719C30.0658 33.9719 30.0658 34.2839 29.2663 34.2839C28.4669 34.2839 28.4669 34.1214 27.6739 34.1214C26.8745 34.1214 26.8745 34.1409 26.0816 34.1409C25.2822 34.1409 25.2822 33.9719 24.4892 33.9719C23.6898 33.9719 23.6898 34.3163 22.8903 34.3163C22.0909 34.3163 22.0909 34.1409 21.2915 34.1409C20.7845 34.1409 20.3685 34.3358 19.9266 34.5243C19.4716 34.7128 19.0297 34.8688 18.6852 35.2133C18.3407 35.5577 17.9702 35.9087 17.7817 36.3702C17.5998 36.8121 17.4698 37.3191 17.4698 37.8261C17.4698 38.593 17.4438 38.593 17.4438 39.36C17.4438 40.1269 17.6128 40.1269 17.6128 40.8873C17.6128 41.6543 17.6193 41.6543 17.6193 42.4212C17.6193 43.1881 17.7297 43.1881 17.7297 43.9486C17.7297 44.7155 17.3853 44.7155 17.3853 45.4825C17.3853 46.2494 17.3918 46.2494 17.3918 47.0163C17.3918 47.7833 17.8207 47.7833 17.8207 48.5437C17.8207 49.3107 17.4958 49.3107 17.4958 50.0776C17.4958 50.8445 17.3788 50.8445 17.3788 51.6115C17.3788 52.3784 17.6842 52.3784 17.6842 53.1454C17.6842 53.9123 17.5478 53.9123 17.5478 54.6792C17.5478 55.4462 17.6128 55.4462 17.6128 56.2131C17.6128 56.9801 17.4503 56.9801 17.4503 57.747C17.4503 58.254 17.5868 58.7674 17.7752 59.2094C17.9637 59.6644 18.2562 60.1128 18.6007 60.4573C18.9452 60.8018 19.4261 61.0032 19.8811 61.1982C20.297 61.3737 20.778 61.6597 21.285 61.6597Z" fill="white"/>
<path d="M21.285 61.6597C22.0779 61.6597 22.0779 61.6792 22.8709 61.6792C23.6638 61.6792 23.6638 61.7182 24.4567 61.7182C25.2497 61.7182 25.2497 61.6532 26.0426 61.6532C26.8355 61.6532 26.8355 61.4777 27.635 61.4777C28.4279 61.4777 28.4279 61.2697 29.2273 61.2697C30.0203 61.2697 30.0203 61.4972 30.8197 61.4972C31.6127 61.4972 31.6127 61.6142 32.4121 61.6142C33.205 61.6142 33.205 61.3997 34.0045 61.3997C34.7974 61.3997 34.7974 61.2827 35.5968 61.2827C36.3963 61.2827 36.3963 61.3802 37.1892 61.3802C37.9821 61.3802 37.9822 61.7117 38.7816 61.7117C39.581 61.7117 39.581 61.6662 40.374 61.6662C41.1669 61.6662 41.1669 61.6662 41.9664 61.6662C42.7658 61.6662 42.7658 61.7052 43.5587 61.7052C44.3581 61.7052 44.3581 61.4972 45.1511 61.4972C45.944 61.4972 45.944 61.6012 46.7435 61.6012C47.5364 61.6012 47.5364 61.2242 48.3358 61.2242C49.1353 61.2242 49.1353 61.4517 49.9282 61.4517C50.7277 61.4517 50.7276 61.2372 51.5206 61.2372C52.32 61.2372 52.32 61.3217 53.1129 61.3217C53.9124 61.3217 53.9124 61.4647 54.7118 61.4647C55.5113 61.4647 55.5112 61.4517 56.3107 61.4517C56.8176 61.4517 57.2856 61.3412 57.7276 61.1592C58.1826 60.9708 58.501 60.6133 58.8455 60.2753C59.19 59.9308 59.5735 59.6254 59.762 59.1704C59.9439 58.7284 60.2299 58.2475 60.2299 57.7405C60.2299 56.9736 59.9179 56.9735 59.9179 56.2066C59.9179 55.4397 60.2624 55.4397 60.2624 54.6792C60.2624 53.9123 60.0739 53.9123 60.0739 53.1454C60.0739 52.3784 59.9829 52.3784 59.9829 51.618C59.9829 50.851 60.0804 50.851 60.0804 50.0841C60.0804 49.3172 59.9179 49.3172 59.9179 48.5502C59.9179 47.7833 60.0089 47.7833 60.0089 47.0229C60.0089 46.2559 59.9374 46.2559 59.9374 45.489C59.9374 44.722 60.1259 44.722 60.1259 43.9551C60.1259 43.1882 60.0934 43.1881 60.0934 42.4212C60.0934 41.6543 59.8854 41.6543 59.8854 40.8873C59.8854 40.1204 59.8724 40.1204 59.8724 39.3534C59.8724 38.5865 59.8789 38.5865 59.8789 37.8196C59.8789 37.3126 59.8659 36.8642 59.6839 36.4222C59.4954 35.9672 59.2225 35.6033 58.878 35.2588C58.5335 34.9143 58.1371 34.7128 57.6821 34.5243C57.2401 34.3423 56.8242 33.9589 56.3172 33.9589C55.5243 33.9589 55.5243 33.9979 54.7313 33.9979C53.9384 33.9979 53.9384 33.8354 53.1454 33.8354C52.3525 33.8354 52.3525 34.2644 51.5596 34.2644C50.7666 34.2644 50.7667 33.9784 49.9672 33.9784C49.1743 33.9784 49.1743 34.2254 48.3748 34.2254C47.5819 34.2254 47.5819 34.2904 46.7825 34.2904C45.9895 34.2904 45.9895 34.1019 45.1901 34.1019C44.3971 34.1019 44.3971 34.2968 43.5977 34.2968C42.8048 34.2968 42.8048 33.9459 42.0053 33.9459C41.2059 33.9459 41.2059 34.2513 40.413 34.2513C39.62 34.2513 39.62 34.3163 38.8206 34.3163C38.0211 34.3163 38.0211 34.1799 37.2282 34.1799C36.4353 34.1799 36.4353 34.0304 35.6358 34.0304C34.8364 34.0304 34.8364 34.2839 34.0435 34.2839C33.244 34.2839 33.244 33.9329 32.4511 33.9329C31.6582 33.9329 31.6581 33.9719 30.8587 33.9719C30.0658 33.9719 30.0658 34.2839 29.2663 34.2839C28.4669 34.2839 28.4669 34.1214 27.6739 34.1214C26.8745 34.1214 26.8745 34.1409 26.0816 34.1409C25.2822 34.1409 25.2822 33.9719 24.4892 33.9719C23.6898 33.9719 23.6898 34.3163 22.8903 34.3163C22.0909 34.3163 22.0909 34.1409 21.2915 34.1409C20.7845 34.1409 20.3685 34.3358 19.9266 34.5243C19.4716 34.7128 19.0297 34.8688 18.6852 35.2133C18.3407 35.5577 17.9702 35.9087 17.7817 36.3702C17.5998 36.8121 17.4698 37.3191 17.4698 37.8261C17.4698 38.593 17.4438 38.593 17.4438 39.36C17.4438 40.1269 17.6128 40.1269 17.6128 40.8873C17.6128 41.6543 17.6193 41.6543 17.6193 42.4212C17.6193 43.1881 17.7297 43.1881 17.7297 43.9486C17.7297 44.7155 17.3853 44.7155 17.3853 45.4825C17.3853 46.2494 17.3918 46.2494 17.3918 47.0163C17.3918 47.7833 17.8207 47.7833 17.8207 48.5437C17.8207 49.3107 17.4958 49.3107 17.4958 50.0776C17.4958 50.8445 17.3788 50.8445 17.3788 51.6115C17.3788 52.3784 17.6842 52.3784 17.6842 53.1454C17.6842 53.9123 17.5478 53.9123 17.5478 54.6792C17.5478 55.4462 17.6128 55.4462 17.6128 56.2131C17.6128 56.9801 17.4503 56.9801 17.4503 57.747C17.4503 58.254 17.5868 58.7674 17.7752 59.2094C17.9637 59.6644 18.2562 60.1128 18.6007 60.4573C18.9452 60.8018 19.4261 61.0032 19.8811 61.1982C20.297 61.3737 20.778 61.6597 21.285 61.6597Z" stroke="#161B18" stroke-miterlimit="10" stroke-linecap="round" stroke-linejoin="round"/>
<path d="M40.79 46.7564C41.2449 46.4639 41.6609 45.9114 41.9664 45.4694C42.2719 45.0275 42.7008 44.67 42.8178 44.1306C42.9283 43.6171 42.9543 43.0711 42.8568 42.5122C42.7593 41.9662 42.5058 41.4788 42.2069 41.0238C41.9079 40.5623 41.4464 40.3089 40.9915 39.9969C40.543 39.6914 40.1855 39.0934 39.6396 38.983C39.1391 38.8855 38.5736 38.8985 38.1057 38.97C37.6117 39.048 37.0658 39.2169 36.6433 39.4509C36.2143 39.6914 36.0193 40.2699 35.7009 40.6403C35.3824 41.0108 35.1614 41.4073 34.9924 41.8687C34.8234 42.3172 34.3685 42.7592 34.3685 43.2661C34.3685 43.7406 34.7649 44.1696 34.9144 44.5985C35.0639 45.034 35.0769 45.5864 35.3564 45.9439C35.6424 46.3014 35.9478 46.4704 36.3378 46.7238C36.2403 47.5883 36.3508 47.6078 36.0453 48.4267C35.7463 49.2457 35.6424 49.2067 35.3434 50.0256C35.0444 50.8445 35.1614 50.89 34.8624 51.709C34.5634 52.5279 34.531 52.5149 34.232 53.3338C34.063 53.7953 34.1215 54.1658 34.245 54.5882C34.375 55.0302 34.3294 55.6607 34.6999 55.9401C35.0509 56.2066 35.6358 56.3106 36.1233 56.3106C37.0072 56.3106 37.0073 55.9206 37.8847 55.9206C38.7686 55.9206 38.7686 55.9466 39.6526 55.9466C40.5365 55.9466 40.5365 56.1611 41.4204 56.1611C41.9079 56.1611 42.3238 55.9856 42.6813 55.7191C43.0518 55.4397 43.1363 55.0237 43.2663 54.5817C43.3898 54.1593 43.5522 53.7758 43.3833 53.3143C43.0843 52.4954 42.9413 52.5474 42.6423 51.735C42.3433 50.916 42.3693 50.9095 42.0704 50.0906C41.7714 49.2717 42.2329 49.0507 41.7974 48.2967C41.3294 47.4713 40.855 47.6273 40.79 46.7564Z" fill="#29302C"/>
<path d="M40.79 46.7564C41.2449 46.4639 41.6609 45.9114 41.9664 45.4694C42.2719 45.0275 42.7008 44.67 42.8178 44.1306C42.9283 43.6171 42.9543 43.0711 42.8568 42.5122C42.7593 41.9662 42.5058 41.4788 42.2069 41.0238C41.9079 40.5623 41.4464 40.3089 40.9915 39.9969C40.543 39.6914 40.1855 39.0934 39.6396 38.983C39.1391 38.8855 38.5736 38.8985 38.1057 38.97C37.6117 39.048 37.0658 39.2169 36.6433 39.4509C36.2143 39.6914 36.0193 40.2699 35.7009 40.6403C35.3824 41.0108 35.1614 41.4073 34.9924 41.8687C34.8234 42.3172 34.3685 42.7592 34.3685 43.2661C34.3685 43.7406 34.7649 44.1696 34.9144 44.5985C35.0639 45.034 35.0769 45.5864 35.3564 45.9439C35.6424 46.3014 35.9478 46.4704 36.3378 46.7238C36.2403 47.5883 36.3508 47.6078 36.0453 48.4267C35.7463 49.2457 35.6424 49.2067 35.3434 50.0256C35.0444 50.8445 35.1614 50.89 34.8624 51.709C34.5634 52.5279 34.531 52.5149 34.232 53.3338C34.063 53.7953 34.1215 54.1658 34.245 54.5882C34.375 55.0302 34.3294 55.6607 34.6999 55.9401C35.0509 56.2066 35.6358 56.3106 36.1233 56.3106C37.0072 56.3106 37.0073 55.9206 37.8847 55.9206C38.7686 55.9206 38.7686 55.9466 39.6526 55.9466C40.5365 55.9466 40.5365 56.1611 41.4204 56.1611C41.9079 56.1611 42.3238 55.9856 42.6813 55.7191C43.0518 55.4397 43.1363 55.0237 43.2663 54.5817C43.3898 54.1593 43.5522 53.7758 43.3833 53.3143C43.0843 52.4954 42.9413 52.5474 42.6423 51.735C42.3433 50.916 42.3693 50.9095 42.0704 50.0906C41.7714 49.2717 42.2329 49.0507 41.7974 48.2967C41.3294 47.4713 40.855 47.6273 40.79 46.7564Z" stroke="#161B18" stroke-miterlimit="10" stroke-linecap="round" stroke-linejoin="round"/>
</svg>
