<svg width="40" height="40" viewBox="0 0 40 40" fill="none" xmlns="http://www.w3.org/2000/svg">
<path d="M18.3333 15.4583C18.3333 24.0267 11.8467 32.99 1.66667 35L0.0266667 31.4567C3.71833 30.065 6.965 25.22 7.32667 21.88C3.175 21.2267 0 17.635 0 13.2983C0 7.995 4.30667 5 8.665 5C13.69 5 18.3333 8.84167 18.3333 15.4583ZM40 15.4583C40 24.0267 33.5133 32.99 23.3333 35L21.6933 31.4567C25.385 30.065 28.6317 25.22 28.9933 21.88C24.8417 21.2267 21.6667 17.635 21.6667 13.2983C21.6667 7.995 25.9733 5 30.3317 5C35.3567 5 40 8.84167 40 15.4583Z" fill="#131714"/>
</svg>
