<svg width="1140" height="540" viewBox="0 0 1140 540" fill="none" xmlns="http://www.w3.org/2000/svg">
<g clip-path="url(#clip0_260_428)">
<path d="M0 12.3711C0 5.53875 6.3482 0 14.1791 0H1125.82C1133.65 0 1140 5.53875 1140 12.3711V193.608C1140 200.441 1133.59 205.855 1125.9 207.154C1091.93 212.894 1066.27 238.987 1066.27 270.309C1066.27 301.631 1091.93 327.725 1125.9 333.465C1133.59 334.763 1140 340.178 1140 347.01V527.629C1140 534.461 1133.65 540 1125.82 540H14.1791C6.34821 540 0 534.461 0 527.629V347.01C0 340.178 6.40914 334.763 14.0973 333.465C48.0746 327.725 73.7313 301.631 73.7313 270.309C73.7313 238.987 48.0746 212.894 14.0973 207.154C6.40913 205.855 0 200.441 0 193.608V12.3711Z" fill="#0E1116"/>
<path fill-rule="evenodd" clip-rule="evenodd" d="M14.1791 4C8.02749 4 4 8.24289 4 12.3711V193.608C4 197.695 8.09514 202.083 14.7635 203.21C50.2307 209.201 77.7313 236.625 77.7313 270.309C77.7313 303.994 50.2307 331.417 14.7635 337.409C8.09515 338.535 4 342.923 4 347.01V527.629C4 531.757 8.02749 536 14.1791 536H1125.82C1131.97 536 1136 531.757 1136 527.629V347.01C1136 342.923 1131.9 338.535 1125.24 337.409C1089.77 331.417 1062.27 303.994 1062.27 270.309C1062.27 236.625 1089.77 209.201 1125.24 203.21C1131.9 202.083 1136 197.695 1136 193.608V12.3711C1136 8.24289 1131.97 4 1125.82 4H14.1791ZM14.1791 0C6.3482 0 0 5.53875 0 12.3711V193.608C0 200.441 6.40913 205.855 14.0973 207.154C48.0746 212.894 73.7313 238.987 73.7313 270.309C73.7313 301.631 48.0746 327.725 14.0973 333.465C6.40914 334.763 0 340.178 0 347.01V527.629C0 534.461 6.34821 540 14.1791 540H1125.82C1133.65 540 1140 534.461 1140 527.629V347.01C1140 340.178 1133.59 334.763 1125.9 333.465C1091.93 327.725 1066.27 301.631 1066.27 270.309C1066.27 238.987 1091.93 212.894 1125.9 207.154C1133.59 205.855 1140 200.441 1140 193.608V12.3711C1140 5.53874 1133.65 0 1125.82 0H14.1791Z" fill="url(#paint0_linear_260_428)"/>
<circle cx="196" cy="164" r="86" fill="url(#paint1_radial_260_428)"/>
<circle cx="196" cy="164" r="86" fill="url(#paint2_linear_260_428)" fill-opacity="0.2" style="mix-blend-mode:difference"/>
<circle cx="196" cy="164" r="86" fill="url(#paint3_linear_260_428)" style="mix-blend-mode:screen"/>
<path d="M351.2 430.28C350.24 430.28 349.38 430.094 348.62 429.72C347.873 429.334 347.28 428.787 346.84 428.08C346.413 427.374 346.2 426.534 346.2 425.56V420.68C346.2 419.627 346.407 418.734 346.82 418C347.233 417.267 347.813 416.707 348.56 416.32C349.32 415.92 350.22 415.72 351.26 415.72C352.287 415.72 353.16 415.907 353.88 416.28C354.613 416.64 355.167 417.14 355.54 417.78C355.927 418.407 356.12 419.134 356.12 419.96H354.48C354.48 419.134 354.213 418.467 353.68 417.96C353.147 417.44 352.34 417.18 351.26 417.18C350.167 417.18 349.32 417.48 348.72 418.08C348.12 418.667 347.82 419.48 347.82 420.52V422.46H348.1C348.34 422.06 348.74 421.694 349.3 421.36C349.86 421.014 350.64 420.84 351.64 420.84C352.48 420.84 353.247 421.027 353.94 421.4C354.633 421.774 355.187 422.3 355.6 422.98C356.013 423.66 356.22 424.467 356.22 425.4V425.64C356.22 426.587 356 427.407 355.56 428.1C355.133 428.794 354.54 429.334 353.78 429.72C353.02 430.094 352.16 430.28 351.2 430.28ZM351.2 428.82C352.213 428.82 353.033 428.534 353.66 427.96C354.287 427.387 354.6 426.607 354.6 425.62V425.46C354.6 424.794 354.453 424.22 354.16 423.74C353.88 423.26 353.487 422.887 352.98 422.62C352.473 422.34 351.88 422.2 351.2 422.2C350.533 422.2 349.947 422.34 349.44 422.62C348.933 422.887 348.533 423.26 348.24 423.74C347.96 424.22 347.82 424.794 347.82 425.46V425.62C347.82 426.607 348.133 427.387 348.76 427.96C349.387 428.534 350.2 428.82 351.2 428.82Z" fill="#8B949E"/>
<path d="M368.523 430.28C367.536 430.28 366.669 430.074 365.923 429.66C365.176 429.234 364.596 428.64 364.183 427.88C363.769 427.12 363.563 426.24 363.563 425.24V425C363.563 423.987 363.769 423.1 364.183 422.34C364.596 421.58 365.169 420.994 365.903 420.58C366.636 420.154 367.476 419.94 368.423 419.94C369.343 419.94 370.156 420.14 370.863 420.54C371.569 420.927 372.123 421.487 372.523 422.22C372.923 422.954 373.123 423.814 373.123 424.8V425.52H365.143C365.183 426.574 365.523 427.4 366.163 428C366.803 428.587 367.603 428.88 368.563 428.88C369.403 428.88 370.049 428.687 370.503 428.3C370.956 427.914 371.303 427.454 371.543 426.92L372.903 427.58C372.703 427.994 372.423 428.407 372.063 428.82C371.716 429.234 371.256 429.58 370.683 429.86C370.123 430.14 369.403 430.28 368.523 430.28ZM365.163 424.22H371.523C371.469 423.314 371.156 422.607 370.583 422.1C370.023 421.594 369.303 421.34 368.423 421.34C367.529 421.34 366.796 421.594 366.223 422.1C365.649 422.607 365.296 423.314 365.163 424.22Z" fill="#8B949E"/>
<path d="M382.395 430V429.5C382.395 429.034 382.435 428.64 382.515 428.32C382.595 428 382.749 427.62 382.975 427.18L388.315 417.68V417.46H379.995V416H390.015V417.92L384.435 427.92C384.275 428.2 384.162 428.454 384.095 428.68C384.042 428.907 384.015 429.194 384.015 429.54V430H382.395Z" fill="#8B949E"/>
<path d="M401.581 430.28C400.741 430.28 399.968 430.08 399.261 429.68C398.555 429.28 397.995 428.7 397.581 427.94C397.168 427.18 396.961 426.28 396.961 425.24V424.98C396.961 423.94 397.168 423.047 397.581 422.3C397.995 421.54 398.548 420.96 399.241 420.56C399.948 420.147 400.728 419.94 401.581 419.94C402.261 419.94 402.835 420.034 403.301 420.22C403.781 420.394 404.168 420.62 404.461 420.9C404.755 421.167 404.981 421.454 405.141 421.76H405.421V416H407.001V430H405.461V428.38H405.181C404.915 428.874 404.501 429.314 403.941 429.7C403.381 430.087 402.595 430.28 401.581 430.28ZM402.001 428.88C403.015 428.88 403.835 428.56 404.461 427.92C405.101 427.267 405.421 426.36 405.421 425.2V425.02C405.421 423.86 405.101 422.96 404.461 422.32C403.835 421.667 403.015 421.34 402.001 421.34C401.001 421.34 400.175 421.667 399.521 422.32C398.881 422.96 398.561 423.86 398.561 425.02V425.2C398.561 426.36 398.881 427.267 399.521 427.92C400.175 428.56 401.001 428.88 402.001 428.88Z" fill="#8B949E"/>
<path d="M414.792 430.28C413.806 430.28 412.939 430.074 412.192 429.66C411.446 429.234 410.866 428.64 410.452 427.88C410.039 427.12 409.832 426.24 409.832 425.24V425C409.832 423.987 410.039 423.1 410.452 422.34C410.866 421.58 411.439 420.994 412.172 420.58C412.906 420.154 413.746 419.94 414.692 419.94C415.612 419.94 416.426 420.14 417.132 420.54C417.839 420.927 418.392 421.487 418.792 422.22C419.192 422.954 419.392 423.814 419.392 424.8V425.52H411.412C411.452 426.574 411.792 427.4 412.432 428C413.072 428.587 413.872 428.88 414.832 428.88C415.672 428.88 416.319 428.687 416.772 428.3C417.226 427.914 417.572 427.454 417.812 426.92L419.172 427.58C418.972 427.994 418.692 428.407 418.332 428.82C417.986 429.234 417.526 429.58 416.952 429.86C416.392 430.14 415.672 430.28 414.792 430.28ZM411.432 424.22H417.792C417.739 423.314 417.426 422.607 416.852 422.1C416.292 421.594 415.572 421.34 414.692 421.34C413.799 421.34 413.066 421.594 412.492 422.1C411.919 422.607 411.566 423.314 411.432 424.22Z" fill="#8B949E"/>
<path d="M431.225 430.28C430.012 430.28 428.985 430 428.145 429.44C427.318 428.88 426.818 427.994 426.645 426.78L428.145 426.44C428.252 427.08 428.452 427.587 428.745 427.96C429.038 428.32 429.398 428.58 429.825 428.74C430.265 428.887 430.732 428.96 431.225 428.96C431.958 428.96 432.538 428.814 432.965 428.52C433.392 428.227 433.605 427.834 433.605 427.34C433.605 426.834 433.398 426.48 432.985 426.28C432.585 426.067 432.032 425.894 431.325 425.76L430.505 425.62C429.878 425.514 429.305 425.347 428.785 425.12C428.265 424.894 427.852 424.587 427.545 424.2C427.238 423.814 427.085 423.327 427.085 422.74C427.085 421.86 427.425 421.174 428.105 420.68C428.785 420.187 429.685 419.94 430.805 419.94C431.912 419.94 432.805 420.194 433.485 420.7C434.178 421.194 434.625 421.894 434.825 422.8L433.345 423.18C433.225 422.474 432.938 421.98 432.485 421.7C432.032 421.407 431.472 421.26 430.805 421.26C430.138 421.26 429.612 421.387 429.225 421.64C428.838 421.88 428.645 422.24 428.645 422.72C428.645 423.187 428.825 423.534 429.185 423.76C429.558 423.974 430.052 424.134 430.665 424.24L431.485 424.38C432.178 424.5 432.798 424.667 433.345 424.88C433.905 425.08 434.345 425.374 434.665 425.76C434.998 426.147 435.165 426.654 435.165 427.28C435.165 428.24 434.805 428.98 434.085 429.5C433.378 430.02 432.425 430.28 431.225 430.28Z" fill="#8B949E"/>
<path d="M442.312 430.28C441.325 430.28 440.459 430.074 439.712 429.66C438.965 429.234 438.385 428.64 437.972 427.88C437.559 427.12 437.352 426.24 437.352 425.24V425C437.352 423.987 437.559 423.1 437.972 422.34C438.385 421.58 438.959 420.994 439.692 420.58C440.425 420.154 441.265 419.94 442.212 419.94C443.132 419.94 443.945 420.14 444.652 420.54C445.359 420.927 445.912 421.487 446.312 422.22C446.712 422.954 446.912 423.814 446.912 424.8V425.52H438.932C438.972 426.574 439.312 427.4 439.952 428C440.592 428.587 441.392 428.88 442.352 428.88C443.192 428.88 443.839 428.687 444.292 428.3C444.745 427.914 445.092 427.454 445.332 426.92L446.692 427.58C446.492 427.994 446.212 428.407 445.852 428.82C445.505 429.234 445.045 429.58 444.472 429.86C443.912 430.14 443.192 430.28 442.312 430.28ZM438.952 424.22H445.312C445.259 423.314 444.945 422.607 444.372 422.1C443.812 421.594 443.092 421.34 442.212 421.34C441.319 421.34 440.585 421.594 440.012 422.1C439.439 422.607 439.085 423.314 438.952 424.22Z" fill="#8B949E"/>
<path d="M452.858 430C452.298 430 451.864 429.847 451.558 429.54C451.264 429.234 451.118 428.814 451.118 428.28V421.6H448.178V420.22H451.118V416.74H452.698V420.22H455.898V421.6H452.698V428.04C452.698 428.44 452.891 428.64 453.278 428.64H455.458V430H452.858Z" fill="#8B949E"/>
<path d="M462.585 430.28C461.599 430.28 460.732 430.074 459.985 429.66C459.239 429.234 458.659 428.64 458.245 427.88C457.832 427.12 457.625 426.24 457.625 425.24V425C457.625 423.987 457.832 423.1 458.245 422.34C458.659 421.58 459.232 420.994 459.965 420.58C460.699 420.154 461.539 419.94 462.485 419.94C463.405 419.94 464.219 420.14 464.925 420.54C465.632 420.927 466.185 421.487 466.585 422.22C466.985 422.954 467.185 423.814 467.185 424.8V425.52H459.205C459.245 426.574 459.585 427.4 460.225 428C460.865 428.587 461.665 428.88 462.625 428.88C463.465 428.88 464.112 428.687 464.565 428.3C465.019 427.914 465.365 427.454 465.605 426.92L466.965 427.58C466.765 427.994 466.485 428.407 466.125 428.82C465.779 429.234 465.319 429.58 464.745 429.86C464.185 430.14 463.465 430.28 462.585 430.28ZM459.225 424.22H465.585C465.532 423.314 465.219 422.607 464.645 422.1C464.085 421.594 463.365 421.34 462.485 421.34C461.592 421.34 460.859 421.594 460.285 422.1C459.712 422.607 459.359 423.314 459.225 424.22Z" fill="#8B949E"/>
<path d="M469.941 430V420.22H471.481V421.44H471.761C471.948 421.094 472.255 420.774 472.681 420.48C473.108 420.187 473.708 420.04 474.481 420.04C475.241 420.04 475.855 420.207 476.321 420.54C476.801 420.874 477.148 421.28 477.361 421.76H477.641C477.868 421.28 478.208 420.874 478.661 420.54C479.128 420.207 479.775 420.04 480.601 420.04C481.255 420.04 481.828 420.174 482.321 420.44C482.815 420.707 483.201 421.094 483.481 421.6C483.775 422.094 483.921 422.687 483.921 423.38V430H482.341V423.52C482.341 422.867 482.148 422.354 481.761 421.98C481.388 421.594 480.861 421.4 480.181 421.4C479.461 421.4 478.868 421.634 478.401 422.1C477.948 422.567 477.721 423.24 477.721 424.12V430H476.141V423.52C476.141 422.867 475.948 422.354 475.561 421.98C475.188 421.594 474.661 421.4 473.981 421.4C473.261 421.4 472.668 421.634 472.201 422.1C471.748 422.567 471.521 423.24 471.521 424.12V430H469.941Z" fill="#8B949E"/>
<path d="M492.568 430.28C491.555 430.28 490.762 430.087 490.188 429.7C489.628 429.314 489.222 428.874 488.968 428.38H488.688V430H487.148V416H488.728V421.76H489.008C489.168 421.454 489.395 421.167 489.688 420.9C489.982 420.62 490.362 420.394 490.828 420.22C491.308 420.034 491.888 419.94 492.568 419.94C493.422 419.94 494.195 420.147 494.888 420.56C495.595 420.96 496.155 421.54 496.568 422.3C496.982 423.047 497.188 423.94 497.188 424.98V425.24C497.188 426.28 496.975 427.18 496.548 427.94C496.135 428.7 495.575 429.28 494.868 429.68C494.175 430.08 493.408 430.28 492.568 430.28ZM492.148 428.88C493.162 428.88 493.982 428.56 494.608 427.92C495.248 427.267 495.568 426.36 495.568 425.2V425.02C495.568 423.86 495.248 422.96 494.608 422.32C493.982 421.667 493.162 421.34 492.148 421.34C491.148 421.34 490.322 421.667 489.668 422.32C489.028 422.96 488.708 423.86 488.708 425.02V425.2C488.708 426.36 489.028 427.267 489.668 427.92C490.322 428.56 491.148 428.88 492.148 428.88Z" fill="#8B949E"/>
<path d="M500.019 430V420.22H501.559V421.42H501.839C502.013 420.994 502.279 420.68 502.639 420.48C502.999 420.28 503.473 420.18 504.059 420.18H505.219V421.62H503.959C503.253 421.62 502.679 421.82 502.239 422.22C501.813 422.607 501.599 423.214 501.599 424.04V430H500.019Z" fill="#8B949E"/>
<path d="M511.727 430.28C510.74 430.28 509.867 430.074 509.107 429.66C508.36 429.247 507.774 428.667 507.347 427.92C506.934 427.16 506.727 426.267 506.727 425.24V424.98C506.727 423.967 506.934 423.08 507.347 422.32C507.774 421.56 508.36 420.974 509.107 420.56C509.867 420.147 510.74 419.94 511.727 419.94C512.714 419.94 513.58 420.147 514.327 420.56C515.087 420.974 515.674 421.56 516.087 422.32C516.514 423.08 516.727 423.967 516.727 424.98V425.24C516.727 426.267 516.514 427.16 516.087 427.92C515.674 428.667 515.087 429.247 514.327 429.66C513.58 430.074 512.714 430.28 511.727 430.28ZM511.727 428.86C512.767 428.86 513.594 428.534 514.207 427.88C514.834 427.214 515.147 426.32 515.147 425.2V425.02C515.147 423.9 514.834 423.014 514.207 422.36C513.594 421.694 512.767 421.36 511.727 421.36C510.7 421.36 509.874 421.694 509.247 422.36C508.62 423.014 508.307 423.9 508.307 425.02V425.2C508.307 426.32 508.62 427.214 509.247 427.88C509.874 428.534 510.7 428.86 511.727 428.86Z" fill="#8B949E"/>
<path d="M529.187 430.28C528.2 430.28 527.334 430.074 526.587 429.66C525.84 429.234 525.26 428.64 524.847 427.88C524.434 427.12 524.227 426.24 524.227 425.24V425C524.227 423.987 524.434 423.1 524.847 422.34C525.26 421.58 525.834 420.994 526.567 420.58C527.3 420.154 528.14 419.94 529.087 419.94C530.007 419.94 530.82 420.14 531.527 420.54C532.234 420.927 532.787 421.487 533.187 422.22C533.587 422.954 533.787 423.814 533.787 424.8V425.52H525.807C525.847 426.574 526.187 427.4 526.827 428C527.467 428.587 528.267 428.88 529.227 428.88C530.067 428.88 530.714 428.687 531.167 428.3C531.62 427.914 531.967 427.454 532.207 426.92L533.567 427.58C533.367 427.994 533.087 428.407 532.727 428.82C532.38 429.234 531.92 429.58 531.347 429.86C530.787 430.14 530.067 430.28 529.187 430.28ZM525.827 424.22H532.187C532.134 423.314 531.82 422.607 531.247 422.1C530.687 421.594 529.967 421.34 529.087 421.34C528.194 421.34 527.46 421.594 526.887 422.1C526.314 422.607 525.96 423.314 525.827 424.22Z" fill="#8B949E"/>
<path d="M536.543 430V420.22H538.083V421.44H538.363C538.549 421.094 538.856 420.774 539.283 420.48C539.709 420.187 540.309 420.04 541.083 420.04C541.843 420.04 542.456 420.207 542.923 420.54C543.403 420.874 543.749 421.28 543.963 421.76H544.243C544.469 421.28 544.809 420.874 545.263 420.54C545.729 420.207 546.376 420.04 547.203 420.04C547.856 420.04 548.429 420.174 548.923 420.44C549.416 420.707 549.803 421.094 550.083 421.6C550.376 422.094 550.523 422.687 550.523 423.38V430H548.943V423.52C548.943 422.867 548.749 422.354 548.363 421.98C547.989 421.594 547.463 421.4 546.783 421.4C546.063 421.4 545.469 421.634 545.003 422.1C544.549 422.567 544.323 423.24 544.323 424.12V430H542.743V423.52C542.743 422.867 542.549 422.354 542.163 421.98C541.789 421.594 541.263 421.4 540.583 421.4C539.863 421.4 539.269 421.634 538.803 422.1C538.349 422.567 538.123 423.24 538.123 424.12V430H536.543Z" fill="#8B949E"/>
<path d="M562.487 430.28C561.113 430.28 560.027 429.894 559.227 429.12C558.44 428.347 558.047 427.24 558.047 425.8V424.72H559.707V425.8C559.707 426.667 559.933 427.374 560.387 427.92C560.853 428.467 561.547 428.74 562.467 428.74C563.4 428.74 564.06 428.474 564.447 427.94C564.833 427.394 565.027 426.68 565.027 425.8V417.52H562.567V416H568.227V417.52H566.707V425.8C566.707 427.254 566.347 428.367 565.627 429.14C564.907 429.9 563.86 430.28 562.487 430.28Z" fill="#8B949E"/>
<path d="M574.735 430.28C573.748 430.28 572.875 430.074 572.115 429.66C571.368 429.247 570.781 428.667 570.355 427.92C569.941 427.16 569.735 426.267 569.735 425.24V424.98C569.735 423.967 569.941 423.08 570.355 422.32C570.781 421.56 571.368 420.974 572.115 420.56C572.875 420.147 573.748 419.94 574.735 419.94C575.721 419.94 576.588 420.147 577.335 420.56C578.095 420.974 578.681 421.56 579.095 422.32C579.521 423.08 579.735 423.967 579.735 424.98V425.24C579.735 426.267 579.521 427.16 579.095 427.92C578.681 428.667 578.095 429.247 577.335 429.66C576.588 430.074 575.721 430.28 574.735 430.28ZM574.735 428.86C575.775 428.86 576.601 428.534 577.215 427.88C577.841 427.214 578.155 426.32 578.155 425.2V425.02C578.155 423.9 577.841 423.014 577.215 422.36C576.601 421.694 575.775 421.36 574.735 421.36C573.708 421.36 572.881 421.694 572.255 422.36C571.628 423.014 571.315 423.9 571.315 425.02V425.2C571.315 426.32 571.628 427.214 572.255 427.88C572.881 428.534 573.708 428.86 574.735 428.86Z" fill="#8B949E"/>
<path d="M582.578 430V420.22H584.158V430H582.578ZM583.378 418.7C583.031 418.7 582.738 418.587 582.498 418.36C582.271 418.134 582.158 417.847 582.158 417.5C582.158 417.14 582.271 416.847 582.498 416.62C582.738 416.394 583.031 416.28 583.378 416.28C583.725 416.28 584.011 416.394 584.238 416.62C584.465 416.847 584.578 417.14 584.578 417.5C584.578 417.847 584.465 418.134 584.238 418.36C584.011 418.587 583.725 418.7 583.378 418.7Z" fill="#8B949E"/>
<path d="M587.48 430V420.22H589.02V421.88H589.3C589.514 421.414 589.874 420.994 590.38 420.62C590.9 420.234 591.66 420.04 592.66 420.04C593.394 420.04 594.047 420.194 594.62 420.5C595.207 420.807 595.674 421.26 596.02 421.86C596.367 422.46 596.54 423.2 596.54 424.08V430H594.96V424.2C594.96 423.227 594.714 422.52 594.22 422.08C593.74 421.64 593.087 421.42 592.26 421.42C591.314 421.42 590.54 421.727 589.94 422.34C589.354 422.954 589.06 423.867 589.06 425.08V430H587.48Z" fill="#8B949E"/>
<path d="M601.933 430L598.433 420.22H600.113L603.053 428.82H603.333L606.273 420.22H607.953L604.453 430H601.933Z" fill="#8B949E"/>
<path d="M610.234 430V420.22H611.814V430H610.234ZM611.034 418.7C610.688 418.7 610.394 418.587 610.154 418.36C609.928 418.134 609.814 417.847 609.814 417.5C609.814 417.14 609.928 416.847 610.154 416.62C610.394 416.394 610.688 416.28 611.034 416.28C611.381 416.28 611.668 416.394 611.894 416.62C612.121 416.847 612.234 417.14 612.234 417.5C612.234 417.847 612.121 418.134 611.894 418.36C611.668 418.587 611.381 418.7 611.034 418.7Z" fill="#8B949E"/>
<path d="M615.137 430V416H616.717V430H615.137Z" fill="#8B949E"/>
<path d="M620.039 430V416H621.619V430H620.039Z" fill="#8B949E"/>
<path d="M629.421 430.28C628.435 430.28 627.568 430.074 626.821 429.66C626.075 429.234 625.495 428.64 625.081 427.88C624.668 427.12 624.461 426.24 624.461 425.24V425C624.461 423.987 624.668 423.1 625.081 422.34C625.495 421.58 626.068 420.994 626.801 420.58C627.535 420.154 628.375 419.94 629.321 419.94C630.241 419.94 631.055 420.14 631.761 420.54C632.468 420.927 633.021 421.487 633.421 422.22C633.821 422.954 634.021 423.814 634.021 424.8V425.52H626.041C626.081 426.574 626.421 427.4 627.061 428C627.701 428.587 628.501 428.88 629.461 428.88C630.301 428.88 630.948 428.687 631.401 428.3C631.855 427.914 632.201 427.454 632.441 426.92L633.801 427.58C633.601 427.994 633.321 428.407 632.961 428.82C632.615 429.234 632.155 429.58 631.581 429.86C631.021 430.14 630.301 430.28 629.421 430.28ZM626.061 424.22H632.421C632.368 423.314 632.055 422.607 631.481 422.1C630.921 421.594 630.201 421.34 629.321 421.34C628.428 421.34 627.695 421.594 627.121 422.1C626.548 422.607 626.195 423.314 626.061 424.22Z" fill="#8B949E"/>
<path d="M636.48 432.5V431.5H637.06C637.54 431.5 637.78 431.26 637.78 430.78V430.14H637.5C637.114 430.14 636.787 430.02 636.52 429.78C636.267 429.54 636.14 429.24 636.14 428.88C636.14 428.494 636.267 428.18 636.52 427.94C636.787 427.7 637.114 427.58 637.5 427.58C637.887 427.58 638.207 427.707 638.46 427.96C638.714 428.214 638.84 428.534 638.84 428.92V430.78C638.84 431.927 638.267 432.5 637.12 432.5H636.48Z" fill="#8B949E"/>
<path d="M650.713 430.28C649.7 430.28 648.793 430.1 647.993 429.74C647.193 429.38 646.56 428.84 646.093 428.12C645.64 427.387 645.413 426.474 645.413 425.38V424.96H647.073V425.38C647.073 426.54 647.413 427.407 648.093 427.98C648.773 428.54 649.646 428.82 650.713 428.82C651.806 428.82 652.64 428.574 653.213 428.08C653.786 427.587 654.073 426.967 654.073 426.22C654.073 425.7 653.94 425.287 653.673 424.98C653.42 424.674 653.06 424.427 652.593 424.24C652.126 424.04 651.58 423.867 650.953 423.72L649.913 423.46C649.1 423.247 648.38 422.987 647.753 422.68C647.126 422.374 646.633 421.974 646.273 421.48C645.926 420.974 645.753 420.327 645.753 419.54C645.753 418.754 645.946 418.074 646.333 417.5C646.733 416.927 647.286 416.487 647.993 416.18C648.713 415.874 649.54 415.72 650.473 415.72C651.42 415.72 652.266 415.887 653.013 416.22C653.773 416.54 654.366 417.02 654.793 417.66C655.233 418.287 655.453 419.08 655.453 420.04V420.88H653.793V420.04C653.793 419.36 653.646 418.814 653.353 418.4C653.073 417.987 652.68 417.68 652.173 417.48C651.68 417.28 651.113 417.18 650.473 417.18C649.553 417.18 648.813 417.387 648.253 417.8C647.693 418.2 647.413 418.774 647.413 419.52C647.413 420.014 647.533 420.414 647.773 420.72C648.013 421.027 648.353 421.28 648.793 421.48C649.233 421.667 649.76 421.834 650.373 421.98L651.413 422.24C652.226 422.414 652.953 422.654 653.593 422.96C654.246 423.254 654.766 423.66 655.153 424.18C655.54 424.687 655.733 425.354 655.733 426.18C655.733 427.007 655.526 427.727 655.113 428.34C654.7 428.954 654.113 429.434 653.353 429.78C652.606 430.114 651.726 430.28 650.713 430.28Z" fill="#8B949E"/>
<path d="M663.379 430.28C661.712 430.28 660.385 429.8 659.399 428.84C658.412 427.867 657.919 426.454 657.919 424.6V421.4C657.919 419.547 658.412 418.14 659.399 417.18C660.385 416.207 661.712 415.72 663.379 415.72C665.032 415.72 666.299 416.18 667.179 417.1C668.072 418.02 668.519 419.28 668.519 420.88V420.98H666.859V420.82C666.859 419.767 666.572 418.907 665.999 418.24C665.439 417.56 664.565 417.22 663.379 417.22C662.192 417.22 661.265 417.587 660.599 418.32C659.932 419.04 659.599 420.054 659.599 421.36V424.64C659.599 425.947 659.932 426.967 660.599 427.7C661.265 428.42 662.192 428.78 663.379 428.78C664.565 428.78 665.439 428.447 665.999 427.78C666.572 427.1 666.859 426.234 666.859 425.18V424.86H668.519V425.12C668.519 426.72 668.072 427.98 667.179 428.9C666.299 429.82 665.032 430.28 663.379 430.28Z" fill="#8B949E"/>
<path d="M351.16 456.28C350.213 456.28 349.36 456.08 348.6 455.68C347.853 455.267 347.26 454.68 346.82 453.92C346.393 453.16 346.18 452.26 346.18 451.22V451C346.18 449.947 346.393 449.047 346.82 448.3C347.26 447.54 347.853 446.96 348.6 446.56C349.36 446.147 350.213 445.94 351.16 445.94C352.093 445.94 352.887 446.114 353.54 446.46C354.207 446.807 354.727 447.267 355.1 447.84C355.487 448.414 355.733 449.027 355.84 449.68L354.3 450C354.233 449.52 354.073 449.08 353.82 448.68C353.58 448.28 353.24 447.96 352.8 447.72C352.36 447.48 351.82 447.36 351.18 447.36C350.527 447.36 349.94 447.507 349.42 447.8C348.913 448.094 348.507 448.514 348.2 449.06C347.907 449.607 347.76 450.26 347.76 451.02V451.2C347.76 451.96 347.907 452.614 348.2 453.16C348.507 453.707 348.913 454.127 349.42 454.42C349.94 454.714 350.527 454.86 351.18 454.86C352.153 454.86 352.893 454.607 353.4 454.1C353.92 453.594 354.24 452.967 354.36 452.22L355.92 452.56C355.773 453.2 355.507 453.807 355.12 454.38C354.733 454.954 354.207 455.414 353.54 455.76C352.887 456.107 352.093 456.28 351.16 456.28Z" fill="#8B949E"/>
<path d="M363.133 456.28C362.146 456.28 361.273 456.074 360.513 455.66C359.766 455.247 359.18 454.667 358.753 453.92C358.34 453.16 358.133 452.267 358.133 451.24V450.98C358.133 449.967 358.34 449.08 358.753 448.32C359.18 447.56 359.766 446.974 360.513 446.56C361.273 446.147 362.146 445.94 363.133 445.94C364.12 445.94 364.986 446.147 365.733 446.56C366.493 446.974 367.08 447.56 367.493 448.32C367.92 449.08 368.133 449.967 368.133 450.98V451.24C368.133 452.267 367.92 453.16 367.493 453.92C367.08 454.667 366.493 455.247 365.733 455.66C364.986 456.074 364.12 456.28 363.133 456.28ZM363.133 454.86C364.173 454.86 365 454.534 365.613 453.88C366.24 453.214 366.553 452.32 366.553 451.2V451.02C366.553 449.9 366.24 449.014 365.613 448.36C365 447.694 364.173 447.36 363.133 447.36C362.106 447.36 361.28 447.694 360.653 448.36C360.026 449.014 359.713 449.9 359.713 451.02V451.2C359.713 452.32 360.026 453.214 360.653 453.88C361.28 454.534 362.106 454.86 363.133 454.86Z" fill="#8B949E"/>
<path d="M375.116 456.28C374.276 456.28 373.503 456.08 372.796 455.68C372.09 455.28 371.53 454.7 371.116 453.94C370.703 453.18 370.496 452.28 370.496 451.24V450.98C370.496 449.94 370.703 449.047 371.116 448.3C371.53 447.54 372.083 446.96 372.776 446.56C373.483 446.147 374.263 445.94 375.116 445.94C375.796 445.94 376.37 446.034 376.836 446.22C377.316 446.394 377.703 446.62 377.996 446.9C378.29 447.167 378.516 447.454 378.676 447.76H378.956V442H380.536V456H378.996V454.38H378.716C378.45 454.874 378.036 455.314 377.476 455.7C376.916 456.087 376.13 456.28 375.116 456.28ZM375.536 454.88C376.55 454.88 377.37 454.56 377.996 453.92C378.636 453.267 378.956 452.36 378.956 451.2V451.02C378.956 449.86 378.636 448.96 377.996 448.32C377.37 447.667 376.55 447.34 375.536 447.34C374.536 447.34 373.71 447.667 373.056 448.32C372.416 448.96 372.096 449.86 372.096 451.02V451.2C372.096 452.36 372.416 453.267 373.056 453.92C373.71 454.56 374.536 454.88 375.536 454.88Z" fill="#8B949E"/>
<path d="M388.327 456.28C387.341 456.28 386.474 456.074 385.728 455.66C384.981 455.234 384.401 454.64 383.987 453.88C383.574 453.12 383.368 452.24 383.368 451.24V451C383.368 449.987 383.574 449.1 383.987 448.34C384.401 447.58 384.974 446.994 385.708 446.58C386.441 446.154 387.281 445.94 388.228 445.94C389.148 445.94 389.961 446.14 390.667 446.54C391.374 446.927 391.927 447.487 392.327 448.22C392.727 448.954 392.928 449.814 392.928 450.8V451.52H384.948C384.988 452.574 385.327 453.4 385.967 454C386.607 454.587 387.408 454.88 388.368 454.88C389.208 454.88 389.854 454.687 390.307 454.3C390.761 453.914 391.107 453.454 391.347 452.92L392.708 453.58C392.508 453.994 392.228 454.407 391.868 454.82C391.521 455.234 391.061 455.58 390.487 455.86C389.927 456.14 389.207 456.28 388.327 456.28ZM384.967 450.22H391.327C391.274 449.314 390.961 448.607 390.388 448.1C389.828 447.594 389.108 447.34 388.228 447.34C387.334 447.34 386.601 447.594 386.028 448.1C385.454 448.607 385.101 449.314 384.967 450.22Z" fill="#8B949E"/>
<path d="M400.183 456.28C399.237 456.28 398.383 456.08 397.623 455.68C396.877 455.267 396.283 454.68 395.843 453.92C395.417 453.16 395.203 452.26 395.203 451.22V451C395.203 449.947 395.417 449.047 395.843 448.3C396.283 447.54 396.877 446.96 397.623 446.56C398.383 446.147 399.237 445.94 400.183 445.94C401.117 445.94 401.91 446.114 402.563 446.46C403.23 446.807 403.75 447.267 404.123 447.84C404.51 448.414 404.757 449.027 404.863 449.68L403.323 450C403.257 449.52 403.097 449.08 402.843 448.68C402.603 448.28 402.263 447.96 401.823 447.72C401.383 447.48 400.843 447.36 400.203 447.36C399.55 447.36 398.963 447.507 398.443 447.8C397.937 448.094 397.53 448.514 397.223 449.06C396.93 449.607 396.783 450.26 396.783 451.02V451.2C396.783 451.96 396.93 452.614 397.223 453.16C397.53 453.707 397.937 454.127 398.443 454.42C398.963 454.714 399.55 454.86 400.203 454.86C401.177 454.86 401.917 454.607 402.423 454.1C402.943 453.594 403.263 452.967 403.383 452.22L404.943 452.56C404.797 453.2 404.53 453.807 404.143 454.38C403.757 454.954 403.23 455.414 402.563 455.76C401.91 456.107 401.117 456.28 400.183 456.28Z" fill="#8B949E"/>
<path d="M412.157 456.28C411.17 456.28 410.297 456.074 409.537 455.66C408.79 455.247 408.203 454.667 407.777 453.92C407.363 453.16 407.157 452.267 407.157 451.24V450.98C407.157 449.967 407.363 449.08 407.777 448.32C408.203 447.56 408.79 446.974 409.537 446.56C410.297 446.147 411.17 445.94 412.157 445.94C413.143 445.94 414.01 446.147 414.757 446.56C415.517 446.974 416.103 447.56 416.517 448.32C416.943 449.08 417.157 449.967 417.157 450.98V451.24C417.157 452.267 416.943 453.16 416.517 453.92C416.103 454.667 415.517 455.247 414.757 455.66C414.01 456.074 413.143 456.28 412.157 456.28ZM412.157 454.86C413.197 454.86 414.023 454.534 414.637 453.88C415.263 453.214 415.577 452.32 415.577 451.2V451.02C415.577 449.9 415.263 449.014 414.637 448.36C414.023 447.694 413.197 447.36 412.157 447.36C411.13 447.36 410.303 447.694 409.677 448.36C409.05 449.014 408.737 449.9 408.737 451.02V451.2C408.737 452.32 409.05 453.214 409.677 453.88C410.303 454.534 411.13 454.86 412.157 454.86Z" fill="#8B949E"/>
<path d="M420 456V446.22H421.54V447.88H421.82C422.033 447.414 422.393 446.994 422.9 446.62C423.42 446.234 424.18 446.04 425.18 446.04C425.913 446.04 426.567 446.194 427.14 446.5C427.727 446.807 428.193 447.26 428.54 447.86C428.887 448.46 429.06 449.2 429.06 450.08V456H427.48V450.2C427.48 449.227 427.233 448.52 426.74 448.08C426.26 447.64 425.607 447.42 424.78 447.42C423.833 447.42 423.06 447.727 422.46 448.34C421.873 448.954 421.58 449.867 421.58 451.08V456H420Z" fill="#8B949E"/>
<path d="M433.125 456.28C432.739 456.28 432.412 456.154 432.145 455.9C431.892 455.647 431.765 455.32 431.765 454.92C431.765 454.52 431.892 454.194 432.145 453.94C432.412 453.687 432.739 453.56 433.125 453.56C433.525 453.56 433.852 453.687 434.105 453.94C434.359 454.194 434.485 454.52 434.485 454.92C434.485 455.32 434.359 455.647 434.105 455.9C433.852 456.154 433.525 456.28 433.125 456.28Z" fill="#8B949E"/>
<path d="M441.327 456.28C440.487 456.28 439.714 456.08 439.007 455.68C438.301 455.28 437.741 454.7 437.327 453.94C436.914 453.18 436.707 452.28 436.707 451.24V450.98C436.707 449.94 436.914 449.047 437.327 448.3C437.741 447.54 438.294 446.96 438.987 446.56C439.694 446.147 440.474 445.94 441.327 445.94C442.007 445.94 442.581 446.034 443.047 446.22C443.527 446.394 443.914 446.62 444.207 446.9C444.501 447.167 444.727 447.454 444.887 447.76H445.167V442H446.747V456H445.207V454.38H444.927C444.661 454.874 444.247 455.314 443.687 455.7C443.127 456.087 442.341 456.28 441.327 456.28ZM441.747 454.88C442.761 454.88 443.581 454.56 444.207 453.92C444.847 453.267 445.167 452.36 445.167 451.2V451.02C445.167 449.86 444.847 448.96 444.207 448.32C443.581 447.667 442.761 447.34 441.747 447.34C440.747 447.34 439.921 447.667 439.267 448.32C438.627 448.96 438.307 449.86 438.307 451.02V451.2C438.307 452.36 438.627 453.267 439.267 453.92C439.921 454.56 440.747 454.88 441.747 454.88Z" fill="#8B949E"/>
<path d="M454.538 456.28C453.552 456.28 452.685 456.074 451.938 455.66C451.192 455.234 450.612 454.64 450.198 453.88C449.785 453.12 449.578 452.24 449.578 451.24V451C449.578 449.987 449.785 449.1 450.198 448.34C450.612 447.58 451.185 446.994 451.918 446.58C452.652 446.154 453.492 445.94 454.438 445.94C455.358 445.94 456.172 446.14 456.878 446.54C457.585 446.927 458.138 447.487 458.538 448.22C458.938 448.954 459.138 449.814 459.138 450.8V451.52H451.158C451.198 452.574 451.538 453.4 452.178 454C452.818 454.587 453.618 454.88 454.578 454.88C455.418 454.88 456.065 454.687 456.518 454.3C456.972 453.914 457.318 453.454 457.558 452.92L458.918 453.58C458.718 453.994 458.438 454.407 458.078 454.82C457.732 455.234 457.272 455.58 456.698 455.86C456.138 456.14 455.418 456.28 454.538 456.28ZM451.178 450.22H457.538C457.485 449.314 457.172 448.607 456.598 448.1C456.038 447.594 455.318 447.34 454.438 447.34C453.545 447.34 452.812 447.594 452.238 448.1C451.665 448.607 451.312 449.314 451.178 450.22Z" fill="#8B949E"/>
<path d="M463.964 456L460.464 446.22H462.144L465.084 454.82H465.364L468.304 446.22H469.984L466.484 456H463.964Z" fill="#8B949E"/>
<path d="M470.098 460L475.978 442H477.558L471.678 460H470.098Z" fill="#8B949E"/>
<path d="M483.022 456.28C481.809 456.28 480.782 456 479.942 455.44C479.115 454.88 478.615 453.994 478.442 452.78L479.942 452.44C480.049 453.08 480.249 453.587 480.542 453.96C480.835 454.32 481.195 454.58 481.622 454.74C482.062 454.887 482.529 454.96 483.022 454.96C483.755 454.96 484.335 454.814 484.762 454.52C485.189 454.227 485.402 453.834 485.402 453.34C485.402 452.834 485.195 452.48 484.782 452.28C484.382 452.067 483.829 451.894 483.122 451.76L482.302 451.62C481.675 451.514 481.102 451.347 480.582 451.12C480.062 450.894 479.649 450.587 479.342 450.2C479.035 449.814 478.882 449.327 478.882 448.74C478.882 447.86 479.222 447.174 479.902 446.68C480.582 446.187 481.482 445.94 482.602 445.94C483.709 445.94 484.602 446.194 485.282 446.7C485.975 447.194 486.422 447.894 486.622 448.8L485.142 449.18C485.022 448.474 484.735 447.98 484.282 447.7C483.829 447.407 483.269 447.26 482.602 447.26C481.935 447.26 481.409 447.387 481.022 447.64C480.635 447.88 480.442 448.24 480.442 448.72C480.442 449.187 480.622 449.534 480.982 449.76C481.355 449.974 481.849 450.134 482.462 450.24L483.282 450.38C483.975 450.5 484.595 450.667 485.142 450.88C485.702 451.08 486.142 451.374 486.462 451.76C486.795 452.147 486.962 452.654 486.962 453.28C486.962 454.24 486.602 454.98 485.882 455.5C485.175 456.02 484.222 456.28 483.022 456.28Z" fill="#8B949E"/>
<path d="M493.369 456.18C492.662 456.18 492.009 456.027 491.409 455.72C490.822 455.414 490.355 454.96 490.009 454.36C489.675 453.747 489.509 453.007 489.509 452.14V446.22H491.089V452.02C491.089 452.994 491.329 453.7 491.809 454.14C492.302 454.58 492.962 454.8 493.789 454.8C494.722 454.8 495.489 454.494 496.089 453.88C496.689 453.267 496.989 452.354 496.989 451.14V446.22H498.569V456H497.029V454.34H496.749C496.535 454.807 496.169 455.234 495.649 455.62C495.129 455.994 494.369 456.18 493.369 456.18Z" fill="#8B949E"/>
<path d="M501.875 456V446.22H503.415V447.44H503.695C503.882 447.094 504.188 446.774 504.615 446.48C505.042 446.187 505.642 446.04 506.415 446.04C507.175 446.04 507.788 446.207 508.255 446.54C508.735 446.874 509.082 447.28 509.295 447.76H509.575C509.802 447.28 510.142 446.874 510.595 446.54C511.062 446.207 511.708 446.04 512.535 446.04C513.188 446.04 513.762 446.174 514.255 446.44C514.748 446.707 515.135 447.094 515.415 447.6C515.708 448.094 515.855 448.687 515.855 449.38V456H514.275V449.52C514.275 448.867 514.082 448.354 513.695 447.98C513.322 447.594 512.795 447.4 512.115 447.4C511.395 447.4 510.802 447.634 510.335 448.1C509.882 448.567 509.655 449.24 509.655 450.12V456H508.075V449.52C508.075 448.867 507.882 448.354 507.495 447.98C507.122 447.594 506.595 447.4 505.915 447.4C505.195 447.4 504.602 447.634 504.135 448.1C503.682 448.567 503.455 449.24 503.455 450.12V456H501.875Z" fill="#8B949E"/>
<path d="M519.082 456V446.22H520.622V447.44H520.902C521.089 447.094 521.395 446.774 521.822 446.48C522.249 446.187 522.849 446.04 523.622 446.04C524.382 446.04 524.995 446.207 525.462 446.54C525.942 446.874 526.289 447.28 526.502 447.76H526.782C527.009 447.28 527.349 446.874 527.802 446.54C528.269 446.207 528.915 446.04 529.742 446.04C530.395 446.04 530.969 446.174 531.462 446.44C531.955 446.707 532.342 447.094 532.622 447.6C532.915 448.094 533.062 448.687 533.062 449.38V456H531.482V449.52C531.482 448.867 531.289 448.354 530.902 447.98C530.529 447.594 530.002 447.4 529.322 447.4C528.602 447.4 528.009 447.634 527.542 448.1C527.089 448.567 526.862 449.24 526.862 450.12V456H525.282V449.52C525.282 448.867 525.089 448.354 524.702 447.98C524.329 447.594 523.802 447.4 523.122 447.4C522.402 447.4 521.809 447.634 521.342 448.1C520.889 448.567 520.662 449.24 520.662 450.12V456H519.082Z" fill="#8B949E"/>
<path d="M536.289 456V446.22H537.869V456H536.289ZM537.089 444.7C536.742 444.7 536.449 444.587 536.209 444.36C535.982 444.134 535.869 443.847 535.869 443.5C535.869 443.14 535.982 442.847 536.209 442.62C536.449 442.394 536.742 442.28 537.089 442.28C537.436 442.28 537.722 442.394 537.949 442.62C538.176 442.847 538.289 443.14 538.289 443.5C538.289 443.847 538.176 444.134 537.949 444.36C537.722 444.587 537.436 444.7 537.089 444.7Z" fill="#8B949E"/>
<path d="M544.791 456C544.231 456 543.798 455.847 543.491 455.54C543.198 455.234 543.051 454.814 543.051 454.28V447.6H540.111V446.22H543.051V442.74H544.631V446.22H547.831V447.6H544.631V454.04C544.631 454.44 544.825 454.64 545.211 454.64H547.391V456H544.791Z" fill="#8B949E"/>
<path d="M345 458.5H548.731V459.5H345V458.5Z" fill="#8B949E"/>
<path d="M122.48 455.656C121.277 455.656 119.974 455.618 118.571 455.543C117.167 455.468 115.801 455.38 114.461 455.267C113.133 455.154 111.942 455.029 110.89 454.879V448.526C111.491 448.564 112.168 448.626 112.945 448.701C113.709 448.777 114.511 448.827 115.338 448.877C116.165 448.914 116.954 448.939 117.731 448.965C118.508 448.99 119.197 448.99 119.836 448.99C121.59 448.99 122.856 448.927 123.62 448.814C124.385 448.701 124.873 448.463 125.074 448.112C125.287 447.762 125.387 447.273 125.387 446.684C125.387 446.083 125.324 445.657 125.186 445.393C125.049 445.13 124.798 444.942 124.397 444.83C124.009 444.717 123.345 444.604 122.405 444.491L115.714 443.652C114.11 443.426 112.882 442.95 112.067 442.223C111.241 441.497 110.689 440.507 110.414 439.241C110.138 437.988 110 436.522 110 434.831C110 432.851 110.301 431.285 110.902 430.144C111.504 429.004 112.343 428.14 113.396 427.563C114.461 426.987 115.739 426.598 117.217 426.41C118.696 426.222 120.275 426.135 121.966 426.135C123.169 426.135 124.397 426.172 125.675 426.248C126.953 426.323 128.169 426.423 129.321 426.561C130.487 426.686 131.439 426.836 132.191 426.987V433.277C131.251 433.202 130.274 433.127 129.246 433.051C128.219 432.976 127.229 432.926 126.302 432.876C125.362 432.838 124.572 432.826 123.946 432.826C122.455 432.826 121.29 432.863 120.488 432.939C119.686 433.014 119.134 433.202 118.859 433.502C118.583 433.803 118.445 434.292 118.445 434.968C118.445 435.495 118.495 435.896 118.583 436.171C118.671 436.447 118.909 436.647 119.285 436.76C119.661 436.873 120.237 436.986 121.026 437.099L127.768 437.938C129.046 438.088 130.123 438.389 131.025 438.84C131.928 439.291 132.604 440.093 133.08 441.259C133.544 442.424 133.782 444.153 133.782 446.484C133.782 448.589 133.506 450.243 132.968 451.458C132.429 452.673 131.652 453.588 130.637 454.215C129.622 454.829 128.444 455.23 127.066 455.418C125.688 455.555 124.159 455.656 122.48 455.656Z" fill="#8800FF"/>
<path d="M145.622 455.655C143.718 455.655 142.177 455.405 141.024 454.929C139.859 454.44 138.981 453.738 138.38 452.799C137.779 451.859 137.39 450.706 137.202 449.315C137.014 447.924 136.927 446.32 136.927 444.491V426.573H145.911V441.734C145.911 443.276 145.961 444.479 146.048 445.356C146.136 446.233 146.324 446.884 146.587 447.298C146.85 447.711 147.239 447.962 147.765 448.05C148.291 448.15 149.005 448.187 149.895 448.187C150.872 448.187 151.649 448.087 152.226 447.874C152.802 447.674 153.228 447.323 153.491 446.834C153.754 446.346 153.93 445.669 154.03 444.779C154.13 443.902 154.168 442.812 154.168 441.496V426.561H163.215V455.204H154.619L154.393 451.721H153.892C153.366 452.698 152.689 453.475 151.862 454.052C151.035 454.628 150.108 455.041 149.056 455.292C147.991 455.53 146.85 455.655 145.622 455.655Z" fill="#8800FF"/>
<path d="M167.589 455.205V426.561H176.122L176.347 430.044H176.848C177.375 429.067 178.039 428.29 178.841 427.714C179.643 427.137 180.557 426.724 181.572 426.473C182.587 426.235 183.665 426.11 184.83 426.11C187.085 426.11 188.777 426.423 189.942 427.037C191.095 427.651 191.922 428.653 192.411 430.044H192.912C193.476 429.067 194.165 428.29 194.992 427.714C195.819 427.137 196.746 426.724 197.774 426.473C198.801 426.235 199.891 426.11 201.056 426.11C203.487 426.11 205.304 426.536 206.482 427.4C207.66 428.265 208.449 429.518 208.838 431.159C209.226 432.813 209.427 434.843 209.427 437.287V455.205H200.442V440.043C200.442 438.502 200.392 437.299 200.305 436.422C200.204 435.545 200.054 434.893 199.828 434.48C199.603 434.066 199.252 433.816 198.763 433.716C198.275 433.628 197.636 433.578 196.846 433.578C195.982 433.578 195.293 433.678 194.766 433.891C194.24 434.104 193.852 434.442 193.589 434.931C193.325 435.42 193.162 436.096 193.112 436.948C193.05 437.813 193.025 438.916 193.025 440.256V455.192H183.978V440.031C183.978 438.49 183.94 437.287 183.865 436.41C183.79 435.532 183.627 434.881 183.389 434.467C183.151 434.054 182.788 433.803 182.324 433.703C181.86 433.615 181.234 433.565 180.444 433.565C179.592 433.565 178.891 433.666 178.364 433.879C177.838 434.092 177.45 434.43 177.187 434.918C176.924 435.407 176.748 436.084 176.685 436.973C176.61 437.851 176.573 438.953 176.573 440.256V455.192H167.589V455.205Z" fill="#8800FF"/>
<path d="M213.926 455.205V426.561H222.459L222.685 430.044H223.186C223.712 429.067 224.376 428.29 225.178 427.714C225.98 427.137 226.895 426.724 227.897 426.473C228.912 426.235 229.99 426.11 231.155 426.11C233.398 426.11 235.102 426.423 236.267 427.037C237.433 427.651 238.26 428.653 238.736 430.044H239.237C239.801 429.067 240.49 428.29 241.317 427.714C242.144 427.137 243.071 426.724 244.099 426.473C245.126 426.235 246.229 426.11 247.382 426.11C249.812 426.11 251.629 426.536 252.807 427.4C253.985 428.265 254.774 429.518 255.163 431.159C255.564 432.813 255.752 434.843 255.752 437.287V455.205H246.768V440.043C246.768 438.502 246.717 437.299 246.63 436.422C246.542 435.545 246.379 434.893 246.154 434.48C245.928 434.066 245.577 433.816 245.088 433.716C244.6 433.628 243.973 433.578 243.184 433.578C242.319 433.578 241.63 433.678 241.104 433.891C240.578 434.104 240.189 434.442 239.926 434.931C239.663 435.42 239.513 436.096 239.45 436.948C239.387 437.813 239.362 438.916 239.362 440.256V455.192H230.316V440.031C230.316 438.49 230.278 437.287 230.203 436.41C230.128 435.532 229.965 434.881 229.727 434.467C229.489 434.054 229.125 433.803 228.662 433.703C228.185 433.615 227.559 433.565 226.782 433.565C225.917 433.565 225.228 433.666 224.702 433.879C224.176 434.092 223.787 434.43 223.524 434.918C223.261 435.407 223.098 436.084 223.023 436.973C222.948 437.851 222.91 438.953 222.91 440.256V455.192H213.926V455.205Z" fill="#8800FF"/>
<path d="M260.147 420.709V413.467H269.419V420.709H260.147ZM260.26 455.204V426.561H269.357V455.204H260.26Z" fill="#8800FF"/>
<path d="M276.663 455.205V433.415H271.438V426.561H276.663V418.253H285.76V426.561H292V433.415H285.76V455.205H276.663Z" fill="#8800FF"/>
<g clip-path="url(#clip1_260_428)">
<path d="M115.584 418.509C114.512 418.509 113.632 418.42 112.944 418.242C112.256 418.064 111.71 417.806 111.31 417.473C110.91 417.14 110.612 416.722 110.43 416.225C110.248 415.728 110.126 415.156 110.076 414.513C110.025 413.87 110 413.157 110 412.379C110 411.6 110.025 410.915 110.076 410.282C110.126 409.644 110.253 409.072 110.455 408.57C110.658 408.064 110.956 407.642 111.345 407.299C111.74 406.957 112.276 406.699 112.954 406.516C113.632 406.338 114.502 406.249 115.559 406.249C116.227 406.249 116.904 406.281 117.582 406.342C118.26 406.403 118.867 406.497 119.403 406.624V409.26C119.069 409.213 118.634 409.175 118.108 409.143C117.582 409.11 117.092 409.096 116.636 409.096C116.05 409.096 115.589 409.138 115.256 409.222C114.922 409.307 114.669 409.461 114.502 409.687C114.335 409.912 114.224 410.24 114.163 410.676C114.102 411.112 114.077 411.68 114.077 412.379C114.077 413.078 114.107 413.65 114.163 414.091C114.224 414.536 114.335 414.869 114.502 415.095C114.669 415.32 114.932 415.47 115.281 415.55C115.635 415.629 116.095 415.667 116.667 415.667C117.071 415.667 117.527 415.653 118.038 415.62C118.548 415.587 119.039 415.55 119.509 415.503V418.139C118.958 418.247 118.326 418.336 117.623 418.406C116.92 418.476 116.242 418.509 115.584 418.509V418.509Z" fill="white"/>
<path d="M126.571 418.509C125.433 418.509 124.482 418.448 123.728 418.321C122.974 418.199 122.378 417.998 121.943 417.716C121.508 417.435 121.189 417.064 120.987 416.595C120.784 416.131 120.658 415.549 120.597 414.846C120.536 414.147 120.511 413.317 120.511 412.351C120.511 411.384 120.541 410.559 120.597 409.869C120.658 409.18 120.784 408.598 120.987 408.134C121.189 407.67 121.508 407.294 121.943 407.013C122.378 406.731 122.974 406.534 123.728 406.417C124.482 406.3 125.428 406.244 126.571 406.244C127.714 406.244 128.68 406.3 129.439 406.417C130.193 406.534 130.789 406.731 131.224 407.013C131.659 407.294 131.978 407.665 132.18 408.134C132.383 408.603 132.509 409.18 132.57 409.869C132.631 410.559 132.656 411.389 132.656 412.351C132.656 413.312 132.626 414.147 132.57 414.846C132.514 415.545 132.383 416.126 132.18 416.595C131.978 417.064 131.659 417.435 131.224 417.716C130.789 417.998 130.193 418.199 129.439 418.321C128.685 418.443 127.729 418.509 126.571 418.509ZM126.571 415.667C127.072 415.667 127.466 415.634 127.754 415.573C128.038 415.512 128.24 415.371 128.356 415.155C128.473 414.935 128.544 414.602 128.569 414.152C128.594 413.701 128.604 413.101 128.604 412.355C128.604 411.609 128.589 411.018 128.569 410.582C128.544 410.146 128.473 409.822 128.356 409.602C128.24 409.386 128.038 409.246 127.754 409.185C127.471 409.124 127.077 409.091 126.571 409.091C126.065 409.091 125.676 409.124 125.402 409.185C125.124 409.246 124.927 409.386 124.811 409.602C124.694 409.822 124.623 410.146 124.598 410.582C124.573 411.018 124.563 411.609 124.563 412.355C124.563 413.101 124.578 413.701 124.598 414.152C124.623 414.602 124.694 414.935 124.811 415.155C124.927 415.371 125.124 415.512 125.402 415.573C125.681 415.634 126.07 415.667 126.571 415.667Z" fill="white"/>
<path d="M137.987 418.509C137.249 418.509 136.611 418.415 136.075 418.228C135.539 418.04 135.104 417.721 134.765 417.262C134.431 416.802 134.183 416.178 134.022 415.385C133.865 414.593 133.784 413.598 133.784 412.402C133.784 411.206 133.86 410.231 134.011 409.429C134.163 408.627 134.406 407.998 134.74 407.538C135.074 407.079 135.509 406.75 136.035 406.549C136.561 406.347 137.203 406.249 137.957 406.249C138.458 406.249 138.933 406.286 139.378 406.366C139.823 406.446 140.228 406.586 140.597 406.788C140.967 406.99 141.285 407.295 141.553 407.698H141.756V401H145.802V418.322H141.953L141.852 416.9H141.649C141.396 417.351 141.073 417.688 140.683 417.914C140.289 418.139 139.859 418.293 139.398 418.378C138.938 418.462 138.463 418.505 137.977 418.505L137.987 418.509ZM139.798 415.432C140.319 415.432 140.709 415.376 140.967 415.259C141.224 415.142 141.417 414.93 141.533 414.616C141.634 414.335 141.695 414.016 141.72 413.65C141.745 413.284 141.756 412.862 141.756 412.379C141.756 411.896 141.745 411.478 141.72 411.117C141.695 410.756 141.634 410.456 141.533 410.207C141.432 409.865 141.25 409.63 140.982 409.508C140.714 409.386 140.319 409.321 139.798 409.321C139.348 409.321 138.984 409.354 138.716 409.415C138.448 409.476 138.25 409.607 138.124 409.799C137.997 409.991 137.916 410.292 137.886 410.695C137.851 411.098 137.835 411.657 137.835 412.374C137.835 413.092 137.851 413.655 137.886 414.063C137.921 414.475 137.997 414.776 138.124 414.973C138.25 415.17 138.448 415.292 138.716 415.348C138.984 415.404 139.343 415.428 139.798 415.428V415.432Z" fill="white"/>
<path d="M153.779 418.509C152.57 418.509 151.574 418.439 150.785 418.298C149.996 418.158 149.373 417.937 148.913 417.632C148.453 417.327 148.109 416.938 147.881 416.455C147.654 415.972 147.512 415.4 147.456 414.729C147.396 414.063 147.37 413.284 147.37 412.398C147.37 411.324 147.426 410.4 147.532 409.621C147.638 408.842 147.886 408.209 148.276 407.707C148.66 407.21 149.262 406.84 150.071 406.6C150.886 406.361 151.988 406.239 153.379 406.239C154.502 406.239 155.418 406.314 156.121 406.46C156.824 406.605 157.381 406.835 157.795 407.135C158.205 407.44 158.498 407.829 158.675 408.312C158.852 408.796 158.964 409.372 159.014 410.048C159.065 410.723 159.09 411.507 159.09 412.393V413.303H151.371C151.371 413.833 151.397 414.255 151.447 414.574C151.498 414.893 151.629 415.132 151.852 415.287C152.069 415.442 152.403 415.545 152.858 415.601C153.314 415.658 153.941 415.681 154.745 415.681C155.064 415.681 155.438 415.672 155.878 415.658C156.313 415.643 156.774 415.62 157.249 415.587C157.725 415.554 158.175 415.526 158.595 415.493V418.106C158.225 418.186 157.78 418.256 157.249 418.317C156.723 418.378 156.156 418.425 155.549 418.458C154.948 418.491 154.361 418.505 153.789 418.505L153.779 418.509ZM155.286 411.75V411.375C155.286 410.812 155.256 410.371 155.2 410.048C155.14 409.72 155.039 409.476 154.897 409.311C154.755 409.147 154.558 409.044 154.305 408.997C154.052 408.95 153.734 408.927 153.349 408.927C152.914 408.927 152.565 408.955 152.307 409.007C152.049 409.058 151.852 409.175 151.715 409.344C151.584 409.513 151.488 409.766 151.437 410.09C151.387 410.418 151.361 410.845 151.361 411.375H155.711L155.281 411.75H155.286Z" fill="white"/>
<path d="M174.341 418.509C173.268 418.509 172.388 418.42 171.7 418.242C171.012 418.064 170.466 417.806 170.067 417.473C169.667 417.14 169.369 416.722 169.186 416.225C169.004 415.728 168.883 415.156 168.832 414.513C168.782 413.87 168.756 413.157 168.756 412.379C168.756 411.6 168.782 410.915 168.832 410.282C168.883 409.644 169.009 409.072 169.212 408.57C169.414 408.064 169.712 407.642 170.102 407.299C170.497 406.957 171.033 406.699 171.71 406.516C172.388 406.338 173.258 406.249 174.315 406.249C174.983 406.249 175.661 406.281 176.339 406.342C177.017 406.403 177.624 406.497 178.16 406.624V409.26C177.826 409.213 177.391 409.175 176.865 409.143C176.339 409.11 175.848 409.096 175.393 409.096C174.806 409.096 174.346 409.138 174.012 409.222C173.678 409.307 173.425 409.461 173.258 409.687C173.091 409.912 172.98 410.24 172.919 410.676C172.859 411.112 172.833 411.68 172.833 412.379C172.833 413.078 172.864 413.65 172.919 414.091C172.98 414.536 173.091 414.869 173.258 415.095C173.425 415.32 173.688 415.47 174.037 415.55C174.391 415.629 174.852 415.667 175.423 415.667C175.828 415.667 176.283 415.653 176.794 415.62C177.305 415.587 177.796 415.55 178.266 415.503V418.139C177.715 418.247 177.082 418.336 176.379 418.406C175.676 418.476 174.998 418.509 174.341 418.509V418.509Z" fill="white"/>
<path d="M185.327 418.509C184.189 418.509 183.238 418.448 182.484 418.321C181.731 418.199 181.134 417.998 180.699 417.716C180.264 417.435 179.945 417.064 179.743 416.595C179.541 416.131 179.414 415.549 179.353 414.846C179.293 414.147 179.267 413.317 179.267 412.351C179.267 411.384 179.298 410.559 179.353 409.869C179.414 409.18 179.541 408.598 179.743 408.134C179.945 407.67 180.264 407.294 180.699 407.013C181.134 406.731 181.731 406.534 182.484 406.417C183.238 406.3 184.184 406.244 185.327 406.244C186.47 406.244 187.436 406.3 188.195 406.417C188.949 406.534 189.546 406.731 189.981 407.013C190.416 407.294 190.734 407.665 190.937 408.134C191.139 408.603 191.266 409.18 191.326 409.869C191.387 410.559 191.412 411.389 191.412 412.351C191.412 413.312 191.382 414.147 191.326 414.846C191.271 415.545 191.139 416.126 190.937 416.595C190.734 417.064 190.416 417.435 189.981 417.716C189.546 417.998 188.949 418.199 188.195 418.321C187.442 418.443 186.485 418.509 185.327 418.509ZM185.327 415.667C185.828 415.667 186.222 415.634 186.511 415.573C186.794 415.512 186.996 415.371 187.113 415.155C187.229 414.935 187.3 414.602 187.325 414.152C187.35 413.701 187.361 413.101 187.361 412.355C187.361 411.609 187.345 411.018 187.325 410.582C187.3 410.146 187.229 409.822 187.113 409.602C186.996 409.386 186.794 409.246 186.511 409.185C186.228 409.124 185.833 409.091 185.327 409.091C184.821 409.091 184.432 409.124 184.159 409.185C183.881 409.246 183.683 409.386 183.567 409.602C183.451 409.822 183.38 410.146 183.354 410.582C183.329 411.018 183.319 411.609 183.319 412.355C183.319 413.101 183.334 413.701 183.354 414.152C183.38 414.602 183.451 414.935 183.567 415.155C183.683 415.371 183.881 415.512 184.159 415.573C184.437 415.634 184.826 415.667 185.327 415.667Z" fill="white"/>
<path d="M192.97 418.322V406.431H196.789L196.89 407.876H197.118C197.371 407.473 197.679 407.149 198.049 406.91C198.418 406.671 198.838 406.497 199.308 406.399C199.779 406.295 200.289 406.249 200.841 406.249C201.696 406.249 202.379 406.352 202.889 406.549C203.4 406.75 203.79 407.046 204.058 407.435C204.326 407.825 204.508 408.308 204.599 408.88C204.69 409.457 204.741 410.123 204.741 410.887V418.326H200.694V412.032C200.694 411.394 200.679 410.892 200.644 410.526C200.608 410.16 200.532 409.893 200.416 409.719C200.3 409.546 200.117 409.443 199.875 409.405C199.632 409.368 199.308 409.349 198.909 409.349C198.509 409.349 198.15 409.391 197.892 409.476C197.634 409.56 197.442 409.705 197.315 409.907C197.189 410.109 197.103 410.395 197.062 410.761C197.022 411.127 197.002 411.582 197.002 412.126V418.326H192.98L192.97 418.322Z" fill="white"/>
<path d="M166.996 418.373L160.891 414.898V410.071L166.996 406.572V410.348L162.965 412.468L166.996 414.588V418.364V418.373Z" fill="white"/>
<path d="M166.996 406.577V410.352L160.896 413.57V410.076L166.996 406.577Z" fill="white"/>
<path d="M206.486 406.577L212.591 410.052V414.879L206.486 418.378V414.602L210.517 412.482L206.486 410.362V406.577Z" fill="white"/>
<path d="M206.486 418.373V414.597L212.591 411.38V414.879L206.486 418.373Z" fill="white"/>
</g>
<path fill-rule="evenodd" clip-rule="evenodd" d="M827 8.92593V4H832V8.92593H827ZM827 28.6296V18.7778H832V28.6296H827ZM827 48.3333V38.4815H832V48.3333H827ZM827 68.037V58.1852H832V68.037H827ZM827 87.7407V77.8889H832V87.7407H827ZM827 107.444V97.5926H832V107.444H827ZM827 127.148V117.296H832V127.148H827ZM827 146.852V137H832V146.852H827ZM827 166.556V156.704H832V166.556H827ZM827 186.259V176.407H832V186.259H827ZM827 205.963V196.111H832V205.963H827ZM827 225.667V215.815H832V225.667H827ZM827 245.37V235.519H832V245.37H827ZM827 265.074V255.222H832V265.074H827ZM827 284.778V274.926H832V284.778H827ZM827 304.481V294.63H832V304.481H827ZM827 324.185V314.333H832V324.185H827ZM827 343.889V334.037H832V343.889H827ZM827 363.592V353.741H832V363.592H827ZM827 383.296V373.444H832V383.296H827ZM827 403V393.148H832V403H827ZM827 422.703V412.852H832V422.703H827ZM827 442.407V432.555H832V442.407H827ZM827 462.111V452.259H832V462.111H827ZM827 481.814V471.963H832V481.814H827ZM827 501.518V491.666H832V501.518H827ZM827 521.222V511.37H832V521.222H827ZM827 536V531.074H832V536H827Z" fill="#8800FF"/>
</g>
<defs>
<linearGradient id="paint0_linear_260_428" x1="421.5" y1="173" x2="1357" y2="894" gradientUnits="userSpaceOnUse">
<stop stop-color="#8800FF"/>
<stop offset="1" stop-color="#EC49F2"/>
</linearGradient>
<radialGradient id="paint1_radial_260_428" cx="0" cy="0" r="1" gradientUnits="userSpaceOnUse" gradientTransform="translate(266.692 106.208) rotate(141.275) scale(189.162 333.362)">
<stop stop-color="#2AA8D0"/>
<stop offset="0.203455" stop-color="#ADF664"/>
<stop offset="0.401848" stop-color="#FABFA5"/>
<stop offset="0.615048" stop-color="#FCF4AB"/>
<stop offset="0.823232" stop-color="#5DF7A4"/>
<stop offset="1" stop-color="#58D0F6"/>
</radialGradient>
<linearGradient id="paint2_linear_260_428" x1="282" y1="97.092" x2="102.776" y2="235.552" gradientUnits="userSpaceOnUse">
<stop stop-color="white"/>
<stop offset="0.546875"/>
<stop offset="1" stop-color="white"/>
</linearGradient>
<linearGradient id="paint3_linear_260_428" x1="138.552" y1="95.372" x2="248.976" y2="230.564" gradientUnits="userSpaceOnUse">
<stop stop-color="white" stop-opacity="0"/>
<stop offset="0.494792" stop-color="white"/>
<stop offset="1" stop-color="white" stop-opacity="0"/>
</linearGradient>
<clipPath id="clip0_260_428">
<rect width="1140" height="540" fill="white"/>
</clipPath>
<clipPath id="clip1_260_428">
<rect width="102.591" height="17.5092" fill="white" transform="translate(110 401)"/>
</clipPath>
</defs>
</svg>
