<svg width="597" height="1249" viewBox="0 0 597 1249" fill="none" xmlns="http://www.w3.org/2000/svg">
<path d="M10.5914 30.1188C10.7158 15.8591 23.5269 4.29454 39.259 4.30876L234.556 4.4747L234.577 5.99789C235.117 37.1394 263.441 62.493 297.703 62.5305C331.948 62.5678 360.18 37.2463 360.641 6.11347L360.655 4.59059L555.951 4.75653C563.618 4.76191 570.83 7.48625 576.262 12.4257C581.676 17.3496 584.675 23.8985 584.684 30.8521L585.662 856.771C585.653 865.632 581.181 873.547 573.647 878.019C568.283 881.157 565.076 886.498 565.026 892.313C565.025 892.374 565.025 892.42 565.024 892.466C565.025 898.343 568.259 903.756 573.671 906.926C581.213 911.407 585.72 919.353 585.729 928.184L586.079 1218.53C586.088 1225.45 583.112 1232.02 577.699 1236.93C572.285 1241.87 565.077 1244.57 557.41 1244.57L362.148 1244.4L362.161 1242.86C362.122 1227.52 355.548 1213.1 343.606 1202.24C331.681 1191.4 315.846 1185.43 299.025 1185.41C282.171 1185.4 266.335 1191.34 254.428 1202.15C242.504 1212.99 236.006 1227.42 235.976 1242.75L235.962 1244.28L40.7178 1244.12C33.0503 1244.11 25.8383 1241.39 20.407 1236.45C14.9929 1231.53 11.9934 1224.98 11.985 1218.02L11.652 927.697C11.6254 918.866 16.133 910.921 23.6668 906.449C29.0304 903.311 32.2373 897.97 32.2881 892.155C32.2886 892.094 32.289 892.048 32.2894 892.002C32.2889 886.125 29.0549 880.712 23.6428 877.542C16.1007 873.061 11.5937 865.115 11.5844 856.284L10.6065 30.365C10.6072 30.2881 10.6079 30.2112 10.6087 30.1189L10.5914 30.1188ZM231.161 7.55261L39.2495 7.38544C25.3306 7.37166 14.0157 17.6724 14.026 30.3487L15.0039 856.268C15.0049 864.068 18.9503 871.055 25.513 874.974C31.8872 878.722 35.7 885.078 35.7087 892.001C35.786 898.97 31.9144 905.29 25.5441 909.019C18.9823 912.915 14.9838 919.911 15.0713 927.696L15.4043 1218.02C15.4199 1224.16 18.0462 1229.94 22.8436 1234.29C27.6238 1238.64 33.958 1241.03 40.6758 1241.03L232.501 1241.19C232.913 1225.61 239.758 1211.04 251.926 1199.99C264.477 1188.58 281.196 1182.31 298.983 1182.33C316.753 1182.35 333.467 1188.65 346.043 1200.08C358.224 1211.14 365.108 1225.73 365.542 1241.31L557.368 1241.47C564.103 1241.49 570.427 1239.1 575.196 1234.77C579.966 1230.43 582.624 1224.69 582.591 1218.51L582.258 928.184C582.257 920.384 578.312 913.397 571.749 909.478C565.375 905.73 561.562 899.374 561.553 892.451C561.51 885.513 565.348 879.162 571.718 875.433C578.21 871.582 582.121 864.694 582.189 856.987C582.189 856.91 582.19 856.833 582.191 856.756L581.23 30.8527C581.214 24.7144 578.588 18.938 573.791 14.5886C569.01 10.2395 562.676 7.84584 555.958 7.84875L364.047 7.68157C362.679 39.791 333.268 65.6407 297.694 65.6072C262.102 65.5735 232.59 39.6711 231.161 7.568L231.161 7.55261Z" fill="url(#paint0_linear_2887_2973)"/>
<mask id="path-2-inside-1_2887_2973" fill="white">
<path d="M29.4149 928.162C29.4065 925.162 30.8121 922.406 32.9646 921.132C43.6398 914.872 50.054 904.144 50.035 892.467C50.0159 880.806 43.5819 870.058 32.8266 863.734C30.6962 862.469 29.321 859.765 29.3302 856.735L28.3523 30.8152C28.3442 25.8 32.8179 21.7316 38.344 21.7337L216.958 21.8925C225.252 54.9939 258.106 79.9101 296.788 79.9554C335.454 79.9851 368.223 55.1186 376.439 22.0381L555.053 22.197C560.562 22.1989 565.051 26.284 565.059 31.2992L566.037 857.219C566.045 860.265 564.674 862.96 562.487 864.249C551.812 870.509 545.398 881.237 545.417 892.914C545.436 904.59 551.87 915.323 562.625 921.647C564.721 922.896 566.13 925.662 566.122 928.646L566.455 1218.97C566.463 1223.99 561.989 1228.06 556.463 1228.05L378.125 1227.9C370.25 1194.26 337.331 1168.93 298.061 1168.89C258.774 1168.86 225.897 1194.14 218.092 1227.75L39.7537 1227.59C34.2449 1227.59 29.756 1223.5 29.7479 1218.49L29.4149 928.162Z"/>
</mask>
<path d="M29.4149 928.162C29.4065 925.162 30.8121 922.406 32.9646 921.132C43.6398 914.872 50.054 904.144 50.035 892.467C50.0159 880.806 43.5819 870.058 32.8266 863.734C30.6962 862.469 29.321 859.765 29.3302 856.735L28.3523 30.8152C28.3442 25.8 32.8179 21.7316 38.344 21.7337L216.958 21.8925C225.252 54.9939 258.106 79.9101 296.788 79.9554C335.454 79.9851 368.223 55.1186 376.439 22.0381L555.053 22.197C560.562 22.1989 565.051 26.284 565.059 31.2992L566.037 857.219C566.045 860.265 564.674 862.96 562.487 864.249C551.812 870.509 545.398 881.237 545.417 892.914C545.436 904.59 551.87 915.323 562.625 921.647C564.721 922.896 566.13 925.662 566.122 928.646L566.455 1218.97C566.463 1223.99 561.989 1228.06 556.463 1228.05L378.125 1227.9C370.25 1194.26 337.331 1168.93 298.061 1168.89C258.774 1168.86 225.897 1194.14 218.092 1227.75L39.7537 1227.59C34.2449 1227.59 29.756 1223.5 29.7479 1218.49L29.4149 928.162Z" fill="url(#paint1_linear_2887_2973)"/>
<path d="M29.4149 928.162L31.6009 928.16L31.6008 928.156L29.4149 928.162ZM32.9646 921.132L31.8588 919.246L31.8516 919.251L32.9646 921.132ZM50.035 892.467L52.221 892.464L52.221 892.464L50.035 892.467ZM32.8266 863.734L31.7107 865.614L31.7185 865.618L32.8266 863.734ZM29.3302 856.735L31.5162 856.741L31.5161 856.732L29.3302 856.735ZM28.3523 30.8152L30.5382 30.8126L30.5382 30.8117L28.3523 30.8152ZM38.344 21.7337L38.346 19.5477L38.3449 19.5477L38.344 21.7337ZM216.958 21.8925L219.079 21.3612C218.835 20.3893 217.962 19.7074 216.96 19.7065L216.958 21.8925ZM296.788 79.9554L296.786 82.1413L296.787 82.1413L296.788 79.9554ZM376.439 22.0381L376.441 19.8522C375.436 19.8513 374.559 20.5358 374.317 21.5113L376.439 22.0381ZM555.053 22.197L555.051 24.3829L555.052 24.3829L555.053 22.197ZM565.059 31.2992L567.245 31.2966L567.245 31.2957L565.059 31.2992ZM566.037 857.219L563.851 857.221L563.851 857.224L566.037 857.219ZM562.487 864.249L563.593 866.134L563.597 866.132L562.487 864.249ZM562.625 921.647L563.744 919.769L563.733 919.763L562.625 921.647ZM566.122 928.646L563.936 928.64L563.936 928.649L566.122 928.646ZM566.455 1218.97L564.269 1218.98L564.269 1218.98L566.455 1218.97ZM556.463 1228.05L556.461 1230.24L556.462 1230.24L556.463 1228.05ZM378.125 1227.9L375.996 1228.4C376.228 1229.38 377.108 1230.08 378.123 1230.08L378.125 1227.9ZM298.061 1168.89L298.059 1171.08L298.059 1171.08L298.061 1168.89ZM218.092 1227.75L218.09 1229.93C219.107 1229.93 219.991 1229.23 220.221 1228.24L218.092 1227.75ZM39.7537 1227.59L39.7557 1225.4L39.7545 1225.4L39.7537 1227.59ZM29.7479 1218.49L27.562 1218.49L27.562 1218.49L29.7479 1218.49ZM31.6008 928.156C31.5942 925.763 32.7254 923.813 34.0777 923.013L31.8516 919.251C28.8988 920.998 27.2189 924.562 27.2289 928.168L31.6008 928.156ZM34.0704 923.018C45.3622 916.396 52.2413 904.977 52.221 892.464L47.8491 892.471C47.8667 903.31 41.9174 913.348 31.8588 919.246L34.0704 923.018ZM52.221 892.464C52.2005 879.966 45.3004 868.533 33.9346 861.85L31.7185 865.618C41.8634 871.584 47.8313 881.646 47.8491 892.471L52.221 892.464ZM33.9424 861.854C32.6174 861.068 31.5088 859.176 31.5161 856.741L27.1442 856.728C27.1332 860.355 28.775 863.871 31.7107 865.614L33.9424 861.854ZM31.5161 856.732L30.5382 30.8126L26.1663 30.8178L27.1442 856.737L31.5161 856.732ZM30.5382 30.8117C30.5324 27.1995 33.8224 23.9179 38.3432 23.9196L38.3449 19.5477C31.8134 19.5452 26.156 24.4005 26.1663 30.8187L30.5382 30.8117ZM38.3421 23.9196L216.957 24.0784L216.96 19.7065L38.346 19.5477L38.3421 23.9196ZM214.838 22.4238C223.401 56.5971 257.209 82.095 296.786 82.1413L296.791 77.7694C259.003 77.7252 227.104 53.3907 219.079 21.3612L214.838 22.4238ZM296.787 82.1413C336.349 82.1718 370.078 56.7215 378.56 22.565L374.317 21.5113C366.369 53.5156 334.558 77.7985 296.79 77.7694L296.787 82.1413ZM376.437 24.2241L555.051 24.3829L555.055 20.011L376.441 19.8522L376.437 24.2241ZM555.052 24.3829C559.552 24.3845 562.867 27.6803 562.873 31.3027L567.245 31.2957C567.235 24.8877 561.572 20.0133 555.054 20.011L555.052 24.3829ZM562.873 31.3018L563.851 857.221L568.223 857.216L567.245 31.2966L562.873 31.3018ZM563.851 857.224C563.857 859.668 562.759 861.552 561.377 862.365L563.597 866.132C566.59 864.369 568.232 860.862 568.223 857.213L563.851 857.224ZM561.381 862.363C550.089 868.985 543.21 880.404 543.231 892.917L547.603 892.91C547.585 882.071 553.534 872.033 563.593 866.134L561.381 862.363ZM543.231 892.917C543.251 905.431 550.152 916.848 561.517 923.531L563.733 919.763C553.588 913.797 547.62 903.749 547.603 892.91L543.231 892.917ZM561.506 923.525C562.802 924.297 563.943 926.254 563.936 928.64L568.307 928.653C568.318 925.07 566.641 921.495 563.744 919.769L561.506 923.525ZM563.936 928.649L564.269 1218.98L568.641 1218.97L568.307 928.644L563.936 928.649ZM564.269 1218.98C564.274 1222.59 560.984 1225.87 556.464 1225.87L556.462 1230.24C562.993 1230.24 568.651 1225.39 568.641 1218.97L564.269 1218.98ZM556.465 1225.87L378.127 1225.71L378.123 1230.08L556.461 1230.24L556.465 1225.87ZM380.253 1227.4C372.122 1192.67 338.236 1166.74 298.063 1166.71L298.059 1171.08C336.427 1171.11 368.377 1195.85 375.996 1228.4L380.253 1227.4ZM298.063 1166.71C257.873 1166.67 224.023 1192.55 215.963 1227.25L220.221 1228.24C227.771 1195.73 259.675 1171.05 298.059 1171.08L298.063 1166.71ZM218.094 1225.56L39.7557 1225.4L39.7518 1229.78L218.09 1229.93L218.094 1225.56ZM39.7545 1225.4C35.2551 1225.4 31.9397 1222.11 31.9339 1218.49L27.562 1218.49C27.5723 1224.9 33.2346 1229.77 39.753 1229.78L39.7545 1225.4ZM31.9339 1218.49L31.6008 928.16L27.2289 928.165L27.562 1218.49L31.9339 1218.49Z" fill="black" mask="url(#path-2-inside-1_2887_2973)"/>
<path d="M92.2484 622.971C90.2796 622.971 88.662 622.794 87.4062 622.451C86.1505 622.108 85.1501 621.609 84.4051 620.965C83.6708 620.32 83.1281 619.52 82.7875 618.553C82.447 617.597 82.2341 616.484 82.1384 615.237C82.0426 613.99 82 612.617 82 611.11C82 609.634 82.0426 608.283 82.1384 607.056C82.2341 605.829 82.4576 604.717 82.8301 603.74C83.2026 602.763 83.7453 601.942 84.469 601.287C85.1927 600.622 86.1717 600.123 87.4275 599.78C88.6727 599.436 90.269 599.26 92.2058 599.26C93.4297 599.26 94.6748 599.322 95.92 599.436C97.1651 599.561 98.2825 599.738 99.2616 599.977V605.071C98.6444 604.977 97.8568 604.904 96.8884 604.842C95.92 604.78 95.026 604.748 94.1853 604.748C93.1104 604.748 92.2591 604.832 91.6525 604.998C91.0352 605.164 90.5776 605.466 90.269 605.902C89.9604 606.339 89.7581 606.973 89.6517 607.815C89.5453 608.657 89.4921 609.748 89.4921 611.1C89.4921 612.451 89.5453 613.553 89.6517 614.416C89.7581 615.268 89.971 615.923 90.269 616.36C90.5776 616.796 91.0565 617.087 91.695 617.243C92.3442 617.389 93.1849 617.472 94.2385 617.472C94.9728 617.472 95.8135 617.441 96.7501 617.378C97.6866 617.316 98.5911 617.243 99.4532 617.15V622.243C98.4422 622.451 97.2822 622.628 95.9945 622.763C94.7068 622.898 93.451 622.971 92.2484 622.971Z" fill="white"/>
<path d="M112.405 622.971C110.309 622.971 108.574 622.846 107.191 622.607C105.807 622.368 104.711 621.973 103.913 621.432C103.115 620.892 102.529 620.175 102.157 619.27C101.784 618.366 101.55 617.243 101.444 615.892C101.337 614.54 101.284 612.929 101.284 611.069C101.284 609.208 101.337 607.607 101.444 606.266C101.55 604.925 101.784 603.813 102.157 602.908C102.529 602.004 103.115 601.287 103.913 600.746C104.711 600.206 105.807 599.821 107.191 599.592C108.574 599.364 110.309 599.26 112.405 599.26C114.523 599.26 116.279 599.374 117.662 599.592C119.046 599.821 120.131 600.206 120.94 600.746C121.738 601.287 122.324 602.004 122.696 602.908C123.069 603.813 123.303 604.925 123.409 606.266C123.516 607.607 123.569 609.208 123.569 611.069C123.569 612.929 123.516 614.54 123.409 615.892C123.303 617.243 123.069 618.366 122.696 619.27C122.324 620.175 121.738 620.892 120.94 621.432C120.142 621.973 119.046 622.368 117.662 622.607C116.279 622.846 114.523 622.971 112.405 622.971ZM112.405 617.472C113.331 617.472 114.044 617.409 114.576 617.295C115.098 617.181 115.47 616.9 115.683 616.484C115.896 616.058 116.034 615.414 116.077 614.54C116.119 613.667 116.141 612.513 116.141 611.069C116.141 609.624 116.119 608.491 116.077 607.649C116.034 606.807 115.896 606.172 115.683 605.757C115.47 605.341 115.098 605.071 114.576 604.946C114.055 604.821 113.331 604.769 112.405 604.769C111.479 604.769 110.766 604.831 110.256 604.946C109.745 605.06 109.383 605.341 109.17 605.757C108.957 606.183 108.819 606.807 108.776 607.649C108.734 608.491 108.712 609.634 108.712 611.069C108.712 612.503 108.734 613.667 108.776 614.54C108.819 615.414 108.957 616.058 109.17 616.484C109.383 616.9 109.745 617.17 110.256 617.295C110.766 617.409 111.479 617.472 112.405 617.472Z" fill="white"/>
<path d="M133.348 622.971C131.997 622.971 130.826 622.794 129.847 622.43C128.858 622.067 128.059 621.453 127.442 620.559C126.825 619.676 126.378 618.46 126.08 616.932C125.793 615.403 125.644 613.48 125.644 611.162C125.644 608.875 125.782 606.963 126.059 605.414C126.335 603.865 126.782 602.649 127.4 601.765C128.017 600.882 128.804 600.237 129.773 599.853C130.741 599.468 131.922 599.27 133.306 599.27C134.232 599.27 135.094 599.343 135.913 599.499C136.722 599.655 137.467 599.925 138.148 600.31C138.829 600.705 139.404 601.287 139.904 602.067H140.277V589.135H147.705V622.618H140.649L140.468 619.873H140.096C139.638 620.747 139.042 621.401 138.318 621.838C137.595 622.275 136.807 622.576 135.966 622.742C135.104 622.888 134.242 622.971 133.348 622.971ZM136.669 617.025C137.627 617.025 138.34 616.911 138.819 616.682C139.297 616.453 139.638 616.048 139.862 615.445C140.042 614.904 140.159 614.281 140.213 613.574C140.255 612.867 140.277 612.046 140.277 611.121C140.277 610.185 140.255 609.374 140.213 608.688C140.17 608.002 140.053 607.41 139.862 606.932C139.681 606.266 139.34 605.819 138.85 605.58C138.361 605.341 137.637 605.216 136.68 605.216C135.849 605.216 135.19 605.279 134.7 605.393C134.211 605.518 133.849 605.757 133.615 606.142C133.38 606.516 133.242 607.098 133.178 607.877C133.114 608.657 133.082 609.738 133.082 611.121C133.082 612.503 133.114 613.595 133.178 614.385C133.242 615.185 133.38 615.767 133.615 616.142C133.849 616.516 134.211 616.755 134.7 616.859C135.179 616.973 135.839 617.025 136.669 617.025Z" fill="white"/>
<path d="M162.317 622.971C160.104 622.971 158.273 622.836 156.826 622.566C155.378 622.295 154.24 621.869 153.388 621.287C152.548 620.705 151.909 619.946 151.494 619.01C151.079 618.075 150.824 616.973 150.707 615.674C150.6 614.385 150.547 612.877 150.547 611.173C150.547 609.104 150.643 607.316 150.845 605.809C151.047 604.312 151.494 603.075 152.207 602.119C152.909 601.162 154.016 600.445 155.506 599.977C156.996 599.509 159.018 599.281 161.572 599.281C163.637 599.281 165.308 599.426 166.595 599.707C167.883 599.988 168.915 600.424 169.66 601.017C170.416 601.599 170.959 602.358 171.278 603.293C171.597 604.229 171.81 605.341 171.895 606.651C171.991 607.961 172.033 609.468 172.033 611.183V612.94H157.89C157.89 613.959 157.933 614.78 158.028 615.393C158.124 616.006 158.369 616.464 158.763 616.765C159.167 617.067 159.774 617.264 160.604 617.368C161.434 617.472 162.594 617.524 164.062 617.524C164.648 617.524 165.339 617.514 166.138 617.482C166.936 617.451 167.777 617.41 168.649 617.347C169.522 617.285 170.352 617.233 171.118 617.171V622.212C170.437 622.368 169.618 622.503 168.649 622.618C167.681 622.742 166.638 622.825 165.531 622.888C164.446 622.94 163.371 622.971 162.317 622.971ZM165.084 609.904V609.187C165.084 608.106 165.031 607.243 164.924 606.62C164.818 605.986 164.626 605.518 164.371 605.196C164.105 604.884 163.754 604.676 163.286 604.593C162.828 604.499 162.243 604.457 161.53 604.457C160.731 604.457 160.093 604.509 159.614 604.613C159.135 604.717 158.773 604.936 158.529 605.268C158.284 605.601 158.113 606.079 158.018 606.713C157.922 607.347 157.879 608.168 157.879 609.198H165.861L165.084 609.904Z" fill="white"/>
<path d="M185.42 622.971C183.451 622.971 181.834 622.794 180.578 622.451C179.322 622.108 178.322 621.609 177.577 620.965C176.843 620.32 176.3 619.52 175.959 618.553C175.619 617.597 175.406 616.484 175.31 615.237C175.214 613.99 175.172 612.617 175.172 611.11C175.172 609.634 175.214 608.283 175.31 607.056C175.406 605.829 175.629 604.717 176.002 603.74C176.374 602.763 176.917 601.942 177.641 601.287C178.365 600.622 179.344 600.123 180.599 599.78C181.845 599.436 183.441 599.26 185.378 599.26C186.602 599.26 187.847 599.322 189.092 599.436C190.337 599.561 191.454 599.738 192.433 599.977V605.071C191.816 604.977 191.029 604.904 190.06 604.842C189.092 604.78 188.198 604.748 187.357 604.748C186.282 604.748 185.431 604.832 184.824 604.998C184.207 605.164 183.749 605.466 183.441 605.902C183.132 606.339 182.93 606.973 182.824 607.815C182.717 608.657 182.664 609.748 182.664 611.1C182.664 612.451 182.717 613.553 182.824 614.416C182.93 615.268 183.143 615.923 183.441 616.36C183.749 616.796 184.228 617.087 184.867 617.243C185.516 617.389 186.357 617.472 187.41 617.472C188.145 617.472 188.985 617.441 189.922 617.378C190.858 617.316 191.763 617.243 192.625 617.15V622.243C191.614 622.451 190.454 622.628 189.166 622.763C187.879 622.898 186.623 622.971 185.42 622.971Z" fill="white"/>
<path d="M205.577 622.971C203.481 622.971 201.746 622.846 200.362 622.607C198.979 622.368 197.883 621.973 197.085 621.432C196.287 620.892 195.701 620.175 195.329 619.27C194.956 618.366 194.722 617.243 194.616 615.892C194.509 614.54 194.456 612.929 194.456 611.069C194.456 609.208 194.509 607.607 194.616 606.266C194.722 604.925 194.956 603.813 195.329 602.908C195.701 602.004 196.287 601.287 197.085 600.746C197.883 600.206 198.979 599.821 200.362 599.592C201.746 599.364 203.481 599.26 205.577 599.26C207.695 599.26 209.451 599.374 210.834 599.592C212.218 599.821 213.303 600.206 214.112 600.746C214.91 601.287 215.496 602.004 215.868 602.908C216.241 603.813 216.475 604.925 216.581 606.266C216.688 607.607 216.741 609.208 216.741 611.069C216.741 612.929 216.688 614.54 216.581 615.892C216.475 617.243 216.241 618.366 215.868 619.27C215.496 620.175 214.91 620.892 214.112 621.432C213.314 621.973 212.218 622.368 210.834 622.607C209.451 622.846 207.706 622.971 205.577 622.971ZM205.577 617.472C206.503 617.472 207.216 617.409 207.748 617.295C208.27 617.181 208.642 616.9 208.855 616.484C209.068 616.058 209.206 615.414 209.249 614.54C209.291 613.667 209.313 612.513 209.313 611.069C209.313 609.624 209.291 608.491 209.249 607.649C209.206 606.807 209.068 606.172 208.855 605.757C208.642 605.341 208.27 605.071 207.748 604.946C207.227 604.821 206.503 604.769 205.577 604.769C204.651 604.769 203.938 604.831 203.427 604.946C202.917 605.06 202.555 605.341 202.342 605.757C202.129 606.183 201.991 606.807 201.948 607.649C201.906 608.491 201.884 609.634 201.884 611.069C201.884 612.503 201.906 613.667 201.948 614.54C201.991 615.414 202.129 616.058 202.342 616.484C202.555 616.9 202.917 617.17 203.427 617.295C203.938 617.409 204.662 617.472 205.577 617.472Z" fill="white"/>
<path d="M219.603 622.607V599.623H226.616L226.797 602.42H227.212C227.669 601.64 228.244 601.016 228.914 600.549C229.596 600.081 230.362 599.748 231.224 599.561C232.086 599.364 233.022 599.27 234.033 599.27C235.598 599.27 236.854 599.468 237.79 599.852C238.727 600.247 239.44 600.819 239.94 601.567C240.429 602.316 240.759 603.251 240.929 604.364C241.1 605.476 241.185 606.765 241.185 608.241V622.617H233.767V610.455C233.767 609.228 233.735 608.251 233.671 607.544C233.608 606.838 233.469 606.318 233.256 605.985C233.044 605.653 232.714 605.455 232.267 605.382C231.82 605.31 231.224 605.268 230.489 605.268C229.723 605.268 229.095 605.351 228.616 605.517C228.138 605.684 227.786 605.964 227.552 606.349C227.318 606.744 227.169 607.285 227.095 607.991C227.02 608.698 226.978 609.571 226.978 610.632V622.617H219.603V622.607Z" fill="white"/>
<path d="M260.489 622.71L249.294 615.995V606.671L260.489 599.914V607.211L253.093 611.307L260.489 615.413V622.71Z" fill="#8800FF"/>
<path d="M260.49 599.904V607.201L249.294 613.428V606.661L260.49 599.904Z" fill="#8800FF"/>
<path d="M421.804 599.904L432.999 606.619V615.943L421.804 622.7V615.403L429.2 611.307L421.804 607.201V599.904Z" fill="#8800FF"/>
<path d="M421.804 622.71V615.403L432.999 609.187V615.943L421.804 622.71Z" fill="#8800FF"/>
<path d="M274.452 624C273.431 624 272.324 623.969 271.132 623.906C269.94 623.844 268.78 623.771 267.641 623.678C266.513 623.584 265.502 623.48 264.608 623.355V618.085C265.119 618.116 265.694 618.168 266.353 618.231C267.003 618.293 267.684 618.335 268.386 618.376C269.089 618.407 269.759 618.428 270.419 618.449C271.079 618.47 271.664 618.47 272.207 618.47C273.697 618.47 274.771 618.418 275.421 618.324C276.07 618.231 276.485 618.033 276.655 617.742C276.836 617.451 276.921 617.046 276.921 616.557C276.921 616.058 276.868 615.705 276.751 615.486C276.634 615.268 276.421 615.112 276.08 615.019C275.751 614.925 275.186 614.832 274.388 614.738L268.705 614.041C267.343 613.854 266.3 613.459 265.609 612.856C264.906 612.254 264.438 611.432 264.204 610.382C263.97 609.343 263.853 608.127 263.853 606.723C263.853 605.081 264.108 603.782 264.619 602.836C265.13 601.89 265.843 601.172 266.737 600.694C267.641 600.216 268.727 599.894 269.982 599.738C271.238 599.582 272.579 599.509 274.016 599.509C275.037 599.509 276.08 599.54 277.166 599.603C278.251 599.665 279.284 599.748 280.263 599.863C281.253 599.967 282.061 600.091 282.7 600.216V605.434C281.902 605.372 281.072 605.31 280.199 605.247C279.326 605.185 278.486 605.143 277.698 605.102C276.9 605.071 276.229 605.06 275.697 605.06C274.431 605.06 273.441 605.091 272.76 605.154C272.079 605.216 271.611 605.372 271.377 605.622C271.142 605.871 271.025 606.276 271.025 606.838C271.025 607.274 271.068 607.607 271.142 607.836C271.217 608.064 271.419 608.231 271.738 608.324C272.058 608.418 272.547 608.511 273.218 608.605L278.943 609.301C280.029 609.426 280.944 609.676 281.71 610.05C282.476 610.424 283.051 611.089 283.455 612.056C283.849 613.023 284.051 614.457 284.051 616.391C284.051 618.137 283.817 619.509 283.36 620.518C282.902 621.526 282.242 622.285 281.38 622.805C280.518 623.314 279.518 623.646 278.347 623.802C277.177 623.917 275.878 624 274.452 624Z" fill="#8800FF"/>
<path d="M294.108 624C292.491 624 291.182 623.792 290.203 623.397C289.213 622.992 288.468 622.41 287.957 621.63C287.446 620.85 287.116 619.894 286.957 618.74C286.797 617.586 286.723 616.256 286.723 614.738V599.873H294.353V612.451C294.353 613.73 294.396 614.728 294.47 615.455C294.545 616.183 294.704 616.723 294.928 617.067C295.151 617.41 295.481 617.617 295.928 617.69C296.375 617.773 296.982 617.805 297.737 617.805C298.567 617.805 299.227 617.721 299.717 617.545C300.206 617.378 300.568 617.087 300.792 616.682C301.015 616.277 301.164 615.715 301.249 614.977C301.334 614.25 301.366 613.345 301.366 612.254V599.863H309.05V623.626H301.749L301.558 620.736H301.132C300.685 621.547 300.11 622.191 299.408 622.669C298.706 623.148 297.918 623.491 297.024 623.699C296.12 623.896 295.151 624 294.108 624Z" fill="#8800FF"/>
<path d="M312.765 623.626V599.863H320.012L320.204 602.752H320.629C321.076 601.942 321.64 601.297 322.321 600.819C323.002 600.341 323.779 599.998 324.641 599.79C325.503 599.592 326.419 599.488 327.408 599.488C329.324 599.488 330.761 599.748 331.75 600.258C332.729 600.767 333.432 601.598 333.847 602.752H334.272C334.751 601.942 335.337 601.297 336.039 600.819C336.741 600.341 337.529 599.998 338.402 599.79C339.274 599.592 340.2 599.488 341.19 599.488C343.254 599.488 344.798 599.842 345.798 600.559C346.798 601.276 347.469 602.316 347.799 603.677C348.129 605.05 348.299 606.734 348.299 608.761V623.626H340.668V611.048C340.668 609.769 340.626 608.771 340.551 608.043C340.466 607.316 340.339 606.775 340.147 606.432C339.955 606.089 339.657 605.881 339.242 605.798C338.827 605.725 338.285 605.684 337.614 605.684C336.88 605.684 336.295 605.767 335.848 605.944C335.401 606.12 335.071 606.401 334.847 606.806C334.624 607.212 334.485 607.773 334.443 608.48C334.39 609.197 334.368 610.112 334.368 611.224V623.615H326.685V611.037C326.685 609.759 326.653 608.761 326.589 608.033C326.525 607.305 326.387 606.765 326.184 606.422C325.982 606.079 325.674 605.871 325.28 605.788C324.886 605.715 324.354 605.673 323.684 605.673C322.96 605.673 322.364 605.756 321.917 605.933C321.47 606.11 321.14 606.391 320.917 606.796C320.693 607.201 320.544 607.763 320.491 608.501C320.427 609.228 320.395 610.143 320.395 611.224V623.615H312.765V623.626Z" fill="#8800FF"/>
<path d="M352.12 623.626V599.863H359.367L359.559 602.752H359.985C360.432 601.942 360.996 601.297 361.677 600.819C362.358 600.341 363.135 599.998 363.986 599.79C364.848 599.592 365.763 599.488 366.753 599.488C368.658 599.488 370.105 599.748 371.095 600.258C372.085 600.767 372.787 601.598 373.192 602.752H373.617C374.096 601.942 374.682 601.297 375.384 600.819C376.086 600.341 376.874 599.998 377.747 599.79C378.619 599.592 379.556 599.488 380.535 599.488C382.599 599.488 384.142 599.842 385.143 600.559C386.143 601.276 386.814 602.316 387.144 603.677C387.484 605.05 387.644 606.734 387.644 608.761V623.626H380.013V611.048C380.013 609.769 379.971 608.771 379.896 608.043C379.822 607.316 379.683 606.775 379.492 606.432C379.3 606.089 379.002 605.881 378.587 605.798C378.172 605.725 377.64 605.684 376.97 605.684C376.235 605.684 375.65 605.767 375.203 605.944C374.756 606.12 374.426 606.401 374.203 606.806C373.979 607.212 373.851 607.773 373.798 608.48C373.745 609.197 373.724 610.112 373.724 611.224V623.615H366.04V611.037C366.04 609.759 366.008 608.761 365.944 608.033C365.88 607.305 365.742 606.765 365.54 606.422C365.338 606.079 365.029 605.871 364.635 605.788C364.231 605.715 363.699 605.673 363.039 605.673C362.305 605.673 361.719 605.756 361.272 605.933C360.825 606.11 360.496 606.391 360.272 606.796C360.049 607.201 359.91 607.763 359.846 608.501C359.782 609.228 359.751 610.143 359.751 611.224V623.615H352.12V623.626Z" fill="#8800FF"/>
<path d="M391.378 595.008V589H399.253V595.008H391.378ZM391.474 623.626V599.863H399.2V623.626H391.474Z" fill="#8800FF"/>
<path d="M405.404 623.626V605.549H400.966V599.863H405.404V592.971H413.13V599.863H418.43V605.549H413.13V623.626H405.404Z" fill="#8800FF"/>
<mask id="path-21-inside-2_2887_2973" fill="white">
<path fill-rule="evenodd" clip-rule="evenodd" d="M49.6288 889.238C163.388 888.973 410.796 888.61 545.372 890.03C545.369 890.198 545.368 890.366 545.368 890.534C545.386 902.334 551.824 913.18 562.586 919.571C564.684 920.833 566.094 923.628 566.085 926.644L566.393 1220.05C566.4 1225.12 561.923 1229.23 556.393 1229.23L377.931 1229.09C370.054 1195.09 337.114 1169.5 297.817 1169.46C258.503 1169.43 225.601 1194.98 217.787 1228.95L39.3249 1228.8C33.8122 1228.8 29.3205 1224.67 29.3129 1219.61L29.0048 926.201C28.9967 923.17 30.4034 920.383 32.5576 919.096C43.2407 912.768 49.6603 901.926 49.6423 890.126C49.6419 889.829 49.6373 889.533 49.6288 889.238Z"/>
</mask>
<path fill-rule="evenodd" clip-rule="evenodd" d="M49.6288 889.238C163.388 888.973 410.796 888.61 545.372 890.03C545.369 890.198 545.368 890.366 545.368 890.534C545.386 902.334 551.824 913.18 562.586 919.571C564.684 920.833 566.094 923.628 566.085 926.644L566.393 1220.05C566.4 1225.12 561.923 1229.23 556.393 1229.23L377.931 1229.09C370.054 1195.09 337.114 1169.5 297.817 1169.46C258.503 1169.43 225.601 1194.98 217.787 1228.95L39.3249 1228.8C33.8122 1228.8 29.3205 1224.67 29.3129 1219.61L29.0048 926.201C28.9967 923.17 30.4034 920.383 32.5576 919.096C43.2407 912.768 49.6603 901.926 49.6423 890.126C49.6419 889.829 49.6373 889.533 49.6288 889.238Z" fill="url(#paint2_radial_2887_2973)"/>
<path fill-rule="evenodd" clip-rule="evenodd" d="M49.6288 889.238C163.388 888.973 410.796 888.61 545.372 890.03C545.369 890.198 545.368 890.366 545.368 890.534C545.386 902.334 551.824 913.18 562.586 919.571C564.684 920.833 566.094 923.628 566.085 926.644L566.393 1220.05C566.4 1225.12 561.923 1229.23 556.393 1229.23L377.931 1229.09C370.054 1195.09 337.114 1169.5 297.817 1169.46C258.503 1169.43 225.601 1194.98 217.787 1228.95L39.3249 1228.8C33.8122 1228.8 29.3205 1224.67 29.3129 1219.61L29.0048 926.201C28.9967 923.17 30.4034 920.383 32.5576 919.096C43.2407 912.768 49.6603 901.926 49.6423 890.126C49.6419 889.829 49.6373 889.533 49.6288 889.238Z" fill="url(#paint3_linear_2887_2973)" fill-opacity="0.2" style="mix-blend-mode:difference"/>
<path fill-rule="evenodd" clip-rule="evenodd" d="M49.6288 889.238C163.388 888.973 410.796 888.61 545.372 890.03C545.369 890.198 545.368 890.366 545.368 890.534C545.386 902.334 551.824 913.18 562.586 919.571C564.684 920.833 566.094 923.628 566.085 926.644L566.393 1220.05C566.4 1225.12 561.923 1229.23 556.393 1229.23L377.931 1229.09C370.054 1195.09 337.114 1169.5 297.817 1169.46C258.503 1169.43 225.601 1194.98 217.787 1228.95L39.3249 1228.8C33.8122 1228.8 29.3205 1224.67 29.3129 1219.61L29.0048 926.201C28.9967 923.17 30.4034 920.383 32.5576 919.096C43.2407 912.768 49.6603 901.926 49.6423 890.126C49.6419 889.829 49.6373 889.533 49.6288 889.238Z" fill="url(#paint4_linear_2887_2973)" style="mix-blend-mode:screen"/>
<path d="M49.6288 889.238L49.6237 887.052L47.3789 887.057L47.4437 889.301L49.6288 889.238ZM545.372 890.03L547.557 890.061L547.588 887.868L545.395 887.844L545.372 890.03ZM545.368 890.534L543.182 890.537L543.182 890.537L545.368 890.534ZM562.586 919.571L563.713 917.698L563.702 917.691L562.586 919.571ZM566.085 926.644L563.899 926.637L563.899 926.646L566.085 926.644ZM566.393 1220.05L564.207 1220.05L564.207 1220.05L566.393 1220.05ZM556.393 1229.23L556.391 1231.41L556.393 1231.41L556.393 1229.23ZM377.931 1229.09L375.802 1229.58L376.193 1231.27L377.929 1231.27L377.931 1229.09ZM297.817 1169.46L297.815 1171.65L297.815 1171.65L297.817 1169.46ZM217.787 1228.95L217.785 1231.13L219.527 1231.13L219.917 1229.44L217.787 1228.95ZM39.3249 1228.8L39.3267 1226.62L39.3255 1226.62L39.3249 1228.8ZM29.3129 1219.61L27.127 1219.61L27.127 1219.61L29.3129 1219.61ZM29.0048 926.201L31.1907 926.199L31.1907 926.195L29.0048 926.201ZM32.5576 919.096L31.4435 917.215L31.4363 917.22L32.5576 919.096ZM49.6423 890.126L51.8283 890.122L51.8283 890.122L49.6423 890.126ZM49.6339 891.424C163.397 891.159 410.79 890.796 545.348 892.216L545.395 887.844C410.802 886.424 163.379 886.787 49.6237 887.052L49.6339 891.424ZM543.186 890C543.183 890.179 543.182 890.358 543.182 890.537L547.554 890.531C547.554 890.374 547.555 890.217 547.557 890.061L543.186 890ZM543.182 890.537C543.202 903.164 550.096 914.696 561.47 921.45L563.702 917.691C553.552 911.664 547.571 901.504 547.554 890.531L543.182 890.537ZM561.459 921.444C562.756 922.224 563.906 924.21 563.899 926.637L568.27 926.651C568.281 923.046 566.611 919.441 563.713 917.698L561.459 921.444ZM563.899 926.646L564.207 1220.05L568.579 1220.05L568.27 926.642L563.899 926.646ZM564.207 1220.05C564.212 1223.74 560.897 1227.04 556.394 1227.04L556.393 1231.41C562.949 1231.42 568.588 1226.5 568.579 1220.05L564.207 1220.05ZM556.395 1227.04L377.933 1226.9L377.929 1231.27L556.391 1231.41L556.395 1227.04ZM380.061 1228.59C371.932 1193.52 338.034 1167.31 297.819 1167.28L297.815 1171.65C336.194 1171.68 368.175 1196.67 375.802 1229.58L380.061 1228.59ZM297.819 1167.28C257.586 1167.24 223.721 1193.41 215.657 1228.46L219.917 1229.44C227.481 1196.56 259.419 1171.62 297.815 1171.65L297.819 1167.28ZM217.789 1226.76L39.3267 1226.62L39.3232 1230.99L217.785 1231.13L217.789 1226.76ZM39.3255 1226.62C34.8434 1226.62 31.5044 1223.3 31.4989 1219.6L27.127 1219.61C27.1366 1226.05 32.781 1230.99 39.3243 1230.99L39.3255 1226.62ZM31.4989 1219.6L31.1907 926.199L26.8188 926.204L27.127 1219.61L31.4989 1219.6ZM31.1907 926.195C31.1842 923.76 32.3244 921.782 33.6788 920.973L31.4363 917.22C28.4825 918.985 26.8091 922.579 26.8188 926.207L31.1907 926.195ZM33.6716 920.977C44.9733 914.283 51.8475 902.749 51.8283 890.122L47.4564 890.129C47.4731 901.103 41.5082 911.254 31.4436 917.215L33.6716 920.977ZM51.8283 890.122C51.8278 889.806 51.8229 889.49 51.8138 889.175L47.4437 889.301C47.4517 889.577 47.4559 889.853 47.4564 890.129L51.8283 890.122Z" fill="black" mask="url(#path-21-inside-2_2887_2973)"/>
<path d="M33.9138 890.973C33.9215 890.085 34.6997 889.365 35.6645 889.373L56.716 889.379C57.6807 889.387 58.4639 890.105 58.4737 890.993C58.4663 891.833 57.6878 892.602 56.7228 892.609L35.6714 892.603C34.7066 892.595 33.9234 891.877 33.9136 890.989L33.9138 890.973ZM76.0165 891.001C76.0243 890.113 76.8025 889.393 77.7673 889.401L98.8187 889.407C99.7835 889.416 100.567 890.133 100.576 891.022C100.569 891.91 99.7905 892.63 98.8256 892.638L77.7741 892.631C76.8094 892.623 76.0262 891.906 76.0164 891.017L76.0165 891.001ZM118.119 891.029C118.127 890.141 118.905 889.421 119.87 889.429L140.921 889.435C141.886 889.444 142.669 890.161 142.679 891.05C142.671 891.986 141.893 892.658 140.928 892.666L119.877 892.66C118.912 892.651 118.129 891.934 118.119 891.045L118.119 891.029ZM160.222 891.058C160.23 890.169 161.008 889.449 161.973 889.458L183.024 889.464C183.989 889.472 184.772 890.19 184.782 891.078C184.739 891.982 183.996 892.686 183.031 892.694L161.98 892.688C161.015 892.68 160.232 891.962 160.222 891.074L160.222 891.058ZM202.325 891.086C202.333 890.197 203.111 889.477 204.075 889.486L225.127 889.492C226.092 889.5 226.875 890.218 226.885 891.106C226.877 891.995 226.099 892.715 225.134 892.706L204.083 892.7C203.118 892.692 202.335 891.974 202.325 891.086ZM244.428 891.114C244.435 890.226 245.213 889.506 246.178 889.514L267.23 889.52C268.194 889.529 268.978 890.246 268.987 891.134C268.98 892.023 268.202 892.743 267.237 892.734L246.185 892.728C245.221 892.72 244.437 892.002 244.428 891.114ZM286.53 891.142C286.538 890.254 287.316 889.534 288.281 889.542L309.332 889.548C310.297 889.557 311.08 890.274 311.09 891.163C311.082 892.051 310.304 892.771 309.34 892.763L288.288 892.757C287.323 892.748 286.54 892.031 286.53 891.142ZM328.633 891.17C328.641 890.282 329.419 889.562 330.384 889.571L351.435 889.577C352.4 889.585 353.183 890.303 353.193 891.191C353.185 892.079 352.407 892.799 351.442 892.791L330.391 892.785C329.426 892.776 328.643 892.059 328.633 891.17ZM370.736 891.199C370.744 890.311 371.522 889.591 372.487 889.599L393.538 889.605C394.503 889.613 395.286 890.331 395.296 891.219C395.288 892.108 394.51 892.828 393.545 892.819L372.494 892.813C371.529 892.805 370.746 892.087 370.736 891.199ZM412.839 891.227C412.846 890.339 413.624 889.619 414.589 889.627L435.641 889.633C436.606 889.642 437.389 890.359 437.398 891.248C437.391 892.136 436.613 892.856 435.648 892.847L414.596 892.841C413.632 892.833 412.848 892.115 412.839 891.227ZM454.941 891.255C454.949 890.367 455.727 889.647 456.692 889.655L477.743 889.661C478.708 889.67 479.491 890.387 479.501 891.276C479.493 892.164 478.715 892.884 477.751 892.876L456.699 892.87C455.734 892.861 454.951 892.144 454.941 891.255ZM497.044 891.284C497.052 890.395 497.83 889.675 498.795 889.684L519.846 889.69C520.811 889.698 521.594 890.416 521.604 891.304C521.596 892.192 520.818 892.912 519.853 892.904L498.802 892.898C497.837 892.889 497.054 892.172 497.044 891.284ZM539.147 891.312C539.155 890.423 539.933 889.703 540.898 889.712L561.949 889.718C562.914 889.726 563.697 890.444 563.707 891.332C563.699 892.221 562.921 892.941 561.956 892.932L540.905 892.926C539.94 892.918 539.157 892.2 539.147 891.312Z" fill="white"/>
<path d="M91.6508 723.406C89.2358 723.406 87.3135 722.71 85.8838 721.319C84.4541 719.909 83.7393 717.861 83.7393 715.175V710.538C83.7393 707.853 84.4541 705.815 85.8838 704.424C87.3135 703.013 89.2358 702.308 91.6508 702.308C94.0465 702.308 95.8819 702.975 97.157 704.308C98.4514 705.641 99.0987 707.467 99.0987 709.785V709.93H96.6933V709.698C96.6933 708.172 96.2779 706.926 95.4472 705.96C94.6357 704.974 93.3703 704.482 91.6508 704.482C89.9313 704.482 88.5886 705.013 87.6226 706.076C86.6566 707.119 86.1736 708.587 86.1736 710.48V715.233C86.1736 717.127 86.6566 718.605 87.6226 719.667C88.5886 720.71 89.9313 721.232 91.6508 721.232C93.3703 721.232 94.6357 720.749 95.4472 719.783C96.2779 718.798 96.6933 717.542 96.6933 716.016V715.552H99.0987V715.929C99.0987 718.247 98.4514 720.073 97.157 721.406C95.8819 722.739 94.0465 723.406 91.6508 723.406Z" fill="#8800FF"/>
<path d="M101.12 723L107.38 702.714H111.669L117.929 723H115.408L113.843 717.87H105.207L103.642 723H101.12ZM105.815 715.668H113.205L109.728 704.192H109.322L105.815 715.668Z" fill="#8800FF"/>
<path d="M120.968 723V702.714H125.605L130.995 721.464H131.372L136.762 702.714H141.399V723H139.052V704.308H138.646L133.285 723H129.083L123.721 704.308H123.316V723H120.968Z" fill="#8800FF"/>
<path d="M146.043 723V702.714H153.81C155.027 702.714 156.109 702.955 157.055 703.438C158.021 703.902 158.784 704.569 159.345 705.438C159.905 706.307 160.185 707.36 160.185 708.597V708.974C160.185 710.191 159.895 711.244 159.316 712.132C158.755 713.002 157.992 713.668 157.026 714.132C156.06 714.596 154.988 714.827 153.81 714.827H148.477V723H146.043ZM148.477 712.625H153.549C154.843 712.625 155.867 712.306 156.621 711.669C157.374 711.012 157.751 710.094 157.751 708.916V708.626C157.751 707.447 157.374 706.539 156.621 705.902C155.886 705.245 154.862 704.916 153.549 704.916H148.477V712.625Z" fill="#8800FF"/>
<path d="M170.78 723.406C169.273 723.406 167.959 723.135 166.839 722.594C165.718 722.053 164.849 721.251 164.23 720.189C163.612 719.107 163.303 717.783 163.303 716.219V702.714H165.708V716.247C165.708 717.909 166.153 719.155 167.041 719.986C167.93 720.817 169.176 721.232 170.78 721.232C172.383 721.232 173.629 720.817 174.518 719.986C175.407 719.155 175.851 717.909 175.851 716.247V702.714H178.286V716.219C178.286 717.783 177.976 719.107 177.358 720.189C176.74 721.251 175.861 722.053 174.721 722.594C173.601 723.135 172.287 723.406 170.78 723.406Z" fill="#8800FF"/>
<path d="M189.501 723.406C188.033 723.406 186.719 723.145 185.56 722.623C184.401 722.101 183.483 721.319 182.807 720.276C182.15 719.213 181.822 717.89 181.822 716.305V715.697H184.227V716.305C184.227 717.986 184.72 719.242 185.705 720.073C186.69 720.884 187.956 721.29 189.501 721.29C191.086 721.29 192.293 720.933 193.124 720.218C193.955 719.503 194.37 718.605 194.37 717.523C194.37 716.769 194.177 716.17 193.79 715.726C193.423 715.281 192.902 714.924 192.225 714.654C191.549 714.364 190.757 714.113 189.849 713.9L188.342 713.523C187.164 713.214 186.12 712.838 185.212 712.393C184.304 711.949 183.589 711.369 183.068 710.654C182.565 709.92 182.314 708.983 182.314 707.843C182.314 706.703 182.594 705.718 183.155 704.887C183.734 704.057 184.536 703.419 185.56 702.975C186.603 702.53 187.801 702.308 189.154 702.308C190.525 702.308 191.752 702.55 192.834 703.033C193.935 703.496 194.795 704.192 195.413 705.119C196.051 706.027 196.37 707.177 196.37 708.568V709.785H193.964V708.568C193.964 707.582 193.752 706.79 193.327 706.191C192.921 705.593 192.351 705.148 191.617 704.858C190.902 704.569 190.081 704.424 189.154 704.424C187.82 704.424 186.748 704.723 185.937 705.322C185.125 705.902 184.72 706.732 184.72 707.814C184.72 708.529 184.893 709.109 185.241 709.553C185.589 709.997 186.082 710.365 186.719 710.654C187.357 710.925 188.12 711.166 189.009 711.379L190.516 711.756C191.694 712.007 192.747 712.355 193.674 712.799C194.621 713.224 195.375 713.813 195.935 714.567C196.495 715.301 196.775 716.267 196.775 717.465C196.775 718.662 196.476 719.706 195.877 720.594C195.278 721.483 194.428 722.179 193.327 722.681C192.245 723.164 190.97 723.406 189.501 723.406Z" fill="#8800FF"/>
<path d="M207.965 723V702.714H215.732C216.949 702.714 218.031 702.955 218.977 703.438C219.943 703.902 220.707 704.569 221.267 705.438C221.827 706.307 222.107 707.36 222.107 708.597V708.974C222.107 710.191 221.817 711.244 221.238 712.132C220.678 713.002 219.914 713.668 218.948 714.132C217.982 714.596 216.91 714.827 215.732 714.827H210.399V723H207.965ZM210.399 712.625H215.471C216.765 712.625 217.789 712.306 218.543 711.669C219.296 711.012 219.673 710.094 219.673 708.916V708.626C219.673 707.447 219.296 706.539 218.543 705.902C217.809 705.245 216.785 704.916 215.471 704.916H210.399V712.625Z" fill="#8800FF"/>
<path d="M222.135 723L228.394 702.714H232.683L238.943 723H236.422L234.857 717.87H226.221L224.656 723H222.135ZM226.829 715.668H234.219L230.742 704.192H230.336L226.829 715.668Z" fill="#8800FF"/>
<path d="M241.983 723V702.714H250.184C251.44 702.714 252.541 702.936 253.488 703.38C254.454 703.805 255.207 704.424 255.748 705.235C256.289 706.027 256.559 706.984 256.559 708.104V708.423C256.559 709.756 256.241 710.809 255.603 711.582C254.966 712.355 254.212 712.876 253.343 713.147V713.552C254.038 713.572 254.608 713.804 255.052 714.248C255.516 714.673 255.748 715.32 255.748 716.19V723H253.343V716.479C253.343 715.9 253.178 715.455 252.85 715.146C252.541 714.837 252.068 714.683 251.43 714.683H244.417V723H241.983ZM244.417 712.48H249.952C251.285 712.48 252.309 712.161 253.024 711.524C253.758 710.867 254.125 709.959 254.125 708.8V708.597C254.125 707.438 253.768 706.539 253.053 705.902C252.338 705.245 251.304 704.916 249.952 704.916H244.417V712.48Z" fill="#8800FF"/>
<path d="M260.265 723V702.714H262.699V711.553H263.105L271.683 702.714H274.929L265.047 712.741L275.276 723H271.944L263.105 713.987H262.699V723H260.265Z" fill="#8800FF"/>
<path d="M277.808 726.622V725.173H278.648C279.344 725.173 279.692 724.826 279.692 724.13V723.203H279.286C278.726 723.203 278.252 723.029 277.866 722.681C277.499 722.333 277.315 721.899 277.315 721.377C277.315 720.817 277.499 720.363 277.866 720.015C278.252 719.667 278.726 719.493 279.286 719.493C279.846 719.493 280.31 719.677 280.677 720.044C281.044 720.411 281.228 720.875 281.228 721.435V724.13C281.228 725.792 280.397 726.622 278.735 726.622H277.808Z" fill="#8800FF"/>
<path d="M297.01 723.406C295.02 723.406 293.446 722.845 292.287 721.725C291.147 720.604 290.577 719.001 290.577 716.914V715.349H292.982V716.914C292.982 718.17 293.311 719.194 293.967 719.986C294.644 720.778 295.648 721.174 296.981 721.174C298.334 721.174 299.29 720.788 299.85 720.015C300.411 719.223 300.691 718.189 300.691 716.914V704.916H297.126V702.714H305.328V704.916H303.125V716.914C303.125 719.02 302.603 720.633 301.56 721.754C300.517 722.855 299 723.406 297.01 723.406Z" fill="#8800FF"/>
<path d="M315.879 723.406C313.464 723.406 311.532 722.71 310.083 721.319C308.653 719.909 307.938 717.861 307.938 715.175V710.538C307.938 707.853 308.653 705.815 310.083 704.424C311.532 703.013 313.464 702.308 315.879 702.308C318.313 702.308 320.245 703.013 321.675 704.424C323.124 705.815 323.848 707.853 323.848 710.538V715.175C323.848 717.861 323.124 719.909 321.675 721.319C320.245 722.71 318.313 723.406 315.879 723.406ZM315.879 721.232C317.637 721.232 318.999 720.71 319.965 719.667C320.931 718.605 321.414 717.136 321.414 715.262V710.451C321.414 708.577 320.931 707.119 319.965 706.076C318.999 705.013 317.637 704.482 315.879 704.482C314.14 704.482 312.787 705.013 311.821 706.076C310.855 707.119 310.372 708.577 310.372 710.451V715.262C310.372 717.136 310.855 718.605 311.821 719.667C312.787 720.71 314.14 721.232 315.879 721.232Z" fill="#8800FF"/>
<path d="M327.904 723V702.714H330.338V723H327.904Z" fill="#8800FF"/>
<path d="M334.979 723V702.714H339.703L346.774 721.464H347.15V702.714H349.556V723H344.832L337.79 704.221H337.384V723H334.979Z" fill="#8800FF"/>
<path d="M358.744 723L352.629 702.714H355.151L360.686 721.522H361.063L366.598 702.714H369.119L363.004 723H358.744Z" fill="#8800FF"/>
<path d="M372.166 723V702.714H374.6V723H372.166Z" fill="#8800FF"/>
<path d="M379.241 723V702.714H381.676V720.797H391.935V723H379.241Z" fill="#8800FF"/>
<path d="M395.061 723V702.714H397.496V720.797H407.755V723H395.061Z" fill="#8800FF"/>
<path d="M410.882 723V702.714H423.372V704.916H413.316V711.698H422.561V713.9H413.316V720.797H423.517V723H410.882Z" fill="#8800FF"/>
<path d="M433.776 716.595V714.48H442.354V716.595H433.776Z" fill="#8800FF"/>
<path d="M460.311 723.406C458.843 723.406 457.529 723.145 456.37 722.623C455.211 722.101 454.293 721.319 453.617 720.276C452.96 719.213 452.632 717.89 452.632 716.305V715.697H455.037V716.305C455.037 717.986 455.53 719.242 456.515 720.073C457.5 720.884 458.766 721.29 460.311 721.29C461.896 721.29 463.103 720.933 463.934 720.218C464.765 719.503 465.18 718.605 465.18 717.523C465.18 716.769 464.987 716.17 464.601 715.726C464.233 715.281 463.712 714.924 463.036 714.654C462.359 714.364 461.567 714.113 460.659 713.9L459.152 713.523C457.974 713.214 456.931 712.838 456.022 712.393C455.114 711.949 454.4 711.369 453.878 710.654C453.376 709.92 453.124 708.983 453.124 707.843C453.124 706.703 453.405 705.718 453.965 704.887C454.544 704.057 455.346 703.419 456.37 702.975C457.413 702.53 458.611 702.308 459.964 702.308C461.335 702.308 462.562 702.55 463.644 703.033C464.745 703.496 465.605 704.192 466.223 705.119C466.861 706.027 467.18 707.177 467.18 708.568V709.785H464.774V708.568C464.774 707.582 464.562 706.79 464.137 706.191C463.731 705.593 463.161 705.148 462.427 704.858C461.712 704.569 460.891 704.424 459.964 704.424C458.631 704.424 457.558 704.723 456.747 705.322C455.936 705.902 455.53 706.732 455.53 707.814C455.53 708.529 455.704 709.109 456.051 709.553C456.399 709.997 456.892 710.365 457.529 710.654C458.167 710.925 458.93 711.166 459.819 711.379L461.326 711.756C462.504 712.007 463.557 712.355 464.485 712.799C465.431 713.224 466.185 713.813 466.745 714.567C467.305 715.301 467.585 716.267 467.585 717.465C467.585 718.662 467.286 719.706 466.687 720.594C466.088 721.483 465.238 722.179 464.137 722.681C463.055 723.164 461.78 723.406 460.311 723.406Z" fill="#8800FF"/>
<path d="M478.664 723.406C476.249 723.406 474.327 722.71 472.897 721.319C471.467 719.909 470.752 717.861 470.752 715.175V710.538C470.752 707.853 471.467 705.815 472.897 704.424C474.327 703.013 476.249 702.308 478.664 702.308C481.06 702.308 482.895 702.975 484.17 704.308C485.465 705.641 486.112 707.467 486.112 709.785V709.93H483.707V709.698C483.707 708.172 483.291 706.926 482.46 705.96C481.649 704.974 480.383 704.482 478.664 704.482C476.944 704.482 475.602 705.013 474.636 706.076C473.67 707.119 473.187 708.587 473.187 710.48V715.233C473.187 717.127 473.67 718.605 474.636 719.667C475.602 720.71 476.944 721.232 478.664 721.232C480.383 721.232 481.649 720.749 482.46 719.783C483.291 718.798 483.707 717.542 483.707 716.016V715.552H486.112V715.929C486.112 718.247 485.465 720.073 484.17 721.406C482.895 722.739 481.06 723.406 478.664 723.406Z" fill="#8800FF"/>
<path d="M84.0374 766V764.085C84.0374 762.773 84.2648 761.724 84.7195 760.937C85.1916 760.15 85.8387 759.521 86.6606 759.048C87.5 758.559 88.4968 758.139 89.651 757.789L91.0937 757.343C91.8807 757.099 92.5714 756.801 93.166 756.452C93.7606 756.084 94.224 755.63 94.5563 755.088C94.8886 754.528 95.0547 753.846 95.0547 753.041V752.937C95.0547 751.782 94.6525 750.873 93.848 750.208C93.0436 749.526 92.0118 749.185 90.7527 749.185C89.4237 749.185 88.3394 749.544 87.5 750.261C86.6606 750.96 86.2409 752.027 86.2409 753.461V753.828H84.1424V753.487C84.1424 752.158 84.4309 751.03 85.008 750.104C85.5851 749.177 86.3721 748.477 87.3689 748.005C88.3657 747.515 89.4936 747.27 90.7527 747.27C92.0118 747.27 93.1223 747.507 94.0841 747.979C95.0634 748.451 95.8242 749.107 96.3663 749.946C96.9084 750.786 97.1795 751.765 97.1795 752.884V753.12C97.1795 754.309 96.9434 755.297 96.4712 756.084C95.999 756.854 95.3432 757.483 94.5038 757.973C93.6819 758.463 92.7113 758.882 91.5921 759.232L90.1756 759.678C89.2838 759.958 88.5405 760.255 87.9459 760.57C87.3689 760.867 86.9317 761.252 86.6344 761.724C86.3371 762.196 86.1884 762.835 86.1884 763.639V764.085H97.0221V766H84.0374Z" fill="#CACED2"/>
<path d="M106.584 766.367C105.325 766.367 104.197 766.122 103.201 765.633C102.221 765.125 101.443 764.408 100.866 763.482C100.306 762.555 100.027 761.453 100.027 760.176V753.776C100.027 752.394 100.298 751.223 100.84 750.261C101.382 749.299 102.143 748.565 103.122 748.057C104.119 747.533 105.299 747.27 106.663 747.27C108.01 747.27 109.155 747.515 110.1 748.005C111.061 748.477 111.787 749.133 112.277 749.972C112.784 750.794 113.037 751.747 113.037 752.832H110.886C110.886 751.747 110.537 750.873 109.837 750.208C109.138 749.526 108.08 749.185 106.663 749.185C105.229 749.185 104.119 749.579 103.332 750.366C102.545 751.135 102.151 752.202 102.151 753.566V756.111H102.519C102.833 755.586 103.358 755.105 104.092 754.668C104.827 754.213 105.85 753.986 107.162 753.986C108.263 753.986 109.269 754.231 110.178 754.72C111.088 755.21 111.813 755.901 112.355 756.793C112.898 757.684 113.169 758.742 113.169 759.967V760.281C113.169 761.523 112.88 762.598 112.303 763.508C111.743 764.417 110.965 765.125 109.968 765.633C108.972 766.122 107.844 766.367 106.584 766.367ZM106.584 764.452C107.914 764.452 108.989 764.076 109.811 763.324C110.633 762.572 111.044 761.549 111.044 760.255V760.045C111.044 759.171 110.851 758.419 110.467 757.789C110.1 757.16 109.584 756.67 108.919 756.32C108.255 755.953 107.476 755.77 106.584 755.77C105.71 755.77 104.941 755.953 104.276 756.32C103.612 756.67 103.087 757.16 102.702 757.789C102.335 758.419 102.151 759.171 102.151 760.045V760.255C102.151 761.549 102.562 762.572 103.384 763.324C104.206 764.076 105.273 764.452 106.584 764.452Z" fill="#CACED2"/>
<path d="M128.859 766.367C127.757 766.367 126.743 766.105 125.816 765.58C124.889 765.055 124.155 764.295 123.612 763.298C123.07 762.301 122.799 761.121 122.799 759.757V759.416C122.799 758.052 123.07 756.88 123.612 755.901C124.155 754.904 124.88 754.143 125.79 753.619C126.717 753.076 127.74 752.805 128.859 752.805C129.751 752.805 130.503 752.928 131.115 753.173C131.744 753.4 132.251 753.697 132.636 754.064C133.021 754.414 133.318 754.79 133.528 755.192H133.895V747.638H135.968V766H133.948V763.875H133.58C133.231 764.522 132.689 765.099 131.954 765.606C131.22 766.113 130.188 766.367 128.859 766.367ZM129.41 764.531C130.739 764.531 131.814 764.111 132.636 763.272C133.476 762.415 133.895 761.226 133.895 759.704V759.468C133.895 757.947 133.476 756.766 132.636 755.927C131.814 755.07 130.739 754.642 129.41 754.642C128.098 754.642 127.014 755.07 126.157 755.927C125.318 756.766 124.898 757.947 124.898 759.468V759.704C124.898 761.226 125.318 762.415 126.157 763.272C127.014 764.111 128.098 764.531 129.41 764.531Z" fill="#CACED2"/>
<path d="M146.186 766.367C144.892 766.367 143.755 766.096 142.776 765.554C141.797 764.994 141.036 764.216 140.494 763.219C139.952 762.222 139.681 761.068 139.681 759.757V759.442C139.681 758.113 139.952 756.95 140.494 755.953C141.036 754.956 141.788 754.187 142.75 753.645C143.712 753.085 144.813 752.805 146.055 752.805C147.262 752.805 148.328 753.068 149.255 753.592C150.182 754.099 150.908 754.834 151.432 755.796C151.957 756.758 152.219 757.886 152.219 759.18V760.124H141.753C141.805 761.505 142.251 762.59 143.091 763.377C143.93 764.146 144.979 764.531 146.239 764.531C147.34 764.531 148.188 764.277 148.783 763.77C149.378 763.263 149.832 762.66 150.147 761.96L151.931 762.826C151.669 763.368 151.301 763.91 150.829 764.452C150.374 764.994 149.771 765.449 149.019 765.816C148.285 766.183 147.34 766.367 146.186 766.367ZM141.779 758.419H150.121C150.051 757.23 149.64 756.303 148.888 755.638C148.154 754.974 147.209 754.642 146.055 754.642C144.883 754.642 143.921 754.974 143.17 755.638C142.418 756.303 141.954 757.23 141.779 758.419Z" fill="#CACED2"/>
<path d="M160.717 766L166.383 747.638H170.265L175.931 766H173.649L172.232 761.357H164.415L162.999 766H160.717ZM164.966 759.363H171.655L168.508 748.976H168.14L164.966 759.363Z" fill="#CACED2"/>
<path d="M178.131 759.652V759.285C178.131 757.938 178.403 756.784 178.945 755.822C179.487 754.86 180.221 754.117 181.148 753.592C182.075 753.068 183.089 752.805 184.191 752.805C185.538 752.805 186.569 753.068 187.286 753.592C188.021 754.099 188.563 754.668 188.913 755.297H189.28V753.173H191.247V768.99C191.247 769.69 191.055 770.241 190.67 770.643C190.285 771.045 189.726 771.246 188.991 771.246H180.282V769.41H188.44C188.965 769.41 189.227 769.148 189.227 768.623V763.744H188.86C188.65 764.129 188.353 764.505 187.968 764.872C187.584 765.239 187.085 765.545 186.473 765.79C185.861 766.017 185.1 766.131 184.191 766.131C183.089 766.131 182.075 765.869 181.148 765.344C180.221 764.819 179.487 764.076 178.945 763.114C178.403 762.135 178.131 760.981 178.131 759.652ZM184.742 764.295C186.071 764.295 187.146 763.875 187.968 763.036C188.808 762.196 189.227 761.042 189.227 759.573V759.363C189.227 757.877 188.808 756.723 187.968 755.901C187.146 755.061 186.071 754.642 184.742 754.642C183.43 754.642 182.346 755.061 181.489 755.901C180.65 756.723 180.23 757.877 180.23 759.363V759.573C180.23 761.042 180.65 762.196 181.489 763.036C182.346 763.875 183.43 764.295 184.742 764.295Z" fill="#CACED2"/>
<path d="M201.52 766.367C200.225 766.367 199.08 766.096 198.083 765.554C197.104 765.012 196.334 764.251 195.775 763.272C195.233 762.275 194.962 761.103 194.962 759.757V759.416C194.962 758.087 195.233 756.924 195.775 755.927C196.334 754.93 197.104 754.161 198.083 753.619C199.08 753.076 200.225 752.805 201.52 752.805C202.814 752.805 203.95 753.076 204.93 753.619C205.926 754.161 206.696 754.93 207.238 755.927C207.798 756.924 208.077 758.087 208.077 759.416V759.757C208.077 761.103 207.798 762.275 207.238 763.272C206.696 764.251 205.926 765.012 204.93 765.554C203.95 766.096 202.814 766.367 201.52 766.367ZM201.52 764.505C202.884 764.505 203.968 764.076 204.772 763.219C205.594 762.345 206.005 761.173 206.005 759.704V759.468C206.005 757.999 205.594 756.836 204.772 755.979C203.968 755.105 202.884 754.668 201.52 754.668C200.173 754.668 199.089 755.105 198.267 755.979C197.445 756.836 197.034 757.999 197.034 759.468V759.704C197.034 761.173 197.445 762.345 198.267 763.219C199.089 764.076 200.173 764.505 201.52 764.505Z" fill="#CACED2"/>
<path d="M216.974 766.367C215.383 766.367 214.036 766 212.935 765.265C211.85 764.531 211.195 763.368 210.967 761.777L212.935 761.331C213.074 762.17 213.337 762.835 213.722 763.324C214.106 763.796 214.578 764.137 215.138 764.347C215.715 764.54 216.327 764.636 216.974 764.636C217.936 764.636 218.697 764.443 219.256 764.059C219.816 763.674 220.096 763.158 220.096 762.511C220.096 761.846 219.825 761.383 219.283 761.121C218.758 760.841 218.032 760.614 217.105 760.439L216.03 760.255C215.208 760.115 214.456 759.897 213.774 759.599C213.092 759.302 212.55 758.9 212.148 758.393C211.745 757.886 211.544 757.247 211.544 756.478C211.544 755.324 211.99 754.423 212.882 753.776C213.774 753.129 214.954 752.805 216.423 752.805C217.875 752.805 219.047 753.138 219.938 753.802C220.848 754.449 221.434 755.367 221.696 756.556L219.755 757.055C219.597 756.128 219.221 755.481 218.627 755.114C218.032 754.729 217.298 754.537 216.423 754.537C215.549 754.537 214.858 754.703 214.351 755.035C213.844 755.35 213.59 755.822 213.59 756.452C213.59 757.064 213.826 757.518 214.299 757.816C214.788 758.095 215.435 758.305 216.24 758.445L217.315 758.629C218.225 758.786 219.038 759.005 219.755 759.285C220.489 759.547 221.066 759.932 221.486 760.439C221.923 760.946 222.142 761.61 222.142 762.432C222.142 763.691 221.67 764.662 220.725 765.344C219.799 766.026 218.548 766.367 216.974 766.367Z" fill="#CACED2"/>
<path d="M230.08 766C229.345 766 228.777 765.799 228.375 765.396C227.99 764.994 227.797 764.443 227.797 763.744V754.983H223.941V753.173H227.797V748.608H229.87V753.173H234.067V754.983H229.87V763.429C229.87 763.954 230.123 764.216 230.63 764.216H233.49V766H230.08Z" fill="#CACED2"/>
<path d="M242.891 766.367C241.597 766.367 240.451 766.096 239.454 765.554C238.475 765.012 237.706 764.251 237.146 763.272C236.604 762.275 236.333 761.103 236.333 759.757V759.416C236.333 758.087 236.604 756.924 237.146 755.927C237.706 754.93 238.475 754.161 239.454 753.619C240.451 753.076 241.597 752.805 242.891 752.805C244.185 752.805 245.321 753.076 246.301 753.619C247.298 754.161 248.067 754.93 248.609 755.927C249.169 756.924 249.449 758.087 249.449 759.416V759.757C249.449 761.103 249.169 762.275 248.609 763.272C248.067 764.251 247.298 765.012 246.301 765.554C245.321 766.096 244.185 766.367 242.891 766.367ZM242.891 764.505C244.255 764.505 245.339 764.076 246.143 763.219C246.965 762.345 247.376 761.173 247.376 759.704V759.468C247.376 757.999 246.965 756.836 246.143 755.979C245.339 755.105 244.255 754.668 242.891 754.668C241.544 754.668 240.46 755.105 239.638 755.979C238.816 756.836 238.405 757.999 238.405 759.468V759.704C238.405 761.173 238.816 762.345 239.638 763.219C240.46 764.076 241.544 764.505 242.891 764.505Z" fill="#CACED2"/>
<defs>
<linearGradient id="paint0_linear_2887_2973" x1="511.854" y1="1047.95" x2="-244.641" y2="703.851" gradientUnits="userSpaceOnUse">
<stop stop-color="#F1BCF2"/>
<stop offset="0.239583" stop-color="#F6CF44"/>
<stop offset="0.510417" stop-color="#72E4FD"/>
<stop offset="0.744792" stop-color="#A8EB87"/>
<stop offset="1" stop-color="#F1BCF2"/>
</linearGradient>
<linearGradient id="paint1_linear_2887_2973" x1="566.525" y1="1204.99" x2="86.5689" y2="-69.8985" gradientUnits="userSpaceOnUse">
<stop stop-opacity="0"/>
<stop offset="1"/>
</linearGradient>
<radialGradient id="paint2_radial_2887_2973" cx="0" cy="0" r="1" gradientUnits="userSpaceOnUse" gradientTransform="translate(477.997 1202.09) rotate(-141.097) scale(474.025 833.241)">
<stop stop-color="#2AA8D0"/>
<stop offset="0.203455" stop-color="#ADF664"/>
<stop offset="0.401848" stop-color="#FABFA5"/>
<stop offset="0.615048" stop-color="#FCF4AB"/>
<stop offset="0.823232" stop-color="#5DF7A4"/>
<stop offset="1" stop-color="#58D0F6"/>
</radialGradient>
<linearGradient id="paint3_linear_2887_2973" x1="506.346" y1="1232.88" x2="284.437" y2="770.828" gradientUnits="userSpaceOnUse">
<stop stop-color="white"/>
<stop offset="0.546875"/>
<stop offset="1" stop-color="white"/>
</linearGradient>
<linearGradient id="paint4_linear_2887_2973" x1="514.243" y1="946.714" x2="244.403" y2="1287.29" gradientUnits="userSpaceOnUse">
<stop stop-color="white" stop-opacity="0"/>
<stop offset="0.494792" stop-color="white"/>
<stop offset="1" stop-color="white" stop-opacity="0"/>
</linearGradient>
</defs>
</svg>
