<svg width="597" height="286" viewBox="0 0 597 286" fill="none" xmlns="http://www.w3.org/2000/svg">
<path d="M14.3837 279.902C7.57411 279.831 2.06216 273.704 2.08206 266.191L2.32409 172.927L3.0515 172.918C17.9236 172.686 30.0548 159.181 30.1012 142.819C30.1476 126.466 18.0788 112.963 3.21177 112.716L2.48453 112.709L2.72655 19.445C2.73551 15.7834 4.04253 12.3416 6.40589 9.75203C8.76181 7.17062 11.8917 5.74367 15.2124 5.74546L409.631 5.96684C413.862 5.97816 417.638 8.12071 419.768 11.7222C421.261 14.2862 423.809 15.8221 426.586 15.8512C426.616 15.8515 426.638 15.8517 426.66 15.852C429.466 15.8566 432.053 14.3168 433.572 11.7348C435.718 8.13686 439.517 5.99116 443.734 5.99409L582.387 6.06885C585.693 6.07049 588.829 7.49709 591.168 10.0864C593.521 12.6759 594.807 16.1202 594.798 19.7818L594.556 113.029L593.822 113.021C586.497 113.027 579.603 116.155 574.408 121.848C569.22 127.534 566.357 135.091 566.331 143.124C566.313 151.173 569.136 158.74 574.292 164.435C579.456 170.138 586.344 173.254 593.661 173.281L594.396 173.289L594.154 266.527C594.145 270.189 592.838 273.631 590.475 276.22C588.119 278.802 584.989 280.229 581.668 280.227L443.023 280.144C438.806 280.149 435.015 277.99 432.886 274.389C431.392 271.825 428.844 270.289 426.067 270.26C426.038 270.259 426.016 270.259 425.994 270.259C423.187 270.254 420.6 271.794 419.081 274.376C416.935 277.974 413.137 280.12 408.92 280.117L14.5013 279.895C14.4646 279.895 14.4279 279.895 14.3838 279.894L14.3837 279.902ZM3.79111 174.551L3.55132 266.198C3.53314 272.845 8.44281 278.257 14.4964 278.262L408.915 278.484C412.639 278.49 415.98 276.612 417.857 273.481C419.652 270.44 422.69 268.624 425.996 268.626C429.324 268.595 432.339 270.449 434.115 273.494C435.97 276.631 439.307 278.546 443.025 278.511L581.67 278.594C584.602 278.592 587.363 277.342 589.444 275.055C591.524 272.776 592.673 269.753 592.677 266.545L592.916 174.939C585.476 174.729 578.524 171.448 573.259 165.628C567.819 159.625 564.839 151.636 564.862 143.141C564.885 134.655 567.907 126.679 573.377 120.683C578.668 114.875 585.645 111.6 593.082 111.405L593.321 19.7993C593.333 16.583 592.197 13.561 590.134 11.2797C588.064 8.99829 585.33 7.72435 582.376 7.73466L443.731 7.65172C440.006 7.64571 436.666 9.52405 434.789 12.6548C432.994 15.6956 429.956 17.5112 426.65 17.5095C423.336 17.5243 420.306 15.6865 418.531 12.6412C416.698 9.5376 413.411 7.66409 409.731 7.62555C409.694 7.62516 409.657 7.62478 409.621 7.62439L15.2098 7.39485C12.2785 7.39714 9.51776 8.64652 7.43674 10.9339C5.3558 13.213 4.20745 16.2359 4.20324 19.444L3.96345 111.091C19.2962 111.771 31.6162 125.838 31.5705 142.826C31.5247 159.823 19.1305 173.895 3.79846 174.551L3.79111 174.551Z" fill="url(#paint0_linear_2372_4411)"/>
<mask id="path-2-inside-1_2372_4411" fill="white">
<path d="M443.26 271.662C441.828 271.664 440.512 270.99 439.906 269.961C436.925 264.858 431.807 261.786 426.231 261.785C420.662 261.785 415.524 264.848 412.495 269.979C411.89 270.995 410.597 271.65 409.15 271.643L14.7315 271.422C12.3365 271.421 10.3974 269.281 10.403 266.642L10.6277 181.345C26.4422 177.412 38.3683 161.744 38.4221 143.271C38.4686 124.806 26.6209 109.137 10.8302 105.186L11.0549 19.8887C11.0604 17.2579 13.015 15.1176 15.41 15.118L409.828 15.3393C411.283 15.3381 412.569 15.9948 413.183 17.0404C416.163 22.1435 421.281 25.2156 426.857 25.2162C432.433 25.2169 437.564 22.1532 440.593 17.0223C441.191 16.0224 442.514 15.3518 443.939 15.3584L582.584 15.4414C584.979 15.4417 586.918 17.5815 586.913 20.2205L586.689 105.386C570.62 109.118 558.495 124.817 558.446 143.571C558.396 162.332 570.442 178.054 586.484 181.809L586.261 266.974C586.255 269.605 584.301 271.745 581.906 271.745L443.26 271.662Z"/>
</mask>
<path d="M443.26 271.662C441.828 271.664 440.512 270.99 439.906 269.961C436.925 264.858 431.807 261.786 426.231 261.785C420.662 261.785 415.524 264.848 412.495 269.979C411.89 270.995 410.597 271.65 409.15 271.643L14.7315 271.422C12.3365 271.421 10.3974 269.281 10.403 266.642L10.6277 181.345C26.4422 177.412 38.3683 161.744 38.4221 143.271C38.4686 124.806 26.6209 109.137 10.8302 105.186L11.0549 19.8887C11.0604 17.2579 13.015 15.1176 15.41 15.118L409.828 15.3393C411.283 15.3381 412.569 15.9948 413.183 17.0404C416.163 22.1435 421.281 25.2156 426.857 25.2162C432.433 25.2169 437.564 22.1532 440.593 17.0223C441.191 16.0224 442.514 15.3518 443.939 15.3584L582.584 15.4414C584.979 15.4417 586.918 17.5815 586.913 20.2205L586.689 105.386C570.62 109.118 558.495 124.817 558.446 143.571C558.396 162.332 570.442 178.054 586.484 181.809L586.261 266.974C586.255 269.605 584.301 271.745 581.906 271.745L443.26 271.662Z" fill="url(#paint1_linear_2372_4411)"/>
<path d="M443.26 271.662L443.261 270.618L443.259 270.618L443.26 271.662ZM439.906 269.961L439.005 270.488L439.007 270.491L439.906 269.961ZM426.231 261.785L426.231 260.741L426.231 260.741L426.231 261.785ZM412.495 269.979L413.392 270.514L413.394 270.51L412.495 269.979ZM409.15 271.643L409.155 270.599L409.15 270.599L409.15 271.643ZM14.7315 271.422L14.7321 270.378L14.7317 270.378L14.7315 271.422ZM10.403 266.642L9.35906 266.64L9.35906 266.64L10.403 266.642ZM10.6277 181.345L10.3757 180.332C9.91141 180.448 9.58504 180.864 9.58377 181.343L10.6277 181.345ZM38.4221 143.271L39.466 143.274L39.466 143.274L38.4221 143.271ZM10.8302 105.186L9.78626 105.183C9.785 105.663 10.1112 106.082 10.5768 106.198L10.8302 105.186ZM11.0549 19.8887L12.0988 19.8914L12.0988 19.8908L11.0549 19.8887ZM15.41 15.118L15.4106 14.0741L15.4101 14.0741L15.41 15.118ZM409.828 15.3393L409.828 16.3833L409.829 16.3833L409.828 15.3393ZM413.183 17.0404L414.084 16.5139L414.083 16.5121L413.183 17.0404ZM440.593 17.0223L439.697 16.4863L439.694 16.4916L440.593 17.0223ZM443.939 15.3584L443.934 16.4023L443.938 16.4023L443.939 15.3584ZM582.584 15.4414L582.584 16.4853L582.584 16.4853L582.584 15.4414ZM586.913 20.2205L587.957 20.2233L587.957 20.2227L586.913 20.2205ZM586.689 105.386L586.926 106.403C587.398 106.293 587.732 105.873 587.733 105.388L586.689 105.386ZM558.446 143.571L559.49 143.574L558.446 143.571ZM586.484 181.809L587.528 181.812C587.529 181.326 587.195 180.903 586.722 180.793L586.484 181.809ZM586.261 266.974L585.217 266.972L585.217 266.972L586.261 266.974ZM581.906 271.745L581.905 272.789L581.906 272.789L581.906 271.745ZM443.259 270.618C442.116 270.619 441.186 270.078 440.805 269.431L439.007 270.491C439.838 271.903 441.539 272.708 443.261 272.706L443.259 270.618ZM440.807 269.435C437.654 264.037 432.207 260.742 426.231 260.741L426.231 262.829C431.407 262.83 436.196 265.679 439.005 270.488L440.807 269.435ZM426.231 260.741C420.263 260.741 414.797 264.026 411.596 269.448L413.394 270.51C416.251 265.67 421.062 262.829 426.231 262.829L426.231 260.741ZM411.599 269.445C411.222 270.077 410.317 270.605 409.155 270.599L409.145 272.687C410.877 272.695 412.557 271.914 413.392 270.514L411.599 269.445ZM409.15 270.599L14.7321 270.378L14.7309 272.466L409.149 272.687L409.15 270.599ZM14.7317 270.378C13.0067 270.377 11.4423 268.804 11.4469 266.645L9.35906 266.64C9.35244 269.759 11.6664 272.465 14.7314 272.466L14.7317 270.378ZM11.4469 266.645L11.6716 181.348L9.58377 181.343L9.35906 266.64L11.4469 266.645ZM10.8796 182.358C27.2062 178.298 39.4109 162.174 39.466 143.274L37.3782 143.268C37.3256 161.314 25.6781 176.526 10.3757 180.332L10.8796 182.358ZM39.466 143.274C39.5136 124.38 27.3879 108.252 11.0835 104.173L10.5768 106.198C25.8538 110.021 37.4236 125.232 37.3782 143.268L39.466 143.274ZM11.8741 105.189L12.0988 19.8914L10.011 19.8859L9.78626 105.183L11.8741 105.189ZM12.0988 19.8908C12.1033 17.7421 13.68 16.1616 15.4098 16.1619L15.4101 14.0741C12.35 14.0736 10.0175 16.7736 10.011 19.8865L12.0988 19.8908ZM15.4094 16.1619L409.828 16.3833L409.829 14.2954L15.4106 14.0741L15.4094 16.1619ZM409.829 16.3833C410.996 16.3822 411.895 16.9084 412.282 17.5687L414.083 16.5121C413.243 15.0813 411.57 14.2939 409.827 14.2954L409.829 16.3833ZM412.281 17.5669C415.434 22.9648 420.881 26.2594 426.857 26.2601L426.857 24.1723C421.681 24.1717 416.893 21.3223 414.084 16.5139L412.281 17.5669ZM426.857 26.2601C432.833 26.2609 438.291 22.9749 441.492 17.553L439.694 16.4916C436.837 21.3315 432.034 24.1729 426.857 24.1723L426.857 26.2601ZM441.489 17.5582C441.859 16.9403 442.794 16.397 443.934 16.4023L443.944 14.3145C442.233 14.3065 440.524 15.1046 439.697 16.4863L441.489 17.5582ZM443.938 16.4023L582.584 16.4853L582.585 14.3975L443.939 14.3145L443.938 16.4023ZM582.584 16.4853C584.309 16.4855 585.873 18.0594 585.869 20.2183L587.957 20.2227C587.963 17.1036 585.649 14.3979 582.584 14.3975L582.584 16.4853ZM585.869 20.2178L585.646 105.383L587.733 105.388L587.957 20.2233L585.869 20.2178ZM586.453 104.369C569.861 108.223 557.452 124.384 557.402 143.568L559.49 143.574C559.538 125.251 571.378 110.014 586.926 106.403L586.453 104.369ZM557.402 143.568C557.351 162.761 569.679 178.947 586.246 182.826L586.722 180.793C571.204 177.16 559.441 161.904 559.49 143.574L557.402 143.568ZM585.44 181.806L585.217 266.972L587.305 266.977L587.528 181.812L585.44 181.806ZM585.217 266.972C585.212 269.121 583.636 270.701 581.906 270.701L581.906 272.789C584.966 272.789 587.298 270.089 587.305 266.977L585.217 266.972ZM581.906 270.701L443.261 270.618L443.26 272.706L581.905 272.789L581.906 270.701Z" fill="black" mask="url(#path-2-inside-1_2372_4411)"/>
<mask id="path-4-inside-2_2372_4411" fill="white">
<path fill-rule="evenodd" clip-rule="evenodd" d="M424.687 261.976C424.656 207.65 424.689 89.5002 425.479 25.235C425.559 25.2363 425.64 25.237 425.72 25.237C431.355 25.2382 436.54 22.173 439.601 17.0388C440.205 16.0382 441.541 15.3673 442.982 15.3741L583.098 15.4715C585.518 15.4721 587.478 17.6135 587.473 20.2544L587.256 105.479C571.016 109.212 558.764 124.921 558.716 143.687C558.668 162.462 570.843 178.196 587.056 181.955L586.839 267.18C586.834 269.812 584.859 271.954 582.439 271.953L442.323 271.856C440.875 271.857 439.546 271.183 438.933 270.153C435.92 265.046 430.747 261.972 425.112 261.97C424.97 261.97 424.829 261.972 424.687 261.976Z"/>
</mask>
<path fill-rule="evenodd" clip-rule="evenodd" d="M424.687 261.976C424.656 207.65 424.689 89.5002 425.479 25.235C425.559 25.2363 425.64 25.237 425.72 25.237C431.355 25.2382 436.54 22.173 439.601 17.0388C440.205 16.0382 441.541 15.3673 442.982 15.3741L583.098 15.4715C585.518 15.4721 587.478 17.6135 587.473 20.2544L587.256 105.479C571.016 109.212 558.764 124.921 558.716 143.687C558.668 162.462 570.843 178.196 587.056 181.955L586.839 267.18C586.834 269.812 584.859 271.954 582.439 271.953L442.323 271.856C440.875 271.857 439.546 271.183 438.933 270.153C435.92 265.046 430.747 261.972 425.112 261.97C424.97 261.97 424.829 261.972 424.687 261.976Z" fill="url(#paint2_radial_2372_4411)"/>
<path fill-rule="evenodd" clip-rule="evenodd" d="M424.687 261.976C424.656 207.65 424.689 89.5002 425.479 25.235C425.559 25.2363 425.64 25.237 425.72 25.237C431.355 25.2382 436.54 22.173 439.601 17.0388C440.205 16.0382 441.541 15.3673 442.982 15.3741L583.098 15.4715C585.518 15.4721 587.478 17.6135 587.473 20.2544L587.256 105.479C571.016 109.212 558.764 124.921 558.716 143.687C558.668 162.462 570.843 178.196 587.056 181.955L586.839 267.18C586.834 269.812 584.859 271.954 582.439 271.953L442.323 271.856C440.875 271.857 439.546 271.183 438.933 270.153C435.92 265.046 430.747 261.972 425.112 261.97C424.97 261.97 424.829 261.972 424.687 261.976Z" fill="url(#paint3_linear_2372_4411)" fill-opacity="0.2" style="mix-blend-mode:difference"/>
<path fill-rule="evenodd" clip-rule="evenodd" d="M424.687 261.976C424.656 207.65 424.689 89.5002 425.479 25.235C425.559 25.2363 425.64 25.237 425.72 25.237C431.355 25.2382 436.54 22.173 439.601 17.0388C440.205 16.0382 441.541 15.3673 442.982 15.3741L583.098 15.4715C585.518 15.4721 587.478 17.6135 587.473 20.2544L587.256 105.479C571.016 109.212 558.764 124.921 558.716 143.687C558.668 162.462 570.843 178.196 587.056 181.955L586.839 267.18C586.834 269.812 584.859 271.954 582.439 271.953L442.323 271.856C440.875 271.857 439.546 271.183 438.933 270.153C435.92 265.046 430.747 261.972 425.112 261.97C424.97 261.97 424.829 261.972 424.687 261.976Z" fill="url(#paint4_linear_2372_4411)" style="mix-blend-mode:screen"/>
<path d="M424.687 261.976L423.644 261.977L423.644 263.049L424.716 263.02L424.687 261.976ZM425.479 25.235L425.496 24.1913L424.448 24.1747L424.435 25.2222L425.479 25.235ZM425.72 25.237L425.72 26.2809L425.72 26.2809L425.72 25.237ZM439.601 17.0388L438.707 16.4989L438.704 16.5042L439.601 17.0388ZM442.982 15.3741L442.977 16.418L442.981 16.418L442.982 15.3741ZM583.098 15.4715L583.097 16.5154L583.097 16.5154L583.098 15.4715ZM587.473 20.2544L588.517 20.257L588.517 20.2565L587.473 20.2544ZM587.256 105.479L587.49 106.496L588.298 106.31L588.3 105.481L587.256 105.479ZM558.716 143.687L559.76 143.69L558.716 143.687ZM587.056 181.955L588.1 181.958L588.102 181.126L587.292 180.938L587.056 181.955ZM586.839 267.18L585.796 267.177L585.796 267.178L586.839 267.18ZM582.439 271.953L582.438 272.997L582.438 272.997L582.439 271.953ZM442.323 271.856L442.323 270.812L442.322 270.812L442.323 271.856ZM438.933 270.153L438.034 270.684L438.036 270.687L438.933 270.153ZM425.112 261.97L425.112 263.014L425.112 263.014L425.112 261.97ZM425.731 261.976C425.7 207.648 425.733 89.5049 426.523 25.2479L424.435 25.2222C423.645 89.4954 423.612 207.653 423.644 261.977L425.731 261.976ZM425.463 26.2788C425.548 26.2802 425.634 26.2809 425.72 26.2809L425.72 24.1931C425.645 24.193 425.57 24.1924 425.496 24.1913L425.463 26.2788ZM425.72 26.2809C431.75 26.2822 437.263 22.9996 440.498 17.5733L438.704 16.5042C435.818 21.3464 430.961 24.1942 425.72 24.1931L425.72 26.2809ZM440.494 17.5786C440.868 16.9598 441.818 16.4125 442.977 16.418L442.987 14.3302C441.265 14.322 439.543 15.1167 438.707 16.499L440.494 17.5786ZM442.981 16.418L583.097 16.5154L583.098 14.4276L442.982 14.3302L442.981 16.418ZM583.097 16.5154C584.857 16.5158 586.433 18.1016 586.429 20.2523L588.517 20.2565C588.523 17.1255 586.179 14.4283 583.098 14.4276L583.097 16.5154ZM586.429 20.2517L586.212 105.476L588.3 105.481L588.517 20.257L586.429 20.2517ZM587.022 104.461C570.265 108.314 557.722 124.48 557.673 143.685L559.76 143.69C559.807 125.362 571.767 110.111 587.49 106.496L587.022 104.461ZM557.673 143.685C557.623 162.898 570.088 179.092 586.82 182.972L587.292 180.938C571.598 177.299 559.713 162.026 559.76 143.69L557.673 143.685ZM586.012 181.953L585.796 267.177L587.883 267.182L588.1 181.958L586.012 181.953ZM585.796 267.178C585.791 269.318 584.203 270.91 582.439 270.909L582.438 272.997C585.515 272.998 587.877 270.307 587.883 267.182L585.796 267.178ZM582.439 270.909L442.323 270.812L442.322 272.9L582.438 272.997L582.439 270.909ZM442.322 270.812C441.159 270.813 440.215 270.267 439.83 269.62L438.036 270.687C438.876 272.099 440.591 272.901 442.324 272.9L442.322 270.812ZM439.832 269.623C436.644 264.22 431.142 260.928 425.112 260.927L425.112 263.014C430.352 263.015 435.195 265.872 438.034 270.684L439.832 269.623ZM425.112 260.927C424.961 260.926 424.81 260.929 424.659 260.933L424.716 263.02C424.848 263.016 424.98 263.014 425.112 263.014L425.112 260.927Z" fill="black" mask="url(#path-4-inside-2_2372_4411)"/>
<path d="M425.504 269.482C425.079 269.478 424.736 269.106 424.741 268.645L424.761 258.592C424.766 258.131 425.11 257.758 425.534 257.754C425.935 257.758 426.301 258.13 426.304 258.591L426.284 268.644C426.279 269.105 425.936 269.478 425.511 269.482L425.504 269.482ZM425.552 249.376C425.128 249.372 424.785 248.999 424.79 248.539L424.81 238.486C424.815 238.025 425.158 237.652 425.582 237.648C426.007 237.652 426.35 238.024 426.353 238.485L426.332 248.538C426.327 248.999 425.984 249.372 425.56 249.376L425.552 249.376ZM425.601 229.27C425.177 229.266 424.833 228.893 424.838 228.433L424.859 218.38C424.863 217.919 425.207 217.545 425.631 217.541C426.078 217.546 426.398 217.918 426.401 218.379L426.381 228.432C426.376 228.893 426.033 229.266 425.608 229.27L425.601 229.27ZM425.649 209.164C425.225 209.159 424.882 208.787 424.887 208.327L424.907 198.273C424.912 197.813 425.255 197.439 425.68 197.435C426.111 197.457 426.447 197.812 426.45 198.273L426.429 208.326C426.425 208.787 426.081 209.16 425.657 209.164L425.649 209.164ZM425.698 189.058C425.274 189.053 424.93 188.681 424.935 188.22L424.956 178.167C424.961 177.707 425.304 177.333 425.728 177.329C426.152 177.334 426.496 177.706 426.491 178.167L426.47 188.22C426.465 188.68 426.122 189.054 425.698 189.058ZM425.746 168.952C425.322 168.947 424.979 168.575 424.984 168.114L425.004 158.061C425.009 157.6 425.352 157.227 425.777 157.223C426.201 157.228 426.544 157.6 426.539 158.06L426.519 168.114C426.514 168.574 426.171 168.948 425.746 168.952ZM425.795 148.846C425.371 148.841 425.028 148.469 425.032 148.008L425.053 137.955C425.058 137.494 425.401 137.121 425.825 137.117C426.249 137.121 426.593 137.494 426.588 137.954L426.567 148.007C426.563 148.468 426.219 148.842 425.795 148.846ZM425.844 128.739C425.419 128.735 425.076 128.363 425.081 127.902L425.101 117.849C425.106 117.388 425.45 117.015 425.874 117.011C426.298 117.015 426.641 117.387 426.636 117.848L426.616 127.901C426.611 128.362 426.268 128.735 425.844 128.739ZM425.892 108.633C425.468 108.629 425.125 108.257 425.13 107.796L425.15 97.7428C425.155 97.282 425.498 96.9086 425.922 96.9047C426.347 96.9091 426.69 97.2813 426.685 97.7421L426.665 107.795C426.66 108.256 426.316 108.629 425.892 108.633ZM425.941 88.5271C425.517 88.5227 425.173 88.1505 425.178 87.6897L425.199 77.6366C425.203 77.1759 425.547 76.8025 425.971 76.7986C426.395 76.803 426.738 77.1752 426.734 77.6359L426.713 87.689C426.708 88.1498 426.365 88.5232 425.941 88.5271ZM425.989 68.421C425.565 68.4165 425.222 68.0443 425.227 67.5836L425.247 57.5305C425.252 57.0698 425.595 56.6964 426.02 56.6924C426.444 56.6969 426.787 57.0691 426.782 57.5298L426.762 67.5829C426.757 68.0436 426.414 68.417 425.989 68.421ZM426.038 48.3149C425.614 48.3104 425.271 47.9382 425.275 47.4775L425.296 37.4244C425.301 36.9636 425.644 36.5902 426.068 36.5863C426.492 36.5907 426.836 36.963 426.831 37.4237L426.81 47.4768C426.806 47.9375 426.462 48.3109 426.038 48.3149ZM426.087 28.2087C425.662 28.2043 425.319 27.8321 425.324 27.3713L425.344 17.3182C425.349 16.8575 425.693 16.4841 426.117 16.4802C426.541 16.4846 426.884 16.8568 426.879 17.3175L426.859 27.3707C426.854 27.8314 426.511 28.2048 426.087 28.2087Z" fill="white"/>
<path d="M60.5748 233.463C59.696 233.463 58.9739 233.382 58.4133 233.226C57.8527 233.069 57.4062 232.841 57.0736 232.546C56.7411 232.252 56.5036 231.886 56.3515 231.444C56.1995 231.007 56.1045 230.499 56.0618 229.929C56.019 229.359 56 228.731 56 228.043C56 227.368 56.019 226.75 56.0618 226.19C56.1045 225.629 56.2043 225.121 56.3705 224.674C56.5368 224.228 56.7791 223.853 57.1021 223.553C57.4252 223.249 57.8622 223.021 58.4228 222.864C58.9786 222.708 59.6912 222.627 60.5558 222.627C61.1021 222.627 61.658 222.655 62.2138 222.708C62.7696 222.765 63.2684 222.845 63.7055 222.955V225.283C63.4299 225.24 63.0784 225.207 62.6461 225.178C62.2138 225.15 61.8147 225.135 61.4394 225.135C60.9596 225.135 60.5796 225.173 60.3088 225.249C60.0333 225.325 59.829 225.463 59.6912 225.663C59.5534 225.862 59.4632 226.152 59.4157 226.537C59.3682 226.921 59.3444 227.42 59.3444 228.038C59.3444 228.655 59.3682 229.159 59.4157 229.553C59.4632 229.943 59.5582 230.242 59.6912 230.442C59.829 230.641 60.0428 230.774 60.3278 230.845C60.6176 230.912 60.9929 230.95 61.4632 230.95C61.791 230.95 62.1663 230.936 62.5843 230.907C63.0024 230.879 63.4062 230.845 63.791 230.803V233.131C63.3397 233.226 62.8219 233.306 62.247 233.368C61.6675 233.435 61.1116 233.463 60.5748 233.463Z" fill="white"/>
<path d="M69.5772 233.463C68.6413 233.463 67.867 233.406 67.2494 233.297C66.6318 233.188 66.1425 233.007 65.7862 232.76C65.4299 232.513 65.1686 232.185 65.0023 231.772C64.8361 231.359 64.7316 230.845 64.684 230.228C64.6365 229.61 64.6128 228.874 64.6128 228.024C64.6128 227.173 64.6365 226.442 64.684 225.829C64.7316 225.216 64.8361 224.708 65.0023 224.294C65.1686 223.881 65.4299 223.553 65.7862 223.306C66.1425 223.059 66.6318 222.883 67.2494 222.779C67.867 222.674 68.6413 222.627 69.5772 222.627C70.5225 222.627 71.3064 222.679 71.924 222.779C72.5415 222.883 73.0261 223.059 73.3871 223.306C73.7434 223.553 74.0047 223.881 74.171 224.294C74.3373 224.708 74.4418 225.216 74.4893 225.829C74.5368 226.442 74.5605 227.173 74.5605 228.024C74.5605 228.874 74.5368 229.61 74.4893 230.228C74.4418 230.845 74.3373 231.359 74.171 231.772C74.0047 232.185 73.7434 232.513 73.3871 232.76C73.0308 233.007 72.5415 233.188 71.924 233.297C71.3064 233.411 70.5225 233.463 69.5772 233.463ZM69.5772 230.95C69.9905 230.95 70.3088 230.921 70.5463 230.869C70.7791 230.817 70.9453 230.689 71.0403 230.499C71.1354 230.304 71.1971 230.009 71.2161 229.61C71.2351 229.211 71.2446 228.684 71.2446 228.024C71.2446 227.363 71.2351 226.845 71.2161 226.461C71.1971 226.076 71.1354 225.786 71.0403 225.596C70.9453 225.406 70.7791 225.283 70.5463 225.226C70.3135 225.169 69.9905 225.145 69.5772 225.145C69.1639 225.145 68.8456 225.173 68.6175 225.226C68.3895 225.278 68.228 225.406 68.133 225.596C68.038 225.791 67.9762 226.076 67.9572 226.461C67.9382 226.845 67.9287 227.368 67.9287 228.024C67.9287 228.684 67.9382 229.211 67.9572 229.61C67.9762 230.009 68.038 230.304 68.133 230.499C68.228 230.689 68.3895 230.812 68.6175 230.869C68.8456 230.926 69.1639 230.95 69.5772 230.95Z" fill="white"/>
<path d="M78.9261 233.463C78.3228 233.463 77.8002 233.382 77.3632 233.216C76.9214 233.05 76.5651 232.77 76.2895 232.361C76.014 231.957 75.8145 231.401 75.6815 230.703C75.5532 230.005 75.4867 229.126 75.4867 228.067C75.4867 227.021 75.5485 226.147 75.672 225.439C75.7955 224.732 75.995 224.176 76.2705 223.772C76.5461 223.368 76.8976 223.074 77.3299 222.898C77.7622 222.722 78.2895 222.632 78.9071 222.632C79.3204 222.632 79.7052 222.665 80.071 222.736C80.4321 222.808 80.7646 222.931 81.0686 223.107C81.3727 223.287 81.6292 223.553 81.8525 223.91H82.0188V218H85.3347V233.302H82.185L82.1043 232.048H81.938C81.7337 232.447 81.4677 232.746 81.1447 232.945C80.8216 233.145 80.4701 233.283 80.0948 233.359C79.71 233.425 79.3204 233.463 78.9261 233.463ZM80.4083 230.746C80.8359 230.746 81.1542 230.694 81.3679 230.589C81.5817 230.485 81.7337 230.299 81.8335 230.024C81.9143 229.777 81.9665 229.492 81.9903 229.169C82.0093 228.846 82.0188 228.47 82.0188 228.048C82.0188 227.625 82.0093 227.249 81.9903 226.936C81.9713 226.622 81.919 226.352 81.8335 226.133C81.7527 225.829 81.6007 225.625 81.3822 225.515C81.1637 225.406 80.8406 225.349 80.4131 225.349C80.0425 225.349 79.748 225.378 79.5294 225.43C79.3109 225.487 79.1494 225.596 79.0449 225.772C78.9404 225.948 78.8786 226.209 78.8501 226.565C78.8216 226.922 78.8074 227.416 78.8074 228.048C78.8074 228.679 78.8216 229.178 78.8501 229.539C78.8786 229.905 78.9404 230.171 79.0449 230.342C79.1494 230.513 79.3109 230.622 79.5294 230.67C79.7385 230.722 80.0378 230.746 80.4083 230.746Z" fill="white"/>
<path d="M91.8574 233.463C90.8693 233.463 90.0522 233.402 89.4061 233.278C88.76 233.155 88.2517 232.96 87.8717 232.694C87.4964 232.428 87.2113 232.081 87.0261 231.653C86.8408 231.226 86.7268 230.722 86.6745 230.128C86.627 229.539 86.6033 228.85 86.6033 228.071C86.6033 227.126 86.646 226.309 86.7363 225.62C86.8265 224.936 87.0261 224.371 87.3444 223.934C87.6579 223.497 88.152 223.169 88.8171 222.955C89.4821 222.741 90.3847 222.637 91.5249 222.637C92.4465 222.637 93.1923 222.703 93.7672 222.831C94.342 222.96 94.8028 223.159 95.1353 223.43C95.4726 223.696 95.7149 224.043 95.8574 224.47C96 224.898 96.095 225.406 96.133 226.005C96.1757 226.603 96.1947 227.292 96.1947 228.076V228.879H89.8717C89.8717 229.345 89.8907 229.72 89.9334 230C89.9762 230.28 90.0855 230.489 90.2612 230.627C90.4418 230.765 90.7125 230.855 91.0831 230.903C91.4536 230.95 91.9714 230.974 92.627 230.974C92.8883 230.974 93.1971 230.969 93.5534 230.955C93.9097 230.941 94.285 230.922 94.6745 230.893C95.0641 230.865 95.4346 230.841 95.7767 230.812V233.117C95.4726 233.188 95.1068 233.25 94.6745 233.302C94.2422 233.359 93.7767 233.397 93.2826 233.425C92.8028 233.449 92.323 233.463 91.8574 233.463ZM93.0926 227.492V227.164C93.0926 226.67 93.0688 226.276 93.0213 225.991C92.9738 225.701 92.8883 225.487 92.7743 225.34C92.6555 225.197 92.4988 225.102 92.2897 225.064C92.0855 225.022 91.8242 225.003 91.5059 225.003C91.1496 225.003 90.8646 225.026 90.6508 225.074C90.437 225.121 90.2755 225.221 90.1662 225.373C90.057 225.525 89.9809 225.744 89.9382 226.033C89.8954 226.323 89.8764 226.698 89.8764 227.169H93.4394L93.0926 227.492Z" fill="white"/>
<path d="M102.166 233.463C101.287 233.463 100.565 233.382 100.005 233.226C99.4442 233.069 98.9976 232.841 98.6651 232.546C98.3325 232.252 98.095 231.886 97.943 231.444C97.791 231.007 97.6959 230.499 97.6532 229.929C97.6104 229.359 97.5914 228.731 97.5914 228.043C97.5914 227.368 97.6104 226.75 97.6532 226.19C97.6959 225.629 97.7957 225.121 97.962 224.674C98.1282 224.228 98.3705 223.853 98.6936 223.553C99.0166 223.249 99.4537 223.021 100.014 222.864C100.57 222.708 101.283 222.627 102.147 222.627C102.694 222.627 103.249 222.655 103.805 222.708C104.361 222.765 104.86 222.845 105.297 222.955V225.283C105.021 225.24 104.67 225.207 104.238 225.178C103.805 225.15 103.406 225.135 103.031 225.135C102.551 225.135 102.171 225.173 101.9 225.249C101.625 225.325 101.42 225.463 101.283 225.663C101.145 225.862 101.055 226.152 101.007 226.537C100.96 226.921 100.936 227.42 100.936 228.038C100.936 228.655 100.96 229.159 101.007 229.553C101.055 229.943 101.15 230.242 101.283 230.442C101.42 230.641 101.634 230.774 101.919 230.845C102.209 230.912 102.584 230.95 103.055 230.95C103.382 230.95 103.758 230.936 104.176 230.907C104.594 230.879 104.998 230.845 105.382 230.803V233.131C104.931 233.226 104.413 233.306 103.838 233.368C103.259 233.435 102.703 233.463 102.166 233.463Z" fill="white"/>
<path d="M111.168 233.463C110.233 233.463 109.458 233.406 108.841 233.297C108.223 233.188 107.734 233.007 107.377 232.76C107.021 232.513 106.76 232.185 106.594 231.772C106.427 231.359 106.323 230.845 106.275 230.228C106.228 229.61 106.204 228.874 106.204 228.024C106.204 227.173 106.228 226.442 106.275 225.829C106.323 225.216 106.427 224.708 106.594 224.294C106.76 223.881 107.021 223.553 107.377 223.306C107.734 223.059 108.223 222.883 108.841 222.779C109.458 222.674 110.233 222.627 111.168 222.627C112.114 222.627 112.898 222.679 113.515 222.779C114.133 222.883 114.617 223.059 114.978 223.306C115.335 223.553 115.596 223.881 115.762 224.294C115.929 224.708 116.033 225.216 116.081 225.829C116.128 226.442 116.152 227.173 116.152 228.024C116.152 228.874 116.128 229.61 116.081 230.228C116.033 230.845 115.929 231.359 115.762 231.772C115.596 232.185 115.335 232.513 114.978 232.76C114.622 233.007 114.133 233.188 113.515 233.297C112.898 233.411 112.114 233.463 111.168 233.463ZM111.168 230.95C111.582 230.95 111.9 230.921 112.138 230.869C112.37 230.817 112.537 230.689 112.632 230.499C112.727 230.304 112.788 230.009 112.807 229.61C112.826 229.211 112.836 228.684 112.836 228.024C112.836 227.363 112.826 226.845 112.807 226.461C112.788 226.076 112.727 225.786 112.632 225.596C112.537 225.406 112.37 225.283 112.138 225.226C111.905 225.169 111.582 225.145 111.168 225.145C110.755 225.145 110.437 225.173 110.209 225.226C109.981 225.278 109.819 225.406 109.724 225.596C109.629 225.791 109.568 226.076 109.549 226.461C109.53 226.845 109.52 227.368 109.52 228.024C109.52 228.684 109.53 229.211 109.549 229.61C109.568 230.009 109.629 230.304 109.724 230.499C109.819 230.689 109.981 230.812 110.209 230.869C110.437 230.926 110.755 230.95 111.168 230.95Z" fill="white"/>
<path d="M117.43 233.297V222.793H120.56L120.641 224.071H120.826C121.031 223.715 121.287 223.43 121.586 223.216C121.89 223.002 122.233 222.85 122.617 222.765C123.002 222.675 123.42 222.632 123.871 222.632C124.57 222.632 125.13 222.722 125.548 222.898C125.967 223.078 126.285 223.34 126.508 223.682C126.731 224.024 126.874 224.451 126.95 224.96C127.026 225.468 127.064 226.057 127.064 226.732V233.302H123.748V227.743C123.748 227.183 123.734 226.736 123.705 226.413C123.677 226.09 123.615 225.853 123.52 225.701C123.425 225.549 123.278 225.458 123.078 225.425C122.879 225.392 122.613 225.373 122.285 225.373C121.943 225.373 121.662 225.411 121.449 225.487C121.235 225.563 121.078 225.691 120.974 225.867C120.869 226.048 120.803 226.295 120.769 226.618C120.736 226.941 120.717 227.34 120.717 227.824V233.302H117.43V233.297Z" fill="white"/>
<path d="M135.682 233.345L130.684 230.276V226.015L135.682 222.927V226.262L132.38 228.133L135.682 230.01V233.345Z" fill="#0055FF"/>
<path d="M135.682 222.927V226.262L130.68 229.103V226.015L135.682 222.927Z" fill="#0055FF"/>
<path d="M205.962 222.927L210.96 225.996V230.257L205.962 233.345V230.01L209.264 228.138L205.962 226.262V222.927Z" fill="#0055FF"/>
<path d="M205.962 233.345V230.01L210.965 227.164V230.257L205.962 233.345Z" fill="#0055FF"/>
<path d="M139.188 233.829V225.568H137.183V222.969H139.188V222.223C139.188 221.402 139.235 220.727 139.335 220.209C139.435 219.691 139.611 219.283 139.867 218.984C140.124 218.684 140.48 218.47 140.941 218.333C141.402 218.2 141.986 218.114 142.689 218.076C143.392 218.043 144.233 218.024 145.212 218.024V220.366C144.627 220.366 144.167 220.38 143.815 220.409C143.468 220.437 143.207 220.499 143.036 220.589C142.865 220.68 142.756 220.817 142.708 220.993C142.661 221.169 142.632 221.421 142.632 221.748V222.965H145.207V225.563H142.632V233.824H139.188V233.829Z" fill="#0055FF"/>
<path d="M151.069 234C150.048 234 149.202 233.934 148.537 233.805C147.867 233.677 147.34 233.478 146.95 233.197C146.561 232.922 146.271 232.561 146.076 232.124C145.881 231.687 145.763 231.159 145.715 230.547C145.668 229.934 145.639 229.226 145.639 228.418C145.639 227.44 145.687 226.594 145.777 225.881C145.867 225.174 146.076 224.589 146.404 224.138C146.732 223.682 147.24 223.345 147.929 223.126C148.618 222.908 149.549 222.798 150.727 222.798C151.677 222.798 152.452 222.865 153.05 223.003C153.649 223.136 154.119 223.345 154.466 223.62C154.813 223.896 155.064 224.257 155.212 224.699C155.359 225.14 155.459 225.668 155.497 226.285C155.539 226.903 155.563 227.615 155.563 228.428V229.259H149.026C149.026 229.744 149.045 230.129 149.088 230.418C149.131 230.708 149.245 230.927 149.43 231.069C149.615 231.212 149.9 231.307 150.28 231.354C150.665 231.406 151.197 231.43 151.877 231.43C152.147 231.43 152.466 231.421 152.836 231.406C153.207 231.392 153.592 231.373 153.995 231.345C154.399 231.316 154.779 231.288 155.136 231.259V233.644C154.822 233.715 154.442 233.777 153.995 233.834C153.549 233.891 153.069 233.934 152.556 233.962C152.048 233.986 151.554 234 151.069 234ZM152.347 227.824V227.482C152.347 226.969 152.323 226.566 152.271 226.271C152.223 225.972 152.133 225.748 152.014 225.601C151.896 225.454 151.729 225.354 151.516 225.316C151.302 225.278 151.031 225.25 150.708 225.25C150.337 225.25 150.043 225.273 149.824 225.326C149.606 225.373 149.435 225.478 149.326 225.634C149.212 225.791 149.136 226.019 149.093 226.314C149.05 226.613 149.031 227.003 149.031 227.487H152.718L152.347 227.824Z" fill="#0055FF"/>
<path d="M159.545 234C158.86 234 158.286 233.896 157.82 233.682C157.35 233.468 156.998 233.122 156.765 232.637C156.533 232.152 156.414 231.521 156.414 230.741C156.414 229.92 156.509 229.259 156.699 228.77C156.889 228.281 157.236 227.929 157.73 227.715C158.229 227.502 158.932 227.397 159.839 227.397C159.967 227.397 160.148 227.402 160.381 227.407C160.613 227.416 160.879 227.421 161.179 227.43C161.478 227.44 161.777 227.445 162.072 227.454C162.366 227.464 162.637 227.473 162.879 227.487V227.084C162.879 226.67 162.846 226.352 162.784 226.124C162.718 225.896 162.599 225.73 162.423 225.625C162.248 225.521 161.982 225.454 161.625 225.435C161.269 225.411 160.803 225.402 160.219 225.402C159.891 225.402 159.535 225.411 159.146 225.426C158.756 225.44 158.371 225.459 157.996 225.478C157.621 225.497 157.302 225.525 157.046 225.554V223.145C157.625 223.046 158.286 222.965 159.017 222.898C159.749 222.832 160.518 222.803 161.326 222.803C162.233 222.803 162.989 222.86 163.592 222.974C164.195 223.088 164.68 223.259 165.051 223.497C165.421 223.73 165.692 224.024 165.872 224.38C166.048 224.737 166.167 225.155 166.224 225.639C166.281 226.124 166.309 226.67 166.309 227.278V233.839H163.032L162.946 232.561H162.775C162.504 232.988 162.191 233.307 161.839 233.521C161.483 233.734 161.108 233.867 160.708 233.924C160.319 233.972 159.929 234 159.545 234ZM161.165 231.573C161.421 231.573 161.644 231.554 161.834 231.521C162.024 231.487 162.191 231.421 162.324 231.331C162.457 231.24 162.571 231.122 162.651 230.979C162.723 230.822 162.78 230.632 162.822 230.404C162.865 230.176 162.889 229.905 162.889 229.597V229.193H160.908C160.552 229.193 160.281 229.217 160.1 229.269C159.915 229.316 159.792 229.43 159.73 229.611C159.668 229.791 159.635 230.062 159.635 230.433C159.635 230.746 159.668 230.988 159.739 231.155C159.811 231.326 159.953 231.44 160.176 231.497C160.395 231.544 160.723 231.573 161.165 231.573Z" fill="#0055FF"/>
<path d="M168.979 233.829V225.568H166.998V222.969H168.979V219.82H172.428V222.969H174.794V225.568H172.428V233.829H168.979Z" fill="#0055FF"/>
<path d="M178.903 234C178.181 234 177.596 233.905 177.159 233.725C176.718 233.539 176.385 233.273 176.157 232.917C175.929 232.561 175.782 232.124 175.71 231.596C175.639 231.069 175.606 230.461 175.606 229.767V222.974H179.012V228.717C179.012 229.297 179.031 229.758 179.064 230.09C179.098 230.423 179.169 230.67 179.269 230.827C179.368 230.983 179.516 231.079 179.715 231.112C179.915 231.15 180.186 231.164 180.523 231.164C180.893 231.164 181.188 231.126 181.406 231.045C181.625 230.969 181.786 230.836 181.886 230.651C181.986 230.466 182.053 230.209 182.086 229.872C182.124 229.539 182.138 229.126 182.138 228.627V222.969H185.568V233.829H182.309L182.224 232.508H182.034C181.834 232.879 181.577 233.174 181.269 233.392C180.96 233.611 180.599 233.767 180.205 233.862C179.805 233.953 179.373 234 178.903 234Z" fill="#0055FF"/>
<path d="M187.231 233.829V222.969H190.466L190.551 224.822H190.741C190.941 224.295 191.193 223.886 191.497 223.587C191.801 223.288 192.176 223.083 192.613 222.969C193.055 222.855 193.563 222.798 194.147 222.798V225.929C193.254 225.929 192.551 226.043 192.038 226.271C191.53 226.499 191.164 226.884 190.95 227.43C190.737 227.976 190.632 228.741 190.632 229.72V233.829H187.231Z" fill="#0055FF"/>
<path d="M199.967 234C198.946 234 198.1 233.934 197.435 233.805C196.765 233.677 196.238 233.478 195.849 233.197C195.459 232.922 195.169 232.561 194.974 232.124C194.784 231.682 194.661 231.159 194.613 230.547C194.566 229.934 194.537 229.226 194.537 228.418C194.537 227.44 194.585 226.594 194.675 225.881C194.765 225.174 194.974 224.589 195.302 224.138C195.63 223.682 196.138 223.345 196.827 223.126C197.516 222.908 198.447 222.798 199.625 222.798C200.575 222.798 201.35 222.865 201.948 223.003C202.547 223.136 203.017 223.345 203.364 223.62C203.711 223.896 203.963 224.257 204.11 224.699C204.257 225.14 204.357 225.668 204.395 226.285C204.438 226.903 204.461 227.615 204.461 228.428V229.259H197.925C197.925 229.744 197.944 230.129 197.986 230.418C198.029 230.708 198.143 230.927 198.328 231.069C198.514 231.212 198.799 231.307 199.179 231.354C199.563 231.406 200.096 231.43 200.775 231.43C201.046 231.43 201.364 231.421 201.735 231.406C202.105 231.392 202.49 231.373 202.894 231.345C203.297 231.316 203.678 231.288 204.034 231.259V233.644C203.72 233.715 203.34 233.777 202.894 233.834C202.447 233.891 201.967 233.934 201.454 233.962C200.946 233.986 200.447 234 199.967 234ZM201.245 227.824V227.482C201.245 226.969 201.221 226.566 201.169 226.271C201.122 225.972 201.031 225.748 200.913 225.601C200.794 225.454 200.628 225.354 200.414 225.316C200.2 225.278 199.929 225.25 199.606 225.25C199.236 225.25 198.941 225.273 198.723 225.326C198.504 225.373 198.333 225.478 198.224 225.634C198.11 225.791 198.034 226.019 197.991 226.314C197.948 226.613 197.929 227.003 197.929 227.487H201.616L201.245 227.824Z" fill="#0055FF"/>
<path d="M249.465 196V184.8H251.193V189.6H255.897V184.8H257.625V196H255.897V191.168H251.193V196H249.465Z" fill="#0055FF"/>
<path d="M264.173 196.224C262.797 196.224 261.704 195.84 260.893 195.072C260.082 194.294 259.677 193.174 259.677 191.712V189.088C259.677 187.627 260.082 186.512 260.893 185.744C261.704 184.966 262.797 184.576 264.173 184.576C265.549 184.576 266.642 184.966 267.453 185.744C268.274 186.512 268.685 187.627 268.685 189.088V191.712C268.685 193.174 268.274 194.294 267.453 195.072C266.642 195.84 265.549 196.224 264.173 196.224ZM264.173 194.672C265.058 194.672 265.741 194.416 266.221 193.904C266.701 193.382 266.941 192.672 266.941 191.776V189.024C266.941 188.128 266.701 187.424 266.221 186.912C265.741 186.39 265.058 186.128 264.173 186.128C263.309 186.128 262.632 186.39 262.141 186.912C261.65 187.424 261.405 188.128 261.405 189.024V191.776C261.405 192.672 261.65 193.382 262.141 193.904C262.632 194.416 263.309 194.672 264.173 194.672Z" fill="#0055FF"/>
<path d="M272.934 196V186.368H269.494V184.8H278.102V186.368H274.662V196H272.934Z" fill="#0055FF"/>
<path d="M279.668 196V184.8H286.724V186.368H281.396V189.584H286.276V191.152H281.396V194.432H286.804V196H279.668Z" fill="#0055FF"/>
<path d="M288.605 196V184.8H290.333V194.432H295.725V196H288.605Z" fill="#0055FF"/>
<path d="M300.934 196V184.8H307.846V186.368H302.662V189.6H307.43V191.168H302.662V196H300.934Z" fill="#0055FF"/>
<path d="M307.992 196L311.192 184.8H314.232L317.416 196H315.64L314.904 193.36H310.52L309.784 196H307.992ZM310.952 191.76H314.472L312.84 185.872H312.584L310.952 191.76Z" fill="#0055FF"/>
<path d="M318.934 196V184.8H320.662V196H318.934Z" fill="#0055FF"/>
<path d="M322.164 196L325.364 184.8H328.404L331.588 196H329.812L329.076 193.36H324.692L323.956 196H322.164ZM325.124 191.76H328.644L327.012 185.872H326.756L325.124 191.76Z" fill="#0055FF"/>
<path d="M333.105 196V184.8H334.833V194.432H340.225V196H333.105Z" fill="#0055FF"/>
<path d="M345.434 196V184.8H349.882C350.564 184.8 351.172 184.939 351.706 185.216C352.25 185.483 352.671 185.867 352.97 186.368C353.279 186.859 353.434 187.451 353.434 188.144V188.352C353.434 189.046 353.274 189.643 352.954 190.144C352.644 190.646 352.223 191.03 351.69 191.296C351.156 191.563 350.554 191.696 349.882 191.696H347.162V196H345.434ZM347.162 190.128H349.706C350.314 190.128 350.799 189.968 351.162 189.648C351.524 189.328 351.706 188.891 351.706 188.336V188.176C351.706 187.611 351.524 187.168 351.162 186.848C350.799 186.528 350.314 186.368 349.706 186.368H347.162V190.128Z" fill="#0055FF"/>
<path d="M355.074 196V184.8H359.778C360.472 184.8 361.08 184.923 361.602 185.168C362.136 185.403 362.546 185.744 362.834 186.192C363.133 186.64 363.282 187.174 363.282 187.792V187.968C363.282 188.672 363.112 189.238 362.77 189.664C362.44 190.08 362.034 190.374 361.554 190.544V190.8C361.96 190.822 362.285 190.96 362.53 191.216C362.776 191.462 362.898 191.819 362.898 192.288V196H361.154V192.528C361.154 192.24 361.08 192.011 360.93 191.84C360.781 191.67 360.541 191.584 360.21 191.584H356.802V196H355.074ZM356.802 190.016H359.586C360.205 190.016 360.685 189.862 361.026 189.552C361.368 189.232 361.538 188.8 361.538 188.256V188.128C361.538 187.584 361.368 187.158 361.026 186.848C360.696 186.528 360.216 186.368 359.586 186.368H356.802V190.016Z" fill="#0055FF"/>
<path d="M365.184 196V184.8H366.912V196H365.184Z" fill="#0055FF"/>
<path d="M369.246 196V184.8H372.494L374.942 194.848H375.198L377.646 184.8H380.894V196H379.214V186.016H378.958L376.526 196H373.614L371.182 186.016H370.926V196H369.246Z" fill="#0055FF"/>
<path d="M383.23 196V184.8H390.286V186.368H384.958V189.584H389.838V191.152H384.958V194.432H390.366V196H383.23Z" fill="#0055FF"/>
<path d="M247.824 215V203.8H254.736V205.368H249.552V208.6H254.32V210.168H249.552V215H247.824Z" fill="#0055FF"/>
<path d="M256.418 215V203.8H258.146V213.432H263.538V215H256.418Z" fill="#0055FF"/>
<path d="M268.985 215.224C267.609 215.224 266.516 214.84 265.705 214.072C264.895 213.294 264.489 212.174 264.489 210.712V208.088C264.489 206.627 264.895 205.512 265.705 204.744C266.516 203.966 267.609 203.576 268.985 203.576C270.361 203.576 271.455 203.966 272.265 204.744C273.087 205.512 273.497 206.627 273.497 208.088V210.712C273.497 212.174 273.087 213.294 272.265 214.072C271.455 214.84 270.361 215.224 268.985 215.224ZM268.985 213.672C269.871 213.672 270.553 213.416 271.033 212.904C271.513 212.382 271.753 211.672 271.753 210.776V208.024C271.753 207.128 271.513 206.424 271.033 205.912C270.553 205.39 269.871 205.128 268.985 205.128C268.121 205.128 267.444 205.39 266.953 205.912C266.463 206.424 266.217 207.128 266.217 208.024V210.776C266.217 211.672 266.463 212.382 266.953 212.904C267.444 213.416 268.121 213.672 268.985 213.672Z" fill="#0055FF"/>
<path d="M275.543 215V203.8H280.247C280.94 203.8 281.548 203.923 282.071 204.168C282.604 204.403 283.015 204.744 283.303 205.192C283.602 205.64 283.751 206.174 283.751 206.792V206.968C283.751 207.672 283.58 208.238 283.239 208.664C282.908 209.08 282.503 209.374 282.023 209.544V209.8C282.428 209.822 282.754 209.96 282.999 210.216C283.244 210.462 283.367 210.819 283.367 211.288V215H281.623V211.528C281.623 211.24 281.548 211.011 281.399 210.84C281.25 210.67 281.01 210.584 280.679 210.584H277.271V215H275.543ZM277.271 209.016H280.055C280.674 209.016 281.154 208.862 281.495 208.552C281.836 208.232 282.007 207.8 282.007 207.256V207.128C282.007 206.584 281.836 206.158 281.495 205.848C281.164 205.528 280.684 205.368 280.055 205.368H277.271V209.016Z" fill="#0055FF"/>
<path d="M285.652 215V203.8H287.38V215H285.652Z" fill="#0055FF"/>
<path d="M288.883 215L292.083 203.8H295.123L298.307 215H296.531L295.795 212.36H291.411L290.675 215H288.883ZM291.843 210.76H295.363L293.731 204.872H293.475L291.843 210.76Z" fill="#0055FF"/>
<path d="M299.824 215V203.8H303.152L306.192 213.848H306.448V203.8H308.16V215H304.832L301.792 204.936H301.536V215H299.824Z" fill="#0055FF"/>
<path d="M314.704 215.224C313.328 215.224 312.235 214.84 311.424 214.072C310.613 213.294 310.208 212.174 310.208 210.712V208.088C310.208 206.627 310.613 205.512 311.424 204.744C312.235 203.966 313.328 203.576 314.704 203.576C316.08 203.576 317.173 203.966 317.984 204.744C318.805 205.512 319.216 206.627 319.216 208.088V210.712C319.216 212.174 318.805 213.294 317.984 214.072C317.173 214.84 316.08 215.224 314.704 215.224ZM314.704 213.672C315.589 213.672 316.272 213.416 316.752 212.904C317.232 212.382 317.472 211.672 317.472 210.776V208.024C317.472 207.128 317.232 206.424 316.752 205.912C316.272 205.39 315.589 205.128 314.704 205.128C313.84 205.128 313.163 205.39 312.672 205.912C312.181 206.424 311.936 207.128 311.936 208.024V210.776C311.936 211.672 312.181 212.382 312.672 212.904C313.163 213.416 313.84 213.672 314.704 213.672ZM313.632 202.872L314.736 200.856H316.688L315.152 202.872H313.632Z" fill="#0055FF"/>
<path d="M321.262 215V203.8H325.71C326.392 203.8 327 203.939 327.534 204.216C328.078 204.483 328.499 204.867 328.798 205.368C329.107 205.859 329.262 206.451 329.262 207.144V207.352C329.262 208.046 329.102 208.643 328.782 209.144C328.472 209.646 328.051 210.03 327.518 210.296C326.984 210.563 326.382 210.696 325.71 210.696H322.99V215H321.262ZM322.99 209.128H325.534C326.142 209.128 326.627 208.968 326.99 208.648C327.352 208.328 327.534 207.891 327.534 207.336V207.176C327.534 206.611 327.352 206.168 326.99 205.848C326.627 205.528 326.142 205.368 325.534 205.368H322.99V209.128Z" fill="#0055FF"/>
<path d="M335.11 215.224C333.734 215.224 332.641 214.84 331.83 214.072C331.02 213.294 330.614 212.174 330.614 210.712V208.088C330.614 206.627 331.02 205.512 331.83 204.744C332.641 203.966 333.734 203.576 335.11 203.576C336.486 203.576 337.58 203.966 338.39 204.744C339.212 205.512 339.622 206.627 339.622 208.088V210.712C339.622 212.174 339.212 213.294 338.39 214.072C337.58 214.84 336.486 215.224 335.11 215.224ZM335.11 213.672C335.996 213.672 336.678 213.416 337.158 212.904C337.638 212.382 337.878 211.672 337.878 210.776V208.024C337.878 207.128 337.638 206.424 337.158 205.912C336.678 205.39 335.996 205.128 335.11 205.128C334.246 205.128 333.569 205.39 333.078 205.912C332.588 206.424 332.342 207.128 332.342 208.024V210.776C332.342 211.672 332.588 212.382 333.078 212.904C333.569 213.416 334.246 213.672 335.11 213.672Z" fill="#0055FF"/>
<path d="M341.668 215V203.8H343.396V213.432H348.788V215H341.668Z" fill="#0055FF"/>
<path d="M350.371 215V203.8H352.099V215H350.371Z" fill="#0055FF"/>
<path d="M358.242 215.224C357.399 215.224 356.652 215.075 356.002 214.776C355.351 214.478 354.839 214.04 354.466 213.464C354.103 212.878 353.922 212.168 353.922 211.336V210.936H355.634V211.336C355.634 212.126 355.868 212.718 356.338 213.112C356.818 213.507 357.452 213.704 358.242 213.704C359.042 213.704 359.644 213.539 360.05 213.208C360.455 212.867 360.658 212.43 360.658 211.896C360.658 211.544 360.562 211.256 360.37 211.032C360.178 210.808 359.906 210.632 359.554 210.504C359.202 210.366 358.78 210.238 358.29 210.12L357.698 209.976C356.983 209.806 356.359 209.598 355.826 209.352C355.303 209.096 354.898 208.76 354.61 208.344C354.322 207.928 354.178 207.395 354.178 206.744C354.178 206.083 354.338 205.518 354.658 205.048C354.988 204.579 355.442 204.216 356.018 203.96C356.594 203.704 357.271 203.576 358.05 203.576C358.828 203.576 359.522 203.71 360.13 203.976C360.748 204.243 361.234 204.638 361.586 205.16C361.938 205.683 362.114 206.339 362.114 207.128V207.704H360.402V207.128C360.402 206.648 360.3 206.259 360.098 205.96C359.906 205.662 359.634 205.443 359.282 205.304C358.93 205.166 358.519 205.096 358.05 205.096C357.367 205.096 356.834 205.24 356.45 205.528C356.076 205.806 355.89 206.195 355.89 206.696C355.89 207.038 355.97 207.32 356.13 207.544C356.3 207.758 356.546 207.934 356.866 208.072C357.186 208.211 357.586 208.334 358.066 208.44L358.658 208.584C359.383 208.744 360.023 208.952 360.578 209.208C361.132 209.454 361.57 209.79 361.89 210.216C362.21 210.643 362.37 211.192 362.37 211.864C362.37 212.536 362.199 213.123 361.858 213.624C361.527 214.126 361.052 214.52 360.434 214.808C359.815 215.086 359.084 215.224 358.242 215.224Z" fill="#0055FF"/>
<path d="M364.248 217.176V216.232H364.792C365.229 216.232 365.448 216.014 365.448 215.576V215.064H365.208C364.834 215.064 364.525 214.952 364.28 214.728C364.034 214.504 363.912 214.222 363.912 213.88C363.912 213.507 364.034 213.208 364.28 212.984C364.525 212.75 364.834 212.632 365.208 212.632C365.581 212.632 365.885 212.755 366.12 213C366.365 213.235 366.488 213.544 366.488 213.928V215.592C366.488 216.648 365.96 217.176 364.904 217.176H364.248Z" fill="#0055FF"/>
<path d="M375.945 215.224C375.102 215.224 374.355 215.075 373.705 214.776C373.054 214.478 372.542 214.04 372.169 213.464C371.806 212.878 371.625 212.168 371.625 211.336V210.936H373.337V211.336C373.337 212.126 373.571 212.718 374.041 213.112C374.521 213.507 375.155 213.704 375.945 213.704C376.745 213.704 377.347 213.539 377.753 213.208C378.158 212.867 378.361 212.43 378.361 211.896C378.361 211.544 378.265 211.256 378.073 211.032C377.881 210.808 377.609 210.632 377.257 210.504C376.905 210.366 376.483 210.238 375.993 210.12L375.401 209.976C374.686 209.806 374.062 209.598 373.529 209.352C373.006 209.096 372.601 208.76 372.313 208.344C372.025 207.928 371.881 207.395 371.881 206.744C371.881 206.083 372.041 205.518 372.361 205.048C372.691 204.579 373.145 204.216 373.721 203.96C374.297 203.704 374.974 203.576 375.753 203.576C376.531 203.576 377.225 203.71 377.833 203.976C378.451 204.243 378.937 204.638 379.289 205.16C379.641 205.683 379.817 206.339 379.817 207.128V207.704H378.105V207.128C378.105 206.648 378.003 206.259 377.801 205.96C377.609 205.662 377.337 205.443 376.985 205.304C376.633 205.166 376.222 205.096 375.753 205.096C375.07 205.096 374.537 205.24 374.153 205.528C373.779 205.806 373.593 206.195 373.593 206.696C373.593 207.038 373.673 207.32 373.833 207.544C374.003 207.758 374.249 207.934 374.569 208.072C374.889 208.211 375.289 208.334 375.769 208.44L376.361 208.584C377.086 208.744 377.726 208.952 378.281 209.208C378.835 209.454 379.273 209.79 379.593 210.216C379.913 210.643 380.073 211.192 380.073 211.864C380.073 212.536 379.902 213.123 379.561 213.624C379.23 214.126 378.755 214.52 378.137 214.808C377.518 215.086 376.787 215.224 375.945 215.224Z" fill="#0055FF"/>
<path d="M386.047 215.224C384.681 215.224 383.599 214.84 382.799 214.072C381.999 213.294 381.599 212.174 381.599 210.712V208.088C381.599 206.627 381.999 205.512 382.799 204.744C383.599 203.966 384.681 203.576 386.047 203.576C387.391 203.576 388.425 203.95 389.151 204.696C389.887 205.443 390.255 206.462 390.255 207.752V207.848H388.543V207.704C388.543 206.947 388.335 206.328 387.919 205.848C387.513 205.368 386.889 205.128 386.047 205.128C385.193 205.128 384.527 205.39 384.047 205.912C383.567 206.424 383.327 207.139 383.327 208.056V210.744C383.327 211.651 383.567 212.366 384.047 212.888C384.527 213.411 385.193 213.672 386.047 213.672C386.889 213.672 387.513 213.432 387.919 212.952C388.335 212.462 388.543 211.843 388.543 211.096V210.824H390.255V211.048C390.255 212.339 389.887 213.358 389.151 214.104C388.425 214.851 387.391 215.224 386.047 215.224Z" fill="#0055FF"/>
<path d="M308.245 234V233.124C308.245 232.524 308.349 232.044 308.557 231.684C308.773 231.324 309.069 231.036 309.445 230.82C309.829 230.596 310.285 230.404 310.813 230.244L311.473 230.04C311.833 229.928 312.149 229.792 312.421 229.632C312.693 229.464 312.905 229.256 313.057 229.008C313.209 228.752 313.285 228.44 313.285 228.072V228.024C313.285 227.496 313.101 227.08 312.733 226.776C312.365 226.464 311.893 226.308 311.317 226.308C310.709 226.308 310.213 226.472 309.829 226.8C309.445 227.12 309.253 227.608 309.253 228.264V228.432H308.293V228.276C308.293 227.668 308.425 227.152 308.689 226.728C308.953 226.304 309.313 225.984 309.769 225.768C310.225 225.544 310.741 225.432 311.317 225.432C311.893 225.432 312.401 225.54 312.841 225.756C313.289 225.972 313.637 226.272 313.885 226.656C314.133 227.04 314.257 227.488 314.257 228V228.108C314.257 228.652 314.149 229.104 313.933 229.464C313.717 229.816 313.417 230.104 313.033 230.328C312.657 230.552 312.213 230.744 311.701 230.904L311.053 231.108C310.645 231.236 310.305 231.372 310.033 231.516C309.769 231.652 309.569 231.828 309.433 232.044C309.297 232.26 309.229 232.552 309.229 232.92V233.124H314.185V234H308.245Z" fill="#CACED2"/>
<path d="M318.572 234.168C317.924 234.168 317.36 234.072 316.88 233.88C316.408 233.68 316.04 233.404 315.776 233.052C315.52 232.692 315.392 232.272 315.392 231.792V231.66C315.392 231.244 315.48 230.9 315.656 230.628C315.832 230.356 316.044 230.148 316.292 230.004C316.548 229.852 316.784 229.756 317 229.716V229.56C316.784 229.496 316.56 229.392 316.328 229.248C316.104 229.104 315.916 228.908 315.764 228.66C315.62 228.412 315.548 228.108 315.548 227.748V227.616C315.548 227.16 315.676 226.772 315.932 226.452C316.196 226.124 316.556 225.872 317.012 225.696C317.468 225.52 317.988 225.432 318.572 225.432C319.164 225.432 319.684 225.52 320.132 225.696C320.588 225.872 320.944 226.124 321.2 226.452C321.464 226.772 321.596 227.16 321.596 227.616V227.748C321.596 228.108 321.524 228.412 321.38 228.66C321.236 228.908 321.052 229.104 320.828 229.248C320.604 229.392 320.38 229.496 320.156 229.56V229.716C320.38 229.756 320.616 229.852 320.864 230.004C321.112 230.148 321.32 230.356 321.488 230.628C321.664 230.9 321.752 231.244 321.752 231.66V231.792C321.752 232.272 321.624 232.692 321.368 233.052C321.112 233.404 320.744 233.68 320.264 233.88C319.792 234.072 319.228 234.168 318.572 234.168ZM318.572 233.292C319.252 233.292 319.788 233.16 320.18 232.896C320.58 232.632 320.78 232.248 320.78 231.744V231.648C320.78 231.144 320.584 230.76 320.192 230.496C319.8 230.232 319.26 230.1 318.572 230.1C317.892 230.1 317.356 230.232 316.964 230.496C316.572 230.76 316.376 231.144 316.376 231.648V231.744C316.376 232.248 316.572 232.632 316.964 232.896C317.364 233.16 317.9 233.292 318.572 233.292ZM318.572 229.224C319.212 229.224 319.712 229.104 320.072 228.864C320.44 228.616 320.624 228.268 320.624 227.82V227.724C320.624 227.268 320.44 226.92 320.072 226.68C319.704 226.432 319.204 226.308 318.572 226.308C317.94 226.308 317.44 226.432 317.072 226.68C316.704 226.92 316.52 227.268 316.52 227.724V227.82C316.52 228.268 316.704 228.616 317.072 228.864C317.44 229.104 317.94 229.224 318.572 229.224Z" fill="#CACED2"/>
<path d="M328.878 234.168C328.374 234.168 327.91 234.048 327.486 233.808C327.062 233.568 326.726 233.22 326.478 232.764C326.23 232.308 326.106 231.768 326.106 231.144V230.988C326.106 230.364 326.23 229.828 326.478 229.38C326.726 228.924 327.058 228.576 327.474 228.336C327.898 228.088 328.366 227.964 328.878 227.964C329.286 227.964 329.63 228.02 329.91 228.132C330.198 228.236 330.43 228.372 330.606 228.54C330.782 228.7 330.918 228.872 331.014 229.056H331.182V225.6H332.13V234H331.206V233.028H331.038C330.878 233.324 330.63 233.588 330.294 233.82C329.958 234.052 329.486 234.168 328.878 234.168ZM329.13 233.328C329.738 233.328 330.23 233.136 330.606 232.752C330.99 232.36 331.182 231.816 331.182 231.12V231.012C331.182 230.316 330.99 229.776 330.606 229.392C330.23 229 329.738 228.804 329.13 228.804C328.53 228.804 328.034 229 327.642 229.392C327.258 229.776 327.066 230.316 327.066 231.012V231.12C327.066 231.816 327.258 232.36 327.642 232.752C328.034 233.136 328.53 233.328 329.13 233.328Z" fill="#CACED2"/>
<path d="M336.805 234.168C336.213 234.168 335.693 234.044 335.245 233.796C334.797 233.54 334.449 233.184 334.201 232.728C333.953 232.272 333.829 231.744 333.829 231.144V231C333.829 230.392 333.953 229.86 334.201 229.404C334.449 228.948 334.793 228.596 335.233 228.348C335.673 228.092 336.177 227.964 336.745 227.964C337.297 227.964 337.785 228.084 338.209 228.324C338.633 228.556 338.965 228.892 339.205 229.332C339.445 229.772 339.565 230.288 339.565 230.88V231.312H334.777C334.801 231.944 335.005 232.44 335.389 232.8C335.773 233.152 336.253 233.328 336.829 233.328C337.333 233.328 337.721 233.212 337.993 232.98C338.265 232.748 338.473 232.472 338.617 232.152L339.433 232.548C339.313 232.796 339.145 233.044 338.929 233.292C338.721 233.54 338.445 233.748 338.101 233.916C337.765 234.084 337.333 234.168 336.805 234.168ZM334.789 230.532H338.605C338.573 229.988 338.385 229.564 338.041 229.26C337.705 228.956 337.273 228.804 336.745 228.804C336.209 228.804 335.769 228.956 335.425 229.26C335.081 229.564 334.869 229.988 334.789 230.532Z" fill="#CACED2"/>
<path d="M347.313 234.168C346.313 234.168 345.513 233.88 344.913 233.304C344.321 232.72 344.025 231.872 344.025 230.76V228.84C344.025 227.728 344.321 226.884 344.913 226.308C345.513 225.724 346.313 225.432 347.313 225.432C348.321 225.432 349.121 225.724 349.713 226.308C350.313 226.884 350.613 227.728 350.613 228.84V230.76C350.613 231.872 350.313 232.72 349.713 233.304C349.121 233.88 348.321 234.168 347.313 234.168ZM347.313 233.268C348.041 233.268 348.605 233.052 349.005 232.62C349.405 232.18 349.605 231.572 349.605 230.796V228.804C349.605 228.028 349.405 227.424 349.005 226.992C348.605 226.552 348.041 226.332 347.313 226.332C346.593 226.332 346.033 226.552 345.633 226.992C345.233 227.424 345.033 228.028 345.033 228.804V230.796C345.033 231.572 345.233 232.18 345.633 232.62C346.033 233.052 346.593 233.268 347.313 233.268Z" fill="#CACED2"/>
<path d="M354.572 234.108C354.148 234.108 353.756 234.016 353.396 233.832C353.044 233.648 352.764 233.376 352.556 233.016C352.356 232.648 352.256 232.204 352.256 231.684V228.132H353.204V231.612C353.204 232.196 353.348 232.62 353.636 232.884C353.932 233.148 354.328 233.28 354.824 233.28C355.384 233.28 355.844 233.096 356.204 232.728C356.564 232.36 356.744 231.812 356.744 231.084V228.132H357.692V234H356.768V233.004H356.6C356.472 233.284 356.252 233.54 355.94 233.772C355.628 233.996 355.172 234.108 354.572 234.108Z" fill="#CACED2"/>
<path d="M361.836 234C361.5 234 361.24 233.908 361.056 233.724C360.88 233.54 360.792 233.288 360.792 232.968V228.96H359.028V228.132H360.792V226.044H361.74V228.132H363.66V228.96H361.74V232.824C361.74 233.064 361.856 233.184 362.088 233.184H363.396V234H361.836Z" fill="#CACED2"/>
<path d="M367.439 234.108C367.015 234.108 366.623 234.016 366.263 233.832C365.911 233.648 365.631 233.376 365.423 233.016C365.223 232.648 365.123 232.204 365.123 231.684V228.132H366.071V231.612C366.071 232.196 366.215 232.62 366.503 232.884C366.799 233.148 367.195 233.28 367.691 233.28C368.251 233.28 368.711 233.096 369.071 232.728C369.431 232.36 369.611 231.812 369.611 231.084V228.132H370.559V234H369.635V233.004H369.467C369.339 233.284 369.119 233.54 368.807 233.772C368.495 233.996 368.039 234.108 367.439 234.108Z" fill="#CACED2"/>
<path d="M375.795 234.168C375.187 234.168 374.711 234.052 374.367 233.82C374.031 233.588 373.787 233.324 373.635 233.028H373.467V234H372.543V225.6H373.491V229.056H373.659C373.755 228.872 373.891 228.7 374.067 228.54C374.243 228.372 374.471 228.236 374.751 228.132C375.039 228.02 375.387 227.964 375.795 227.964C376.307 227.964 376.771 228.088 377.187 228.336C377.611 228.576 377.947 228.924 378.195 229.38C378.443 229.828 378.567 230.364 378.567 230.988V231.144C378.567 231.768 378.439 232.308 378.183 232.764C377.935 233.22 377.599 233.568 377.175 233.808C376.759 234.048 376.299 234.168 375.795 234.168ZM375.543 233.328C376.151 233.328 376.643 233.136 377.019 232.752C377.403 232.36 377.595 231.816 377.595 231.12V231.012C377.595 230.316 377.403 229.776 377.019 229.392C376.643 229 376.151 228.804 375.543 228.804C374.943 228.804 374.447 229 374.055 229.392C373.671 229.776 373.479 230.316 373.479 231.012V231.12C373.479 231.816 373.671 232.36 374.055 232.752C374.447 233.136 374.943 233.328 375.543 233.328Z" fill="#CACED2"/>
<path d="M380.266 234V228.132H381.189V228.852H381.357C381.461 228.596 381.621 228.408 381.837 228.288C382.053 228.168 382.337 228.108 382.689 228.108H383.385V228.972H382.63C382.206 228.972 381.862 229.092 381.598 229.332C381.342 229.564 381.214 229.928 381.214 230.424V234H380.266Z" fill="#CACED2"/>
<path d="M387.29 234.168C386.698 234.168 386.174 234.044 385.718 233.796C385.27 233.548 384.918 233.2 384.662 232.752C384.414 232.296 384.29 231.76 384.29 231.144V230.988C384.29 230.38 384.414 229.848 384.662 229.392C384.918 228.936 385.27 228.584 385.718 228.336C386.174 228.088 386.698 227.964 387.29 227.964C387.882 227.964 388.402 228.088 388.85 228.336C389.306 228.584 389.658 228.936 389.906 229.392C390.162 229.848 390.29 230.38 390.29 230.988V231.144C390.29 231.76 390.162 232.296 389.906 232.752C389.658 233.2 389.306 233.548 388.85 233.796C388.402 234.044 387.882 234.168 387.29 234.168ZM387.29 233.316C387.914 233.316 388.41 233.12 388.778 232.728C389.154 232.328 389.342 231.792 389.342 231.12V231.012C389.342 230.34 389.154 229.808 388.778 229.416C388.41 229.016 387.914 228.816 387.29 228.816C386.674 228.816 386.178 229.016 385.802 229.416C385.426 229.808 385.238 230.34 385.238 231.012V231.12C385.238 231.792 385.426 232.328 385.802 232.728C386.178 233.12 386.674 233.316 387.29 233.316Z" fill="#CACED2"/>
<defs>
<linearGradient id="paint0_linear_2372_4411" x1="500.866" y1="41.3729" x2="335.911" y2="402.35" gradientUnits="userSpaceOnUse">
<stop stop-color="#F1BCF2"/>
<stop offset="0.239583" stop-color="#F6CF44"/>
<stop offset="0.510417" stop-color="#72E4FD"/>
<stop offset="0.744792" stop-color="#A8EB87"/>
<stop offset="1" stop-color="#F1BCF2"/>
</linearGradient>
<linearGradient id="paint1_linear_2372_4411" x1="575.905" y1="15.3961" x2="-33.3157" y2="243.536" gradientUnits="userSpaceOnUse">
<stop stop-opacity="0"/>
<stop offset="0.880208"/>
<stop offset="1"/>
</linearGradient>
<radialGradient id="paint2_radial_2372_4411" cx="0" cy="0" r="1" gradientUnits="userSpaceOnUse" gradientTransform="translate(574.447 57.6696) rotate(129.003) scale(226.371 397.916)">
<stop stop-color="#2AA8D0"/>
<stop offset="0.203455" stop-color="#ADF664"/>
<stop offset="0.401848" stop-color="#FABFA5"/>
<stop offset="0.615048" stop-color="#FCF4AB"/>
<stop offset="0.823232" stop-color="#5DF7A4"/>
<stop offset="1" stop-color="#58D0F6"/>
</radialGradient>
<linearGradient id="paint3_linear_2372_4411" x1="589.175" y1="44.1573" x2="368.337" y2="149.746" gradientUnits="userSpaceOnUse">
<stop stop-color="white"/>
<stop offset="0.546875"/>
<stop offset="1" stop-color="white"/>
</linearGradient>
<linearGradient id="paint4_linear_2372_4411" x1="452.523" y1="40.1476" x2="614.941" y2="169.294" gradientUnits="userSpaceOnUse">
<stop stop-color="white" stop-opacity="0"/>
<stop offset="0.494792" stop-color="white"/>
<stop offset="1" stop-color="white" stop-opacity="0"/>
</linearGradient>
</defs>
</svg>
