<svg width="597" height="286" viewBox="0 0 597 286" fill="none" xmlns="http://www.w3.org/2000/svg">
<path d="M14.3837 279.902C7.57411 279.831 2.06216 273.704 2.08206 266.191L2.32409 172.927L3.0515 172.918C17.9236 172.686 30.0548 159.181 30.1012 142.819C30.1476 126.466 18.0788 112.963 3.21177 112.716L2.48453 112.709L2.72655 19.445C2.73551 15.7834 4.04253 12.3416 6.40589 9.75203C8.76181 7.17062 11.8917 5.74367 15.2124 5.74546L409.631 5.96683C413.862 5.97816 417.638 8.12071 419.768 11.7222C421.261 14.2862 423.809 15.8221 426.586 15.8512C426.616 15.8515 426.638 15.8517 426.66 15.852C429.466 15.8566 432.053 14.3168 433.572 11.7348C435.718 8.13686 439.517 5.99116 443.734 5.99409L582.387 6.06885C585.693 6.07049 588.829 7.49709 591.168 10.0864C593.521 12.6759 594.807 16.1202 594.798 19.7818L594.556 113.029L593.822 113.021C586.497 113.027 579.603 116.155 574.408 121.848C569.22 127.534 566.357 135.091 566.331 143.124C566.313 151.173 569.136 158.74 574.292 164.435C579.456 170.138 586.344 173.254 593.661 173.281L594.396 173.289L594.154 266.527C594.145 270.189 592.838 273.631 590.475 276.22C588.119 278.802 584.989 280.229 581.668 280.227L443.023 280.144C438.806 280.149 435.015 277.99 432.886 274.389C431.392 271.825 428.844 270.289 426.067 270.26C426.038 270.259 426.016 270.259 425.994 270.259C423.187 270.254 420.6 271.794 419.081 274.376C416.935 277.974 413.137 280.12 408.92 280.117L14.5013 279.895C14.4646 279.895 14.4279 279.895 14.3838 279.894L14.3837 279.902ZM3.79111 174.551L3.55132 266.198C3.53314 272.845 8.44281 278.257 14.4964 278.262L408.915 278.484C412.639 278.49 415.98 276.612 417.857 273.481C419.652 270.44 422.69 268.624 425.996 268.626C429.324 268.595 432.339 270.449 434.115 273.494C435.97 276.631 439.307 278.546 443.025 278.511L581.67 278.594C584.602 278.592 587.362 277.342 589.444 275.055C591.524 272.776 592.673 269.753 592.677 266.545L592.916 174.939C585.476 174.729 578.524 171.448 573.259 165.628C567.819 159.625 564.839 151.636 564.862 143.141C564.885 134.655 567.907 126.679 573.377 120.683C578.668 114.875 585.645 111.6 593.082 111.405L593.322 19.7993C593.333 16.583 592.197 13.561 590.134 11.2797C588.064 8.99829 585.33 7.72435 582.376 7.73466L443.731 7.65172C440.006 7.64571 436.666 9.52405 434.789 12.6548C432.994 15.6956 429.956 17.5112 426.65 17.5095C423.336 17.5243 420.306 15.6865 418.531 12.6412C416.698 9.5376 413.411 7.66409 409.731 7.62555C409.694 7.62516 409.657 7.62478 409.621 7.62439L15.2098 7.39485C12.2785 7.39714 9.51776 8.64652 7.43674 10.9339C5.3558 13.213 4.20745 16.2359 4.20324 19.444L3.96345 111.091C19.2962 111.771 31.6162 125.838 31.5705 142.826C31.5247 159.823 19.1305 173.895 3.79846 174.551L3.79111 174.551Z" fill="url(#paint0_linear_2295_1142)"/>
<mask id="path-2-inside-1_2295_1142" fill="white">
<path d="M443.26 271.662C441.828 271.663 440.512 270.99 439.906 269.961C436.925 264.858 431.807 261.786 426.231 261.785C420.662 261.784 415.524 264.848 412.495 269.979C411.89 270.995 410.597 271.65 409.15 271.643L14.7315 271.421C12.3365 271.421 10.3974 269.281 10.403 266.642L10.6277 181.345C26.4422 177.412 38.3683 161.744 38.4221 143.271C38.4686 124.806 26.6209 109.136 10.8302 105.186L11.0549 19.8885C11.0604 17.2578 13.015 15.1175 15.41 15.1178L409.828 15.3392C411.283 15.338 412.569 15.9947 413.183 17.0403C416.163 22.1434 421.281 25.2154 426.857 25.2161C432.433 25.2168 437.564 22.1531 440.593 17.0222C441.191 16.0223 442.514 15.3516 443.939 15.3583L582.584 15.4412C584.979 15.4416 586.918 17.5814 586.913 20.2204L586.689 105.386C570.62 109.118 558.495 124.817 558.446 143.571C558.396 162.332 570.442 178.054 586.484 181.809L586.261 266.974C586.255 269.605 584.301 271.745 581.906 271.745L443.26 271.662Z"/>
</mask>
<path d="M443.26 271.662C441.828 271.663 440.512 270.99 439.906 269.961C436.925 264.858 431.807 261.786 426.231 261.785C420.662 261.784 415.524 264.848 412.495 269.979C411.89 270.995 410.597 271.65 409.15 271.643L14.7315 271.421C12.3365 271.421 10.3974 269.281 10.403 266.642L10.6277 181.345C26.4422 177.412 38.3683 161.744 38.4221 143.271C38.4686 124.806 26.6209 109.136 10.8302 105.186L11.0549 19.8885C11.0604 17.2578 13.015 15.1175 15.41 15.1178L409.828 15.3392C411.283 15.338 412.569 15.9947 413.183 17.0403C416.163 22.1434 421.281 25.2154 426.857 25.2161C432.433 25.2168 437.564 22.1531 440.593 17.0222C441.191 16.0223 442.514 15.3516 443.939 15.3583L582.584 15.4412C584.979 15.4416 586.918 17.5814 586.913 20.2204L586.689 105.386C570.62 109.118 558.495 124.817 558.446 143.571C558.396 162.332 570.442 178.054 586.484 181.809L586.261 266.974C586.255 269.605 584.301 271.745 581.906 271.745L443.26 271.662Z" fill="url(#paint1_linear_2295_1142)"/>
<path d="M443.26 271.662L443.261 270.618L443.259 270.618L443.26 271.662ZM439.906 269.961L439.005 270.487L439.007 270.491L439.906 269.961ZM426.231 261.785L426.231 260.741L426.231 260.741L426.231 261.785ZM412.495 269.979L413.392 270.513L413.394 270.51L412.495 269.979ZM409.15 271.643L409.155 270.599L409.15 270.599L409.15 271.643ZM14.7315 271.422L14.7321 270.378L14.7317 270.378L14.7315 271.422ZM10.403 266.642L9.35906 266.64L9.35906 266.64L10.403 266.642ZM10.6277 181.345L10.3757 180.332C9.91141 180.448 9.58504 180.864 9.58377 181.342L10.6277 181.345ZM38.4221 143.271L39.466 143.274L39.466 143.274L38.4221 143.271ZM10.8302 105.186L9.78626 105.183C9.785 105.663 10.1112 106.082 10.5768 106.198L10.8302 105.186ZM11.0549 19.8885L12.0988 19.8913L12.0988 19.8907L11.0549 19.8885ZM15.41 15.1178L15.4106 14.0739L15.4101 14.0739L15.41 15.1178ZM409.828 15.3392L409.828 16.3831L409.829 16.3831L409.828 15.3392ZM413.183 17.0403L414.084 16.5138L414.083 16.5119L413.183 17.0403ZM440.593 17.0222L439.697 16.4862L439.694 16.4915L440.593 17.0222ZM443.939 15.3583L443.934 16.4022L443.938 16.4022L443.939 15.3583ZM582.584 15.4412L582.584 16.4851L582.584 16.4851L582.584 15.4412ZM586.913 20.2204L587.957 20.2231L587.957 20.2226L586.913 20.2204ZM586.689 105.386L586.926 106.402C587.398 106.293 587.732 105.873 587.733 105.388L586.689 105.386ZM558.446 143.571L559.49 143.573L558.446 143.571ZM586.484 181.809L587.528 181.812C587.529 181.326 587.195 180.903 586.722 180.793L586.484 181.809ZM586.261 266.974L585.217 266.971L585.217 266.972L586.261 266.974ZM581.906 271.745L581.905 272.789L581.906 272.789L581.906 271.745ZM443.259 270.618C442.116 270.619 441.186 270.077 440.805 269.431L439.007 270.491C439.838 271.902 441.539 272.708 443.261 272.706L443.259 270.618ZM440.807 269.434C437.654 264.037 432.207 260.742 426.231 260.741L426.231 262.829C431.407 262.83 436.196 265.679 439.005 270.487L440.807 269.434ZM426.231 260.741C420.263 260.741 414.797 264.026 411.596 269.448L413.394 270.51C416.251 265.67 421.062 262.828 426.231 262.829L426.231 260.741ZM411.599 269.445C411.222 270.077 410.317 270.605 409.155 270.599L409.145 272.687C410.877 272.695 412.557 271.914 413.392 270.513L411.599 269.445ZM409.15 270.599L14.7321 270.378L14.7309 272.465L409.149 272.687L409.15 270.599ZM14.7317 270.378C13.0067 270.377 11.4423 268.803 11.4469 266.645L9.35906 266.64C9.35244 269.759 11.6664 272.465 14.7314 272.465L14.7317 270.378ZM11.4469 266.645L11.6716 181.348L9.58377 181.342L9.35906 266.64L11.4469 266.645ZM10.8796 182.358C27.2062 178.298 39.4109 162.174 39.466 143.274L37.3782 143.268C37.3256 161.314 25.6781 176.526 10.3757 180.332L10.8796 182.358ZM39.466 143.274C39.5136 124.38 27.3879 108.252 11.0835 104.173L10.5768 106.198C25.8538 110.021 37.4236 125.232 37.3782 143.268L39.466 143.274ZM11.8741 105.188L12.0988 19.8913L10.011 19.8858L9.78626 105.183L11.8741 105.188ZM12.0988 19.8907C12.1033 17.742 13.68 16.1615 15.4098 16.1618L15.4101 14.0739C12.35 14.0735 10.0175 16.7735 10.011 19.8863L12.0988 19.8907ZM15.4094 16.1618L409.828 16.3831L409.829 14.2953L15.4106 14.0739L15.4094 16.1618ZM409.829 16.3831C410.996 16.3821 411.895 16.9082 412.282 17.5686L414.083 16.5119C413.243 15.0812 411.57 14.2938 409.827 14.2953L409.829 16.3831ZM412.281 17.5668C415.434 22.9647 420.881 26.2593 426.857 26.26L426.857 24.1722C421.681 24.1716 416.893 21.3222 414.084 16.5138L412.281 17.5668ZM426.857 26.26C432.833 26.2607 438.291 22.9748 441.492 17.5529L439.694 16.4915C436.837 21.3314 432.034 24.1728 426.857 24.1722L426.857 26.26ZM441.489 17.5581C441.859 16.9402 442.794 16.3969 443.934 16.4022L443.944 14.3144C442.233 14.3064 440.524 15.1044 439.697 16.4862L441.489 17.5581ZM443.938 16.4022L582.584 16.4851L582.585 14.3973L443.939 14.3144L443.938 16.4022ZM582.584 16.4851C584.309 16.4854 585.873 18.0593 585.869 20.2182L587.957 20.2226C587.963 17.1035 585.649 14.3978 582.584 14.3973L582.584 16.4851ZM585.869 20.2177L585.646 105.383L587.733 105.388L587.957 20.2231L585.869 20.2177ZM586.453 104.369C569.861 108.223 557.452 124.384 557.402 143.568L559.49 143.573C559.538 125.251 571.378 110.014 586.926 106.402L586.453 104.369ZM557.402 143.568C557.351 162.761 569.679 178.947 586.246 182.825L586.722 180.793C571.204 177.16 559.441 161.904 559.49 143.573L557.402 143.568ZM585.44 181.806L585.217 266.971L587.305 266.977L587.528 181.812L585.44 181.806ZM585.217 266.972C585.212 269.121 583.636 270.701 581.906 270.701L581.906 272.789C584.966 272.789 587.298 270.089 587.305 266.976L585.217 266.972ZM581.906 270.701L443.261 270.618L443.26 272.706L581.905 272.789L581.906 270.701Z" fill="black" mask="url(#path-2-inside-1_2295_1142)"/>
<mask id="path-4-inside-2_2295_1142" fill="white">
<path fill-rule="evenodd" clip-rule="evenodd" d="M424.688 261.976C424.656 207.65 424.689 89.5003 425.479 25.2352C425.559 25.2365 425.64 25.2371 425.72 25.2372C431.356 25.2384 436.54 22.1731 439.601 17.0389C440.206 16.0384 441.542 15.3674 442.982 15.3743L583.098 15.4716C585.518 15.4722 587.478 17.6137 587.473 20.2546L587.256 105.479C571.016 109.212 558.765 124.921 558.717 143.688C558.668 162.462 570.843 178.196 587.056 181.956L586.84 267.18C586.834 269.813 584.859 271.954 582.439 271.954L442.323 271.856C440.875 271.857 439.546 271.183 438.933 270.154C435.92 265.047 430.747 261.972 425.112 261.971C424.97 261.971 424.829 261.973 424.688 261.976Z"/>
</mask>
<path fill-rule="evenodd" clip-rule="evenodd" d="M424.688 261.976C424.656 207.65 424.689 89.5003 425.479 25.2352C425.559 25.2365 425.64 25.2371 425.72 25.2372C431.356 25.2384 436.54 22.1731 439.601 17.0389C440.206 16.0384 441.542 15.3674 442.982 15.3743L583.098 15.4716C585.518 15.4722 587.478 17.6137 587.473 20.2546L587.256 105.479C571.016 109.212 558.765 124.921 558.717 143.688C558.668 162.462 570.843 178.196 587.056 181.956L586.84 267.18C586.834 269.813 584.859 271.954 582.439 271.954L442.323 271.856C440.875 271.857 439.546 271.183 438.933 270.154C435.92 265.047 430.747 261.972 425.112 261.971C424.97 261.971 424.829 261.973 424.688 261.976Z" fill="url(#paint2_radial_2295_1142)"/>
<path fill-rule="evenodd" clip-rule="evenodd" d="M424.688 261.976C424.656 207.65 424.689 89.5003 425.479 25.2352C425.559 25.2365 425.64 25.2371 425.72 25.2372C431.356 25.2384 436.54 22.1731 439.601 17.0389C440.206 16.0384 441.542 15.3674 442.982 15.3743L583.098 15.4716C585.518 15.4722 587.478 17.6137 587.473 20.2546L587.256 105.479C571.016 109.212 558.765 124.921 558.717 143.688C558.668 162.462 570.843 178.196 587.056 181.956L586.84 267.18C586.834 269.813 584.859 271.954 582.439 271.954L442.323 271.856C440.875 271.857 439.546 271.183 438.933 270.154C435.92 265.047 430.747 261.972 425.112 261.971C424.97 261.971 424.829 261.973 424.688 261.976Z" fill="url(#paint3_linear_2295_1142)" fill-opacity="0.2" style="mix-blend-mode:difference"/>
<path fill-rule="evenodd" clip-rule="evenodd" d="M424.688 261.976C424.656 207.65 424.689 89.5003 425.479 25.2352C425.559 25.2365 425.64 25.2371 425.72 25.2372C431.356 25.2384 436.54 22.1731 439.601 17.0389C440.206 16.0384 441.542 15.3674 442.982 15.3743L583.098 15.4716C585.518 15.4722 587.478 17.6137 587.473 20.2546L587.256 105.479C571.016 109.212 558.765 124.921 558.717 143.688C558.668 162.462 570.843 178.196 587.056 181.956L586.84 267.18C586.834 269.813 584.859 271.954 582.439 271.954L442.323 271.856C440.875 271.857 439.546 271.183 438.933 270.154C435.92 265.047 430.747 261.972 425.112 261.971C424.97 261.971 424.829 261.973 424.688 261.976Z" fill="url(#paint4_linear_2295_1142)" style="mix-blend-mode:screen"/>
<path d="M424.687 261.976L423.644 261.977L423.644 263.049L424.716 263.02L424.687 261.976ZM425.479 25.2352L425.496 24.1914L424.448 24.1749L424.435 25.2224L425.479 25.2352ZM425.72 25.2372L425.72 26.2811L425.72 26.2811L425.72 25.2372ZM439.601 17.0389L438.707 16.4991L438.704 16.5044L439.601 17.0389ZM442.982 15.3743L442.977 16.4182L442.981 16.4182L442.982 15.3743ZM583.098 15.4716L583.097 16.5156L583.097 16.5156L583.098 15.4716ZM587.473 20.2546L588.517 20.2572L588.517 20.2567L587.473 20.2546ZM587.256 105.479L587.49 106.496L588.298 106.311L588.3 105.482L587.256 105.479ZM558.716 143.688L559.76 143.69L558.716 143.688ZM587.056 181.956L588.1 181.958L588.102 181.127L587.292 180.939L587.056 181.956ZM586.839 267.18L585.796 267.177L585.796 267.178L586.839 267.18ZM582.439 271.954L582.438 272.997L582.438 272.997L582.439 271.954ZM442.323 271.856L442.323 270.812L442.322 270.812L442.323 271.856ZM438.933 270.154L438.034 270.684L438.036 270.687L438.933 270.154ZM425.112 261.971L425.112 263.015L425.112 263.015L425.112 261.971ZM425.731 261.976C425.7 207.648 425.733 89.5051 426.523 25.2481L424.435 25.2224C423.645 89.4956 423.612 207.653 423.644 261.977L425.731 261.976ZM425.463 26.279C425.548 26.2804 425.634 26.281 425.72 26.2811L425.72 24.1932C425.645 24.1932 425.57 24.1926 425.496 24.1914L425.463 26.279ZM425.72 26.2811C431.75 26.2824 437.263 22.9997 440.498 17.5735L438.704 16.5044C435.818 21.3465 430.961 24.1944 425.72 24.1932L425.72 26.2811ZM440.494 17.5787C440.868 16.96 441.818 16.4127 442.977 16.4182L442.987 14.3304C441.265 14.3222 439.543 15.1169 438.707 16.4991L440.494 17.5787ZM442.981 16.4182L583.097 16.5156L583.098 14.4277L442.982 14.3304L442.981 16.4182ZM583.097 16.5156C584.857 16.516 586.433 18.1018 586.429 20.2524L588.517 20.2567C588.523 17.1257 586.179 14.4285 583.098 14.4277L583.097 16.5156ZM586.429 20.2519L586.212 105.476L588.3 105.482L588.517 20.2572L586.429 20.2519ZM587.022 104.462C570.265 108.314 557.722 124.48 557.673 143.685L559.76 143.69C559.807 125.362 571.767 110.111 587.49 106.496L587.022 104.462ZM557.673 143.685C557.623 162.898 570.088 179.092 586.82 182.972L587.292 180.939C571.598 177.299 559.713 162.026 559.76 143.69L557.673 143.685ZM586.012 181.953L585.796 267.177L587.883 267.183L588.1 181.958L586.012 181.953ZM585.796 267.178C585.791 269.318 584.203 270.91 582.439 270.91L582.438 272.997C585.515 272.998 587.877 270.307 587.883 267.182L585.796 267.178ZM582.439 270.91L442.323 270.812L442.322 272.9L582.438 272.997L582.439 270.91ZM442.322 270.812C441.159 270.813 440.215 270.267 439.83 269.62L438.036 270.687C438.876 272.1 440.591 272.902 442.324 272.9L442.322 270.812ZM439.832 269.623C436.644 264.22 431.142 260.928 425.112 260.927L425.112 263.015C430.352 263.016 435.195 265.873 438.034 270.684L439.832 269.623ZM425.112 260.927C424.961 260.927 424.81 260.929 424.659 260.933L424.716 263.02C424.848 263.016 424.98 263.014 425.112 263.015L425.112 260.927Z" fill="black" mask="url(#path-4-inside-2_2295_1142)"/>
<path d="M425.504 269.482C425.079 269.478 424.736 269.106 424.741 268.645L424.761 258.592C424.766 258.131 425.11 257.758 425.534 257.754C425.935 257.758 426.301 258.131 426.304 258.591L426.284 268.644C426.279 269.105 425.936 269.479 425.511 269.483L425.504 269.482ZM425.552 249.376C425.128 249.372 424.785 249 424.79 248.539L424.81 238.486C424.815 238.025 425.158 237.652 425.582 237.648C426.007 237.652 426.35 238.024 426.353 238.485L426.332 248.538C426.327 248.999 425.984 249.372 425.56 249.376L425.552 249.376ZM425.601 229.27C425.177 229.266 424.833 228.894 424.838 228.433L424.859 218.38C424.863 217.919 425.207 217.546 425.631 217.542C426.078 217.546 426.398 217.918 426.401 218.379L426.381 228.432C426.376 228.893 426.033 229.266 425.608 229.27L425.601 229.27ZM425.649 209.164C425.225 209.16 424.882 208.787 424.887 208.327L424.907 198.274C424.912 197.813 425.255 197.439 425.68 197.436C426.111 197.457 426.447 197.812 426.45 198.273L426.429 208.326C426.425 208.787 426.081 209.16 425.657 209.164L425.649 209.164ZM425.698 189.058C425.274 189.054 424.93 188.681 424.935 188.221L424.956 178.167C424.961 177.707 425.304 177.333 425.728 177.329C426.152 177.334 426.496 177.706 426.491 178.167L426.47 188.22C426.465 188.681 426.122 189.054 425.698 189.058ZM425.746 168.952C425.322 168.947 424.979 168.575 424.984 168.114L425.004 158.061C425.009 157.601 425.352 157.227 425.777 157.223C426.201 157.228 426.544 157.6 426.539 158.061L426.519 168.114C426.514 168.574 426.171 168.948 425.746 168.952ZM425.795 148.846C425.371 148.841 425.028 148.469 425.032 148.008L425.053 137.955C425.058 137.494 425.401 137.121 425.825 137.117C426.249 137.122 426.593 137.494 426.588 137.955L426.567 148.008C426.563 148.468 426.219 148.842 425.795 148.846ZM425.844 128.74C425.419 128.735 425.076 128.363 425.081 127.902L425.101 117.849C425.106 117.388 425.45 117.015 425.874 117.011C426.298 117.015 426.641 117.388 426.636 117.848L426.616 127.901C426.611 128.362 426.268 128.736 425.844 128.74ZM425.892 108.633C425.468 108.629 425.125 108.257 425.13 107.796L425.15 97.7429C425.155 97.2822 425.498 96.9088 425.922 96.9049C426.347 96.9093 426.69 97.2815 426.685 97.7423L426.665 107.795C426.66 108.256 426.316 108.629 425.892 108.633ZM425.941 88.5273C425.517 88.5229 425.173 88.1506 425.178 87.6899L425.199 77.6368C425.203 77.1761 425.547 76.8027 425.971 76.7987C426.395 76.8032 426.738 77.1754 426.734 77.6361L426.713 87.6892C426.708 88.15 426.365 88.5234 425.941 88.5273ZM425.989 68.4212C425.565 68.4167 425.222 68.0445 425.227 67.5838L425.247 57.5307C425.252 57.0699 425.595 56.6965 426.02 56.6926C426.444 56.6971 426.787 57.0693 426.782 57.53L426.762 67.5831C426.757 68.0438 426.414 68.4172 425.989 68.4212ZM426.038 48.315C425.614 48.3106 425.271 47.9384 425.275 47.4777L425.296 37.4245C425.301 36.9638 425.644 36.5904 426.068 36.5865C426.492 36.5909 426.836 36.9631 426.831 37.4239L426.81 47.477C426.806 47.9377 426.462 48.3111 426.038 48.315ZM426.087 28.2089C425.662 28.2045 425.319 27.8322 425.324 27.3715L425.344 17.3184C425.349 16.8577 425.693 16.4843 426.117 16.4803C426.541 16.4848 426.884 16.857 426.879 17.3177L426.859 27.3708C426.854 27.8316 426.511 28.205 426.087 28.2089Z" fill="white"/>
<path d="M65.6773 234.122C64.7694 234.122 64.0234 234.039 63.4443 233.877C62.8651 233.715 62.4038 233.479 62.0602 233.175C61.7216 232.871 61.4713 232.493 61.3142 232.037C61.1572 231.585 61.059 231.06 61.0149 230.471C60.9707 229.882 60.951 229.234 60.951 228.523C60.951 227.826 60.9707 227.188 61.0149 226.608C61.059 226.029 61.1621 225.504 61.3339 225.043C61.5056 224.582 61.7559 224.194 62.0897 223.885C62.4234 223.57 62.8749 223.335 63.4541 223.173C64.0283 223.011 64.7645 222.928 65.6577 222.928C66.2221 222.928 66.7963 222.957 67.3706 223.011C67.9448 223.07 68.4601 223.153 68.9116 223.266V225.671C68.627 225.627 68.2638 225.593 67.8172 225.563C67.3706 225.534 66.9583 225.519 66.5706 225.519C66.0749 225.519 65.6822 225.558 65.4025 225.637C65.1178 225.715 64.9068 225.858 64.7645 226.064C64.6221 226.27 64.5289 226.569 64.4798 226.967C64.4307 227.364 64.4062 227.88 64.4062 228.518C64.4062 229.156 64.4307 229.676 64.4798 230.083C64.5289 230.486 64.6271 230.795 64.7645 231.001C64.9068 231.207 65.1277 231.345 65.4221 231.418C65.7215 231.487 66.1092 231.526 66.5951 231.526C66.9338 231.526 67.3215 231.511 67.7534 231.482C68.1853 231.453 68.6024 231.418 69 231.374V233.779C68.5337 233.877 67.9988 233.96 67.4049 234.024C66.8061 234.088 66.2319 234.122 65.6773 234.122Z" fill="white"/>
<path d="M74.973 234.122C74.0061 234.122 73.2061 234.064 72.5681 233.951C71.9301 233.838 71.4246 233.651 71.0565 233.396C70.6884 233.141 70.4185 232.802 70.2467 232.375C70.0749 231.948 69.9669 231.418 69.9179 230.78C69.8688 230.142 69.8442 229.381 69.8442 228.503C69.8442 227.624 69.8688 226.869 69.9179 226.235C69.9669 225.602 70.0749 225.077 70.2467 224.65C70.4185 224.223 70.6884 223.885 71.0565 223.629C71.4246 223.374 71.9301 223.193 72.5681 223.085C73.2061 222.977 74.0061 222.928 74.973 222.928C75.9496 222.928 76.7594 222.982 77.3975 223.085C78.0355 223.193 78.5361 223.374 78.9091 223.629C79.2772 223.885 79.5471 224.223 79.7189 224.65C79.8907 225.077 79.9986 225.602 80.0477 226.235C80.0968 226.869 80.1213 227.624 80.1213 228.503C80.1213 229.381 80.0968 230.142 80.0477 230.78C79.9986 231.418 79.8907 231.948 79.7189 232.375C79.5471 232.802 79.2772 233.141 78.9091 233.396C78.541 233.651 78.0355 233.838 77.3975 233.951C76.7643 234.064 75.9545 234.122 74.973 234.122ZM74.973 231.526C75.4 231.526 75.7288 231.497 75.9742 231.443C76.2147 231.389 76.3864 231.256 76.4846 231.06C76.5828 230.859 76.6466 230.554 76.6662 230.142C76.6858 229.73 76.6956 229.185 76.6956 228.503C76.6956 227.821 76.6858 227.286 76.6662 226.888C76.6466 226.491 76.5828 226.191 76.4846 225.995C76.3864 225.799 76.2147 225.671 75.9742 225.612C75.7337 225.553 75.4 225.529 74.973 225.529C74.546 225.529 74.2172 225.558 73.9816 225.612C73.746 225.666 73.5791 225.799 73.481 225.995C73.3828 226.196 73.319 226.491 73.2994 226.888C73.2797 227.286 73.2699 227.826 73.2699 228.503C73.2699 229.185 73.2797 229.73 73.2994 230.142C73.319 230.554 73.3828 230.859 73.481 231.06C73.5791 231.256 73.746 231.384 73.9816 231.443C74.2221 231.497 74.5509 231.526 74.973 231.526Z" fill="white"/>
<path d="M84.6315 234.122C84.0082 234.122 83.4684 234.039 83.0169 233.867C82.5604 233.695 82.1923 233.406 81.9077 232.984C81.623 232.567 81.4169 231.992 81.2795 231.271C81.147 230.549 81.0782 229.642 81.0782 228.547C81.0782 227.467 81.142 226.564 81.2697 225.833C81.3973 225.102 81.6034 224.528 81.888 224.11C82.1727 223.693 82.5359 223.389 82.9825 223.207C83.4291 223.026 83.9739 222.932 84.6119 222.932C85.0389 222.932 85.4364 222.967 85.8143 223.04C86.1873 223.114 86.5309 223.242 86.845 223.423C87.1591 223.61 87.4241 223.885 87.6548 224.253H87.8266V218.147H91.2523V233.956H87.9934L87.91 232.66H87.7382C87.5272 233.072 87.2524 233.381 86.9186 233.587C86.5849 233.794 86.2217 233.936 85.834 234.014C85.4463 234.083 85.0438 234.122 84.6315 234.122ZM86.1628 231.315C86.6045 231.315 86.9333 231.261 87.1542 231.153C87.375 231.045 87.5321 230.854 87.6352 230.569C87.7186 230.314 87.7726 230.019 87.7971 229.686C87.8168 229.352 87.8266 228.964 87.8266 228.527C87.8266 228.091 87.8168 227.703 87.7971 227.379C87.7775 227.055 87.7235 226.775 87.6352 226.55C87.5517 226.235 87.3947 226.024 87.1689 225.912C86.9432 225.799 86.6094 225.74 86.1677 225.74C85.7849 225.74 85.4806 225.769 85.2548 225.823C85.0291 225.882 84.8622 225.995 84.7542 226.177C84.6463 226.358 84.5825 226.628 84.553 226.996C84.5236 227.364 84.5088 227.875 84.5088 228.527C84.5088 229.18 84.5236 229.696 84.553 230.069C84.5825 230.446 84.6463 230.721 84.7542 230.898C84.8622 231.075 85.0291 231.188 85.2548 231.237C85.4757 231.286 85.7849 231.315 86.1628 231.315Z" fill="white"/>
<path d="M97.9959 234.122C96.975 234.122 96.1309 234.059 95.4634 233.931C94.7959 233.803 94.2708 233.602 93.8782 233.327C93.4855 233.053 93.196 232.694 93.0045 232.253C92.8131 231.811 92.6954 231.291 92.6414 230.677C92.5923 230.069 92.5677 229.357 92.5677 228.552C92.5677 227.575 92.6119 226.731 92.7052 226.02C92.7984 225.313 93.0045 224.729 93.3334 224.277C93.6573 223.826 94.1677 223.487 94.8548 223.266C95.5419 223.045 96.4744 222.937 97.6523 222.937C98.6044 222.937 99.375 223.006 99.9688 223.139C100.563 223.271 101.039 223.477 101.382 223.757C101.731 224.032 101.981 224.39 102.128 224.832C102.276 225.274 102.374 225.799 102.413 226.417C102.457 227.035 102.477 227.747 102.477 228.557V229.386H95.9444C95.9444 229.867 95.964 230.255 96.0082 230.545C96.0523 230.834 96.1652 231.05 96.3468 231.192C96.5333 231.335 96.8131 231.428 97.1959 231.477C97.5787 231.526 98.1136 231.551 98.7909 231.551C99.0609 231.551 99.3799 231.546 99.748 231.531C100.116 231.516 100.504 231.497 100.906 231.467C101.309 231.438 101.691 231.413 102.045 231.384V233.764C101.731 233.838 101.353 233.902 100.906 233.956C100.46 234.014 99.9786 234.054 99.4682 234.083C98.9725 234.108 98.4768 234.122 97.9959 234.122ZM99.2719 227.953V227.615C99.2719 227.104 99.2474 226.697 99.1983 226.402C99.1492 226.103 99.0609 225.882 98.9431 225.73C98.8204 225.583 98.6584 225.485 98.4425 225.445C98.2314 225.401 97.9615 225.382 97.6327 225.382C97.2646 225.382 96.9701 225.406 96.7493 225.455C96.5284 225.504 96.3615 225.607 96.2487 225.764C96.1358 225.921 96.0572 226.147 96.0131 226.447C95.9689 226.746 95.9493 227.134 95.9493 227.62H99.6302L99.2719 227.953Z" fill="white"/>
<path d="M108.646 234.122C107.738 234.122 106.992 234.039 106.413 233.877C105.834 233.715 105.372 233.479 105.029 233.175C104.69 232.871 104.44 232.493 104.283 232.037C104.126 231.585 104.027 231.06 103.983 230.471C103.939 229.882 103.919 229.234 103.919 228.523C103.919 227.826 103.939 227.188 103.983 226.608C104.027 226.029 104.13 225.504 104.302 225.043C104.474 224.582 104.724 224.194 105.058 223.885C105.392 223.57 105.843 223.335 106.422 223.173C106.997 223.011 107.733 222.928 108.626 222.928C109.19 222.928 109.765 222.957 110.339 223.011C110.913 223.07 111.428 223.153 111.88 223.266V225.671C111.595 225.627 111.232 225.593 110.786 225.563C110.339 225.534 109.927 225.519 109.539 225.519C109.043 225.519 108.651 225.558 108.371 225.637C108.086 225.715 107.875 225.858 107.733 226.064C107.591 226.27 107.497 226.569 107.448 226.967C107.399 227.364 107.375 227.88 107.375 228.518C107.375 229.156 107.399 229.676 107.448 230.083C107.497 230.486 107.595 230.795 107.733 231.001C107.875 231.207 108.096 231.345 108.391 231.418C108.69 231.487 109.078 231.526 109.563 231.526C109.902 231.526 110.29 231.511 110.722 231.482C111.154 231.453 111.571 231.418 111.968 231.374V233.779C111.502 233.877 110.967 233.96 110.373 234.024C109.775 234.088 109.2 234.122 108.646 234.122Z" fill="white"/>
<path d="M117.946 234.122C116.979 234.122 116.179 234.064 115.541 233.951C114.903 233.838 114.398 233.651 114.03 233.396C113.662 233.141 113.392 232.802 113.22 232.375C113.048 231.948 112.94 231.418 112.891 230.78C112.842 230.142 112.817 229.381 112.817 228.503C112.817 227.624 112.842 226.869 112.891 226.235C112.94 225.602 113.048 225.077 113.22 224.65C113.392 224.223 113.662 223.885 114.03 223.629C114.398 223.374 114.903 223.193 115.541 223.085C116.179 222.977 116.979 222.928 117.946 222.928C118.923 222.928 119.733 222.982 120.371 223.085C121.009 223.193 121.509 223.374 121.882 223.629C122.25 223.885 122.52 224.223 122.692 224.65C122.864 225.077 122.972 225.602 123.021 226.235C123.07 226.869 123.094 227.624 123.094 228.503C123.094 229.381 123.07 230.142 123.021 230.78C122.972 231.418 122.864 231.948 122.692 232.375C122.52 232.802 122.25 233.141 121.882 233.396C121.514 233.651 121.009 233.838 120.371 233.951C119.733 234.064 118.923 234.122 117.946 234.122ZM117.946 231.526C118.373 231.526 118.702 231.497 118.947 231.443C119.188 231.389 119.36 231.256 119.458 231.06C119.556 230.859 119.62 230.554 119.639 230.142C119.659 229.73 119.669 229.185 119.669 228.503C119.669 227.821 119.659 227.286 119.639 226.888C119.62 226.491 119.556 226.191 119.458 225.995C119.36 225.799 119.188 225.671 118.947 225.612C118.707 225.553 118.373 225.529 117.946 225.529C117.519 225.529 117.19 225.558 116.955 225.612C116.719 225.666 116.552 225.799 116.454 225.995C116.356 226.196 116.292 226.491 116.273 226.888C116.253 227.286 116.243 227.826 116.243 228.503C116.243 229.185 116.253 229.73 116.273 230.142C116.292 230.554 116.356 230.859 116.454 231.06C116.552 231.256 116.719 231.384 116.955 231.443C117.19 231.497 117.519 231.526 117.946 231.526Z" fill="white"/>
<path d="M124.41 233.951V223.099H127.644L127.728 224.42H127.919C128.13 224.051 128.395 223.757 128.704 223.536C129.018 223.315 129.372 223.158 129.769 223.07C130.167 222.977 130.599 222.932 131.065 222.932C131.786 222.932 132.365 223.026 132.797 223.207C133.229 223.394 133.558 223.664 133.789 224.017C134.014 224.37 134.167 224.812 134.245 225.337C134.324 225.862 134.363 226.471 134.363 227.168V233.956H130.937V228.213C130.937 227.634 130.923 227.173 130.893 226.839C130.864 226.505 130.8 226.26 130.702 226.103C130.604 225.946 130.451 225.853 130.245 225.818C130.039 225.784 129.764 225.764 129.426 225.764C129.072 225.764 128.783 225.804 128.562 225.882C128.341 225.961 128.179 226.093 128.071 226.275C127.963 226.461 127.894 226.716 127.86 227.05C127.826 227.384 127.806 227.796 127.806 228.297V233.956H124.41V233.951Z" fill="white"/>
<path d="M148.36 234.706C147.712 234.706 147.158 234.618 146.687 234.441C146.216 234.265 145.833 233.96 145.543 233.529C145.249 233.097 145.033 232.503 144.89 231.752C144.753 231.001 144.684 230.064 144.684 228.93C144.684 227.816 144.748 226.878 144.881 226.123C145.013 225.367 145.224 224.773 145.519 224.336C145.813 223.904 146.191 223.59 146.652 223.399C147.114 223.207 147.678 223.114 148.336 223.114C148.777 223.114 149.19 223.148 149.582 223.222C149.97 223.296 150.328 223.428 150.652 223.62C150.976 223.811 151.256 224.096 151.492 224.478H151.668V218.152H155.217V234.525H151.845L151.757 233.18H151.58C151.359 233.607 151.079 233.926 150.731 234.137C150.387 234.348 150.009 234.495 149.607 234.579C149.2 234.667 148.787 234.706 148.36 234.706ZM149.946 231.801C150.402 231.801 150.741 231.747 150.971 231.634C151.197 231.526 151.364 231.32 151.467 231.03C151.555 230.765 151.609 230.461 151.634 230.118C151.658 229.774 151.668 229.372 151.668 228.915C151.668 228.459 151.658 228.061 151.634 227.727C151.614 227.389 151.555 227.104 151.467 226.869C151.379 226.545 151.217 226.324 150.981 226.206C150.746 226.088 150.402 226.029 149.946 226.029C149.548 226.029 149.234 226.059 148.998 226.118C148.763 226.177 148.591 226.299 148.478 226.481C148.37 226.667 148.297 226.947 148.267 227.33C148.238 227.713 148.223 228.243 148.223 228.915C148.223 229.592 148.238 230.123 148.267 230.515C148.297 230.903 148.365 231.192 148.478 231.374C148.586 231.561 148.763 231.673 148.998 231.727C149.234 231.772 149.548 231.801 149.946 231.801Z" fill="#45E27F"/>
<path d="M156.91 221.004V218.162H160.547V221.004H156.91ZM156.954 234.53V223.291H160.522V234.53H156.954Z" fill="#45E27F"/>
<path d="M166.76 239.07C166.289 239.07 165.803 239.06 165.292 239.035C164.787 239.011 164.311 238.981 163.869 238.937C163.427 238.893 163.059 238.844 162.765 238.785V236.341C163.074 236.355 163.403 236.365 163.756 236.375C164.11 236.385 164.463 236.385 164.826 236.385C165.184 236.385 165.528 236.385 165.852 236.385C166.568 236.385 167.133 236.36 167.535 236.306C167.938 236.257 168.242 236.144 168.438 235.978C168.635 235.811 168.757 235.56 168.802 235.227C168.846 234.898 168.865 234.451 168.865 233.897V233.102H168.689C168.468 233.484 168.198 233.774 167.884 233.97C167.57 234.167 167.221 234.304 166.838 234.378C166.456 234.451 166.043 234.486 165.607 234.486C164.929 234.486 164.36 234.392 163.889 234.211C163.418 234.029 163.035 233.725 162.731 233.308C162.431 232.891 162.21 232.311 162.083 231.58C161.95 230.844 161.886 229.926 161.886 228.827C161.886 227.713 161.955 226.785 162.092 226.049C162.235 225.313 162.451 224.734 162.745 224.307C163.04 223.88 163.423 223.575 163.889 223.394C164.36 223.207 164.924 223.119 165.587 223.119C165.999 223.119 166.407 223.158 166.809 223.242C167.211 223.32 167.584 223.472 167.933 223.693C168.276 223.914 168.561 224.238 168.782 224.665H168.959L169.047 223.301H172.419V233.259C172.419 234.245 172.37 235.104 172.267 235.835C172.163 236.571 171.933 237.175 171.57 237.656C171.211 238.132 170.652 238.49 169.896 238.726C169.14 238.952 168.095 239.07 166.76 239.07ZM167.153 231.6C167.579 231.6 167.903 231.551 168.134 231.457C168.36 231.364 168.527 231.192 168.63 230.942C168.733 230.707 168.797 230.417 168.826 230.073C168.856 229.73 168.87 229.313 168.87 228.827C168.87 228.356 168.86 227.943 168.836 227.595C168.816 227.242 168.743 226.957 168.625 226.736C168.522 226.456 168.355 226.27 168.129 226.177C167.903 226.083 167.575 226.034 167.148 226.034C166.75 226.034 166.436 226.059 166.2 226.113C165.965 226.167 165.793 226.28 165.68 226.456C165.572 226.633 165.499 226.913 165.469 227.296C165.44 227.678 165.425 228.194 165.425 228.837C165.425 229.484 165.44 229.99 165.469 230.358C165.499 230.726 165.567 231.001 165.68 231.183C165.788 231.369 165.965 231.482 166.2 231.536C166.441 231.575 166.76 231.6 167.153 231.6Z" fill="#45E27F"/>
<path d="M174.117 221.004V218.162H177.754V221.004H174.117ZM174.161 234.53V223.291H177.729V234.53H174.161Z" fill="#45E27F"/>
<path d="M180.595 234.53V225.98H178.544V223.291H180.595V220.032H184.163V223.291H186.608V225.98H184.163V234.53H180.595Z" fill="#45E27F"/>
<path d="M189.96 234.707C189.253 234.707 188.659 234.599 188.173 234.378C187.687 234.157 187.324 233.799 187.084 233.298C186.843 232.797 186.72 232.145 186.72 231.34C186.72 230.486 186.819 229.808 187.02 229.303C187.221 228.797 187.574 228.434 188.09 228.213C188.605 227.993 189.331 227.885 190.269 227.885C190.401 227.885 190.588 227.889 190.828 227.894C191.074 227.904 191.349 227.909 191.653 227.919C191.962 227.929 192.271 227.934 192.58 227.943C192.89 227.953 193.169 227.963 193.42 227.978V227.561C193.42 227.134 193.385 226.805 193.322 226.569C193.253 226.334 193.13 226.162 192.949 226.049C192.762 225.941 192.487 225.872 192.124 225.853C191.756 225.828 191.27 225.818 190.671 225.818C190.333 225.818 189.965 225.828 189.557 225.843C189.155 225.858 188.757 225.877 188.365 225.897C187.977 225.916 187.648 225.946 187.383 225.975V223.487C187.987 223.384 188.664 223.301 189.42 223.232C190.176 223.163 190.976 223.134 191.81 223.134C192.752 223.134 193.533 223.193 194.156 223.31C194.779 223.428 195.285 223.61 195.668 223.85C196.05 224.091 196.33 224.395 196.517 224.763C196.698 225.131 196.821 225.563 196.88 226.064C196.939 226.564 196.968 227.129 196.968 227.762V234.549H193.577L193.488 233.229H193.312C193.032 233.671 192.708 234 192.34 234.221C191.972 234.441 191.584 234.579 191.172 234.638C190.76 234.677 190.357 234.707 189.96 234.707ZM191.638 232.194C191.903 232.194 192.134 232.174 192.33 232.14C192.526 232.105 192.698 232.037 192.836 231.943C192.973 231.85 193.091 231.727 193.179 231.58C193.253 231.418 193.312 231.222 193.356 230.986C193.4 230.751 193.425 230.471 193.425 230.147V229.73H191.373C191.005 229.73 190.725 229.754 190.534 229.808C190.342 229.862 190.215 229.975 190.151 230.162C190.087 230.348 190.053 230.628 190.053 231.011C190.053 231.335 190.087 231.585 190.161 231.762C190.235 231.938 190.387 232.056 190.612 232.115C190.838 232.164 191.182 232.194 191.638 232.194Z" fill="#45E27F"/>
<path d="M198.71 234.53V218.157H202.278V234.53H198.71Z" fill="#45E27F"/>
<path d="M143.266 233.995L138.103 230.824V226.422L143.266 223.232V226.677L139.855 228.611L143.266 230.55V233.995Z" fill="#45E27F"/>
<path d="M143.266 223.232V226.677L138.103 229.617V226.422L143.266 223.232Z" fill="#45E27F"/>
<path d="M204.394 223.232L209.557 226.402V230.805L204.394 233.995V230.549L207.805 228.616L204.394 226.677V223.232Z" fill="#45E27F"/>
<path d="M204.394 233.995V230.55L209.562 227.615V230.805L204.394 233.995Z" fill="#45E27F"/>
<path d="M343.023 213.698C341.647 213.698 340.554 213.314 339.743 212.546C338.932 211.767 338.527 210.647 338.527 209.186V206.562C338.527 205.1 338.932 203.986 339.743 203.218C340.554 202.439 341.647 202.05 343.023 202.05C344.399 202.05 345.492 202.439 346.303 203.218C347.124 203.986 347.535 205.1 347.535 206.562V209.186C347.535 210.647 347.124 211.767 346.303 212.546C345.492 213.314 344.399 213.698 343.023 213.698ZM343.023 212.146C343.908 212.146 344.591 211.89 345.071 211.378C345.551 210.855 345.791 210.146 345.791 209.25V206.498C345.791 205.602 345.551 204.898 345.071 204.386C344.591 203.863 343.908 203.602 343.023 203.602C342.159 203.602 341.482 203.863 340.991 204.386C340.5 204.898 340.255 205.602 340.255 206.498V209.25C340.255 210.146 340.5 210.855 340.991 211.378C341.482 211.89 342.159 212.146 343.023 212.146Z" fill="#45E27F"/>
<path d="M349.58 213.474V202.274H352.908L355.948 212.322H356.204V202.274H357.916V213.474H354.588L351.548 203.41H351.292V213.474H349.58Z" fill="#45E27F"/>
<path d="M360.252 213.474V202.274H361.98V211.906H367.372V213.474H360.252Z" fill="#45E27F"/>
<path d="M368.955 213.474V202.274H370.683V213.474H368.955Z" fill="#45E27F"/>
<path d="M373.018 213.474V202.274H376.346L379.386 212.322H379.642V202.274H381.354V213.474H378.026L374.986 203.41H374.73V213.474H373.018Z" fill="#45E27F"/>
<path d="M383.69 213.474V202.274H390.746V203.842H385.418V207.058H390.298V208.626H385.418V211.906H390.826V213.474H383.69Z" fill="#45E27F"/>
<path d="M296.582 232.266V231.39C296.582 230.79 296.686 230.31 296.894 229.95C297.11 229.59 297.406 229.302 297.782 229.086C298.166 228.862 298.622 228.67 299.15 228.51L299.81 228.306C300.17 228.194 300.486 228.058 300.758 227.898C301.03 227.73 301.242 227.522 301.394 227.274C301.546 227.018 301.622 226.706 301.622 226.338V226.29C301.622 225.762 301.438 225.346 301.07 225.042C300.702 224.73 300.23 224.574 299.654 224.574C299.046 224.574 298.55 224.738 298.166 225.066C297.782 225.386 297.59 225.874 297.59 226.53V226.698H296.63V226.542C296.63 225.934 296.762 225.418 297.026 224.994C297.29 224.57 297.65 224.25 298.106 224.034C298.562 223.81 299.078 223.698 299.654 223.698C300.23 223.698 300.738 223.806 301.178 224.022C301.626 224.238 301.974 224.538 302.222 224.922C302.47 225.306 302.594 225.754 302.594 226.266V226.374C302.594 226.918 302.486 227.37 302.27 227.73C302.054 228.082 301.754 228.37 301.37 228.594C300.994 228.818 300.55 229.01 300.038 229.17L299.39 229.374C298.982 229.502 298.642 229.638 298.37 229.782C298.106 229.918 297.906 230.094 297.77 230.31C297.634 230.526 297.566 230.818 297.566 231.186V231.39H302.522V232.266H296.582Z" fill="#CACED2"/>
<path d="M303.812 232.266V231.39C303.812 230.79 303.916 230.31 304.124 229.95C304.34 229.59 304.636 229.302 305.012 229.086C305.396 228.862 305.852 228.67 306.38 228.51L307.041 228.306C307.401 228.194 307.717 228.058 307.989 227.898C308.261 227.73 308.473 227.522 308.625 227.274C308.777 227.018 308.852 226.706 308.852 226.338V226.29C308.852 225.762 308.668 225.346 308.3 225.042C307.932 224.73 307.461 224.574 306.885 224.574C306.277 224.574 305.78 224.738 305.396 225.066C305.012 225.386 304.821 225.874 304.821 226.53V226.698H303.86V226.542C303.86 225.934 303.993 225.418 304.257 224.994C304.521 224.57 304.881 224.25 305.337 224.034C305.793 223.81 306.309 223.698 306.885 223.698C307.461 223.698 307.969 223.806 308.409 224.022C308.857 224.238 309.205 224.538 309.453 224.922C309.701 225.306 309.825 225.754 309.825 226.266V226.374C309.825 226.918 309.716 227.37 309.5 227.73C309.284 228.082 308.984 228.37 308.601 228.594C308.225 228.818 307.781 229.01 307.269 229.17L306.62 229.374C306.212 229.502 305.873 229.638 305.601 229.782C305.337 229.918 305.136 230.094 305 230.31C304.864 230.526 304.797 230.818 304.797 231.186V231.39H309.753V232.266H303.812Z" fill="#CACED2"/>
<path d="M317.173 232.434C316.581 232.434 316.061 232.31 315.613 232.062C315.165 231.806 314.817 231.45 314.569 230.994C314.321 230.538 314.197 230.01 314.197 229.41V229.266C314.197 228.658 314.321 228.126 314.569 227.67C314.817 227.214 315.161 226.862 315.601 226.614C316.041 226.358 316.545 226.23 317.113 226.23C317.665 226.23 318.153 226.35 318.577 226.59C319.001 226.822 319.333 227.158 319.573 227.598C319.813 228.038 319.933 228.554 319.933 229.146V229.578H315.145C315.169 230.21 315.373 230.706 315.757 231.066C316.141 231.418 316.621 231.594 317.197 231.594C317.701 231.594 318.089 231.478 318.361 231.246C318.633 231.014 318.841 230.738 318.985 230.418L319.801 230.814C319.681 231.062 319.513 231.31 319.297 231.558C319.089 231.806 318.813 232.014 318.469 232.182C318.133 232.35 317.701 232.434 317.173 232.434ZM315.157 228.798H318.973C318.941 228.254 318.753 227.83 318.409 227.526C318.073 227.222 317.641 227.07 317.113 227.07C316.577 227.07 316.137 227.222 315.793 227.526C315.449 227.83 315.237 228.254 315.157 228.798Z" fill="#CACED2"/>
<path d="M324.309 232.266V231.39C324.309 230.79 324.413 230.31 324.621 229.95C324.837 229.59 325.133 229.302 325.509 229.086C325.893 228.862 326.349 228.67 326.877 228.51L327.537 228.306C327.897 228.194 328.213 228.058 328.485 227.898C328.757 227.73 328.969 227.522 329.121 227.274C329.273 227.018 329.349 226.706 329.349 226.338V226.29C329.349 225.762 329.165 225.346 328.797 225.042C328.429 224.73 327.957 224.574 327.381 224.574C326.773 224.574 326.277 224.738 325.893 225.066C325.509 225.386 325.317 225.874 325.317 226.53V226.698H324.357V226.542C324.357 225.934 324.489 225.418 324.753 224.994C325.017 224.57 325.377 224.25 325.833 224.034C326.289 223.81 326.805 223.698 327.381 223.698C327.957 223.698 328.465 223.806 328.905 224.022C329.353 224.238 329.701 224.538 329.949 224.922C330.197 225.306 330.321 225.754 330.321 226.266V226.374C330.321 226.918 330.213 227.37 329.997 227.73C329.781 228.082 329.481 228.37 329.097 228.594C328.721 228.818 328.277 229.01 327.765 229.17L327.117 229.374C326.709 229.502 326.369 229.638 326.097 229.782C325.833 229.918 325.633 230.094 325.497 230.31C325.361 230.526 325.293 230.818 325.293 231.186V231.39H330.249V232.266H324.309Z" fill="#CACED2"/>
<path d="M334.492 232.434C333.9 232.434 333.368 232.322 332.896 232.098C332.432 231.874 332.064 231.55 331.792 231.126C331.528 230.702 331.396 230.19 331.396 229.59V229.362H332.368V229.578C332.368 230.194 332.564 230.678 332.956 231.03C333.348 231.382 333.86 231.558 334.492 231.558C335.132 231.558 335.628 231.394 335.98 231.066C336.34 230.73 336.52 230.31 336.52 229.806V229.71C336.52 229.342 336.432 229.046 336.256 228.822C336.08 228.59 335.84 228.422 335.536 228.318C335.24 228.206 334.912 228.15 334.552 228.15H333.184V226.938L336.388 224.886V224.742H331.6V223.866H337.42V225.222L334.288 227.238V227.382H334.888C335.36 227.382 335.792 227.47 336.184 227.646C336.584 227.814 336.9 228.07 337.132 228.414C337.372 228.75 337.492 229.174 337.492 229.686V229.818C337.492 230.346 337.368 230.806 337.12 231.198C336.872 231.59 336.524 231.894 336.076 232.11C335.628 232.326 335.1 232.434 334.492 232.434Z" fill="#CACED2"/>
<path d="M344.66 232.434C344.156 232.434 343.692 232.314 343.268 232.074C342.844 231.834 342.508 231.486 342.26 231.03C342.012 230.574 341.888 230.034 341.888 229.41V229.254C341.888 228.63 342.012 228.094 342.26 227.646C342.508 227.19 342.84 226.842 343.256 226.602C343.68 226.354 344.148 226.23 344.66 226.23C345.068 226.23 345.412 226.286 345.692 226.398C345.98 226.502 346.212 226.638 346.388 226.806C346.564 226.966 346.7 227.138 346.796 227.322H346.964V223.866H347.912V232.266H346.988V231.294H346.82C346.66 231.59 346.412 231.854 346.076 232.086C345.74 232.318 345.268 232.434 344.66 232.434ZM344.912 231.594C345.52 231.594 346.012 231.402 346.388 231.018C346.772 230.626 346.964 230.082 346.964 229.386V229.278C346.964 228.582 346.772 228.042 346.388 227.658C346.012 227.266 345.52 227.07 344.912 227.07C344.312 227.07 343.816 227.266 343.424 227.658C343.04 228.042 342.848 228.582 342.848 229.278V229.386C342.848 230.082 343.04 230.626 343.424 231.018C343.816 231.402 344.312 231.594 344.912 231.594Z" fill="#CACED2"/>
<path d="M352.587 232.434C351.995 232.434 351.475 232.31 351.027 232.062C350.579 231.806 350.231 231.45 349.983 230.994C349.735 230.538 349.611 230.01 349.611 229.41V229.266C349.611 228.658 349.735 228.126 349.983 227.67C350.231 227.214 350.575 226.862 351.015 226.614C351.455 226.358 351.959 226.23 352.527 226.23C353.079 226.23 353.567 226.35 353.991 226.59C354.415 226.822 354.747 227.158 354.987 227.598C355.227 228.038 355.347 228.554 355.347 229.146V229.578H350.559C350.583 230.21 350.787 230.706 351.171 231.066C351.555 231.418 352.035 231.594 352.611 231.594C353.115 231.594 353.503 231.478 353.775 231.246C354.047 231.014 354.255 230.738 354.399 230.418L355.215 230.814C355.095 231.062 354.927 231.31 354.711 231.558C354.503 231.806 354.227 232.014 353.883 232.182C353.547 232.35 353.115 232.434 352.587 232.434ZM350.571 228.798H354.387C354.355 228.254 354.167 227.83 353.823 227.526C353.487 227.222 353.055 227.07 352.527 227.07C351.991 227.07 351.551 227.222 351.207 227.526C350.863 227.83 350.651 228.254 350.571 228.798Z" fill="#CACED2"/>
<path d="M358.931 234.666V233.826H359.747C359.987 233.826 360.107 233.706 360.107 233.466V226.398H361.055V233.634C361.055 233.954 360.963 234.206 360.779 234.39C360.603 234.574 360.347 234.666 360.011 234.666H358.931ZM360.587 225.486C360.379 225.486 360.203 225.418 360.059 225.282C359.923 225.146 359.855 224.974 359.855 224.766C359.855 224.55 359.923 224.374 360.059 224.238C360.203 224.102 360.379 224.034 360.587 224.034C360.795 224.034 360.967 224.102 361.103 224.238C361.239 224.374 361.307 224.55 361.307 224.766C361.307 224.974 361.239 225.146 361.103 225.282C360.967 225.418 360.795 225.486 360.587 225.486Z" fill="#CACED2"/>
<path d="M365.292 232.374C364.868 232.374 364.476 232.282 364.116 232.098C363.764 231.914 363.483 231.642 363.275 231.282C363.075 230.914 362.976 230.47 362.976 229.95V226.398H363.924V229.878C363.924 230.462 364.067 230.886 364.355 231.15C364.651 231.414 365.048 231.546 365.544 231.546C366.104 231.546 366.564 231.362 366.924 230.994C367.284 230.626 367.464 230.078 367.464 229.35V226.398H368.411V232.266H367.488V231.27H367.32C367.192 231.55 366.972 231.806 366.66 232.038C366.348 232.262 365.892 232.374 365.292 232.374Z" fill="#CACED2"/>
<path d="M370.395 232.266V226.398H371.319V227.394H371.487C371.615 227.114 371.831 226.862 372.135 226.638C372.447 226.406 372.903 226.29 373.503 226.29C373.943 226.29 374.335 226.382 374.679 226.566C375.031 226.75 375.311 227.022 375.519 227.382C375.727 227.742 375.831 228.186 375.831 228.714V232.266H374.883V228.786C374.883 228.202 374.735 227.778 374.439 227.514C374.151 227.25 373.759 227.118 373.263 227.118C372.695 227.118 372.231 227.302 371.871 227.67C371.519 228.038 371.343 228.586 371.343 229.314V232.266H370.395Z" fill="#CACED2"/>
<path d="M377.755 232.266V223.866H378.703V227.334H378.871C378.951 227.158 379.071 226.994 379.231 226.842C379.399 226.682 379.611 226.55 379.867 226.446C380.131 226.342 380.463 226.29 380.863 226.29C381.303 226.29 381.695 226.386 382.039 226.578C382.391 226.762 382.671 227.034 382.879 227.394C383.087 227.746 383.191 228.186 383.191 228.714V232.266H382.243V228.786C382.243 228.202 382.095 227.778 381.799 227.514C381.511 227.25 381.119 227.118 380.623 227.118C380.055 227.118 379.591 227.302 379.231 227.67C378.879 228.038 378.703 228.586 378.703 229.314V232.266H377.755Z" fill="#CACED2"/>
<path d="M387.826 232.434C387.234 232.434 386.71 232.31 386.254 232.062C385.806 231.814 385.454 231.466 385.198 231.018C384.95 230.562 384.826 230.026 384.826 229.41V229.254C384.826 228.646 384.95 228.114 385.198 227.658C385.454 227.202 385.806 226.85 386.254 226.602C386.71 226.354 387.234 226.23 387.826 226.23C388.418 226.23 388.938 226.354 389.386 226.602C389.842 226.85 390.194 227.202 390.442 227.658C390.698 228.114 390.826 228.646 390.826 229.254V229.41C390.826 230.026 390.698 230.562 390.442 231.018C390.194 231.466 389.842 231.814 389.386 232.062C388.938 232.31 388.418 232.434 387.826 232.434ZM387.826 231.582C388.45 231.582 388.946 231.386 389.314 230.994C389.69 230.594 389.878 230.058 389.878 229.386V229.278C389.878 228.606 389.69 228.074 389.314 227.682C388.946 227.282 388.45 227.082 387.826 227.082C387.21 227.082 386.714 227.282 386.338 227.682C385.962 228.074 385.774 228.606 385.774 229.278V229.386C385.774 230.058 385.962 230.594 386.338 230.994C386.714 231.386 387.21 231.582 387.826 231.582Z" fill="#CACED2"/>
<defs>
<linearGradient id="paint0_linear_2295_1142" x1="500.866" y1="41.3729" x2="335.911" y2="402.35" gradientUnits="userSpaceOnUse">
<stop stop-color="#F1BCF2"/>
<stop offset="0.239583" stop-color="#F6CF44"/>
<stop offset="0.510417" stop-color="#72E4FD"/>
<stop offset="0.744792" stop-color="#A8EB87"/>
<stop offset="1" stop-color="#F1BCF2"/>
</linearGradient>
<linearGradient id="paint1_linear_2295_1142" x1="575.905" y1="15.396" x2="-33.3157" y2="243.536" gradientUnits="userSpaceOnUse">
<stop stop-opacity="0"/>
<stop offset="0.880208"/>
<stop offset="1"/>
</linearGradient>
<radialGradient id="paint2_radial_2295_1142" cx="0" cy="0" r="1" gradientUnits="userSpaceOnUse" gradientTransform="translate(574.447 57.6698) rotate(129.003) scale(226.371 397.916)">
<stop stop-color="#2AA8D0"/>
<stop offset="0.203455" stop-color="#ADF664"/>
<stop offset="0.401848" stop-color="#FABFA5"/>
<stop offset="0.615048" stop-color="#FCF4AB"/>
<stop offset="0.823232" stop-color="#5DF7A4"/>
<stop offset="1" stop-color="#58D0F6"/>
</radialGradient>
<linearGradient id="paint3_linear_2295_1142" x1="589.175" y1="44.1575" x2="368.337" y2="149.746" gradientUnits="userSpaceOnUse">
<stop stop-color="white"/>
<stop offset="0.546875"/>
<stop offset="1" stop-color="white"/>
</linearGradient>
<linearGradient id="paint4_linear_2295_1142" x1="452.523" y1="40.1478" x2="614.941" y2="169.295" gradientUnits="userSpaceOnUse">
<stop stop-color="white" stop-opacity="0"/>
<stop offset="0.494792" stop-color="white"/>
<stop offset="1" stop-color="white" stop-opacity="0"/>
</linearGradient>
</defs>
</svg>
