<svg width="597" height="286" viewBox="0 0 597 286" fill="none" xmlns="http://www.w3.org/2000/svg">
<path d="M14.3837 279.902C7.57411 279.831 2.06216 273.704 2.08206 266.191L2.32409 172.927L3.0515 172.918C17.9236 172.686 30.0548 159.181 30.1012 142.819C30.1476 126.466 18.0788 112.963 3.21177 112.716L2.48453 112.709L2.72655 19.445C2.73551 15.7834 4.04253 12.3416 6.40589 9.75203C8.76181 7.17062 11.8917 5.74367 15.2124 5.74546L409.631 5.96684C413.862 5.97816 417.638 8.12071 419.768 11.7222C421.261 14.2862 423.809 15.8221 426.586 15.8512C426.616 15.8515 426.638 15.8517 426.66 15.852C429.466 15.8566 432.053 14.3168 433.572 11.7348C435.718 8.13686 439.517 5.99116 443.734 5.99409L582.387 6.06885C585.693 6.07049 588.829 7.49709 591.168 10.0864C593.521 12.6759 594.807 16.1202 594.798 19.7818L594.556 113.029L593.822 113.021C586.497 113.027 579.603 116.155 574.408 121.848C569.22 127.534 566.357 135.091 566.331 143.124C566.313 151.173 569.136 158.74 574.292 164.435C579.456 170.138 586.344 173.254 593.661 173.281L594.396 173.289L594.154 266.527C594.145 270.189 592.838 273.631 590.475 276.22C588.119 278.802 584.989 280.229 581.668 280.227L443.023 280.144C438.806 280.149 435.015 277.99 432.886 274.389C431.392 271.825 428.844 270.289 426.067 270.26C426.038 270.259 426.016 270.259 425.994 270.259C423.187 270.254 420.6 271.794 419.081 274.376C416.935 277.974 413.137 280.12 408.92 280.117L14.5013 279.895C14.4646 279.895 14.4279 279.895 14.3838 279.894L14.3837 279.902ZM3.79111 174.551L3.55132 266.198C3.53314 272.845 8.44281 278.257 14.4964 278.262L408.915 278.484C412.639 278.49 415.98 276.612 417.857 273.481C419.652 270.44 422.69 268.624 425.996 268.626C429.324 268.595 432.339 270.449 434.115 273.494C435.97 276.631 439.307 278.546 443.025 278.511L581.67 278.594C584.602 278.592 587.363 277.342 589.444 275.055C591.524 272.776 592.673 269.753 592.677 266.545L592.916 174.939C585.476 174.729 578.524 171.448 573.259 165.628C567.819 159.625 564.839 151.636 564.862 143.141C564.885 134.655 567.907 126.679 573.377 120.683C578.668 114.875 585.645 111.6 593.082 111.405L593.321 19.7993C593.333 16.583 592.197 13.561 590.134 11.2797C588.064 8.99829 585.33 7.72435 582.376 7.73466L443.731 7.65172C440.006 7.64571 436.666 9.52405 434.789 12.6548C432.994 15.6956 429.956 17.5112 426.65 17.5095C423.336 17.5243 420.306 15.6865 418.531 12.6412C416.698 9.5376 413.411 7.66409 409.731 7.62555C409.694 7.62516 409.657 7.62478 409.621 7.62439L15.2098 7.39485C12.2785 7.39714 9.51776 8.64652 7.43674 10.9339C5.3558 13.213 4.20745 16.2359 4.20324 19.444L3.96345 111.091C19.2962 111.771 31.6162 125.838 31.5705 142.826C31.5247 159.823 19.1305 173.895 3.79846 174.551L3.79111 174.551Z" fill="url(#paint0_linear_2371_2513)"/>
<mask id="path-2-inside-1_2371_2513" fill="white">
<path d="M443.26 271.662C441.828 271.663 440.512 270.99 439.906 269.961C436.925 264.858 431.807 261.786 426.231 261.785C420.662 261.784 415.524 264.848 412.495 269.979C411.89 270.995 410.597 271.65 409.15 271.643L14.7315 271.421C12.3365 271.421 10.3974 269.281 10.403 266.642L10.6277 181.345C26.4422 177.412 38.3683 161.744 38.4221 143.271C38.4686 124.806 26.6209 109.136 10.8302 105.186L11.0549 19.8884C11.0604 17.2576 13.015 15.1174 15.41 15.1177L409.828 15.3391C411.283 15.3378 412.569 15.9946 413.183 17.0401C416.163 22.1433 421.281 25.2153 426.857 25.216C432.433 25.2167 437.564 22.153 440.593 17.022C441.191 16.0222 442.514 15.3515 443.939 15.3582L582.584 15.4411C584.979 15.4415 586.918 17.5813 586.913 20.2203L586.689 105.385C570.62 109.118 558.495 124.817 558.446 143.571C558.396 162.332 570.442 178.053 586.484 181.809L586.261 266.974C586.255 269.605 584.301 271.745 581.906 271.745L443.26 271.662Z"/>
</mask>
<path d="M443.26 271.662C441.828 271.663 440.512 270.99 439.906 269.961C436.925 264.858 431.807 261.786 426.231 261.785C420.662 261.784 415.524 264.848 412.495 269.979C411.89 270.995 410.597 271.65 409.15 271.643L14.7315 271.421C12.3365 271.421 10.3974 269.281 10.403 266.642L10.6277 181.345C26.4422 177.412 38.3683 161.744 38.4221 143.271C38.4686 124.806 26.6209 109.136 10.8302 105.186L11.0549 19.8884C11.0604 17.2576 13.015 15.1174 15.41 15.1177L409.828 15.3391C411.283 15.3378 412.569 15.9946 413.183 17.0401C416.163 22.1433 421.281 25.2153 426.857 25.216C432.433 25.2167 437.564 22.153 440.593 17.022C441.191 16.0222 442.514 15.3515 443.939 15.3582L582.584 15.4411C584.979 15.4415 586.918 17.5813 586.913 20.2203L586.689 105.385C570.62 109.118 558.495 124.817 558.446 143.571C558.396 162.332 570.442 178.053 586.484 181.809L586.261 266.974C586.255 269.605 584.301 271.745 581.906 271.745L443.26 271.662Z" fill="url(#paint1_linear_2371_2513)"/>
<path d="M443.26 271.662L443.261 270.618L443.259 270.618L443.26 271.662ZM439.906 269.961L439.005 270.487L439.007 270.491L439.906 269.961ZM426.231 261.785L426.231 260.741L426.231 260.741L426.231 261.785ZM412.495 269.979L413.392 270.513L413.394 270.51L412.495 269.979ZM409.15 271.643L409.155 270.599L409.15 270.599L409.15 271.643ZM14.7315 271.421L14.7321 270.377L14.7317 270.377L14.7315 271.421ZM10.403 266.642L9.35906 266.639L9.35906 266.64L10.403 266.642ZM10.6277 181.345L10.3757 180.332C9.91141 180.448 9.58504 180.864 9.58377 181.342L10.6277 181.345ZM38.4221 143.271L39.466 143.274L39.466 143.273L38.4221 143.271ZM10.8302 105.186L9.78626 105.183C9.785 105.663 10.1112 106.082 10.5768 106.198L10.8302 105.186ZM11.0549 19.8884L12.0988 19.8912L12.0988 19.8906L11.0549 19.8884ZM15.41 15.1177L15.4106 14.0738L15.4101 14.0738L15.41 15.1177ZM409.828 15.3391L409.828 16.383L409.829 16.383L409.828 15.3391ZM413.183 17.0401L414.084 16.5136L414.083 16.5118L413.183 17.0401ZM440.593 17.022L439.697 16.4861L439.694 16.4913L440.593 17.022ZM443.939 15.3582L443.934 16.4021L443.938 16.4021L443.939 15.3582ZM582.584 15.4411L582.584 16.485L582.584 16.485L582.584 15.4411ZM586.913 20.2203L587.957 20.223L587.957 20.2225L586.913 20.2203ZM586.689 105.385L586.926 106.402C587.398 106.293 587.732 105.873 587.733 105.388L586.689 105.385ZM558.446 143.571L559.49 143.573L558.446 143.571ZM586.484 181.809L587.528 181.812C587.529 181.326 587.195 180.903 586.722 180.792L586.484 181.809ZM586.261 266.974L585.217 266.971L585.217 266.972L586.261 266.974ZM581.906 271.745L581.905 272.789L581.906 272.789L581.906 271.745ZM443.259 270.618C442.116 270.619 441.186 270.077 440.805 269.431L439.007 270.491C439.838 271.902 441.539 272.708 443.261 272.706L443.259 270.618ZM440.807 269.434C437.654 264.036 432.207 260.742 426.231 260.741L426.231 262.829C431.407 262.829 436.196 265.679 439.005 270.487L440.807 269.434ZM426.231 260.741C420.263 260.74 414.797 264.026 411.596 269.448L413.394 270.51C416.251 265.67 421.062 262.828 426.231 262.829L426.231 260.741ZM411.599 269.444C411.222 270.077 410.317 270.604 409.155 270.599L409.145 272.687C410.877 272.695 412.557 271.914 413.392 270.513L411.599 269.444ZM409.15 270.599L14.7321 270.377L14.7309 272.465L409.149 272.687L409.15 270.599ZM14.7317 270.377C13.0067 270.377 11.4423 268.803 11.4469 266.644L9.35906 266.64C9.35244 269.759 11.6664 272.465 14.7314 272.465L14.7317 270.377ZM11.4469 266.645L11.6716 181.348L9.58377 181.342L9.35906 266.639L11.4469 266.645ZM10.8796 182.358C27.2062 178.298 39.4109 162.174 39.466 143.274L37.3782 143.268C37.3256 161.313 25.6781 176.526 10.3757 180.332L10.8796 182.358ZM39.466 143.273C39.5136 124.38 27.3879 108.252 11.0835 104.173L10.5768 106.198C25.8538 110.02 37.4236 125.232 37.3782 143.268L39.466 143.273ZM11.8741 105.188L12.0988 19.8912L10.011 19.8857L9.78626 105.183L11.8741 105.188ZM12.0988 19.8906C12.1033 17.7419 13.68 16.1614 15.4098 16.1616L15.4101 14.0738C12.35 14.0734 10.0175 16.7734 10.011 19.8862L12.0988 19.8906ZM15.4094 16.1616L409.828 16.383L409.829 14.2952L15.4106 14.0738L15.4094 16.1616ZM409.829 16.383C410.996 16.382 411.895 16.9081 412.282 17.5685L414.083 16.5118C413.243 15.081 411.57 14.2937 409.827 14.2952L409.829 16.383ZM412.281 17.5666C415.434 22.9646 420.881 26.2592 426.857 26.2599L426.857 24.1721C421.681 24.1715 416.893 21.322 414.084 16.5136L412.281 17.5666ZM426.857 26.2599C432.833 26.2606 438.291 22.9747 441.492 17.5528L439.694 16.4913C436.837 21.3313 432.034 24.1727 426.857 24.1721L426.857 26.2599ZM441.489 17.558C441.859 16.94 442.794 16.3967 443.934 16.4021L443.944 14.3143C442.233 14.3063 440.524 15.1043 439.697 16.4861L441.489 17.558ZM443.938 16.4021L582.584 16.485L582.585 14.3972L443.939 14.3143L443.938 16.4021ZM582.584 16.485C584.309 16.4853 585.873 18.0591 585.869 20.2181L587.957 20.2225C587.963 17.1034 585.649 14.3976 582.584 14.3972L582.584 16.485ZM585.869 20.2175L585.646 105.383L587.733 105.388L587.957 20.223L585.869 20.2175ZM586.453 104.369C569.861 108.222 557.452 124.384 557.402 143.568L559.49 143.573C559.538 125.251 571.378 110.014 586.926 106.402L586.453 104.369ZM557.402 143.568C557.351 162.761 569.679 178.947 586.246 182.825L586.722 180.792C571.204 177.16 559.441 161.904 559.49 143.573L557.402 143.568ZM585.44 181.806L585.217 266.971L587.305 266.977L587.528 181.812L585.44 181.806ZM585.217 266.972C585.212 269.121 583.636 270.701 581.906 270.701L581.906 272.789C584.966 272.789 587.298 270.089 587.305 266.976L585.217 266.972ZM581.906 270.701L443.261 270.618L443.26 272.706L581.905 272.789L581.906 270.701Z" fill="black" mask="url(#path-2-inside-1_2371_2513)"/>
<mask id="path-4-inside-2_2371_2513" fill="white">
<path fill-rule="evenodd" clip-rule="evenodd" d="M424.687 261.976C424.656 207.65 424.689 89.5004 425.479 25.2353C425.559 25.2366 425.64 25.2372 425.72 25.2372C431.355 25.2385 436.54 22.1732 439.601 17.039C440.205 16.0385 441.541 15.3675 442.982 15.3743L583.098 15.4717C585.518 15.4723 587.478 17.6138 587.473 20.2546L587.256 105.479C571.016 109.213 558.764 124.921 558.716 143.688C558.668 162.462 570.843 178.196 587.056 181.956L586.839 267.18C586.834 269.813 584.859 271.954 582.439 271.954L442.323 271.856C440.875 271.858 439.546 271.183 438.933 270.154C435.92 265.047 430.747 261.972 425.112 261.971C424.97 261.971 424.829 261.973 424.687 261.976Z"/>
</mask>
<path fill-rule="evenodd" clip-rule="evenodd" d="M424.687 261.976C424.656 207.65 424.689 89.5004 425.479 25.2353C425.559 25.2366 425.64 25.2372 425.72 25.2372C431.355 25.2385 436.54 22.1732 439.601 17.039C440.205 16.0385 441.541 15.3675 442.982 15.3743L583.098 15.4717C585.518 15.4723 587.478 17.6138 587.473 20.2546L587.256 105.479C571.016 109.213 558.764 124.921 558.716 143.688C558.668 162.462 570.843 178.196 587.056 181.956L586.839 267.18C586.834 269.813 584.859 271.954 582.439 271.954L442.323 271.856C440.875 271.858 439.546 271.183 438.933 270.154C435.92 265.047 430.747 261.972 425.112 261.971C424.97 261.971 424.829 261.973 424.687 261.976Z" fill="url(#paint2_radial_2371_2513)"/>
<path fill-rule="evenodd" clip-rule="evenodd" d="M424.687 261.976C424.656 207.65 424.689 89.5004 425.479 25.2353C425.559 25.2366 425.64 25.2372 425.72 25.2372C431.355 25.2385 436.54 22.1732 439.601 17.039C440.205 16.0385 441.541 15.3675 442.982 15.3743L583.098 15.4717C585.518 15.4723 587.478 17.6138 587.473 20.2546L587.256 105.479C571.016 109.213 558.764 124.921 558.716 143.688C558.668 162.462 570.843 178.196 587.056 181.956L586.839 267.18C586.834 269.813 584.859 271.954 582.439 271.954L442.323 271.856C440.875 271.858 439.546 271.183 438.933 270.154C435.92 265.047 430.747 261.972 425.112 261.971C424.97 261.971 424.829 261.973 424.687 261.976Z" fill="url(#paint3_linear_2371_2513)" fill-opacity="0.2" style="mix-blend-mode:difference"/>
<path fill-rule="evenodd" clip-rule="evenodd" d="M424.687 261.976C424.656 207.65 424.689 89.5004 425.479 25.2353C425.559 25.2366 425.64 25.2372 425.72 25.2372C431.355 25.2385 436.54 22.1732 439.601 17.039C440.205 16.0385 441.541 15.3675 442.982 15.3743L583.098 15.4717C585.518 15.4723 587.478 17.6138 587.473 20.2546L587.256 105.479C571.016 109.213 558.764 124.921 558.716 143.688C558.668 162.462 570.843 178.196 587.056 181.956L586.839 267.18C586.834 269.813 584.859 271.954 582.439 271.954L442.323 271.856C440.875 271.858 439.546 271.183 438.933 270.154C435.92 265.047 430.747 261.972 425.112 261.971C424.97 261.971 424.829 261.973 424.687 261.976Z" fill="url(#paint4_linear_2371_2513)" style="mix-blend-mode:screen"/>
<path d="M424.687 261.976L423.644 261.977L423.644 263.049L424.716 263.02L424.687 261.976ZM425.479 25.2353L425.496 24.1915L424.448 24.175L424.435 25.2224L425.479 25.2353ZM425.72 25.2372L425.72 26.2811L425.72 26.2811L425.72 25.2372ZM439.601 17.039L438.707 16.4992L438.704 16.5045L439.601 17.039ZM442.982 15.3743L442.977 16.4182L442.981 16.4182L442.982 15.3743ZM583.098 15.4717L583.097 16.5156L583.097 16.5156L583.098 15.4717ZM587.473 20.2546L588.517 20.2573L588.517 20.2568L587.473 20.2546ZM587.256 105.479L587.49 106.496L588.298 106.311L588.3 105.482L587.256 105.479ZM558.716 143.688L559.76 143.69L558.716 143.688ZM587.056 181.956L588.1 181.958L588.102 181.127L587.292 180.939L587.056 181.956ZM586.839 267.18L585.796 267.177L585.796 267.178L586.839 267.18ZM582.439 271.954L582.438 272.997L582.438 272.997L582.439 271.954ZM442.323 271.856L442.323 270.812L442.322 270.812L442.323 271.856ZM438.933 270.154L438.034 270.684L438.036 270.688L438.933 270.154ZM425.112 261.971L425.112 263.015L425.112 263.015L425.112 261.971ZM425.731 261.976C425.7 207.648 425.733 89.5052 426.523 25.2481L424.435 25.2224C423.645 89.4956 423.612 207.653 423.644 261.977L425.731 261.976ZM425.463 26.2791C425.548 26.2804 425.634 26.2811 425.72 26.2811L425.72 24.1933C425.645 24.1933 425.57 24.1927 425.496 24.1915L425.463 26.2791ZM425.72 26.2811C431.75 26.2825 437.263 22.9998 440.498 17.5735L438.704 16.5045C435.818 21.3466 430.961 24.1945 425.72 24.1933L425.72 26.2811ZM440.494 17.5788C440.868 16.96 441.818 16.4127 442.977 16.4182L442.987 14.3304C441.265 14.3223 439.543 15.117 438.707 16.4992L440.494 17.5788ZM442.981 16.4182L583.097 16.5156L583.098 14.4278L442.982 14.3304L442.981 16.4182ZM583.097 16.5156C584.857 16.516 586.433 18.1018 586.429 20.2525L588.517 20.2568C588.523 17.1258 586.179 14.4285 583.098 14.4278L583.097 16.5156ZM586.429 20.252L586.212 105.476L588.3 105.482L588.517 20.2573L586.429 20.252ZM587.022 104.462C570.265 108.314 557.722 124.48 557.673 143.685L559.76 143.69C559.807 125.362 571.767 110.111 587.49 106.496L587.022 104.462ZM557.673 143.685C557.623 162.898 570.088 179.092 586.82 182.973L587.292 180.939C571.598 177.299 559.713 162.026 559.76 143.69L557.673 143.685ZM586.012 181.953L585.796 267.177L587.883 267.183L588.1 181.958L586.012 181.953ZM585.796 267.178C585.791 269.318 584.203 270.91 582.439 270.91L582.438 272.997C585.515 272.998 587.877 270.307 587.883 267.182L585.796 267.178ZM582.439 270.91L442.323 270.812L442.322 272.9L582.438 272.997L582.439 270.91ZM442.322 270.812C441.159 270.813 440.215 270.267 439.83 269.62L438.036 270.688C438.876 272.1 440.591 272.902 442.324 272.9L442.322 270.812ZM439.832 269.623C436.644 264.221 431.142 260.928 425.112 260.927L425.112 263.015C430.352 263.016 435.195 265.873 438.034 270.684L439.832 269.623ZM425.112 260.927C424.961 260.927 424.81 260.929 424.659 260.933L424.716 263.02C424.848 263.016 424.98 263.015 425.112 263.015L425.112 260.927Z" fill="black" mask="url(#path-4-inside-2_2371_2513)"/>
<path d="M425.504 269.483C425.079 269.478 424.736 269.106 424.741 268.645L424.761 258.592C424.766 258.131 425.11 257.758 425.534 257.754C425.935 257.758 426.301 258.131 426.304 258.591L426.284 268.645C426.279 269.105 425.936 269.479 425.511 269.483L425.504 269.483ZM425.552 249.376C425.128 249.372 424.785 249 424.79 248.539L424.81 238.486C424.815 238.025 425.158 237.652 425.582 237.648C426.007 237.652 426.35 238.024 426.353 238.485L426.332 248.538C426.327 248.999 425.984 249.373 425.56 249.376L425.552 249.376ZM425.601 229.27C425.177 229.266 424.833 228.894 424.838 228.433L424.859 218.38C424.863 217.919 425.207 217.546 425.631 217.542C426.078 217.546 426.398 217.918 426.401 218.379L426.381 228.432C426.376 228.893 426.033 229.266 425.608 229.27L425.601 229.27ZM425.649 209.164C425.225 209.16 424.882 208.787 424.887 208.327L424.907 198.274C424.912 197.813 425.255 197.44 425.68 197.436C426.111 197.457 426.447 197.812 426.45 198.273L426.429 208.326C426.425 208.787 426.081 209.16 425.657 209.164L425.649 209.164ZM425.698 189.058C425.274 189.054 424.93 188.681 424.935 188.221L424.956 178.168C424.961 177.707 425.304 177.333 425.728 177.329C426.152 177.334 426.496 177.706 426.491 178.167L426.47 188.22C426.465 188.681 426.122 189.054 425.698 189.058ZM425.746 168.952C425.322 168.947 424.979 168.575 424.984 168.115L425.004 158.061C425.009 157.601 425.352 157.227 425.777 157.223C426.201 157.228 426.544 157.6 426.539 158.061L426.519 168.114C426.514 168.575 426.171 168.948 425.746 168.952ZM425.795 148.846C425.371 148.841 425.028 148.469 425.032 148.008L425.053 137.955C425.058 137.495 425.401 137.121 425.825 137.117C426.249 137.122 426.593 137.494 426.588 137.955L426.567 148.008C426.563 148.468 426.219 148.842 425.795 148.846ZM425.844 128.74C425.419 128.735 425.076 128.363 425.081 127.902L425.101 117.849C425.106 117.388 425.45 117.015 425.874 117.011C426.298 117.016 426.641 117.388 426.636 117.848L426.616 127.902C426.611 128.362 426.268 128.736 425.844 128.74ZM425.892 108.633C425.468 108.629 425.125 108.257 425.13 107.796L425.15 97.743C425.155 97.2823 425.498 96.9089 425.922 96.9049C426.347 96.9094 426.69 97.2816 426.685 97.7423L426.665 107.795C426.66 108.256 426.316 108.63 425.892 108.633ZM425.941 88.5274C425.517 88.5229 425.173 88.1507 425.178 87.69L425.199 77.6369C425.203 77.1761 425.547 76.8027 425.971 76.7988C426.395 76.8032 426.738 77.1755 426.734 77.6362L426.713 87.6893C426.708 88.15 426.365 88.5234 425.941 88.5274ZM425.989 68.4212C425.565 68.4168 425.222 68.0446 425.227 67.5838L425.247 57.5307C425.252 57.07 425.595 56.6966 426.02 56.6927C426.444 56.6971 426.787 57.0693 426.782 57.5301L426.762 67.5832C426.757 68.0439 426.414 68.4173 425.989 68.4212ZM426.038 48.3151C425.614 48.3107 425.271 47.9384 425.275 47.4777L425.296 37.4246C425.301 36.9639 425.644 36.5905 426.068 36.5865C426.492 36.591 426.836 36.9632 426.831 37.4239L426.81 47.477C426.806 47.9378 426.462 48.3112 426.038 48.3151ZM426.087 28.209C425.662 28.2045 425.319 27.8323 425.324 27.3716L425.344 17.3185C425.349 16.8577 425.693 16.4843 426.117 16.4804C426.541 16.4849 426.884 16.8571 426.879 17.3178L426.859 27.3709C426.854 27.8316 426.511 28.205 426.087 28.209Z" fill="white"/>
<path d="M288.842 195.824C287.476 195.824 286.394 195.44 285.594 194.672C284.794 193.893 284.394 192.773 284.394 191.312V188.688C284.394 187.226 284.794 186.112 285.594 185.344C286.394 184.565 287.476 184.176 288.842 184.176C290.186 184.176 291.22 184.549 291.946 185.296C292.682 186.042 293.05 187.061 293.05 188.352V188.448H291.338V188.304C291.338 187.546 291.13 186.928 290.714 186.448C290.308 185.968 289.684 185.728 288.842 185.728C287.988 185.728 287.322 185.989 286.842 186.512C286.362 187.024 286.122 187.738 286.122 188.656V191.344C286.122 192.25 286.362 192.965 286.842 193.488C287.322 194.01 287.988 194.272 288.842 194.272C289.684 194.272 290.308 194.032 290.714 193.552C291.13 193.061 291.338 192.442 291.338 191.696V191.424H293.05V191.648C293.05 192.938 292.682 193.957 291.946 194.704C291.22 195.45 290.186 195.824 288.842 195.824Z" fill="#8800FF"/>
<path d="M294.021 195.6L297.221 184.4H300.261L303.445 195.6H301.669L300.933 192.96H296.549L295.813 195.6H294.021ZM296.981 191.36H300.501L298.869 185.472H298.613L296.981 191.36Z" fill="#8800FF"/>
<path d="M304.963 195.6V184.4H308.211L310.659 194.448H310.915L313.363 184.4H316.611V195.6H314.931V185.616H314.675L312.243 195.6H309.331L306.899 185.616H306.643V195.6H304.963Z" fill="#8800FF"/>
<path d="M318.947 195.6V184.4H323.395C324.078 184.4 324.686 184.538 325.219 184.816C325.763 185.082 326.185 185.466 326.483 185.968C326.793 186.458 326.947 187.05 326.947 187.744V187.952C326.947 188.645 326.787 189.242 326.467 189.744C326.158 190.245 325.737 190.629 325.203 190.896C324.67 191.162 324.067 191.296 323.395 191.296H320.675V195.6H318.947ZM320.675 189.728H323.219C323.827 189.728 324.313 189.568 324.675 189.248C325.038 188.928 325.219 188.49 325.219 187.936V187.776C325.219 187.21 325.038 186.768 324.675 186.448C324.313 186.128 323.827 185.968 323.219 185.968H320.675V189.728Z" fill="#8800FF"/>
<path d="M332.78 195.824C331.894 195.824 331.132 195.664 330.492 195.344C329.862 195.024 329.372 194.565 329.02 193.968C328.678 193.36 328.508 192.624 328.508 191.76V184.4H330.252V191.808C330.252 192.597 330.47 193.205 330.908 193.632C331.345 194.058 331.969 194.272 332.78 194.272C333.59 194.272 334.214 194.058 334.652 193.632C335.089 193.205 335.308 192.597 335.308 191.808V184.4H337.036V191.76C337.036 192.624 336.865 193.36 336.524 193.968C336.182 194.565 335.692 195.024 335.052 195.344C334.412 195.664 333.654 195.824 332.78 195.824Z" fill="#8800FF"/>
<path d="M343.099 195.824C342.256 195.824 341.51 195.674 340.859 195.376C340.208 195.077 339.696 194.64 339.323 194.064C338.96 193.477 338.779 192.768 338.779 191.936V191.536H340.491V191.936C340.491 192.725 340.726 193.317 341.195 193.712C341.675 194.106 342.31 194.304 343.099 194.304C343.899 194.304 344.502 194.138 344.907 193.808C345.312 193.466 345.515 193.029 345.515 192.496C345.515 192.144 345.419 191.856 345.227 191.632C345.035 191.408 344.763 191.232 344.411 191.104C344.059 190.965 343.638 190.837 343.147 190.72L342.555 190.576C341.84 190.405 341.216 190.197 340.683 189.952C340.16 189.696 339.755 189.36 339.467 188.944C339.179 188.528 339.035 187.994 339.035 187.344C339.035 186.682 339.195 186.117 339.515 185.648C339.846 185.178 340.299 184.816 340.875 184.56C341.451 184.304 342.128 184.176 342.907 184.176C343.686 184.176 344.379 184.309 344.987 184.576C345.606 184.842 346.091 185.237 346.443 185.76C346.795 186.282 346.971 186.938 346.971 187.728V188.304H345.259V187.728C345.259 187.248 345.158 186.858 344.955 186.56C344.763 186.261 344.491 186.042 344.139 185.904C343.787 185.765 343.376 185.696 342.907 185.696C342.224 185.696 341.691 185.84 341.307 186.128C340.934 186.405 340.747 186.794 340.747 187.296C340.747 187.637 340.827 187.92 340.987 188.144C341.158 188.357 341.403 188.533 341.723 188.672C342.043 188.81 342.443 188.933 342.923 189.04L343.515 189.184C344.24 189.344 344.88 189.552 345.435 189.808C345.99 190.053 346.427 190.389 346.747 190.816C347.067 191.242 347.227 191.792 347.227 192.464C347.227 193.136 347.056 193.722 346.715 194.224C346.384 194.725 345.91 195.12 345.291 195.408C344.672 195.685 343.942 195.824 343.099 195.824Z" fill="#8800FF"/>
<path d="M353.119 195.6V184.4H357.567C358.25 184.4 358.858 184.538 359.391 184.816C359.935 185.082 360.356 185.466 360.655 185.968C360.964 186.458 361.119 187.05 361.119 187.744V187.952C361.119 188.645 360.959 189.242 360.639 189.744C360.33 190.245 359.908 190.629 359.375 190.896C358.842 191.162 358.239 191.296 357.567 191.296H354.847V195.6H353.119ZM354.847 189.728H357.391C357.999 189.728 358.484 189.568 358.847 189.248C359.21 188.928 359.391 188.49 359.391 187.936V187.776C359.391 187.21 359.21 186.768 358.847 186.448C358.484 186.128 357.999 185.968 357.391 185.968H354.847V189.728Z" fill="#8800FF"/>
<path d="M361.053 195.6L364.253 184.4H367.293L370.477 195.6H368.701L367.965 192.96H363.581L362.845 195.6H361.053ZM364.013 191.36H367.533L365.901 185.472H365.645L364.013 191.36Z" fill="#8800FF"/>
<path d="M371.994 195.6V184.4H376.698C377.391 184.4 377.999 184.522 378.522 184.768C379.055 185.002 379.466 185.344 379.754 185.792C380.053 186.24 380.202 186.773 380.202 187.392V187.568C380.202 188.272 380.031 188.837 379.69 189.264C379.359 189.68 378.954 189.973 378.474 190.144V190.4C378.879 190.421 379.205 190.56 379.45 190.816C379.695 191.061 379.818 191.418 379.818 191.888V195.6H378.074V192.128C378.074 191.84 377.999 191.61 377.85 191.44C377.701 191.269 377.461 191.184 377.13 191.184H373.722V195.6H371.994ZM373.722 189.616H376.506C377.125 189.616 377.605 189.461 377.946 189.152C378.287 188.832 378.458 188.4 378.458 187.856V187.728C378.458 187.184 378.287 186.757 377.946 186.448C377.615 186.128 377.135 185.968 376.506 185.968H373.722V189.616Z" fill="#8800FF"/>
<path d="M382.103 195.6V184.4H383.831V189.056H384.087L388.263 184.4H390.519L385.463 189.92L390.695 195.6H388.375L384.087 190.848H383.831V195.6H382.103Z" fill="#8800FF"/>
<path d="M291.894 213.824C290.774 213.824 289.884 213.514 289.222 212.896C288.561 212.266 288.23 211.381 288.23 210.24V209.28H289.958V210.24C289.958 210.837 290.118 211.317 290.438 211.68C290.769 212.032 291.244 212.208 291.862 212.208C292.46 212.208 292.902 212.032 293.19 211.68C293.478 211.328 293.622 210.848 293.622 210.24V203.968H291.67V202.4H296.598V203.968H295.35V210.24C295.35 211.402 295.046 212.293 294.438 212.912C293.841 213.52 292.993 213.824 291.894 213.824Z" fill="#8800FF"/>
<path d="M302.405 213.824C301.029 213.824 299.936 213.44 299.125 212.672C298.315 211.893 297.909 210.773 297.909 209.312V206.688C297.909 205.226 298.315 204.112 299.125 203.344C299.936 202.565 301.029 202.176 302.405 202.176C303.781 202.176 304.875 202.565 305.685 203.344C306.507 204.112 306.917 205.226 306.917 206.688V209.312C306.917 210.773 306.507 211.893 305.685 212.672C304.875 213.44 303.781 213.824 302.405 213.824ZM302.405 212.272C303.291 212.272 303.973 212.016 304.453 211.504C304.933 210.981 305.173 210.272 305.173 209.376V206.624C305.173 205.728 304.933 205.024 304.453 204.512C303.973 203.989 303.291 203.728 302.405 203.728C301.541 203.728 300.864 203.989 300.373 204.512C299.883 205.024 299.637 205.728 299.637 206.624V209.376C299.637 210.272 299.883 210.981 300.373 211.504C300.864 212.016 301.541 212.272 302.405 212.272Z" fill="#8800FF"/>
<path d="M308.963 213.6V202.4H310.691V213.6H308.963Z" fill="#8800FF"/>
<path d="M313.025 213.6V202.4H316.353L319.393 212.448H319.649V202.4H321.361V213.6H318.033L314.993 203.536H314.737V213.6H313.025Z" fill="#8800FF"/>
<path d="M325.985 213.6L322.865 202.4H324.657L327.377 212.512H327.585L330.289 202.4H332.081L328.977 213.6H325.985Z" fill="#8800FF"/>
<path d="M333.603 213.6V202.4H335.331V213.6H333.603Z" fill="#8800FF"/>
<path d="M337.666 213.6V202.4H339.394V212.032H344.786V213.6H337.666Z" fill="#8800FF"/>
<path d="M346.369 213.6V202.4H348.097V212.032H353.489V213.6H346.369Z" fill="#8800FF"/>
<path d="M355.072 213.6V202.4H362.128V203.968H356.8V207.184H361.68V208.752H356.8V212.032H362.208V213.6H355.072Z" fill="#8800FF"/>
<path d="M364.074 215.776V214.832H364.618C365.055 214.832 365.274 214.613 365.274 214.176V213.664H365.034C364.66 213.664 364.351 213.552 364.106 213.328C363.86 213.104 363.738 212.821 363.738 212.48C363.738 212.106 363.86 211.808 364.106 211.584C364.351 211.349 364.66 211.232 365.034 211.232C365.407 211.232 365.711 211.354 365.946 211.6C366.191 211.834 366.314 212.144 366.314 212.528V214.192C366.314 215.248 365.786 215.776 364.73 215.776H364.074Z" fill="#8800FF"/>
<path d="M375.771 213.824C374.928 213.824 374.181 213.674 373.531 213.376C372.88 213.077 372.368 212.64 371.995 212.064C371.632 211.477 371.451 210.768 371.451 209.936V209.536H373.163V209.936C373.163 210.725 373.397 211.317 373.867 211.712C374.347 212.106 374.981 212.304 375.771 212.304C376.571 212.304 377.173 212.138 377.579 211.808C377.984 211.466 378.187 211.029 378.187 210.496C378.187 210.144 378.091 209.856 377.899 209.632C377.707 209.408 377.435 209.232 377.083 209.104C376.731 208.965 376.309 208.837 375.819 208.72L375.227 208.576C374.512 208.405 373.888 208.197 373.355 207.952C372.832 207.696 372.427 207.36 372.139 206.944C371.851 206.528 371.707 205.994 371.707 205.344C371.707 204.682 371.867 204.117 372.187 203.648C372.517 203.178 372.971 202.816 373.547 202.56C374.123 202.304 374.8 202.176 375.579 202.176C376.357 202.176 377.051 202.309 377.659 202.576C378.277 202.842 378.763 203.237 379.115 203.76C379.467 204.282 379.643 204.938 379.643 205.728V206.304H377.931V205.728C377.931 205.248 377.829 204.858 377.627 204.56C377.435 204.261 377.163 204.042 376.811 203.904C376.459 203.765 376.048 203.696 375.579 203.696C374.896 203.696 374.363 203.84 373.979 204.128C373.605 204.405 373.419 204.794 373.419 205.296C373.419 205.637 373.499 205.92 373.659 206.144C373.829 206.357 374.075 206.533 374.395 206.672C374.715 206.81 375.115 206.933 375.595 207.04L376.187 207.184C376.912 207.344 377.552 207.552 378.107 207.808C378.661 208.053 379.099 208.389 379.419 208.816C379.739 209.242 379.899 209.792 379.899 210.464C379.899 211.136 379.728 211.722 379.387 212.224C379.056 212.725 378.581 213.12 377.963 213.408C377.344 213.685 376.613 213.824 375.771 213.824Z" fill="#8800FF"/>
<path d="M385.873 213.824C384.507 213.824 383.425 213.44 382.625 212.672C381.825 211.893 381.425 210.773 381.425 209.312V206.688C381.425 205.226 381.825 204.112 382.625 203.344C383.425 202.565 384.507 202.176 385.873 202.176C387.217 202.176 388.251 202.549 388.977 203.296C389.713 204.042 390.081 205.061 390.081 206.352V206.448H388.369V206.304C388.369 205.546 388.161 204.928 387.745 204.448C387.339 203.968 386.715 203.728 385.873 203.728C385.019 203.728 384.353 203.989 383.873 204.512C383.393 205.024 383.153 205.738 383.153 206.656V209.344C383.153 210.25 383.393 210.965 383.873 211.488C384.353 212.01 385.019 212.272 385.873 212.272C386.715 212.272 387.339 212.032 387.745 211.552C388.161 211.061 388.369 210.442 388.369 209.696V209.424H390.081V209.648C390.081 210.938 389.713 211.957 388.977 212.704C388.251 213.45 387.217 213.824 385.873 213.824Z" fill="#8800FF"/>
<path d="M315.114 231.6V230.724C315.114 230.124 315.218 229.644 315.426 229.284C315.642 228.924 315.938 228.636 316.314 228.42C316.698 228.196 317.154 228.004 317.682 227.844L318.342 227.64C318.702 227.528 319.018 227.392 319.29 227.232C319.562 227.064 319.774 226.856 319.926 226.608C320.078 226.352 320.154 226.04 320.154 225.672V225.624C320.154 225.096 319.97 224.68 319.602 224.376C319.234 224.064 318.762 223.908 318.186 223.908C317.578 223.908 317.082 224.072 316.698 224.4C316.314 224.72 316.122 225.208 316.122 225.864V226.032H315.162V225.876C315.162 225.268 315.294 224.752 315.558 224.328C315.822 223.904 316.182 223.584 316.638 223.368C317.094 223.144 317.61 223.032 318.186 223.032C318.762 223.032 319.27 223.14 319.71 223.356C320.158 223.572 320.506 223.872 320.754 224.256C321.002 224.64 321.126 225.088 321.126 225.6V225.708C321.126 226.252 321.018 226.704 320.802 227.064C320.586 227.416 320.286 227.704 319.902 227.928C319.526 228.152 319.082 228.344 318.57 228.504L317.922 228.708C317.514 228.836 317.174 228.972 316.902 229.116C316.638 229.252 316.438 229.428 316.302 229.644C316.166 229.86 316.098 230.152 316.098 230.52V230.724H321.054V231.6H315.114Z" fill="#CACED2"/>
<path d="M325.429 231.768C324.853 231.768 324.337 231.656 323.881 231.432C323.433 231.2 323.077 230.872 322.813 230.448C322.557 230.024 322.429 229.52 322.429 228.936V226.008C322.429 225.376 322.553 224.84 322.801 224.4C323.049 223.96 323.397 223.624 323.845 223.392C324.301 223.152 324.841 223.032 325.465 223.032C326.081 223.032 326.605 223.144 327.037 223.368C327.477 223.584 327.809 223.884 328.033 224.268C328.265 224.644 328.381 225.08 328.381 225.576H327.397C327.397 225.08 327.237 224.68 326.917 224.376C326.597 224.064 326.113 223.908 325.465 223.908C324.809 223.908 324.301 224.088 323.941 224.448C323.581 224.8 323.401 225.288 323.401 225.912V227.076H323.569C323.713 226.836 323.953 226.616 324.289 226.416C324.625 226.208 325.093 226.104 325.693 226.104C326.197 226.104 326.657 226.216 327.073 226.44C327.489 226.664 327.821 226.98 328.069 227.388C328.317 227.796 328.441 228.28 328.441 228.84V228.984C328.441 229.552 328.309 230.044 328.045 230.46C327.789 230.876 327.433 231.2 326.977 231.432C326.521 231.656 326.005 231.768 325.429 231.768ZM325.429 230.892C326.037 230.892 326.529 230.72 326.905 230.376C327.281 230.032 327.469 229.564 327.469 228.972V228.876C327.469 228.476 327.381 228.132 327.205 227.844C327.037 227.556 326.801 227.332 326.497 227.172C326.193 227.004 325.837 226.92 325.429 226.92C325.029 226.92 324.677 227.004 324.373 227.172C324.069 227.332 323.829 227.556 323.653 227.844C323.485 228.132 323.401 228.476 323.401 228.876V228.972C323.401 229.564 323.589 230.032 323.965 230.376C324.341 230.72 324.829 230.892 325.429 230.892Z" fill="#CACED2"/>
<path d="M335.619 231.768C335.115 231.768 334.651 231.648 334.227 231.408C333.803 231.168 333.467 230.82 333.219 230.364C332.971 229.908 332.847 229.368 332.847 228.744V228.588C332.847 227.964 332.971 227.428 333.219 226.98C333.467 226.524 333.799 226.176 334.215 225.936C334.639 225.688 335.107 225.564 335.619 225.564C336.027 225.564 336.371 225.62 336.651 225.732C336.939 225.836 337.171 225.972 337.347 226.14C337.523 226.3 337.659 226.472 337.755 226.656H337.923V223.2H338.871V231.6H337.947V230.628H337.779C337.619 230.924 337.371 231.188 337.035 231.42C336.699 231.652 336.227 231.768 335.619 231.768ZM335.871 230.928C336.479 230.928 336.971 230.736 337.347 230.352C337.731 229.96 337.923 229.416 337.923 228.72V228.612C337.923 227.916 337.731 227.376 337.347 226.992C336.971 226.6 336.479 226.404 335.871 226.404C335.271 226.404 334.775 226.6 334.383 226.992C333.999 227.376 333.807 227.916 333.807 228.612V228.72C333.807 229.416 333.999 229.96 334.383 230.352C334.775 230.736 335.271 230.928 335.871 230.928Z" fill="#CACED2"/>
<path d="M343.545 231.768C342.953 231.768 342.433 231.644 341.985 231.396C341.537 231.14 341.189 230.784 340.941 230.328C340.693 229.872 340.569 229.344 340.569 228.744V228.6C340.569 227.992 340.693 227.46 340.941 227.004C341.189 226.548 341.533 226.196 341.973 225.948C342.413 225.692 342.917 225.564 343.485 225.564C344.037 225.564 344.525 225.684 344.949 225.924C345.373 226.156 345.705 226.492 345.945 226.932C346.185 227.372 346.305 227.888 346.305 228.48V228.912H341.517C341.541 229.544 341.745 230.04 342.129 230.4C342.513 230.752 342.993 230.928 343.569 230.928C344.073 230.928 344.461 230.812 344.733 230.58C345.005 230.348 345.213 230.072 345.357 229.752L346.173 230.148C346.053 230.396 345.885 230.644 345.669 230.892C345.461 231.14 345.185 231.348 344.841 231.516C344.505 231.684 344.073 231.768 343.545 231.768ZM341.529 228.132H345.345C345.313 227.588 345.125 227.164 344.781 226.86C344.445 226.556 344.013 226.404 343.485 226.404C342.949 226.404 342.509 226.556 342.165 226.86C341.821 227.164 341.609 227.588 341.529 228.132Z" fill="#CACED2"/>
<path d="M352.841 231.768C352.433 231.768 352.061 231.696 351.725 231.552C351.389 231.408 351.125 231.2 350.933 230.928C350.741 230.656 350.645 230.324 350.645 229.932C350.645 229.532 350.741 229.204 350.933 228.948C351.125 228.684 351.389 228.488 351.725 228.36C352.061 228.224 352.437 228.156 352.853 228.156H354.833V227.724C354.833 227.308 354.709 226.98 354.461 226.74C354.221 226.5 353.861 226.38 353.381 226.38C352.909 226.38 352.541 226.496 352.277 226.728C352.013 226.952 351.833 227.256 351.737 227.64L350.849 227.352C350.945 227.024 351.097 226.728 351.305 226.464C351.513 226.192 351.789 225.976 352.133 225.816C352.485 225.648 352.905 225.564 353.393 225.564C354.145 225.564 354.729 225.76 355.145 226.152C355.561 226.536 355.769 227.08 355.769 227.784V230.436C355.769 230.676 355.881 230.796 356.105 230.796H356.645V231.6H355.817C355.553 231.6 355.341 231.528 355.181 231.384C355.021 231.232 354.941 231.032 354.941 230.784V230.724H354.797C354.709 230.876 354.589 231.036 354.437 231.204C354.293 231.364 354.093 231.496 353.837 231.6C353.581 231.712 353.249 231.768 352.841 231.768ZM352.949 230.952C353.509 230.952 353.961 230.788 354.305 230.46C354.657 230.124 354.833 229.656 354.833 229.056V228.924H352.889C352.513 228.924 352.201 229.008 351.953 229.176C351.713 229.336 351.593 229.58 351.593 229.908C351.593 230.236 351.717 230.492 351.965 230.676C352.221 230.86 352.549 230.952 352.949 230.952Z" fill="#CACED2"/>
<path d="M357.491 228.696V228.528C357.491 227.912 357.615 227.384 357.863 226.944C358.111 226.504 358.447 226.164 358.871 225.924C359.295 225.684 359.759 225.564 360.263 225.564C360.879 225.564 361.351 225.684 361.679 225.924C362.015 226.156 362.263 226.416 362.423 226.704H362.591V225.732H363.491V232.968C363.491 233.288 363.403 233.54 363.227 233.724C363.051 233.908 362.795 234 362.459 234H358.475V233.16H362.207C362.447 233.16 362.567 233.04 362.567 232.8V230.568H362.399C362.303 230.744 362.167 230.916 361.991 231.084C361.815 231.252 361.587 231.392 361.307 231.504C361.027 231.608 360.679 231.66 360.263 231.66C359.759 231.66 359.295 231.54 358.871 231.3C358.447 231.06 358.111 230.72 357.863 230.28C357.615 229.832 357.491 229.304 357.491 228.696ZM360.515 230.82C361.123 230.82 361.615 230.628 361.991 230.244C362.375 229.86 362.567 229.332 362.567 228.66V228.564C362.567 227.884 362.375 227.356 361.991 226.98C361.615 226.596 361.123 226.404 360.515 226.404C359.915 226.404 359.419 226.596 359.027 226.98C358.643 227.356 358.451 227.884 358.451 228.564V228.66C358.451 229.332 358.643 229.86 359.027 230.244C359.419 230.628 359.915 230.82 360.515 230.82Z" fill="#CACED2"/>
<path d="M368.19 231.768C367.598 231.768 367.074 231.644 366.618 231.396C366.17 231.148 365.818 230.8 365.562 230.352C365.314 229.896 365.19 229.36 365.19 228.744V228.588C365.19 227.98 365.314 227.448 365.562 226.992C365.818 226.536 366.17 226.184 366.618 225.936C367.074 225.688 367.598 225.564 368.19 225.564C368.782 225.564 369.302 225.688 369.75 225.936C370.206 226.184 370.558 226.536 370.806 226.992C371.062 227.448 371.19 227.98 371.19 228.588V228.744C371.19 229.36 371.062 229.896 370.806 230.352C370.558 230.8 370.206 231.148 369.75 231.396C369.302 231.644 368.782 231.768 368.19 231.768ZM368.19 230.916C368.814 230.916 369.31 230.72 369.678 230.328C370.054 229.928 370.242 229.392 370.242 228.72V228.612C370.242 227.94 370.054 227.408 369.678 227.016C369.31 226.616 368.814 226.416 368.19 226.416C367.574 226.416 367.078 226.616 366.702 227.016C366.326 227.408 366.138 227.94 366.138 228.612V228.72C366.138 229.392 366.326 229.928 366.702 230.328C367.078 230.72 367.574 230.916 368.19 230.916Z" fill="#CACED2"/>
<path d="M375.26 231.768C374.532 231.768 373.916 231.6 373.412 231.264C372.916 230.928 372.616 230.396 372.512 229.668L373.412 229.464C373.476 229.848 373.596 230.152 373.772 230.376C373.948 230.592 374.164 230.748 374.42 230.844C374.684 230.932 374.964 230.976 375.26 230.976C375.7 230.976 376.048 230.888 376.304 230.712C376.56 230.536 376.688 230.3 376.688 230.004C376.688 229.7 376.564 229.488 376.316 229.368C376.076 229.24 375.744 229.136 375.32 229.056L374.828 228.972C374.452 228.908 374.108 228.808 373.796 228.672C373.484 228.536 373.236 228.352 373.052 228.12C372.868 227.888 372.776 227.596 372.776 227.244C372.776 226.716 372.98 226.304 373.388 226.008C373.796 225.712 374.336 225.564 375.008 225.564C375.672 225.564 376.208 225.716 376.616 226.02C377.032 226.316 377.3 226.736 377.42 227.28L376.532 227.508C376.46 227.084 376.288 226.788 376.016 226.62C375.744 226.444 375.408 226.356 375.008 226.356C374.608 226.356 374.292 226.432 374.06 226.584C373.828 226.728 373.712 226.944 373.712 227.232C373.712 227.512 373.82 227.72 374.036 227.856C374.26 227.984 374.556 228.08 374.924 228.144L375.416 228.228C375.832 228.3 376.204 228.4 376.532 228.528C376.868 228.648 377.132 228.824 377.324 229.056C377.524 229.288 377.624 229.592 377.624 229.968C377.624 230.544 377.408 230.988 376.976 231.3C376.552 231.612 375.98 231.768 375.26 231.768Z" fill="#CACED2"/>
<path d="M381.255 231.6C380.919 231.6 380.659 231.508 380.475 231.324C380.299 231.14 380.211 230.888 380.211 230.568V226.56H378.447V225.732H380.211V223.644H381.159V225.732H383.079V226.56H381.159V230.424C381.159 230.664 381.275 230.784 381.507 230.784H382.815V231.6H381.255Z" fill="#CACED2"/>
<path d="M387.116 231.768C386.524 231.768 386 231.644 385.544 231.396C385.096 231.148 384.744 230.8 384.488 230.352C384.24 229.896 384.116 229.36 384.116 228.744V228.588C384.116 227.98 384.24 227.448 384.488 226.992C384.744 226.536 385.096 226.184 385.544 225.936C386 225.688 386.524 225.564 387.116 225.564C387.708 225.564 388.228 225.688 388.676 225.936C389.132 226.184 389.484 226.536 389.732 226.992C389.988 227.448 390.116 227.98 390.116 228.588V228.744C390.116 229.36 389.988 229.896 389.732 230.352C389.484 230.8 389.132 231.148 388.676 231.396C388.228 231.644 387.708 231.768 387.116 231.768ZM387.116 230.916C387.74 230.916 388.236 230.72 388.604 230.328C388.98 229.928 389.168 229.392 389.168 228.72V228.612C389.168 227.94 388.98 227.408 388.604 227.016C388.236 226.616 387.74 226.416 387.116 226.416C386.5 226.416 386.004 226.616 385.628 227.016C385.252 227.408 385.064 227.94 385.064 228.612V228.72C385.064 229.392 385.252 229.928 385.628 230.328C386.004 230.72 386.5 230.916 387.116 230.916Z" fill="#CACED2"/>
<path d="M60.7007 233.529C59.7977 233.529 59.0557 233.448 58.4797 233.292C57.9036 233.135 57.4448 232.907 57.1031 232.612C56.7663 232.318 56.5173 231.952 56.3611 231.51C56.2049 231.072 56.1073 230.564 56.0633 229.994C56.0194 229.424 55.9999 228.796 55.9999 228.107C55.9999 227.432 56.0194 226.815 56.0633 226.254C56.1073 225.693 56.2098 225.185 56.3806 224.738C56.5515 224.291 56.8004 223.916 57.1324 223.617C57.4643 223.312 57.9134 223.084 58.4894 222.928C59.0606 222.771 59.7928 222.69 60.6812 222.69C61.2426 222.69 61.8137 222.718 62.3848 222.771C62.956 222.828 63.4685 222.909 63.9176 223.018V225.346C63.6345 225.304 63.2732 225.27 62.829 225.242C62.3848 225.213 61.9748 225.199 61.5891 225.199C61.0961 225.199 60.7056 225.237 60.4274 225.313C60.1442 225.389 59.9343 225.527 59.7928 225.726C59.6512 225.926 59.5585 226.216 59.5096 226.601C59.4608 226.986 59.4364 227.485 59.4364 228.102C59.4364 228.72 59.4608 229.224 59.5096 229.618C59.5585 230.008 59.6561 230.307 59.7928 230.507C59.9343 230.707 60.154 230.84 60.4469 230.911C60.7447 230.977 61.1303 231.015 61.6136 231.015C61.9504 231.015 62.336 231.001 62.7656 230.973C63.1951 230.944 63.6101 230.911 64.0055 230.868V233.197C63.5417 233.292 63.0096 233.372 62.419 233.434C61.8283 233.496 61.2523 233.529 60.7007 233.529Z" fill="white"/>
<path d="M69.9463 233.529C68.9847 233.529 68.189 233.472 67.5544 233.363C66.9198 233.254 66.417 233.073 66.0509 232.826C65.6848 232.579 65.4163 232.251 65.2455 231.838C65.0746 231.424 64.9673 230.911 64.9184 230.293C64.8696 229.675 64.8452 228.939 64.8452 228.088C64.8452 227.238 64.8696 226.506 64.9184 225.893C64.9673 225.28 65.0746 224.771 65.2455 224.358C65.4163 223.944 65.6848 223.617 66.0509 223.369C66.417 223.122 66.9198 222.947 67.5544 222.842C68.189 222.737 68.9847 222.69 69.9463 222.69C70.9178 222.69 71.7232 222.742 72.3578 222.842C72.9924 222.947 73.4903 223.122 73.8613 223.369C74.2274 223.617 74.4959 223.944 74.6667 224.358C74.8376 224.771 74.9449 225.28 74.9938 225.893C75.0426 226.506 75.067 227.238 75.067 228.088C75.067 228.939 75.0426 229.675 74.9938 230.293C74.9449 230.911 74.8376 231.424 74.6667 231.838C74.4959 232.251 74.2274 232.579 73.8613 232.826C73.4952 233.073 72.9924 233.254 72.3578 233.363C71.7232 233.472 70.9178 233.529 69.9463 233.529ZM69.9463 231.015C70.371 231.015 70.6981 230.987 70.9422 230.935C71.1813 230.882 71.3522 230.754 71.4498 230.564C71.5475 230.369 71.6109 230.075 71.6304 229.675C71.65 229.276 71.6597 228.749 71.6597 228.088C71.6597 227.428 71.65 226.91 71.6304 226.525C71.6109 226.14 71.5475 225.85 71.4498 225.66C71.3522 225.47 71.1813 225.346 70.9422 225.289C70.703 225.232 70.371 225.209 69.9463 225.209C69.5217 225.209 69.1946 225.237 68.9603 225.289C68.726 225.342 68.56 225.47 68.4624 225.66C68.3647 225.855 68.3013 226.14 68.2818 226.525C68.2622 226.91 68.2525 227.432 68.2525 228.088C68.2525 228.744 68.2622 229.276 68.2818 229.675C68.3013 230.075 68.3647 230.369 68.4624 230.564C68.56 230.754 68.726 230.878 68.9603 230.935C69.1946 230.987 69.5217 231.015 69.9463 231.015Z" fill="white"/>
<path d="M79.5529 233.529C78.9329 233.529 78.396 233.449 77.9469 233.282C77.4929 233.116 77.1268 232.836 76.8436 232.427C76.5605 232.023 76.3555 231.467 76.2188 230.768C76.087 230.07 76.0187 229.191 76.0187 228.131C76.0187 227.086 76.0821 226.211 76.2091 225.503C76.336 224.795 76.541 224.239 76.8241 223.835C77.1072 223.431 77.4685 223.137 77.9127 222.961C78.3569 222.785 78.8987 222.695 79.5333 222.695C79.958 222.695 80.3534 222.728 80.7293 222.799C81.1003 222.871 81.442 222.994 81.7544 223.17C82.0668 223.351 82.3304 223.617 82.5598 223.973H82.7307V218.062H86.1379V233.368H82.9015L82.8185 232.113H82.6477C82.4378 232.512 82.1644 232.812 81.8325 233.011C81.5006 233.211 81.1393 233.349 80.7537 233.425C80.3583 233.491 79.9629 233.529 79.5529 233.529ZM81.0759 230.811C81.5152 230.811 81.8423 230.759 82.0619 230.654C82.2816 230.55 82.4378 230.364 82.5403 230.089C82.6233 229.842 82.677 229.557 82.7014 229.233C82.7209 228.91 82.7307 228.535 82.7307 228.112C82.7307 227.684 82.7209 227.314 82.7014 227C82.6819 226.686 82.6282 226.416 82.5403 226.197C82.4573 225.893 82.3011 225.688 82.0766 225.579C81.852 225.47 81.5201 225.413 81.0807 225.413C80.7 225.413 80.3973 225.441 80.1728 225.494C79.9483 225.551 79.7823 225.66 79.6749 225.836C79.5675 226.007 79.504 226.273 79.4747 226.629C79.4455 226.986 79.4308 227.48 79.4308 228.112C79.4308 228.744 79.4455 229.243 79.4747 229.604C79.504 229.97 79.5675 230.236 79.6749 230.407C79.7823 230.578 79.9483 230.688 80.1728 230.735C80.3925 230.787 80.6951 230.811 81.0759 230.811Z" fill="white"/>
<path d="M92.8403 233.53C91.825 233.53 90.9853 233.468 90.3215 233.344C89.6576 233.221 89.1353 233.026 88.7448 232.76C88.3591 232.494 88.0662 232.147 87.8759 231.719C87.6855 231.291 87.5683 230.788 87.5146 230.194C87.4658 229.604 87.4414 228.915 87.4414 228.136C87.4414 227.19 87.4853 226.373 87.5781 225.684C87.6708 225 87.8759 224.434 88.2029 223.997C88.5251 223.56 89.0328 223.232 89.7162 223.018C90.3996 222.804 91.327 222.7 92.4986 222.7C93.4456 222.7 94.212 222.766 94.8026 222.895C95.3933 223.023 95.8668 223.222 96.2085 223.493C96.5551 223.759 96.804 224.106 96.9505 224.534C97.0969 224.962 97.1945 225.47 97.2336 226.069C97.2775 226.668 97.2971 227.357 97.2971 228.141V228.944H90.8096C90.8096 229.41 90.8291 229.785 90.8731 230.065C90.917 230.346 91.0293 230.555 91.2099 230.693C91.3954 230.83 91.6736 230.921 92.0544 230.968C92.4351 231.016 92.9672 231.039 93.6409 231.039C93.9093 231.039 94.2266 231.035 94.5927 231.02C94.9588 231.006 95.3445 230.987 95.7448 230.959C96.145 230.93 96.5258 230.906 96.8773 230.878V233.183C96.5648 233.254 96.189 233.316 95.7448 233.368C95.3005 233.425 94.8222 233.463 94.3145 233.492C93.8166 233.515 93.3236 233.53 92.8403 233.53ZM94.1095 227.556V227.228C94.1095 226.734 94.0851 226.34 94.0362 226.055C93.9874 225.765 93.8996 225.551 93.7824 225.404C93.6604 225.261 93.4993 225.166 93.2845 225.128C93.0746 225.085 92.8061 225.066 92.4791 225.066C92.113 225.066 91.8201 225.09 91.6004 225.137C91.3807 225.185 91.2148 225.285 91.1025 225.437C90.9902 225.589 90.9121 225.808 90.8682 226.097C90.8243 226.387 90.8047 226.763 90.8047 227.233H94.4658L94.1095 227.556Z" fill="white"/>
<path d="M103.438 233.529C102.535 233.529 101.793 233.448 101.217 233.292C100.641 233.135 100.182 232.907 99.8401 232.612C99.5033 232.318 99.2544 231.952 99.0982 231.51C98.942 231.072 98.8443 230.564 98.8004 229.994C98.7565 229.424 98.7369 228.796 98.7369 228.107C98.7369 227.432 98.7565 226.815 98.8004 226.254C98.8443 225.693 98.9468 225.185 99.1177 224.738C99.2885 224.291 99.5375 223.916 99.8694 223.617C100.201 223.312 100.65 223.084 101.226 222.928C101.798 222.771 102.53 222.69 103.418 222.69C103.98 222.69 104.551 222.718 105.122 222.771C105.693 222.828 106.206 222.909 106.655 223.018V225.346C106.372 225.304 106.01 225.27 105.566 225.242C105.122 225.213 104.712 225.199 104.326 225.199C103.833 225.199 103.443 225.237 103.164 225.313C102.881 225.389 102.671 225.527 102.53 225.726C102.388 225.926 102.296 226.216 102.247 226.601C102.198 226.986 102.173 227.485 102.173 228.102C102.173 228.72 102.198 229.224 102.247 229.618C102.296 230.008 102.393 230.307 102.53 230.507C102.671 230.707 102.891 230.84 103.184 230.911C103.482 230.977 103.867 231.015 104.351 231.015C104.687 231.015 105.073 231.001 105.503 230.973C105.932 230.944 106.347 230.911 106.743 230.868V233.197C106.279 233.292 105.747 233.372 105.156 233.434C104.565 233.496 103.989 233.529 103.438 233.529Z" fill="white"/>
<path d="M112.683 233.529C111.722 233.529 110.926 233.472 110.291 233.363C109.657 233.254 109.154 233.073 108.788 232.826C108.422 232.579 108.153 232.251 107.982 231.838C107.812 231.424 107.704 230.911 107.655 230.293C107.607 229.675 107.582 228.939 107.582 228.088C107.582 227.238 107.607 226.506 107.655 225.893C107.704 225.28 107.812 224.771 107.982 224.358C108.153 223.944 108.422 223.617 108.788 223.369C109.154 223.122 109.657 222.947 110.291 222.842C110.926 222.737 111.722 222.69 112.683 222.69C113.655 222.69 114.46 222.742 115.095 222.842C115.729 222.947 116.227 223.122 116.598 223.369C116.964 223.617 117.233 223.944 117.404 224.358C117.574 224.771 117.682 225.28 117.731 225.893C117.78 226.506 117.804 227.238 117.804 228.088C117.804 228.939 117.78 229.675 117.731 230.293C117.682 230.911 117.574 231.424 117.404 231.838C117.233 232.251 116.964 232.579 116.598 232.826C116.232 233.073 115.729 233.254 115.095 233.363C114.46 233.472 113.66 233.529 112.683 233.529ZM112.683 231.015C113.108 231.015 113.435 230.987 113.679 230.935C113.918 230.882 114.089 230.754 114.187 230.564C114.284 230.369 114.348 230.075 114.367 229.675C114.387 229.276 114.397 228.749 114.397 228.088C114.397 227.428 114.387 226.91 114.367 226.525C114.348 226.14 114.284 225.85 114.187 225.66C114.089 225.47 113.918 225.346 113.679 225.289C113.44 225.232 113.108 225.209 112.683 225.209C112.259 225.209 111.932 225.237 111.697 225.289C111.463 225.342 111.297 225.47 111.199 225.66C111.102 225.855 111.038 226.14 111.019 226.525C110.999 226.91 110.989 227.432 110.989 228.088C110.989 228.744 110.999 229.276 111.019 229.675C111.038 230.075 111.102 230.369 111.199 230.564C111.297 230.754 111.463 230.878 111.697 230.935C111.932 230.987 112.263 231.015 112.683 231.015Z" fill="white"/>
<path d="M119.117 233.364V222.857H122.334L122.417 224.135H122.607C122.817 223.779 123.081 223.494 123.388 223.28C123.701 223.066 124.052 222.914 124.448 222.828C124.843 222.738 125.273 222.695 125.736 222.695C126.454 222.695 127.03 222.786 127.459 222.961C127.889 223.142 128.216 223.403 128.446 223.746C128.67 224.088 128.821 224.515 128.9 225.024C128.978 225.532 129.017 226.122 129.017 226.796V233.368H125.614V227.808C125.614 227.248 125.6 226.801 125.57 226.478C125.541 226.155 125.478 225.917 125.38 225.765C125.282 225.613 125.131 225.523 124.926 225.489C124.721 225.456 124.448 225.437 124.111 225.437C123.759 225.437 123.471 225.475 123.252 225.551C123.032 225.627 122.871 225.756 122.764 225.931C122.656 226.112 122.588 226.359 122.554 226.682C122.519 227.005 122.5 227.405 122.5 227.889V233.368H119.117V233.364Z" fill="white"/>
<path d="M137.872 233.411L132.736 230.341V226.079L137.872 222.99V226.326L134.479 228.198L137.872 230.075V233.411Z" fill="#8800FF"/>
<path d="M137.872 222.985V226.321L132.737 229.167V226.074L137.872 222.985Z" fill="#8800FF"/>
<path d="M211.865 222.985L217 226.055V230.317L211.865 233.406V230.07L215.257 228.198L211.865 226.321V222.985Z" fill="#8800FF"/>
<path d="M211.865 233.411V230.07L217 227.229V230.317L211.865 233.411Z" fill="#8800FF"/>
<path d="M144.276 234C143.808 234 143.3 233.986 142.753 233.957C142.206 233.929 141.674 233.895 141.152 233.853C140.635 233.81 140.171 233.762 139.761 233.705V231.296C139.995 231.31 140.259 231.334 140.561 231.363C140.859 231.391 141.172 231.41 141.494 231.429C141.816 231.443 142.124 231.453 142.426 231.462C142.729 231.472 142.997 231.472 143.246 231.472C143.93 231.472 144.423 231.448 144.72 231.405C145.018 231.363 145.209 231.272 145.287 231.139C145.37 231.006 145.409 230.821 145.409 230.597C145.409 230.369 145.384 230.208 145.331 230.108C145.277 230.008 145.179 229.937 145.023 229.894C144.872 229.851 144.613 229.809 144.247 229.766L141.64 229.447C141.015 229.362 140.537 229.181 140.22 228.906C139.898 228.63 139.683 228.255 139.575 227.775C139.468 227.3 139.414 226.744 139.414 226.102C139.414 225.351 139.531 224.757 139.766 224.325C140 223.892 140.327 223.565 140.737 223.346C141.152 223.127 141.65 222.98 142.226 222.909C142.802 222.837 143.417 222.804 144.076 222.804C144.545 222.804 145.023 222.818 145.521 222.847C146.019 222.875 146.492 222.913 146.942 222.966C147.395 223.013 147.766 223.07 148.059 223.127V225.513C147.693 225.484 147.313 225.456 146.912 225.427C146.512 225.399 146.126 225.38 145.765 225.361C145.399 225.347 145.091 225.342 144.847 225.342C144.266 225.342 143.813 225.356 143.5 225.385C143.188 225.413 142.973 225.484 142.865 225.598C142.758 225.712 142.704 225.898 142.704 226.154C142.704 226.354 142.724 226.506 142.758 226.611C142.792 226.715 142.885 226.791 143.031 226.834C143.178 226.877 143.402 226.919 143.71 226.962L146.336 227.281C146.834 227.338 147.254 227.452 147.605 227.623C147.957 227.794 148.22 228.098 148.406 228.54C148.587 228.982 148.679 229.638 148.679 230.521C148.679 231.32 148.572 231.947 148.362 232.408C148.152 232.869 147.849 233.216 147.454 233.453C147.059 233.686 146.6 233.838 146.063 233.91C145.526 233.962 144.93 234 144.276 234Z" fill="#8800FF"/>
<path d="M153.292 234C152.55 234 151.95 233.905 151.501 233.724C151.047 233.539 150.705 233.273 150.471 232.917C150.237 232.56 150.085 232.123 150.012 231.595C149.939 231.068 149.905 230.46 149.905 229.766V222.971H153.405V228.72C153.405 229.305 153.424 229.761 153.458 230.094C153.493 230.426 153.566 230.674 153.668 230.83C153.771 230.987 153.922 231.082 154.127 231.116C154.332 231.154 154.61 231.168 154.957 231.168C155.338 231.168 155.64 231.13 155.865 231.049C156.089 230.973 156.255 230.84 156.358 230.655C156.46 230.469 156.529 230.213 156.568 229.875C156.607 229.543 156.622 229.129 156.622 228.63V222.966H160.146V233.829H156.797L156.709 232.508H156.514C156.309 232.878 156.046 233.173 155.723 233.392C155.401 233.61 155.04 233.767 154.63 233.862C154.215 233.952 153.771 234 153.292 234Z" fill="#8800FF"/>
<path d="M161.849 233.829V222.966H165.174L165.262 224.287H165.457C165.662 223.916 165.921 223.622 166.233 223.403C166.545 223.185 166.902 223.028 167.297 222.933C167.693 222.842 168.112 222.795 168.566 222.795C169.445 222.795 170.104 222.914 170.558 223.147C171.007 223.379 171.329 223.76 171.52 224.287H171.715C171.935 223.916 172.203 223.622 172.525 223.403C172.847 223.185 173.209 223.028 173.609 222.933C174.009 222.842 174.434 222.795 174.888 222.795C175.835 222.795 176.543 222.956 177.002 223.284C177.46 223.612 177.768 224.087 177.919 224.71C178.071 225.337 178.149 226.107 178.149 227.034V233.829H174.649V228.079C174.649 227.495 174.629 227.038 174.595 226.706C174.556 226.373 174.497 226.126 174.409 225.969C174.322 225.812 174.185 225.717 173.995 225.679C173.804 225.646 173.555 225.627 173.248 225.627C172.911 225.627 172.642 225.665 172.437 225.746C172.232 225.827 172.081 225.955 171.978 226.14C171.876 226.326 171.813 226.582 171.793 226.905C171.769 227.233 171.759 227.651 171.759 228.16V233.824H168.234V228.074C168.234 227.49 168.22 227.034 168.19 226.701C168.161 226.368 168.098 226.121 168.005 225.965C167.912 225.808 167.771 225.713 167.59 225.675C167.409 225.641 167.165 225.622 166.858 225.622C166.526 225.622 166.253 225.66 166.048 225.741C165.843 225.822 165.691 225.95 165.589 226.136C165.486 226.321 165.418 226.578 165.393 226.915C165.364 227.248 165.349 227.666 165.349 228.16V233.824H161.849V233.829Z" fill="#8800FF"/>
<path d="M179.901 233.829V222.966H183.226L183.313 224.287H183.509C183.714 223.916 183.972 223.622 184.285 223.403C184.597 223.185 184.954 223.028 185.344 222.933C185.739 222.842 186.159 222.795 186.613 222.795C187.487 222.795 188.151 222.914 188.605 223.147C189.059 223.379 189.381 223.76 189.567 224.287H189.762C189.981 223.916 190.25 223.622 190.572 223.403C190.894 223.185 191.256 223.028 191.656 222.933C192.056 222.842 192.486 222.795 192.935 222.795C193.882 222.795 194.59 222.956 195.048 223.284C195.507 223.612 195.815 224.087 195.966 224.71C196.122 225.337 196.196 226.107 196.196 227.034V233.829H192.696V228.079C192.696 227.495 192.676 227.038 192.642 226.706C192.608 226.373 192.544 226.126 192.456 225.969C192.368 225.812 192.232 225.717 192.041 225.679C191.851 225.646 191.607 225.627 191.299 225.627C190.963 225.627 190.694 225.665 190.489 225.746C190.284 225.827 190.133 225.955 190.03 226.14C189.928 226.326 189.869 226.582 189.845 226.905C189.82 227.233 189.811 227.651 189.811 228.16V233.824H186.286V228.074C186.286 227.49 186.272 227.034 186.242 226.701C186.213 226.368 186.15 226.121 186.057 225.965C185.964 225.808 185.822 225.713 185.642 225.675C185.456 225.641 185.212 225.622 184.91 225.622C184.573 225.622 184.304 225.66 184.099 225.741C183.894 225.822 183.743 225.95 183.64 226.136C183.538 226.321 183.474 226.578 183.445 226.915C183.416 227.248 183.401 227.666 183.401 228.16V233.824H179.901V233.829Z" fill="#8800FF"/>
<path d="M197.909 220.747V218H201.521V220.747H197.909ZM197.953 233.829V222.966H201.497V233.829H197.953Z" fill="#8800FF"/>
<path d="M204.342 233.829V225.565H202.307V222.966H204.342V219.815H207.886V222.966H210.317V225.565H207.886V233.829H204.342Z" fill="#8800FF"/>
<defs>
<linearGradient id="paint0_linear_2371_2513" x1="500.866" y1="41.3729" x2="335.911" y2="402.35" gradientUnits="userSpaceOnUse">
<stop stop-color="#F1BCF2"/>
<stop offset="0.239583" stop-color="#F6CF44"/>
<stop offset="0.510417" stop-color="#72E4FD"/>
<stop offset="0.744792" stop-color="#A8EB87"/>
<stop offset="1" stop-color="#F1BCF2"/>
</linearGradient>
<linearGradient id="paint1_linear_2371_2513" x1="575.905" y1="15.3959" x2="-33.3157" y2="243.536" gradientUnits="userSpaceOnUse">
<stop stop-opacity="0"/>
<stop offset="0.880208"/>
<stop offset="1"/>
</linearGradient>
<radialGradient id="paint2_radial_2371_2513" cx="0" cy="0" r="1" gradientUnits="userSpaceOnUse" gradientTransform="translate(574.447 57.6698) rotate(129.003) scale(226.371 397.916)">
<stop stop-color="#2AA8D0"/>
<stop offset="0.203455" stop-color="#ADF664"/>
<stop offset="0.401848" stop-color="#FABFA5"/>
<stop offset="0.615048" stop-color="#FCF4AB"/>
<stop offset="0.823232" stop-color="#5DF7A4"/>
<stop offset="1" stop-color="#58D0F6"/>
</radialGradient>
<linearGradient id="paint3_linear_2371_2513" x1="589.175" y1="44.1575" x2="368.337" y2="149.746" gradientUnits="userSpaceOnUse">
<stop stop-color="white"/>
<stop offset="0.546875"/>
<stop offset="1" stop-color="white"/>
</linearGradient>
<linearGradient id="paint4_linear_2371_2513" x1="452.523" y1="40.1479" x2="614.941" y2="169.295" gradientUnits="userSpaceOnUse">
<stop stop-color="white" stop-opacity="0"/>
<stop offset="0.494792" stop-color="white"/>
<stop offset="1" stop-color="white" stop-opacity="0"/>
</linearGradient>
</defs>
</svg>
