<svg width="597" height="1249" viewBox="0 0 597 1249" fill="none" xmlns="http://www.w3.org/2000/svg">
<path d="M10.5914 30.1188C10.7158 15.8591 23.5269 4.29454 39.259 4.30876L234.556 4.4747L234.577 5.99789C235.117 37.1394 263.441 62.493 297.703 62.5305C331.948 62.5678 360.18 37.2463 360.641 6.11347L360.655 4.59059L555.951 4.75653C563.618 4.76191 570.83 7.48625 576.262 12.4257C581.676 17.3496 584.675 23.8985 584.684 30.8521L585.662 856.771C585.653 865.632 581.181 873.547 573.647 878.019C568.283 881.157 565.076 886.498 565.026 892.313C565.025 892.374 565.025 892.42 565.024 892.466C565.025 898.343 568.259 903.756 573.671 906.926C581.213 911.407 585.72 919.353 585.729 928.184L586.079 1218.53C586.088 1225.45 583.112 1232.02 577.699 1236.93C572.285 1241.87 565.077 1244.57 557.41 1244.57L362.148 1244.4L362.161 1242.86C362.122 1227.52 355.548 1213.1 343.606 1202.24C331.681 1191.4 315.846 1185.43 299.025 1185.41C282.171 1185.4 266.335 1191.34 254.428 1202.15C242.504 1212.99 236.006 1227.42 235.976 1242.75L235.962 1244.28L40.7178 1244.12C33.0503 1244.11 25.8383 1241.39 20.407 1236.45C14.9929 1231.53 11.9934 1224.98 11.985 1218.02L11.652 927.697C11.6254 918.866 16.133 910.921 23.6668 906.449C29.0304 903.311 32.2373 897.97 32.2881 892.155C32.2886 892.094 32.289 892.048 32.2894 892.002C32.2889 886.125 29.0549 880.712 23.6428 877.542C16.1007 873.061 11.5937 865.115 11.5844 856.284L10.6065 30.365C10.6072 30.2881 10.6079 30.2112 10.6087 30.1189L10.5914 30.1188ZM231.161 7.55261L39.2495 7.38544C25.3306 7.37166 14.0157 17.6724 14.026 30.3487L15.0039 856.268C15.0049 864.068 18.9503 871.055 25.513 874.974C31.8872 878.722 35.7 885.078 35.7087 892.001C35.786 898.97 31.9144 905.29 25.5441 909.019C18.9823 912.915 14.9838 919.911 15.0713 927.696L15.4043 1218.02C15.4199 1224.16 18.0462 1229.94 22.8436 1234.29C27.6238 1238.64 33.958 1241.03 40.6758 1241.03L232.501 1241.19C232.913 1225.61 239.758 1211.04 251.926 1199.99C264.477 1188.58 281.196 1182.31 298.983 1182.33C316.753 1182.35 333.467 1188.65 346.043 1200.08C358.224 1211.14 365.108 1225.73 365.542 1241.31L557.368 1241.47C564.103 1241.49 570.427 1239.1 575.196 1234.77C579.966 1230.43 582.624 1224.69 582.591 1218.51L582.258 928.184C582.257 920.384 578.312 913.397 571.749 909.478C565.375 905.73 561.562 899.374 561.553 892.451C561.51 885.513 565.348 879.162 571.718 875.433C578.21 871.582 582.121 864.694 582.189 856.987C582.189 856.91 582.19 856.833 582.191 856.756L581.23 30.8527C581.214 24.7144 578.588 18.938 573.791 14.5886C569.01 10.2395 562.676 7.84584 555.958 7.84875L364.047 7.68157C362.679 39.791 333.268 65.6407 297.694 65.6072C262.102 65.5735 232.59 39.6711 231.161 7.568L231.161 7.55261Z" fill="url(#paint0_linear_2887_3020)"/>
<mask id="path-2-inside-1_2887_3020" fill="white">
<path d="M29.4149 928.162C29.4065 925.162 30.8121 922.406 32.9646 921.132C43.6398 914.872 50.054 904.144 50.035 892.467C50.0159 880.806 43.5819 870.058 32.8266 863.734C30.6962 862.469 29.321 859.765 29.3302 856.735L28.3523 30.8152C28.3442 25.8 32.8179 21.7316 38.344 21.7337L216.958 21.8925C225.252 54.9939 258.106 79.9101 296.788 79.9554C335.454 79.9851 368.223 55.1186 376.439 22.0381L555.053 22.197C560.562 22.1989 565.051 26.284 565.059 31.2992L566.037 857.219C566.045 860.265 564.674 862.96 562.487 864.249C551.812 870.509 545.398 881.237 545.417 892.914C545.436 904.59 551.87 915.323 562.625 921.647C564.721 922.896 566.13 925.662 566.122 928.646L566.455 1218.97C566.463 1223.99 561.989 1228.06 556.463 1228.05L378.125 1227.9C370.25 1194.26 337.331 1168.93 298.061 1168.89C258.774 1168.86 225.897 1194.14 218.092 1227.75L39.7537 1227.59C34.2449 1227.59 29.756 1223.5 29.7479 1218.49L29.4149 928.162Z"/>
</mask>
<path d="M29.4149 928.162C29.4065 925.162 30.8121 922.406 32.9646 921.132C43.6398 914.872 50.054 904.144 50.035 892.467C50.0159 880.806 43.5819 870.058 32.8266 863.734C30.6962 862.469 29.321 859.765 29.3302 856.735L28.3523 30.8152C28.3442 25.8 32.8179 21.7316 38.344 21.7337L216.958 21.8925C225.252 54.9939 258.106 79.9101 296.788 79.9554C335.454 79.9851 368.223 55.1186 376.439 22.0381L555.053 22.197C560.562 22.1989 565.051 26.284 565.059 31.2992L566.037 857.219C566.045 860.265 564.674 862.96 562.487 864.249C551.812 870.509 545.398 881.237 545.417 892.914C545.436 904.59 551.87 915.323 562.625 921.647C564.721 922.896 566.13 925.662 566.122 928.646L566.455 1218.97C566.463 1223.99 561.989 1228.06 556.463 1228.05L378.125 1227.9C370.25 1194.26 337.331 1168.93 298.061 1168.89C258.774 1168.86 225.897 1194.14 218.092 1227.75L39.7537 1227.59C34.2449 1227.59 29.756 1223.5 29.7479 1218.49L29.4149 928.162Z" fill="url(#paint1_linear_2887_3020)"/>
<path d="M29.4149 928.162L31.6009 928.16L31.6008 928.156L29.4149 928.162ZM32.9646 921.132L31.8588 919.246L31.8516 919.251L32.9646 921.132ZM50.035 892.467L52.221 892.464L52.221 892.464L50.035 892.467ZM32.8266 863.734L31.7107 865.614L31.7185 865.618L32.8266 863.734ZM29.3302 856.735L31.5162 856.741L31.5161 856.732L29.3302 856.735ZM28.3523 30.8152L30.5382 30.8126L30.5382 30.8117L28.3523 30.8152ZM38.344 21.7337L38.346 19.5477L38.3449 19.5477L38.344 21.7337ZM216.958 21.8925L219.079 21.3612C218.835 20.3893 217.962 19.7074 216.96 19.7065L216.958 21.8925ZM296.788 79.9554L296.786 82.1413L296.787 82.1413L296.788 79.9554ZM376.439 22.0381L376.441 19.8522C375.436 19.8513 374.559 20.5358 374.317 21.5113L376.439 22.0381ZM555.053 22.197L555.051 24.3829L555.052 24.3829L555.053 22.197ZM565.059 31.2992L567.245 31.2966L567.245 31.2957L565.059 31.2992ZM566.037 857.219L563.851 857.221L563.851 857.224L566.037 857.219ZM562.487 864.249L563.593 866.134L563.597 866.132L562.487 864.249ZM562.625 921.647L563.744 919.769L563.733 919.763L562.625 921.647ZM566.122 928.646L563.936 928.64L563.936 928.649L566.122 928.646ZM566.455 1218.97L564.269 1218.98L564.269 1218.98L566.455 1218.97ZM556.463 1228.05L556.461 1230.24L556.462 1230.24L556.463 1228.05ZM378.125 1227.9L375.996 1228.4C376.228 1229.38 377.108 1230.08 378.123 1230.08L378.125 1227.9ZM298.061 1168.89L298.059 1171.08L298.059 1171.08L298.061 1168.89ZM218.092 1227.75L218.09 1229.93C219.107 1229.93 219.991 1229.23 220.221 1228.24L218.092 1227.75ZM39.7537 1227.59L39.7557 1225.4L39.7545 1225.4L39.7537 1227.59ZM29.7479 1218.49L27.562 1218.49L27.562 1218.49L29.7479 1218.49ZM31.6008 928.156C31.5942 925.763 32.7254 923.813 34.0777 923.013L31.8516 919.251C28.8988 920.998 27.2189 924.562 27.2289 928.168L31.6008 928.156ZM34.0704 923.018C45.3622 916.396 52.2413 904.977 52.221 892.464L47.8491 892.471C47.8667 903.31 41.9174 913.348 31.8588 919.246L34.0704 923.018ZM52.221 892.464C52.2005 879.966 45.3004 868.533 33.9346 861.85L31.7185 865.618C41.8634 871.584 47.8313 881.646 47.8491 892.471L52.221 892.464ZM33.9424 861.854C32.6174 861.068 31.5088 859.176 31.5161 856.741L27.1442 856.728C27.1332 860.355 28.775 863.871 31.7107 865.614L33.9424 861.854ZM31.5161 856.732L30.5382 30.8126L26.1663 30.8178L27.1442 856.737L31.5161 856.732ZM30.5382 30.8117C30.5324 27.1995 33.8224 23.9179 38.3432 23.9196L38.3449 19.5477C31.8134 19.5452 26.156 24.4005 26.1663 30.8187L30.5382 30.8117ZM38.3421 23.9196L216.957 24.0784L216.96 19.7065L38.346 19.5477L38.3421 23.9196ZM214.838 22.4238C223.401 56.5971 257.209 82.095 296.786 82.1413L296.791 77.7694C259.003 77.7252 227.104 53.3907 219.079 21.3612L214.838 22.4238ZM296.787 82.1413C336.349 82.1718 370.078 56.7215 378.56 22.565L374.317 21.5113C366.369 53.5156 334.558 77.7985 296.79 77.7694L296.787 82.1413ZM376.437 24.2241L555.051 24.3829L555.055 20.011L376.441 19.8522L376.437 24.2241ZM555.052 24.3829C559.552 24.3845 562.867 27.6803 562.873 31.3027L567.245 31.2957C567.235 24.8877 561.572 20.0133 555.054 20.011L555.052 24.3829ZM562.873 31.3018L563.851 857.221L568.223 857.216L567.245 31.2966L562.873 31.3018ZM563.851 857.224C563.857 859.668 562.759 861.552 561.377 862.365L563.597 866.132C566.59 864.369 568.232 860.862 568.223 857.213L563.851 857.224ZM561.381 862.363C550.089 868.985 543.21 880.404 543.231 892.917L547.603 892.91C547.585 882.071 553.534 872.033 563.593 866.134L561.381 862.363ZM543.231 892.917C543.251 905.431 550.152 916.848 561.517 923.531L563.733 919.763C553.588 913.797 547.62 903.749 547.603 892.91L543.231 892.917ZM561.506 923.525C562.802 924.297 563.943 926.254 563.936 928.64L568.307 928.653C568.318 925.07 566.641 921.495 563.744 919.769L561.506 923.525ZM563.936 928.649L564.269 1218.98L568.641 1218.97L568.307 928.644L563.936 928.649ZM564.269 1218.98C564.274 1222.59 560.984 1225.87 556.464 1225.87L556.462 1230.24C562.993 1230.24 568.651 1225.39 568.641 1218.97L564.269 1218.98ZM556.465 1225.87L378.127 1225.71L378.123 1230.08L556.461 1230.24L556.465 1225.87ZM380.253 1227.4C372.122 1192.67 338.236 1166.74 298.063 1166.71L298.059 1171.08C336.427 1171.11 368.377 1195.85 375.996 1228.4L380.253 1227.4ZM298.063 1166.71C257.873 1166.67 224.023 1192.55 215.963 1227.25L220.221 1228.24C227.771 1195.73 259.675 1171.05 298.059 1171.08L298.063 1166.71ZM218.094 1225.56L39.7557 1225.4L39.7518 1229.78L218.09 1229.93L218.094 1225.56ZM39.7545 1225.4C35.2551 1225.4 31.9397 1222.11 31.9339 1218.49L27.562 1218.49C27.5723 1224.9 33.2346 1229.77 39.753 1229.78L39.7545 1225.4ZM31.9339 1218.49L31.6008 928.16L27.2289 928.165L27.562 1218.49L31.9339 1218.49Z" fill="black" mask="url(#path-2-inside-1_2887_3020)"/>
<mask id="path-4-inside-2_2887_3020" fill="white">
<path fill-rule="evenodd" clip-rule="evenodd" d="M49.6288 889.238C163.388 888.973 410.796 888.611 545.372 890.031C545.369 890.199 545.368 890.366 545.368 890.535C545.386 902.335 551.824 913.181 562.586 919.571C564.684 920.833 566.094 923.628 566.085 926.644L566.393 1220.05C566.4 1225.12 561.923 1229.23 556.393 1229.23L377.931 1229.09C370.054 1195.09 337.114 1169.5 297.817 1169.46C258.503 1169.43 225.601 1194.98 217.787 1228.95L39.3249 1228.81C33.8122 1228.8 29.3205 1224.68 29.3129 1219.61L29.0048 926.202C28.9967 923.17 30.4034 920.384 32.5576 919.097C43.2407 912.769 49.6603 901.927 49.6423 890.126C49.6419 889.83 49.6373 889.534 49.6288 889.238Z"/>
</mask>
<path fill-rule="evenodd" clip-rule="evenodd" d="M49.6288 889.238C163.388 888.973 410.796 888.611 545.372 890.031C545.369 890.199 545.368 890.366 545.368 890.535C545.386 902.335 551.824 913.181 562.586 919.571C564.684 920.833 566.094 923.628 566.085 926.644L566.393 1220.05C566.4 1225.12 561.923 1229.23 556.393 1229.23L377.931 1229.09C370.054 1195.09 337.114 1169.5 297.817 1169.46C258.503 1169.43 225.601 1194.98 217.787 1228.95L39.3249 1228.81C33.8122 1228.8 29.3205 1224.68 29.3129 1219.61L29.0048 926.202C28.9967 923.17 30.4034 920.384 32.5576 919.097C43.2407 912.769 49.6603 901.927 49.6423 890.126C49.6419 889.83 49.6373 889.534 49.6288 889.238Z" fill="url(#paint2_radial_2887_3020)"/>
<path fill-rule="evenodd" clip-rule="evenodd" d="M49.6288 889.238C163.388 888.973 410.796 888.611 545.372 890.031C545.369 890.199 545.368 890.366 545.368 890.535C545.386 902.335 551.824 913.181 562.586 919.571C564.684 920.833 566.094 923.628 566.085 926.644L566.393 1220.05C566.4 1225.12 561.923 1229.23 556.393 1229.23L377.931 1229.09C370.054 1195.09 337.114 1169.5 297.817 1169.46C258.503 1169.43 225.601 1194.98 217.787 1228.95L39.3249 1228.81C33.8122 1228.8 29.3205 1224.68 29.3129 1219.61L29.0048 926.202C28.9967 923.17 30.4034 920.384 32.5576 919.097C43.2407 912.769 49.6603 901.927 49.6423 890.126C49.6419 889.83 49.6373 889.534 49.6288 889.238Z" fill="url(#paint3_linear_2887_3020)" fill-opacity="0.2" style="mix-blend-mode:difference"/>
<path fill-rule="evenodd" clip-rule="evenodd" d="M49.6288 889.238C163.388 888.973 410.796 888.611 545.372 890.031C545.369 890.199 545.368 890.366 545.368 890.535C545.386 902.335 551.824 913.181 562.586 919.571C564.684 920.833 566.094 923.628 566.085 926.644L566.393 1220.05C566.4 1225.12 561.923 1229.23 556.393 1229.23L377.931 1229.09C370.054 1195.09 337.114 1169.5 297.817 1169.46C258.503 1169.43 225.601 1194.98 217.787 1228.95L39.3249 1228.81C33.8122 1228.8 29.3205 1224.68 29.3129 1219.61L29.0048 926.202C28.9967 923.17 30.4034 920.384 32.5576 919.097C43.2407 912.769 49.6603 901.927 49.6423 890.126C49.6419 889.83 49.6373 889.534 49.6288 889.238Z" fill="url(#paint4_linear_2887_3020)" style="mix-blend-mode:screen"/>
<path d="M49.6288 889.238L49.6237 887.052L47.3789 887.058L47.4437 889.302L49.6288 889.238ZM545.372 890.031L547.557 890.061L547.588 887.868L545.395 887.845L545.372 890.031ZM545.368 890.535L543.182 890.538L543.182 890.538L545.368 890.535ZM562.586 919.571L563.713 917.698L563.702 917.692L562.586 919.571ZM566.085 926.644L563.899 926.638L563.899 926.647L566.085 926.644ZM566.393 1220.05L564.207 1220.05L564.207 1220.05L566.393 1220.05ZM556.393 1229.23L556.391 1231.41L556.393 1231.41L556.393 1229.23ZM377.931 1229.09L375.802 1229.58L376.193 1231.27L377.929 1231.27L377.931 1229.09ZM297.817 1169.46L297.815 1171.65L297.815 1171.65L297.817 1169.46ZM217.787 1228.95L217.785 1231.13L219.527 1231.13L219.917 1229.44L217.787 1228.95ZM39.3249 1228.81L39.3267 1226.62L39.3255 1226.62L39.3249 1228.81ZM29.3129 1219.61L27.127 1219.61L27.127 1219.61L29.3129 1219.61ZM29.0048 926.202L31.1907 926.199L31.1907 926.196L29.0048 926.202ZM32.5576 919.097L31.4435 917.216L31.4363 917.22L32.5576 919.097ZM49.6423 890.126L51.8283 890.123L51.8283 890.123L49.6423 890.126ZM49.6339 891.424C163.397 891.159 410.79 890.797 545.348 892.217L545.395 887.845C410.802 886.425 163.379 886.787 49.6237 887.052L49.6339 891.424ZM543.186 890C543.183 890.179 543.182 890.358 543.182 890.538L547.554 890.531C547.554 890.374 547.555 890.218 547.557 890.061L543.186 890ZM543.182 890.538C543.202 903.165 550.096 914.697 561.47 921.451L563.702 917.692C553.552 911.665 547.571 901.505 547.554 890.531L543.182 890.538ZM561.459 921.444C562.756 922.225 563.906 924.211 563.899 926.638L568.27 926.651C568.281 923.046 566.611 919.442 563.713 917.698L561.459 921.444ZM563.899 926.647L564.207 1220.05L568.579 1220.05L568.27 926.642L563.899 926.647ZM564.207 1220.05C564.212 1223.74 560.897 1227.04 556.394 1227.04L556.393 1231.41C562.949 1231.42 568.588 1226.5 568.579 1220.05L564.207 1220.05ZM556.395 1227.04L377.933 1226.9L377.929 1231.27L556.391 1231.41L556.395 1227.04ZM380.061 1228.59C371.932 1193.52 338.034 1167.31 297.819 1167.28L297.815 1171.65C336.194 1171.68 368.175 1196.67 375.802 1229.58L380.061 1228.59ZM297.819 1167.28C257.586 1167.24 223.721 1193.41 215.657 1228.46L219.917 1229.44C227.481 1196.56 259.419 1171.62 297.815 1171.65L297.819 1167.28ZM217.789 1226.76L39.3267 1226.62L39.3232 1230.99L217.785 1231.13L217.789 1226.76ZM39.3255 1226.62C34.8434 1226.62 31.5044 1223.3 31.4989 1219.6L27.127 1219.61C27.1366 1226.05 32.781 1230.99 39.3243 1230.99L39.3255 1226.62ZM31.4989 1219.6L31.1907 926.199L26.8188 926.204L27.127 1219.61L31.4989 1219.6ZM31.1907 926.196C31.1842 923.761 32.3244 921.782 33.6788 920.973L31.4363 917.22C28.4825 918.985 26.8091 922.579 26.8188 926.208L31.1907 926.196ZM33.6716 920.977C44.9733 914.283 51.8475 902.75 51.8283 890.123L47.4564 890.13C47.4731 901.103 41.5082 911.254 31.4436 917.216L33.6716 920.977ZM51.8283 890.123C51.8278 889.806 51.8229 889.49 51.8138 889.175L47.4437 889.302C47.4517 889.577 47.4559 889.853 47.4564 890.13L51.8283 890.123Z" fill="black" mask="url(#path-4-inside-2_2887_3020)"/>
<path d="M33.9138 890.973C33.9215 890.085 34.6997 889.365 35.6645 889.373L56.716 889.379C57.6807 889.387 58.4639 890.105 58.4737 890.993C58.4663 891.833 57.6878 892.602 56.7228 892.609L35.6714 892.603C34.7066 892.595 33.9234 891.877 33.9136 890.989L33.9138 890.973ZM76.0165 891.001C76.0243 890.113 76.8025 889.393 77.7673 889.401L98.8187 889.407C99.7835 889.416 100.567 890.133 100.576 891.022C100.569 891.91 99.7905 892.63 98.8256 892.638L77.7741 892.631C76.8094 892.623 76.0262 891.906 76.0164 891.017L76.0165 891.001ZM118.119 891.029C118.127 890.141 118.905 889.421 119.87 889.429L140.921 889.435C141.886 889.444 142.669 890.161 142.679 891.05C142.671 891.986 141.893 892.658 140.928 892.666L119.877 892.66C118.912 892.651 118.129 891.934 118.119 891.045L118.119 891.029ZM160.222 891.058C160.23 890.169 161.008 889.449 161.973 889.458L183.024 889.464C183.989 889.472 184.772 890.19 184.782 891.078C184.739 891.982 183.996 892.686 183.031 892.694L161.98 892.688C161.015 892.68 160.232 891.962 160.222 891.074L160.222 891.058ZM202.325 891.086C202.333 890.197 203.111 889.477 204.075 889.486L225.127 889.492C226.092 889.5 226.875 890.218 226.885 891.106C226.877 891.995 226.099 892.715 225.134 892.706L204.083 892.7C203.118 892.692 202.335 891.974 202.325 891.086ZM244.428 891.114C244.435 890.226 245.213 889.506 246.178 889.514L267.23 889.52C268.194 889.529 268.978 890.246 268.987 891.134C268.98 892.023 268.202 892.743 267.237 892.734L246.185 892.728C245.221 892.72 244.437 892.002 244.428 891.114ZM286.53 891.142C286.538 890.254 287.316 889.534 288.281 889.542L309.332 889.548C310.297 889.557 311.08 890.274 311.09 891.163C311.082 892.051 310.304 892.771 309.34 892.763L288.288 892.757C287.323 892.748 286.54 892.031 286.53 891.142ZM328.633 891.17C328.641 890.282 329.419 889.562 330.384 889.571L351.435 889.577C352.4 889.585 353.183 890.303 353.193 891.191C353.185 892.079 352.407 892.799 351.442 892.791L330.391 892.785C329.426 892.776 328.643 892.059 328.633 891.17ZM370.736 891.199C370.744 890.311 371.522 889.591 372.487 889.599L393.538 889.605C394.503 889.613 395.286 890.331 395.296 891.219C395.288 892.108 394.51 892.828 393.545 892.819L372.494 892.813C371.529 892.805 370.746 892.087 370.736 891.199ZM412.839 891.227C412.846 890.339 413.624 889.619 414.589 889.627L435.641 889.633C436.606 889.642 437.389 890.359 437.398 891.248C437.391 892.136 436.613 892.856 435.648 892.847L414.596 892.841C413.632 892.833 412.848 892.115 412.839 891.227ZM454.941 891.255C454.949 890.367 455.727 889.647 456.692 889.655L477.743 889.661C478.708 889.67 479.491 890.387 479.501 891.276C479.493 892.164 478.715 892.884 477.751 892.876L456.699 892.87C455.734 892.861 454.951 892.144 454.941 891.255ZM497.044 891.284C497.052 890.395 497.83 889.675 498.795 889.684L519.846 889.69C520.811 889.698 521.594 890.416 521.604 891.304C521.596 892.192 520.818 892.912 519.853 892.904L498.802 892.898C497.837 892.889 497.054 892.172 497.044 891.284ZM539.147 891.312C539.155 890.423 539.933 889.703 540.898 889.712L561.949 889.718C562.914 889.726 563.697 890.444 563.707 891.332C563.699 892.221 562.921 892.941 561.956 892.932L540.905 892.926C539.94 892.918 539.157 892.2 539.147 891.312Z" fill="white"/>
<path d="M92.3621 584.792C90.3715 584.792 88.7359 584.611 87.4662 584.258C86.1965 583.905 85.185 583.392 84.4318 582.729C83.6786 582.067 83.1406 581.244 82.7963 580.25C82.4519 579.266 82.2367 578.123 82.1399 576.84C82.043 575.557 82 574.146 82 572.596C82 571.079 82.043 569.689 82.1399 568.428C82.2367 567.166 82.4627 566.023 82.8393 565.018C83.2159 564.013 83.7647 563.169 84.4964 562.495C85.2281 561.811 86.218 561.298 87.4877 560.946C88.7467 560.593 90.3607 560.411 92.3191 560.411C93.5565 560.411 94.8155 560.475 96.0744 560.593C97.3334 560.721 98.4632 560.903 99.4532 561.149V566.386C98.8291 566.29 98.0328 566.215 97.0536 566.151C96.0744 566.087 95.1706 566.055 94.3205 566.055C93.2337 566.055 92.3729 566.14 91.7596 566.311C91.1355 566.482 90.6728 566.792 90.3607 567.241C90.0487 567.69 89.8442 568.342 89.7366 569.208C89.629 570.074 89.5752 571.196 89.5752 572.586C89.5752 573.975 89.629 575.108 89.7366 575.995C89.8442 576.872 90.0594 577.545 90.3607 577.994C90.6728 578.443 91.157 578.742 91.8026 578.903C92.459 579.052 93.309 579.138 94.3743 579.138C95.1168 579.138 95.9668 579.106 96.9137 579.042C97.8606 578.978 98.7753 578.903 99.6468 578.807V584.044C98.6246 584.258 97.4517 584.44 96.1498 584.579C94.837 584.728 93.578 584.792 92.3621 584.792Z" fill="white"/>
<path d="M112.752 584.792C110.633 584.792 108.879 584.664 107.48 584.418C106.081 584.172 104.973 583.766 104.166 583.21C103.359 582.655 102.767 581.917 102.39 580.987C102.014 580.057 101.777 578.903 101.669 577.513C101.562 576.124 101.508 574.467 101.508 572.554C101.508 570.64 101.562 568.994 101.669 567.615C101.777 566.237 102.014 565.093 102.39 564.163C102.767 563.233 103.359 562.495 104.166 561.94C104.973 561.384 106.081 560.988 107.48 560.753C108.879 560.518 110.633 560.411 112.752 560.411C114.894 560.411 116.669 560.529 118.068 560.753C119.467 560.988 120.564 561.384 121.382 561.94C122.189 562.495 122.781 563.233 123.157 564.163C123.534 565.093 123.771 566.237 123.878 567.615C123.986 568.994 124.04 570.64 124.04 572.554C124.04 574.467 123.986 576.124 123.878 577.513C123.771 578.903 123.534 580.057 123.157 580.987C122.781 581.917 122.189 582.655 121.382 583.21C120.575 583.766 119.467 584.172 118.068 584.418C116.669 584.675 114.894 584.792 112.752 584.792ZM112.752 579.138C113.688 579.138 114.409 579.074 114.947 578.956C115.475 578.839 115.851 578.55 116.066 578.123C116.282 577.684 116.422 577.022 116.465 576.124C116.508 575.226 116.529 574.039 116.529 572.554C116.529 571.068 116.508 569.903 116.465 569.037C116.422 568.171 116.282 567.519 116.066 567.092C115.851 566.664 115.475 566.386 114.947 566.258C114.42 566.13 113.688 566.076 112.752 566.076C111.816 566.076 111.095 566.14 110.579 566.258C110.062 566.376 109.696 566.664 109.481 567.092C109.266 567.53 109.126 568.171 109.083 569.037C109.04 569.903 109.018 571.079 109.018 572.554C109.018 574.039 109.04 575.226 109.083 576.124C109.126 577.022 109.266 577.684 109.481 578.123C109.696 578.55 110.062 578.828 110.579 578.956C111.095 579.085 111.816 579.138 112.752 579.138Z" fill="white"/>
<path d="M133.928 584.792C132.562 584.792 131.378 584.61 130.388 584.236C129.387 583.862 128.58 583.232 127.956 582.312C127.332 581.404 126.88 580.153 126.579 578.582C126.288 577.011 126.138 575.033 126.138 572.65C126.138 570.298 126.278 568.331 126.557 566.739C126.837 565.146 127.289 563.895 127.913 562.987C128.537 562.078 129.333 561.416 130.313 561.02C131.292 560.625 132.486 560.422 133.885 560.422C134.821 560.422 135.693 560.496 136.521 560.657C137.339 560.817 138.092 561.095 138.781 561.491C139.47 561.897 140.051 562.495 140.556 563.297H140.933V550H148.444V584.429H141.31L141.127 581.607H140.75C140.287 582.505 139.685 583.178 138.953 583.627C138.221 584.076 137.425 584.386 136.575 584.557C135.704 584.707 134.821 584.792 133.928 584.792ZM137.285 578.678C138.254 578.678 138.975 578.561 139.459 578.325C139.943 578.09 140.287 577.673 140.513 577.053C140.696 576.498 140.815 575.856 140.868 575.129C140.912 574.403 140.933 573.558 140.933 572.607C140.933 571.656 140.912 570.811 140.868 570.106C140.825 569.4 140.707 568.791 140.513 568.299C140.33 567.615 139.986 567.156 139.491 566.91C138.996 566.664 138.265 566.536 137.296 566.536C136.457 566.536 135.79 566.6 135.295 566.717C134.8 566.846 134.434 567.091 134.197 567.487C133.96 567.882 133.821 568.47 133.756 569.272C133.691 570.074 133.659 571.185 133.659 572.607C133.659 574.029 133.691 575.151 133.756 575.963C133.821 576.786 133.96 577.385 134.197 577.77C134.434 578.154 134.8 578.4 135.295 578.507C135.768 578.625 136.446 578.678 137.285 578.678Z" fill="white"/>
<path d="M163.218 584.792C160.98 584.792 159.129 584.654 157.666 584.376C156.203 584.098 155.051 583.659 154.19 583.061C153.34 582.462 152.695 581.682 152.275 580.72C151.855 579.758 151.597 578.625 151.479 577.289C151.371 575.964 151.317 574.414 151.317 572.661C151.317 570.534 151.414 568.695 151.619 567.145C151.823 565.606 152.275 564.334 152.996 563.351C153.706 562.367 154.825 561.63 156.332 561.149C157.838 560.668 159.883 560.433 162.465 560.433C164.553 560.433 166.242 560.582 167.544 560.871C168.846 561.159 169.89 561.608 170.643 562.218C171.407 562.816 171.956 563.597 172.278 564.559C172.601 565.521 172.816 566.664 172.902 568.011C172.999 569.358 173.042 570.908 173.042 572.671V574.478H158.72C158.72 575.525 158.763 576.37 158.86 577C158.957 577.631 159.205 578.101 159.603 578.411C160.012 578.721 160.625 578.924 161.464 579.031C162.304 579.138 163.476 579.192 164.961 579.192C165.553 579.192 166.253 579.181 167.06 579.149C167.867 579.117 168.717 579.074 169.599 579.01C170.481 578.946 171.321 578.892 172.095 578.828V584.012C171.407 584.173 170.578 584.311 169.599 584.429C168.62 584.557 167.565 584.643 166.446 584.707C165.36 584.76 164.273 584.792 163.218 584.792ZM166.016 571.357V570.619C166.016 569.507 165.962 568.62 165.855 567.979C165.747 567.327 165.553 566.846 165.295 566.515C165.026 566.194 164.671 565.98 164.197 565.895C163.735 565.798 163.143 565.756 162.422 565.756C161.615 565.756 160.969 565.809 160.485 565.916C160.001 566.023 159.635 566.247 159.388 566.589C159.14 566.931 158.968 567.423 158.871 568.075C158.774 568.727 158.731 569.572 158.731 570.63H166.801L166.016 571.357Z" fill="white"/>
<path d="M186.568 584.792C184.578 584.792 182.942 584.611 181.672 584.258C180.403 583.905 179.391 583.392 178.638 582.729C177.885 582.067 177.347 581.244 177.002 580.25C176.658 579.266 176.443 578.123 176.346 576.84C176.249 575.557 176.206 574.146 176.206 572.596C176.206 571.079 176.249 569.689 176.346 568.428C176.443 567.166 176.669 566.023 177.045 565.018C177.422 564.013 177.971 563.169 178.702 562.495C179.434 561.811 180.424 561.298 181.694 560.946C182.953 560.593 184.567 560.411 186.525 560.411C187.763 560.411 189.022 560.475 190.28 560.593C191.539 560.721 192.669 560.903 193.659 561.149V566.386C193.035 566.29 192.239 566.215 191.26 566.151C190.28 566.087 189.377 566.055 188.527 566.055C187.44 566.055 186.579 566.14 185.966 566.311C185.342 566.482 184.879 566.792 184.567 567.241C184.255 567.69 184.05 568.342 183.943 569.208C183.835 570.074 183.781 571.196 183.781 572.586C183.781 573.975 183.835 575.108 183.943 575.995C184.05 576.872 184.265 577.545 184.567 577.994C184.879 578.443 185.363 578.742 186.009 578.903C186.665 579.052 187.515 579.138 188.58 579.138C189.323 579.138 190.173 579.106 191.12 579.042C192.067 578.978 192.981 578.903 193.853 578.807V584.044C192.831 584.258 191.658 584.44 190.356 584.579C189.043 584.728 187.784 584.792 186.568 584.792Z" fill="white"/>
<path d="M206.958 584.792C204.839 584.792 203.085 584.664 201.686 584.418C200.287 584.172 199.179 583.766 198.372 583.21C197.565 582.655 196.973 581.917 196.596 580.987C196.22 580.057 195.983 578.903 195.875 577.513C195.768 576.124 195.714 574.467 195.714 572.554C195.714 570.64 195.768 568.994 195.875 567.615C195.983 566.237 196.22 565.093 196.596 564.163C196.973 563.233 197.565 562.495 198.372 561.94C199.179 561.384 200.287 560.988 201.686 560.753C203.085 560.518 204.839 560.411 206.958 560.411C209.1 560.411 210.875 560.529 212.274 560.753C213.673 560.988 214.77 561.384 215.588 561.94C216.395 562.495 216.987 563.233 217.364 564.163C217.74 565.093 217.977 566.237 218.084 567.615C218.192 568.994 218.246 570.64 218.246 572.554C218.246 574.467 218.192 576.124 218.084 577.513C217.977 578.903 217.74 580.057 217.364 580.987C216.987 581.917 216.395 582.655 215.588 583.21C214.781 583.766 213.673 584.172 212.274 584.418C210.875 584.675 209.1 584.792 206.958 584.792ZM206.958 579.138C207.894 579.138 208.615 579.074 209.153 578.956C209.681 578.839 210.057 578.55 210.273 578.123C210.488 577.684 210.628 577.022 210.671 576.124C210.714 575.226 210.735 574.039 210.735 572.554C210.735 571.068 210.714 569.903 210.671 569.037C210.628 568.171 210.488 567.519 210.273 567.092C210.057 566.664 209.681 566.386 209.153 566.258C208.626 566.13 207.894 566.076 206.958 566.076C206.022 566.076 205.301 566.14 204.785 566.258C204.268 566.376 203.902 566.664 203.687 567.092C203.472 567.53 203.332 568.171 203.289 569.037C203.246 569.903 203.225 571.079 203.225 572.554C203.225 574.039 203.246 575.226 203.289 576.124C203.332 577.022 203.472 577.684 203.687 578.123C203.902 578.55 204.268 578.828 204.785 578.956C205.301 579.085 206.022 579.138 206.958 579.138Z" fill="white"/>
<path d="M221.141 584.418V560.785H228.232L228.415 563.661H228.834C229.297 562.859 229.878 562.218 230.556 561.737C231.245 561.256 232.019 560.914 232.891 560.721C233.762 560.518 234.709 560.422 235.732 560.422C237.313 560.422 238.583 560.625 239.53 561.02C240.477 561.427 241.198 562.015 241.703 562.784C242.209 563.554 242.532 564.516 242.704 565.659C242.876 566.803 242.962 568.129 242.962 569.646V584.429H235.452V571.923C235.452 570.662 235.419 569.657 235.355 568.93C235.29 568.203 235.15 567.669 234.935 567.327C234.72 566.985 234.386 566.782 233.935 566.707C233.483 566.632 232.88 566.589 232.138 566.589C231.363 566.589 230.728 566.675 230.244 566.846C229.76 567.017 229.404 567.305 229.168 567.701C228.931 568.107 228.78 568.663 228.705 569.39C228.63 570.117 228.587 571.015 228.587 572.105V584.429H221.141V584.418Z" fill="white"/>
<path d="M262.482 584.526L251.162 577.621V568.033L262.482 561.085V568.589L255.004 572.8L262.482 577.022V584.526Z" fill="#0055FF"/>
<path d="M262.482 561.085V568.589L251.151 574.98V568.033L262.482 561.085Z" fill="#0055FF"/>
<path d="M421.669 561.085L432.989 567.99V577.578L421.669 584.526V577.022L429.147 572.811L421.669 568.589V561.085Z" fill="#0055FF"/>
<path d="M421.669 584.525V577.022L433 570.619V577.578L421.669 584.525Z" fill="#0055FF"/>
<path d="M270.424 585.615V567.028H265.883V561.181H270.424V559.503C270.424 557.653 270.531 556.136 270.757 554.971C270.983 553.805 271.381 552.886 271.962 552.213C272.543 551.539 273.35 551.058 274.394 550.748C275.438 550.449 276.761 550.257 278.354 550.171C279.946 550.096 281.851 550.054 284.068 550.054V555.323C282.744 555.323 281.7 555.355 280.904 555.419C280.119 555.484 279.527 555.623 279.139 555.826C278.752 556.029 278.505 556.339 278.397 556.734C278.289 557.13 278.225 557.696 278.225 558.434V561.17H284.057V567.017H278.225V585.605H270.424V585.615Z" fill="#0055FF"/>
<path d="M297.335 586C295.022 586 293.106 585.851 291.6 585.562C290.083 585.273 288.888 584.824 288.006 584.194C287.124 583.574 286.467 582.761 286.026 581.778C285.585 580.795 285.316 579.608 285.208 578.229C285.101 576.851 285.036 575.258 285.036 573.441C285.036 571.239 285.144 569.336 285.348 567.733C285.553 566.14 286.026 564.826 286.769 563.81C287.511 562.784 288.662 562.025 290.223 561.533C291.783 561.042 293.892 560.796 296.56 560.796C298.712 560.796 300.466 560.946 301.822 561.256C303.178 561.555 304.243 562.025 305.029 562.645C305.814 563.265 306.384 564.077 306.718 565.071C307.052 566.065 307.278 567.252 307.364 568.642C307.461 570.031 307.514 571.634 307.514 573.462V575.333H292.708C292.708 576.423 292.751 577.289 292.848 577.941C292.945 578.593 293.203 579.085 293.623 579.405C294.042 579.726 294.688 579.94 295.549 580.047C296.42 580.164 297.626 580.218 299.164 580.218C299.778 580.218 300.499 580.196 301.338 580.164C302.177 580.132 303.049 580.089 303.963 580.025C304.878 579.961 305.739 579.897 306.546 579.833V585.199C305.836 585.359 304.975 585.498 303.963 585.626C302.952 585.754 301.865 585.851 300.703 585.915C299.552 585.968 298.433 586 297.335 586ZM300.23 572.105V571.335C300.23 570.181 300.176 569.272 300.057 568.609C299.95 567.936 299.745 567.434 299.476 567.102C299.207 566.771 298.831 566.546 298.347 566.461C297.862 566.375 297.249 566.311 296.517 566.311C295.678 566.311 295.011 566.365 294.516 566.482C294.021 566.589 293.634 566.824 293.386 567.177C293.128 567.53 292.956 568.043 292.859 568.706C292.762 569.379 292.719 570.256 292.719 571.346H301.069L300.23 572.105Z" fill="#0055FF"/>
<path d="M316.532 586C314.983 586 313.681 585.765 312.626 585.284C311.561 584.803 310.765 584.023 310.238 582.933C309.71 581.842 309.441 580.421 309.441 578.668C309.441 576.819 309.657 575.333 310.087 574.232C310.517 573.131 311.303 572.34 312.422 571.859C313.552 571.378 315.144 571.143 317.2 571.143C317.49 571.143 317.899 571.153 318.426 571.164C318.953 571.186 319.556 571.196 320.234 571.218C320.912 571.239 321.59 571.25 322.257 571.271C322.924 571.292 323.537 571.314 324.086 571.346V570.437C324.086 569.507 324.011 568.791 323.871 568.278C323.72 567.765 323.451 567.391 323.053 567.156C322.655 566.921 322.052 566.771 321.245 566.728C320.438 566.675 319.384 566.653 318.06 566.653C317.318 566.653 316.511 566.675 315.629 566.707C314.746 566.739 313.875 566.782 313.025 566.824C312.174 566.867 311.454 566.931 310.873 566.995V561.576C312.185 561.352 313.681 561.17 315.338 561.02C316.995 560.871 318.738 560.807 320.568 560.807C322.623 560.807 324.334 560.935 325.7 561.191C327.067 561.448 328.164 561.833 329.004 562.367C329.843 562.891 330.456 563.554 330.865 564.355C331.263 565.157 331.532 566.098 331.661 567.188C331.79 568.278 331.855 569.507 331.855 570.876V585.637H324.43L324.237 582.762H323.849C323.236 583.724 322.526 584.44 321.73 584.921C320.923 585.402 320.073 585.701 319.169 585.829C318.286 585.936 317.404 586 316.532 586ZM320.202 580.538C320.783 580.538 321.288 580.495 321.719 580.421C322.149 580.346 322.526 580.196 322.827 579.993C323.128 579.79 323.387 579.523 323.57 579.202C323.731 578.849 323.86 578.422 323.957 577.909C324.054 577.396 324.108 576.786 324.108 576.092V575.183H319.621C318.814 575.183 318.2 575.237 317.791 575.354C317.372 575.461 317.092 575.718 316.952 576.124C316.812 576.53 316.737 577.139 316.737 577.973C316.737 578.678 316.812 579.224 316.974 579.598C317.135 579.982 317.458 580.239 317.964 580.367C318.458 580.474 319.201 580.538 320.202 580.538Z" fill="#0055FF"/>
<path d="M337.901 585.615V567.027H333.414V561.18H337.901V554.094H345.713V561.18H351.072V567.027H345.713V585.615H337.901Z" fill="#0055FF"/>
<path d="M360.38 586C358.744 586 357.421 585.786 356.431 585.38C355.43 584.963 354.677 584.365 354.16 583.563C353.644 582.761 353.31 581.778 353.149 580.592C352.987 579.405 352.912 578.037 352.912 576.476V561.191H360.627V574.114C360.627 575.418 360.67 576.455 360.746 577.203C360.821 577.951 360.982 578.507 361.208 578.86C361.434 579.213 361.768 579.427 362.22 579.501C362.672 579.587 363.285 579.619 364.049 579.619C364.888 579.619 365.555 579.533 366.05 579.352C366.545 579.181 366.911 578.881 367.137 578.465C367.363 578.048 367.514 577.47 367.589 576.712C367.675 575.963 367.707 575.033 367.707 573.911V561.181H375.476V585.615H368.095L367.901 582.644H367.471C367.019 583.478 366.438 584.14 365.738 584.632C365.039 585.124 364.221 585.476 363.328 585.69C362.424 585.893 361.445 586 360.38 586Z" fill="#0055FF"/>
<path d="M379.242 585.615V561.181H386.57L386.764 565.349H387.194C387.646 564.163 388.216 563.244 388.905 562.57C389.594 561.897 390.444 561.437 391.434 561.181C392.434 560.924 393.586 560.796 394.909 560.796V567.84C392.886 567.84 391.294 568.096 390.132 568.609C388.98 569.123 388.152 569.988 387.667 571.218C387.183 572.447 386.947 574.168 386.947 576.37V585.615H379.242Z" fill="#0055FF"/>
<path d="M408.091 586C405.778 586 403.862 585.851 402.356 585.562C400.839 585.273 399.644 584.824 398.762 584.194C397.879 583.574 397.223 582.761 396.782 581.778C396.352 580.784 396.072 579.608 395.964 578.229C395.857 576.851 395.792 575.258 395.792 573.441C395.792 571.239 395.9 569.336 396.104 567.733C396.308 566.14 396.782 564.826 397.524 563.81C398.267 562.784 399.418 562.025 400.978 561.533C402.539 561.042 404.648 560.796 407.316 560.796C409.468 560.796 411.222 560.946 412.578 561.256C413.934 561.555 414.999 562.025 415.785 562.645C416.57 563.265 417.14 564.077 417.474 565.071C417.807 566.065 418.033 567.252 418.12 568.642C418.216 570.031 418.27 571.634 418.27 573.462V575.333H403.464C403.464 576.423 403.507 577.289 403.604 577.941C403.701 578.593 403.959 579.085 404.379 579.405C404.798 579.726 405.444 579.94 406.305 580.047C407.176 580.164 408.382 580.218 409.92 580.218C410.534 580.218 411.254 580.196 412.094 580.164C412.933 580.132 413.805 580.089 414.719 580.025C415.634 579.961 416.495 579.897 417.302 579.833V585.199C416.592 585.359 415.731 585.498 414.719 585.626C413.708 585.754 412.621 585.851 411.459 585.915C410.308 585.968 409.178 586 408.091 586ZM410.985 572.105V571.335C410.985 570.181 410.932 569.272 410.813 568.609C410.706 567.936 410.501 567.434 410.232 567.102C409.963 566.771 409.587 566.546 409.102 566.461C408.618 566.375 408.005 566.311 407.273 566.311C406.434 566.311 405.767 566.365 405.272 566.482C404.777 566.589 404.389 566.824 404.142 567.177C403.884 567.53 403.712 568.043 403.615 568.706C403.518 569.379 403.475 570.256 403.475 571.346H411.825L410.985 572.105Z" fill="#0055FF"/>
<path d="M84.7981 697V672.517H87.7361V683.394H99.208V672.517H102.146V697H99.208V686.052H87.7361V697H84.7981Z" fill="#0055FF"/>
<path d="M116.634 697.489C113.72 697.489 111.388 696.65 109.639 694.971C107.914 693.269 107.051 690.797 107.051 687.556V681.96C107.051 678.719 107.914 676.259 109.639 674.581C111.388 672.878 113.72 672.027 116.634 672.027C119.572 672.027 121.904 672.878 123.63 674.581C125.378 676.259 126.253 678.719 126.253 681.96V687.556C126.253 690.797 125.378 693.269 123.63 694.971C121.904 696.65 119.572 697.489 116.634 697.489ZM116.634 694.866C118.756 694.866 120.4 694.237 121.566 692.978C122.732 691.695 123.315 689.923 123.315 687.661V681.855C123.315 679.594 122.732 677.833 121.566 676.574C120.4 675.292 118.756 674.65 116.634 674.65C114.536 674.65 112.904 675.292 111.738 676.574C110.572 677.833 109.989 679.594 109.989 681.855V687.661C109.989 689.923 110.572 691.695 111.738 692.978C112.904 694.237 114.536 694.866 116.634 694.866Z" fill="#0055FF"/>
<path d="M136.07 697V675.175H128.201V672.517H146.878V675.175H139.008V697H136.07Z" fill="#0055FF"/>
<path d="M150.616 697V672.517H165.691V675.175H153.554V683.359H164.711V686.018H153.554V694.342H165.865V697H150.616Z" fill="#0055FF"/>
<path d="M170.324 697V672.517H173.262V694.342H185.643V697H170.324Z" fill="#0055FF"/>
<path d="M197.478 697V672.517H212.272V675.175H200.416V683.394H211.328V686.052H200.416V697H197.478Z" fill="#0055FF"/>
<path d="M212.905 697L220.46 672.517H225.636L233.191 697H230.148L228.259 690.809H217.837L215.948 697H212.905ZM218.571 688.151H227.49L223.293 674.301H222.803L218.571 688.151Z" fill="#0055FF"/>
<path d="M236.859 697V672.517H239.797V697H236.859Z" fill="#0055FF"/>
<path d="M243.474 697L251.029 672.517H256.205L263.76 697H260.717L258.829 690.809H248.406L246.517 697H243.474ZM249.14 688.151H258.059L253.862 674.301H253.372L249.14 688.151Z" fill="#0055FF"/>
<path d="M267.428 697V672.517H270.366V694.342H282.748V697H267.428Z" fill="#0055FF"/>
<path d="M294.582 697V672.517H303.956C305.425 672.517 306.73 672.808 307.873 673.391C309.039 673.951 309.96 674.755 310.636 675.805C311.312 676.854 311.65 678.125 311.65 679.617V680.072C311.65 681.541 311.301 682.811 310.601 683.884C309.925 684.933 309.004 685.738 307.838 686.297C306.672 686.857 305.378 687.137 303.956 687.137H297.52V697H294.582ZM297.52 684.479H303.641C305.203 684.479 306.439 684.094 307.348 683.324C308.258 682.532 308.712 681.424 308.712 680.002V679.652C308.712 678.23 308.258 677.134 307.348 676.364C306.462 675.572 305.226 675.175 303.641 675.175H297.52V684.479Z" fill="#0055FF"/>
<path d="M315.588 697V672.517H325.486C327.002 672.517 328.331 672.785 329.473 673.321C330.639 673.834 331.548 674.581 332.201 675.56C332.854 676.516 333.181 677.67 333.181 679.022V679.407C333.181 681.016 332.796 682.287 332.026 683.219C331.257 684.152 330.348 684.782 329.298 685.108V685.598C330.138 685.621 330.826 685.901 331.362 686.437C331.922 686.95 332.201 687.731 332.201 688.781V697H329.298V689.13C329.298 688.431 329.1 687.895 328.704 687.521C328.331 687.148 327.759 686.962 326.99 686.962H318.526V697H315.588ZM318.526 684.304H325.206C326.815 684.304 328.051 683.919 328.914 683.15C329.8 682.357 330.243 681.261 330.243 679.862V679.617C330.243 678.218 329.811 677.134 328.949 676.364C328.086 675.572 326.838 675.175 325.206 675.175H318.526V684.304Z" fill="#0055FF"/>
<path d="M337.653 697V672.517H340.59V697H337.653Z" fill="#0055FF"/>
<path d="M346.191 697V672.517H351.788L358.293 695.146H358.748L365.253 672.517H370.849V697H368.016V674.441H367.526L361.056 697H355.985L349.514 674.441H349.024V697H346.191Z" fill="#0055FF"/>
<path d="M376.453 697V672.517H391.528V675.175H379.391V683.359H390.548V686.018H379.391V694.342H391.703V697H376.453Z" fill="#0055FF"/>
<path d="M84.7981 749V724.517H99.5927V727.175H87.7361V735.394H98.6484V738.052H87.7361V749H84.7981Z" fill="#0055FF"/>
<path d="M103.686 749V724.517H106.624V746.342H119.005V749H103.686Z" fill="#0055FF"/>
<path d="M130.98 749.489C128.065 749.489 125.734 748.65 123.985 746.971C122.259 745.269 121.397 742.797 121.397 739.556V733.96C121.397 730.719 122.259 728.259 123.985 726.581C125.734 724.878 128.065 724.027 130.98 724.027C133.918 724.027 136.249 724.878 137.975 726.581C139.724 728.259 140.598 730.719 140.598 733.96V739.556C140.598 742.797 139.724 745.269 137.975 746.971C136.249 748.65 133.918 749.489 130.98 749.489ZM130.98 746.866C133.102 746.866 134.746 746.237 135.911 744.978C137.077 743.695 137.66 741.923 137.66 739.661V733.855C137.66 731.594 137.077 729.833 135.911 728.574C134.746 727.292 133.102 726.65 130.98 726.65C128.881 726.65 127.249 727.292 126.083 728.574C124.917 729.833 124.335 731.594 124.335 733.855V739.661C124.335 741.923 124.917 743.695 126.083 744.978C127.249 746.237 128.881 746.866 130.98 746.866Z" fill="#0055FF"/>
<path d="M145.493 749V724.517H155.391C156.906 724.517 158.235 724.785 159.378 725.321C160.544 725.834 161.453 726.581 162.106 727.56C162.759 728.516 163.085 729.67 163.085 731.022V731.407C163.085 733.016 162.701 734.287 161.931 735.219C161.162 736.152 160.252 736.782 159.203 737.108V737.598C160.043 737.621 160.73 737.901 161.267 738.437C161.826 738.95 162.106 739.731 162.106 740.781V749H159.203V741.13C159.203 740.431 159.005 739.895 158.609 739.521C158.235 739.148 157.664 738.962 156.895 738.962H148.431V749H145.493ZM148.431 736.304H155.111C156.72 736.304 157.956 735.919 158.818 735.15C159.704 734.357 160.147 733.261 160.147 731.862V731.617C160.147 730.218 159.716 729.134 158.853 728.364C157.991 727.572 156.743 727.175 155.111 727.175H148.431V736.304Z" fill="#0055FF"/>
<path d="M167.557 749V724.517H170.495V749H167.557Z" fill="#0055FF"/>
<path d="M174.173 749L181.727 724.517H186.904L194.458 749H191.415L189.527 742.809H179.104L177.215 749H174.173ZM179.839 740.151H188.757L184.56 726.301H184.071L179.839 740.151Z" fill="#0055FF"/>
<path d="M198.127 749V724.517H203.828L212.362 747.146H212.816V724.517H215.719V749H210.018L201.519 726.336H201.03V749H198.127Z" fill="#0055FF"/>
<path d="M230.236 749.489C227.322 749.489 224.99 748.65 223.241 746.971C221.516 745.269 220.653 742.797 220.653 739.556V733.96C220.653 730.719 221.516 728.259 223.241 726.581C224.99 724.878 227.322 724.027 230.236 724.027C233.174 724.027 235.506 724.878 237.231 726.581C238.98 728.259 239.854 730.719 239.854 733.96V739.556C239.854 742.797 238.98 745.269 237.231 746.971C235.506 748.65 233.174 749.489 230.236 749.489ZM230.236 746.866C232.358 746.866 234.002 746.237 235.168 744.978C236.334 743.695 236.917 741.923 236.917 739.661V733.855C236.917 731.594 236.334 729.833 235.168 728.574C234.002 727.292 232.358 726.65 230.236 726.65C228.138 726.65 226.506 727.292 225.34 728.574C224.174 729.833 223.591 731.594 223.591 733.855V739.661C223.591 741.923 224.174 743.695 225.34 744.978C226.506 746.237 228.138 746.866 230.236 746.866ZM228.278 722.488L230.621 718.256H234.049L230.971 722.488H228.278Z" fill="#0055FF"/>
<path d="M244.749 749V724.517H254.123C255.592 724.517 256.897 724.808 258.04 725.391C259.206 725.951 260.127 726.755 260.803 727.805C261.479 728.854 261.817 730.125 261.817 731.617V732.072C261.817 733.541 261.467 734.811 260.768 735.884C260.092 736.933 259.171 737.738 258.005 738.297C256.839 738.857 255.545 739.137 254.123 739.137H247.687V749H244.749ZM247.687 736.479H253.808C255.37 736.479 256.606 736.094 257.515 735.324C258.425 734.532 258.879 733.424 258.879 732.002V731.652C258.879 730.23 258.425 729.134 257.515 728.364C256.629 727.572 255.393 727.175 253.808 727.175H247.687V736.479Z" fill="#0055FF"/>
<path d="M274.639 749.489C271.724 749.489 269.392 748.65 267.644 746.971C265.918 745.269 265.055 742.797 265.055 739.556V733.96C265.055 730.719 265.918 728.259 267.644 726.581C269.392 724.878 271.724 724.027 274.639 724.027C277.577 724.027 279.908 724.878 281.634 726.581C283.382 728.259 284.257 730.719 284.257 733.96V739.556C284.257 742.797 283.382 745.269 281.634 746.971C279.908 748.65 277.577 749.489 274.639 749.489ZM274.639 746.866C276.76 746.866 278.404 746.237 279.57 744.978C280.736 743.695 281.319 741.923 281.319 739.661V733.855C281.319 731.594 280.736 729.833 279.57 728.574C278.404 727.292 276.76 726.65 274.639 726.65C272.54 726.65 270.908 727.292 269.742 728.574C268.576 729.833 267.993 731.594 267.993 733.855V739.661C267.993 741.923 268.576 743.695 269.742 744.978C270.908 746.237 272.54 746.866 274.639 746.866Z" fill="#0055FF"/>
<path d="M289.152 749V724.517H292.089V746.342H304.471V749H289.152Z" fill="#0055FF"/>
<path d="M308.245 749V724.517H311.182V749H308.245Z" fill="#0055FF"/>
<path d="M324.933 749.489C323.161 749.489 321.575 749.175 320.176 748.545C318.777 747.916 317.669 746.971 316.853 745.712C316.061 744.43 315.664 742.832 315.664 740.92V740.186H318.567V740.92C318.567 742.949 319.162 744.465 320.351 745.467C321.54 746.447 323.067 746.936 324.933 746.936C326.845 746.936 328.302 746.505 329.305 745.642C330.307 744.779 330.809 743.695 330.809 742.389C330.809 741.48 330.575 740.757 330.109 740.221C329.666 739.685 329.036 739.253 328.22 738.927C327.404 738.577 326.448 738.274 325.352 738.018L323.534 737.563C322.111 737.19 320.852 736.735 319.756 736.199C318.66 735.662 317.798 734.963 317.168 734.1C316.562 733.214 316.259 732.083 316.259 730.708C316.259 729.332 316.597 728.143 317.273 727.14C317.973 726.138 318.94 725.368 320.176 724.832C321.435 724.295 322.881 724.027 324.513 724.027C326.169 724.027 327.649 724.319 328.955 724.902C330.284 725.461 331.322 726.301 332.068 727.42C332.837 728.516 333.222 729.903 333.222 731.582V733.051H330.319V731.582C330.319 730.393 330.062 729.437 329.549 728.714C329.06 727.991 328.372 727.455 327.486 727.105C326.623 726.755 325.632 726.581 324.513 726.581C322.904 726.581 321.61 726.942 320.631 727.665C319.651 728.364 319.162 729.367 319.162 730.673C319.162 731.535 319.372 732.235 319.791 732.771C320.211 733.307 320.806 733.751 321.575 734.1C322.345 734.427 323.266 734.718 324.338 734.975L326.157 735.429C327.579 735.732 328.85 736.152 329.969 736.688C331.112 737.201 332.021 737.913 332.697 738.822C333.373 739.708 333.712 740.874 333.712 742.319C333.712 743.765 333.35 745.024 332.627 746.097C331.904 747.169 330.879 748.009 329.549 748.615C328.244 749.198 326.705 749.489 324.933 749.489Z" fill="#0055FF"/>
<path d="M338.058 753.372V751.623H339.073C339.912 751.623 340.332 751.203 340.332 750.364V749.245H339.842C339.166 749.245 338.595 749.035 338.128 748.615C337.685 748.195 337.464 747.671 337.464 747.041C337.464 746.365 337.685 745.817 338.128 745.397C338.595 744.978 339.166 744.768 339.842 744.768C340.518 744.768 341.078 744.989 341.521 745.432C341.964 745.875 342.185 746.435 342.185 747.111V750.364C342.185 752.369 341.183 753.372 339.178 753.372H338.058Z" fill="#0055FF"/>
<path d="M362.948 749.489C361.176 749.489 359.59 749.175 358.191 748.545C356.792 747.916 355.685 746.971 354.869 745.712C354.076 744.43 353.68 742.832 353.68 740.92V740.186H356.582V740.92C356.582 742.949 357.177 744.465 358.366 745.467C359.555 746.447 361.083 746.936 362.948 746.936C364.86 746.936 366.317 746.505 367.32 745.642C368.323 744.779 368.824 743.695 368.824 742.389C368.824 741.48 368.591 740.757 368.124 740.221C367.681 739.685 367.052 739.253 366.236 738.927C365.42 738.577 364.464 738.274 363.368 738.018L361.549 737.563C360.127 737.19 358.868 736.735 357.772 736.199C356.676 735.662 355.813 734.963 355.183 734.1C354.577 733.214 354.274 732.083 354.274 730.708C354.274 729.332 354.612 728.143 355.288 727.14C355.988 726.138 356.956 725.368 358.191 724.832C359.45 724.295 360.896 724.027 362.528 724.027C364.184 724.027 365.664 724.319 366.97 724.902C368.299 725.461 369.337 726.301 370.083 727.42C370.852 728.516 371.237 729.903 371.237 731.582V733.051H368.334V731.582C368.334 730.393 368.078 729.437 367.565 728.714C367.075 727.991 366.387 727.455 365.501 727.105C364.638 726.755 363.647 726.581 362.528 726.581C360.919 726.581 359.625 726.942 358.646 727.665C357.667 728.364 357.177 729.367 357.177 730.673C357.177 731.535 357.387 732.235 357.807 732.771C358.226 733.307 358.821 733.751 359.59 734.1C360.36 734.427 361.281 734.718 362.353 734.975L364.172 735.429C365.594 735.732 366.865 736.152 367.984 736.688C369.127 737.201 370.036 737.913 370.713 738.822C371.389 739.708 371.727 740.874 371.727 742.319C371.727 743.765 371.365 745.024 370.643 746.097C369.92 747.169 368.894 748.009 367.565 748.615C366.259 749.198 364.72 749.489 362.948 749.489Z" fill="#0055FF"/>
<path d="M385.097 749.489C382.183 749.489 379.863 748.65 378.137 746.971C376.412 745.269 375.549 742.797 375.549 739.556V733.96C375.549 730.719 376.412 728.259 378.137 726.581C379.863 724.878 382.183 724.027 385.097 724.027C387.989 724.027 390.204 724.832 391.743 726.441C393.305 728.05 394.086 730.253 394.086 733.051V733.226H391.183V732.946C391.183 731.104 390.682 729.6 389.679 728.434C388.7 727.245 387.172 726.65 385.097 726.65C383.022 726.65 381.402 727.292 380.236 728.574C379.07 729.833 378.487 731.605 378.487 733.89V739.626C378.487 741.911 379.07 743.695 380.236 744.978C381.402 746.237 383.022 746.866 385.097 746.866C387.172 746.866 388.7 746.283 389.679 745.118C390.682 743.928 391.183 742.413 391.183 740.571V740.011H394.086V740.466C394.086 743.264 393.305 745.467 391.743 747.076C390.204 748.685 387.989 749.489 385.097 749.489Z" fill="#0055FF"/>
<path d="M84.1016 795V793.085C84.1016 791.773 84.3289 790.724 84.7836 789.937C85.2558 789.15 85.9028 788.521 86.7247 788.048C87.5641 787.559 88.5609 787.139 89.7151 786.789L91.1579 786.343C91.9448 786.099 92.6356 785.801 93.2301 785.451C93.8247 785.084 94.2882 784.63 94.6204 784.087C94.9527 783.528 95.1188 782.846 95.1188 782.041V781.936C95.1188 780.782 94.7166 779.873 93.9122 779.208C93.1077 778.526 92.076 778.185 90.8168 778.185C89.4878 778.185 88.4035 778.544 87.5641 779.261C86.7247 779.96 86.305 781.027 86.305 782.461V782.828H84.2065V782.487C84.2065 781.158 84.495 780.03 85.0721 779.103C85.6492 778.177 86.4362 777.477 87.433 777.005C88.4298 776.515 89.5577 776.27 90.8168 776.27C92.076 776.27 93.1864 776.507 94.1482 776.979C95.1276 777.451 95.8883 778.107 96.4304 778.946C96.9725 779.785 97.2436 780.765 97.2436 781.884V782.12C97.2436 783.309 97.0075 784.297 96.5353 785.084C96.0632 785.854 95.4074 786.483 94.568 786.973C93.746 787.463 92.7755 787.882 91.6563 788.232L90.2397 788.678C89.3479 788.958 88.6046 789.255 88.0101 789.57C87.433 789.867 86.9958 790.252 86.6985 790.724C86.4012 791.196 86.2525 791.835 86.2525 792.639V793.085H97.0862V795H84.1016Z" fill="#CACED2"/>
<path d="M106.675 795.367C105.258 795.367 104.025 795.157 102.976 794.737C101.944 794.3 101.14 793.697 100.563 792.927C100.003 792.141 99.7235 791.222 99.7235 790.173V789.885C99.7235 788.975 99.9158 788.223 100.301 787.629C100.685 787.034 101.149 786.579 101.691 786.265C102.25 785.932 102.766 785.723 103.239 785.635V785.294C102.766 785.154 102.277 784.927 101.77 784.612C101.28 784.297 100.869 783.869 100.537 783.327C100.222 782.785 100.064 782.12 100.064 781.333V781.045C100.064 780.048 100.344 779.2 100.904 778.5C101.481 777.783 102.268 777.232 103.265 776.848C104.262 776.463 105.398 776.27 106.675 776.27C107.969 776.27 109.106 776.463 110.085 776.848C111.082 777.232 111.86 777.783 112.42 778.5C112.997 779.2 113.285 780.048 113.285 781.045V781.333C113.285 782.12 113.128 782.785 112.813 783.327C112.498 783.869 112.096 784.297 111.606 784.612C111.117 784.927 110.627 785.154 110.137 785.294V785.635C110.627 785.723 111.143 785.932 111.685 786.265C112.227 786.579 112.682 787.034 113.049 787.629C113.434 788.223 113.626 788.975 113.626 789.885V790.173C113.626 791.222 113.346 792.141 112.787 792.927C112.227 793.697 111.423 794.3 110.373 794.737C109.342 795.157 108.109 795.367 106.675 795.367ZM106.675 793.452C108.161 793.452 109.333 793.164 110.19 792.586C111.064 792.009 111.501 791.17 111.501 790.068V789.858C111.501 788.757 111.073 787.917 110.216 787.34C109.359 786.763 108.179 786.475 106.675 786.475C105.188 786.475 104.017 786.763 103.16 787.34C102.303 787.917 101.874 788.757 101.874 789.858V790.068C101.874 791.17 102.303 792.009 103.16 792.586C104.034 793.164 105.206 793.452 106.675 793.452ZM106.675 784.56C108.074 784.56 109.167 784.297 109.954 783.773C110.758 783.231 111.16 782.47 111.16 781.491V781.281C111.16 780.284 110.758 779.523 109.954 778.999C109.149 778.456 108.056 778.185 106.675 778.185C105.293 778.185 104.2 778.456 103.396 778.999C102.591 779.523 102.189 780.284 102.189 781.281V781.491C102.189 782.47 102.591 783.231 103.396 783.773C104.2 784.297 105.293 784.56 106.675 784.56Z" fill="#CACED2"/>
<path d="M129.205 795.367C128.103 795.367 127.089 795.105 126.162 794.58C125.235 794.055 124.5 793.295 123.958 792.298C123.416 791.301 123.145 790.121 123.145 788.757V788.416C123.145 787.052 123.416 785.88 123.958 784.901C124.5 783.904 125.226 783.143 126.136 782.618C127.062 782.076 128.085 781.805 129.205 781.805C130.097 781.805 130.849 781.928 131.461 782.173C132.09 782.4 132.597 782.697 132.982 783.064C133.367 783.414 133.664 783.79 133.874 784.192H134.241V776.638H136.313V795H134.294V792.875H133.926C133.577 793.522 133.034 794.099 132.3 794.606C131.566 795.113 130.534 795.367 129.205 795.367ZM129.756 793.531C131.085 793.531 132.16 793.111 132.982 792.272C133.821 791.415 134.241 790.226 134.241 788.704V788.468C134.241 786.947 133.821 785.766 132.982 784.927C132.16 784.07 131.085 783.642 129.756 783.642C128.444 783.642 127.36 784.07 126.503 784.927C125.663 785.766 125.244 786.947 125.244 788.468V788.704C125.244 790.226 125.663 791.415 126.503 792.272C127.36 793.111 128.444 793.531 129.756 793.531Z" fill="#CACED2"/>
<path d="M146.532 795.367C145.238 795.367 144.101 795.096 143.122 794.554C142.143 793.994 141.382 793.216 140.84 792.219C140.298 791.222 140.027 790.068 140.027 788.757V788.442C140.027 787.113 140.298 785.95 140.84 784.953C141.382 783.956 142.134 783.187 143.096 782.645C144.058 782.085 145.159 781.805 146.401 781.805C147.608 781.805 148.674 782.068 149.601 782.592C150.528 783.099 151.254 783.834 151.778 784.796C152.303 785.758 152.565 786.885 152.565 788.18V789.124H142.099C142.151 790.505 142.597 791.59 143.437 792.377C144.276 793.146 145.325 793.531 146.585 793.531C147.686 793.531 148.534 793.277 149.129 792.77C149.724 792.263 150.178 791.66 150.493 790.96L152.277 791.826C152.014 792.368 151.647 792.91 151.175 793.452C150.72 793.994 150.117 794.449 149.365 794.816C148.631 795.183 147.686 795.367 146.532 795.367ZM142.125 787.419H150.467C150.397 786.23 149.986 785.303 149.234 784.638C148.499 783.974 147.555 783.642 146.401 783.642C145.229 783.642 144.267 783.974 143.515 784.638C142.763 785.303 142.3 786.23 142.125 787.419Z" fill="#CACED2"/>
<path d="M169.501 795.367C167.315 795.367 165.567 794.737 164.255 793.478C162.961 792.202 162.314 790.348 162.314 787.917V783.72C162.314 781.289 162.961 779.444 164.255 778.185C165.567 776.909 167.315 776.27 169.501 776.27C171.705 776.27 173.453 776.909 174.748 778.185C176.059 779.444 176.715 781.289 176.715 783.72V787.917C176.715 790.348 176.059 792.202 174.748 793.478C173.453 794.737 171.705 795.367 169.501 795.367ZM169.501 793.4C171.093 793.4 172.326 792.927 173.2 791.983C174.074 791.021 174.511 789.692 174.511 787.996V783.642C174.511 781.945 174.074 780.625 173.2 779.681C172.326 778.719 171.093 778.238 169.501 778.238C167.927 778.238 166.703 778.719 165.829 779.681C164.954 780.625 164.517 781.945 164.517 783.642V787.996C164.517 789.692 164.954 791.021 165.829 791.983C166.703 792.927 167.927 793.4 169.501 793.4Z" fill="#CACED2"/>
<path d="M185.37 795.236C184.443 795.236 183.586 795.035 182.799 794.633C182.03 794.23 181.418 793.636 180.963 792.849C180.526 792.044 180.307 791.074 180.307 789.937V782.173H182.38V789.78C182.38 791.056 182.694 791.983 183.324 792.56C183.971 793.137 184.837 793.426 185.921 793.426C187.145 793.426 188.15 793.024 188.937 792.219C189.724 791.415 190.118 790.217 190.118 788.626V782.173H192.19V795H190.17V792.823H189.803C189.523 793.435 189.042 793.994 188.36 794.501C187.678 794.991 186.681 795.236 185.37 795.236Z" fill="#CACED2"/>
<path d="M201.248 795C200.514 795 199.945 794.799 199.543 794.396C199.158 793.994 198.966 793.443 198.966 792.744V783.983H195.11V782.173H198.966V777.608H201.038V782.173H205.235V783.983H201.038V792.429C201.038 792.954 201.292 793.216 201.799 793.216H204.658V795H201.248Z" fill="#CACED2"/>
<path d="M213.497 795.236C212.57 795.236 211.713 795.035 210.926 794.633C210.157 794.23 209.545 793.636 209.09 792.849C208.653 792.044 208.434 791.074 208.434 789.937V782.173H210.507V789.78C210.507 791.056 210.821 791.983 211.451 792.56C212.098 793.137 212.964 793.426 214.048 793.426C215.272 793.426 216.278 793.024 217.065 792.219C217.852 791.415 218.245 790.217 218.245 788.626V782.173H220.317V795H218.297V792.823H217.93C217.65 793.435 217.17 793.994 216.488 794.501C215.805 794.991 214.809 795.236 213.497 795.236Z" fill="#CACED2"/>
<path d="M231.762 795.367C230.433 795.367 229.393 795.113 228.641 794.606C227.906 794.099 227.373 793.522 227.041 792.875H226.673V795H224.654V776.638H226.726V784.192H227.093C227.303 783.79 227.6 783.414 227.985 783.064C228.37 782.697 228.868 782.4 229.48 782.173C230.11 781.928 230.87 781.805 231.762 781.805C232.881 781.805 233.896 782.076 234.805 782.618C235.732 783.143 236.466 783.904 237.009 784.901C237.551 785.88 237.822 787.052 237.822 788.416V788.757C237.822 790.121 237.542 791.301 236.982 792.298C236.44 793.295 235.706 794.055 234.779 794.58C233.87 795.105 232.864 795.367 231.762 795.367ZM231.211 793.531C232.54 793.531 233.616 793.111 234.438 792.272C235.277 791.415 235.697 790.226 235.697 788.704V788.468C235.697 786.947 235.277 785.766 234.438 784.927C233.616 784.07 232.54 783.642 231.211 783.642C229.9 783.642 228.816 784.07 227.959 784.927C227.119 785.766 226.7 786.947 226.7 788.468V788.704C226.7 790.226 227.119 791.415 227.959 792.272C228.816 793.111 229.9 793.531 231.211 793.531Z" fill="#CACED2"/>
<path d="M241.535 795V782.173H243.555V783.746H243.922C244.149 783.187 244.499 782.776 244.971 782.514C245.443 782.251 246.064 782.12 246.834 782.12H248.355V784.009H246.703C245.776 784.009 245.024 784.271 244.447 784.796C243.887 785.303 243.607 786.099 243.607 787.183V795H241.535Z" fill="#CACED2"/>
<path d="M256.89 795.367C255.596 795.367 254.451 795.096 253.454 794.554C252.475 794.012 251.705 793.251 251.146 792.272C250.603 791.275 250.332 790.103 250.332 788.757V788.416C250.332 787.087 250.603 785.924 251.146 784.927C251.705 783.93 252.475 783.161 253.454 782.618C254.451 782.076 255.596 781.805 256.89 781.805C258.184 781.805 259.321 782.076 260.3 782.618C261.297 783.161 262.067 783.93 262.609 784.927C263.168 785.924 263.448 787.087 263.448 788.416V788.757C263.448 790.103 263.168 791.275 262.609 792.272C262.067 793.251 261.297 794.012 260.3 794.554C259.321 795.096 258.184 795.367 256.89 795.367ZM256.89 793.505C258.254 793.505 259.339 793.076 260.143 792.219C260.965 791.345 261.376 790.173 261.376 788.704V788.468C261.376 786.999 260.965 785.836 260.143 784.979C259.339 784.105 258.254 783.668 256.89 783.668C255.544 783.668 254.459 784.105 253.638 784.979C252.816 785.836 252.405 786.999 252.405 788.468V788.704C252.405 790.173 252.816 791.345 253.638 792.219C254.459 793.076 255.544 793.505 256.89 793.505Z" fill="#CACED2"/>
<defs>
<linearGradient id="paint0_linear_2887_3020" x1="511.854" y1="1047.95" x2="-244.641" y2="703.851" gradientUnits="userSpaceOnUse">
<stop stop-color="#F1BCF2"/>
<stop offset="0.239583" stop-color="#F6CF44"/>
<stop offset="0.510417" stop-color="#72E4FD"/>
<stop offset="0.744792" stop-color="#A8EB87"/>
<stop offset="1" stop-color="#F1BCF2"/>
</linearGradient>
<linearGradient id="paint1_linear_2887_3020" x1="566.525" y1="1204.99" x2="86.5689" y2="-69.8985" gradientUnits="userSpaceOnUse">
<stop stop-opacity="0"/>
<stop offset="1"/>
</linearGradient>
<radialGradient id="paint2_radial_2887_3020" cx="0" cy="0" r="1" gradientUnits="userSpaceOnUse" gradientTransform="translate(477.997 1202.09) rotate(-141.097) scale(474.025 833.241)">
<stop stop-color="#2AA8D0"/>
<stop offset="0.203455" stop-color="#ADF664"/>
<stop offset="0.401848" stop-color="#FABFA5"/>
<stop offset="0.615048" stop-color="#FCF4AB"/>
<stop offset="0.823232" stop-color="#5DF7A4"/>
<stop offset="1" stop-color="#58D0F6"/>
</radialGradient>
<linearGradient id="paint3_linear_2887_3020" x1="506.346" y1="1232.88" x2="284.437" y2="770.829" gradientUnits="userSpaceOnUse">
<stop stop-color="white"/>
<stop offset="0.546875"/>
<stop offset="1" stop-color="white"/>
</linearGradient>
<linearGradient id="paint4_linear_2887_3020" x1="514.243" y1="946.715" x2="244.403" y2="1287.29" gradientUnits="userSpaceOnUse">
<stop stop-color="white" stop-opacity="0"/>
<stop offset="0.494792" stop-color="white"/>
<stop offset="1" stop-color="white" stop-opacity="0"/>
</linearGradient>
</defs>
</svg>
