<svg width="597" height="1249" viewBox="0 0 597 1249" fill="none" xmlns="http://www.w3.org/2000/svg">
<path d="M10.5914 30.1188C10.7158 15.8591 23.5269 4.2946 39.259 4.30882L234.556 4.47477L234.577 5.99795C235.117 37.1395 263.441 62.4931 297.703 62.5305C331.948 62.5679 360.18 37.2463 360.641 6.11353L360.655 4.59065L555.951 4.7566C563.618 4.76197 570.83 7.48631 576.262 12.4258C581.676 17.3497 584.675 23.8986 584.684 30.8521L585.662 856.771C585.653 865.632 581.181 873.547 573.647 878.019C568.283 881.157 565.076 886.498 565.026 892.313C565.025 892.374 565.025 892.42 565.024 892.466C565.025 898.343 568.259 903.756 573.671 906.926C581.213 911.407 585.72 919.353 585.729 928.184L586.079 1218.53C586.088 1225.45 583.112 1232.02 577.699 1236.93C572.285 1241.87 565.077 1244.57 557.41 1244.57L362.148 1244.4L362.161 1242.86C362.122 1227.52 355.548 1213.1 343.606 1202.24C331.681 1191.4 315.846 1185.43 299.025 1185.41C282.171 1185.4 266.335 1191.34 254.428 1202.15C242.504 1212.99 236.006 1227.42 235.976 1242.75L235.962 1244.28L40.7178 1244.12C33.0503 1244.11 25.8383 1241.39 20.4071 1236.45C14.9929 1231.53 11.9934 1224.98 11.985 1218.02L11.652 927.697C11.6254 918.866 16.1329 910.921 23.6668 906.449C29.0304 903.311 32.2374 897.97 32.2881 892.156C32.2886 892.094 32.289 892.048 32.2894 892.002C32.2889 886.125 29.0549 880.712 23.6428 877.542C16.1007 873.061 11.5937 865.115 11.5844 856.284L10.6065 30.3651C10.6072 30.2882 10.6078 30.2113 10.6086 30.119L10.5914 30.1188ZM231.161 7.55267L39.2495 7.3855C25.3306 7.37172 14.0157 17.6724 14.026 30.3488L15.0039 856.268C15.0048 864.068 18.9504 871.056 25.513 874.974C31.8872 878.722 35.7 885.078 35.7087 892.001C35.786 898.97 31.9144 905.29 25.5441 909.019C18.9823 912.915 14.9838 919.911 15.0714 927.696L15.4043 1218.02C15.4199 1224.16 18.0461 1229.94 22.8436 1234.29C27.6237 1238.64 33.958 1241.03 40.6758 1241.03L232.501 1241.19C232.913 1225.61 239.758 1211.04 251.926 1199.99C264.477 1188.58 281.196 1182.31 298.983 1182.33C316.753 1182.35 333.467 1188.65 346.043 1200.08C358.224 1211.14 365.108 1225.73 365.542 1241.31L557.368 1241.47C564.103 1241.49 570.427 1239.1 575.196 1234.77C579.966 1230.43 582.624 1224.69 582.591 1218.51L582.258 928.184C582.257 920.385 578.312 913.397 571.749 909.478C565.375 905.73 561.562 899.374 561.553 892.452C561.51 885.513 565.348 879.162 571.718 875.433C578.21 871.583 582.121 864.694 582.189 856.987C582.189 856.91 582.19 856.833 582.191 856.756L581.23 30.8528C581.214 24.7145 578.588 18.938 573.791 14.5887C569.01 10.2395 562.676 7.8459 555.958 7.84881L364.047 7.68163C362.679 39.7911 333.268 65.6408 297.694 65.6072C262.102 65.5735 232.59 39.6712 231.161 7.56806L231.161 7.55267Z" fill="url(#paint0_linear_2302_1436)"/>
<mask id="path-2-inside-1_2302_1436" fill="white">
<path d="M29.4149 928.162C29.4065 925.162 30.8121 922.406 32.9646 921.132C43.6398 914.872 50.054 904.144 50.035 892.467C50.0159 880.806 43.5819 870.058 32.8266 863.734C30.6962 862.469 29.321 859.765 29.3302 856.735L28.3523 30.8153C28.3442 25.8001 32.8179 21.7316 38.344 21.7337L216.958 21.8925C225.252 54.994 258.106 79.9102 296.788 79.9554C335.454 79.9852 368.223 55.1186 376.439 22.0382L555.053 22.197C560.562 22.1989 565.051 26.2841 565.059 31.2993L566.037 857.219C566.045 860.265 564.674 862.96 562.487 864.249C551.812 870.509 545.398 881.237 545.417 892.914C545.436 904.59 551.87 915.323 562.625 921.647C564.721 922.896 566.13 925.662 566.122 928.646L566.455 1218.97C566.463 1223.99 561.989 1228.06 556.463 1228.05L378.125 1227.9C370.25 1194.26 337.331 1168.93 298.061 1168.89C258.774 1168.86 225.897 1194.14 218.092 1227.75L39.7537 1227.59C34.2449 1227.59 29.756 1223.5 29.748 1218.49L29.4149 928.162Z"/>
</mask>
<path d="M29.4149 928.162C29.4065 925.162 30.8121 922.406 32.9646 921.132C43.6398 914.872 50.054 904.144 50.035 892.467C50.0159 880.806 43.5819 870.058 32.8266 863.734C30.6962 862.469 29.321 859.765 29.3302 856.735L28.3523 30.8153C28.3442 25.8001 32.8179 21.7316 38.344 21.7337L216.958 21.8925C225.252 54.994 258.106 79.9102 296.788 79.9554C335.454 79.9852 368.223 55.1186 376.439 22.0382L555.053 22.197C560.562 22.1989 565.051 26.2841 565.059 31.2993L566.037 857.219C566.045 860.265 564.674 862.96 562.487 864.249C551.812 870.509 545.398 881.237 545.417 892.914C545.436 904.59 551.87 915.323 562.625 921.647C564.721 922.896 566.13 925.662 566.122 928.646L566.455 1218.97C566.463 1223.99 561.989 1228.06 556.463 1228.05L378.125 1227.9C370.25 1194.26 337.331 1168.93 298.061 1168.89C258.774 1168.86 225.897 1194.14 218.092 1227.75L39.7537 1227.59C34.2449 1227.59 29.756 1223.5 29.748 1218.49L29.4149 928.162Z" fill="url(#paint1_linear_2302_1436)"/>
<path d="M29.4149 928.162L31.6009 928.16L31.6008 928.156L29.4149 928.162ZM32.9646 921.132L31.8588 919.247L31.8515 919.251L32.9646 921.132ZM50.035 892.467L52.221 892.464L50.035 892.467ZM32.8266 863.734L31.7106 865.614L31.7185 865.618L32.8266 863.734ZM29.3302 856.735L31.5162 856.741L31.5162 856.732L29.3302 856.735ZM28.3523 30.8153L30.5382 30.8127L30.5383 30.8118L28.3523 30.8153ZM38.344 21.7337L38.346 19.5478L38.3449 19.5478L38.344 21.7337ZM216.958 21.8925L219.079 21.3612C218.835 20.3894 217.962 19.7075 216.96 19.7066L216.958 21.8925ZM296.788 79.9554L296.786 82.1414L296.787 82.1414L296.788 79.9554ZM376.439 22.0382L376.441 19.8522C375.436 19.8514 374.559 20.5359 374.317 21.5113L376.439 22.0382ZM555.053 22.197L555.051 24.383L555.052 24.383L555.053 22.197ZM565.059 31.2993L567.245 31.2967L567.245 31.2958L565.059 31.2993ZM566.037 857.219L563.851 857.221L563.851 857.224L566.037 857.219ZM562.487 864.249L563.593 866.134L563.597 866.132L562.487 864.249ZM562.625 921.647L563.744 919.769L563.733 919.763L562.625 921.647ZM566.122 928.646L563.936 928.64L563.936 928.649L566.122 928.646ZM566.455 1218.97L564.269 1218.98L564.269 1218.98L566.455 1218.97ZM556.463 1228.05L556.461 1230.24L556.462 1230.24L556.463 1228.05ZM378.125 1227.9L375.996 1228.4C376.228 1229.38 377.108 1230.08 378.123 1230.08L378.125 1227.9ZM298.061 1168.89L298.059 1171.08L298.059 1171.08L298.061 1168.89ZM218.092 1227.75L218.09 1229.93C219.107 1229.93 219.991 1229.23 220.221 1228.24L218.092 1227.75ZM39.7537 1227.59L39.7557 1225.4L39.7545 1225.4L39.7537 1227.59ZM29.748 1218.49L27.562 1218.49L27.562 1218.49L29.748 1218.49ZM31.6008 928.156C31.5942 925.763 32.7254 923.814 34.0776 923.014L31.8515 919.251C28.8988 920.998 27.2189 924.562 27.2289 928.169L31.6008 928.156ZM34.0704 923.018C45.3623 916.396 52.2413 904.977 52.221 892.464L47.8491 892.471C47.8667 903.31 41.9174 913.348 31.8588 919.247L34.0704 923.018ZM52.221 892.464C52.2005 879.966 45.3004 868.533 33.9346 861.85L31.7185 865.618C41.8634 871.584 47.8314 881.646 47.8491 892.471L52.221 892.464ZM33.9425 861.854C32.6174 861.068 31.5088 859.176 31.5162 856.741L27.1442 856.728C27.1333 860.355 28.775 863.871 31.7107 865.614L33.9425 861.854ZM31.5162 856.732L30.5382 30.8127L26.1663 30.8179L27.1442 856.737L31.5162 856.732ZM30.5383 30.8118C30.5324 27.1996 33.8224 23.918 38.3432 23.9197L38.3449 19.5478C31.8134 19.5453 26.156 24.4006 26.1663 30.8188L30.5383 30.8118ZM38.3421 23.9197L216.957 24.0785L216.96 19.7066L38.346 19.5478L38.3421 23.9197ZM214.838 22.4238C223.401 56.5972 257.209 82.0951 296.786 82.1414L296.791 77.7695C259.003 77.7252 227.104 53.3908 219.079 21.3612L214.838 22.4238ZM296.787 82.1414C336.349 82.1718 370.078 56.7216 378.56 22.5651L374.317 21.5113C366.369 53.5157 334.558 77.7985 296.79 77.7695L296.787 82.1414ZM376.437 24.2242L555.051 24.383L555.055 20.0111L376.441 19.8522L376.437 24.2242ZM555.052 24.383C559.552 24.3846 562.867 27.6804 562.873 31.3028L567.245 31.2958C567.235 24.8877 561.572 20.0133 555.054 20.0111L555.052 24.383ZM562.873 31.3018L563.851 857.221L568.223 857.216L567.245 31.2967L562.873 31.3018ZM563.851 857.224C563.857 859.668 562.759 861.552 561.377 862.365L563.597 866.132C566.59 864.369 568.232 860.862 568.223 857.213L563.851 857.224ZM561.381 862.363C550.089 868.985 543.21 880.404 543.231 892.917L547.603 892.91C547.585 882.071 553.534 872.033 563.593 866.134L561.381 862.363ZM543.231 892.917C543.251 905.431 550.152 916.848 561.517 923.531L563.733 919.763C553.588 913.797 547.62 903.749 547.603 892.91L543.231 892.917ZM561.506 923.525C562.802 924.297 563.943 926.254 563.936 928.64L568.307 928.653C568.318 925.07 566.641 921.495 563.744 919.769L561.506 923.525ZM563.936 928.649L564.269 1218.98L568.641 1218.97L568.307 928.644L563.936 928.649ZM564.269 1218.98C564.274 1222.59 560.984 1225.87 556.464 1225.87L556.462 1230.24C562.993 1230.24 568.651 1225.39 568.641 1218.97L564.269 1218.98ZM556.465 1225.87L378.127 1225.71L378.123 1230.08L556.461 1230.24L556.465 1225.87ZM380.253 1227.4C372.122 1192.67 338.236 1166.74 298.063 1166.71L298.059 1171.08C336.427 1171.11 368.377 1195.85 375.996 1228.4L380.253 1227.4ZM298.063 1166.71C257.873 1166.67 224.023 1192.55 215.963 1227.25L220.221 1228.24C227.771 1195.73 259.675 1171.05 298.059 1171.08L298.063 1166.71ZM218.094 1225.56L39.7557 1225.4L39.7518 1229.78L218.09 1229.93L218.094 1225.56ZM39.7545 1225.4C35.2551 1225.4 31.9397 1222.11 31.9339 1218.49L27.562 1218.49C27.5723 1224.9 33.2346 1229.77 39.753 1229.78L39.7545 1225.4ZM31.9339 1218.49L31.6009 928.16L27.229 928.165L27.562 1218.49L31.9339 1218.49Z" fill="black" mask="url(#path-2-inside-1_2302_1436)"/>
<mask id="path-4-inside-2_2302_1436" fill="white">
<path fill-rule="evenodd" clip-rule="evenodd" d="M49.6288 889.238C163.388 888.973 410.796 888.61 545.372 890.031C545.369 890.198 545.368 890.366 545.368 890.534C545.386 902.335 551.824 913.18 562.586 919.571C564.684 920.833 566.094 923.628 566.085 926.644L566.393 1220.05C566.4 1225.12 561.923 1229.23 556.393 1229.23L377.931 1229.09C370.054 1195.09 337.114 1169.5 297.817 1169.46C258.503 1169.43 225.601 1194.98 217.787 1228.95L39.3249 1228.8C33.8122 1228.8 29.3205 1224.68 29.3129 1219.61L29.0048 926.201C28.9967 923.17 30.4034 920.383 32.5576 919.096C43.2407 912.769 49.6603 901.926 49.6423 890.126C49.6419 889.829 49.6373 889.533 49.6288 889.238Z"/>
</mask>
<path fill-rule="evenodd" clip-rule="evenodd" d="M49.6288 889.238C163.388 888.973 410.796 888.61 545.372 890.031C545.369 890.198 545.368 890.366 545.368 890.534C545.386 902.335 551.824 913.18 562.586 919.571C564.684 920.833 566.094 923.628 566.085 926.644L566.393 1220.05C566.4 1225.12 561.923 1229.23 556.393 1229.23L377.931 1229.09C370.054 1195.09 337.114 1169.5 297.817 1169.46C258.503 1169.43 225.601 1194.98 217.787 1228.95L39.3249 1228.8C33.8122 1228.8 29.3205 1224.68 29.3129 1219.61L29.0048 926.201C28.9967 923.17 30.4034 920.383 32.5576 919.096C43.2407 912.769 49.6603 901.926 49.6423 890.126C49.6419 889.829 49.6373 889.533 49.6288 889.238Z" fill="url(#paint2_radial_2302_1436)"/>
<path fill-rule="evenodd" clip-rule="evenodd" d="M49.6288 889.238C163.388 888.973 410.796 888.61 545.372 890.031C545.369 890.198 545.368 890.366 545.368 890.534C545.386 902.335 551.824 913.18 562.586 919.571C564.684 920.833 566.094 923.628 566.085 926.644L566.393 1220.05C566.4 1225.12 561.923 1229.23 556.393 1229.23L377.931 1229.09C370.054 1195.09 337.114 1169.5 297.817 1169.46C258.503 1169.43 225.601 1194.98 217.787 1228.95L39.3249 1228.8C33.8122 1228.8 29.3205 1224.68 29.3129 1219.61L29.0048 926.201C28.9967 923.17 30.4034 920.383 32.5576 919.096C43.2407 912.769 49.6603 901.926 49.6423 890.126C49.6419 889.829 49.6373 889.533 49.6288 889.238Z" fill="url(#paint3_linear_2302_1436)" fill-opacity="0.2" style="mix-blend-mode:difference"/>
<path fill-rule="evenodd" clip-rule="evenodd" d="M49.6288 889.238C163.388 888.973 410.796 888.61 545.372 890.031C545.369 890.198 545.368 890.366 545.368 890.534C545.386 902.335 551.824 913.18 562.586 919.571C564.684 920.833 566.094 923.628 566.085 926.644L566.393 1220.05C566.4 1225.12 561.923 1229.23 556.393 1229.23L377.931 1229.09C370.054 1195.09 337.114 1169.5 297.817 1169.46C258.503 1169.43 225.601 1194.98 217.787 1228.95L39.3249 1228.8C33.8122 1228.8 29.3205 1224.68 29.3129 1219.61L29.0048 926.201C28.9967 923.17 30.4034 920.383 32.5576 919.096C43.2407 912.769 49.6603 901.926 49.6423 890.126C49.6419 889.829 49.6373 889.533 49.6288 889.238Z" fill="url(#paint4_linear_2302_1436)" style="mix-blend-mode:screen"/>
<path d="M49.6288 889.238L49.6237 887.052L47.3789 887.057L47.4437 889.301L49.6288 889.238ZM545.372 890.031L547.557 890.061L547.588 887.868L545.395 887.845L545.372 890.031ZM545.368 890.534L543.182 890.538L543.182 890.538L545.368 890.534ZM562.586 919.571L563.713 917.698L563.702 917.691L562.586 919.571ZM566.085 926.644L563.899 926.638L563.899 926.646L566.085 926.644ZM566.393 1220.05L564.207 1220.05L564.207 1220.05L566.393 1220.05ZM556.393 1229.23L556.391 1231.41L556.393 1231.41L556.393 1229.23ZM377.931 1229.09L375.802 1229.58L376.193 1231.27L377.929 1231.27L377.931 1229.09ZM297.817 1169.46L297.815 1171.65L297.815 1171.65L297.817 1169.46ZM217.787 1228.95L217.785 1231.13L219.527 1231.13L219.917 1229.44L217.787 1228.95ZM39.3249 1228.8L39.3267 1226.62L39.3255 1226.62L39.3249 1228.8ZM29.3129 1219.61L27.127 1219.61L27.127 1219.61L29.3129 1219.61ZM29.0048 926.201L31.1907 926.199L31.1907 926.196L29.0048 926.201ZM32.5576 919.096L31.4436 917.215L31.4363 917.22L32.5576 919.096ZM49.6423 890.126L51.8283 890.123L51.8283 890.123L49.6423 890.126ZM49.6339 891.424C163.397 891.159 410.79 890.796 545.348 892.216L545.395 887.845C410.802 886.424 163.379 886.787 49.6237 887.052L49.6339 891.424ZM543.186 890C543.183 890.179 543.182 890.358 543.182 890.538L547.554 890.531C547.554 890.374 547.555 890.218 547.557 890.061L543.186 890ZM543.182 890.538C543.202 903.165 550.096 914.696 561.47 921.45L563.702 917.691C553.552 911.664 547.571 901.504 547.554 890.531L543.182 890.538ZM561.459 921.444C562.756 922.224 563.906 924.21 563.899 926.638L568.27 926.651C568.281 923.046 566.611 919.441 563.713 917.698L561.459 921.444ZM563.899 926.646L564.207 1220.05L568.579 1220.05L568.27 926.642L563.899 926.646ZM564.207 1220.05C564.212 1223.74 560.897 1227.04 556.394 1227.04L556.393 1231.41C562.949 1231.42 568.588 1226.5 568.579 1220.05L564.207 1220.05ZM556.395 1227.04L377.933 1226.9L377.929 1231.27L556.391 1231.41L556.395 1227.04ZM380.061 1228.59C371.932 1193.52 338.034 1167.31 297.819 1167.28L297.815 1171.65C336.194 1171.68 368.175 1196.67 375.802 1229.58L380.061 1228.59ZM297.819 1167.28C257.586 1167.24 223.721 1193.41 215.657 1228.46L219.917 1229.44C227.481 1196.56 259.419 1171.62 297.815 1171.65L297.819 1167.28ZM217.789 1226.76L39.3267 1226.62L39.3232 1230.99L217.785 1231.13L217.789 1226.76ZM39.3255 1226.62C34.8434 1226.62 31.5045 1223.3 31.4989 1219.6L27.127 1219.61C27.1366 1226.05 32.781 1230.99 39.3243 1230.99L39.3255 1226.62ZM31.4989 1219.6L31.1907 926.199L26.8188 926.204L27.127 1219.61L31.4989 1219.6ZM31.1907 926.196C31.1842 923.76 32.3244 921.782 33.6788 920.973L31.4363 917.22C28.4824 918.985 26.8091 922.579 26.8188 926.207L31.1907 926.196ZM33.6716 920.977C44.9733 914.283 51.8475 902.749 51.8283 890.123L47.4564 890.129C47.4731 901.103 41.5082 911.254 31.4436 917.215L33.6716 920.977ZM51.8283 890.123C51.8277 889.806 51.8229 889.49 51.8138 889.175L47.4437 889.301C47.4517 889.577 47.4559 889.853 47.4564 890.129L51.8283 890.123Z" fill="black" mask="url(#path-4-inside-2_2302_1436)"/>
<path d="M33.9138 890.973C33.9215 890.085 34.6997 889.365 35.6645 889.373L56.716 889.379C57.6807 889.387 58.4639 890.105 58.4737 890.993C58.4663 891.833 57.6878 892.602 56.7228 892.609L35.6714 892.603C34.7066 892.595 33.9234 891.877 33.9136 890.989L33.9138 890.973ZM76.0165 891.001C76.0243 890.113 76.8025 889.393 77.7673 889.401L98.8187 889.407C99.7835 889.416 100.567 890.133 100.576 891.022C100.569 891.91 99.7905 892.63 98.8256 892.638L77.7741 892.632C76.8094 892.623 76.0262 891.906 76.0164 891.017L76.0165 891.001ZM118.119 891.029C118.127 890.141 118.905 889.421 119.87 889.429L140.921 889.435C141.886 889.444 142.669 890.161 142.679 891.05C142.671 891.986 141.893 892.658 140.928 892.666L119.877 892.66C118.912 892.651 118.129 891.934 118.119 891.045L118.119 891.029ZM160.222 891.058C160.23 890.169 161.008 889.449 161.973 889.458L183.024 889.464C183.989 889.472 184.772 890.19 184.782 891.078C184.739 891.982 183.996 892.686 183.031 892.694L161.98 892.688C161.015 892.68 160.232 891.962 160.222 891.074L160.222 891.058ZM202.325 891.086C202.333 890.198 203.111 889.477 204.075 889.486L225.127 889.492C226.092 889.5 226.875 890.218 226.885 891.106C226.877 891.995 226.099 892.715 225.134 892.706L204.083 892.7C203.118 892.692 202.335 891.974 202.325 891.086ZM244.428 891.114C244.435 890.226 245.213 889.506 246.178 889.514L267.23 889.52C268.194 889.529 268.978 890.246 268.987 891.135C268.98 892.023 268.202 892.743 267.237 892.734L246.185 892.728C245.221 892.72 244.437 892.003 244.428 891.114ZM286.53 891.142C286.538 890.254 287.316 889.534 288.281 889.542L309.332 889.549C310.297 889.557 311.08 890.274 311.09 891.163C311.082 892.051 310.304 892.771 309.34 892.763L288.288 892.757C287.323 892.748 286.54 892.031 286.53 891.142ZM328.633 891.171C328.641 890.282 329.419 889.562 330.384 889.571L351.435 889.577C352.4 889.585 353.183 890.303 353.193 891.191C353.185 892.079 352.407 892.799 351.442 892.791L330.391 892.785C329.426 892.776 328.643 892.059 328.633 891.171ZM370.736 891.199C370.744 890.311 371.522 889.591 372.487 889.599L393.538 889.605C394.503 889.613 395.286 890.331 395.296 891.219C395.288 892.108 394.51 892.828 393.545 892.819L372.494 892.813C371.529 892.805 370.746 892.087 370.736 891.199ZM412.839 891.227C412.846 890.339 413.624 889.619 414.589 889.627L435.641 889.633C436.606 889.642 437.389 890.359 437.398 891.248C437.391 892.136 436.613 892.856 435.648 892.847L414.596 892.841C413.632 892.833 412.848 892.115 412.839 891.227ZM454.941 891.255C454.949 890.367 455.727 889.647 456.692 889.655L477.743 889.661C478.708 889.67 479.491 890.387 479.501 891.276C479.493 892.164 478.715 892.884 477.751 892.876L456.699 892.87C455.734 892.861 454.951 892.144 454.941 891.255ZM497.044 891.284C497.052 890.395 497.83 889.675 498.795 889.684L519.846 889.69C520.811 889.698 521.594 890.416 521.604 891.304C521.596 892.192 520.818 892.912 519.853 892.904L498.802 892.898C497.837 892.889 497.054 892.172 497.044 891.284ZM539.147 891.312C539.155 890.423 539.933 889.703 540.898 889.712L561.949 889.718C562.914 889.726 563.697 890.444 563.707 891.332C563.699 892.221 562.921 892.941 561.956 892.932L540.905 892.926C539.94 892.918 539.157 892.2 539.147 891.312Z" fill="white"/>
<path d="M93.1311 612.414C90.9927 612.414 89.2358 612.219 87.8719 611.839C86.5079 611.46 85.4214 610.908 84.6123 610.196C83.8147 609.483 83.2252 608.598 82.8554 607.529C82.4855 606.471 82.2543 605.242 82.1503 603.862C82.0462 602.483 82 600.966 82 599.299C82 597.667 82.0462 596.173 82.1503 594.816C82.2543 593.46 82.497 592.23 82.9016 591.15C83.3061 590.069 83.8956 589.161 84.6816 588.437C85.4676 587.701 86.531 587.15 87.895 586.77C89.2474 586.391 90.9812 586.196 93.0849 586.196C94.4141 586.196 95.7665 586.265 97.1189 586.391C98.4713 586.529 99.6849 586.724 100.748 586.989V592.621C100.078 592.517 99.2226 592.437 98.1707 592.368C97.1189 592.299 96.148 592.265 95.2348 592.265C94.0674 592.265 93.1427 592.356 92.4838 592.54C91.8134 592.724 91.3164 593.058 90.9812 593.54C90.646 594.023 90.4264 594.724 90.3108 595.655C90.1952 596.586 90.1374 597.793 90.1374 599.287C90.1374 600.782 90.1952 602 90.3108 602.954C90.4264 603.897 90.6575 604.621 90.9812 605.104C91.3164 605.586 91.8365 605.908 92.5301 606.081C93.2351 606.242 94.1483 606.333 95.2926 606.333C96.0902 606.333 97.0033 606.299 98.0205 606.23C99.0376 606.161 100.02 606.081 100.956 605.977V611.609C99.8583 611.839 98.5984 612.035 97.1998 612.184C95.7896 612.334 94.4373 612.414 93.1311 612.414Z" fill="white"/>
<path d="M115.023 612.414C112.746 612.414 110.862 612.276 109.359 612.012C107.857 611.747 106.666 611.31 105.799 610.713C104.932 610.115 104.297 609.322 103.892 608.322C103.488 607.322 103.233 606.081 103.118 604.586C103.002 603.092 102.944 601.311 102.944 599.253C102.944 597.196 103.002 595.425 103.118 593.943C103.233 592.46 103.488 591.23 103.892 590.23C104.297 589.23 104.932 588.437 105.799 587.839C106.666 587.242 107.857 586.816 109.359 586.563C110.862 586.311 112.746 586.196 115.023 586.196C117.323 586.196 119.231 586.322 120.733 586.563C122.236 586.816 123.415 587.242 124.293 587.839C125.16 588.437 125.796 589.23 126.201 590.23C126.605 591.23 126.859 592.46 126.975 593.943C127.091 595.425 127.148 597.196 127.148 599.253C127.148 601.311 127.091 603.092 126.975 604.586C126.859 606.081 126.605 607.322 126.201 608.322C125.796 609.322 125.16 610.115 124.293 610.713C123.426 611.31 122.236 611.747 120.733 612.012C119.242 612.276 117.335 612.414 115.023 612.414ZM115.023 606.333C116.029 606.333 116.803 606.265 117.381 606.138C117.948 606.012 118.352 605.701 118.583 605.242C118.815 604.77 118.965 604.058 119.011 603.092C119.057 602.127 119.08 600.851 119.08 599.253C119.08 597.655 119.057 596.402 119.011 595.471C118.965 594.54 118.815 593.839 118.583 593.379C118.352 592.92 117.948 592.621 117.381 592.483C116.815 592.345 116.029 592.288 115.023 592.288C114.018 592.288 113.243 592.356 112.688 592.483C112.134 592.609 111.741 592.92 111.509 593.379C111.278 593.851 111.128 594.54 111.082 595.471C111.035 596.402 111.012 597.667 111.012 599.253C111.012 600.851 111.035 602.127 111.082 603.092C111.128 604.058 111.278 604.77 111.509 605.242C111.741 605.701 112.134 606 112.688 606.138C113.255 606.265 114.029 606.333 115.023 606.333Z" fill="white"/>
<path d="M137.771 612.414C136.303 612.414 135.031 612.218 133.968 611.816C132.893 611.414 132.026 610.736 131.356 609.747C130.685 608.77 130.2 607.425 129.876 605.736C129.564 604.046 129.402 601.92 129.402 599.356C129.402 596.828 129.553 594.713 129.853 593C130.154 591.287 130.639 589.943 131.31 588.966C131.98 587.989 132.835 587.276 133.887 586.851C134.939 586.425 136.222 586.207 137.725 586.207C138.73 586.207 139.667 586.287 140.557 586.46C141.435 586.632 142.244 586.931 142.984 587.356C143.724 587.793 144.348 588.437 144.891 589.299H145.296V575H153.364V612.023H145.689L145.492 608.988H145.088C144.591 609.954 143.943 610.678 143.157 611.161C142.371 611.644 141.516 611.977 140.603 612.161C139.69 612.322 138.742 612.414 137.771 612.414ZM141.377 605.839C142.418 605.839 143.192 605.713 143.712 605.46C144.232 605.207 144.602 604.759 144.845 604.092C145.041 603.494 145.169 602.805 145.226 602.023C145.273 601.241 145.296 600.333 145.296 599.31C145.296 598.287 145.273 597.379 145.226 596.621C145.18 595.862 145.053 595.207 144.845 594.678C144.648 593.943 144.279 593.448 143.747 593.184C143.215 592.92 142.429 592.782 141.389 592.782C140.487 592.782 139.771 592.851 139.239 592.977C138.707 593.115 138.314 593.379 138.06 593.805C137.806 594.23 137.655 594.862 137.586 595.724C137.517 596.586 137.482 597.782 137.482 599.31C137.482 600.839 137.517 602.046 137.586 602.92C137.655 603.805 137.806 604.448 138.06 604.862C138.314 605.276 138.707 605.54 139.239 605.655C139.759 605.77 140.487 605.839 141.377 605.839Z" fill="white"/>
<path d="M169.246 612.414C166.842 612.414 164.854 612.264 163.282 611.965C161.71 611.667 160.473 611.195 159.548 610.552C158.623 609.908 157.941 609.069 157.491 608.034C157.04 607 156.762 605.782 156.635 604.345C156.52 602.919 156.462 601.253 156.462 599.368C156.462 597.08 156.566 595.103 156.786 593.437C157.005 591.782 157.491 590.414 158.265 589.356C159.028 588.299 160.23 587.506 161.848 586.988C163.467 586.471 165.663 586.218 168.437 586.218C170.679 586.218 172.494 586.379 173.893 586.69C175.291 587 176.412 587.483 177.221 588.138C178.042 588.782 178.632 589.621 178.978 590.655C179.325 591.69 179.556 592.919 179.649 594.368C179.753 595.816 179.799 597.483 179.799 599.379V601.322H164.414C164.414 602.448 164.461 603.356 164.565 604.034C164.669 604.713 164.934 605.218 165.362 605.552C165.801 605.885 166.46 606.103 167.362 606.218C168.263 606.333 169.523 606.391 171.118 606.391C171.754 606.391 172.505 606.379 173.372 606.345C174.239 606.31 175.152 606.264 176.1 606.195C177.048 606.126 177.95 606.069 178.782 606V611.575C178.042 611.747 177.152 611.896 176.1 612.023C175.048 612.161 173.916 612.253 172.714 612.322C171.546 612.379 170.379 612.414 169.246 612.414ZM172.251 597.965V597.172C172.251 595.977 172.193 595.023 172.078 594.333C171.962 593.632 171.754 593.115 171.477 592.759C171.188 592.414 170.806 592.184 170.298 592.092C169.801 591.988 169.165 591.942 168.391 591.942C167.524 591.942 166.83 592 166.31 592.115C165.79 592.23 165.397 592.471 165.131 592.839C164.865 593.207 164.68 593.736 164.576 594.437C164.472 595.138 164.426 596.046 164.426 597.184H173.095L172.251 597.965Z" fill="white"/>
<path d="M194.327 612.414C192.189 612.414 190.432 612.219 189.068 611.839C187.704 611.46 186.618 610.908 185.809 610.196C185.011 609.483 184.422 608.598 184.052 607.529C183.682 606.471 183.451 605.242 183.347 603.862C183.243 602.483 183.196 600.966 183.196 599.299C183.196 597.667 183.243 596.173 183.347 594.816C183.451 593.46 183.693 592.23 184.098 591.15C184.502 590.069 185.092 589.161 185.878 588.437C186.664 587.701 187.727 587.15 189.091 586.77C190.444 586.391 192.177 586.196 194.281 586.196C195.61 586.196 196.963 586.265 198.315 586.391C199.668 586.529 200.881 586.724 201.945 586.989V592.621C201.274 592.517 200.419 592.437 199.367 592.368C198.315 592.299 197.344 592.265 196.431 592.265C195.264 592.265 194.339 592.356 193.68 592.54C193.01 592.724 192.513 593.058 192.177 593.54C191.842 594.023 191.623 594.724 191.507 595.655C191.391 596.586 191.334 597.793 191.334 599.287C191.334 600.782 191.391 602 191.507 602.954C191.623 603.897 191.854 604.621 192.177 605.104C192.513 605.586 193.033 605.908 193.726 606.081C194.431 606.242 195.345 606.333 196.489 606.333C197.286 606.333 198.2 606.299 199.217 606.23C200.234 606.161 201.216 606.081 202.153 605.977V611.609C201.055 611.839 199.795 612.035 198.396 612.184C196.986 612.334 195.634 612.414 194.327 612.414Z" fill="white"/>
<path d="M216.232 612.414C213.955 612.414 212.071 612.276 210.568 612.012C209.066 611.747 207.875 611.31 207.008 610.713C206.141 610.115 205.506 609.322 205.101 608.322C204.697 607.322 204.442 606.081 204.327 604.586C204.211 603.092 204.153 601.311 204.153 599.253C204.153 597.196 204.211 595.425 204.327 593.943C204.442 592.46 204.697 591.23 205.101 590.23C205.506 589.23 206.141 588.437 207.008 587.839C207.875 587.242 209.066 586.816 210.568 586.563C212.071 586.311 213.955 586.196 216.232 586.196C218.532 586.196 220.44 586.322 221.942 586.563C223.445 586.816 224.624 587.242 225.502 587.839C226.369 588.437 227.005 589.23 227.41 590.23C227.814 591.23 228.068 592.46 228.184 593.943C228.3 595.425 228.357 597.196 228.357 599.253C228.357 601.311 228.3 603.092 228.184 604.586C228.068 606.081 227.814 607.322 227.41 608.322C227.005 609.322 226.369 610.115 225.502 610.713C224.635 611.31 223.445 611.747 221.942 612.012C220.44 612.276 218.532 612.414 216.232 612.414ZM216.232 606.333C217.238 606.333 218.012 606.265 218.59 606.138C219.157 606.012 219.561 605.701 219.792 605.242C220.024 604.77 220.174 604.058 220.22 603.092C220.266 602.127 220.289 600.851 220.289 599.253C220.289 597.655 220.266 596.402 220.22 595.471C220.174 594.54 220.024 593.839 219.792 593.379C219.561 592.92 219.157 592.621 218.59 592.483C218.024 592.345 217.238 592.288 216.232 592.288C215.227 592.288 214.452 592.356 213.897 592.483C213.343 592.609 212.95 592.92 212.718 593.379C212.487 593.851 212.337 594.54 212.291 595.471C212.244 596.402 212.221 597.667 212.221 599.253C212.221 600.851 212.244 602.127 212.291 603.092C212.337 604.058 212.487 604.77 212.718 605.242C212.95 605.701 213.343 606 213.897 606.138C214.452 606.265 215.227 606.333 216.232 606.333Z" fill="white"/>
<path d="M231.455 612.011V586.598H239.072L239.269 589.69H239.72C240.217 588.828 240.841 588.138 241.569 587.621C242.309 587.103 243.141 586.736 244.077 586.529C245.014 586.31 246.031 586.207 247.129 586.207C248.828 586.207 250.192 586.425 251.209 586.851C252.226 587.287 253.001 587.92 253.544 588.747C254.076 589.575 254.434 590.609 254.619 591.839C254.804 593.069 254.896 594.494 254.896 596.126V612.023H246.828V598.575C246.828 597.218 246.794 596.138 246.724 595.356C246.655 594.575 246.505 594 246.273 593.632C246.042 593.264 245.684 593.046 245.198 592.965C244.713 592.885 244.066 592.839 243.268 592.839C242.436 592.839 241.754 592.931 241.234 593.115C240.714 593.299 240.332 593.609 240.078 594.035C239.824 594.471 239.662 595.069 239.581 595.851C239.5 596.632 239.454 597.598 239.454 598.77V612.023H231.455V612.011Z" fill="white"/>
<path d="M287.863 613.781C286.337 613.781 285.031 613.574 283.921 613.161C282.811 612.747 281.91 612.034 281.228 611.023C280.534 610.011 280.026 608.62 279.691 606.862C279.367 605.103 279.205 602.908 279.205 600.253C279.205 597.643 279.355 595.448 279.667 593.678C279.98 591.908 280.477 590.517 281.17 589.494C281.864 588.483 282.754 587.747 283.84 587.299C284.927 586.85 286.256 586.632 287.805 586.632C288.845 586.632 289.816 586.712 290.741 586.885C291.654 587.057 292.498 587.368 293.261 587.816C294.023 588.264 294.682 588.931 295.237 589.827H295.653V575.011H304.01V613.356H296.069L295.861 610.207H295.445C294.925 611.207 294.266 611.954 293.445 612.448C292.636 612.942 291.746 613.287 290.799 613.483C289.839 613.689 288.868 613.781 287.863 613.781ZM291.596 606.977C292.671 606.977 293.469 606.85 294.012 606.586C294.544 606.333 294.937 605.85 295.179 605.172C295.387 604.552 295.515 603.839 295.572 603.034C295.63 602.23 295.653 601.287 295.653 600.218C295.653 599.149 295.63 598.218 295.572 597.437C295.526 596.643 295.387 595.977 295.179 595.425C294.971 594.666 294.59 594.149 294.035 593.873C293.48 593.597 292.671 593.46 291.596 593.46C290.66 593.46 289.92 593.528 289.365 593.666C288.81 593.804 288.406 594.092 288.14 594.517C287.886 594.954 287.712 595.609 287.643 596.505C287.574 597.402 287.539 598.643 287.539 600.218C287.539 601.804 287.574 603.046 287.643 603.965C287.712 604.873 287.874 605.551 288.14 605.977C288.394 606.414 288.81 606.678 289.365 606.804C289.92 606.908 290.66 606.977 291.596 606.977Z" fill="#45E27F"/>
<path d="M307.999 581.689V575.034H316.564V581.689H307.999ZM308.103 613.368V587.046H316.506V613.368H308.103Z" fill="#45E27F"/>
<path d="M331.197 624C330.087 624 328.943 623.977 327.741 623.919C326.55 623.862 325.429 623.793 324.389 623.689C323.348 623.586 322.481 623.471 321.788 623.333V617.609C322.516 617.643 323.29 617.666 324.123 617.689C324.955 617.712 325.787 617.712 326.642 617.712C327.486 617.712 328.295 617.712 329.058 617.712C330.746 617.712 332.075 617.655 333.023 617.528C333.971 617.414 334.687 617.149 335.15 616.758C335.612 616.367 335.901 615.781 336.005 615C336.109 614.23 336.155 613.184 336.155 611.885V610.023H335.739C335.219 610.919 334.583 611.597 333.844 612.057C333.104 612.517 332.283 612.839 331.382 613.011C330.48 613.184 329.509 613.264 328.48 613.264C326.885 613.264 325.544 613.046 324.435 612.62C323.325 612.195 322.424 611.482 321.707 610.505C321.002 609.528 320.482 608.172 320.181 606.459C319.869 604.735 319.719 602.586 319.719 600.011C319.719 597.402 319.881 595.23 320.204 593.505C320.539 591.781 321.048 590.425 321.742 589.425C322.435 588.425 323.337 587.712 324.435 587.287C325.544 586.85 326.874 586.643 328.434 586.643C329.405 586.643 330.364 586.735 331.312 586.931C332.26 587.115 333.138 587.471 333.959 587.988C334.768 588.505 335.439 589.264 335.959 590.264H336.375L336.583 587.069H344.524V610.391C344.524 612.701 344.408 614.712 344.166 616.425C343.923 618.149 343.38 619.563 342.524 620.689C341.68 621.804 340.363 622.643 338.583 623.195C336.803 623.724 334.341 624 331.197 624ZM332.121 606.505C333.127 606.505 333.89 606.391 334.433 606.172C334.965 605.954 335.358 605.551 335.6 604.965C335.843 604.413 335.994 603.735 336.063 602.931C336.132 602.126 336.167 601.149 336.167 600.011C336.167 598.908 336.144 597.942 336.086 597.126C336.04 596.299 335.866 595.632 335.589 595.115C335.346 594.459 334.953 594.023 334.422 593.804C333.89 593.586 333.115 593.471 332.11 593.471C331.173 593.471 330.434 593.528 329.879 593.655C329.324 593.781 328.92 594.046 328.654 594.459C328.399 594.873 328.226 595.528 328.157 596.425C328.087 597.322 328.053 598.528 328.053 600.034C328.053 601.551 328.087 602.735 328.157 603.597C328.226 604.459 328.388 605.103 328.654 605.528C328.908 605.965 329.324 606.23 329.879 606.356C330.445 606.448 331.197 606.505 332.121 606.505Z" fill="#45E27F"/>
<path d="M348.523 581.689V575.034H357.089V581.689H348.523ZM348.627 613.368V587.046H357.031V613.368H348.627Z" fill="#45E27F"/>
<path d="M363.782 613.367V593.344H358.95V587.046H363.782V579.413H372.185V587.046H377.941V593.344H372.185V613.367H363.782Z" fill="#45E27F"/>
<path d="M385.835 613.781C384.17 613.781 382.772 613.528 381.627 613.011C380.483 612.494 379.628 611.655 379.061 610.482C378.495 609.31 378.206 607.781 378.206 605.896C378.206 603.896 378.437 602.31 378.911 601.126C379.385 599.942 380.217 599.092 381.431 598.574C382.645 598.057 384.355 597.804 386.563 597.804C386.875 597.804 387.314 597.816 387.881 597.827C388.459 597.85 389.106 597.862 389.823 597.885C390.551 597.908 391.279 597.919 392.007 597.942C392.735 597.965 393.394 597.988 393.984 598.023V597.046C393.984 596.046 393.903 595.276 393.753 594.724C393.591 594.172 393.302 593.77 392.874 593.505C392.435 593.253 391.788 593.092 390.932 593.046C390.065 592.988 388.921 592.965 387.511 592.965C386.713 592.965 385.846 592.988 384.887 593.023C383.939 593.057 383.003 593.103 382.078 593.149C381.165 593.195 380.391 593.264 379.766 593.333V587.505C381.188 587.264 382.783 587.069 384.563 586.908C386.343 586.747 388.228 586.678 390.193 586.678C392.412 586.678 394.25 586.816 395.718 587.092C397.186 587.367 398.376 587.793 399.278 588.356C400.179 588.919 400.838 589.632 401.277 590.494C401.705 591.356 401.994 592.367 402.133 593.54C402.271 594.712 402.341 596.034 402.341 597.517V613.414H394.354L394.146 610.322H393.729C393.071 611.356 392.308 612.126 391.441 612.643C390.574 613.161 389.661 613.482 388.69 613.62C387.719 613.712 386.771 613.781 385.835 613.781ZM389.788 607.896C390.412 607.896 390.955 607.85 391.418 607.77C391.88 607.689 392.285 607.528 392.608 607.31C392.932 607.092 393.209 606.804 393.417 606.46C393.591 606.08 393.729 605.62 393.834 605.069C393.938 604.517 393.995 603.862 393.995 603.103V602.126H389.164C388.297 602.126 387.638 602.184 387.187 602.31C386.736 602.436 386.436 602.701 386.286 603.138C386.135 603.574 386.054 604.23 386.054 605.126C386.054 605.885 386.135 606.471 386.309 606.885C386.482 607.299 386.84 607.574 387.372 607.712C387.904 607.827 388.713 607.896 389.788 607.896Z" fill="#45E27F"/>
<path d="M406.444 613.367V575.022H414.848V613.367H406.444Z" fill="#45E27F"/>
<path d="M275.864 612.115L263.704 604.689V594.379L275.864 586.908V594.977L267.831 599.506L275.864 604.046V612.115Z" fill="#45E27F"/>
<path d="M275.864 586.908V594.977L263.704 601.862V594.379L275.864 586.908Z" fill="#45E27F"/>
<path d="M419.829 586.908L431.989 594.333V604.644L419.829 612.115V604.046L427.862 599.517L419.829 594.977V586.908Z" fill="#45E27F"/>
<path d="M419.829 612.115V604.046L432 597.173V604.644L419.829 612.115Z" fill="#45E27F"/>
<path d="M93.6819 737.299C99.5578 737.299 103.3 733.837 103.3 727.366V721.77C103.3 715.3 99.5578 711.837 93.6819 711.837C87.841 711.837 84.0987 715.3 84.0987 721.77V727.366C84.0987 733.837 87.841 737.299 93.6819 737.299ZM93.6819 734.676C89.4849 734.676 87.0366 731.983 87.0366 727.471V721.665C87.0366 717.153 89.4849 714.46 93.6819 714.46C97.9139 714.46 100.362 717.153 100.362 721.665V727.471C100.362 731.983 97.9139 734.676 93.6819 734.676Z" fill="#45E27F"/>
<path d="M108.195 736.81H111.098V714.146H111.587L120.086 736.81H125.787V712.327H122.884V734.956H122.43L113.896 712.327H108.195V736.81Z" fill="#45E27F"/>
<path d="M131.421 736.81H146.74V734.151H134.359V712.327H131.421V736.81Z" fill="#45E27F"/>
<path d="M150.514 736.81H153.452V712.327H150.514V736.81Z" fill="#45E27F"/>
<path d="M159.053 736.81H161.956V714.146H162.445L170.944 736.81H176.645V712.327H173.742V734.956H173.288L164.754 712.327H159.053V736.81Z" fill="#45E27F"/>
<path d="M182.278 736.81H197.528V734.151H185.216V725.827H196.374V723.169H185.216V714.985H197.353V712.327H182.278V736.81Z" fill="#45E27F"/>
<path d="M83.4346 782.81H96.4192V780.895H85.5856V780.449C85.5856 778.035 86.9234 777.327 89.5728 776.488L90.9893 776.042C94.3207 774.993 96.5766 773.497 96.5766 769.93V769.694C96.5766 766.336 93.9272 764.08 90.1498 764.08C86.3725 764.08 83.5395 766.31 83.5395 770.297V770.638H85.638V770.271C85.638 767.412 87.4742 765.995 90.1498 765.995C92.6681 765.995 94.4518 767.438 94.4518 769.746V769.851C94.4518 772.291 92.8779 773.419 90.4909 774.153L89.0481 774.599C85.5856 775.675 83.4346 776.986 83.4346 780.895V782.81Z" fill="#CACED2"/>
<path d="M99.2401 782.81H112.225V780.895H101.391V780.449C101.391 778.035 102.729 777.327 105.378 776.488L106.795 776.042C110.126 774.993 112.382 773.497 112.382 769.93V769.694C112.382 766.336 109.733 764.08 105.955 764.08C102.178 764.08 99.345 766.31 99.345 770.297V770.638H101.444V770.271C101.444 767.412 103.28 765.995 105.955 765.995C108.474 765.995 110.257 767.438 110.257 769.746V769.851C110.257 772.291 108.683 773.419 106.296 774.153L104.854 774.599C101.391 775.675 99.2401 776.986 99.2401 780.895V782.81Z" fill="#CACED2"/>
<path d="M128.446 783.177C131.882 783.177 133.403 781.262 134.19 779.636L132.407 778.77C131.777 780.186 130.702 781.341 128.498 781.341C125.954 781.341 124.117 779.688 124.039 776.934H134.479V775.989C134.479 772.081 131.961 769.615 128.315 769.615C124.563 769.615 121.94 772.291 121.94 776.252V776.566C121.94 780.527 124.537 783.177 128.446 783.177ZM124.065 775.229C124.38 772.842 125.98 771.451 128.315 771.451C130.623 771.451 132.223 772.842 132.38 775.229H124.065Z" fill="#CACED2"/>
<path d="M144.044 782.81H157.028V780.895H146.195V780.449C146.195 778.035 147.533 777.327 150.182 776.488L151.598 776.042C154.93 774.993 157.186 773.497 157.186 769.93V769.694C157.186 766.336 154.536 764.08 150.759 764.08C146.982 764.08 144.149 766.31 144.149 770.297V770.638H146.247V770.271C146.247 767.412 148.083 765.995 150.759 765.995C153.277 765.995 155.061 767.438 155.061 769.746V769.851C155.061 772.291 153.487 773.419 151.1 774.153L149.657 774.599C146.195 775.675 144.044 776.986 144.044 780.895V782.81Z" fill="#CACED2"/>
<path d="M166.305 783.177C170.266 783.177 172.863 780.921 172.863 777.458V777.17C172.863 773.812 170.266 772.133 167.17 772.133H165.859V771.819L172.705 767.412V764.448H159.983V766.362H170.449V766.677L163.446 771.163V773.812H166.436C168.823 773.812 170.738 774.835 170.738 777.222V777.432C170.738 779.636 169.085 781.262 166.305 781.262C163.524 781.262 161.688 779.609 161.688 776.934V776.462H159.537V776.96C159.537 780.895 162.37 783.177 166.305 783.177Z" fill="#CACED2"/>
<path d="M188.532 783.177C191.208 783.177 192.546 781.97 193.254 780.685H193.621V782.81H195.641V764.448H193.569V772.002H193.201C192.546 770.822 191.208 769.615 188.532 769.615C185.174 769.615 182.473 772.133 182.473 776.225V776.566C182.473 780.685 185.201 783.177 188.532 783.177ZM189.083 781.341C186.434 781.341 184.571 779.557 184.571 776.514V776.278C184.571 773.235 186.434 771.451 189.083 771.451C191.732 771.451 193.569 773.235 193.569 776.278V776.514C193.569 779.557 191.706 781.341 189.083 781.341Z" fill="#CACED2"/>
<path d="M205.859 783.177C209.296 783.177 210.817 781.262 211.604 779.636L209.82 778.77C209.191 780.186 208.115 781.341 205.912 781.341C203.367 781.341 201.531 779.688 201.453 776.934H211.893V775.989C211.893 772.081 209.375 769.615 205.728 769.615C201.977 769.615 199.354 772.291 199.354 776.252V776.566C199.354 780.527 201.951 783.177 205.859 783.177ZM201.479 775.229C201.794 772.842 203.394 771.451 205.728 771.451C208.037 771.451 209.637 772.842 209.794 775.229H201.479Z" fill="#CACED2"/>
<path d="M223.32 767.989C224.238 767.989 224.92 767.333 224.92 766.415C224.92 765.471 224.238 764.815 223.32 764.815C222.428 764.815 221.746 765.471 221.746 766.415C221.746 767.333 222.428 767.989 223.32 767.989ZM219.726 788.056H222.087C223.556 788.056 224.369 787.19 224.369 785.8V769.982H222.297V785.433C222.297 785.957 222.061 786.22 221.51 786.22H219.726V788.056Z" fill="#CACED2"/>
<path d="M233.631 783.046C236.254 783.046 237.487 781.865 238.064 780.632H238.431V782.81H240.451V769.982H238.379V776.435C238.379 779.609 236.621 781.236 234.182 781.236C232.005 781.236 230.641 780.134 230.641 777.59V769.982H228.568V777.747C228.568 781.183 230.798 783.046 233.631 783.046Z" fill="#CACED2"/>
<path d="M244.787 782.81H246.86V776.357C246.86 773.183 248.591 771.556 251.057 771.556C253.208 771.556 254.598 772.658 254.598 775.202V782.81H256.67V775.045C256.67 771.609 254.414 769.746 251.581 769.746C248.958 769.746 247.725 770.927 247.174 772.16H246.807V769.982H244.787V782.81Z" fill="#CACED2"/>
<path d="M260.875 782.81H262.947V776.357C262.947 773.183 264.678 771.556 267.144 771.556C269.295 771.556 270.685 772.658 270.685 775.202V782.81H272.758V775.045C272.758 771.609 270.502 769.746 267.669 769.746C265.072 769.746 263.865 770.9 263.314 772.028H262.947V764.448H260.875V782.81Z" fill="#CACED2"/>
<path d="M282.89 783.177C286.773 783.177 289.448 780.58 289.448 776.566V776.225C289.448 772.212 286.773 769.615 282.89 769.615C279.008 769.615 276.332 772.212 276.332 776.225V776.566C276.332 780.58 279.008 783.177 282.89 783.177ZM282.89 781.314C280.188 781.314 278.405 779.452 278.405 776.514V776.278C278.405 773.34 280.162 771.478 282.89 771.478C285.592 771.478 287.376 773.34 287.376 776.278V776.514C287.376 779.452 285.592 781.314 282.89 781.314Z" fill="#CACED2"/>
<defs>
<linearGradient id="paint0_linear_2302_1436" x1="511.854" y1="1047.95" x2="-244.641" y2="703.851" gradientUnits="userSpaceOnUse">
<stop stop-color="#F1BCF2"/>
<stop offset="0.239583" stop-color="#F6CF44"/>
<stop offset="0.510417" stop-color="#72E4FD"/>
<stop offset="0.744792" stop-color="#A8EB87"/>
<stop offset="1" stop-color="#F1BCF2"/>
</linearGradient>
<linearGradient id="paint1_linear_2302_1436" x1="566.525" y1="1204.99" x2="86.5689" y2="-69.8984" gradientUnits="userSpaceOnUse">
<stop stop-opacity="0"/>
<stop offset="1"/>
</linearGradient>
<radialGradient id="paint2_radial_2302_1436" cx="0" cy="0" r="1" gradientUnits="userSpaceOnUse" gradientTransform="translate(477.997 1202.09) rotate(-141.097) scale(474.025 833.241)">
<stop stop-color="#2AA8D0"/>
<stop offset="0.203455" stop-color="#ADF664"/>
<stop offset="0.401848" stop-color="#FABFA5"/>
<stop offset="0.615048" stop-color="#FCF4AB"/>
<stop offset="0.823232" stop-color="#5DF7A4"/>
<stop offset="1" stop-color="#58D0F6"/>
</radialGradient>
<linearGradient id="paint3_linear_2302_1436" x1="506.346" y1="1232.88" x2="284.437" y2="770.829" gradientUnits="userSpaceOnUse">
<stop stop-color="white"/>
<stop offset="0.546875"/>
<stop offset="1" stop-color="white"/>
</linearGradient>
<linearGradient id="paint4_linear_2302_1436" x1="514.243" y1="946.715" x2="244.403" y2="1287.29" gradientUnits="userSpaceOnUse">
<stop stop-color="white" stop-opacity="0"/>
<stop offset="0.494792" stop-color="white"/>
<stop offset="1" stop-color="white" stop-opacity="0"/>
</linearGradient>
</defs>
</svg>
