<svg width="193" height="27" viewBox="0 0 193 27" fill="none" xmlns="http://www.w3.org/2000/svg">
<path d="M6.70898 20.6158C5.53726 20.6158 4.57456 20.5081 3.8272 20.2991C3.07984 20.0901 2.48449 19.7861 2.04113 19.3934C1.60412 19.0007 1.2811 18.513 1.07843 17.924C0.875755 17.3413 0.749083 16.6636 0.692081 15.9036C0.635079 15.1436 0.609741 14.3075 0.609741 13.3891C0.609741 12.4898 0.635079 11.6664 0.692081 10.9191C0.749083 10.1717 0.882084 9.49401 1.10376 8.89865C1.32543 8.3033 1.64845 7.80292 2.07913 7.4039C2.50982 6.99855 3.09251 6.69457 3.83987 6.48556C4.5809 6.27656 5.53094 6.16888 6.68365 6.16888C7.41201 6.16888 8.15303 6.20687 8.89406 6.27654C9.63508 6.35255 10.3001 6.46023 10.8828 6.6059V9.70933C10.5155 9.65233 10.0468 9.60801 9.47041 9.57001C8.89406 9.53201 8.36204 9.51299 7.86169 9.51299C7.222 9.51299 6.71531 9.56365 6.3543 9.66499C5.98695 9.76633 5.7146 9.95 5.53093 10.216C5.34726 10.482 5.22692 10.8684 5.16358 11.3814C5.10025 11.8944 5.06858 12.5594 5.06858 13.3828C5.06858 14.2062 5.10025 14.8775 5.16358 15.4032C5.22692 15.9226 5.35359 16.3216 5.53093 16.5876C5.7146 16.8536 5.99961 17.031 6.37963 17.126C6.76597 17.2146 7.26633 17.2653 7.89335 17.2653C8.33037 17.2653 8.83072 17.2463 9.38807 17.2083C9.94543 17.1703 10.4838 17.1259 10.9968 17.0689V20.1724C10.3951 20.2991 9.70476 20.4067 8.9384 20.4891C8.1657 20.5714 7.42467 20.6158 6.70898 20.6158Z" fill="white"/>
<path d="M18.7049 20.6158C17.4572 20.6158 16.4248 20.5397 15.6014 20.3941C14.7781 20.2484 14.1257 20.0077 13.6507 19.6784C13.1757 19.349 12.8273 18.912 12.6057 18.361C12.384 17.81 12.2446 17.126 12.1813 16.3026C12.118 15.4792 12.0863 14.4975 12.0863 13.3638C12.0863 12.2301 12.118 11.2547 12.1813 10.4377C12.2446 9.62068 12.384 8.943 12.6057 8.39197C12.8273 7.84095 13.1757 7.40393 13.6507 7.07458C14.1257 6.74523 14.7781 6.5109 15.6014 6.37156C16.4248 6.23222 17.4572 6.16888 18.7049 6.16888C19.9653 6.16888 21.0103 6.23856 21.8337 6.37156C22.657 6.5109 23.3031 6.74523 23.7844 7.07458C24.2594 7.40393 24.6078 7.84095 24.8294 8.39197C25.0511 8.943 25.1905 9.62068 25.2538 10.4377C25.3171 11.2547 25.3488 12.2301 25.3488 13.3638C25.3488 14.4975 25.3171 15.4792 25.2538 16.3026C25.1905 17.126 25.0511 17.81 24.8294 18.361C24.6078 18.912 24.2594 19.349 23.7844 19.6784C23.3094 20.0077 22.657 20.2484 21.8337 20.3941C21.0166 20.5397 19.9716 20.6158 18.7049 20.6158ZM18.7049 17.2653C19.2559 17.2653 19.6803 17.2273 19.9969 17.1576C20.3073 17.0879 20.529 16.917 20.6556 16.6636C20.7823 16.4039 20.8646 16.0112 20.89 15.4792C20.9153 14.9472 20.928 14.2442 20.928 13.3638C20.928 12.4834 20.9153 11.7931 20.89 11.2801C20.8646 10.7671 20.7823 10.3807 20.6556 10.1274C20.529 9.87402 20.3073 9.70933 19.9969 9.63333C19.6866 9.55733 19.2559 9.52567 18.7049 9.52567C18.1539 9.52567 17.7295 9.56366 17.4255 9.63333C17.1215 9.703 16.9061 9.87402 16.7795 10.1274C16.6528 10.387 16.5705 10.7671 16.5451 11.2801C16.5198 11.7931 16.5071 12.4898 16.5071 13.3638C16.5071 14.2442 16.5198 14.9472 16.5451 15.4792C16.5705 16.0112 16.6528 16.4039 16.7795 16.6636C16.9061 16.917 17.1215 17.0816 17.4255 17.1576C17.7358 17.2273 18.1602 17.2653 18.7049 17.2653Z" fill="white"/>
<path d="M31.1691 20.6158C30.3648 20.6158 29.6681 20.5081 29.0854 20.2864C28.4964 20.0648 28.0213 19.6911 27.654 19.1464C27.2866 18.608 27.0206 17.867 26.8433 16.936C26.6723 16.005 26.5836 14.8332 26.5836 13.4208C26.5836 12.0274 26.666 10.8621 26.8306 9.91838C26.9953 8.97468 27.2613 8.23364 27.6287 7.69529C27.996 7.15693 28.4647 6.76427 29.041 6.52993C29.6174 6.29559 30.3204 6.17525 31.1438 6.17525C31.6948 6.17525 32.2078 6.21957 32.6955 6.31457C33.1769 6.40958 33.6202 6.57427 34.0256 6.80861C34.4309 7.04929 34.7729 7.40393 35.0706 7.87895H35.2923V0H39.7131V20.4004H35.5076L35.4 18.7284H35.1783C34.9059 19.2604 34.5512 19.6594 34.1206 19.9254C33.6899 20.1914 33.2212 20.3751 32.7209 20.4764C32.2205 20.5651 31.7011 20.6158 31.1691 20.6158ZM33.1452 16.993C33.7152 16.993 34.1396 16.9233 34.4246 16.784C34.7096 16.6446 34.9123 16.3976 35.0453 16.0303C35.1529 15.7009 35.2226 15.3209 35.2543 14.8902C35.2796 14.4595 35.2923 13.9592 35.2923 13.3955C35.2923 12.8318 35.2796 12.3315 35.2543 11.9135C35.2289 11.4955 35.1593 11.1344 35.0453 10.8431C34.9376 10.4377 34.7349 10.1654 34.4436 10.0197C34.1522 9.87403 33.7216 9.79804 33.1515 9.79804C32.6575 9.79804 32.2648 9.83603 31.9735 9.9057C31.6821 9.9817 31.4668 10.1274 31.3275 10.3617C31.1881 10.5961 31.1058 10.9444 31.0678 11.4194C31.0298 11.8945 31.0108 12.5531 31.0108 13.3955C31.0108 14.2379 31.0298 14.9029 31.0678 15.3843C31.1058 15.8719 31.1881 16.2266 31.3275 16.4546C31.4668 16.6826 31.6821 16.8283 31.9735 16.8916C32.2585 16.955 32.6575 16.993 33.1452 16.993Z" fill="white"/>
<path d="M48.4156 20.6159C47.0982 20.6159 46.0088 20.5335 45.1474 20.3689C44.2861 20.2042 43.6084 19.9445 43.1017 19.5898C42.595 19.2352 42.2213 18.7728 41.9743 18.2028C41.7273 17.6328 41.5753 16.9614 41.5056 16.1697C41.4423 15.3843 41.4106 14.466 41.4106 13.4273C41.4106 12.1669 41.4676 11.0775 41.588 10.1591C41.7083 9.24711 41.9743 8.49342 42.3987 7.91073C42.8167 7.32804 43.4754 6.89103 44.3621 6.60602C45.2488 6.32101 46.4522 6.18164 47.9722 6.18164C49.2009 6.18164 50.1953 6.27033 50.9617 6.44134C51.728 6.61235 52.3424 6.87836 52.7857 7.23938C53.2354 7.59406 53.5584 8.05641 53.7484 8.62643C53.9385 9.19645 54.0651 9.87413 54.1158 10.6722C54.1728 11.4702 54.1981 12.3886 54.1981 13.4336V14.504H45.7681C45.7681 15.1247 45.7935 15.625 45.8505 15.9987C45.9075 16.3724 46.0532 16.651 46.2875 16.8347C46.5282 17.0184 46.8892 17.1387 47.3832 17.2021C47.8772 17.2654 48.5676 17.2971 49.4416 17.2971C49.79 17.2971 50.2016 17.2907 50.6767 17.2717C51.1517 17.2527 51.652 17.2274 52.1714 17.1894C52.6907 17.1514 53.1848 17.1197 53.6408 17.0817V20.1535C53.2354 20.2485 52.7477 20.3309 52.1714 20.4005C51.595 20.4765 50.9743 20.5272 50.3156 20.5652C49.676 20.5969 49.0363 20.6159 48.4156 20.6159ZM50.0623 12.6546V12.2176C50.0623 11.5589 50.0306 11.0332 49.9673 10.6531C49.904 10.2668 49.79 9.98179 49.638 9.78545C49.4796 9.59544 49.2706 9.46879 48.9919 9.41813C48.7196 9.36112 48.3712 9.33579 47.9469 9.33579C47.4719 9.33579 47.0919 9.36743 46.8068 9.43077C46.5218 9.4941 46.3065 9.62711 46.1608 9.82979C46.0152 10.0325 45.9138 10.3238 45.8568 10.7102C45.7998 11.0965 45.7745 11.5969 45.7745 12.2239H50.5247L50.0623 12.6546Z" fill="white"/>
<path d="M62.1592 20.6158C60.9875 20.6158 60.0248 20.5081 59.2774 20.2991C58.53 20.0901 57.9347 19.7861 57.4913 19.3934C57.0543 19.0007 56.7313 18.513 56.5286 17.924C56.326 17.3413 56.1993 16.6636 56.1423 15.9036C56.0853 15.1436 56.0599 14.3075 56.0599 13.3891C56.0599 12.4898 56.0853 11.6664 56.1423 10.9191C56.1993 10.1717 56.3323 9.49401 56.554 8.89865C56.7756 8.3033 57.0986 7.80292 57.5293 7.4039C57.96 6.99855 58.5427 6.69457 59.2901 6.48556C60.0311 6.27656 60.9811 6.16888 62.1338 6.16888C62.8622 6.16888 63.6032 6.20687 64.3443 6.27654C65.0853 6.35255 65.7503 6.46023 66.333 6.6059V9.70933C65.9656 9.65233 65.497 9.60801 64.9206 9.57001C64.3443 9.53201 63.8122 9.51299 63.3119 9.51299C62.6722 9.51299 62.1655 9.56365 61.8045 9.66499C61.4371 9.76633 61.1648 9.95 60.9811 10.216C60.7975 10.482 60.6771 10.8684 60.6138 11.3814C60.5504 11.8944 60.5188 12.5594 60.5188 13.3828C60.5188 14.2062 60.5504 14.8775 60.6138 15.4032C60.6771 15.9226 60.8038 16.3216 60.9811 16.5876C61.1648 16.8536 61.4498 17.031 61.8298 17.126C62.2162 17.2146 62.7165 17.2653 63.3435 17.2653C63.7806 17.2653 64.2809 17.2463 64.8383 17.2083C65.3956 17.1703 65.934 17.1259 66.447 17.0689V20.1724C65.8453 20.2991 65.155 20.4067 64.3886 20.4891C63.6159 20.5714 62.8749 20.6158 62.1592 20.6158Z" fill="white"/>
<path d="M74.1614 20.6158C72.9137 20.6158 71.8813 20.5397 71.058 20.3941C70.2346 20.2484 69.5823 20.0077 69.1072 19.6784C68.6322 19.349 68.2839 18.912 68.0622 18.361C67.8405 17.81 67.7012 17.126 67.6378 16.3026C67.5745 15.4792 67.5428 14.4975 67.5428 13.3638C67.5428 12.2301 67.5745 11.2547 67.6378 10.4377C67.7012 9.62068 67.8405 8.943 68.0622 8.39197C68.2839 7.84095 68.6322 7.40393 69.1072 7.07458C69.5823 6.74523 70.2346 6.5109 71.058 6.37156C71.8813 6.23222 72.9137 6.16888 74.1614 6.16888C75.4218 6.16888 76.4669 6.23856 77.2902 6.37156C78.1136 6.5109 78.7596 6.74523 79.2409 7.07458C79.716 7.40393 80.0643 7.84095 80.286 8.39197C80.5077 8.943 80.647 9.62068 80.7103 10.4377C80.7737 11.2547 80.8053 12.2301 80.8053 13.3638C80.8053 14.4975 80.7737 15.4792 80.7103 16.3026C80.647 17.126 80.5077 17.81 80.286 18.361C80.0643 18.912 79.716 19.349 79.2409 19.6784C78.7659 20.0077 78.1136 20.2484 77.2902 20.3941C76.4669 20.5397 75.4218 20.6158 74.1614 20.6158ZM74.1614 17.2653C74.7125 17.2653 75.1368 17.2273 75.4535 17.1576C75.7638 17.0879 75.9855 16.917 76.1122 16.6636C76.2388 16.4039 76.3212 16.0112 76.3465 15.4792C76.3719 14.9472 76.3845 14.2442 76.3845 13.3638C76.3845 12.4834 76.3719 11.7931 76.3465 11.2801C76.3212 10.7671 76.2388 10.3807 76.1122 10.1274C75.9855 9.87402 75.7638 9.70933 75.4535 9.63333C75.1431 9.55733 74.7125 9.52567 74.1614 9.52567C73.6104 9.52567 73.1861 9.56366 72.8821 9.63333C72.578 9.703 72.3627 9.87402 72.236 10.1274C72.1093 10.387 72.027 10.7671 72.0017 11.2801C71.9763 11.7931 71.9637 12.4898 71.9637 13.3638C71.9637 14.2442 71.9763 14.9472 72.0017 15.4792C72.027 16.0112 72.1093 16.4039 72.236 16.6636C72.3627 16.917 72.578 17.0816 72.8821 17.1576C73.1861 17.2273 73.6104 17.2653 74.1614 17.2653Z" fill="white"/>
<path d="M82.5027 20.3941V6.39055H86.6765L86.7842 8.09428H87.0312C87.3035 7.61927 87.6455 7.23926 88.0446 6.95425C88.4499 6.66924 88.9059 6.46656 89.4189 6.35255C89.932 6.23221 90.4893 6.17523 91.091 6.17523C92.022 6.17523 92.7694 6.29557 93.3268 6.52991C93.8841 6.77059 94.3085 7.11891 94.6061 7.57493C94.8975 8.03094 95.0938 8.60097 95.1952 9.27866C95.2965 9.95635 95.3472 10.7417 95.3472 11.6411V20.4004H90.9263V12.9901C90.9263 12.2428 90.9073 11.6474 90.8693 11.2167C90.8313 10.786 90.749 10.4694 90.6223 10.2667C90.4956 10.064 90.2993 9.94367 90.0333 9.89934C89.7673 9.855 89.4126 9.82968 88.9756 9.82968C88.5196 9.82968 88.1459 9.88034 87.8609 9.98168C87.5759 10.083 87.3669 10.2541 87.2275 10.4884C87.0882 10.7291 86.9995 11.0584 86.9552 11.4891C86.9109 11.9198 86.8855 12.4518 86.8855 13.0978V20.4004H82.5027V20.3941Z" fill="white"/>
<path d="M113.411 21.3695C112.575 21.3695 111.859 21.2555 111.251 21.0275C110.643 20.7995 110.149 20.4068 109.775 19.8494C109.395 19.2921 109.117 18.5257 108.933 17.5567C108.756 16.5876 108.667 15.3779 108.667 13.9149C108.667 12.4771 108.749 11.2675 108.92 10.2921C109.091 9.31671 109.364 8.55034 109.744 7.98665C110.124 7.4293 110.611 7.02393 111.207 6.77692C111.802 6.52991 112.53 6.4096 113.379 6.4096C113.949 6.4096 114.481 6.45392 114.988 6.54892C115.488 6.64392 115.95 6.81493 116.368 7.06194C116.787 7.30895 117.148 7.6763 117.452 8.17031H117.68V0.00634766H122.259V21.1352H117.908L117.794 19.3997H117.566C117.281 19.9507 116.92 20.3624 116.47 20.6348C116.026 20.9071 115.539 21.0971 115.019 21.2048C114.494 21.3188 113.962 21.3695 113.411 21.3695ZM115.456 17.62C116.045 17.62 116.482 17.5503 116.78 17.4047C117.072 17.2653 117.287 16.9993 117.42 16.6257C117.534 16.2836 117.604 15.8909 117.635 15.4476C117.667 15.0042 117.68 14.4849 117.68 13.8959C117.68 13.3068 117.667 12.7938 117.635 12.3631C117.61 11.9261 117.534 11.5588 117.42 11.2548C117.306 10.8367 117.097 10.5518 116.793 10.3997C116.489 10.2477 116.045 10.1717 115.456 10.1717C114.943 10.1717 114.538 10.2097 114.234 10.2857C113.93 10.3617 113.708 10.5201 113.563 10.7544C113.423 10.9951 113.328 11.3561 113.29 11.8501C113.252 12.3441 113.233 13.0282 113.233 13.8959C113.233 14.7699 113.252 15.4539 113.29 15.9606C113.328 16.461 113.417 16.8346 113.563 17.069C113.702 17.3097 113.93 17.4553 114.234 17.525C114.538 17.582 114.943 17.62 115.456 17.62Z" fill="#45E27F"/>
<path d="M124.444 3.68617V0.019043H129.137V3.68617H124.444ZM124.501 21.1415V6.63764H129.105V21.1415H124.501Z" fill="#45E27F"/>
<path d="M137.155 27C136.547 27 135.92 26.9874 135.261 26.9557C134.609 26.924 133.995 26.886 133.425 26.829C132.855 26.772 132.38 26.7087 131.999 26.6327V23.4785C132.399 23.4975 132.823 23.5102 133.279 23.5229C133.735 23.5355 134.191 23.5356 134.66 23.5356C135.122 23.5356 135.565 23.5356 135.983 23.5356C136.908 23.5356 137.636 23.5039 138.156 23.4342C138.675 23.3709 139.068 23.2252 139.321 23.0099C139.574 22.7945 139.733 22.4715 139.79 22.0408C139.847 21.6165 139.872 21.0401 139.872 20.3244V19.2984H139.644C139.359 19.7924 139.011 20.1661 138.605 20.4195C138.2 20.6728 137.75 20.8501 137.256 20.9451C136.762 21.0401 136.23 21.0845 135.667 21.0845C134.793 21.0845 134.058 20.9641 133.45 20.7298C132.842 20.4955 132.348 20.1028 131.955 19.5644C131.569 19.026 131.284 18.2787 131.119 17.335C130.948 16.385 130.866 15.2006 130.866 13.7818C130.866 12.3441 130.954 11.1471 131.132 10.1971C131.315 9.24702 131.594 8.49967 131.974 7.94865C132.354 7.39763 132.848 7.00491 133.45 6.77057C134.058 6.5299 134.786 6.41589 135.641 6.41589C136.173 6.41589 136.699 6.46656 137.218 6.57423C137.738 6.67557 138.219 6.87194 138.669 7.15695C139.112 7.44196 139.479 7.85996 139.764 8.41098H139.992L140.106 6.65027H144.458V19.5011C144.458 20.7741 144.394 21.8825 144.261 22.8262C144.128 23.7762 143.831 24.5553 143.362 25.176C142.9 25.7903 142.178 26.2527 141.202 26.5567C140.227 26.848 138.878 27 137.155 27ZM137.662 17.3603C138.213 17.3603 138.631 17.297 138.928 17.1767C139.22 17.0563 139.435 16.8346 139.568 16.5116C139.701 16.2076 139.783 15.8339 139.821 15.3906C139.859 14.9472 139.878 14.4089 139.878 13.7818C139.878 13.1738 139.866 12.6418 139.834 12.1921C139.809 11.7361 139.714 11.3688 139.562 11.0838C139.429 10.7228 139.213 10.4821 138.922 10.3617C138.631 10.2414 138.206 10.178 137.655 10.178C137.142 10.178 136.737 10.2097 136.433 10.2794C136.129 10.3491 135.907 10.4947 135.762 10.7228C135.622 10.9508 135.527 11.3118 135.489 11.8058C135.451 12.2998 135.432 12.9648 135.432 13.7945C135.432 14.6306 135.451 15.2829 135.489 15.7579C135.527 16.2329 135.616 16.5876 135.762 16.822C135.901 17.0627 136.129 17.2083 136.433 17.278C136.743 17.3287 137.155 17.3603 137.662 17.3603Z" fill="#45E27F"/>
<path d="M146.649 3.68617V0.019043H151.342V3.68617H146.649ZM146.706 21.1415V6.63764H151.311V21.1415H146.706Z" fill="#45E27F"/>
<path d="M155.01 21.1415V10.1084H152.362V6.63763H155.01V2.43213H159.614V6.63763H162.768V10.1084H159.614V21.1415H155.01Z" fill="#45E27F"/>
<path d="M167.094 21.3695C166.182 21.3695 165.416 21.2301 164.789 20.9451C164.162 20.6601 163.693 20.1978 163.383 19.5518C163.072 18.9058 162.914 18.0634 162.914 17.0247C162.914 15.9226 163.041 15.0486 163.3 14.3962C163.56 13.7439 164.016 13.2752 164.681 12.9902C165.346 12.7052 166.284 12.5658 167.493 12.5658C167.664 12.5658 167.905 12.5722 168.215 12.5785C168.532 12.5912 168.887 12.5975 169.279 12.6102C169.678 12.6228 170.077 12.6292 170.476 12.6418C170.875 12.6545 171.236 12.6672 171.559 12.6862V12.1478C171.559 11.5968 171.515 11.1724 171.433 10.8684C171.344 10.5644 171.186 10.3428 170.951 10.1971C170.711 10.0577 170.356 9.96906 169.887 9.94372C169.412 9.91205 168.785 9.89938 168.013 9.89938C167.576 9.89938 167.101 9.91208 166.575 9.93108C166.056 9.95008 165.543 9.97541 165.036 10.0007C164.536 10.0261 164.111 10.0641 163.769 10.1021V6.89094C164.548 6.75793 165.422 6.65029 166.398 6.56162C167.373 6.47295 168.405 6.43494 169.482 6.43494C170.698 6.43494 171.705 6.51093 172.509 6.66294C173.314 6.81494 173.966 7.04931 174.46 7.35965C174.954 7.67 175.315 8.06267 175.556 8.53769C175.79 9.01271 175.949 9.57004 176.025 10.2161C176.101 10.8621 176.139 11.5905 176.139 12.4075V21.1668H171.762L171.648 19.4631H171.42C171.059 20.0331 170.641 20.4575 170.166 20.7425C169.691 21.0275 169.191 21.2048 168.659 21.2808C168.127 21.3315 167.607 21.3695 167.094 21.3695ZM169.26 18.1267C169.602 18.1267 169.9 18.1014 170.153 18.057C170.407 18.0127 170.628 17.924 170.806 17.8037C170.983 17.6834 171.135 17.525 171.249 17.335C171.344 17.126 171.42 16.8727 171.477 16.5687C171.534 16.2646 171.566 15.9036 171.566 15.4856V14.9473H168.918C168.443 14.9473 168.082 14.9789 167.835 15.0486C167.588 15.1182 167.424 15.2639 167.341 15.5046C167.259 15.7453 167.215 16.1063 167.215 16.6003C167.215 17.0183 167.259 17.3414 167.354 17.5694C167.449 17.7974 167.645 17.9494 167.937 18.0254C168.228 18.0887 168.671 18.1267 169.26 18.1267Z" fill="#45E27F"/>
<path d="M178.387 21.1415V0.0126953H182.991V21.1415H178.387Z" fill="#45E27F"/>
<path d="M106.836 20.4511L100.173 16.3596V10.6784L106.836 6.56158V11.0077L102.434 13.5032L106.836 16.0049V20.4511Z" fill="#45E27F"/>
<path d="M106.836 6.56158V11.0077L100.173 14.8016V10.6784L106.836 6.56158Z" fill="#45E27F"/>
<path d="M185.721 6.56158L192.384 10.653V16.3343L185.721 20.4511V16.0049L190.123 13.5095L185.721 11.0077V6.56158Z" fill="#45E27F"/>
<path d="M185.721 20.4512V16.005L192.39 12.2175V16.3344L185.721 20.4512Z" fill="#45E27F"/>
</svg>
