<svg width="215" height="22" viewBox="0 0 215 22" fill="none" xmlns="http://www.w3.org/2000/svg">
<path d="M7.25221 21.2619C6.04378 21.2619 5.0509 21.1509 4.28012 20.9353C3.50933 20.7197 2.89532 20.4062 2.43808 20.0012C1.98083 19.5962 1.65423 19.0933 1.4452 18.4858C1.23617 17.8848 1.10553 17.1859 1.04674 16.402C0.987954 15.6182 0.961823 14.756 0.961823 13.8088C0.961823 12.8813 0.987954 12.0321 1.04674 11.2613C1.10553 10.4905 1.2427 9.79159 1.47132 9.17758C1.69995 8.56356 2.03309 8.04753 2.47727 7.63601C2.92145 7.21795 3.5224 6.90441 4.29318 6.68885C5.05744 6.47329 6.03724 6.36224 7.22608 6.36224C7.97727 6.36224 8.74152 6.40144 9.50578 6.4733C10.27 6.55168 10.9559 6.66272 11.5568 6.81296V10.0137C11.178 9.95489 10.6946 9.90917 10.1002 9.86997C9.50578 9.83078 8.95708 9.81119 8.44104 9.81119C7.78131 9.81119 7.25875 9.86344 6.88642 9.96795C6.50756 10.0725 6.22668 10.2619 6.03725 10.5362C5.84782 10.8106 5.72371 11.209 5.65838 11.7381C5.59306 12.2672 5.56041 12.9531 5.56041 13.8023C5.56041 14.6515 5.59306 15.3438 5.65838 15.886C5.72371 16.4216 5.85435 16.8332 6.03725 17.1075C6.22668 17.3819 6.52062 17.5648 6.91254 17.6627C7.311 17.7542 7.82703 17.8064 8.47371 17.8064C8.92442 17.8064 9.44045 17.7868 10.0153 17.7477C10.5901 17.7085 11.1453 17.6627 11.6744 17.6039V20.8047C11.0539 20.9353 10.3419 21.0463 9.55151 21.1313C8.75459 21.2227 7.99034 21.2619 7.25221 21.2619Z" fill="white"/>
<path d="M19.6304 21.2619C18.3436 21.2619 17.2789 21.1835 16.4297 21.0333C15.5805 20.883 14.9077 20.6348 14.4178 20.2952C13.9279 19.9555 13.5686 19.5048 13.34 18.9365C13.1114 18.3682 12.9677 17.6627 12.9024 16.8136C12.837 15.9644 12.8044 14.9519 12.8044 13.7827C12.8044 12.6134 12.837 11.6075 12.9024 10.7649C12.9677 9.92223 13.1114 9.2233 13.34 8.65501C13.5686 8.08672 13.9279 7.636 14.4178 7.29634C14.9077 6.95667 15.5805 6.71498 16.4297 6.57127C17.2789 6.42757 18.3436 6.36224 19.6304 6.36224C20.9303 6.36224 22.0081 6.4341 22.8572 6.57127C23.7064 6.71498 24.3727 6.95667 24.8691 7.29634C25.359 7.636 25.7183 8.08672 25.9469 8.65501C26.1755 9.2233 26.3192 9.92223 26.3846 10.7649C26.4499 11.6075 26.4825 12.6134 26.4825 13.7827C26.4825 14.9519 26.4499 15.9644 26.3846 16.8136C26.3192 17.6627 26.1755 18.3682 25.9469 18.9365C25.7183 19.5048 25.359 19.9555 24.8691 20.2952C24.3792 20.6348 23.7064 20.883 22.8572 21.0333C22.0081 21.1901 20.9303 21.2619 19.6304 21.2619ZM19.6304 17.8064C20.1987 17.8064 20.6363 17.7672 20.9629 17.6954C21.283 17.6235 21.5116 17.4472 21.6423 17.1859C21.7729 16.9181 21.8578 16.5131 21.884 15.9644C21.9101 15.4157 21.9232 14.6906 21.9232 13.7827C21.9232 12.8747 21.9101 12.1627 21.884 11.6336C21.8578 11.1045 21.7729 10.7061 21.6423 10.4448C21.5116 10.1835 21.283 10.0137 20.9629 9.93529C20.6429 9.8569 20.1987 9.82424 19.6304 9.82424C19.0621 9.82424 18.6245 9.86344 18.3109 9.93529C17.9974 10.0071 17.7753 10.1835 17.6447 10.4448C17.514 10.7126 17.4291 11.1045 17.403 11.6336C17.3768 12.1627 17.3638 12.8813 17.3638 13.7827C17.3638 14.6906 17.3768 15.4157 17.403 15.9644C17.4291 16.5131 17.514 16.9181 17.6447 17.1859C17.7753 17.4472 17.9974 17.617 18.3109 17.6954C18.6245 17.7738 19.0621 17.8064 19.6304 17.8064Z" fill="white"/>
<path d="M32.4853 21.2619C31.6557 21.2619 30.9372 21.1509 30.3362 20.9222C29.7288 20.6936 29.2389 20.3082 28.86 19.7465C28.4811 19.1912 28.2068 18.427 28.0239 17.4668C27.8475 16.5065 27.7561 15.2981 27.7561 13.8415C27.7561 12.4044 27.841 11.2025 28.0108 10.2292C28.1807 9.25595 28.455 8.49169 28.8339 7.93646C29.2127 7.38124 29.6961 6.97625 30.2905 6.73457C30.8849 6.49288 31.61 6.36877 32.4592 6.36877C33.0275 6.36877 33.5566 6.4145 34.0595 6.51248C34.556 6.61046 35.0132 6.78029 35.4313 7.02198C35.8493 7.2702 36.202 7.63599 36.509 8.1259H36.7377V0H41.2971V21.0398H36.9663L36.8552 19.3153H36.6266C36.3457 19.864 35.98 20.2755 35.5358 20.5499C35.0916 20.8242 34.6082 21.0137 34.0922 21.1182C33.5631 21.2096 33.0275 21.2619 32.4853 21.2619ZM34.5233 17.5256C35.1112 17.5256 35.5488 17.4537 35.8428 17.31C36.1367 17.1663 36.3457 16.9115 36.4829 16.5327C36.594 16.193 36.6658 15.8011 36.6985 15.3569C36.7246 14.9127 36.7377 14.3967 36.7377 13.8153C36.7377 13.234 36.7246 12.7179 36.6985 12.2868C36.6724 11.8557 36.6005 11.4834 36.4829 11.1829C36.3719 10.7649 36.1629 10.484 35.8624 10.3337C35.5619 10.1835 35.1177 10.1051 34.5298 10.1051C34.0203 10.1051 33.6153 10.1443 33.3149 10.2162C33.0144 10.2945 32.7923 10.4448 32.6486 10.6865C32.5049 10.9282 32.42 11.2874 32.3808 11.7773C32.3416 12.2672 32.322 12.9466 32.322 13.8153C32.322 14.6841 32.3416 15.37 32.3808 15.8664C32.42 16.3694 32.5049 16.7352 32.6486 16.9703C32.7923 17.2055 33.0144 17.3557 33.3149 17.421C33.6023 17.4929 34.0138 17.5256 34.5233 17.5256Z" fill="white"/>
<path d="M50.2659 21.2619C48.9072 21.2619 47.7837 21.177 46.8953 21.0072C46.0069 20.8373 45.308 20.5695 44.7854 20.2037C44.2694 19.8379 43.8775 19.3611 43.6227 18.7732C43.368 18.1853 43.2112 17.4929 43.1394 16.6764C43.074 15.8664 43.0414 14.9193 43.0414 13.848C43.0414 12.5481 43.1002 11.4246 43.2243 10.4774C43.3484 9.53683 43.6227 8.75951 44.0604 8.15856C44.4915 7.55761 45.1708 7.1069 46.0853 6.81295C46.9998 6.51901 48.2409 6.37531 49.8086 6.37531C51.0758 6.37531 52.1014 6.46676 52.8917 6.64312C53.6821 6.81949 54.3157 7.09383 54.773 7.46616C55.2368 7.83196 55.5699 8.3088 55.7659 8.89669C55.9618 9.48457 56.0925 10.1835 56.1447 11.0065C56.2035 11.8296 56.2296 12.7767 56.2296 13.8545V14.9584H47.5355C47.5355 15.5986 47.5616 16.1146 47.6204 16.5C47.6792 16.8854 47.8294 17.1728 48.0711 17.3623C48.3193 17.5517 48.6916 17.6758 49.2011 17.7411C49.7106 17.8064 50.4226 17.8391 51.3241 17.8391C51.6833 17.8391 52.1079 17.8326 52.5978 17.813C53.0877 17.7934 53.6037 17.7672 54.1394 17.7281C54.675 17.6889 55.1845 17.6562 55.6548 17.617V20.7851C55.2368 20.883 54.7338 20.968 54.1394 21.0398C53.545 21.1182 52.9048 21.1705 52.2255 21.2096C51.5657 21.2423 50.906 21.2619 50.2659 21.2619ZM51.9642 13.0511V12.6004C51.9642 11.921 51.9315 11.3789 51.8662 10.9869C51.8009 10.5885 51.6833 10.2946 51.5265 10.0921C51.3632 9.89609 51.1477 9.76545 50.8603 9.71319C50.5794 9.65441 50.2201 9.62827 49.7825 9.62827C49.2926 9.62827 48.9007 9.66094 48.6067 9.72626C48.3128 9.79158 48.0907 9.92876 47.9404 10.1378C47.7902 10.3468 47.6857 10.6473 47.6269 11.0457C47.5681 11.4442 47.542 11.9602 47.542 12.6069H52.441L51.9642 13.0511Z" fill="white"/>
<path d="M64.4404 21.2619C63.2319 21.2619 62.2391 21.1509 61.4683 20.9353C60.6975 20.7197 60.0835 20.4062 59.6262 20.0012C59.169 19.5962 58.8424 19.0933 58.6334 18.4858C58.4243 17.8848 58.2937 17.1859 58.2349 16.402C58.1761 15.6182 58.15 14.756 58.15 13.8088C58.15 12.8813 58.1761 12.0321 58.2349 11.2613C58.2937 10.4905 58.4309 9.79159 58.6595 9.17758C58.8881 8.56356 59.2212 8.04753 59.6654 7.63601C60.1096 7.21795 60.7106 6.90441 61.4813 6.68885C62.2456 6.47329 63.2254 6.36224 64.4142 6.36224C65.1654 6.36224 65.9297 6.40144 66.6939 6.4733C67.4582 6.55168 68.1441 6.66272 68.745 6.81296V10.0137C68.3661 9.95489 67.8828 9.90917 67.2884 9.86997C66.6939 9.83078 66.1452 9.81119 65.6292 9.81119C64.9695 9.81119 64.4469 9.86344 64.0746 9.96795C63.6957 10.0725 63.4148 10.2619 63.2254 10.5362C63.036 10.8106 62.9119 11.209 62.8465 11.7381C62.7812 12.2672 62.7486 12.9531 62.7486 13.8023C62.7486 14.6515 62.7812 15.3438 62.8465 15.886C62.9119 16.4216 63.0425 16.8332 63.2254 17.1075C63.4148 17.3819 63.7088 17.5648 64.1007 17.6627C64.4992 17.7542 65.0152 17.8064 65.6619 17.8064C66.1126 17.8064 66.6286 17.7868 67.2034 17.7477C67.7783 17.7085 68.3335 17.6627 68.8626 17.6039V20.8047C68.242 20.9353 67.53 21.0463 66.7397 21.1313C65.9427 21.2227 65.1785 21.2619 64.4404 21.2619Z" fill="white"/>
<path d="M76.8186 21.2619C75.5317 21.2619 74.467 21.1835 73.6178 21.0333C72.7687 20.883 72.0959 20.6348 71.606 20.2952C71.1161 19.9555 70.7568 19.5048 70.5282 18.9365C70.2996 18.3682 70.1559 17.6627 70.0905 16.8136C70.0252 15.9644 69.9926 14.9519 69.9926 13.7827C69.9926 12.6134 70.0252 11.6075 70.0905 10.7649C70.1559 9.92223 70.2996 9.2233 70.5282 8.65501C70.7568 8.08672 71.1161 7.636 71.606 7.29634C72.0959 6.95667 72.7687 6.71498 73.6178 6.57127C74.467 6.42757 75.5317 6.36224 76.8186 6.36224C78.1185 6.36224 79.1962 6.4341 80.0454 6.57127C80.8946 6.71498 81.5609 6.95667 82.0573 7.29634C82.5472 7.636 82.9065 8.08672 83.1351 8.65501C83.3637 9.2233 83.5074 9.92223 83.5727 10.7649C83.6381 11.6075 83.6707 12.6134 83.6707 13.7827C83.6707 14.9519 83.6381 15.9644 83.5727 16.8136C83.5074 17.6627 83.3637 18.3682 83.1351 18.9365C82.9065 19.5048 82.5472 19.9555 82.0573 20.2952C81.5674 20.6348 80.8946 20.883 80.0454 21.0333C79.1962 21.1901 78.1185 21.2619 76.8186 21.2619ZM76.8186 17.8064C77.3869 17.8064 77.8245 17.7672 78.1511 17.6954C78.4712 17.6235 78.6998 17.4472 78.8304 17.1859C78.9611 16.9181 79.046 16.5131 79.0721 15.9644C79.0983 15.4157 79.1113 14.6906 79.1113 13.7827C79.1113 12.8747 79.0983 12.1627 79.0721 11.6336C79.046 11.1045 78.9611 10.7061 78.8304 10.4448C78.6998 10.1835 78.4712 10.0137 78.1511 9.93529C77.831 9.8569 77.3869 9.82424 76.8186 9.82424C76.2503 9.82424 75.8126 9.86344 75.4991 9.93529C75.1855 10.0071 74.9635 10.1835 74.8328 10.4448C74.7022 10.7126 74.6173 11.1045 74.5911 11.6336C74.565 12.1627 74.5519 12.8813 74.5519 13.7827C74.5519 14.6906 74.565 15.4157 74.5911 15.9644C74.6173 16.5131 74.7022 16.9181 74.8328 17.1859C74.9635 17.4472 75.1855 17.617 75.4991 17.6954C75.8126 17.7738 76.2503 17.8064 76.8186 17.8064Z" fill="white"/>
<path d="M85.4278 21.0332V6.5908H89.7324L89.8434 8.34793H90.0982C90.3791 7.85803 90.7318 7.4661 91.1433 7.17216C91.5614 6.87821 92.0317 6.66919 92.5608 6.55161C93.0899 6.4275 93.6647 6.36871 94.2853 6.36871C95.2455 6.36871 96.0163 6.49282 96.5911 6.73451C97.1659 6.98273 97.6035 7.34199 97.9106 7.8123C98.2176 8.28261 98.4135 8.87049 98.518 9.56942C98.6225 10.2684 98.6748 11.0783 98.6748 12.0059V21.0397H94.1154V13.3972C94.1154 12.6264 94.0958 12.0124 94.0566 11.5682C94.0174 11.1241 93.9325 10.7975 93.8019 10.5884C93.6712 10.3794 93.4687 10.2553 93.1944 10.2096C92.92 10.1639 92.5543 10.1377 92.1036 10.1377C91.6332 10.1377 91.2478 10.19 90.9539 10.2945C90.66 10.399 90.4444 10.5754 90.3007 10.8171C90.157 11.0653 90.0655 11.4049 90.0198 11.8491C89.9741 12.2933 89.948 12.842 89.948 13.5083V21.0397H85.4278V21.0332Z" fill="white"/>
<path d="M110.524 21.0986L103.653 16.8789V11.0196L110.524 6.77374V11.3593L105.985 13.9329L110.524 16.5131V21.0986Z" fill="#0055FF"/>
<path d="M110.525 6.77374V11.3593L103.646 15.2654V11.0196L110.525 6.77374Z" fill="#0055FF"/>
<path d="M207.16 6.77374L214.032 10.9935V16.8527L207.16 21.0986V16.5131L211.7 13.9394L207.16 11.3593V6.77374Z" fill="#0055FF"/>
<path d="M207.16 21.0986V16.5131L214.038 12.6003V16.8527L207.16 21.0986Z" fill="#0055FF"/>
<path d="M115.345 21.7649V10.4056H112.589V6.83253H115.345V5.807C115.345 4.67696 115.411 3.7494 115.548 3.0374C115.685 2.32541 115.927 1.76365 116.279 1.35213C116.632 0.940605 117.122 0.646665 117.756 0.457235C118.389 0.274337 119.193 0.156764 120.159 0.104507C121.126 0.0587825 122.282 0.0326538 123.628 0.0326538V3.25296C122.825 3.25296 122.191 3.27255 121.708 3.31175C121.231 3.35094 120.871 3.43586 120.636 3.55997C120.401 3.68408 120.251 3.87351 120.186 4.1152C120.12 4.35689 120.081 4.70308 120.081 5.1538V6.82601H123.621V10.3991H120.081V21.7583H115.345V21.7649Z" fill="#0055FF"/>
<path d="M131.682 22C130.278 22 129.115 21.9086 128.2 21.7322C127.279 21.5559 126.554 21.2815 126.019 20.8961C125.483 20.5173 125.085 20.0208 124.817 19.4199C124.549 18.8189 124.386 18.0939 124.32 17.2512C124.255 16.4086 124.216 15.4353 124.216 14.3249C124.216 12.9792 124.281 11.8165 124.405 10.8367C124.529 9.86345 124.817 9.06001 125.267 8.43946C125.718 7.81238 126.417 7.3486 127.364 7.04813C128.311 6.74765 129.592 6.59741 131.212 6.59741C132.518 6.59741 133.583 6.68887 134.406 6.8783C135.229 7.06119 135.875 7.34861 136.352 7.72747C136.829 8.10633 137.175 8.60276 137.378 9.21024C137.58 9.81772 137.718 10.5428 137.77 11.392C137.829 12.2411 137.861 13.2209 137.861 14.3379V15.481H128.873C128.873 16.1473 128.899 16.6764 128.958 17.0749C129.017 17.4733 129.174 17.7738 129.428 17.9698C129.683 18.1657 130.075 18.2964 130.598 18.3617C131.127 18.4335 131.858 18.4662 132.792 18.4662C133.165 18.4662 133.602 18.4531 134.112 18.4335C134.621 18.4139 135.15 18.3878 135.706 18.3486C136.261 18.3094 136.783 18.2702 137.273 18.231V21.5101C136.842 21.6081 136.32 21.693 135.706 21.7714C135.092 21.8498 134.432 21.9086 133.726 21.9478C133.028 21.9804 132.348 22 131.682 22ZM133.439 13.5083V13.038C133.439 12.3326 133.406 11.7774 133.335 11.3724C133.269 10.9608 133.145 10.6538 132.982 10.4513C132.818 10.2488 132.59 10.1117 132.296 10.0594C132.002 10.0072 131.63 9.96796 131.185 9.96796C130.676 9.96796 130.271 10.0006 129.971 10.0725C129.67 10.1378 129.435 10.2815 129.285 10.4971C129.128 10.7126 129.023 11.0262 128.965 11.4312C128.906 11.8427 128.88 12.3783 128.88 13.0446H133.949L133.439 13.5083Z" fill="#0055FF"/>
<path d="M143.336 22C142.395 22 141.605 21.8563 140.964 21.5623C140.318 21.2684 139.834 20.7915 139.514 20.1253C139.194 19.459 139.031 18.5902 139.031 17.519C139.031 16.3889 139.162 15.481 139.423 14.8082C139.684 14.1354 140.161 13.652 140.84 13.358C141.526 13.0641 142.493 12.9204 143.741 12.9204C143.917 12.9204 144.165 12.9269 144.485 12.9335C144.805 12.9465 145.171 12.953 145.583 12.9661C145.994 12.9792 146.406 12.9857 146.811 12.9988C147.216 13.0118 147.588 13.0249 147.921 13.0445V12.4893C147.921 11.921 147.875 11.4833 147.79 11.1698C147.699 10.8563 147.536 10.6276 147.294 10.4839C147.052 10.3402 146.687 10.2488 146.197 10.2226C145.707 10.19 145.067 10.1769 144.263 10.1769C143.812 10.1769 143.323 10.19 142.787 10.2096C142.251 10.2292 141.722 10.2553 141.206 10.2814C140.69 10.3076 140.252 10.3468 139.9 10.3859V7.07419C140.697 6.93702 141.605 6.82597 142.611 6.73452C143.616 6.64307 144.675 6.60388 145.785 6.60388C147.033 6.60388 148.071 6.68227 148.901 6.83904C149.73 6.99581 150.397 7.23096 150.906 7.55756C151.416 7.87763 151.788 8.28262 152.036 8.77252C152.278 9.26243 152.441 9.83726 152.52 10.5035C152.598 11.1698 152.637 11.921 152.637 12.7571V21.7779H148.13L148.013 20.0208H147.777C147.405 20.6086 146.974 21.0463 146.491 21.3402C146.001 21.6342 145.485 21.8171 144.936 21.8955C144.4 21.9608 143.865 22 143.336 22ZM145.563 18.6621C145.916 18.6621 146.223 18.636 146.484 18.5902C146.745 18.5445 146.974 18.4531 147.157 18.3289C147.34 18.2048 147.497 18.0415 147.608 17.8456C147.706 17.63 147.784 17.3687 147.843 17.0552C147.901 16.7417 147.934 16.3693 147.934 15.9447V15.3895H145.21C144.72 15.3895 144.348 15.4222 144.1 15.494C143.845 15.5594 143.675 15.7161 143.59 15.9643C143.505 16.2126 143.46 16.5849 143.46 17.0944C143.46 17.5255 143.505 17.8586 143.603 18.0873C143.701 18.3224 143.897 18.4792 144.204 18.5576C144.505 18.6229 144.956 18.6621 145.563 18.6621Z" fill="#0055FF"/>
<path d="M156.308 21.7649V10.4056H153.584V6.83259H156.308V2.50183H161.05V6.83259H164.303V10.4056H161.05V21.7649H156.308Z" fill="#0055FF"/>
<path d="M169.953 22.0001C168.961 22.0001 168.157 21.8694 167.556 21.6212C166.949 21.3664 166.491 21.0006 166.178 20.5107C165.864 20.0208 165.662 19.4199 165.564 18.6948C165.466 17.9698 165.42 17.1337 165.42 16.18V6.83912H170.104V14.7364C170.104 15.5333 170.13 16.1669 170.175 16.6242C170.221 17.0814 170.319 17.4211 170.456 17.6366C170.594 17.8522 170.796 17.9828 171.07 18.0286C171.345 18.0808 171.717 18.1004 172.181 18.1004C172.69 18.1004 173.095 18.0482 173.396 17.9371C173.696 17.8326 173.918 17.6497 174.056 17.395C174.193 17.1402 174.284 16.7875 174.33 16.3237C174.382 15.8664 174.402 15.2981 174.402 14.6123V6.83258H179.118V21.7649H174.637L174.519 19.949H174.258C173.984 20.4585 173.631 20.8635 173.206 21.1639C172.782 21.4644 172.285 21.68 171.743 21.8106C171.194 21.9347 170.6 22.0001 169.953 22.0001Z" fill="#0055FF"/>
<path d="M181.404 21.7649V6.83257H185.852L185.97 9.38008H186.231C186.505 8.65502 186.852 8.09326 187.27 7.68174C187.688 7.27022 188.204 6.98934 188.805 6.83257C189.412 6.6758 190.111 6.59741 190.915 6.59741V10.9021C189.687 10.9021 188.72 11.0588 188.014 11.3724C187.315 11.6859 186.812 12.215 186.519 12.9662C186.225 13.7174 186.081 14.769 186.081 16.1146V21.7649H181.404Z" fill="#0055FF"/>
<path d="M198.917 22C197.513 22 196.35 21.9086 195.435 21.7322C194.514 21.5559 193.789 21.2815 193.254 20.8961C192.718 20.5173 192.32 20.0208 192.052 19.4199C191.79 18.8124 191.621 18.0939 191.555 17.2512C191.49 16.4086 191.451 15.4353 191.451 14.3249C191.451 12.9792 191.516 11.8165 191.64 10.8367C191.764 9.86345 192.052 9.06001 192.502 8.43946C192.953 7.81238 193.652 7.3486 194.599 7.04813C195.546 6.74765 196.827 6.59741 198.447 6.59741C199.753 6.59741 200.818 6.68887 201.641 6.8783C202.464 7.06119 203.111 7.34861 203.587 7.72747C204.064 8.10633 204.41 8.60276 204.613 9.21024C204.815 9.81772 204.953 10.5428 205.005 11.392C205.064 12.2411 205.096 13.2209 205.096 14.3379V15.481H196.108C196.108 16.1473 196.134 16.6764 196.193 17.0749C196.252 17.4733 196.409 17.7738 196.663 17.9698C196.918 18.1657 197.31 18.2964 197.833 18.3617C198.362 18.4335 199.093 18.4662 200.027 18.4662C200.4 18.4662 200.837 18.4531 201.347 18.4335C201.856 18.4139 202.386 18.3878 202.941 18.3486C203.496 18.3094 204.019 18.2702 204.508 18.231V21.5101C204.077 21.6081 203.555 21.693 202.941 21.7714C202.327 21.8498 201.667 21.9086 200.962 21.9478C200.263 21.9804 199.577 22 198.917 22ZM200.674 13.5083V13.038C200.674 12.3326 200.641 11.7774 200.57 11.3724C200.504 10.9608 200.38 10.6538 200.217 10.4513C200.054 10.2488 199.825 10.1117 199.531 10.0594C199.237 10.0072 198.865 9.96796 198.421 9.96796C197.911 9.96796 197.506 10.0006 197.206 10.0725C196.905 10.1378 196.67 10.2815 196.52 10.4971C196.363 10.7126 196.258 11.0262 196.2 11.4312C196.141 11.8427 196.115 12.3783 196.115 13.0446H201.184L200.674 13.5083Z" fill="#0055FF"/>
</svg>
