<svg width="217" height="22" viewBox="0 0 217 22" fill="none" xmlns="http://www.w3.org/2000/svg">
<path d="M7.03994 21.3532C5.83114 21.3532 4.83797 21.2421 4.06696 21.0265C3.29595 20.8108 2.68174 20.4972 2.22436 20.0921C1.77352 19.687 1.44029 19.1839 1.2312 18.5762C1.02211 17.9751 0.891432 17.276 0.832626 16.4919C0.77382 15.7078 0.747681 14.8453 0.747681 13.8979C0.747681 12.9701 0.77382 12.1206 0.832626 11.3496C0.891432 10.5786 1.02864 9.87945 1.25733 9.26525C1.48602 8.65106 1.81926 8.13488 2.26358 7.72324C2.70789 7.30506 3.30902 6.99142 4.08003 6.7758C4.84451 6.56017 5.8246 6.4491 7.01379 6.4491C7.7652 6.4491 8.52969 6.48831 9.29417 6.56018C10.0586 6.63859 10.7447 6.74966 11.3458 6.89994V10.1016C10.9669 10.0428 10.4834 9.99708 9.88876 9.95788C9.29417 9.91867 8.74531 9.89905 8.22912 9.89905C7.56918 9.89905 7.04647 9.95134 6.67403 10.0559C6.29506 10.1604 6.0141 10.3499 5.82461 10.6243C5.63512 10.8988 5.51098 11.2973 5.44564 11.8266C5.3803 12.3558 5.34762 13.0419 5.34762 13.8913C5.34762 14.7408 5.3803 15.4334 5.44564 15.9757C5.51098 16.5115 5.64166 16.9231 5.82461 17.1976C6.0141 17.472 6.30812 17.6549 6.70016 17.7529C7.09874 17.8444 7.61492 17.8967 8.26179 17.8967C8.71264 17.8967 9.22883 17.8771 9.80382 17.8379C10.3788 17.7987 10.9342 17.7529 11.4635 17.6941V20.8958C10.8427 21.0265 10.1305 21.1376 9.3399 21.2225C8.54928 21.3074 7.77828 21.3532 7.03994 21.3532Z" fill="white"/>
<path d="M19.4155 21.3532C18.1283 21.3532 17.0632 21.2748 16.2138 21.1245C15.3644 20.9742 14.6914 20.7259 14.2013 20.3862C13.7113 20.0464 13.3519 19.5955 13.1232 19.0271C12.8945 18.4586 12.7508 17.7529 12.6854 16.9035C12.6201 16.0541 12.5874 15.0413 12.5874 13.8717C12.5874 12.7022 12.6201 11.6959 12.6854 10.853C12.7508 10.0101 12.8945 9.311 13.1232 8.74254C13.3519 8.17408 13.7113 7.72324 14.2013 7.38348C14.6914 7.04371 15.3644 6.80194 16.2138 6.65819C17.0632 6.51444 18.1283 6.4491 19.4155 6.4491C20.7157 6.4491 21.7938 6.52098 22.6432 6.65819C23.4927 6.80194 24.1591 7.04371 24.6557 7.38348C25.1458 7.72324 25.5051 8.17408 25.7338 8.74254C25.9625 9.311 26.1063 10.0101 26.1716 10.853C26.237 11.6959 26.2696 12.7022 26.2696 13.8717C26.2696 15.0413 26.237 16.0541 26.1716 16.9035C26.1063 17.7529 25.9625 18.4586 25.7338 19.0271C25.5051 19.5955 25.1458 20.0464 24.6557 20.3862C24.1657 20.7259 23.4927 20.9742 22.6432 21.1245C21.7938 21.2748 20.7157 21.3532 19.4155 21.3532ZM19.4155 17.8967C19.9839 17.8967 20.4217 17.8575 20.7484 17.7856C21.0686 17.7137 21.2972 17.5373 21.4279 17.276C21.5586 17.0081 21.6435 16.603 21.6697 16.0541C21.6958 15.5052 21.7089 14.78 21.7089 13.8717C21.7089 12.9635 21.6958 12.2513 21.6697 11.722C21.6435 11.1928 21.5586 10.7942 21.4279 10.5329C21.2972 10.2715 21.0686 10.1016 20.7484 10.0232C20.4282 9.94479 19.9839 9.91213 19.4155 9.91213C18.847 9.91213 18.4092 9.95133 18.0956 10.0232C17.7819 10.0951 17.5598 10.2715 17.4291 10.5329C17.2984 10.8007 17.2135 11.1928 17.1874 11.722C17.1612 12.2513 17.1481 12.97 17.1481 13.8717C17.1481 14.7734 17.1612 15.5052 17.1874 16.0541C17.2135 16.603 17.2984 17.0081 17.4291 17.276C17.5598 17.5373 17.7819 17.7072 18.0956 17.7856C18.4092 17.8575 18.847 17.8967 19.4155 17.8967Z" fill="white"/>
<path d="M32.2742 21.3532C31.4444 21.3532 30.7256 21.2421 30.1245 21.0134C29.5169 20.7847 29.0268 20.3992 28.6478 19.8373C28.2689 19.2819 27.9944 18.5174 27.8115 17.5569C27.6351 16.5964 27.5436 15.3876 27.5436 13.9305C27.5436 12.493 27.6285 11.2908 27.7984 10.3172C27.9683 9.34366 28.2427 8.57917 28.6217 8.02378C29.0007 7.46839 29.4842 7.06328 30.0788 6.82152C30.6734 6.57977 31.3987 6.45562 32.2481 6.45562C32.8165 6.45562 33.3458 6.50136 33.8489 6.59937C34.3455 6.69738 34.8029 6.86726 35.221 7.10902C35.6392 7.35732 35.9921 7.72322 36.2992 8.21327H36.5278V0.0849609H41.0886V21.131H36.7565L36.6455 19.406H36.4168C36.1358 19.9549 35.7699 20.3665 35.3256 20.641C34.8813 20.9154 34.3978 21.1049 33.8816 21.2094C33.3523 21.3009 32.8231 21.3532 32.2742 21.3532ZM34.3128 17.6157C34.9009 17.6157 35.3387 17.5438 35.6327 17.4001C35.9267 17.2563 36.1358 17.0015 36.273 16.6225C36.3841 16.2828 36.456 15.8907 36.4886 15.4464C36.5148 15.0021 36.5278 14.4859 36.5278 13.9044C36.5278 13.3163 36.5148 12.8067 36.4886 12.3754C36.4625 11.9442 36.3906 11.5717 36.273 11.2712C36.1619 10.853 35.9529 10.5721 35.6523 10.4218C35.3517 10.2715 34.9074 10.1931 34.3194 10.1931C33.8097 10.1931 33.4046 10.2323 33.104 10.3042C32.8035 10.3826 32.5813 10.5329 32.4376 10.7746C32.2938 11.0098 32.2089 11.3757 32.1697 11.8658C32.1305 12.3558 32.1109 13.0354 32.1109 13.9044C32.1109 14.7734 32.1305 15.4595 32.1697 15.9561C32.2089 16.4592 32.2938 16.8251 32.4376 17.0603C32.5813 17.2956 32.8035 17.4458 33.104 17.5112C33.3981 17.583 33.8032 17.6157 34.3128 17.6157Z" fill="white"/>
<path d="M50.06 21.3532C48.701 21.3532 47.5771 21.2683 46.6885 21.0984C45.7999 20.9285 45.1007 20.6606 44.578 20.2947C44.0618 19.9288 43.6698 19.4518 43.415 18.8638C43.1601 18.2757 43.0033 17.5831 42.9314 16.7663C42.8661 15.9561 42.8334 15.0087 42.8334 13.9371C42.8334 12.6369 42.8922 11.513 43.0164 10.5656C43.1405 9.62468 43.415 8.84712 43.8527 8.24599C44.284 7.64486 44.9635 7.19402 45.8783 6.89999C46.793 6.60596 48.0345 6.46222 49.6027 6.46222C50.8703 6.46222 51.8961 6.5537 52.6867 6.73012C53.4773 6.90653 54.1111 7.18095 54.5685 7.55339C55.0324 7.91929 55.3657 8.39628 55.5617 8.98434C55.7577 9.5724 55.8884 10.2715 55.9407 11.0948C55.9995 11.9181 56.0256 12.8655 56.0256 13.9436V15.0479H47.3419C47.3419 15.6882 47.368 16.2044 47.4268 16.5899C47.4856 16.9754 47.6359 17.2629 47.8777 17.4524C48.126 17.6419 48.4984 17.7661 49.0081 17.8314C49.5177 17.8967 50.2299 17.9294 51.1316 17.9294C51.491 17.9294 51.9157 17.9229 52.4058 17.9033C52.8958 17.8837 53.412 17.8575 53.9478 17.8183C54.4836 17.7791 54.9932 17.7464 55.4637 17.7072V20.8762C55.0455 20.9743 54.5424 21.0592 53.9478 21.1311C53.3532 21.2095 52.7129 21.2617 52.0333 21.3009C51.3669 21.3336 50.7069 21.3532 50.06 21.3532ZM51.7589 13.14V12.6891C51.7589 12.0096 51.7262 11.4673 51.6609 11.0752C51.5955 10.6767 51.4779 10.3826 51.3211 10.1801C51.1578 9.98405 50.9421 9.85336 50.6546 9.80109C50.3737 9.74228 50.0143 9.71614 49.5765 9.71614C49.0865 9.71614 48.6944 9.74883 48.4004 9.81417C48.1064 9.87951 47.8842 10.0167 47.7339 10.2258C47.5837 10.4349 47.4791 10.7355 47.4203 11.134C47.3615 11.5326 47.3354 12.0488 47.3354 12.6957H52.2359L51.7589 13.14Z" fill="white"/>
<path d="M64.2451 21.3532C63.0363 21.3532 62.0432 21.2421 61.2722 21.0265C60.5011 20.8108 59.8869 20.4972 59.4296 20.0921C58.9787 19.687 58.6455 19.1839 58.4364 18.5762C58.2273 17.9751 58.0966 17.276 58.0378 16.4919C57.979 15.7078 57.9529 14.8453 57.9529 13.8979C57.9529 12.9701 57.979 12.1206 58.0378 11.3496C58.0966 10.5786 58.2338 9.87945 58.4625 9.26525C58.6912 8.65106 59.0245 8.13488 59.4688 7.72324C59.9131 7.30506 60.5142 6.99142 61.2852 6.7758C62.0497 6.56017 63.0298 6.4491 64.219 6.4491C64.9704 6.4491 65.7349 6.48831 66.4994 6.56018C67.2638 6.63859 67.9499 6.74966 68.551 6.89994V10.1016C68.1721 10.0428 67.6885 9.99708 67.094 9.95788C66.4994 9.91867 65.9505 9.89905 65.4343 9.89905C64.7744 9.89905 64.2517 9.95134 63.8792 10.0559C63.5002 10.1604 63.2193 10.3499 63.0298 10.6243C62.8403 10.8988 62.7162 11.2973 62.6508 11.8266C62.5855 12.3558 62.5528 13.0419 62.5528 13.8913C62.5528 14.7408 62.5855 15.4334 62.6508 15.9757C62.7162 16.5115 62.8469 16.9231 63.0298 17.1976C63.2193 17.472 63.5133 17.6549 63.9054 17.7529C64.3039 17.8444 64.8201 17.8967 65.467 17.8967C65.9178 17.8967 66.434 17.8771 67.009 17.8379C67.584 17.7987 68.1394 17.7529 68.6687 17.6941V20.8958C68.0479 21.0265 67.3357 21.1376 66.5451 21.2225C65.7545 21.3074 64.9835 21.3532 64.2451 21.3532Z" fill="white"/>
<path d="M76.6206 21.3532C75.3334 21.3532 74.2683 21.2748 73.4189 21.1245C72.5695 20.9742 71.8965 20.7259 71.4064 20.3862C70.9164 20.0464 70.557 19.5955 70.3283 19.0271C70.0996 18.4586 69.9559 17.7529 69.8906 16.9035C69.8252 16.0541 69.7925 15.0413 69.7925 13.8717C69.7925 12.7022 69.8252 11.6959 69.8906 10.853C69.9559 10.0101 70.0996 9.311 70.3283 8.74254C70.557 8.17408 70.9164 7.72324 71.4064 7.38348C71.8965 7.04371 72.5695 6.80194 73.4189 6.65819C74.2683 6.51444 75.3334 6.4491 76.6206 6.4491C77.9208 6.4491 78.999 6.52098 79.8484 6.65819C80.6978 6.80194 81.3643 7.04371 81.8609 7.38348C82.3509 7.72324 82.7103 8.17408 82.939 8.74254C83.1677 9.311 83.3114 10.0101 83.3768 10.853C83.4421 11.6959 83.4748 12.7022 83.4748 13.8717C83.4748 15.0413 83.4421 16.0541 83.3768 16.9035C83.3114 17.7529 83.1677 18.4586 82.939 19.0271C82.7103 19.5955 82.3509 20.0464 81.8609 20.3862C81.3708 20.7259 80.6978 20.9742 79.8484 21.1245C78.999 21.2748 77.9274 21.3532 76.6206 21.3532ZM76.6206 17.8967C77.189 17.8967 77.6268 17.8575 77.9535 17.7856C78.2737 17.7137 78.5024 17.5373 78.6331 17.276C78.7637 17.0081 78.8487 16.603 78.8748 16.0541C78.901 15.5052 78.914 14.78 78.914 13.8717C78.914 12.9635 78.901 12.2513 78.8748 11.722C78.8487 11.1928 78.7637 10.7942 78.6331 10.5329C78.5024 10.2715 78.2737 10.1016 77.9535 10.0232C77.6334 9.94479 77.189 9.91213 76.6206 9.91213C76.0521 9.91213 75.6143 9.95133 75.3007 10.0232C74.9871 10.0951 74.7649 10.2715 74.6342 10.5329C74.5036 10.8007 74.4186 11.1928 74.3925 11.722C74.3664 12.2513 74.3533 12.97 74.3533 13.8717C74.3533 14.7734 74.3664 15.5052 74.3925 16.0541C74.4186 16.603 74.5036 17.0081 74.6342 17.276C74.7649 17.5373 74.9871 17.7072 75.3007 17.7856C75.6143 17.8575 76.0587 17.8967 76.6206 17.8967Z" fill="white"/>
<path d="M85.2324 21.1245V6.67778H89.5383L89.6494 8.43543H89.9042C90.1851 7.94538 90.538 7.55335 90.9496 7.25932C91.3678 6.96529 91.8382 6.75619 92.3675 6.63858C92.8967 6.51443 93.4717 6.45563 94.0925 6.45563C95.053 6.45563 95.824 6.57977 96.399 6.82153C96.974 7.06982 97.4117 7.42919 97.7188 7.89964C98.0194 8.37009 98.222 8.95815 98.3265 9.65729C98.4311 10.3564 98.4833 11.1667 98.4833 12.0945V21.131H93.9291V13.4862C93.9291 12.7152 93.9095 12.101 93.8703 11.6567C93.8311 11.2124 93.7462 10.8857 93.6155 10.6766C93.4848 10.4675 93.2823 10.3434 93.0078 10.2976C92.7334 10.2519 92.3675 10.2257 91.9167 10.2257C91.4462 10.2257 91.0607 10.278 90.7667 10.3826C90.4726 10.4871 90.257 10.6635 90.1133 10.9053C89.9695 11.1536 89.878 11.4934 89.8323 11.9377C89.7866 12.382 89.7604 12.9308 89.7604 13.5973V21.131H85.2324V21.1245Z" fill="white"/>
<path d="M110.336 21.1899L103.463 16.9689V11.1079L110.336 6.86078V11.4477L105.795 14.022L110.336 16.603V21.1899Z" fill="#8800FF"/>
<path d="M110.336 6.85419V11.4411L103.463 15.3549V11.1013L110.336 6.85419Z" fill="#8800FF"/>
<path d="M209.379 6.85419L216.252 11.0752V16.9362L209.379 21.1833V16.5964L213.92 14.022L209.379 11.4411V6.85419Z" fill="#8800FF"/>
<path d="M209.379 21.1897V16.5963L216.252 12.689V16.9361L209.379 21.1897Z" fill="#8800FF"/>
<path d="M118.909 22C118.282 22 117.602 21.9804 116.87 21.9412C116.138 21.902 115.426 21.8562 114.727 21.7974C114.034 21.7386 113.414 21.6733 112.865 21.5949V18.2821C113.179 18.3017 113.531 18.3344 113.936 18.3736C114.335 18.4128 114.753 18.4389 115.184 18.4651C115.616 18.4847 116.027 18.4977 116.432 18.5108C116.838 18.5239 117.197 18.5239 117.53 18.5239C118.445 18.5239 119.105 18.4912 119.503 18.4324C119.902 18.3736 120.157 18.2494 120.261 18.0665C120.372 17.8835 120.425 17.6287 120.425 17.3216C120.425 17.008 120.392 16.7858 120.32 16.6486C120.248 16.5114 120.118 16.4134 119.909 16.3546C119.706 16.2958 119.36 16.237 118.87 16.1782L115.38 15.7404C114.544 15.6228 113.904 15.3745 113.479 14.9955C113.048 14.6165 112.76 14.1003 112.617 13.4404C112.473 12.787 112.401 12.0225 112.401 11.1404C112.401 10.1081 112.558 9.2913 112.871 8.69671C113.185 8.10211 113.623 7.65127 114.172 7.3507C114.727 7.05014 115.394 6.84759 116.165 6.74958C116.936 6.65157 117.759 6.60583 118.641 6.60583C119.268 6.60583 119.909 6.62543 120.575 6.66464C121.241 6.70384 121.875 6.75611 122.476 6.82799C123.084 6.89333 123.581 6.97173 123.973 7.05014V10.3302C123.483 10.291 122.973 10.2518 122.437 10.2126C121.901 10.1734 121.385 10.1473 120.902 10.1211C120.412 10.1015 120 10.095 119.673 10.095C118.896 10.095 118.288 10.1146 117.87 10.1538C117.452 10.193 117.164 10.291 117.02 10.4478C116.877 10.6047 116.805 10.8595 116.805 11.2123C116.805 11.4867 116.831 11.6958 116.877 11.8396C116.922 11.9833 117.047 12.0879 117.243 12.1467C117.439 12.2055 117.739 12.2643 118.151 12.3231L121.666 12.7609C122.333 12.8393 122.895 12.9961 123.365 13.2313C123.835 13.4665 124.188 13.8847 124.437 14.4924C124.678 15.1 124.802 16.0017 124.802 17.2171C124.802 18.3148 124.659 19.1773 124.378 19.8111C124.097 20.4449 123.692 20.9219 123.162 21.2486C122.633 21.5687 122.019 21.7778 121.3 21.8758C120.582 21.9477 119.784 22 118.909 22Z" fill="#8800FF"/>
<path d="M130.977 21.9999C129.984 21.9999 129.18 21.8692 128.579 21.6209C127.972 21.3661 127.514 21.0002 127.201 20.5102C126.887 20.0201 126.684 19.419 126.586 18.6937C126.488 17.9684 126.443 17.1321 126.443 16.1781V6.83446H131.128V14.7406C131.128 15.5443 131.154 16.1716 131.199 16.629C131.245 17.0863 131.343 17.4261 131.48 17.6417C131.618 17.8573 131.82 17.988 132.095 18.0338C132.369 18.086 132.741 18.1056 133.205 18.1056C133.715 18.1056 134.12 18.0534 134.421 17.9423C134.721 17.8377 134.943 17.6548 135.081 17.4C135.218 17.1451 135.309 16.7923 135.362 16.3284C135.414 15.871 135.433 15.3025 135.433 14.6165V6.82794H140.151V21.7647H135.669L135.551 19.9482H135.29C135.015 20.4579 134.662 20.863 134.231 21.1636C133.8 21.4641 133.316 21.6797 132.768 21.8104C132.212 21.9346 131.618 21.9999 130.977 21.9999Z" fill="#8800FF"/>
<path d="M142.431 21.7647V6.82801H146.881L146.998 8.64446H147.26C147.534 8.13481 147.881 7.72969 148.299 7.42913C148.717 7.12856 149.194 6.91295 149.723 6.78227C150.252 6.65812 150.814 6.59277 151.422 6.59277C152.598 6.59277 153.48 6.75614 154.088 7.0763C154.689 7.39647 155.12 7.91919 155.375 8.64446H155.636C155.93 8.13481 156.29 7.72969 156.721 7.42913C157.152 7.12856 157.636 6.91295 158.172 6.78227C158.707 6.65812 159.276 6.59277 159.884 6.59277C161.151 6.59277 162.099 6.81493 162.713 7.26578C163.327 7.71662 163.739 8.37002 163.941 9.22598C164.144 10.0885 164.248 11.147 164.248 12.4211V21.7647H159.563V13.8586C159.563 13.0549 159.537 12.4277 159.492 11.9703C159.439 11.5129 159.361 11.1731 159.243 10.9575C159.126 10.7419 158.943 10.6112 158.688 10.5589C158.433 10.5132 158.1 10.4871 157.688 10.4871C157.237 10.4871 156.878 10.5393 156.603 10.6504C156.329 10.7615 156.126 10.9379 155.989 11.1927C155.852 11.4475 155.767 11.8004 155.741 12.2447C155.708 12.6956 155.695 13.2705 155.695 13.9697V21.7582H150.978V13.8521C150.978 13.0484 150.958 12.4211 150.919 11.9637C150.88 11.5063 150.795 11.1666 150.671 10.951C150.546 10.7353 150.357 10.6047 150.115 10.5524C149.873 10.5066 149.547 10.4805 149.135 10.4805C148.691 10.4805 148.325 10.5328 148.05 10.6439C147.776 10.7549 147.573 10.9314 147.436 11.1862C147.299 11.441 147.208 11.7939 147.175 12.2578C147.136 12.7151 147.116 13.2901 147.116 13.9697V21.7582H142.431V21.7647Z" fill="#8800FF"/>
<path d="M166.594 21.7647V6.82801H171.044L171.162 8.64446H171.423C171.697 8.13481 172.044 7.72969 172.462 7.42913C172.88 7.12856 173.357 6.91295 173.88 6.78227C174.409 6.65812 174.971 6.59277 175.579 6.59277C176.748 6.59277 177.637 6.75614 178.244 7.0763C178.852 7.39647 179.283 7.91919 179.532 8.64446H179.793C180.087 8.13481 180.446 7.72969 180.878 7.42913C181.309 7.12856 181.792 6.91295 182.328 6.78227C182.864 6.65812 183.439 6.59277 184.04 6.59277C185.308 6.59277 186.255 6.81493 186.869 7.26578C187.484 7.71662 187.895 8.37002 188.098 9.22598C188.307 10.0885 188.405 11.147 188.405 12.4211V21.7647H183.72V13.8586C183.72 13.0549 183.694 12.4277 183.648 11.9703C183.602 11.5129 183.517 11.1731 183.4 10.9575C183.282 10.7419 183.099 10.6112 182.844 10.5589C182.59 10.5132 182.263 10.4871 181.851 10.4871C181.4 10.4871 181.041 10.5393 180.767 10.6504C180.492 10.7615 180.29 10.9379 180.152 11.1927C180.015 11.4475 179.937 11.8004 179.904 12.2447C179.871 12.6956 179.858 13.2705 179.858 13.9697V21.7582H175.141V13.8521C175.141 13.0484 175.121 12.4211 175.082 11.9637C175.043 11.5063 174.958 11.1666 174.834 10.951C174.71 10.7353 174.52 10.6047 174.278 10.5524C174.03 10.5066 173.703 10.4805 173.298 10.4805C172.847 10.4805 172.488 10.5328 172.214 10.6439C171.939 10.7549 171.737 10.9314 171.599 11.1862C171.462 11.441 171.377 11.7939 171.338 12.2578C171.299 12.7151 171.279 13.2901 171.279 13.9697V21.7582H166.594V21.7647Z" fill="#8800FF"/>
<path d="M190.698 3.77666V0H195.533V3.77666H190.698ZM190.757 21.7648V6.82805H195.501V21.7648H190.757Z" fill="#8800FF"/>
<path d="M199.31 21.7648V10.4021H196.585V6.82802H199.31V2.49597H204.053V6.82802H207.307V10.4021H204.053V21.7648H199.31Z" fill="#8800FF"/>
</svg>
