<svg width="189" height="37" viewBox="0 0 189 37" fill="none" xmlns="http://www.w3.org/2000/svg">
<g clip-path="url(#clip0_9_1177)">
<path d="M188.125 8.64131V27.4273H181.833V24.0093C181.301 25.2966 180.494 26.2771 179.407 26.9463C178.322 27.6131 176.979 27.9501 175.388 27.9501C173.964 27.9501 172.723 27.5992 171.662 26.8952C170.603 26.1911 169.784 25.2245 169.208 23.9977C168.636 22.7708 168.347 21.386 168.347 19.8339C168.328 18.2353 168.634 16.7993 169.259 15.5283C169.884 14.2573 170.768 13.2675 171.905 12.5542C173.043 11.8432 174.342 11.4853 175.798 11.4853C178.796 11.4853 180.807 12.8074 181.833 15.4516V8.64131H188.125ZM180.893 22.1203C181.537 21.4859 181.854 20.6611 181.854 19.655C181.854 18.6837 181.544 17.8891 180.919 17.2803C180.296 16.6738 179.44 16.3671 178.367 16.3671C177.305 16.3671 176.458 16.6762 175.824 17.2966C175.189 17.9146 174.874 18.7162 174.874 19.7084C174.874 20.7006 175.189 21.5092 175.824 22.1342C176.458 22.7616 177.296 23.0729 178.341 23.0729C179.4 23.0706 180.252 22.7523 180.893 22.1203ZM167.22 12.4496V18.0866C166.567 17.6497 165.722 17.4336 164.677 17.4336C163.308 17.4336 162.253 17.8542 161.518 18.6977C160.781 19.5411 160.415 20.8516 160.415 22.6268V27.4273H154.123V12.1638H160.287V17.0154C160.627 15.2425 161.182 13.9344 161.945 13.0886C162.704 12.2451 163.686 11.8246 164.882 11.8246C165.79 11.8246 166.567 12.0337 167.22 12.4496ZM136.75 26.8533C135.269 26.1237 134.14 25.1246 133.36 23.8536C132.583 22.5826 132.192 21.1653 132.192 19.5992C132.192 18.0331 132.579 16.6367 133.36 15.4098C134.142 14.183 135.264 13.221 136.741 12.524C138.21 11.8269 139.967 11.4807 142.004 11.4807C144.04 11.4807 145.797 11.8269 147.269 12.524C148.741 13.221 149.863 14.176 150.633 15.3959C151.405 16.6134 151.79 18.0122 151.79 19.5969C151.79 21.1606 151.405 22.578 150.633 23.849C149.863 25.12 148.736 26.1191 147.255 26.851C145.771 27.5806 144.022 27.9454 142.001 27.9454C139.979 27.9454 138.229 27.5853 136.75 26.8533ZM144.554 22.2248C145.179 21.5905 145.494 20.7517 145.494 19.7084C145.494 18.6651 145.181 17.8333 144.554 17.2176C143.931 16.5995 143.079 16.2905 142.001 16.2905C140.903 16.2905 140.044 16.5995 139.419 17.2176C138.794 17.8356 138.483 18.6651 138.483 19.7084C138.483 20.7517 138.794 21.5905 139.419 22.2248C140.042 22.8568 140.903 23.1775 142.001 23.1775C143.079 23.1751 143.931 22.8568 144.554 22.2248ZM118.502 26.8533C117.03 26.1237 115.92 25.1316 115.178 23.8792C114.436 22.6268 114.063 21.2164 114.063 19.6526C114.063 18.0866 114.448 16.6855 115.217 15.4516C115.99 14.2178 117.119 13.2466 118.609 12.5426C120.098 11.8385 121.878 11.4877 123.949 11.4877C126.518 11.4877 128.65 12.036 130.344 13.1327V17.9076C129.747 17.4894 129.049 17.1502 128.254 16.8899C127.458 16.6297 126.607 16.4972 125.697 16.4972C124.103 16.4972 122.86 16.7923 121.962 17.3848C121.064 17.9774 120.611 18.7488 120.611 19.7084C120.611 20.6471 121.047 21.4139 121.922 22.018C122.795 22.6198 124.059 22.9219 125.722 22.9219C126.576 22.9219 127.421 22.7941 128.254 22.5455C129.082 22.2899 129.798 21.9808 130.395 21.616V26.2353C128.515 27.3831 126.331 27.957 123.847 27.957C121.756 27.9501 119.974 27.5853 118.502 26.8533ZM100.319 27.4017C98.9314 27.0369 97.6809 26.5071 96.5682 25.8101V21.479C97.4103 22.1388 98.5348 22.6826 99.9485 23.1101C101.36 23.5353 102.725 23.7491 104.045 23.7491C104.663 23.7491 105.128 23.6654 105.443 23.5028C105.76 23.3378 105.918 23.1403 105.918 22.9126C105.918 22.6523 105.832 22.4363 105.659 22.262C105.487 22.0854 105.153 21.9413 104.659 21.8182L101.577 21.1142C99.8132 20.6959 98.5604 20.1173 97.8163 19.3761C97.0721 18.6372 96.7011 17.6683 96.7011 16.4694C96.7011 15.4586 97.0231 14.5826 97.6763 13.8321C98.3272 13.0839 99.251 12.5054 100.45 12.0988C101.652 11.6898 103.051 11.4853 104.663 11.4853C106.1 11.4853 107.418 11.641 108.618 11.9547C109.817 12.2684 110.808 12.6657 111.597 13.1537V17.2524C110.79 16.7621 109.863 16.3787 108.809 16.0883C107.754 15.8002 106.674 15.6608 105.557 15.6608C103.947 15.6608 103.145 15.9396 103.145 16.4949C103.145 16.7552 103.268 16.9503 103.518 17.0805C103.767 17.2106 104.225 17.3453 104.89 17.4871L107.458 17.9564C109.135 18.2492 110.386 18.7674 111.207 19.5063C112.031 20.2451 112.441 21.3372 112.441 22.7825C112.441 24.3671 111.762 25.6242 110.4 26.5559C109.04 27.4877 107.108 27.9524 104.607 27.9524C103.135 27.9501 101.705 27.7665 100.319 27.4017ZM87.4862 15.7607C89.4085 16.6018 91.7927 16.639 93.7593 15.7607V27.5086H87.4862V15.7607ZM90.6263 13.788C92.3573 13.788 93.7617 12.5054 93.7617 10.9254C93.7617 9.34534 92.3573 8.06274 90.6263 8.06274C88.8929 8.06274 87.4885 9.34534 87.4885 10.9254C87.4885 12.5054 88.8929 13.788 90.6263 13.788ZM64.1852 9.16178H74.2003C76.6149 9.16178 78.6538 9.54517 80.3265 10.3096C81.9969 11.0741 83.2473 12.1406 84.0778 13.5045C84.906 14.8684 85.3236 16.4322 85.3236 18.1911C85.3236 19.9129 84.8896 21.4743 84.0241 22.8731C83.1586 24.2742 81.8429 25.3802 80.0699 26.1981C78.2992 27.0137 76.104 27.4249 73.4818 27.4249H64.1852V9.16178ZM73.3791 22.7825C75.0028 22.7825 76.2556 22.3689 77.1281 21.5463C78.0006 20.7168 78.4368 19.5922 78.4368 18.1656C78.4368 16.8411 78.0472 15.7862 77.2704 14.9962C76.4935 14.2062 75.3154 13.8066 73.7407 13.8066H70.6076V22.7825H73.3791ZM47.9505 29.8972C43.9099 32.9039 39.993 34.7255 36.139 35.9175C35.1849 34.6187 34.3427 33.2315 33.6125 31.777C34.9969 31.2537 36.3313 30.6075 37.5994 29.8461C37.2705 29.5998 36.9439 29.3419 36.6243 29.0793C29.04 32.6483 20.7022 32.6483 13.027 29.0793C12.7083 29.3438 12.3824 29.5995 12.0495 29.8461C13.3093 30.5989 14.6413 31.2472 16.0318 31.7723C15.3016 33.2315 14.4524 34.614 13.5029 35.9152C9.6536 34.7209 5.739 32.8992 1.70075 29.8972C0.8749 21.0979 2.52659 12.1708 8.61546 3.01365C11.6366 1.60558 14.8676 0.580889 18.248 0C18.6656 0.743538 19.1602 1.74731 19.4938 2.54429C23.0165 2.00755 26.5718 2.00755 30.1598 2.54429C30.4934 1.74731 30.9786 0.743538 31.3916 0C34.7673 0.580889 37.996 1.60093 41.0148 3.00668C46.2941 10.851 48.9187 19.6968 47.9505 29.8972ZM21.2691 19.7409C21.3111 17.1316 19.4215 14.9916 17.0769 14.9916C14.7323 14.9916 12.8823 17.1339 12.8823 19.7409C12.8823 22.3456 14.772 24.4856 17.0769 24.4856C19.4215 24.4856 21.2738 22.3456 21.2691 19.7409ZM36.7666 19.7409C36.8086 17.1316 34.9189 14.9916 32.5744 14.9916C30.2298 14.9916 28.3798 17.1339 28.3798 19.7409C28.3798 22.3456 30.2694 24.4856 32.5744 24.4856C34.9189 24.4856 36.7666 22.3456 36.7666 19.7409Z" fill="#8B949E"/>
</g>
<defs>
<clipPath id="clip0_9_1177">
<rect width="188" height="37" fill="white" transform="translate(0.5)"/>
</clipPath>
</defs>
</svg>
