<svg width="297" height="26" viewBox="0 0 297 26" fill="none" xmlns="http://www.w3.org/2000/svg">
<path d="M122.91 25.3506L114.851 20.3562V13.4213L122.91 8.39606V13.8233L117.585 16.8694L122.91 19.9233V25.3506Z" fill="#8B949E"/>
<path d="M288.441 8.39606L296.5 13.3904V20.3253L288.441 25.3506V19.9233L293.765 16.8772L288.441 13.8233V8.39606Z" fill="#8B949E"/>
<path d="M126.273 25.7294V8.21054H131.444L131.581 10.3443H131.888C132.225 9.74903 132.646 9.27743 133.144 8.9218C133.642 8.56616 134.209 8.31878 134.845 8.16415C135.481 8.01726 136.17 7.93994 136.921 7.93994C138.078 7.93994 139.005 8.08682 139.694 8.38834C140.384 8.68986 140.912 9.12281 141.28 9.69492C141.64 10.267 141.885 10.9783 142.015 11.821C142.138 12.6714 142.207 13.6533 142.207 14.7743V25.7372H136.729V16.4597C136.729 15.5242 136.706 14.782 136.66 14.2409C136.614 13.6997 136.515 13.3054 136.354 13.058C136.193 12.8029 135.948 12.6482 135.619 12.5941C135.289 12.54 134.853 12.5091 134.309 12.5091C133.742 12.5091 133.282 12.5709 132.93 12.7024C132.577 12.8261 132.317 13.0425 132.148 13.3363C131.98 13.6378 131.865 14.0553 131.804 14.5888C131.75 15.13 131.719 15.7948 131.719 16.5989V25.7372H126.273V25.7294Z" fill="#8B949E"/>
<path d="M153.131 26C151.499 26 150.143 25.8995 149.078 25.6908C148.014 25.482 147.163 25.1573 146.543 24.7089C145.914 24.2605 145.455 23.6807 145.148 22.9771C144.842 22.2658 144.65 21.4231 144.574 20.4335C144.497 19.4517 144.451 18.3075 144.451 17.0009C144.451 15.4237 144.528 14.0553 144.673 12.9111C144.819 11.7669 145.156 10.8237 145.677 10.0969C146.198 9.36248 147.01 8.82128 148.113 8.46564C149.216 8.11001 150.702 7.93219 152.587 7.93219C154.104 7.93219 155.345 8.04044 156.295 8.25691C157.245 8.47338 158.003 8.80583 158.562 9.25424C159.121 9.70265 159.512 10.2825 159.75 10.986C159.987 11.6973 160.14 12.5477 160.209 13.545C160.278 14.5424 160.309 15.6943 160.309 17.0009V18.3384H149.86C149.86 19.1193 149.89 19.7377 149.959 20.2093C150.028 20.6809 150.212 21.0289 150.503 21.2608C150.794 21.4927 151.254 21.6473 151.867 21.7246C152.48 21.802 153.33 21.8483 154.418 21.8483C154.847 21.8483 155.36 21.8406 155.95 21.8174C156.54 21.7942 157.16 21.7633 157.804 21.7169C158.447 21.6705 159.06 21.6241 159.627 21.5778V25.4279C159.129 25.5439 158.524 25.6444 157.804 25.7371C157.091 25.8299 156.325 25.8995 155.506 25.9459C154.694 25.9768 153.905 26 153.131 26ZM155.176 16.0422V15.4933C155.176 14.6661 155.138 14.0166 155.054 13.5373C154.977 13.058 154.839 12.6946 154.648 12.4549C154.456 12.2153 154.188 12.0606 153.851 11.9911C153.514 11.9215 153.077 11.8906 152.556 11.8906C151.966 11.8906 151.499 11.9292 151.147 12.0143C150.794 12.0916 150.526 12.2617 150.35 12.5091C150.166 12.7642 150.044 13.1276 149.975 13.6069C149.906 14.0862 149.875 14.7202 149.875 15.4933H155.766L155.176 16.0422Z" fill="#8B949E"/>
<path d="M165.556 25.7294L161.129 8.21051H166.575L169.057 20.2016H169.364L172.397 8.21051H177.438L180.502 20.2016H180.839L183.26 8.21051H188.569L184.141 25.7294H177.438L175.017 16.5602H174.68L172.298 25.7294H165.556Z" fill="#8B949E"/>
<path d="M196.705 26C195.977 26 195.188 25.9768 194.337 25.9304C193.487 25.884 192.66 25.8299 191.855 25.7603C191.051 25.6908 190.331 25.6134 189.695 25.5207V21.6396C190.055 21.6628 190.469 21.6937 190.936 21.7401C191.403 21.7865 191.886 21.8174 192.384 21.8406C192.882 21.8638 193.365 21.8793 193.832 21.8947C194.299 21.9102 194.721 21.9102 195.111 21.9102C196.176 21.9102 196.942 21.8793 197.409 21.8097C197.877 21.7401 198.168 21.601 198.298 21.3768C198.421 21.1603 198.482 20.8665 198.482 20.5031C198.482 20.1398 198.444 19.8769 198.359 19.7146C198.283 19.5522 198.122 19.4362 197.884 19.3744C197.647 19.3048 197.241 19.2352 196.674 19.1656L192.622 18.6476C191.649 18.5085 190.906 18.2224 190.408 17.774C189.91 17.3256 189.573 16.7226 189.404 15.9494C189.236 15.1841 189.151 14.2795 189.151 13.2513C189.151 12.0375 189.335 11.0788 189.695 10.383C190.055 9.68718 190.561 9.16145 191.212 8.80582C191.855 8.45018 192.629 8.21825 193.525 8.10228C194.422 7.98631 195.379 7.93219 196.398 7.93219C197.126 7.93219 197.877 7.95538 198.643 8.00177C199.417 8.04816 200.152 8.11 200.857 8.19505C201.562 8.28009 202.136 8.35742 202.596 8.45019V12.3003C202.029 12.2539 201.431 12.2075 200.811 12.1612C200.183 12.1148 199.593 12.0838 199.026 12.0606C198.459 12.0375 197.984 12.0297 197.593 12.0297C196.682 12.0297 195.985 12.0529 195.502 12.0993C195.012 12.1457 194.682 12.2617 194.514 12.4395C194.345 12.625 194.261 12.9188 194.261 13.3363C194.261 13.661 194.292 13.9007 194.345 14.0785C194.399 14.2486 194.544 14.3723 194.774 14.4419C195.004 14.5114 195.356 14.581 195.831 14.6506L199.914 15.1686C200.688 15.2614 201.347 15.4469 201.891 15.7175C202.435 15.9881 202.848 16.4829 203.132 17.1942C203.415 17.9054 203.561 18.9724 203.561 20.3872C203.561 21.6705 203.4 22.6833 203.071 23.4255C202.741 24.1677 202.274 24.7321 201.661 25.1109C201.048 25.4897 200.328 25.7372 199.501 25.8531C198.65 25.9459 197.724 26 196.705 26Z" fill="#8B949E"/>
<path d="M205.622 25.7294V0.200989H211.137V25.7294H205.622Z" fill="#8B949E"/>
<path d="M222.1 26C220.468 26 219.112 25.8995 218.047 25.6908C216.982 25.482 216.132 25.1573 215.512 24.7089C214.883 24.2605 214.424 23.6807 214.117 22.9771C213.811 22.2658 213.619 21.4231 213.543 20.4335C213.466 19.4517 213.42 18.3075 213.42 17.0009C213.42 15.4237 213.497 14.0553 213.642 12.9111C213.788 11.7669 214.125 10.8237 214.646 10.0969C215.167 9.36248 215.979 8.82128 217.082 8.46564C218.185 8.11001 219.671 7.93219 221.556 7.93219C223.073 7.93219 224.314 8.04044 225.264 8.25691C226.213 8.47338 226.972 8.80583 227.531 9.25424C228.09 9.70265 228.481 10.2825 228.719 10.986C228.956 11.6973 229.109 12.5477 229.178 13.545C229.247 14.5424 229.278 15.6943 229.278 17.0009V18.3384H218.829C218.829 19.1193 218.859 19.7377 218.928 20.2093C218.997 20.6809 219.181 21.0289 219.472 21.2608C219.763 21.4927 220.223 21.6473 220.836 21.7246C221.449 21.802 222.299 21.8483 223.387 21.8483C223.816 21.8483 224.329 21.8406 224.919 21.8174C225.509 21.7942 226.129 21.7633 226.773 21.7169C227.416 21.6705 228.029 21.6241 228.596 21.5778V25.4279C228.098 25.5439 227.493 25.6444 226.773 25.7371C226.06 25.8299 225.294 25.8995 224.475 25.9459C223.662 25.9768 222.866 26 222.1 26ZM224.137 16.0422V15.4933C224.137 14.6661 224.099 14.0166 224.015 13.5373C223.938 13.058 223.8 12.6946 223.609 12.4549C223.417 12.2153 223.149 12.0606 222.812 11.9911C222.475 11.9215 222.038 11.8906 221.518 11.8906C220.928 11.8906 220.46 11.9292 220.108 12.0143C219.756 12.0916 219.487 12.2617 219.311 12.5091C219.127 12.7642 219.005 13.1276 218.936 13.6069C218.867 14.0862 218.836 14.7202 218.836 15.4933H224.727L224.137 16.0422Z" fill="#8B949E"/>
<path d="M233.33 25.7294V12.4008H230.166V8.21049H233.33V3.12335H238.846V8.21049H242.623V12.4008H238.846V25.7294H233.33Z" fill="#8B949E"/>
<path d="M245.825 25.7294V12.4008H242.661V8.21049H245.825V3.12335H251.34V8.21049H255.117V12.4008H251.34V25.7294H245.825Z" fill="#8B949E"/>
<path d="M264.509 26C262.877 26 261.521 25.8995 260.457 25.6908C259.392 25.482 258.541 25.1573 257.921 24.7089C257.293 24.2605 256.833 23.6807 256.527 22.9771C256.22 22.2658 256.029 21.4231 255.952 20.4335C255.876 19.4517 255.83 18.3075 255.83 17.0009C255.83 15.4237 255.906 14.0553 256.052 12.9111C256.197 11.7669 256.534 10.8237 257.055 10.0969C257.576 9.36248 258.388 8.82128 259.491 8.46564C260.594 8.11001 262.081 7.93219 263.965 7.93219C265.482 7.93219 266.723 8.04044 267.673 8.25691C268.623 8.47338 269.381 8.80583 269.94 9.25424C270.5 9.70265 270.89 10.2825 271.128 10.986C271.365 11.6973 271.519 12.5477 271.588 13.545C271.656 14.5424 271.687 15.6943 271.687 17.0009V18.3384H261.238C261.238 19.1193 261.269 19.7377 261.338 20.2093C261.407 20.6809 261.59 21.0289 261.881 21.2608C262.173 21.4927 262.632 21.6473 263.245 21.7246C263.858 21.802 264.708 21.8483 265.796 21.8483C266.225 21.8483 266.738 21.8406 267.328 21.8174C267.918 21.7942 268.539 21.7633 269.182 21.7169C269.826 21.6705 270.438 21.6241 271.005 21.5778V25.4279C270.507 25.5439 269.902 25.6444 269.182 25.7371C268.47 25.8299 267.704 25.8995 266.884 25.9459C266.08 25.9768 265.283 26 264.509 26ZM266.554 16.0422V15.4933C266.554 14.6661 266.516 14.0166 266.432 13.5373C266.355 13.058 266.217 12.6946 266.026 12.4549C265.834 12.2153 265.566 12.0606 265.229 11.9911C264.892 11.9215 264.455 11.8906 263.935 11.8906C263.345 11.8906 262.877 11.9292 262.525 12.0143C262.173 12.0916 261.904 12.2617 261.728 12.5091C261.544 12.7642 261.422 13.1276 261.353 13.6069C261.284 14.0862 261.253 14.7202 261.253 15.4933H267.144L266.554 16.0422Z" fill="#8B949E"/>
<path d="M274.008 25.7294V8.21053H279.179L279.317 11.2025H279.624C279.945 10.3521 280.344 9.68717 280.834 9.20783C281.324 8.7285 281.914 8.39607 282.619 8.21053C283.324 8.02498 284.136 7.93219 285.07 7.93219V12.9807C283.638 12.9807 282.519 13.1662 281.7 13.5296C280.88 13.893 280.305 14.5192 279.961 15.4005C279.624 16.2819 279.447 17.5111 279.447 19.096V25.7294H274.008Z" fill="#8B949E"/>
<path d="M3.7328 25.7217V12.2771H0.5V8.04816H3.7328V6.83438C3.7328 5.49688 3.8094 4.39903 3.97028 3.55633C4.13115 2.71363 4.4146 2.04876 4.82827 1.56169C5.24195 1.07463 5.81649 0.726728 6.55957 0.502523C7.30266 0.28605 8.24492 0.146881 9.3787 0.0850319C10.5125 0.0309135 11.8684 0 13.4465 0V3.81148C12.5119 3.81148 11.7612 3.83467 11.1943 3.88105C10.635 3.92744 10.2137 4.02795 9.93793 4.17484C9.66214 4.32173 9.48595 4.54594 9.40934 4.832C9.33273 5.11805 9.28677 5.5278 9.28677 6.06126V8.04044H13.4388V12.2694H9.28677V25.7139H3.7328V25.7217Z" fill="white"/>
<path d="M22.8921 26C21.2451 26 19.8815 25.8918 18.809 25.683C17.7288 25.4743 16.8785 25.1496 16.2503 24.6934C15.6222 24.245 15.1549 23.6575 14.8408 22.9462C14.5343 22.2272 14.3352 21.3767 14.2586 20.3794C14.182 19.3821 14.136 18.2301 14.136 16.9158C14.136 15.3232 14.2126 13.9471 14.3581 12.7874C14.5037 11.6354 14.8408 10.6845 15.3694 9.95004C15.8979 9.20785 16.7176 8.65893 17.8284 8.30329C18.9392 7.94766 20.4407 7.76984 22.3405 7.76984C23.8727 7.76984 25.1214 7.87807 26.0866 8.10227C27.0518 8.32648 27.8103 8.65893 28.3695 9.10734C28.9287 9.55575 29.3347 10.1433 29.5722 10.8623C29.8097 11.5813 29.9706 12.4395 30.0318 13.4445C30.1008 14.4496 30.1391 15.6093 30.1391 16.9313V18.2843H19.598C19.598 19.0729 19.6287 19.6991 19.6976 20.1707C19.7666 20.6423 19.9504 20.9979 20.2492 21.2299C20.548 21.4618 21.0076 21.6164 21.6204 21.6937C22.241 21.7788 23.0989 21.8174 24.1944 21.8174C24.6311 21.8174 25.1443 21.802 25.7419 21.7788C26.3394 21.7556 26.9599 21.7246 27.6111 21.6783C28.2622 21.6319 28.8751 21.5855 29.4496 21.5391V25.4202C28.944 25.5361 28.3312 25.6366 27.6111 25.7294C26.891 25.8222 26.1173 25.8918 25.2899 25.9382C24.4702 25.9768 23.6658 26 22.8921 26ZM24.9528 15.9494V15.3928C24.9528 14.5578 24.9145 13.9007 24.8303 13.4213C24.7537 12.9343 24.6081 12.5709 24.4166 12.3312C24.2251 12.0916 23.9569 11.9292 23.6122 11.8674C23.2675 11.7978 22.8308 11.7591 22.3099 11.7591C21.7124 11.7591 21.2374 11.7978 20.885 11.8828C20.5326 11.9602 20.2569 12.1302 20.0807 12.3854C19.8968 12.6405 19.7742 13.0116 19.7053 13.4909C19.6363 13.978 19.6057 14.6119 19.6057 15.4005H25.5504L24.9528 15.9494Z" fill="white"/>
<path d="M36.5587 26C35.4555 26 34.5286 25.8299 33.7779 25.482C33.0195 25.1341 32.4526 24.5697 32.0772 23.7812C31.7018 22.9926 31.5103 21.9643 31.5103 20.6964C31.5103 19.3589 31.6635 18.2843 31.97 17.488C32.2764 16.6917 32.8356 16.1195 33.6323 15.7716C34.4367 15.4237 35.5705 15.2536 37.0337 15.2536C37.2405 15.2536 37.5316 15.2614 37.907 15.2691C38.2823 15.2846 38.7113 15.2923 39.1939 15.3078C39.6766 15.3232 40.1592 15.331 40.6342 15.3464C41.1168 15.3619 41.5458 15.3773 41.9365 15.4005V14.7434C41.9365 14.0708 41.8828 13.5528 41.7833 13.1817C41.676 12.8106 41.4845 12.54 41.201 12.3699C40.9176 12.1998 40.4886 12.0916 39.9141 12.0607C39.3395 12.022 38.5888 12.0066 37.6465 12.0066C37.1179 12.0066 36.5434 12.022 35.9152 12.0452C35.287 12.0684 34.6665 12.0993 34.0613 12.1303C33.4561 12.1612 32.9429 12.2075 32.5292 12.2539V8.33424C33.4638 8.17188 34.5286 8.04043 35.7083 7.9322C36.8881 7.82396 38.1291 7.77759 39.4314 7.77759C40.8946 7.77759 42.1127 7.87035 43.0856 8.0559C44.0585 8.24145 44.8399 8.51978 45.4374 8.90634C46.0349 9.28516 46.4716 9.76449 46.7627 10.3443C47.0461 10.9242 47.2376 11.6045 47.3296 12.3931C47.4215 13.1817 47.4675 14.0708 47.4675 15.0604V25.7371H42.1816L42.0437 23.6575H41.7679C41.3313 24.3533 40.8257 24.8713 40.2588 25.2192C39.6842 25.5671 39.079 25.7836 38.4356 25.8763C37.8074 25.9536 37.1792 26 36.5587 26ZM39.171 22.0494C39.5846 22.0494 39.9447 22.0184 40.2511 21.9643C40.5575 21.9102 40.8257 21.802 41.0402 21.6551C41.2547 21.5082 41.4385 21.3149 41.5688 21.083C41.6837 20.8278 41.7756 20.5186 41.8445 20.1475C41.9135 19.7764 41.9518 19.3357 41.9518 18.8332V18.176H38.7573C38.1827 18.176 37.7461 18.2147 37.455 18.2997C37.1562 18.377 36.957 18.5626 36.8574 18.8564C36.7502 19.1424 36.7042 19.5909 36.7042 20.1939C36.7042 20.7041 36.7579 21.0984 36.8728 21.369C36.9877 21.6473 37.2175 21.8329 37.5776 21.9257C37.9299 22.003 38.4585 22.0494 39.171 22.0494Z" fill="white"/>
<path d="M51.7727 25.7217V12.2771H48.5782V8.04813H51.7727V2.92236H57.3344V8.04813H61.1494V12.2771H57.3344V25.7217H51.7727Z" fill="white"/>
<path d="M67.7758 26C66.6114 26 65.6692 25.8454 64.9644 25.5516C64.2519 25.2501 63.7157 24.8171 63.348 24.2373C62.9803 23.6574 62.7428 22.9462 62.6279 22.088C62.513 21.2299 62.4594 20.2403 62.4594 19.1115V8.0559H67.952V17.4107C67.952 18.3539 67.9827 19.1038 68.0363 19.645C68.0899 20.1861 68.2048 20.5882 68.3657 20.8433C68.5266 21.0984 68.7641 21.2531 69.0858 21.3072C69.4076 21.369 69.8442 21.3922 70.3881 21.3922C70.9857 21.3922 71.4606 21.3304 71.813 21.1989C72.1654 21.0752 72.4259 20.8588 72.5867 20.5573C72.7476 20.2557 72.8549 19.8382 72.9085 19.2893C72.9698 18.7481 72.9927 18.0755 72.9927 17.2638V8.04816H78.5237V25.7217H73.2685L73.1306 23.5724H72.8242C72.5025 24.1754 72.0888 24.6548 71.5908 25.0104C71.0929 25.366 70.5107 25.6212 69.8749 25.7758C69.2314 25.9227 68.5342 26 67.7758 26Z" fill="white"/>
<path d="M81.205 25.7217V8.04815H86.4219L86.5598 11.0633H86.8662C87.188 10.2052 87.594 9.54028 88.0843 9.05322C88.5746 8.56615 89.1797 8.2337 89.8845 8.04815C90.597 7.8626 91.4167 7.76984 92.3589 7.76984V12.8647C90.9187 12.8647 89.7849 13.0502 88.9576 13.4213C88.1379 13.7924 87.548 14.4187 87.2033 15.3078C86.8586 16.1968 86.69 17.4416 86.69 19.0342V25.7217H81.205Z" fill="white"/>
<path d="M101.743 26C100.096 26 98.7326 25.8918 97.6601 25.683C96.5799 25.4743 95.7296 25.1496 95.1014 24.6934C94.4732 24.245 94.0059 23.6575 93.6918 22.9462C93.3854 22.2272 93.1862 21.3767 93.1096 20.3794C93.033 19.3821 92.9871 18.2301 92.9871 16.9158C92.9871 15.3232 93.0637 13.9471 93.2092 12.7874C93.3548 11.6354 93.6918 10.6845 94.2204 9.95004C94.749 9.20785 95.5687 8.65893 96.6795 8.30329C97.7903 7.94766 99.2918 7.76984 101.192 7.76984C102.724 7.76984 103.972 7.87807 104.938 8.10227C105.903 8.32648 106.661 8.65893 107.221 9.10734C107.78 9.55575 108.186 10.1433 108.423 10.8623C108.661 11.5813 108.822 12.4395 108.883 13.4445C108.952 14.4496 108.99 15.6093 108.99 16.9313V18.2843H98.4491C98.4491 19.0729 98.4798 19.6991 98.5487 20.1707C98.6176 20.6423 98.8015 20.9979 99.1003 21.2299C99.399 21.4618 99.8587 21.6164 100.472 21.6937C101.092 21.7788 101.95 21.8174 103.046 21.8174C103.482 21.8174 103.995 21.802 104.593 21.7788C105.19 21.7556 105.811 21.7246 106.462 21.6783C107.113 21.6319 107.726 21.5855 108.301 21.5391V25.4202C107.795 25.5361 107.182 25.6366 106.462 25.7294C105.742 25.8222 104.968 25.8918 104.141 25.9382C103.321 25.9768 102.517 26 101.743 26ZM103.804 15.9494V15.3928C103.804 14.5578 103.766 13.9007 103.681 13.4213C103.605 12.9343 103.459 12.5709 103.268 12.3312C103.076 12.0916 102.808 11.9292 102.463 11.8674C102.119 11.7978 101.682 11.7591 101.161 11.7591C100.563 11.7591 100.088 11.7978 99.7361 11.8828C99.3837 11.9602 99.1079 12.1302 98.9317 12.3854C98.7479 12.6405 98.6253 13.0116 98.5564 13.4909C98.4874 13.978 98.4568 14.6119 98.4568 15.4005H104.401L103.804 15.9494Z" fill="white"/>
</svg>
