<svg width="113" height="83" viewBox="0 0 113 83" fill="none" xmlns="http://www.w3.org/2000/svg">
<path d="M113 10.8915C108.843 12.7406 104.374 13.9858 99.6848 14.5472C104.473 11.6745 108.15 7.12264 109.878 1.69811C105.401 4.35849 100.438 6.29245 95.1554 7.33491C90.932 2.82075 84.9007 0 78.2337 0C63.2659 0 52.2672 13.9906 55.6478 28.5142C36.386 27.5472 19.3042 18.3019 7.86763 4.25C1.79388 14.6887 4.71775 28.3443 15.0384 35.2594C11.2435 35.1368 7.66517 34.0943 4.54354 32.3538C4.28929 43.1132 11.9874 53.1792 23.1368 55.4198C19.8739 56.3066 16.3003 56.5141 12.6654 55.816C15.6128 65.0424 24.1726 71.7547 34.3237 71.9434C24.5775 79.5991 12.2982 83.0189 0 81.566C10.2595 88.1557 22.4493 92 35.5385 92C78.5821 92 102.901 55.5802 101.432 22.9151C105.961 19.6368 109.893 15.5472 113 10.8915Z" fill="#8B949E"/>
</svg>
