<svg width="1920" height="694" viewBox="0 0 1920 694" fill="none" xmlns="http://www.w3.org/2000/svg">
<path fill-rule="evenodd" clip-rule="evenodd" d="M1154.46 0L1307 152.539L1112.45 347.092L1306.75 541.395L1154.21 693.934L959.908 499.631L765.539 694L613 541.461L807.369 347.092L613.018 152.74L765.557 0.200889L959.908 194.552L1154.46 0Z" fill="url(#paint0_linear)"/>
<path opacity="0.3" fill-rule="evenodd" clip-rule="evenodd" d="M460.461 0L613 152.539L418.448 347.092L612.751 541.395L460.212 693.934L265.908 499.631L71.5393 694L-81 541.461L113.369 347.092L-80.9824 152.74L71.5569 0.200889L265.908 194.552L460.461 0Z" fill="url(#paint1_linear)"/>
<path opacity="0.3" fill-rule="evenodd" clip-rule="evenodd" d="M1848.46 0L2001 152.539L1806.45 347.092L2000.75 541.395L1848.21 693.934L1653.91 499.631L1459.54 694L1307 541.461L1501.37 347.092L1307.02 152.74L1459.56 0.200889L1653.91 194.552L1848.46 0Z" fill="url(#paint2_linear)"/>
<defs>
<linearGradient id="paint0_linear" x1="1186" y1="-41" x2="716.953" y2="901.68" gradientUnits="userSpaceOnUse">
<stop stop-color="#383838"/>
<stop offset="1" stop-color="#383838" stop-opacity="0"/>
</linearGradient>
<linearGradient id="paint1_linear" x1="637.067" y1="-235.024" x2="22.953" y2="901.68" gradientUnits="userSpaceOnUse">
<stop stop-color="#383838"/>
<stop offset="1" stop-color="#383838" stop-opacity="0"/>
</linearGradient>
<linearGradient id="paint2_linear" x1="2025.07" y1="-235.024" x2="1410.95" y2="901.68" gradientUnits="userSpaceOnUse">
<stop stop-color="#383838"/>
<stop offset="1" stop-color="#383838" stop-opacity="0"/>
</linearGradient>
</defs>
</svg>
