<svg width="225" height="39" viewBox="0 0 225 39" fill="none" xmlns="http://www.w3.org/2000/svg">
<path d="M20.758 18.001V18.901C20.758 19.853 20.404 20.172 19.546 20.172H15.653C14.744 20.172 14.39 19.854 14.39 18.901V18.53C14.39 16.571 13.38 15.724 10.502 15.724C7.62402 15.724 6.61202 16.571 6.61202 18.53V29.065C6.61202 31.024 7.62302 31.924 10.502 31.924C13.381 31.924 14.39 31.024 14.39 29.065V28.271C14.39 27.318 14.744 26.946 15.653 26.946H19.542C20.4 26.946 20.754 27.317 20.754 28.271V29.595C20.754 34.36 17.723 37.431 10.354 37.431C2.92902 37.431 -0.000976562 34.36 -0.000976562 29.595V18.001C-0.000976562 13.289 2.97902 10.218 10.399 10.218C17.779 10.218 20.758 13.289 20.758 18.001Z" fill="white"/>
<path d="M24.853 18.001C24.853 13.289 28.338 10.218 35.763 10.218C43.188 10.218 46.673 13.289 46.673 18.001V29.595C46.673 34.36 43.188 37.431 35.763 37.431C28.338 37.431 24.853 34.36 24.853 29.595V18.001ZM40.053 18.584C40.053 16.625 38.588 15.725 35.759 15.725C32.93 15.725 31.466 16.625 31.466 18.584V29.013C31.466 31.024 32.93 31.925 35.759 31.925C38.588 31.925 40.053 31.025 40.053 29.013V18.584Z" fill="white"/>
<path d="M66.981 34.466C64.7495 36.3918 61.8966 37.4453 58.949 37.432C53.949 37.432 51.626 34.413 51.626 29.701V17.949C51.626 13.237 53.949 10.218 58.949 10.218C61.8309 10.2122 64.6221 11.2248 66.83 13.077V1.37701C66.83 0.423007 67.13 0 68.042 0H72.234C73.092 0 73.446 0.423007 73.446 1.37701V35.627C73.446 36.579 73.092 37.004 72.234 37.004H68.344C67.435 37.004 67.182 36.579 67.081 35.627L66.981 34.466ZM58.242 28.589C58.242 30.018 58.642 31.395 61.02 31.395C63.1666 31.2241 65.2021 30.3708 66.829 28.96V18.689C65.2024 17.2778 63.1667 16.4245 61.02 16.254C58.646 16.254 58.242 17.631 58.242 19.006V28.589Z" fill="white"/>
<path d="M99.4108 24.14C99.4108 24.987 99.1108 25.358 98.2988 25.358H85.3688V29.275C85.3688 31.128 86.3278 32.186 89.3078 32.186C92.2878 32.186 93.2468 31.128 93.2468 29.275V29.01C93.2468 28.11 93.6008 27.686 94.5098 27.686H98.0458C98.9038 27.686 99.3078 28.109 99.3078 29.01V29.592C99.3078 34.357 96.6818 37.428 89.2568 37.428C81.8318 37.428 78.9028 34.357 78.9028 29.592V18.001C78.9028 13.289 81.8828 10.218 89.3028 10.218C96.6768 10.218 99.4028 13.289 99.4028 18.001L99.4108 24.14ZM85.3688 20.698H93.2478V18.372C93.2478 16.519 92.1368 15.46 89.3088 15.46C86.4288 15.46 85.3698 16.519 85.3698 18.372L85.3688 20.698Z" fill="white"/>
<path d="M217.84 24.789C217.654 24.7885 217.473 24.7332 217.319 24.63L209.041 19.139C208.682 18.9009 208.388 18.5776 208.186 18.198C207.983 17.8184 207.877 17.3944 207.879 16.964V12.026C207.878 11.7291 207.958 11.4374 208.108 11.1816C208.259 10.9258 208.476 10.7153 208.736 10.572C208.995 10.4292 209.287 10.3599 209.583 10.3715C209.878 10.3831 210.164 10.4753 210.411 10.638L222.891 18.822C223.325 19.1093 223.676 19.5042 223.912 19.968C224.021 20.1798 224.047 20.4242 223.987 20.6545C223.927 20.8848 223.783 21.0847 223.585 21.216L218.358 24.634C218.204 24.7352 218.024 24.7891 217.84 24.789ZM210.084 17.539L217.845 22.684L221.572 20.245L209.785 12.515V16.965C209.784 17.0773 209.811 17.1881 209.864 17.2875C209.916 17.3868 209.992 17.4719 210.085 17.535L210.084 17.539Z" fill="white"/>
<path d="M209.517 37.2789C209.244 37.2786 208.976 37.2098 208.737 37.0789C208.476 36.9359 208.259 36.7252 208.108 36.4692C207.957 36.2132 207.877 35.9212 207.878 35.6239V30.6899C207.877 30.2593 207.983 29.8351 208.186 29.4554C208.389 29.0758 208.684 28.7526 209.043 28.5149L209.97 27.9009C210.029 27.8606 210.092 27.8271 210.159 27.8009L222.546 19.6009C222.657 19.5272 222.783 19.4778 222.915 19.4562C223.047 19.4346 223.182 19.4411 223.311 19.4754C223.44 19.5097 223.561 19.571 223.664 19.6552C223.768 19.7394 223.853 19.8446 223.913 19.9639C224.131 20.3902 224.246 20.8619 224.249 21.3409V26.2239C224.25 26.7221 224.127 27.2127 223.892 27.6518C223.657 28.0909 223.316 28.4648 222.901 28.7399L210.415 37.0029C210.149 37.1806 209.837 37.2766 209.517 37.2789ZM210.831 29.6259L210.084 30.1259C209.991 30.1888 209.915 30.2736 209.863 30.3729C209.81 30.4721 209.783 30.5827 209.784 30.6949V35.1369L221.861 27.1439C222.011 27.0447 222.134 26.9096 222.219 26.7509C222.304 26.5923 222.348 26.4149 222.348 26.2349V22.0399L211.02 29.5399C210.96 29.576 210.897 29.6052 210.831 29.6269V29.6259Z" fill="white"/>
<path d="M111.258 24.789C111.074 24.789 110.894 24.7351 110.74 24.634L105.515 21.216C105.317 21.0851 105.174 20.8857 105.113 20.6561C105.053 20.4264 105.079 20.1825 105.187 19.971C105.42 19.5062 105.771 19.1107 106.205 18.824L118.689 10.639C118.936 10.4763 119.222 10.3841 119.517 10.3725C119.813 10.3608 120.105 10.4302 120.364 10.573C120.624 10.7164 120.841 10.927 120.991 11.1828C121.142 11.4386 121.221 11.7301 121.22 12.027V16.966C121.221 17.3961 121.115 17.8199 120.913 18.1994C120.71 18.5789 120.417 18.9024 120.059 19.141L111.781 24.632C111.626 24.7346 111.444 24.7892 111.258 24.789ZM107.53 20.245L111.255 22.681L119.014 17.536C119.107 17.4729 119.183 17.3879 119.235 17.2885C119.288 17.1891 119.315 17.0783 119.314 16.966V12.516L107.53 20.245Z" fill="white"/>
<path d="M119.581 37.278C119.261 37.2791 118.948 37.1851 118.681 37.008L106.192 28.745C105.777 28.4697 105.437 28.0957 105.202 27.6566C104.967 27.2175 104.845 26.727 104.846 26.229V21.346C104.849 20.867 104.964 20.3953 105.182 19.969C105.242 19.8496 105.327 19.7443 105.43 19.66C105.534 19.5757 105.654 19.5143 105.784 19.48C105.913 19.4457 106.048 19.4392 106.179 19.4609C106.311 19.4826 106.437 19.5321 106.548 19.606L118.939 27.806C119.005 27.8299 119.067 27.8614 119.125 27.9L120.053 28.516C120.412 28.7537 120.706 29.0767 120.909 29.4559C121.112 29.8352 121.217 30.2588 121.216 30.689V35.623C121.217 35.9202 121.137 36.212 120.987 36.468C120.836 36.724 120.619 36.9347 120.358 37.078C120.12 37.2082 119.853 37.277 119.581 37.278ZM106.753 22.035V26.23C106.752 26.4099 106.797 26.5872 106.881 26.7459C106.966 26.9046 107.089 27.0397 107.239 27.139L119.317 35.132V30.69C119.318 30.5778 119.291 30.4672 119.239 30.3679C119.186 30.2686 119.11 30.1838 119.017 30.121L118.266 29.621C118.201 29.5976 118.139 29.5667 118.081 29.529L106.753 22.035Z" fill="white"/>
<path d="M137.901 38.3931C128.557 38.3931 126.601 33.6091 126.601 29.5931V18.0021C126.601 14.0131 128.572 9.25806 137.956 9.25806C147.299 9.25806 149.256 14.0131 149.256 18.0021V18.9021C149.298 19.199 149.272 19.5018 149.18 19.7871C149.087 20.0724 148.93 20.3328 148.722 20.5482C148.513 20.7637 148.258 20.9284 147.975 21.03C147.693 21.1315 147.391 21.1671 147.093 21.1341H143.204C142.903 21.1713 142.597 21.1391 142.31 21.0399C142.023 20.9406 141.763 20.7769 141.549 20.5614C141.336 20.3459 141.174 20.0843 141.077 19.7967C140.98 19.509 140.95 19.203 140.99 18.9021V18.5311C140.99 17.5831 140.99 16.6881 138.051 16.6881C135.112 16.6881 135.114 17.5881 135.114 18.5311V29.0671C135.114 30.0011 135.114 30.9671 138.051 30.9671C140.988 30.9671 140.99 30.0031 140.99 29.0671V28.2731C140.95 27.9697 140.979 27.6612 141.075 27.3706C141.171 27.0801 141.332 26.815 141.545 26.5952C141.758 26.3754 142.018 26.2065 142.305 26.1012C142.592 25.9959 142.9 25.9569 143.204 25.9871H147.093C147.395 25.9606 147.698 26.0027 147.981 26.1101C148.264 26.2175 148.519 26.3875 148.727 26.6073C148.935 26.8271 149.091 27.0911 149.182 27.3796C149.274 27.6681 149.299 27.9735 149.256 28.2731V29.5971C149.257 33.6091 147.286 38.3931 137.901 38.3931ZM137.952 11.1811C131.59 11.1811 128.499 13.4111 128.499 18.0021V29.5961C128.499 34.2221 131.574 36.4701 137.899 36.4701C144.261 36.4701 147.352 34.2231 147.352 29.5961V28.2721C147.356 28.1524 147.345 28.0328 147.318 27.9161C147.29 27.9161 147.218 27.9091 147.092 27.9091H143.203C143.102 27.9048 143.001 27.9146 142.903 27.9381C142.909 27.9621 142.887 28.0661 142.887 28.2721V29.0661C142.887 32.4891 140.124 32.8861 138.046 32.8861C135.968 32.8861 133.206 32.4861 133.206 29.0661V18.5311C133.206 15.1571 135.969 14.7651 138.046 14.7651C140.123 14.7651 142.887 15.1571 142.887 18.5311V18.9021C142.884 19.0027 142.893 19.1033 142.912 19.2021C142.938 19.1931 143.036 19.2081 143.199 19.2081H147.088C147.173 19.2099 147.258 19.2035 147.341 19.1891C147.335 19.1551 147.348 19.0611 147.348 18.8971V17.9971C147.35 13.4111 144.279 11.1811 137.95 11.1811H137.952Z" fill="white"/>
<path d="M163.31 38.3931C155.773 38.3931 151.45 35.1861 151.45 29.5931V18.0021C151.45 12.4461 155.773 9.25806 163.31 9.25806C170.847 9.25806 175.171 12.4461 175.171 18.0021V29.5961C175.171 35.1861 170.848 38.3931 163.31 38.3931ZM163.31 11.1811C158.768 11.1811 153.352 12.3641 153.352 18.0021V29.5961C153.352 35.2781 158.767 36.4701 163.31 36.4701C167.853 36.4701 173.269 35.2781 173.269 29.5961V18.0021C173.269 12.3631 167.854 11.1811 163.31 11.1811ZM163.31 32.8861C158.976 32.8861 158.066 30.7791 158.066 29.0131V18.5841C158.066 16.8431 158.975 14.7641 163.31 14.7641C167.645 14.7641 168.555 16.8431 168.555 18.5841V29.0131C168.555 30.7791 167.645 32.8861 163.31 32.8861ZM163.31 16.6861C159.969 16.6861 159.969 17.9671 159.969 18.5861V29.0151C159.969 29.6491 159.969 30.9671 163.31 30.9671C166.651 30.9671 166.652 29.6491 166.652 29.0151V18.5841C166.652 18.0161 166.652 16.6871 163.31 16.6871V16.6861Z" fill="white"/>
<path d="M200.286 38.1801H196.195C195.885 38.2069 195.572 38.1641 195.28 38.0551C194.988 37.946 194.724 37.7732 194.507 37.5494C194.29 37.3255 194.126 37.0561 194.026 36.7608C193.926 36.4655 193.893 36.1517 193.929 35.8421V19.2731C193.929 17.8001 193.721 17.4291 192.153 17.4291C190.361 17.5433 188.647 18.2067 187.245 19.3291V35.8461C187.245 37.8791 185.921 38.1841 185.132 38.1841H180.939C180.631 38.2111 180.32 38.1682 180.031 38.0584C179.741 37.9486 179.48 37.7747 179.267 37.5499C179.055 37.3251 178.895 37.0551 178.801 36.7601C178.707 36.465 178.681 36.1526 178.725 35.8461V12.1251C178.689 11.8248 178.72 11.5201 178.818 11.2339C178.916 10.9477 179.078 10.6875 179.291 10.4728C179.504 10.2581 179.763 10.0946 180.049 9.99454C180.334 9.89446 180.639 9.86045 180.939 9.89506H184.829C185.08 9.86553 185.334 9.88628 185.577 9.95609C185.819 10.0259 186.046 10.1434 186.243 10.3017C186.439 10.4599 186.602 10.6558 186.723 10.8779C186.843 11.1 186.917 11.3438 186.942 11.5951C189.104 10.1789 191.64 9.43941 194.224 9.47107C199.174 9.47107 202.499 12.7071 202.499 17.5261V35.8461C202.542 36.1522 202.516 36.4641 202.422 36.7585C202.328 37.053 202.168 37.3224 201.956 37.5467C201.743 37.7711 201.482 37.9445 201.193 38.0542C200.904 38.1638 200.594 38.2069 200.286 38.1801ZM195.886 36.2241C195.987 36.2497 196.091 36.2612 196.194 36.2581H200.285C200.381 36.2629 200.476 36.2521 200.568 36.2261C200.585 36.0987 200.595 35.9705 200.596 35.8421V17.5251C200.596 13.7411 198.155 11.3911 194.224 11.3911C191.482 11.3384 188.819 12.3145 186.76 14.1271C186.627 14.2414 186.464 14.3163 186.29 14.3436C186.116 14.3708 185.938 14.3493 185.776 14.2814C185.614 14.2135 185.474 14.1018 185.371 13.959C185.269 13.8161 185.208 13.6475 185.195 13.4721L185.095 12.2001C185.09 12.0716 185.075 11.9439 185.048 11.8181C185.017 11.8241 184.948 11.8181 184.831 11.8181H180.941C180.84 11.8145 180.74 11.8242 180.641 11.8471C180.647 11.8721 180.629 11.9611 180.629 12.1271V35.8461C180.622 35.9811 180.638 36.1164 180.676 36.2461C180.689 36.2361 180.769 36.2621 180.94 36.2621H185.133C185.198 36.2634 185.262 36.258 185.325 36.2461C185.317 36.2181 185.343 36.0971 185.343 35.8461V18.8461C185.343 18.7015 185.375 18.5587 185.438 18.4284C185.5 18.298 185.591 18.1834 185.704 18.0931C187.516 16.5536 189.78 15.6443 192.153 15.5021C195.413 15.5021 195.831 17.5151 195.831 19.2681V35.8461C195.822 35.9757 195.84 36.106 195.884 36.2281L195.886 36.2241Z" fill="white"/>
</svg>
