<svg width="1269" height="560" viewBox="0 0 1269 560" fill="none" xmlns="http://www.w3.org/2000/svg">
<path d="M566.068 371.526C568.93 371.526 571.352 371.856 573.333 372.516C575.351 373.14 576.966 374.204 578.177 375.709C579.425 377.177 580.324 379.176 580.874 381.708C581.424 384.204 581.7 387.304 581.7 391.011C581.7 394.717 581.424 397.836 580.874 400.368C580.324 402.863 579.425 404.863 578.177 406.367C576.966 407.835 575.351 408.899 573.333 409.56C571.352 410.183 568.93 410.495 566.068 410.495C563.316 410.495 560.765 410.44 558.417 410.33C556.068 410.257 553.848 410.147 551.757 410L554.619 404.716C556.087 404.789 557.775 404.863 559.683 404.936C561.591 404.973 563.719 404.991 566.068 404.991C568.196 404.991 569.866 404.588 571.077 403.78C572.324 402.936 573.205 401.505 573.719 399.487C574.232 397.432 574.489 394.607 574.489 391.011C574.489 387.414 574.232 384.607 573.719 382.589C573.205 380.534 572.324 379.085 571.077 378.241C569.866 377.397 568.196 376.975 566.068 376.975C563.793 376.975 561.756 376.993 559.958 377.03C558.197 377.067 556.472 377.085 554.784 377.085L551.757 372.021C553.848 371.874 556.05 371.764 558.362 371.691C560.71 371.581 563.279 371.526 566.068 371.526ZM558.637 372.021V410H551.757V372.021H558.637Z" fill="url(#paint0_linear_3:2102)"/>
<path d="M616.372 372.021C616.959 372.021 617.473 372.186 617.913 372.516C618.353 372.847 618.665 373.287 618.849 373.837L630.352 410H623.307L614.61 380.718C614.464 380.131 614.317 379.543 614.17 378.956C614.023 378.369 613.895 377.8 613.785 377.25H612.244C612.134 377.8 612.005 378.369 611.858 378.956C611.712 379.543 611.546 380.131 611.363 380.718L602.721 410H595.676L607.18 373.837C607.327 373.287 607.62 372.847 608.06 372.516C608.537 372.186 609.07 372.021 609.657 372.021H616.372ZM622.757 393.763V399.157H603.217V393.763H622.757Z" fill="url(#paint1_linear_3:2102)"/>
<path d="M659.836 371.526C662.991 371.526 665.542 371.856 667.486 372.516C669.468 373.177 670.899 374.314 671.78 375.929C672.697 377.507 673.156 379.745 673.156 382.644C673.156 384.552 672.917 386.185 672.44 387.543C672 388.864 671.248 389.928 670.184 390.735C669.156 391.506 667.762 392.001 666 392.221V392.497C666.624 392.643 667.266 392.937 667.927 393.377C668.624 393.781 669.248 394.368 669.798 395.139C670.385 395.909 670.826 396.9 671.119 398.111L674.587 410H667.321L664.184 398.276C663.78 396.955 663.23 396.038 662.533 395.524C661.836 394.974 660.881 394.698 659.671 394.698C657.285 394.698 655.249 394.698 653.561 394.698C651.873 394.662 650.46 394.625 649.323 394.588C648.222 394.552 647.249 394.533 646.405 394.533L646.571 389.304H659.671C661.322 389.268 662.624 389.084 663.578 388.754C664.533 388.387 665.211 387.763 665.615 386.882C666.019 385.965 666.221 384.681 666.221 383.029C666.221 381.415 666.019 380.167 665.615 379.287C665.211 378.406 664.533 377.8 663.578 377.47C662.624 377.103 661.322 376.92 659.671 376.92C656.441 376.92 653.671 376.938 651.359 376.975C649.047 377.011 647.47 377.048 646.626 377.085L645.855 372.021C647.323 371.874 648.699 371.764 649.983 371.691C651.304 371.617 652.735 371.581 654.276 371.581C655.818 371.544 657.671 371.526 659.836 371.526ZM652.625 372.021V410H645.855V372.021H652.625Z" fill="url(#paint2_linear_3:2102)"/>
<path d="M720.149 372.021L709.746 387.488C709.379 388.075 708.994 388.589 708.59 389.029C708.186 389.433 707.746 389.818 707.269 390.185V390.35C707.783 390.717 708.296 391.157 708.81 391.671C709.324 392.185 709.746 392.735 710.076 393.322L720.864 410H713.158L700.664 390.13L712.663 372.021H720.149ZM698.682 372.021V383.25C698.682 384.424 698.591 385.58 698.407 386.717C698.26 387.855 698.022 388.992 697.692 390.13C697.949 391.194 698.169 392.295 698.352 393.432C698.572 394.533 698.682 395.597 698.682 396.625V410H691.802V372.021H698.682ZM703.526 387.708V392.717H696.481V387.708H703.526Z" fill="url(#paint3_linear_3:2102)"/>
<path d="M580.176 437.361C581.901 437.361 583.369 437.416 584.58 437.526C585.791 437.599 586.91 437.727 587.937 437.911C588.965 438.058 590.029 438.278 591.13 438.571L590.524 443.69C589.387 443.617 588.323 443.562 587.332 443.525C586.341 443.452 585.277 443.397 584.139 443.36C583.038 443.323 581.717 443.305 580.176 443.305C578.048 443.305 576.378 443.727 575.167 444.571C573.957 445.415 573.094 446.828 572.581 448.809C572.103 450.791 571.865 453.525 571.865 457.011C571.865 460.497 572.103 463.23 572.581 465.212C573.094 467.193 573.957 468.606 575.167 469.45C576.378 470.294 578.048 470.716 580.176 470.716C582.635 470.716 584.69 470.679 586.341 470.606C588.029 470.496 589.68 470.349 591.295 470.166L591.9 475.229C590.249 475.743 588.543 476.11 586.781 476.33C585.02 476.55 582.818 476.661 580.176 476.661C576.36 476.661 573.314 476.037 571.039 474.789C568.764 473.505 567.113 471.432 566.086 468.569C565.095 465.707 564.599 461.854 564.599 457.011C564.599 452.167 565.095 448.314 566.086 445.452C567.113 442.59 568.764 440.535 571.039 439.287C573.314 438.003 576.36 437.361 580.176 437.361Z" fill="url(#paint4_linear_3:2102)"/>
<path d="M615.738 438.021V476H608.857V438.021H615.738Z" fill="url(#paint5_linear_3:2102)"/>
<path d="M650.761 438.021V476H643.881V438.021H650.761ZM662.54 438.021V443.635H632.102V438.021H662.54Z" fill="url(#paint6_linear_3:2102)"/>
<path d="M707.001 438.021L694.176 463.561H687.792L674.912 438.021H682.122L689.168 452.882C689.498 453.58 689.773 454.332 689.993 455.139C690.25 455.946 690.507 456.717 690.764 457.451H691.204C691.424 456.717 691.663 455.946 691.92 455.139C692.177 454.332 692.452 453.58 692.745 452.882L699.791 438.021H707.001ZM694.397 459.212V476H687.516V459.212H694.397Z" fill="url(#paint7_linear_3:2102)"/>
<path d="M634.641 556.8C983.487 556.8 1266.28 432.828 1266.28 279.9C1266.28 126.972 983.487 3 634.641 3C285.795 3 3 126.972 3 279.9C3 432.828 285.795 556.8 634.641 556.8Z" stroke="url(#paint8_linear_3:2102)" stroke-width="5" stroke-miterlimit="10"/>
<path d="M634.845 556.8C936.118 556.8 1180.35 432.828 1180.35 279.9C1180.35 126.972 936.118 3 634.845 3C333.573 3 89.3441 126.972 89.3441 279.9C89.3441 432.828 333.573 556.8 634.845 556.8Z" stroke="url(#paint9_linear_3:2102)" stroke-width="5" stroke-miterlimit="10"/>
<path d="M635.001 556.8C900.595 556.8 1115.9 432.828 1115.9 279.9C1115.9 126.972 900.595 3 635.001 3C369.408 3 154.102 126.972 154.102 279.9C154.102 432.828 369.408 556.8 635.001 556.8Z" stroke="url(#paint10_linear_3:2102)" stroke-width="5" stroke-miterlimit="10"/>
<path d="M633.898 556.8C865.104 556.8 1052.53 432.828 1052.53 279.9C1052.53 126.972 865.104 3 633.898 3C402.692 3 215.262 126.972 215.262 279.9C215.262 432.828 402.692 556.8 633.898 556.8Z" stroke="url(#paint11_linear_3:2102)" stroke-width="5" stroke-miterlimit="10"/>
<path d="M633.994 556.8C830.813 556.8 990.366 432.828 990.366 279.9C990.366 126.972 830.813 3 633.994 3C437.175 3 277.622 126.972 277.622 279.9C277.622 432.828 437.175 556.8 633.994 556.8Z" stroke="url(#paint12_linear_3:2102)" stroke-width="5" stroke-miterlimit="10"/>
<path d="M634.414 556.8C795.037 556.8 925.249 432.828 925.249 279.9C925.249 126.972 795.037 3 634.414 3C473.79 3 343.579 126.972 343.579 279.9C343.579 432.828 473.79 556.8 634.414 556.8Z" stroke="url(#paint13_linear_3:2102)" stroke-width="5" stroke-miterlimit="10"/>
<path d="M634.51 556.8C760.746 556.8 863.081 432.828 863.081 279.9C863.081 126.972 760.746 3 634.51 3C508.273 3 405.938 126.972 405.938 279.9C405.938 432.828 508.273 556.8 634.51 556.8Z" stroke="url(#paint14_linear_3:2102)" stroke-width="5" stroke-miterlimit="10"/>
<path d="M634.606 556.8C726.455 556.8 800.914 432.828 800.914 279.9C800.914 126.972 726.455 3 634.606 3C542.756 3 468.298 126.972 468.298 279.9C468.298 432.828 542.756 556.8 634.606 556.8Z" stroke="url(#paint15_linear_3:2102)" stroke-width="5" stroke-miterlimit="10"/>
<path d="M733.932 250C733.932 113.586 689.608 3 634.932 3C580.255 3 535.932 113.586 535.932 250" stroke="url(#paint16_linear_3:2102)" stroke-width="5" stroke-miterlimit="10"/>
<g filter="url(#filter0_d_3:2102)">
<path d="M163.481 244C166.222 244 168.936 244.54 171.468 245.59C174 246.64 176.301 248.178 178.238 250.117C180.175 252.056 181.712 254.358 182.759 256.891C183.806 259.424 184.344 262.139 184.341 264.88V316.381C184.34 316.456 184.324 316.53 184.294 316.599C184.264 316.667 184.22 316.729 184.165 316.781C184.103 316.843 184.028 316.891 183.945 316.923C183.863 316.955 183.775 316.97 183.687 316.966H170.334C170.258 316.965 170.183 316.948 170.114 316.916C170.045 316.884 169.983 316.838 169.933 316.781C169.879 316.729 169.835 316.667 169.805 316.599C169.774 316.53 169.758 316.456 169.758 316.381V262.752C169.767 261.937 169.61 261.129 169.296 260.377C168.982 259.625 168.518 258.945 167.932 258.379C167.354 257.786 166.661 257.319 165.896 257.005C165.13 256.691 164.308 256.537 163.481 256.553H137.438V316.371C137.435 316.447 137.418 316.521 137.386 316.59C137.354 316.658 137.308 316.72 137.252 316.771C137.19 316.834 137.116 316.883 137.033 316.915C136.951 316.947 136.862 316.961 136.774 316.956H123.499C123.412 316.961 123.325 316.947 123.244 316.915C123.163 316.883 123.09 316.834 123.03 316.771C122.972 316.722 122.926 316.66 122.894 316.591C122.861 316.522 122.845 316.447 122.845 316.371V256.553H96.8112C95.9836 256.535 95.1612 256.688 94.3954 257.002C93.6295 257.316 92.9367 257.785 92.36 258.379C91.7721 258.944 91.3067 259.623 90.9927 260.376C90.6787 261.128 90.5228 261.937 90.5346 262.752V316.371C90.5214 316.522 90.4555 316.663 90.3484 316.77C90.2413 316.877 90.0998 316.943 89.9489 316.956H76.5954C76.5071 316.961 76.4188 316.947 76.3364 316.915C76.2539 316.883 76.1792 316.834 76.1171 316.771C76.0591 316.722 76.0125 316.66 75.9805 316.591C75.9485 316.522 75.9318 316.447 75.9316 316.371V264.88C75.9445 259.346 78.1485 254.043 82.0614 250.13C85.9742 246.217 91.2775 244.013 96.8112 244H163.481Z" fill="white"/>
<path d="M220.78 274.202H299.359C299.446 274.199 299.533 274.214 299.615 274.247C299.696 274.279 299.77 274.328 299.831 274.391C299.892 274.453 299.94 274.527 299.972 274.609C300.003 274.691 300.017 274.778 300.013 274.865V286.101C300.016 286.187 300 286.274 299.969 286.354C299.937 286.435 299.889 286.508 299.827 286.569C299.766 286.631 299.693 286.679 299.612 286.71C299.532 286.742 299.445 286.757 299.359 286.755H220.78V298.205C220.772 299.025 220.93 299.839 221.243 300.597C221.557 301.355 222.02 302.042 222.605 302.617C223.177 303.22 223.868 303.697 224.635 304.018C225.401 304.339 226.226 304.497 227.057 304.481H309.794C309.88 304.477 309.967 304.492 310.048 304.524C310.129 304.556 310.202 304.605 310.262 304.667C310.318 304.718 310.364 304.779 310.396 304.848C310.427 304.917 310.445 304.991 310.448 305.067V316.302C310.45 316.389 310.435 316.475 310.403 316.555C310.371 316.636 310.323 316.709 310.262 316.771C310.202 316.833 310.129 316.882 310.048 316.914C309.967 316.946 309.88 316.96 309.794 316.956H227.096C224.356 316.964 221.641 316.43 219.108 315.386C216.575 314.342 214.273 312.807 212.335 310.871C210.397 308.934 208.86 306.634 207.813 304.102C206.767 301.57 206.231 298.856 206.236 296.116V264.88C206.227 262.137 206.76 259.42 207.805 256.885C208.85 254.349 210.386 252.045 212.325 250.106C214.263 248.166 216.567 246.629 219.102 245.583C221.637 244.537 224.353 244.002 227.096 244.01H309.833C309.919 244.008 310.005 244.024 310.086 244.056C310.166 244.087 310.239 244.135 310.301 244.195C310.362 244.259 310.41 244.334 310.442 244.416C310.474 244.498 310.489 244.586 310.487 244.674V255.899C310.48 256.055 310.414 256.201 310.301 256.309C310.239 256.368 310.165 256.414 310.085 256.444C310.004 256.475 309.919 256.488 309.833 256.485H227.096C226.265 256.471 225.441 256.63 224.675 256.951C223.909 257.272 223.217 257.748 222.645 258.349C222.06 258.925 221.597 259.612 221.284 260.37C220.97 261.128 220.812 261.941 220.819 262.761L220.78 274.202Z" fill="white"/>
<path d="M332.372 244.664C332.367 244.576 332.381 244.487 332.413 244.405C332.445 244.323 332.494 244.248 332.557 244.186C332.608 244.13 332.67 244.084 332.738 244.052C332.807 244.021 332.882 244.003 332.957 244H435.969C436.044 244.003 436.119 244.021 436.188 244.052C436.256 244.084 436.318 244.13 436.369 244.186C436.43 244.249 436.478 244.324 436.51 244.406C436.542 244.488 436.557 244.576 436.554 244.664V255.89C436.548 256.045 436.481 256.192 436.369 256.3C436.318 256.354 436.256 256.398 436.187 256.428C436.118 256.459 436.044 256.475 435.969 256.475H391.76V316.302C391.762 316.389 391.747 316.475 391.715 316.556C391.683 316.636 391.635 316.709 391.574 316.771C391.525 316.829 391.463 316.876 391.394 316.908C391.325 316.94 391.25 316.956 391.174 316.956H377.82C377.734 316.959 377.648 316.944 377.567 316.912C377.486 316.88 377.413 316.832 377.352 316.771C377.291 316.71 377.243 316.637 377.211 316.556C377.179 316.475 377.164 316.389 377.166 316.302V256.475H332.957C332.882 256.475 332.808 256.459 332.739 256.428C332.67 256.398 332.609 256.354 332.557 256.3C332.5 256.248 332.454 256.184 332.422 256.114C332.39 256.043 332.373 255.967 332.372 255.89V244.664Z" fill="white"/>
<path d="M458.439 264.792C458.439 262.056 458.979 259.346 460.028 256.819C461.078 254.292 462.615 251.997 464.553 250.066C466.491 248.134 468.791 246.604 471.322 245.563C473.852 244.522 476.563 243.991 479.299 244H541.772C547.294 243.997 552.592 246.185 556.504 250.082C560.416 253.98 562.623 259.269 562.642 264.792V316.302C562.644 316.389 562.629 316.475 562.597 316.556C562.565 316.636 562.517 316.71 562.456 316.771C562.395 316.832 562.322 316.88 562.241 316.912C562.16 316.944 562.074 316.959 561.988 316.956H548.683C548.607 316.956 548.531 316.939 548.462 316.907C548.393 316.875 548.332 316.829 548.283 316.771C548.22 316.711 548.171 316.638 548.139 316.557C548.107 316.476 548.093 316.389 548.097 316.302V292.953H473.032V316.302C473.035 316.389 473.019 316.475 472.988 316.555C472.956 316.636 472.908 316.709 472.847 316.771C472.797 316.828 472.735 316.874 472.666 316.906C472.598 316.938 472.523 316.955 472.447 316.956H459.093C459.007 316.959 458.92 316.944 458.84 316.912C458.759 316.88 458.686 316.832 458.625 316.771C458.564 316.71 458.515 316.636 458.484 316.556C458.452 316.475 458.437 316.389 458.439 316.302V264.792ZM548.097 280.498V262.752C548.113 261.922 547.956 261.098 547.636 260.332C547.317 259.566 546.843 258.874 546.243 258.3C545.666 257.715 544.977 257.251 544.217 256.938C543.458 256.624 542.643 256.467 541.821 256.475H479.348C478.522 256.469 477.704 256.627 476.94 256.94C476.176 257.253 475.482 257.715 474.899 258.3C474.315 258.884 473.854 259.578 473.542 260.343C473.23 261.107 473.073 261.926 473.081 262.752V280.498H548.097Z" fill="white"/>
<path d="M674.311 244.664C674.315 244.499 674.381 244.342 674.497 244.225C674.552 244.153 674.623 244.096 674.704 244.057C674.786 244.018 674.875 243.998 674.965 244H688.348C688.44 243.999 688.53 244.019 688.613 244.057C688.696 244.096 688.769 244.153 688.826 244.225C688.935 244.345 688.998 244.501 689.002 244.664V278.731C689.002 283.787 686.692 287.92 682.072 291.128L643.407 315.131C641.418 316.343 639.133 316.985 636.803 316.985C634.474 316.985 632.189 316.343 630.2 315.131L591.467 291.128C586.911 287.92 584.634 283.787 584.634 278.731V244.664C584.637 244.499 584.704 244.342 584.819 244.225C584.864 244.159 584.924 244.105 584.993 244.066C585.063 244.027 585.14 244.004 585.22 244H598.544C598.634 243.999 598.723 244.019 598.804 244.058C598.886 244.097 598.957 244.154 599.012 244.225C599.128 244.342 599.194 244.499 599.198 244.664V275.227C599.195 276.297 599.468 277.35 599.992 278.284C600.515 279.217 601.27 280 602.185 280.556L634.583 300.684C635.239 301.091 635.997 301.307 636.769 301.307C637.542 301.307 638.299 301.091 638.956 300.684L671.422 280.556C672.323 279.99 673.065 279.204 673.577 278.271C674.09 277.339 674.356 276.291 674.35 275.227L674.311 244.664Z" fill="white"/>
<path d="M800.525 262.752C800.535 261.931 800.378 261.117 800.064 260.359C799.75 259.601 799.286 258.914 798.7 258.34C798.127 257.738 797.436 257.261 796.67 256.94C795.904 256.619 795.079 256.461 794.249 256.475H711.522C711.345 256.481 711.173 256.418 711.043 256.299C710.934 256.191 710.871 256.044 710.867 255.889V244.664C710.863 244.576 710.877 244.489 710.907 244.407C710.937 244.325 710.983 244.249 711.043 244.186C711.173 244.064 711.344 243.997 711.522 244H794.249C796.993 243.991 799.712 244.525 802.248 245.571C804.785 246.618 807.09 248.155 809.03 250.096C810.969 252.037 812.506 254.342 813.551 256.879C814.596 259.417 815.129 262.136 815.119 264.88V296.116C815.126 298.858 814.592 301.575 813.546 304.11C812.499 306.645 810.962 308.948 809.023 310.887C807.083 312.826 804.779 314.362 802.244 315.407C799.708 316.452 796.991 316.985 794.249 316.976H711.522C711.433 316.979 711.345 316.965 711.263 316.933C711.181 316.901 711.106 316.852 711.043 316.79C710.984 316.728 710.937 316.655 710.907 316.574C710.877 316.494 710.863 316.408 710.867 316.322V305.067C710.868 304.992 710.884 304.918 710.914 304.849C710.945 304.78 710.988 304.718 711.043 304.667C711.106 304.605 711.181 304.556 711.263 304.524C711.345 304.493 711.433 304.478 711.522 304.481H794.249C795.08 304.498 795.905 304.341 796.671 304.019C797.438 303.698 798.129 303.221 798.7 302.617C799.287 302.043 799.752 301.357 800.065 300.598C800.379 299.84 800.536 299.026 800.525 298.205V286.755H721.956C721.868 286.759 721.78 286.745 721.697 286.713C721.615 286.681 721.54 286.632 721.478 286.569C721.417 286.508 721.37 286.434 721.338 286.354C721.306 286.273 721.29 286.187 721.293 286.101V274.865C721.29 274.688 721.356 274.516 721.478 274.387C721.541 274.326 721.616 274.278 721.699 274.246C721.781 274.215 721.868 274.199 721.956 274.202H800.525V262.752Z" fill="white"/>
<path d="M941.167 272.162C941.221 276.218 940.055 280.197 937.819 283.582C935.645 286.907 932.552 289.528 928.916 291.128L929.209 291.714L940.806 316.117C940.856 316.314 940.832 316.523 940.737 316.703C940.691 316.798 940.616 316.877 940.524 316.929C940.431 316.981 940.326 317.004 940.22 316.996H925.412C925.29 316.996 925.171 316.962 925.068 316.898C924.964 316.834 924.881 316.743 924.826 316.634L913.591 293.071H851.587V316.41C851.584 316.486 851.567 316.56 851.535 316.629C851.503 316.698 851.458 316.759 851.402 316.81C851.339 316.872 851.264 316.921 851.182 316.952C851.099 316.984 851.011 316.999 850.923 316.996H837.579C837.429 316.982 837.287 316.916 837.18 316.809C837.073 316.702 837.007 316.561 836.994 316.41V244.664C836.989 244.576 837.003 244.487 837.035 244.405C837.067 244.323 837.116 244.248 837.179 244.186C837.23 244.13 837.292 244.084 837.361 244.052C837.429 244.021 837.504 244.003 837.579 244H920.375C923.113 244 925.824 244.541 928.352 245.591C930.88 246.642 933.176 248.181 935.108 250.121C937.04 252.061 938.57 254.363 939.609 256.896C940.649 259.429 941.178 262.142 941.167 264.88V272.162ZM851.597 280.498H920.385C921.201 280.51 922.012 280.354 922.766 280.04C923.52 279.726 924.201 279.261 924.768 278.673C925.36 278.094 925.827 277.401 926.141 276.636C926.455 275.87 926.609 275.049 926.593 274.221V262.752C926.585 261.109 925.929 259.535 924.766 258.374C923.603 257.213 922.028 256.558 920.385 256.553H851.597V280.498Z" fill="white"/>
<path d="M977.655 267.935C977.641 268.762 977.795 269.583 978.109 270.348C978.423 271.114 978.889 271.807 979.48 272.386C980.049 272.971 980.73 273.434 981.484 273.746C982.238 274.058 983.047 274.213 983.863 274.202H1046.45C1049.19 274.202 1051.9 274.742 1054.43 275.792C1056.95 276.842 1059.25 278.38 1061.18 280.319C1063.11 282.258 1064.64 284.559 1065.68 287.091C1066.72 289.623 1067.25 292.335 1067.24 295.072V296.116C1067.24 301.637 1065.06 306.932 1061.16 310.842C1057.26 314.752 1051.97 316.958 1046.45 316.976H967.815C967.738 316.975 967.661 316.958 967.591 316.926C967.52 316.894 967.457 316.848 967.405 316.791C967.346 316.728 967.299 316.655 967.269 316.574C967.239 316.494 967.225 316.408 967.229 316.322V305.067C967.223 304.891 967.286 304.719 967.405 304.589C967.514 304.479 967.661 304.416 967.815 304.413H1046.45C1048.1 304.408 1049.67 303.752 1050.84 302.589C1052 301.426 1052.66 299.85 1052.66 298.205V292.953C1052.67 292.133 1052.51 291.32 1052.2 290.562C1051.88 289.804 1051.42 289.117 1050.84 288.541C1050.27 287.944 1049.59 287.47 1048.84 287.149C1048.09 286.828 1047.27 286.667 1046.45 286.677H983.863C978.349 286.677 973.06 284.486 969.161 280.587C965.262 276.688 963.071 271.399 963.071 265.885V264.792C963.071 259.278 965.262 253.989 969.161 250.09C973.06 246.191 978.349 244 983.863 244H1062.5C1062.58 244.003 1062.65 244.02 1062.72 244.052C1062.79 244.084 1062.86 244.129 1062.91 244.186C1062.96 244.237 1063.01 244.299 1063.04 244.368C1063.07 244.437 1063.09 244.511 1063.09 244.586V255.89C1063.08 256.044 1063.02 256.191 1062.91 256.3C1062.86 256.355 1062.79 256.398 1062.72 256.429C1062.65 256.459 1062.58 256.475 1062.5 256.475H983.863C983.047 256.466 982.237 256.622 981.483 256.936C980.73 257.25 980.048 257.714 979.48 258.301C978.889 258.88 978.423 259.573 978.109 260.338C977.795 261.104 977.641 261.925 977.655 262.752V267.935Z" fill="white"/>
<path d="M1172.51 244C1175.26 243.99 1177.97 244.523 1180.51 245.568C1183.05 246.614 1185.36 248.152 1187.3 250.093C1189.24 252.034 1190.78 254.339 1191.82 256.877C1192.87 259.415 1193.4 262.135 1193.39 264.88V296.116C1193.39 298.857 1192.86 301.573 1191.81 304.106C1190.76 306.64 1189.22 308.941 1187.28 310.878C1185.34 312.814 1183.04 314.349 1180.5 315.392C1177.97 316.435 1175.25 316.967 1172.51 316.956H1110.04C1107.3 316.963 1104.58 316.429 1102.05 315.384C1099.51 314.34 1097.21 312.806 1095.27 310.87C1093.33 308.935 1091.78 306.635 1090.73 304.103C1089.68 301.572 1089.14 298.857 1089.14 296.116V264.88C1089.13 262.135 1089.67 259.417 1090.72 256.88C1091.77 254.344 1093.31 252.04 1095.25 250.1C1097.19 248.16 1099.5 246.623 1102.04 245.576C1104.57 244.529 1107.29 243.994 1110.04 244H1172.51ZM1178.79 262.752C1178.8 261.931 1178.64 261.117 1178.33 260.359C1178.01 259.601 1177.55 258.914 1176.96 258.34C1176.39 257.738 1175.7 257.262 1174.93 256.941C1174.17 256.62 1173.34 256.462 1172.51 256.475H1110.04C1108.38 256.498 1106.8 257.166 1105.62 258.339C1104.45 259.511 1103.78 261.094 1103.76 262.752V298.205C1103.78 299.862 1104.45 301.446 1105.62 302.618C1106.8 303.79 1108.38 304.459 1110.04 304.481H1172.51C1173.34 304.497 1174.17 304.339 1174.93 304.018C1175.7 303.697 1176.39 303.22 1176.96 302.617C1177.55 302.043 1178.01 301.357 1178.33 300.598C1178.64 299.84 1178.8 299.026 1178.79 298.205V262.752Z" fill="white"/>
</g>
<defs>
<filter id="filter0_d_3:2102" x="65.9316" y="234" width="1137.46" height="92.9973" filterUnits="userSpaceOnUse" color-interpolation-filters="sRGB">
<feFlood flood-opacity="0" result="BackgroundImageFix"/>
<feColorMatrix in="SourceAlpha" type="matrix" values="0 0 0 0 0 0 0 0 0 0 0 0 0 0 0 0 0 0 127 0" result="hardAlpha"/>
<feOffset/>
<feGaussianBlur stdDeviation="5"/>
<feComposite in2="hardAlpha" operator="out"/>
<feColorMatrix type="matrix" values="0 0 0 0 0.7875 0 0 0 0 0.777656 0 0 0 0 0.78569 0 0 0 0.25 0"/>
<feBlend mode="normal" in2="BackgroundImageFix" result="effect1_dropShadow_3:2102"/>
<feBlend mode="normal" in="SourceGraphic" in2="effect1_dropShadow_3:2102" result="shape"/>
</filter>
<linearGradient id="paint0_linear_3:2102" x1="734" y1="544.244" x2="381.235" y2="508.327" gradientUnits="userSpaceOnUse">
<stop stop-color="#AA188F"/>
<stop offset="1" stop-color="#1478F3"/>
</linearGradient>
<linearGradient id="paint1_linear_3:2102" x1="734" y1="544.244" x2="381.235" y2="508.327" gradientUnits="userSpaceOnUse">
<stop stop-color="#AA188F"/>
<stop offset="1" stop-color="#1478F3"/>
</linearGradient>
<linearGradient id="paint2_linear_3:2102" x1="734" y1="544.244" x2="381.235" y2="508.327" gradientUnits="userSpaceOnUse">
<stop stop-color="#AA188F"/>
<stop offset="1" stop-color="#1478F3"/>
</linearGradient>
<linearGradient id="paint3_linear_3:2102" x1="734" y1="544.244" x2="381.235" y2="508.327" gradientUnits="userSpaceOnUse">
<stop stop-color="#AA188F"/>
<stop offset="1" stop-color="#1478F3"/>
</linearGradient>
<linearGradient id="paint4_linear_3:2102" x1="734" y1="544.244" x2="381.235" y2="508.327" gradientUnits="userSpaceOnUse">
<stop stop-color="#AA188F"/>
<stop offset="1" stop-color="#1478F3"/>
</linearGradient>
<linearGradient id="paint5_linear_3:2102" x1="734" y1="544.244" x2="381.235" y2="508.327" gradientUnits="userSpaceOnUse">
<stop stop-color="#AA188F"/>
<stop offset="1" stop-color="#1478F3"/>
</linearGradient>
<linearGradient id="paint6_linear_3:2102" x1="734" y1="544.244" x2="381.235" y2="508.327" gradientUnits="userSpaceOnUse">
<stop stop-color="#AA188F"/>
<stop offset="1" stop-color="#1478F3"/>
</linearGradient>
<linearGradient id="paint7_linear_3:2102" x1="734" y1="544.244" x2="381.235" y2="508.327" gradientUnits="userSpaceOnUse">
<stop stop-color="#AA188F"/>
<stop offset="1" stop-color="#1478F3"/>
</linearGradient>
<linearGradient id="paint8_linear_3:2102" x1="1268.07" y1="279.905" x2="1.1989" y2="279.905" gradientUnits="userSpaceOnUse">
<stop stop-color="#580148"/>
<stop offset="0.4926" stop-color="#390150"/>
<stop offset="1" stop-color="#173458"/>
</linearGradient>
<linearGradient id="paint9_linear_3:2102" x1="1182.14" y1="279.905" x2="87.5389" y2="279.905" gradientUnits="userSpaceOnUse">
<stop stop-color="#580148"/>
<stop offset="0.4926" stop-color="#390150"/>
<stop offset="1" stop-color="#173458"/>
</linearGradient>
<linearGradient id="paint10_linear_3:2102" x1="1117.69" y1="279.905" x2="152.3" y2="279.905" gradientUnits="userSpaceOnUse">
<stop stop-color="#580148"/>
<stop offset="0.4926" stop-color="#390150"/>
<stop offset="1" stop-color="#173458"/>
</linearGradient>
<linearGradient id="paint11_linear_3:2102" x1="1054.33" y1="279.905" x2="213.459" y2="279.905" gradientUnits="userSpaceOnUse">
<stop stop-color="#580148"/>
<stop offset="0.4926" stop-color="#390150"/>
<stop offset="1" stop-color="#173458"/>
</linearGradient>
<linearGradient id="paint12_linear_3:2102" x1="992.159" y1="279.905" x2="275.818" y2="279.905" gradientUnits="userSpaceOnUse">
<stop stop-color="#580148"/>
<stop offset="0.4926" stop-color="#390150"/>
<stop offset="1" stop-color="#173458"/>
</linearGradient>
<linearGradient id="paint13_linear_3:2102" x1="927.039" y1="279.905" x2="341.777" y2="279.905" gradientUnits="userSpaceOnUse">
<stop stop-color="#580148"/>
<stop offset="0.4926" stop-color="#390150"/>
<stop offset="1" stop-color="#173458"/>
</linearGradient>
<linearGradient id="paint14_linear_3:2102" x1="864.873" y1="279.905" x2="404.136" y2="279.905" gradientUnits="userSpaceOnUse">
<stop stop-color="#580148"/>
<stop offset="0.4926" stop-color="#390150"/>
<stop offset="1" stop-color="#173458"/>
</linearGradient>
<linearGradient id="paint15_linear_3:2102" x1="802.706" y1="279.905" x2="466.495" y2="279.905" gradientUnits="userSpaceOnUse">
<stop stop-color="#580148"/>
<stop offset="0.4926" stop-color="#390150"/>
<stop offset="1" stop-color="#173458"/>
</linearGradient>
<linearGradient id="paint16_linear_3:2102" x1="735.724" y1="250.005" x2="534.129" y2="250.005" gradientUnits="userSpaceOnUse">
<stop stop-color="#580148"/>
<stop offset="0.4926" stop-color="#390150"/>
<stop offset="1" stop-color="#173458"/>
</linearGradient>
</defs>
</svg>
