<svg width="225" height="39" viewBox="0 0 225 39" fill="none" xmlns="http://www.w3.org/2000/svg">
<path d="M20.758 18.001V18.901C20.758 19.853 20.404 20.172 19.546 20.172H15.653C14.744 20.172 14.39 19.854 14.39 18.901V18.53C14.39 16.571 13.38 15.724 10.502 15.724C7.62402 15.724 6.61202 16.571 6.61202 18.53V29.065C6.61202 31.024 7.62302 31.924 10.502 31.924C13.381 31.924 14.39 31.024 14.39 29.065V28.271C14.39 27.318 14.744 26.946 15.653 26.946H19.542C20.4 26.946 20.754 27.317 20.754 28.271V29.595C20.754 34.36 17.723 37.431 10.354 37.431C2.92902 37.431 -0.000976562 34.36 -0.000976562 29.595V18.001C-0.000976562 13.289 2.97902 10.218 10.399 10.218C17.779 10.218 20.758 13.289 20.758 18.001Z" fill="#141414"/>
<path d="M24.853 18.001C24.853 13.289 28.338 10.218 35.763 10.218C43.188 10.218 46.673 13.289 46.673 18.001V29.595C46.673 34.36 43.188 37.431 35.763 37.431C28.338 37.431 24.853 34.36 24.853 29.595V18.001ZM40.053 18.584C40.053 16.625 38.588 15.725 35.759 15.725C32.93 15.725 31.466 16.625 31.466 18.584V29.013C31.466 31.024 32.93 31.925 35.759 31.925C38.588 31.925 40.053 31.025 40.053 29.013V18.584Z" fill="#141414"/>
<path d="M66.981 34.466C64.7495 36.3918 61.8966 37.4453 58.949 37.432C53.949 37.432 51.626 34.413 51.626 29.701V17.949C51.626 13.237 53.949 10.218 58.949 10.218C61.8309 10.2122 64.6221 11.2248 66.83 13.077V1.37701C66.83 0.423007 67.13 0 68.042 0H72.234C73.092 0 73.446 0.423007 73.446 1.37701V35.627C73.446 36.579 73.092 37.004 72.234 37.004H68.344C67.435 37.004 67.182 36.579 67.081 35.627L66.981 34.466ZM58.242 28.589C58.242 30.018 58.642 31.395 61.02 31.395C63.1666 31.2241 65.2021 30.3708 66.829 28.96V18.689C65.2024 17.2778 63.1667 16.4245 61.02 16.254C58.646 16.254 58.242 17.631 58.242 19.006V28.589Z" fill="#141414"/>
<path d="M99.4108 24.14C99.4108 24.987 99.1108 25.358 98.2988 25.358H85.3688V29.275C85.3688 31.128 86.3278 32.186 89.3078 32.186C92.2878 32.186 93.2468 31.128 93.2468 29.275V29.01C93.2468 28.11 93.6008 27.686 94.5098 27.686H98.0458C98.9038 27.686 99.3078 28.109 99.3078 29.01V29.592C99.3078 34.357 96.6818 37.428 89.2568 37.428C81.8318 37.428 78.9028 34.357 78.9028 29.592V18.001C78.9028 13.289 81.8828 10.218 89.3028 10.218C96.6768 10.218 99.4028 13.289 99.4028 18.001L99.4108 24.14ZM85.3688 20.698H93.2478V18.372C93.2478 16.519 92.1368 15.46 89.3088 15.46C86.4288 15.46 85.3698 16.519 85.3698 18.372L85.3688 20.698Z" fill="#141414"/>
<path d="M217.84 24.7891C217.654 24.7886 217.473 24.7333 217.319 24.6301L209.041 19.1391C208.682 18.9011 208.388 18.5777 208.186 18.1981C207.983 17.8185 207.877 17.3945 207.879 16.9641V12.0261C207.878 11.7292 207.958 11.4375 208.108 11.1817C208.259 10.9259 208.476 10.7154 208.736 10.5721C208.995 10.4293 209.287 10.36 209.583 10.3716C209.878 10.3833 210.164 10.4754 210.411 10.6381L222.891 18.8221C223.325 19.1095 223.676 19.5043 223.912 19.9681C224.021 20.1799 224.047 20.4243 223.987 20.6546C223.927 20.8849 223.783 21.0848 223.585 21.2161L218.358 24.6341C218.204 24.7353 218.024 24.7892 217.84 24.7891V24.7891ZM210.084 17.5391L217.845 22.6841L221.572 20.2451L209.785 12.5151V16.9651C209.784 17.0774 209.811 17.1882 209.864 17.2876C209.916 17.387 209.992 17.472 210.085 17.5351L210.084 17.5391Z" fill="#141414"/>
<path d="M209.517 37.2791C209.244 37.2787 208.976 37.2099 208.737 37.0791C208.476 36.936 208.259 36.7254 208.108 36.4694C207.957 36.2133 207.877 35.9214 207.878 35.6241V30.6901C207.877 30.2594 207.983 29.8352 208.186 29.4556C208.389 29.0759 208.684 28.7528 209.043 28.5151L209.97 27.9011C210.029 27.8607 210.092 27.8272 210.159 27.8011L222.546 19.6011C222.657 19.5273 222.783 19.478 222.915 19.4563C223.047 19.4347 223.182 19.4412 223.311 19.4755C223.44 19.5098 223.561 19.5711 223.664 19.6553C223.768 19.7395 223.853 19.8447 223.913 19.9641C224.131 20.3904 224.246 20.8621 224.249 21.3411V26.2241C224.25 26.7222 224.127 27.2128 223.892 27.6519C223.657 28.091 223.316 28.4649 222.901 28.7401L210.415 37.0031C210.149 37.1808 209.837 37.2767 209.517 37.2791V37.2791ZM210.831 29.6261L210.084 30.1261C209.991 30.1889 209.915 30.2737 209.863 30.373C209.81 30.4722 209.783 30.5829 209.784 30.6951V35.1371L221.861 27.1441C222.011 27.0448 222.134 26.9097 222.219 26.751C222.304 26.5924 222.348 26.4151 222.348 26.2351V22.0401L211.02 29.5401C210.96 29.5761 210.897 29.6053 210.831 29.6271V29.6261Z" fill="#141414"/>
<path d="M111.258 24.7891C111.074 24.7891 110.894 24.7352 110.74 24.6341L105.515 21.2161C105.317 21.0852 105.174 20.8859 105.113 20.6562C105.053 20.4265 105.079 20.1826 105.187 19.9711C105.42 19.5063 105.771 19.1108 106.205 18.8241L118.689 10.6391C118.936 10.4764 119.222 10.3842 119.517 10.3726C119.813 10.361 120.105 10.4303 120.364 10.5731C120.624 10.7165 120.841 10.9271 120.991 11.1829C121.142 11.4387 121.221 11.7303 121.22 12.0271V16.9661C121.221 17.3963 121.115 17.82 120.913 18.1995C120.71 18.579 120.417 18.9025 120.059 19.1411V19.1411L111.781 24.6321C111.626 24.7347 111.444 24.7893 111.258 24.7891V24.7891ZM107.53 20.2451L111.255 22.6811L119.014 17.5361C119.107 17.473 119.183 17.388 119.235 17.2886C119.288 17.1892 119.315 17.0784 119.314 16.9661V12.5161L107.53 20.2451Z" fill="#141414"/>
<path d="M119.581 37.2781C119.261 37.2792 118.948 37.1853 118.681 37.0081L106.192 28.7451C105.777 28.4698 105.437 28.0958 105.202 27.6567C104.967 27.2176 104.845 26.7271 104.846 26.2291V21.3461C104.849 20.8671 104.964 20.3954 105.182 19.9691C105.242 19.8497 105.327 19.7444 105.43 19.6601C105.534 19.5758 105.654 19.5145 105.784 19.4802C105.913 19.4458 106.048 19.4393 106.179 19.461C106.311 19.4828 106.437 19.5322 106.548 19.6061L118.939 27.8061C119.005 27.83 119.067 27.8616 119.125 27.9001L120.053 28.5161C120.412 28.7539 120.706 29.0768 120.909 29.456C121.112 29.8353 121.217 30.259 121.216 30.6891V35.6231C121.217 35.9203 121.137 36.2122 120.987 36.4681C120.836 36.7241 120.619 36.9348 120.358 37.0781C120.12 37.2084 119.853 37.2771 119.581 37.2781ZM106.753 22.0351V26.2301C106.752 26.41 106.797 26.5873 106.881 26.746C106.966 26.9047 107.089 27.0398 107.239 27.1391L119.317 35.1321V30.6901C119.318 30.5779 119.291 30.4673 119.239 30.368C119.186 30.2688 119.11 30.184 119.017 30.1211L118.266 29.6211C118.201 29.5977 118.139 29.5668 118.081 29.5291L106.753 22.0351Z" fill="#141414"/>
<path d="M137.901 38.3931C128.557 38.3931 126.601 33.6091 126.601 29.5931V18.0021C126.601 14.0131 128.572 9.25806 137.956 9.25806C147.299 9.25806 149.256 14.0131 149.256 18.0021V18.9021C149.298 19.199 149.272 19.5018 149.18 19.7871C149.087 20.0724 148.93 20.3328 148.722 20.5482C148.513 20.7637 148.258 20.9284 147.975 21.03C147.693 21.1315 147.391 21.1671 147.093 21.1341H143.204C142.903 21.1713 142.597 21.1391 142.31 21.0399C142.023 20.9406 141.763 20.7769 141.549 20.5614C141.336 20.3459 141.174 20.0843 141.077 19.7967C140.98 19.509 140.95 19.203 140.99 18.9021V18.5311C140.99 17.5831 140.99 16.6881 138.051 16.6881C135.112 16.6881 135.114 17.5881 135.114 18.5311V29.0671C135.114 30.0011 135.114 30.9671 138.051 30.9671C140.988 30.9671 140.99 30.0031 140.99 29.0671V28.2731C140.95 27.9697 140.979 27.6612 141.075 27.3706C141.171 27.0801 141.332 26.815 141.545 26.5952C141.758 26.3754 142.018 26.2065 142.305 26.1012C142.592 25.9959 142.9 25.9569 143.204 25.9871H147.093C147.395 25.9606 147.698 26.0027 147.981 26.1101C148.264 26.2175 148.519 26.3875 148.727 26.6073C148.935 26.8271 149.091 27.0911 149.182 27.3796C149.274 27.6681 149.299 27.9735 149.256 28.2731V29.5971C149.257 33.6091 147.286 38.3931 137.901 38.3931ZM137.952 11.1811C131.59 11.1811 128.499 13.4111 128.499 18.0021V29.5961C128.499 34.2221 131.574 36.4701 137.899 36.4701C144.261 36.4701 147.352 34.2231 147.352 29.5961V28.2721C147.356 28.1524 147.345 28.0328 147.318 27.9161C147.29 27.9161 147.218 27.9091 147.092 27.9091H143.203C143.102 27.9048 143.001 27.9146 142.903 27.9381C142.909 27.9621 142.887 28.0661 142.887 28.2721V29.0661C142.887 32.4891 140.124 32.8861 138.046 32.8861C135.968 32.8861 133.206 32.4861 133.206 29.0661V18.5311C133.206 15.1571 135.969 14.7651 138.046 14.7651C140.123 14.7651 142.887 15.1571 142.887 18.5311V18.9021C142.884 19.0027 142.893 19.1033 142.912 19.2021C142.938 19.1931 143.036 19.2081 143.199 19.2081H147.088C147.173 19.2099 147.258 19.2035 147.341 19.1891C147.335 19.1551 147.348 19.0611 147.348 18.8971V17.9971C147.35 13.4111 144.279 11.1811 137.95 11.1811H137.952Z" fill="#141414"/>
<path d="M163.31 38.3931C155.773 38.3931 151.45 35.1861 151.45 29.5931V18.0021C151.45 12.4461 155.773 9.25806 163.31 9.25806C170.847 9.25806 175.171 12.4461 175.171 18.0021V29.5961C175.171 35.1861 170.848 38.3931 163.31 38.3931ZM163.31 11.1811C158.768 11.1811 153.352 12.3641 153.352 18.0021V29.5961C153.352 35.2781 158.767 36.4701 163.31 36.4701C167.853 36.4701 173.269 35.2781 173.269 29.5961V18.0021C173.269 12.3631 167.854 11.1811 163.31 11.1811V11.1811ZM163.31 32.8861C158.976 32.8861 158.066 30.7791 158.066 29.0131V18.5841C158.066 16.8431 158.975 14.7641 163.31 14.7641C167.645 14.7641 168.555 16.8431 168.555 18.5841V29.0131C168.555 30.7791 167.645 32.8861 163.31 32.8861V32.8861ZM163.31 16.6861C159.969 16.6861 159.969 17.9671 159.969 18.5861V29.0151C159.969 29.6491 159.969 30.9671 163.31 30.9671C166.651 30.9671 166.652 29.6491 166.652 29.0151V18.5841C166.652 18.0161 166.652 16.6871 163.31 16.6871V16.6861Z" fill="#141414"/>
<path d="M200.286 38.1799H196.195C195.885 38.2067 195.572 38.164 195.28 38.0549C194.988 37.9458 194.724 37.7731 194.507 37.5492C194.29 37.3254 194.126 37.056 194.026 36.7607C193.926 36.4654 193.893 36.1516 193.929 35.8419V19.2729C193.929 17.7999 193.721 17.4289 192.153 17.4289C190.361 17.5432 188.647 18.2066 187.245 19.3289V35.8459C187.245 37.8789 185.921 38.1839 185.132 38.1839H180.939C180.631 38.211 180.32 38.168 180.031 38.0582C179.741 37.9484 179.48 37.7746 179.267 37.5498C179.055 37.325 178.895 37.055 178.801 36.7599C178.707 36.4649 178.681 36.1525 178.725 35.8459V12.1249C178.689 11.8247 178.72 11.52 178.818 11.2338C178.916 10.9476 179.078 10.6874 179.291 10.4727C179.504 10.258 179.763 10.0945 180.049 9.99441C180.334 9.89434 180.639 9.86033 180.939 9.89494H184.829C185.08 9.86541 185.334 9.88616 185.577 9.95597C185.819 10.0258 186.046 10.1433 186.243 10.3015C186.439 10.4598 186.602 10.6557 186.723 10.8778C186.843 11.0999 186.917 11.3437 186.942 11.5949C189.104 10.1788 191.64 9.43929 194.224 9.47095C199.174 9.47095 202.499 12.7069 202.499 17.5259V35.8459C202.542 36.1521 202.516 36.464 202.422 36.7584C202.328 37.0529 202.168 37.3223 201.956 37.5466C201.743 37.7709 201.482 37.9444 201.193 38.054C200.904 38.1637 200.594 38.2067 200.286 38.1799V38.1799ZM195.886 36.2239C195.987 36.2496 196.091 36.261 196.194 36.2579H200.285C200.381 36.2627 200.476 36.2519 200.568 36.2259C200.585 36.0986 200.595 35.9704 200.596 35.8419V17.5249C200.596 13.7409 198.155 11.3909 194.224 11.3909C191.482 11.3383 188.819 12.3143 186.76 14.1269C186.627 14.2412 186.464 14.3162 186.29 14.3434C186.116 14.3707 185.938 14.3491 185.776 14.2812C185.614 14.2133 185.474 14.1017 185.371 13.9588C185.269 13.8159 185.208 13.6474 185.195 13.4719L185.095 12.1999C185.09 12.0715 185.075 11.9437 185.048 11.8179C185.017 11.8239 184.948 11.8179 184.831 11.8179H180.941C180.84 11.8143 180.74 11.8241 180.641 11.8469C180.647 11.8719 180.629 11.9609 180.629 12.1269V35.8459C180.622 35.981 180.638 36.1163 180.676 36.2459C180.689 36.2359 180.769 36.2619 180.94 36.2619H185.133C185.198 36.2633 185.262 36.2579 185.325 36.2459C185.317 36.2179 185.343 36.0969 185.343 35.8459V18.8459C185.343 18.7014 185.375 18.5586 185.438 18.4282C185.5 18.2979 185.591 18.1833 185.704 18.0929C187.516 16.5535 189.78 15.6442 192.153 15.5019C195.413 15.5019 195.831 17.5149 195.831 19.2679V35.8459C195.822 35.9756 195.84 36.1058 195.884 36.2279L195.886 36.2239Z" fill="#141414"/>
</svg>
