<svg width="600" height="327" viewBox="0 0 600 327" fill="none" xmlns="http://www.w3.org/2000/svg">
<path fill-rule="evenodd" clip-rule="evenodd" d="M200.139 163.002C200.139 200.611 169.476 231.139 132.002 231.139C94.5175 231.139 64 200.611 64 163.002C64 125.527 94.5175 95 132.002 95C169.476 95 200.139 125.527 200.139 163.002ZM185.557 189.165C186.234 180.583 186.234 171.855 186.234 163.002C186.234 154.284 186.234 145.556 185.557 136.974C185.015 132.474 182.829 131.381 178.465 130.975C163.612 129.339 147.531 128.933 132.002 128.933C116.462 128.933 100.381 129.339 85.3932 130.975C81.1649 131.381 78.9878 132.474 78.4363 136.974C77.6235 145.556 77.6235 154.284 77.6235 163.002C77.6235 171.855 77.6235 180.583 78.4363 189.165C78.9878 193.664 81.1649 194.758 85.3932 195.164C100.381 196.799 116.462 197.206 132.002 197.206C147.531 197.206 163.612 196.799 178.474 195.164C182.829 194.758 185.015 193.664 185.557 189.165V189.165Z" fill="white"/>
<path d="M104.474 163.002C104.474 148.014 116.462 135.474 132.002 135.474C147.531 135.474 159.529 148.014 159.529 163.002C159.529 178.125 147.531 190.665 132.002 190.665C116.462 190.665 104.474 178.125 104.474 163.002V163.002Z" fill="white"/>
<path fill-rule="evenodd" clip-rule="evenodd" d="M536.973 162.537C536.973 182.402 521.54 196.838 503.108 196.838C484.395 196.838 469.242 182.402 469.242 162.537C469.242 142.673 484.675 128.246 503.108 128.246C521.83 128.246 536.973 142.673 536.973 162.537ZM462.101 162.537C462.101 181.686 447.665 196.838 430.945 196.838C423.379 196.838 415.658 193.258 411.516 188.546V192.261C411.516 194.4 410.229 195.686 408.081 195.686H398.512C396.364 195.686 395.077 194.4 395.077 192.261V105.518C395.077 103.379 396.364 102.092 398.512 102.092H409.088C411.226 102.092 412.513 103.379 412.513 105.518V135.813C416.944 131.246 423.659 128.246 430.52 128.246C447.52 128.246 462.101 143.108 462.101 162.537ZM387.075 162.537C387.075 182.402 371.642 196.838 353.21 196.838C334.497 196.838 319.345 182.402 319.345 162.537C319.345 142.673 334.777 128.246 353.21 128.246C371.933 128.246 387.075 142.673 387.075 162.537ZM281.619 129.388C283.767 129.388 285.053 130.675 285.053 132.813V182.256C285.053 211.555 272.049 224.269 248.469 224.269C239.471 224.269 229.031 221.414 220.177 215.696C218.174 214.409 217.884 212.551 218.89 210.548L223.177 202.121C224.173 200.118 226.321 199.692 228.179 200.979C235.32 205.546 241.464 207.549 248.044 207.549C260.332 207.549 267.473 201.405 267.618 187.83C264.047 191.69 257.903 195.406 249.901 195.406C232.04 195.406 217.884 181.976 217.884 162.537C217.884 143.108 232.891 128.246 250.327 128.246C257.468 128.246 264.618 131.816 268.469 136.529V132.813C268.469 130.675 269.756 129.388 271.904 129.388H281.619ZM519.682 162.537C519.682 152.397 512.251 144.966 503.108 144.966C493.964 144.966 486.533 152.397 486.533 162.537C486.533 172.687 493.964 180.118 503.108 180.118C512.251 180.118 519.682 172.687 519.682 162.537ZM369.785 162.537C369.785 152.397 362.354 144.966 353.21 144.966C344.066 144.966 336.635 152.397 336.635 162.537C336.635 172.687 344.066 180.118 353.21 180.118C362.354 180.118 369.785 172.687 369.785 162.537ZM267.898 162.392C267.898 151.816 260.467 144.821 251.469 144.821C242.461 144.821 234.894 151.816 234.894 162.392C234.894 172.823 242.461 179.973 251.469 179.973C260.467 179.973 267.898 172.823 267.898 162.392ZM444.811 162.537C444.811 152.107 437.38 144.966 428.517 144.966C419.654 144.966 412.223 152.107 412.223 162.537C412.223 173.113 419.654 180.118 428.517 180.118C437.38 180.118 444.811 173.113 444.811 162.537ZM306.34 103.95C309.766 105.518 311.343 107.811 311.343 111.526V186.262C311.343 189.978 309.766 192.261 306.34 193.829L300.912 196.257C296.761 198.115 293.907 196.257 293.907 191.69V106.098C293.907 101.521 296.761 99.6637 300.912 101.521L306.34 103.95Z" fill="white"/>
</svg>
