<svg width="600" height="327" viewBox="0 0 600 327" fill="none" xmlns="http://www.w3.org/2000/svg">
<g clip-path="url(#clip0_3465_70)">
<path d="M185.095 137.678C175.45 137.678 170.881 143.742 170.881 143.742H170.374L169.365 138.688H157.683V190.237H170.374V160.433C170.374 153.863 174.929 149.314 181.541 149.314C188.154 149.314 192.709 153.85 192.709 160.433V190.237H205.4V159.409C205.4 146.269 196.77 137.678 185.095 137.678Z" fill="white"/>
<path d="M321.957 172.548H321.228L312.598 138.688H299.687L291.057 172.548H290.335L281.699 138.688H268.5L281.699 190.236H297.155L305.778 156.881H306.507L315.136 190.236H330.586L343.784 138.688H330.586L321.957 172.548Z" fill="white"/>
<path d="M382.643 143.237H382.136L381.12 138.702H370.46V190.244H383.151V160.44C383.151 153.87 386.197 150.837 392.796 150.837H399.304V138.695H391.754C389.986 138.699 388.243 139.111 386.662 139.899C385.081 140.687 383.705 141.83 382.643 143.237Z" fill="white"/>
<path d="M427.385 137.678C412.163 137.678 400.996 148.796 400.996 164.463C400.996 180.13 411.532 191.248 427.385 191.248C440.225 191.248 447.957 183.725 451.178 178.192L439.529 174.059C438.377 176.158 433.73 180.194 427.385 180.194C419.986 180.194 414.701 175.581 413.686 168.532H452.259C452.615 166.871 452.786 165.176 452.766 163.478C452.766 148.796 441.599 137.678 427.385 137.678ZM413.686 159.914C415.209 153.344 419.777 148.291 427.385 148.291C434.498 148.291 439.06 153.344 440.076 159.914H413.686Z" fill="white"/>
<path d="M239.911 137.678C224.683 137.678 213.515 148.796 213.515 164.463C213.515 180.13 224.032 191.248 239.911 191.248C252.751 191.248 260.476 183.725 263.698 178.192L252.048 174.059C250.896 176.158 246.256 180.194 239.911 180.194C232.512 180.194 227.221 175.581 226.205 168.532H264.784C265.141 166.871 265.311 165.176 265.292 163.478C265.292 148.796 254.124 137.678 239.911 137.678ZM226.205 159.914C227.728 153.344 232.297 148.291 239.911 148.291C247.018 148.291 251.586 153.344 252.602 159.914H226.205Z" fill="white"/>
<path d="M497.131 118.336H484.44V130.97H497.131V118.336Z" fill="white"/>
<path d="M532.15 179.624C524.536 179.624 518.444 173.56 518.444 164.463C518.444 155.366 524.536 149.301 532.15 149.301C539.764 149.301 542.81 154.355 543.825 157.387L555.318 153.319C552.533 146.12 545.699 137.678 532.15 137.678C516.921 137.678 505.754 148.796 505.754 164.463C505.754 180.13 516.921 191.248 532.15 191.248C545.817 191.248 552.65 182.669 555.383 175.128L543.825 171.033C542.81 174.57 539.764 179.624 532.15 179.624Z" fill="white"/>
<path d="M454.172 129.564H461.376V190.236H474.067V118.336H454.172V129.564Z" fill="white"/>
<path d="M497.131 138.688H484.44V190.236H497.131V138.688Z" fill="white"/>
<path d="M562.178 180.348C561.207 180.334 560.254 180.608 559.439 181.135C558.625 181.661 557.987 182.417 557.605 183.306C557.224 184.195 557.117 185.177 557.298 186.127C557.478 187.077 557.939 187.952 558.62 188.64C559.302 189.329 560.173 189.8 561.125 189.994C562.076 190.188 563.064 190.095 563.962 189.729C564.86 189.362 565.629 188.738 566.17 187.935C566.711 187.132 567 186.187 567 185.221C567.021 184.581 566.912 183.944 566.678 183.348C566.444 182.752 566.091 182.21 565.64 181.754C565.188 181.298 564.649 180.938 564.054 180.697C563.459 180.455 562.82 180.337 562.178 180.348ZM562.178 189.348C561.355 189.362 560.546 189.132 559.855 188.687C559.164 188.243 558.622 187.603 558.297 186.85C557.972 186.097 557.88 185.265 558.032 184.46C558.183 183.655 558.572 182.913 559.149 182.329C559.726 181.744 560.465 181.344 561.271 181.179C562.077 181.014 562.914 181.091 563.675 181.401C564.437 181.712 565.089 182.24 565.548 182.921C566.006 183.601 566.251 184.402 566.252 185.221C566.27 185.761 566.178 186.299 565.981 186.802C565.783 187.305 565.484 187.762 565.103 188.146C564.722 188.53 564.265 188.833 563.762 189.035C563.259 189.237 562.72 189.335 562.178 189.322V189.348Z" fill="white"/>
<path d="M564.28 184.321C564.278 184.087 564.229 183.856 564.135 183.642C564.04 183.428 563.903 183.236 563.731 183.077C563.559 182.917 563.356 182.795 563.135 182.717C562.914 182.639 562.679 182.607 562.444 182.623H560.271V187.703H561.019V185.94H561.703L563.466 187.703H564.397L562.633 185.94C563.066 185.941 563.482 185.77 563.791 185.467C564.099 185.164 564.275 184.752 564.28 184.321ZM561.026 185.195V183.368H562.444C562.58 183.352 562.718 183.364 562.849 183.404C562.98 183.445 563.101 183.512 563.204 183.602C563.308 183.692 563.391 183.802 563.448 183.926C563.505 184.05 563.536 184.184 563.538 184.321C563.538 184.858 563.193 185.195 562.444 185.195H561.026Z" fill="white"/>
<path d="M78.8006 112L39.2389 134.736L56.4719 144.642L78.8006 131.813L106.362 147.655V179.345L84.0395 192.18V211.994L123.601 189.252V137.748L78.8006 112Z" fill="white"/>
<path d="M61.5676 173.41V205.099L78.8006 215V163.503L34 137.748V157.561L61.5676 173.41Z" fill="white"/>
</g>
<defs>
<clipPath id="clip0_3465_70">
<rect width="533" height="103" fill="white" transform="translate(34 112)"/>
</clipPath>
</defs>
</svg>
