<svg width="600" height="327" viewBox="0 0 600 327" fill="none" xmlns="http://www.w3.org/2000/svg">
<g clip-path="url(#clip0_3465_100)">
<mask id="mask0_3465_100" style="mask-type:luminance" maskUnits="userSpaceOnUse" x="51" y="95" width="498" height="137">
<mask id="mask1_3465_100" style="mask-type:luminance" maskUnits="userSpaceOnUse" x="51" y="95" width="498" height="137">
<path d="M51.5 231.41H548.5V95.4102H51.5V231.41Z" fill="white"/>
</mask>
<g mask="url(#mask1_3465_100)">
<path d="M51.5 95.4102H548.5V231.41H51.5V95.4102Z" fill="black"/>
</g>
</mask>
<g mask="url(#mask0_3465_100)">
<mask id="mask2_3465_100" style="mask-type:luminance" maskUnits="userSpaceOnUse" x="51" y="95" width="498" height="137">
<path d="M51.5 231.41H548.5V95.4102H51.5V231.41Z" fill="white"/>
</mask>
<g mask="url(#mask2_3465_100)">
<path d="M216.532 214.327C216.532 210.184 219.673 208.178 223.824 208.178C228.502 208.178 231.468 211.229 231.468 215.044H228.326C228.326 212.351 226.843 210.97 223.832 210.97C221.065 210.97 219.681 212.099 219.681 214.266C219.681 215.959 220.751 217.119 224.336 218.118C229.863 219.689 231.529 221.848 231.529 225.304C231.529 229.66 228.388 231.354 223.985 231.354C218.963 231.354 215.821 228.783 215.821 224.488H218.963C218.963 227.12 220.782 228.561 223.985 228.561C226.973 228.561 228.388 227.463 228.388 225.396C228.388 222.634 225.559 221.581 223.45 220.971C218.359 219.529 216.532 217.439 216.532 214.327Z" fill="white"/>
<path d="M234.166 223.077V222.604C234.166 217.684 236.207 214.449 240.763 214.449C245.319 214.449 247.36 217.684 247.36 222.604V223.077C247.36 227.715 245.831 231.385 240.763 231.385C235.695 231.385 234.166 227.715 234.166 223.077ZM236.995 222.696V223.23C236.995 227.044 237.843 228.875 240.763 228.875C243.683 228.875 244.532 227.029 244.532 223.23V222.696C244.532 218.775 243.652 216.959 240.763 216.959C237.874 216.959 237.018 218.775 237.018 222.696H236.995Z" fill="white"/>
<path d="M258.848 210.78C258.369 210.717 257.886 210.687 257.403 210.689C255.553 210.689 254.888 211.688 254.888 213.702V214.762H258.351V217.272H254.888V231.072H252.06V217.272H249.453V214.762H252.09V213.733C252.09 210.216 253.695 208.179 257.181 208.179C257.752 208.178 258.321 208.242 258.878 208.37L258.848 210.78Z" fill="white"/>
<path d="M269.687 230.882C269.13 231.009 268.561 231.073 267.99 231.072C264.504 231.072 262.899 229.035 262.899 225.519V217.272H260.262V214.762H262.899V210.376H265.727V214.762H269.19V217.272H265.727V225.549C265.727 227.563 266.392 228.654 268.242 228.654C268.725 228.656 269.208 228.625 269.687 228.562V230.882Z" fill="white"/>
<path d="M286.497 226.676L289.172 214.761H292.153L287.674 231.07H285.381L281.742 219.246L278.188 231.07H275.895L271.431 214.761H274.419L277.179 226.425L280.672 214.761H282.965L286.497 226.676Z" fill="white"/>
<path d="M303.901 231.072C303.675 230.512 303.539 229.92 303.496 229.317C302.946 229.971 302.257 230.496 301.48 230.853C300.703 231.211 299.857 231.392 299.001 231.385C296.074 231.385 293.719 229.531 293.719 226.556C293.719 223.077 296.173 221.033 300.912 221.033H303.427V219.972C303.427 217.897 302.663 216.959 300.369 216.959C298.458 216.959 297.358 217.897 297.228 219.469H294.399C294.591 216.417 296.914 214.449 300.515 214.449C304.337 214.449 306.263 216.456 306.263 219.789V227.158C306.219 228.487 306.446 229.81 306.928 231.049L303.901 231.072ZM303.427 226.113V223.542H301.478C297.992 223.542 296.547 224.42 296.547 226.304C296.547 228.058 297.556 228.875 299.437 228.875C300.299 228.854 301.137 228.581 301.846 228.09C302.555 227.599 303.105 226.912 303.427 226.113Z" fill="white"/>
<path d="M318.25 217.179C317.686 217.029 317.105 216.955 316.522 216.958C314.665 216.958 313.465 218.399 312.907 220.009V231.078H310.078V214.761H312.846V216.836C313.202 216.127 313.748 215.529 314.422 215.108C315.096 214.687 315.872 214.458 316.668 214.448C317.206 214.437 317.741 214.544 318.235 214.761L318.25 217.179Z" fill="white"/>
<path d="M332.834 226.524C332.531 227.92 331.752 229.168 330.63 230.055C329.507 230.941 328.111 231.411 326.681 231.384C321.773 231.384 319.671 227.966 319.671 223.481V222.977C319.541 218.057 322.308 214.448 326.298 214.448C330.602 214.448 332.834 217.5 332.834 222.794V224.167H322.53C322.69 227.089 323.814 228.874 326.681 228.874C327.392 228.905 328.092 228.688 328.66 228.259C329.228 227.83 329.628 227.216 329.792 226.524H332.834ZM322.622 221.665H329.975C329.822 218.56 328.691 216.958 326.298 216.958C324.036 216.958 322.973 218.652 322.622 221.665Z" fill="white"/>
<path d="M216.119 192.562H260.064C269.42 192.562 277.033 185.422 277.033 176.642V173.659C277.033 165.039 269.841 158.051 260.66 157.753H260.362H230.665C229.466 157.791 228.3 157.351 227.425 156.532C226.549 155.712 226.035 154.58 225.995 153.382V150.506C226.033 149.307 226.546 148.172 227.422 147.35C228.297 146.527 229.464 146.085 230.665 146.12H273.716V134.555H230.665C221.309 134.555 213.696 141.695 213.696 150.476V153.359C213.696 162.132 221.34 169.28 230.665 169.28H260.064C261.264 169.247 262.429 169.69 263.303 170.513C264.177 171.335 264.689 172.469 264.727 173.667V176.649C264.687 177.846 264.174 178.978 263.3 179.799C262.427 180.619 261.263 181.061 260.064 181.028H216.119V192.562Z" fill="white"/>
<path d="M303.902 134.563H291.603V192.562H303.902V134.563Z" fill="white"/>
<path d="M463.69 192.532H475.997V150.491C475.997 141.71 468.353 134.57 459.02 134.57H397.746V192.547H409.976V146.112H430.462V192.532H442.738V146.112H459.035C460.234 146.087 461.394 146.531 462.269 147.35C463.143 148.168 463.662 149.296 463.713 150.491L463.69 192.532Z" fill="white"/>
<path d="M548.507 150.475C548.507 141.695 540.863 134.554 531.522 134.554H492.454V146.096H531.515C532.713 146.071 533.874 146.516 534.748 147.334C535.623 148.152 536.141 149.28 536.193 150.475V157.73H505.189C495.833 157.73 488.219 164.878 488.219 173.658V176.61C488.219 185.391 495.863 192.531 505.189 192.531H548.454L548.507 150.475ZM536.17 180.989H505.189C503.991 181.014 502.83 180.57 501.955 179.752C501.081 178.933 500.563 177.806 500.511 176.61V173.658C500.561 172.462 501.078 171.332 501.953 170.512C502.827 169.692 503.989 169.247 505.189 169.272H536.193L536.17 180.989Z" fill="white"/>
<path d="M320.489 176.65C320.489 185.43 328.133 192.57 337.459 192.57H380.777V157.769H348.412V169.311H368.409V181.028H337.459C336.258 181.063 335.093 180.622 334.217 179.802C333.342 178.981 332.828 177.847 332.788 176.65V150.491C332.838 149.295 333.356 148.165 334.23 147.345C335.105 146.525 336.267 146.08 337.466 146.105H380.678V134.571H337.451C328.087 134.571 320.482 141.711 320.482 150.491L320.489 176.65Z" fill="white"/>
<path d="M166.901 146.425C158.69 143.937 150.258 142.246 141.722 141.374C140.848 132.855 139.154 124.44 136.661 116.246C131.15 99.0208 124.362 95.382 119.638 95.382C114.915 95.382 108.119 98.9903 102.623 116.216C100.131 124.41 98.4364 132.825 97.5628 141.344C89.0266 142.216 80.5946 143.907 72.3837 146.394C55.1237 151.917 51.4776 158.699 51.4776 163.406C51.4776 168.112 55.1008 174.902 72.3608 180.387C80.5717 182.874 89.0037 184.565 97.5399 185.437C98.4197 193.959 100.122 202.377 102.623 210.573C108.119 227.798 114.915 231.414 119.638 231.414C124.362 231.414 131.15 227.798 136.654 210.573C139.147 202.379 140.841 193.964 141.714 185.444C150.253 184.571 158.688 182.877 166.901 180.387C184.161 174.902 187.776 168.128 187.776 163.406C187.776 158.684 184.153 151.917 166.901 146.425ZM117.865 226.524L117.513 226.372C114.693 225.021 111.773 221.161 109.25 215.303C109.09 214.929 108.929 214.54 108.769 214.135C108.685 213.937 108.601 213.731 108.524 213.525C108.448 213.319 108.31 212.968 108.203 212.686C108.096 212.404 107.913 211.923 107.775 211.519L107.592 211C107.393 210.428 107.194 209.841 107.003 209.238V209.154C104.692 201.577 103.1 193.8 102.249 185.925C107.867 186.413 113.714 186.688 119.669 186.688C125.624 186.688 131.471 186.436 137.09 185.925C134.154 210.863 126.602 226.875 119.669 226.875C119.148 226.865 118.632 226.772 118.14 226.6L117.865 226.524ZM69.7084 174.65C69.2726 174.49 68.8522 174.314 68.4395 174.147L67.7897 173.88L67.2394 173.643C61.5752 171.149 57.8373 168.303 56.5379 165.511C56.4997 165.435 56.4614 165.359 56.4309 165.282L56.3162 164.962C56.1476 164.471 56.0598 163.955 56.0563 163.436C56.0563 156.517 72.1085 148.988 97.0889 146.051C96.6073 151.658 96.3245 157.494 96.3245 163.436C96.3245 169.379 96.5844 175.222 97.0889 180.822C86.1122 179.532 76.8631 177.358 69.9453 174.719L69.7084 174.65ZM100.934 163.444C100.934 157.143 101.217 151.169 101.698 145.585C107.301 145.074 113.286 144.823 119.6 144.823C124.775 144.823 129.728 145.013 134.437 145.364L101.446 178.281C101.163 173.513 100.949 168.57 100.949 163.406L100.934 163.444ZM102.203 140.963C105.153 115.979 112.705 99.9591 119.638 99.9591C126.571 99.9591 134.162 115.979 137.059 140.909C131.441 140.429 125.593 140.146 119.638 140.146C113.684 140.146 107.836 140.444 102.218 140.924L102.203 140.963ZM137.762 148.484C138.114 153.229 138.313 158.218 138.313 163.444C138.313 169.745 138.03 175.718 137.548 181.31C131.953 181.813 125.968 182.073 119.654 182.073C114.415 182.073 109.419 181.89 104.664 181.523L137.762 148.484ZM142.15 146.058C167.138 148.995 183.182 156.525 183.182 163.444C183.182 170.363 167.13 177.938 142.15 180.829C142.631 175.23 142.914 169.386 142.914 163.444C142.914 157.501 142.647 151.627 142.165 146.02L142.15 146.058Z" fill="white"/>
</g>
</g>
</g>
<defs>
<clipPath id="clip0_3465_100">
<rect width="497" height="136" fill="white" transform="translate(51.5 95.4102)"/>
</clipPath>
</defs>
</svg>
