<svg width="600" height="327" viewBox="0 0 600 327" fill="none" xmlns="http://www.w3.org/2000/svg">
<path d="M213.128 213.402C213.128 209.127 216.378 206.99 220.658 206.99C225.493 206.99 228.584 210.156 228.584 214.114H225.335C225.335 211.344 223.829 209.919 220.658 209.919C217.805 209.919 216.378 211.106 216.378 213.323C216.378 215.064 217.488 216.251 221.213 217.359C226.92 219.022 228.664 221.238 228.664 224.8C228.664 229.312 225.414 231.053 220.817 231.053C215.585 231.053 212.335 228.362 212.335 223.929H215.585C215.585 226.7 217.488 228.124 220.817 228.124C223.908 228.124 225.414 227.016 225.414 224.8C225.414 221.95 222.481 220.842 220.262 220.209C215.03 218.784 213.128 216.647 213.128 213.402ZM231.438 222.504V222.03C231.438 216.885 233.578 213.56 238.254 213.56C243.01 213.56 245.071 216.885 245.071 222.03V222.504C245.071 227.333 243.486 231.132 238.254 231.132C233.023 231.132 231.438 227.333 231.438 222.504ZM234.37 222.109V222.663C234.37 226.62 235.242 228.52 238.254 228.52C241.266 228.52 242.138 226.62 242.138 222.663V222.109C242.138 218.072 241.187 216.172 238.254 216.172C235.242 216.172 234.37 217.993 234.37 222.109ZM257.04 209.761C256.564 209.681 256.009 209.681 255.534 209.681C253.631 209.681 252.918 210.71 252.918 212.848V213.956H256.485V216.568H252.918V230.895H249.985V216.568H247.29V213.956H250.064V212.848C250.064 209.207 251.729 207.069 255.375 207.069C255.93 207.069 256.564 207.149 257.119 207.307L257.04 209.761ZM268.295 230.578C267.74 230.737 267.106 230.816 266.551 230.816C262.905 230.816 261.241 228.678 261.241 225.037V216.489H258.466V213.877H261.241V209.286H264.173V213.877H267.74V216.489H264.173V225.117C264.173 227.175 264.887 228.362 266.789 228.362C267.264 228.362 267.819 228.362 268.295 228.283V230.578ZM285.733 226.225L288.507 213.877H291.598L286.922 230.816H284.544L280.739 218.547L277.014 230.816H274.636L270.039 213.877H273.13L275.983 225.987L279.629 213.877H282.007L285.733 226.225ZM303.725 230.816C303.488 230.262 303.329 229.628 303.329 228.995C302.14 230.341 300.476 231.132 298.652 231.132C295.641 231.132 293.183 229.233 293.183 226.146C293.183 222.504 295.72 220.446 300.634 220.446H303.25V219.338C303.25 217.201 302.457 216.172 300.079 216.172C298.098 216.172 296.988 217.122 296.829 218.784H293.897C294.135 215.618 296.512 213.56 300.238 213.56C304.201 213.56 306.182 215.618 306.182 219.101V226.779C306.103 228.124 306.341 229.549 306.896 230.816H303.725ZM303.25 225.671V222.979H301.189C297.543 222.979 296.037 223.929 296.037 225.829C296.037 227.649 297.067 228.52 299.049 228.52C300.951 228.441 302.616 227.333 303.25 225.671ZM318.627 216.33C318.072 216.172 317.438 216.093 316.804 216.093C314.901 216.093 313.633 217.597 313.078 219.259V230.737H310.146V213.797H312.999V215.935C313.792 214.431 315.298 213.481 316.962 213.481C317.517 213.481 318.072 213.56 318.627 213.797V216.33ZM333.766 226.066C333.132 229.074 330.437 231.132 327.346 231.132C322.273 231.132 320.053 227.57 320.053 222.9V222.346C319.895 217.201 322.828 213.481 326.949 213.481C331.388 213.481 333.766 216.647 333.766 222.109V223.533H323.065C323.224 226.541 324.413 228.441 327.346 228.441C328.852 228.52 330.199 227.491 330.595 225.987L333.766 226.066ZM323.145 221.001H330.754C330.595 217.755 329.406 216.093 326.949 216.093C324.651 216.172 323.541 217.914 323.145 221.001Z" fill="white"/>
<path d="M212.732 190.842H258.308C267.978 190.842 275.904 183.401 275.904 174.299V171.212C275.904 162.267 268.453 154.985 258.942 154.668H258.625H227.792C225.176 154.748 223.036 152.69 222.957 150.157V147.149C223.036 144.537 225.176 142.558 227.792 142.558H272.417V130.605H227.792C218.122 130.605 210.195 138.046 210.195 147.149V150.157C210.195 159.259 218.122 166.7 227.792 166.7H258.308C260.923 166.621 263.064 168.679 263.143 171.291V174.378C263.064 176.99 260.923 178.969 258.308 178.89H212.732V190.842ZM290.964 130.605H303.725V190.763H290.964V130.605ZM469.464 190.763H482.225V147.149C482.225 138.046 474.299 130.605 464.629 130.605H401.06V190.763H413.742V142.637H434.984V190.842H447.746V142.637H464.629C467.244 142.558 469.384 144.616 469.464 147.149V190.763ZM557.445 147.149C557.445 138.046 549.519 130.605 539.849 130.605H499.346V142.558H539.77C542.385 142.479 544.525 144.537 544.605 147.07V154.589H512.424C502.754 154.589 494.828 162.03 494.828 171.132V174.219C494.828 183.322 502.754 190.763 512.424 190.763H557.287L557.445 147.149ZM544.605 178.81H512.503C509.888 178.89 507.747 176.832 507.668 174.299V171.212C507.747 168.6 509.967 166.621 512.503 166.621H544.684L544.605 178.81ZM320.925 174.299C320.925 183.401 328.852 190.842 338.522 190.842H383.464V154.748H349.935V166.7H370.702V178.89H338.601C335.985 178.969 333.845 176.911 333.766 174.378V147.149C333.845 144.537 336.064 142.558 338.601 142.558H383.384V130.605H338.522C328.772 130.605 320.925 138.046 320.925 147.149V174.299Z" fill="white"/>
<path fill-rule="evenodd" clip-rule="evenodd" d="M104.457 92.6422C106.875 90.0842 109.65 88.5 112.702 88.5C115.743 88.5 118.507 90.0716 120.919 92.611C123.33 95.1492 125.506 98.7692 127.418 103.189C131.169 111.861 134.029 123.908 135.547 137.795C149.43 139.276 161.472 142.093 170.14 145.818C174.559 147.717 178.178 149.884 180.716 152.293C183.257 154.705 184.825 157.474 184.825 160.526C184.825 163.591 183.244 166.37 180.684 168.79C178.127 171.208 174.481 173.384 170.03 175.291C161.371 179.001 149.372 181.82 135.547 183.332C134.036 197.164 131.193 209.169 127.466 217.833C125.55 222.285 123.368 225.932 120.949 228.489C118.53 231.047 115.755 232.631 112.702 232.631C109.649 232.631 106.878 231.046 104.466 228.487C102.055 225.929 99.883 222.282 97.9775 217.83C94.4432 209.573 91.7134 198.28 90.1576 185.264L90.1174 185.304L89.917 183.301C76.0799 181.79 64.0491 178.962 55.3603 175.251C50.8937 173.343 47.2325 171.169 44.6643 168.759C42.0956 166.348 40.5 163.579 40.5 160.526C40.5 157.474 42.0886 154.707 44.6509 152.298C47.212 149.89 50.8641 147.722 55.3217 145.819C63.9931 142.117 76.0082 139.299 89.8512 137.791L89.8519 137.785L89.936 137.776C91.4107 123.953 94.2329 111.956 97.9493 103.298C99.8601 98.8458 102.04 95.1992 104.457 92.6422ZM91.3708 140.647C77.1941 142.102 65.0513 144.928 56.4995 148.578C52.2184 150.405 48.9152 152.407 46.7057 154.484C44.4973 156.56 43.5 158.591 43.5 160.526C43.5 162.458 44.5005 164.491 46.7173 166.572C48.9346 168.653 52.2481 170.659 56.5387 172.492C64.9757 176.095 76.8905 178.9 90.7757 180.376L92.4686 178.666L92.7935 181.823C94.2507 195.982 97.0799 208.109 100.735 216.65C102.565 220.924 104.569 224.223 106.649 226.429C108.728 228.634 110.762 229.631 112.702 229.631C114.643 229.631 116.683 228.633 118.77 226.427C120.857 224.22 122.871 220.922 124.71 216.647C128.385 208.107 131.233 195.981 132.69 181.824C132.69 181.824 132.69 181.824 132.69 181.823L132.813 180.602L134.03 180.476C148.188 179.017 160.311 176.192 168.848 172.534C173.122 170.703 176.418 168.696 178.623 166.611C180.826 164.527 181.825 162.483 181.825 160.526C181.825 158.577 180.834 156.542 178.651 154.469C176.465 152.393 173.196 150.396 168.956 148.574C160.486 144.935 148.452 142.127 134.387 140.691L133.856 140.636L132.71 139.49L132.654 138.961C131.181 124.894 128.331 112.855 124.665 104.38C122.83 100.138 120.823 96.8657 118.744 94.6771C116.667 92.4897 114.635 91.5 112.702 91.5C110.762 91.5 108.722 92.4977 106.637 94.7031C104.551 96.9094 102.54 100.207 100.706 104.481C97.0416 113.019 94.2126 125.143 92.7947 139.297L92.6723 140.518L91.3709 140.648L91.3708 140.647Z" fill="white"/>
</svg>
