<svg width="817" height="57" viewBox="0 0 817 57" fill="none" xmlns="http://www.w3.org/2000/svg">
<path d="M0 34.912V22.312H5.094C5.874 22.312 6.558 22.45 7.146 22.726C7.746 22.99 8.214 23.374 8.55 23.878C8.886 24.37 9.054 24.964 9.054 25.66V25.858C9.054 26.686 8.856 27.34 8.46 27.82C8.064 28.3 7.596 28.624 7.056 28.792V29.044C7.488 29.056 7.842 29.2 8.118 29.476C8.406 29.74 8.55 30.142 8.55 30.682V34.912H7.056V30.862C7.056 30.502 6.954 30.226 6.75 30.034C6.558 29.842 6.264 29.746 5.868 29.746H1.512V34.912H0ZM1.512 28.378H4.95C5.778 28.378 6.414 28.18 6.858 27.784C7.314 27.376 7.542 26.812 7.542 26.092V25.966C7.542 25.246 7.32 24.688 6.876 24.292C6.432 23.884 5.79 23.68 4.95 23.68H1.512V28.378Z" fill="white"/>
<path d="M11.3555 34.912V22.312H19.1135V23.68H12.8675V27.892H18.6095V29.26H12.8675V33.544H19.2035V34.912H11.3555Z" fill="white"/>
<path d="M20.508 34.912L24.396 22.312H27.06L30.948 34.912H29.382L28.41 31.726H23.046L22.074 34.912H20.508ZM23.424 30.358H28.014L25.854 23.23H25.602L23.424 30.358Z" fill="white"/>
<path d="M32.8359 34.912V22.312H34.3479V33.544H40.7199V34.912H32.8359Z" fill="white"/>
<path d="M42.6621 34.912V22.312H44.1741V34.912H42.6621Z" fill="white"/>
<path d="M46.5166 34.912V32.914L53.5366 23.878V23.662H46.7326V22.312H55.0306V24.31L48.0106 33.346V33.562H55.1746V34.912H46.5166Z" fill="white"/>
<path d="M56.4553 34.912L60.3433 22.312H63.0073L66.8953 34.912H65.3293L64.3573 31.726H58.9933L58.0213 34.912H56.4553ZM59.3713 30.358H63.9613L61.8013 23.23H61.5493L59.3713 30.358Z" fill="white"/>
<path d="M73.1614 35.164C71.6614 35.164 70.4674 34.732 69.5794 33.868C68.6914 32.992 68.2474 31.72 68.2474 30.052V27.172C68.2474 25.504 68.6914 24.238 69.5794 23.374C70.4674 22.498 71.6614 22.06 73.1614 22.06C74.6494 22.06 75.7894 22.474 76.5814 23.302C77.3854 24.13 77.7874 25.264 77.7874 26.704V26.794H76.2934V26.65C76.2934 25.702 76.0354 24.928 75.5194 24.328C75.0154 23.716 74.2294 23.41 73.1614 23.41C72.0934 23.41 71.2594 23.74 70.6594 24.4C70.0594 25.048 69.7594 25.96 69.7594 27.136V30.088C69.7594 31.264 70.0594 32.182 70.6594 32.842C71.2594 33.49 72.0934 33.814 73.1614 33.814C74.2294 33.814 75.0154 33.514 75.5194 32.914C76.0354 32.302 76.2934 31.522 76.2934 30.574V30.286H77.7874V30.52C77.7874 31.96 77.3854 33.094 76.5814 33.922C75.7894 34.75 74.6494 35.164 73.1614 35.164ZM73.1794 38.602C72.8194 38.602 72.4774 38.554 72.1534 38.458C71.8294 38.362 71.5414 38.236 71.2894 38.08L71.7214 37.18C71.9254 37.3 72.1414 37.402 72.3694 37.486C72.6094 37.57 72.8734 37.612 73.1614 37.612C73.4014 37.612 73.6054 37.564 73.7734 37.468C73.9414 37.372 74.0254 37.216 74.0254 37C74.0254 36.808 73.9474 36.664 73.7914 36.568C73.6474 36.472 73.4314 36.424 73.1434 36.424H72.4774L72.6574 34.534H73.7014L73.5934 35.722C74.0614 35.722 74.4394 35.842 74.7274 36.082C75.0154 36.322 75.1594 36.67 75.1594 37.126C75.1594 37.462 75.0694 37.738 74.8894 37.954C74.7094 38.182 74.4694 38.344 74.1694 38.44C73.8694 38.548 73.5394 38.602 73.1794 38.602Z" fill="white"/>
<path d="M79.0432 34.912L82.9312 22.312H85.5952L89.4832 34.912H87.9172L86.9452 31.726H81.5812L80.6092 34.912H79.0432ZM81.9592 30.358H86.5492L84.3892 23.23H84.1372L81.9592 30.358ZM82.1212 21.268L81.2752 20.692L81.8512 19.792C82.0072 19.564 82.1872 19.378 82.3912 19.234C82.5952 19.078 82.8532 19 83.1652 19C83.4412 19 83.6812 19.06 83.8852 19.18C84.1012 19.3 84.3232 19.48 84.5512 19.72C84.7072 19.876 84.8392 20.002 84.9472 20.098C85.0552 20.182 85.1812 20.224 85.3252 20.224C85.4692 20.224 85.5832 20.182 85.6672 20.098C85.7632 20.014 85.8532 19.912 85.9372 19.792L86.4052 19.054L87.2512 19.63L86.6752 20.53C86.5312 20.746 86.3572 20.932 86.1532 21.088C85.9492 21.244 85.6912 21.322 85.3792 21.322C85.0912 21.322 84.8452 21.262 84.6412 21.142C84.4372 21.022 84.2212 20.842 83.9932 20.602C83.8372 20.446 83.7052 20.326 83.5972 20.242C83.4892 20.158 83.3632 20.116 83.2192 20.116C83.0752 20.116 82.9552 20.158 82.8592 20.242C82.7632 20.326 82.6732 20.428 82.5892 20.548L82.1212 21.268Z" fill="white"/>
<path d="M95.7673 35.164C94.2673 35.164 93.0673 34.732 92.1673 33.868C91.2793 32.992 90.8353 31.72 90.8353 30.052V27.172C90.8353 25.504 91.2793 24.238 92.1673 23.374C93.0673 22.498 94.2673 22.06 95.7673 22.06C97.2793 22.06 98.4793 22.498 99.3673 23.374C100.267 24.238 100.717 25.504 100.717 27.172V30.052C100.717 31.72 100.267 32.992 99.3673 33.868C98.4793 34.732 97.2793 35.164 95.7673 35.164ZM95.7673 33.814C96.8593 33.814 97.7053 33.49 98.3053 32.842C98.9053 32.182 99.2053 31.27 99.2053 30.106V27.118C99.2053 25.954 98.9053 25.048 98.3053 24.4C97.7053 23.74 96.8593 23.41 95.7673 23.41C94.6873 23.41 93.8473 23.74 93.2473 24.4C92.6473 25.048 92.3473 25.954 92.3473 27.118V30.106C92.3473 31.27 92.6473 32.182 93.2473 32.842C93.8473 33.49 94.6873 33.814 95.7673 33.814Z" fill="white"/>
<path d="M186.525 38.6173C186.672 39.1286 186.745 39.6399 186.672 40.1512C189.155 41.1738 190.543 42.1964 190.47 42.9999C190.47 43.0729 190.47 43.0729 190.47 43.0729C190.47 43.146 190.397 43.219 190.397 43.292C190.105 43.7303 189.301 44.0955 188.059 44.3146C187.767 44.3877 187.548 44.3877 187.256 44.4607C186.452 44.5338 185.576 44.6068 184.48 44.6799C184.188 44.6799 183.969 44.6799 183.677 44.6799H183.531C183.312 44.6799 183.092 44.6799 182.8 44.6799C182.289 44.6799 181.705 44.6799 181.12 44.6799C177.322 44.6068 172.647 44.0955 167.607 43.3651C163.517 42.7077 159.646 41.9042 156.432 41.1007C155.628 40.8816 154.825 40.6625 154.094 40.4434C148.908 38.9095 145.694 37.3025 145.913 36.0608C146.06 35.0382 148.762 34.4538 152.926 34.3808C152.999 34.0886 153.072 33.7964 153.145 33.5043C149.712 33.2121 146.571 33.139 143.941 33.139C141.312 33.139 139.12 33.2851 137.44 33.5043C137.221 33.5773 137.002 33.5773 136.783 33.6503C136.564 33.7234 136.345 33.7234 136.199 33.7964C135.98 33.8695 135.833 33.8695 135.687 33.9425C134.665 34.2347 134.08 34.6729 134.007 35.1842C133.715 37.3025 142.115 40.5164 154.533 43.219C155.336 43.3651 156.213 43.5842 157.016 43.7303C160.668 44.4607 164.612 45.1912 168.703 45.8486C169.36 45.9216 170.018 46.0677 170.602 46.1407C171.259 46.2138 171.844 46.3599 172.501 46.4329C173.159 46.5059 173.816 46.652 174.473 46.7251C175.058 46.7981 175.642 46.8712 176.226 46.9442C176.811 47.0172 177.468 47.0903 178.052 47.1633C178.564 47.2364 179.075 47.3094 179.586 47.3094C180.463 47.3825 181.266 47.4555 182.143 47.6016C187.11 48.1129 191.492 48.332 195.145 48.332C195.875 48.332 196.605 48.332 197.336 48.332C197.628 48.332 197.993 48.332 198.285 48.259C200.988 48.1129 203.033 47.8207 204.129 47.3094C204.348 47.2364 204.494 47.0903 204.64 47.0172C204.713 46.9442 204.786 46.8712 204.859 46.7981C204.932 46.7251 205.005 46.652 205.005 46.579C205.078 46.5059 205.078 46.4329 205.078 46.3599C205.371 44.2416 197.847 41.3199 186.525 38.6173Z" fill="white"/>
<path d="M189.513 21.452C191.531 21.452 193.166 19.8169 193.166 17.7999C193.166 15.7828 191.531 14.1477 189.513 14.1477C187.496 14.1477 185.861 15.7828 185.861 17.7999C185.861 19.8169 187.496 21.452 189.513 21.452Z" fill="white"/>
<path fill-rule="evenodd" clip-rule="evenodd" d="M174.824 22.8794C176.441 25.275 178.335 27.6782 180.301 29.8344C182.945 32.7277 184.399 36.4778 184.401 40.3875C184.401 41.495 184.285 42.576 184.066 43.6192C183.412 43.5779 182.772 43.5365 182.146 43.4951C182.377 42.4967 182.499 41.4571 182.499 40.3894C182.499 36.9528 181.22 33.6605 178.897 31.1148C177.069 29.1125 175.333 26.8955 173.785 24.6709C174.642 26.5042 175.563 28.3241 176.545 29.9921C178.23 32.8531 179.157 36.5462 179.157 40.3875C179.157 41.3741 179.096 42.3397 178.98 43.2762C178.331 43.2294 177.7 43.1824 177.086 43.1353C177.197 42.246 177.256 41.3258 177.256 40.3837C177.256 36.8749 176.422 33.5256 174.908 30.9534C173.665 28.8389 172.48 26.5023 171.45 24.1732C171.895 26.2553 172.385 28.3336 172.905 30.2201C173.677 33.0165 174.104 36.626 174.104 40.3856C174.104 41.2224 174.083 42.0601 174.04 42.889C173.391 42.8336 172.762 42.7779 172.153 42.7218C172.189 41.9783 172.208 41.2006 172.208 40.3894C172.208 36.7951 171.807 33.3661 171.078 30.7292C170.464 28.5103 169.879 26.0444 169.379 23.5994L169.212 22.773C169.256 23.6298 169.309 24.7146 169.364 25.9874C169.495 29.1106 169.583 33.2768 169.643 37.441C169.653 39.1441 169.658 40.8468 169.656 42.4787C168.991 42.41 168.351 42.3408 167.737 42.2708C167.736 40.702 167.742 39.0706 167.751 37.4391C167.812 33.2749 167.899 29.1106 168.03 25.9855C168.086 24.6994 168.141 23.6032 168.186 22.7407L168.011 23.5994C167.502 26.09 166.932 28.4875 166.319 30.7216C165.587 33.3585 165.187 36.7894 165.187 40.3837C165.187 40.9247 165.195 41.4508 165.211 41.9618C164.543 41.8737 163.908 41.7844 163.302 41.6936C163.291 41.2589 163.285 40.8231 163.285 40.3875C163.285 36.626 163.712 33.0165 164.486 30.2201C165.008 28.3184 165.491 26.2781 165.937 24.1789C164.879 26.5611 163.724 28.8465 162.481 30.9534C160.967 33.5275 160.133 36.8749 160.133 40.3856C160.133 40.6453 160.138 40.9034 160.146 41.1596C159.471 41.0301 158.837 40.8976 158.236 40.7614C158.234 40.6365 158.233 40.5112 158.233 40.3856C158.233 36.5424 159.161 32.8493 160.846 29.9883C161.828 28.3203 162.742 26.5193 163.61 24.6633C162.044 26.9126 160.342 29.0878 158.494 31.111C156.286 33.5297 155.022 36.6241 154.901 39.8744C154.254 39.6743 153.637 39.4667 153.033 39.2505C153.287 35.7558 154.705 32.4475 157.09 29.8325C159.077 27.6573 160.918 25.3187 162.563 22.8813L165.247 18.8994C164.668 12.7557 161.902 9.13093 161.871 9.09484L164.839 6.72015C164.902 6.79614 165.534 7.63963 166.29 9.06634V1H170.09C170.09 1 170.105 8.08037 170.09 8.599C170.23 8.43348 170.378 8.25535 170.531 8.0694C171.494 6.90653 172.71 5.43754 174.041 4.8299L176.406 10.0143C173.593 11.2966 172.271 15.5939 171.775 18.377L174.824 22.8794ZM153.371 43.8253C154.942 50.8379 161.217 56.0928 168.695 56.0928H168.697H168.701C174.448 56.0902 179.483 52.987 182.218 48.3683C181.534 48.3294 180.807 48.2843 180.045 48.2322C178.837 49.9728 177.239 51.4237 175.379 52.4585C176.358 51.2327 177.188 49.7446 177.817 48.0667C177.186 48.0161 176.537 47.961 175.875 47.9012C174.94 50.215 173.588 52.0503 171.991 53.1273C172.665 51.676 173.18 49.7867 173.534 47.6745C172.913 47.6102 172.284 47.5419 171.649 47.4692C171.086 50.7156 170.195 52.8347 169.434 53.72C169.469 52.981 169.537 51.2313 169.592 48.9003C169.605 48.3697 169.615 47.8093 169.624 47.2242C169.007 47.1456 168.388 47.0628 167.768 46.9756C167.777 47.6492 167.789 48.2913 167.804 48.8946C167.859 51.2275 167.928 52.9753 167.962 53.7143C167.14 52.7576 166.165 50.3598 165.617 46.6555C164.961 46.5523 164.307 46.444 163.656 46.3302C164.002 48.983 164.586 51.3758 165.399 53.1292C163.344 51.74 161.692 49.0951 160.817 45.7922C160.124 45.65 159.44 45.501 158.768 45.3449C159.392 48.1497 160.53 50.6045 162.012 52.4566C158.943 50.7516 156.586 47.9099 155.519 44.5029C154.777 44.288 154.059 44.0622 153.371 43.8253Z" fill="white"/>
<path d="M230.784 26.8463C228.432 26.8463 226.412 26.5054 224.725 25.8237C223.055 25.1249 221.768 24.162 220.865 22.9348C219.961 21.7077 219.51 20.2931 219.51 18.691C219.51 17.1401 219.961 15.7511 220.865 14.5239C221.768 13.2968 223.055 12.3253 224.725 11.6095C226.412 10.8937 228.432 10.5358 230.784 10.5358C233.136 10.5358 235.156 10.8937 236.843 11.6095C238.53 12.3253 239.817 13.2968 240.703 14.5239C241.607 15.7511 242.058 17.1401 242.058 18.691C242.058 20.2931 241.607 21.7077 240.703 22.9348C239.817 24.162 238.53 25.1249 236.843 25.8237C235.156 26.5054 233.136 26.8463 230.784 26.8463ZM230.784 25.5169C232.761 25.5169 234.474 25.2357 235.923 24.6733C237.371 24.1108 238.488 23.3183 239.272 22.2957C240.073 21.2561 240.473 20.0545 240.473 18.691C240.473 17.3617 240.073 16.1857 239.272 15.1631C238.488 14.1404 237.371 13.3309 235.923 12.7344C234.474 12.1378 232.761 11.8396 230.784 11.8396C228.79 11.8396 227.069 12.1378 225.62 12.7344C224.171 13.3309 223.055 14.1404 222.271 15.1631C221.504 16.1857 221.12 17.3617 221.12 18.691C221.12 20.0545 221.504 21.2561 222.271 22.2957C223.055 23.3183 224.171 24.1108 225.62 24.6733C227.069 25.2357 228.79 25.5169 230.784 25.5169Z" fill="white"/>
<path d="M251.262 10.638H252.898L269.95 24.4688V10.638H271.739V10.817C271.637 10.9192 271.569 11.03 271.535 11.1493C271.518 11.2686 271.509 11.4732 271.509 11.7629V26.5651H270.308L252.847 12.3509V26.5651H251.262V10.638Z" fill="white"/>
<path d="M283.218 26.5651V25.2613H290.76V11.9418H283.576V10.638H299.631V11.9418H292.345V25.2868H299.938V26.5651H283.218Z" fill="white"/>
<path d="M322.818 26.8463C320.466 26.8463 318.447 26.5054 316.759 25.8237C315.089 25.1249 313.802 24.162 312.899 22.9348C311.996 21.7077 311.544 20.2931 311.544 18.691C311.544 17.1401 311.996 15.7511 312.899 14.5239C313.802 13.2968 315.089 12.3253 316.759 11.6095C318.447 10.8937 320.466 10.5358 322.818 10.5358C325.17 10.5358 327.19 10.8937 328.877 11.6095C330.565 12.3253 331.851 13.2968 332.738 14.5239C333.641 15.7511 334.093 17.1401 334.093 18.691C334.093 20.2931 333.641 21.7077 332.738 22.9348C331.851 24.162 330.565 25.1249 328.877 25.8237C327.19 26.5054 325.17 26.8463 322.818 26.8463ZM322.818 25.5169C324.795 25.5169 326.508 25.2357 327.957 24.6733C329.406 24.1108 330.522 23.3183 331.306 22.2957C332.107 21.2561 332.508 20.0545 332.508 18.691C332.508 17.3617 332.107 16.1857 331.306 15.1631C330.522 14.1404 329.406 13.3309 327.957 12.7344C326.508 12.1378 324.795 11.8396 322.818 11.8396C320.824 11.8396 319.103 12.1378 317.654 12.7344C316.206 13.3309 315.089 14.1404 314.305 15.1631C313.538 16.1857 313.155 17.3617 313.155 18.691C313.155 20.0545 313.538 21.2561 314.305 22.2957C315.089 23.3183 316.206 24.1108 317.654 24.6733C319.103 25.2357 320.824 25.5169 322.818 25.5169Z" fill="white"/>
<path d="M343.296 10.638H344.932L361.984 24.4688V10.638H363.774V10.817C363.671 10.9192 363.603 11.03 363.569 11.1493C363.552 11.2686 363.544 11.4732 363.544 11.7629V26.5651H362.342L344.881 12.3509V26.5651H343.296V10.638Z" fill="white"/>
<path d="M220.993 48.4781V32.551H232.318C235.079 32.551 237.167 32.9515 238.581 33.7525C240.013 34.5365 240.729 35.6103 240.729 36.9738C240.729 37.843 240.448 38.5758 239.885 39.1724C239.34 39.7689 238.59 40.2376 237.635 40.5784C236.681 40.9023 235.59 41.0983 234.363 41.1664L241.726 48.4781H239.553L232.446 41.2943H222.578V48.4781H220.993ZM222.578 39.9904H232.471C234.738 39.9904 236.425 39.7518 237.533 39.2746C238.641 38.7804 239.186 38.0134 239.169 36.9738C239.152 35.9852 238.59 35.2183 237.482 34.6729C236.374 34.1275 234.619 33.8548 232.216 33.8548H222.578V39.9904Z" fill="white"/>
<path d="M252.54 48.4781V47.1742H260.082V33.8548H252.898V32.551H268.953V33.8548H261.667V47.1998H269.259V48.4781H252.54Z" fill="white"/>
<path d="M281.94 32.551H283.576L300.628 46.3817V32.551H302.417V32.7299C302.315 32.8322 302.247 32.943 302.213 33.0623C302.196 33.1816 302.187 33.3861 302.187 33.6759V48.4781H300.986L283.525 34.2638V48.4781H281.94V32.551Z" fill="white"/>
<path d="M324.02 48.7337C321.481 48.7337 319.29 48.3928 317.45 47.7111C315.626 47.0294 314.22 46.0835 313.231 44.8734C312.26 43.6462 311.774 42.2231 311.774 40.604C311.757 39.2746 311.987 38.1327 312.465 37.1783C312.959 36.2238 313.623 35.4398 314.459 34.8263C315.311 34.1957 316.265 33.7014 317.322 33.3435C318.379 32.9685 319.469 32.7129 320.594 32.5766C321.719 32.4232 322.81 32.355 323.867 32.372C325.128 32.3891 326.355 32.5084 327.548 32.7299C328.758 32.9515 329.849 33.2583 330.82 33.6503C331.809 34.0423 332.601 34.511 333.198 35.0564L332.175 35.9767L331.996 36.1812L331.868 36.0534C331.868 35.9 331.817 35.7892 331.715 35.7211C331.63 35.6358 331.476 35.5165 331.255 35.3632C330.641 35.0052 329.917 34.707 329.082 34.4684C328.247 34.2127 327.369 34.0167 326.449 33.8804C325.545 33.744 324.668 33.6759 323.815 33.6759C322.554 33.6759 321.302 33.7781 320.057 33.9826C318.83 34.1701 317.705 34.511 316.683 35.0052C315.677 35.4825 314.868 36.1642 314.254 37.0504C313.641 37.9197 313.334 39.036 313.334 40.3995C313.334 41.8993 313.785 43.1776 314.689 44.2342C315.609 45.2739 316.87 46.0664 318.472 46.6118C320.074 47.1572 321.924 47.4299 324.02 47.4299C324.838 47.4299 325.741 47.3788 326.73 47.2765C327.718 47.1572 328.664 47.0038 329.568 46.8163C330.471 46.6288 331.195 46.4158 331.741 46.1772L331.715 42.2402H324.276V40.9619H333.3V47.072C331.783 47.6174 330.258 48.0349 328.724 48.3247C327.19 48.5974 325.622 48.7337 324.02 48.7337Z" fill="white"/>
<path d="M353.471 48.7337C351.46 48.7337 349.628 48.5462 347.974 48.1713C346.321 47.7793 344.873 47.2509 343.628 46.5862L344.6 45.4614L344.779 45.2569L344.907 45.3847C344.907 45.5381 344.958 45.6488 345.06 45.717C345.162 45.7682 345.341 45.8619 345.597 45.9982C347.608 46.9527 350.361 47.4299 353.854 47.4299C355.559 47.4299 357.042 47.3021 358.303 47.0464C359.564 46.7737 360.544 46.4158 361.243 45.9727C361.942 45.5295 362.291 45.0268 362.291 44.4643C362.291 44.0212 362.155 43.6462 361.882 43.3395C361.626 43.0327 361.158 42.7515 360.476 42.4958C359.811 42.2231 358.882 41.9419 357.689 41.6522C356.496 41.3624 354.979 41.0216 353.139 40.6296C350.923 40.1694 349.185 39.7092 347.923 39.249C346.679 38.7889 345.801 38.3031 345.29 37.7918C344.779 37.2635 344.523 36.6755 344.523 36.0278C344.523 34.8859 345.35 33.9912 347.003 33.3435C348.656 32.6788 350.991 32.3465 354.008 32.3465C355.746 32.3465 357.365 32.5169 358.865 32.8578C360.382 33.1816 361.686 33.6673 362.777 34.315L361.907 35.3632L361.729 35.5677L361.601 35.4398C361.584 35.3035 361.515 35.2098 361.396 35.1586C361.294 35.1075 361.123 35.0223 360.885 34.903C359.947 34.4939 358.848 34.1872 357.587 33.9826C356.326 33.7611 354.945 33.6503 353.445 33.6503C352.116 33.6503 350.889 33.744 349.764 33.9315C348.656 34.1019 347.77 34.3576 347.105 34.6985C346.441 35.0223 346.108 35.4313 346.108 35.9256C346.108 36.2835 346.253 36.6158 346.543 36.9226C346.833 37.2294 347.344 37.5362 348.077 37.843C348.81 38.1497 349.815 38.4736 351.093 38.8144C352.372 39.1383 353.991 39.5047 355.951 39.9137C358.03 40.3398 359.641 40.7659 360.783 41.192C361.925 41.601 362.717 42.0612 363.16 42.5725C363.62 43.0838 363.85 43.6889 363.85 44.3876C363.85 45.1375 363.493 45.8448 362.777 46.5095C362.078 47.1572 360.962 47.6941 359.428 48.1201C357.911 48.5292 355.925 48.7337 353.471 48.7337Z" fill="white"/>
<path d="M437.994 35.164C436.494 35.164 435.3 34.732 434.412 33.868C433.524 32.992 433.08 31.72 433.08 30.052V27.172C433.08 25.504 433.524 24.238 434.412 23.374C435.3 22.498 436.494 22.06 437.994 22.06C439.482 22.06 440.622 22.474 441.414 23.302C442.218 24.13 442.62 25.264 442.62 26.704V26.794H441.126V26.65C441.126 25.702 440.868 24.928 440.352 24.328C439.848 23.716 439.062 23.41 437.994 23.41C436.926 23.41 436.092 23.74 435.492 24.4C434.892 25.048 434.592 25.96 434.592 27.136V30.088C434.592 31.264 434.892 32.182 435.492 32.842C436.092 33.49 436.926 33.814 437.994 33.814C439.062 33.814 439.848 33.514 440.352 32.914C440.868 32.302 441.126 31.522 441.126 30.574V30.286H442.62V30.52C442.62 31.96 442.218 33.094 441.414 33.922C440.622 34.75 439.482 35.164 437.994 35.164Z" fill="white"/>
<path d="M449.561 35.164C448.061 35.164 446.861 34.732 445.961 33.868C445.073 32.992 444.629 31.72 444.629 30.052V27.172C444.629 25.504 445.073 24.238 445.961 23.374C446.861 22.498 448.061 22.06 449.561 22.06C451.073 22.06 452.273 22.498 453.161 23.374C454.061 24.238 454.511 25.504 454.511 27.172V30.052C454.511 31.72 454.061 32.992 453.161 33.868C452.273 34.732 451.073 35.164 449.561 35.164ZM449.561 33.814C450.653 33.814 451.499 33.49 452.099 32.842C452.699 32.182 452.999 31.27 452.999 30.106V27.118C452.999 25.954 452.699 25.048 452.099 24.4C451.499 23.74 450.653 23.41 449.561 23.41C448.481 23.41 447.641 23.74 447.041 24.4C446.441 25.048 446.141 25.954 446.141 27.118V30.106C446.141 31.27 446.441 32.182 447.041 32.842C447.641 33.49 448.481 33.814 449.561 33.814Z" fill="white"/>
<path d="M457.012 30.934V29.62H462.34V30.934H457.012Z" fill="white"/>
<path d="M465.221 34.912V22.312H470.315C471.095 22.312 471.779 22.45 472.367 22.726C472.967 22.99 473.435 23.374 473.771 23.878C474.107 24.37 474.275 24.964 474.275 25.66V25.858C474.275 26.686 474.077 27.34 473.681 27.82C473.285 28.3 472.817 28.624 472.277 28.792V29.044C472.709 29.056 473.063 29.2 473.339 29.476C473.627 29.74 473.771 30.142 473.771 30.682V34.912H472.277V30.862C472.277 30.502 472.175 30.226 471.971 30.034C471.779 29.842 471.485 29.746 471.089 29.746H466.733V34.912H465.221ZM466.733 28.378H470.171C470.999 28.378 471.635 28.18 472.079 27.784C472.535 27.376 472.763 26.812 472.763 26.092V25.966C472.763 25.246 472.541 24.688 472.097 24.292C471.653 23.884 471.011 23.68 470.171 23.68H466.733V28.378Z" fill="white"/>
<path d="M476.577 34.912V22.312H484.335V23.68H478.089V27.892H483.831V29.26H478.089V33.544H484.425V34.912H476.577Z" fill="white"/>
<path d="M485.729 34.912L489.617 22.312H492.281L496.169 34.912H494.603L493.631 31.726H488.267L487.295 34.912H485.729ZM488.645 30.358H493.235L491.075 23.23H490.823L488.645 30.358Z" fill="white"/>
<path d="M498.057 34.912V22.312H499.569V33.544H505.941V34.912H498.057Z" fill="white"/>
<path d="M507.883 34.912V22.312H509.395V34.912H507.883Z" fill="white"/>
<path d="M511.738 34.912V32.914L518.758 23.878V23.662H511.954V22.312H520.252V24.31L513.232 33.346V33.562H520.396V34.912H511.738Z" fill="white"/>
<path d="M521.677 34.912L525.565 22.312H528.229L532.117 34.912H530.551L529.579 31.726H524.215L523.243 34.912H521.677ZM524.593 30.358H529.183L527.023 23.23H526.771L524.593 30.358Z" fill="white"/>
<path d="M538.383 35.164C536.883 35.164 535.689 34.732 534.801 33.868C533.913 32.992 533.469 31.72 533.469 30.052V27.172C533.469 25.504 533.913 24.238 534.801 23.374C535.689 22.498 536.883 22.06 538.383 22.06C539.871 22.06 541.011 22.474 541.803 23.302C542.607 24.13 543.009 25.264 543.009 26.704V26.794H541.515V26.65C541.515 25.702 541.257 24.928 540.741 24.328C540.237 23.716 539.451 23.41 538.383 23.41C537.315 23.41 536.481 23.74 535.881 24.4C535.281 25.048 534.981 25.96 534.981 27.136V30.088C534.981 31.264 535.281 32.182 535.881 32.842C536.481 33.49 537.315 33.814 538.383 33.814C539.451 33.814 540.237 33.514 540.741 32.914C541.257 32.302 541.515 31.522 541.515 30.574V30.286H543.009V30.52C543.009 31.96 542.607 33.094 541.803 33.922C541.011 34.75 539.871 35.164 538.383 35.164ZM538.401 38.602C538.041 38.602 537.699 38.554 537.375 38.458C537.051 38.362 536.763 38.236 536.511 38.08L536.943 37.18C537.147 37.3 537.363 37.402 537.591 37.486C537.831 37.57 538.095 37.612 538.383 37.612C538.623 37.612 538.827 37.564 538.995 37.468C539.163 37.372 539.247 37.216 539.247 37C539.247 36.808 539.169 36.664 539.013 36.568C538.869 36.472 538.653 36.424 538.365 36.424H537.699L537.879 34.534H538.923L538.815 35.722C539.283 35.722 539.661 35.842 539.949 36.082C540.237 36.322 540.381 36.67 540.381 37.126C540.381 37.462 540.291 37.738 540.111 37.954C539.931 38.182 539.691 38.344 539.391 38.44C539.091 38.548 538.761 38.602 538.401 38.602Z" fill="white"/>
<path d="M544.265 34.912L548.153 22.312H550.817L554.705 34.912H553.139L552.167 31.726H546.803L545.831 34.912H544.265ZM547.181 30.358H551.771L549.611 23.23H549.359L547.181 30.358ZM547.343 21.268L546.497 20.692L547.073 19.792C547.229 19.564 547.409 19.378 547.613 19.234C547.817 19.078 548.075 19 548.387 19C548.663 19 548.903 19.06 549.107 19.18C549.323 19.3 549.545 19.48 549.773 19.72C549.929 19.876 550.061 20.002 550.169 20.098C550.277 20.182 550.403 20.224 550.547 20.224C550.691 20.224 550.805 20.182 550.889 20.098C550.985 20.014 551.075 19.912 551.159 19.792L551.627 19.054L552.473 19.63L551.897 20.53C551.753 20.746 551.579 20.932 551.375 21.088C551.171 21.244 550.913 21.322 550.601 21.322C550.313 21.322 550.067 21.262 549.863 21.142C549.659 21.022 549.443 20.842 549.215 20.602C549.059 20.446 548.927 20.326 548.819 20.242C548.711 20.158 548.585 20.116 548.441 20.116C548.297 20.116 548.177 20.158 548.081 20.242C547.985 20.326 547.895 20.428 547.811 20.548L547.343 21.268Z" fill="white"/>
<path d="M560.989 35.164C559.489 35.164 558.289 34.732 557.389 33.868C556.501 32.992 556.057 31.72 556.057 30.052V27.172C556.057 25.504 556.501 24.238 557.389 23.374C558.289 22.498 559.489 22.06 560.989 22.06C562.501 22.06 563.701 22.498 564.589 23.374C565.489 24.238 565.939 25.504 565.939 27.172V30.052C565.939 31.72 565.489 32.992 564.589 33.868C563.701 34.732 562.501 35.164 560.989 35.164ZM560.989 33.814C562.081 33.814 562.927 33.49 563.527 32.842C564.127 32.182 564.427 31.27 564.427 30.106V27.118C564.427 25.954 564.127 25.048 563.527 24.4C562.927 23.74 562.081 23.41 560.989 23.41C559.909 23.41 559.069 23.74 558.469 24.4C557.869 25.048 557.569 25.954 557.569 27.118V30.106C557.569 31.27 557.869 32.182 558.469 32.842C559.069 33.49 559.909 33.814 560.989 33.814Z" fill="white"/>
<g clip-path="url(#clip0_140_213)">
<path d="M655.836 34.082C655.714 37.2454 656.169 40.0402 655.545 42.8397C655.472 43.1711 655.373 43.5187 655.002 43.6948C652.612 44.8304 650.358 46.244 647.917 47.1432C647.032 46.5685 647.367 45.8106 647.356 45.1571C647.327 43.3518 647.335 41.5442 647.344 39.7366C647.346 39.1642 647.262 38.5524 647.886 38.1746C650.3 36.71 652.723 35.2686 655.836 34.082Z" fill="white"/>
<path d="M628.012 37.9429C628.308 37.4215 628.702 37.0113 629.258 36.7379C631.139 35.8248 633.015 34.9025 634.881 33.9616C635.989 33.4031 636.557 33.6116 636.541 34.9303C636.518 36.914 636.565 38.9001 636.529 40.8838C636.513 41.7621 636.201 42.3901 635.323 42.9811C633.461 44.2325 631.381 45.032 629.451 46.1235C629.017 46.3692 628.416 46.7794 627.977 46.0285C627.988 43.3333 628 40.6381 628.012 37.9429Z" fill="white"/>
<path d="M627.977 48.8094C628.162 47.4282 629.479 47.3541 630.39 46.879C632.235 45.9173 634.149 45.083 636.126 44.1537C636.87 45.6067 636.539 46.9648 636.534 48.2556C636.518 54.0446 637.109 52.6471 632.409 55.0805C631.468 55.5671 630.529 56.0584 629.578 56.5242C629.066 56.7768 628.533 57.1893 627.993 56.5544C627.988 53.9727 627.984 51.3911 627.979 48.8071L627.977 48.8094Z" fill="white"/>
<path d="M637.697 30.6985C637.697 28.2003 637.719 25.7554 637.686 23.3128C637.674 22.4646 638.169 22.0336 638.82 21.7022C640.707 20.7428 642.592 19.7741 644.511 18.8795C645.91 18.226 646.464 18.6107 646.565 20.0985C646.701 22.1355 646.389 24.1448 646.189 26.1586C646.116 26.8933 645.598 27.3683 644.959 27.7623C643.137 28.8863 640.926 29.3034 639.317 30.8306C638.996 31.1342 638.402 30.9372 637.697 30.6985Z" fill="white"/>
<path d="M626.726 46.6356C623.789 45.4328 621.115 44.3182 618.826 42.4735C618.579 42.2765 618.382 41.8709 618.377 41.5581C618.342 38.9625 618.356 36.367 618.356 33.7297C619.805 33.5652 620.657 34.4087 621.643 34.8444C622.883 35.3913 624.05 36.1005 625.291 36.6451C626.134 37.0159 626.707 37.6393 626.785 38.4365C627.033 41.0691 626.918 43.7087 626.728 46.6356L626.726 46.6356Z" fill="white"/>
<path d="M637.673 41.3889C637.673 38.6056 637.706 36.163 637.659 33.7228C637.633 32.3555 638.764 31.8989 639.631 31.549C641.112 30.9511 642.514 30.2906 643.854 29.4239C644.38 29.0832 645.11 28.6638 645.829 29.0763C646.564 29.4957 646.195 30.2327 646.207 30.8306C646.24 32.52 646.214 34.2117 646.218 35.9012C646.218 36.4852 646.319 37.1294 645.751 37.5048C643.335 39.1062 640.828 40.5314 637.673 41.3866L637.673 41.3889Z" fill="white"/>
<path d="M636.517 23.5468C636.517 25.9153 636.538 28.4042 636.494 30.8908C636.487 31.257 636.271 31.8016 635.982 31.9546C633.491 33.2778 630.96 34.5292 628.061 35.9962C628.061 32.7865 628.061 30.0821 628.063 27.3753C628.063 27.0601 628.248 26.8863 628.544 26.738C630.744 25.6326 632.925 24.49 635.132 23.3962C635.489 23.2178 635.937 23.1876 636.515 23.5468L636.517 23.5468Z" fill="white"/>
<path d="M626.664 57.0017C624.769 56.6147 623.391 55.3795 621.745 54.858C618.886 53.9519 617.902 52.1652 618.287 49.3124C618.501 47.7319 618.324 46.1027 618.324 44.2047C620.682 44.8976 622.341 46.1908 624.248 46.8675C626.405 47.6345 627.096 49.0343 626.91 51.1339C626.743 53.0249 627.114 54.9461 626.664 57.0017Z" fill="white"/>
<path d="M643.73 49.4814C642.469 50.172 640.992 50.4293 639.875 51.4211C639.215 52.0075 638.393 52.0584 637.637 51.8823C637.637 49.4444 637.722 47.0412 637.595 44.6519C637.546 43.711 637.736 43.1965 638.581 42.777C640.563 41.7945 642.507 40.74 644.467 39.7157C645.483 39.5743 645.958 39.8965 645.922 41.0135C645.845 43.3726 645.883 45.7364 645.876 48.0979L645.859 48.1211C645.645 48.1651 645.556 48.2972 645.58 48.5058L645.57 48.5243C645.441 48.6263 645.31 48.7283 645.181 48.8302C645.037 48.8905 644.897 48.9507 644.753 49.011L644.681 49.0643C644.291 49.0411 643.962 49.157 643.732 49.4838L643.73 49.4814Z" fill="white"/>
<path d="M618.371 23.0093C621.366 24.2143 623.944 25.431 626.325 27.0347C626.55 27.1853 626.797 27.5005 626.801 27.7415C626.848 30.1911 626.89 32.6429 626.832 35.0901C626.815 35.8294 626.16 35.8178 625.62 35.5536C623.496 34.5085 621.378 33.4494 619.27 32.3718C618.777 32.1192 618.392 31.6812 618.385 31.1296C618.352 28.5294 618.371 25.9316 618.371 23.007L618.371 23.0093Z" fill="white"/>
<path d="M655.815 23.5654C655.815 26.6754 655.857 29.2223 655.789 31.7646C655.771 32.5015 655.132 32.9789 654.472 33.3103C652.571 34.2651 650.66 35.2013 648.76 36.1631C647.774 36.6637 647.328 36.4134 647.335 35.3056C647.352 33.2616 647.33 31.2176 647.328 29.176C647.328 28.5062 647.45 27.8411 648.096 27.5051C650.486 26.256 652.899 25.0486 655.813 23.5654L655.815 23.5654Z" fill="white"/>
<path d="M607.486 46.726C607.019 47.4977 606.465 47.0504 605.96 46.8048C604.101 45.8963 602.267 44.9392 600.396 44.054C599.744 43.7457 599.23 43.2568 599.211 42.638C599.136 39.9289 599.178 37.2175 599.178 34.6219C599.842 34.2674 600.185 34.5455 600.544 34.7309C602.394 35.6787 604.139 36.8305 606.127 37.5141C606.714 37.7157 607.134 38.1143 607.421 38.6497C607.442 41.3426 607.463 44.0331 607.484 46.726L607.486 46.726Z" fill="white"/>
<path d="M608.747 38.8676C611.619 40.3113 614.034 41.4886 616.401 42.7539C616.739 42.9347 617.014 43.5372 617.023 43.952C617.079 46.6032 617.051 49.2567 617.051 52.4061C614.225 50.9693 611.731 49.7202 609.266 48.4178C609.008 48.281 608.775 47.8361 608.771 47.5302C608.733 44.8234 608.75 42.1143 608.75 38.8652L608.747 38.8676Z" fill="white"/>
<path d="M607.465 25.6882C606.838 26.4947 606.284 25.7856 605.759 25.5654C603.965 24.8146 602.352 23.686 600.434 23.1715C599.84 23.0116 599.201 22.6199 599.194 21.8598C599.173 19.1438 599.185 16.4277 599.185 13.2482C602.181 14.9445 605.315 15.5726 607.484 17.9735C607.301 20.5458 607.313 23.1182 607.463 25.6906L607.465 25.6882Z" fill="white"/>
<path d="M616.964 31.1714C614.21 29.8203 611.733 28.643 609.304 27.3823C608.792 27.1158 608.571 26.4831 608.571 25.8621C608.569 23.7671 608.571 21.6721 608.566 19.5771C608.566 18.3929 609.064 18.1357 610.125 18.6872C612.062 19.6907 614.023 20.6501 615.971 21.6281C616.455 21.8714 616.974 22.1565 617.016 22.7289C617.22 25.4264 617.241 28.1216 616.964 31.1737L616.964 31.1714Z" fill="white"/>
<path d="M617.12 41.4051C614.917 40.9069 613.434 39.623 611.682 39.0529C609.083 38.207 608.313 36.6011 608.623 34.0658C608.825 32.4134 608.661 30.717 608.661 29.2177C609.276 28.7449 609.673 28.8724 610.048 29.0578C612.009 30.0264 613.96 31.009 615.918 31.9801C616.598 32.3184 617.103 32.8004 617.11 33.5837C617.131 36.0796 617.117 38.5778 617.117 41.4051L617.12 41.4051Z" fill="white"/>
<path d="M599.101 23.7645C602.026 24.965 604.43 26.1909 606.781 27.5234C607.058 27.681 607.379 28.0564 607.384 28.3369C607.429 30.9857 607.412 33.6345 607.412 36.5198C605.323 36.0377 603.912 34.7539 602.198 34.2162C599.719 33.4399 598.74 31.9382 599.061 29.3728C599.275 27.6578 599.101 25.8966 599.101 23.7668L599.101 23.7645Z" fill="white"/>
<path d="M655.639 13.7695C655.639 16.4276 655.632 19.0186 655.644 21.6071C655.647 22.1935 655.102 22.4159 654.794 22.6106C652.569 24.015 650.197 25.1528 647.725 26.2444C646.873 24.9002 647.284 23.6048 647.289 22.3881C647.305 16.379 646.446 17.9572 652.026 15.0789C653.092 14.5297 654.116 13.7834 655.639 13.7695Z" fill="white"/>
<path d="M635.27 22.0244C632.718 23.3778 630.297 24.6176 627.903 25.9038C627.064 26.3557 626.987 26.1031 626.708 25.9501C624.329 24.6524 622.16 23.5006 619.662 22.0823C620.775 21.197 621.28 20.8355 622.101 20.4346C623.465 19.7695 624.656 19.1855 626.081 18.5134C626.778 18.1844 627.424 17.9897 628.095 18.3002C630.48 19.408 632.673 20.6548 635.272 22.0221L635.27 22.0244Z" fill="white"/>
<path d="M628.809 17.16C631.208 15.5007 633.844 14.3814 636.587 13.5308C637.54 13.2342 638.399 13.9457 639.242 14.3512C640.763 15.0859 642.331 15.6907 643.757 16.671C644.724 17.3361 644.63 17.5702 643.787 17.9943C641.848 18.9722 639.895 19.9201 637.929 20.847C637.317 21.1367 636.65 21.1043 636.03 20.8215C633.607 19.7184 631.008 18.949 628.809 17.16Z" fill="white"/>
<path d="M619.855 12.2702C622.118 11.0975 624.278 10.1404 626.405 9.1671C628.175 8.35831 629.748 9.94576 631.335 10.634C632.438 11.1138 633.427 11.853 634.542 12.5228C635.291 13.072 634.692 13.0141 631.967 14.5019C631.781 14.6038 631.49 14.5946 631.304 14.6988C625.987 17.7162 625.327 16.1218 621.08 13.8229C620.378 13.4428 618.796 12.6989 619.855 12.2702Z" fill="white"/>
<path d="M609.627 17.1693C612.56 15.7973 614.818 14.1357 617.56 13.5471C618.826 13.276 619.762 14.5065 620.927 14.8796C622.486 15.3802 623.906 16.1496 625.59 17.1948C622.941 18.6617 620.608 20.08 617.938 20.8285C616.659 21.1877 615.722 20.2028 614.677 19.7579C613.088 19.0835 611.592 18.1913 609.625 17.1669L609.627 17.1693Z" fill="white"/>
<path d="M610 7.98526C612.582 6.58552 614.923 5.42216 617.391 4.51372C617.649 4.4187 618.015 4.39553 618.257 4.50213C620.595 5.54962 622.917 6.62955 625.192 7.67704C624.906 8.96091 623.906 8.96091 623.236 9.32475C622.119 9.93424 620.83 10.2679 619.769 10.9493C618.414 11.8183 617.029 11.7859 615.747 11.1926C613.869 10.3236 612.118 9.1857 610 7.98526Z" fill="white"/>
<path d="M600.125 12.5043C602.886 11.2251 605.217 10.1243 607.572 9.06984C608.056 8.85432 608.638 8.85895 609.136 9.09997C611.145 10.071 613.141 11.0721 615.148 12.0478C615.766 12.349 615.695 12.7106 615.244 13.0559C614.88 13.3339 614.46 13.5518 614.047 13.7557C612.404 14.5715 610.892 15.174 609.011 15.9921C608.382 16.2655 607.729 16.2238 607.121 15.9782C604.863 15.0581 602.649 14.0408 600.125 12.5043Z" fill="white"/>
<path d="M638.742 12.3305C641.057 11.1949 643.311 9.85776 645.804 8.97945C646.112 8.87053 646.555 8.88675 646.851 9.02348C649.171 10.1104 651.469 11.2413 653.894 12.4185C653.091 13.5541 651.882 13.7951 650.894 14.3235C649.92 14.8449 648.877 15.2319 647.891 15.751C646.384 16.5436 644.95 16.3652 643.635 15.079C642.677 14.1427 641.057 14.393 640.012 13.4637C639.639 13.1323 638.965 13.1671 638.745 12.3305L638.742 12.3305Z" fill="white"/>
<path d="M644.718 7.99916C641.908 9.36413 639.602 10.5043 637.271 11.5935C636.987 11.7256 636.52 11.7024 636.226 11.5657C633.878 10.4765 631.552 9.34328 628.85 8.04782C631.495 6.56234 633.86 5.42679 636.322 4.49054C636.576 4.39321 636.947 4.39321 637.191 4.50444C639.539 5.57279 641.872 6.67126 644.713 7.99916L644.718 7.99916Z" fill="white"/>
<path d="M619.59 3.65849C621.825 1.83929 624.17 1.21822 626.309 0.200854C626.856 -0.0587 627.518 -0.0656523 628.051 0.173045C630.305 1.17882 632.528 2.24948 635.256 3.5264C632.411 4.83112 629.993 5.95045 627.56 7.04197C627.373 7.12771 627.067 7.09527 626.87 7.00489C624.525 5.94118 622.189 4.85661 619.592 3.65849L619.59 3.65849Z" fill="white"/>
<path d="M680.744 23.8273C680.744 28.9604 680.768 34.0936 680.735 39.2244C680.716 42.0911 678.974 43.4491 676.565 42.5546C674.889 41.9312 674.816 40.4665 674.807 39.0668C674.769 33.4053 674.788 27.7437 674.788 22.0799C674.788 20.3882 674.76 18.6941 674.795 17.0024C674.847 14.6339 675.734 13.7556 678.148 13.6258C678.681 13.598 679.216 13.6166 679.751 13.6189C682.559 13.6374 683.299 14.1774 684.12 16.7729C685.759 21.9455 687.4 27.1134 689.043 32.2836C689.21 32.8097 689.4 33.3288 689.738 34.3184C690.774 31.0786 691.678 28.2837 692.558 25.4819C693.504 22.4762 694.399 19.4519 695.366 16.4531C696.263 13.6745 701.54 12.4347 703.665 14.4787C704.254 15.0464 704.419 15.7625 704.419 16.5551C704.412 24.2606 704.43 31.9661 704.412 39.6693C704.407 41.6624 703.383 42.7446 701.597 42.8025C699.761 42.8605 698.622 41.7388 698.601 39.6578C698.556 34.9302 698.592 30.2026 698.568 25.475C698.566 24.935 698.775 24.3417 698.183 23.5839C697.796 24.7195 697.462 25.665 697.15 26.6175C695.659 31.1666 694.126 35.7019 692.715 40.2742C692.213 41.9057 691.271 42.7933 689.565 42.784C687.907 42.7747 687.05 41.8176 686.569 40.2997C684.968 35.2361 683.296 30.1933 681.643 25.1459C681.488 24.6708 681.289 24.2096 681.108 23.7438C680.984 23.7716 680.862 23.7994 680.737 23.8273L680.744 23.8273Z" fill="white"/>
<path d="M798.228 25.2571C803.153 20.8957 808.525 20.0359 813.589 22.643C814.23 22.9721 814.819 23.3522 815.274 23.9037C816.23 25.0624 816.279 26.3139 815.289 27.4031C814.256 28.5386 812.908 28.4992 811.798 27.5491C810.201 26.1818 808.539 25.227 806.332 25.6488C805.374 25.8318 804.353 26.008 804.24 27.1736C804.12 28.3949 805.109 28.6707 806.071 28.9094C808.255 29.454 810.464 29.9198 812.6 30.6104C815.084 31.4146 816.815 33.0113 816.993 35.7575C817.15 38.1977 815.603 40.6149 813.044 41.6878C808.781 43.4723 804.585 43.0459 800.552 40.9277C799.549 40.4016 798.758 39.5998 798.415 38.4573C798.061 37.2708 798.258 36.1978 799.312 35.5049C800.291 34.8606 801.362 34.9904 802.282 35.7436C803.01 36.3392 803.672 37.0159 804.416 37.5906C805.94 38.7678 807.661 38.9324 809.469 38.3646C810.307 38.1004 810.978 37.6022 811.02 36.6543C811.065 35.6439 810.325 35.2268 809.483 34.9974C807.881 34.5594 806.273 34.1515 804.66 33.7529C799.606 32.4991 798.676 31.4748 798.11 26.3834C796.88 26.7797 795.622 26.921 794.349 27.03C792.595 27.1806 791.591 28.3903 791.309 30.5826C790.915 33.6625 791.194 36.7609 791.112 39.8501C791.055 41.9567 789.846 43.0134 787.818 42.7886C786.236 42.6148 785.296 41.7921 785.292 40.1769C785.273 34.6914 785.271 29.206 785.296 23.7206C785.303 22.1888 786.205 21.3568 787.731 21.2526C789.257 21.1506 790.21 21.8875 790.537 23.3614C790.623 23.7554 790.63 24.1656 790.722 25.037C792.243 22.2514 793.99 20.3256 797.169 21.6326C798.448 22.1587 798.739 23.2826 798.228 25.2525L798.228 25.2571Z" fill="white"/>
<path d="M721.424 39.8269C718.693 42.2602 715.59 43.2405 712.044 42.5337C709.068 41.9404 707.22 39.8825 707.07 37.1641C706.901 34.0703 708.377 31.9962 711.483 30.9997C713.761 30.2697 716.151 30.1979 718.498 29.8688C719.743 29.695 721.149 29.5907 721.168 27.9198C721.187 26.1447 719.792 25.8272 718.369 25.6232C716.252 25.3196 714.564 26.1006 713.075 27.5235C711.681 28.8538 710.021 29.0206 709.002 28.0125C707.978 26.9975 708.154 25.3011 709.542 23.9732C712.512 21.1274 716.254 21.0671 720.043 21.3383C721.158 21.4171 722.269 21.6488 723.328 22.0706C725.847 23.0763 727.204 24.8376 727.194 27.5606C727.183 30.5362 727.201 33.5118 727.192 36.4874C727.19 37.4816 727.222 38.4596 727.507 39.4306C727.929 40.8859 727.73 42.0887 726.016 42.6217C724.419 43.1177 722.757 42.5568 722.032 41.2011C721.816 40.7956 721.656 40.3599 721.424 39.8292L721.424 39.8269ZM721.01 32.9301C719.135 33.6833 717.092 33.5999 715.169 34.1561C713.859 34.5361 712.878 35.2522 713 36.7238C713.124 38.2302 714.289 38.696 715.613 38.8512C718.332 39.171 722.086 37.375 721.008 32.9301L721.01 32.9301Z" fill="white"/>
<path d="M767.638 33.06C767.725 37.3983 772.122 39.63 775.909 37.4632C776.569 37.0854 777.137 36.5524 777.75 36.0936C778.926 35.2129 780.152 34.9766 781.264 36.1051C782.419 37.2731 782.168 38.5732 781.224 39.725C779.973 41.2522 778.168 41.8524 776.304 42.3113C770.981 43.6276 765.889 42.1166 763.361 38.4597C760.295 34.0241 761.177 27.1552 765.269 23.6071C769.087 20.2978 776.301 20.4206 780.217 23.9432C782.182 25.7114 783.199 27.9709 783.173 30.629C783.154 32.4969 782.647 33.0415 780.748 33.0554C776.891 33.0855 773.033 33.06 769.176 33.06C768.709 33.06 768.242 33.06 767.641 33.06L767.638 33.06ZM777.386 29.6371C777.069 27.0231 775.35 25.4008 772.888 25.3313C770.131 25.2525 768.307 26.738 767.718 29.6371L777.386 29.6371Z" fill="white"/>
<path d="M737.947 21.2433C740.407 21.2155 742.499 21.577 744.429 22.5782C745.049 22.898 745.645 23.3198 746.136 23.8087C747.197 24.8655 747.27 26.4645 746.286 27.4286C745.192 28.5016 743.92 28.5039 742.779 27.5398C741.236 26.2374 739.64 25.2572 737.482 25.621C736.447 25.7948 735.339 25.964 735.219 27.1876C735.09 28.4969 736.233 28.6939 737.231 28.9419C739.356 29.4749 741.518 29.9106 743.584 30.6151C745.936 31.4193 747.8 32.8236 747.925 35.5768C748.052 38.3392 746.554 40.7145 743.88 41.7713C739.783 43.3912 735.733 43.0575 731.85 41.0853C730.394 40.3461 729.204 39.2545 729.307 37.3983C729.418 35.4076 731.322 34.4412 733.01 35.5652C733.691 36.0194 734.247 36.6497 734.864 37.1943C736.571 38.6984 738.515 39.0437 740.661 38.2998C741.459 38.024 741.952 37.4446 741.987 36.608C742.027 35.6903 741.398 35.2569 740.593 35.0414C738.529 34.4922 736.454 33.9916 734.397 33.4192C730.638 32.374 729.178 30.5919 729.296 27.2757C729.397 24.453 731.493 22.2908 734.881 21.5794C735.982 21.3476 737.09 21.0881 737.945 21.2433L737.947 21.2433Z" fill="white"/>
<path d="M750.944 25.7137C749.681 25.4008 747.892 25.8365 747.896 23.6558C747.899 21.5168 749.664 21.869 751.223 21.5237C751.223 20.3071 751.122 19.0927 751.247 17.8992C751.432 16.1032 752.374 15.4103 754.273 15.4566C755.97 15.4984 756.931 16.321 757.057 17.9966C757.144 19.146 757.074 20.3071 757.074 21.3661C758.647 22.2352 761.511 20.8262 761.384 23.7693C761.271 26.3741 758.75 25.1876 757.132 25.804C757.132 29.5097 757.107 33.2848 757.149 37.0599C757.161 38.0865 758.064 38.1885 758.846 38.1978C760.215 38.214 761.398 38.4202 761.443 40.1097C761.487 41.7296 760.422 42.2742 759.008 42.6032C757.445 42.9648 755.919 42.7956 754.426 42.4318C752.475 41.9567 751.362 40.6102 751.296 38.652C751.174 35.0368 751.195 31.4192 751.141 27.8017C751.132 27.1134 751.308 26.4043 750.949 25.7137L750.944 25.7137Z" fill="white"/>
<path d="M671.269 32.1793C671.269 34.7424 671.3 37.3032 671.257 39.8663C671.225 41.8941 670.264 42.8234 668.346 42.8141C666.416 42.8048 665.447 41.8755 665.435 39.8524C665.402 34.6126 665.402 29.3706 665.433 24.1308C665.444 22.0868 666.36 21.2363 668.363 21.234C670.37 21.234 671.232 22.059 671.262 24.1424C671.3 26.8214 671.272 29.5004 671.269 32.1793Z" fill="white"/>
<path d="M665.243 16.1333C665.398 14.4856 667.022 13.2435 668.762 13.4428C670.347 13.6235 671.558 15.0511 671.429 16.5852C671.279 18.3674 669.844 19.5469 668.032 19.3801C666.372 19.2271 665.09 17.737 665.243 16.1357L665.243 16.1333Z" fill="white"/>
</g>
<defs>
<clipPath id="clip0_140_213">
<rect width="218" height="57" fill="white" transform="translate(599)"/>
</clipPath>
</defs>
</svg>
