<svg width="282" height="189" viewBox="0 0 282 189" fill="none" xmlns="http://www.w3.org/2000/svg">
<path d="M47.9213 187.618C47.266 188.273 46.9072 187.29 45.9789 187.29C45.0506 187.29 45.0506 187.688 44.1145 187.688C43.1863 187.688 43.1863 187.625 42.2502 187.625C41.3219 187.625 41.3219 187.696 40.3936 187.696C39.4653 187.696 39.4653 187.563 38.5371 187.563C37.6088 187.563 37.6088 187.22 36.6805 187.22C35.7522 187.22 35.7522 187.813 34.8161 187.813C33.8878 187.813 33.8878 187.462 32.9595 187.462C32.0312 187.462 32.0312 187.243 31.1029 187.243C30.1747 187.243 30.1747 187.446 29.2464 187.446C28.3181 187.446 28.3181 187.282 27.382 187.282C26.4538 187.282 26.4537 187.813 25.5255 187.813C24.5972 187.813 24.5972 187.696 23.6611 187.696C22.7328 187.696 22.7328 187.672 21.7967 187.672C20.8684 187.672 20.8684 187.337 19.9323 187.337C19.004 187.337 19.0041 187.438 18.068 187.438C17.1397 187.438 17.1397 187.493 16.2036 187.493C15.2753 187.493 15.2753 187.407 14.3392 187.407C13.4109 187.407 13.4109 187.586 12.4826 187.586C11.5543 187.586 11.5543 187.352 10.6183 187.352C9.68997 187.352 9.69 187.563 8.75392 187.563C7.81783 187.563 7.81782 187.407 6.88953 187.407C5.95345 187.407 5.95344 187.586 5.02515 187.586C4.08906 187.586 4.08905 187.399 3.16077 187.399C2.22468 187.399 2.00629 188.132 1.34323 187.469C0.687973 186.814 1.58505 186.588 1.58505 185.66C1.58505 184.731 1.34323 184.731 1.34323 183.795C1.34323 182.867 1.25739 182.867 1.25739 181.931C1.25739 181.003 1.1326 181.003 1.1326 180.074C1.1326 179.146 1.43684 179.146 1.43684 178.218C1.43684 177.289 1.53044 177.289 1.53044 176.361C1.53044 175.433 1.2652 175.433 1.2652 174.497C1.2652 173.569 1.28081 173.568 1.28081 172.64C1.28081 171.712 1.07799 171.712 1.07799 170.784C1.07799 169.855 1.3588 169.855 1.3588 168.927C1.3588 167.999 1.2184 167.999 1.2184 167.063C1.2184 166.134 1.23401 166.134 1.23401 165.206C1.23401 164.278 1.55382 164.278 1.55382 163.342C1.55382 162.413 1.24182 162.413 1.24182 161.477C1.24182 160.549 1.30419 160.549 1.30419 159.613C1.30419 158.685 1.28862 158.685 1.28862 157.749C1.28862 156.82 1.0858 156.82 1.0858 155.884C1.0858 154.956 1.17159 154.956 1.17159 154.02C1.17159 153.092 1.29643 153.092 1.29643 152.163C1.29643 151.235 1.46022 151.235 1.46022 150.299C1.46022 149.371 1 149.371 1 148.435C1 147.499 1.58505 147.499 1.58505 146.57C1.58505 145.634 1.312 145.634 1.312 144.706C1.312 143.77 1.38223 143.77 1.38223 142.842C1.38223 141.905 0.797155 141.812 1.46022 141.157C2.11548 140.501 2.2091 141.125 3.13739 141.125C4.06567 141.125 4.06569 141.032 5.00177 141.032C5.93006 141.032 5.93002 140.93 6.86611 140.93C7.79439 140.93 7.7944 141.024 8.72268 141.024C9.65097 141.024 9.65097 141.071 10.5793 141.071C11.5075 141.071 11.5075 140.891 12.4358 140.891C13.3641 140.891 13.3641 141.235 14.3002 141.235C15.2285 141.235 15.2285 141.242 16.1568 141.242C17.0851 141.242 17.0851 141.258 18.0134 141.258C18.9417 141.258 18.9417 140.751 19.8699 140.751C20.7982 140.751 20.7982 141.227 21.7343 141.227C22.6626 141.227 22.6626 141.118 23.5909 141.118C24.5191 141.118 24.5191 140.805 25.4552 140.805C26.3835 140.805 26.3835 140.72 27.3196 140.72C28.2479 140.72 28.2479 141.133 29.184 141.133C30.1123 141.133 30.1122 140.79 31.0483 140.79C31.9766 140.79 31.9766 140.993 32.9127 140.993C33.841 140.993 33.841 141.008 34.7771 141.008C35.7054 141.008 35.7054 140.743 36.6337 140.743C37.562 140.743 37.562 141.008 38.4981 141.008C39.4263 141.008 39.4263 140.782 40.3624 140.782C41.2985 140.782 41.2985 141.196 42.2268 141.196C43.1629 141.196 43.1629 140.727 44.0912 140.727C45.0272 140.727 45.0273 140.93 45.9555 140.93C46.8838 140.93 47.3675 140.111 48.0305 140.774C48.6858 141.43 47.6717 141.913 47.6717 142.842C47.6717 143.77 47.8667 143.77 47.8667 144.706C47.8667 145.634 47.6483 145.634 47.6483 146.57C47.6483 147.499 48.1163 147.499 48.1163 148.427C48.1163 149.355 47.7653 149.355 47.7653 150.283C47.7653 151.212 47.7419 151.212 47.7419 152.14C47.7419 153.068 47.9057 153.068 47.9057 154.004C47.9057 154.933 48.0461 154.933 48.0461 155.861C48.0461 156.789 47.5469 156.789 47.5469 157.717C47.5469 158.646 48.0461 158.646 48.0461 159.574C48.0461 160.502 47.7107 160.502 47.7107 161.438C47.7107 162.367 48.0929 162.367 48.0929 163.295C48.0929 164.223 47.6639 164.223 47.6639 165.159C47.6639 166.088 47.7809 166.088 47.7809 167.024C47.7809 167.952 48.0071 167.952 48.0071 168.888C48.0071 169.816 48.0695 169.816 48.0695 170.752C48.0695 171.681 48.0149 171.681 48.0149 172.617C48.0149 173.545 47.8823 173.545 47.8823 174.481C47.8823 175.41 47.7497 175.41 47.7497 176.338C47.7497 177.266 47.8355 177.266 47.8355 178.202C47.8355 179.13 47.6951 179.13 47.6951 180.067C47.6951 181.003 47.7263 181.003 47.7263 181.931C47.7263 182.867 47.8277 182.867 47.8277 183.795C47.8277 184.731 47.6327 184.747 47.8511 185.66C48.0929 186.674 48.5766 186.955 47.9213 187.618Z" stroke="#40EC80" stroke-miterlimit="10" stroke-linecap="round" stroke-linejoin="round"/>
<path d="M140.789 187.407C140.134 188.062 139.986 187.656 139.057 187.656C138.129 187.656 138.129 187.758 137.193 187.758C136.265 187.758 136.265 187.485 135.329 187.485C134.4 187.485 134.4 187.337 133.472 187.337C132.544 187.337 132.544 187.298 131.616 187.298C130.687 187.298 130.687 187.516 129.759 187.516C128.831 187.516 128.831 187.368 127.895 187.368C126.966 187.368 126.966 187.508 126.038 187.508C125.11 187.508 125.11 187.407 124.182 187.407C123.253 187.407 123.253 187.649 122.325 187.649C121.397 187.649 121.397 187.493 120.461 187.493C119.532 187.493 119.532 187.828 118.604 187.828C117.676 187.828 117.676 187.415 116.74 187.415C115.811 187.415 115.811 187.828 114.875 187.828C113.947 187.828 113.947 187.337 113.011 187.337C112.083 187.337 112.083 187.438 111.147 187.438C110.218 187.438 110.218 187.415 109.282 187.415C108.354 187.415 108.354 187.555 107.418 187.555C106.49 187.555 106.489 187.43 105.561 187.43C104.633 187.43 104.633 187.376 103.697 187.376C102.769 187.376 102.769 187.735 101.832 187.735C100.896 187.735 100.896 187.579 99.9681 187.579C99.032 187.579 99.032 187.344 98.1037 187.344C97.1676 187.344 97.1676 187.594 96.2393 187.594C95.3033 187.594 95.1629 188.086 94.4998 187.43C93.8445 186.775 94.492 186.627 94.492 185.699C94.492 184.77 94.258 184.77 94.258 183.834C94.258 182.906 94.2034 182.906 94.2034 181.97C94.2034 181.042 94.0941 181.041 94.0941 180.113C94.0941 179.185 94.2736 179.185 94.2736 178.257C94.2736 177.328 94.5232 177.328 94.5232 176.4C94.5232 175.472 94.1176 175.472 94.1176 174.536C94.1176 173.607 94.3828 173.607 94.3828 172.679C94.3828 171.751 94.0708 171.751 94.0708 170.823C94.0708 169.894 94.4842 169.894 94.4842 168.966C94.4842 168.038 94.1176 168.038 94.1176 167.102C94.1176 166.173 94.1176 166.173 94.1176 165.245C94.1176 164.317 94.648 164.317 94.648 163.381C94.648 162.452 94.2034 162.452 94.2034 161.516C94.2034 160.588 94.1956 160.588 94.1956 159.652C94.1956 158.724 94.5388 158.724 94.5388 157.788C94.5388 156.859 94.687 156.859 94.687 155.923C94.687 154.995 94.2658 154.995 94.2658 154.059C94.2658 153.131 94.6792 153.131 94.6792 152.202C94.6792 151.274 94.6636 151.274 94.6636 150.338C94.6636 149.41 94.2502 149.41 94.2502 148.473C94.2502 147.537 94.6714 147.537 94.6714 146.609C94.6714 145.673 94.1098 145.673 94.1098 144.745C94.1098 143.809 94.3048 143.809 94.3048 142.88C94.3048 141.944 93.5559 141.507 94.2112 140.844C94.8664 140.189 95.3111 141.297 96.2393 141.297C97.1676 141.297 97.1676 141.11 98.1037 141.11C99.032 141.11 99.032 141.188 99.9681 141.188C100.896 141.188 100.896 141.297 101.825 141.297C102.753 141.297 102.753 140.782 103.681 140.782C104.61 140.782 104.61 141.188 105.538 141.188C106.466 141.188 106.466 140.844 107.402 140.844C108.33 140.844 108.33 140.759 109.259 140.759C110.187 140.759 110.187 141.18 111.115 141.18C112.044 141.18 112.044 140.821 112.972 140.821C113.9 140.821 113.9 141.016 114.836 141.016C115.765 141.016 115.765 141.211 116.693 141.211C117.621 141.211 117.621 140.891 118.557 140.891C119.485 140.891 119.485 140.922 120.422 140.922C121.35 140.922 121.35 140.985 122.286 140.985C123.214 140.985 123.214 141.25 124.15 141.25C125.079 141.25 125.079 141.25 126.015 141.25C126.943 141.25 126.943 141.234 127.879 141.234C128.807 141.234 128.807 140.907 129.736 140.907C130.664 140.907 130.664 141.071 131.6 141.071C132.528 141.071 132.528 141.188 133.464 141.188C134.4 141.188 134.4 141.133 135.329 141.133C136.265 141.133 136.265 140.954 137.193 140.954C138.129 140.954 138.129 141.258 139.057 141.258C139.994 141.258 140.282 140.345 140.937 141.008C141.593 141.663 141.164 141.952 141.164 142.88C141.164 143.809 140.75 143.809 140.75 144.745C140.75 145.673 141 145.673 141 146.609C141 147.537 141.086 147.537 141.086 148.466C141.086 149.394 141.054 149.394 141.054 150.322C141.054 151.251 140.828 151.251 140.828 152.179C140.828 153.107 140.742 153.107 140.742 154.043C140.742 154.972 141.203 154.972 141.203 155.9C141.203 156.828 141.047 156.828 141.047 157.756C141.047 158.685 140.649 158.685 140.649 159.613C140.649 160.541 140.664 160.541 140.664 161.477C140.664 162.406 140.75 162.406 140.75 163.334C140.75 164.262 141.226 164.262 141.226 165.198C141.226 166.127 140.906 166.127 140.906 167.063C140.906 167.991 141.062 167.991 141.062 168.927C141.062 169.855 141.093 169.855 141.093 170.791C141.093 171.72 141.078 171.72 141.078 172.656C141.078 173.584 141.125 173.584 141.125 174.52C141.125 175.448 140.711 175.448 140.711 176.377C140.711 177.305 141.031 177.305 141.031 178.241C141.031 179.169 140.836 179.169 140.836 180.105C140.836 181.041 141.187 181.042 141.187 181.97C141.187 182.906 140.742 182.906 140.742 183.834C140.742 184.77 140.586 184.809 140.75 185.73C140.922 186.611 141.452 186.744 140.789 187.407Z" fill="#40EC80"/>
<path d="M140.789 187.407C140.134 188.062 139.986 187.656 139.057 187.656C138.129 187.656 138.129 187.758 137.193 187.758C136.265 187.758 136.265 187.485 135.329 187.485C134.4 187.485 134.4 187.337 133.472 187.337C132.544 187.337 132.544 187.298 131.616 187.298C130.687 187.298 130.687 187.516 129.759 187.516C128.831 187.516 128.831 187.368 127.895 187.368C126.966 187.368 126.966 187.508 126.038 187.508C125.11 187.508 125.11 187.407 124.182 187.407C123.253 187.407 123.253 187.649 122.325 187.649C121.397 187.649 121.397 187.493 120.461 187.493C119.532 187.493 119.532 187.828 118.604 187.828C117.676 187.828 117.676 187.415 116.74 187.415C115.811 187.415 115.811 187.828 114.875 187.828C113.947 187.828 113.947 187.337 113.011 187.337C112.083 187.337 112.083 187.438 111.147 187.438C110.218 187.438 110.218 187.415 109.282 187.415C108.354 187.415 108.354 187.555 107.418 187.555C106.49 187.555 106.489 187.43 105.561 187.43C104.633 187.43 104.633 187.376 103.697 187.376C102.769 187.376 102.769 187.735 101.832 187.735C100.896 187.735 100.896 187.579 99.9681 187.579C99.032 187.579 99.032 187.344 98.1037 187.344C97.1676 187.344 97.1676 187.594 96.2393 187.594C95.3033 187.594 95.1629 188.086 94.4998 187.43C93.8445 186.775 94.492 186.627 94.492 185.699C94.492 184.77 94.258 184.77 94.258 183.834C94.258 182.906 94.2034 182.906 94.2034 181.97C94.2034 181.042 94.0941 181.041 94.0941 180.113C94.0941 179.185 94.2736 179.185 94.2736 178.257C94.2736 177.328 94.5232 177.328 94.5232 176.4C94.5232 175.472 94.1176 175.472 94.1176 174.536C94.1176 173.607 94.3828 173.607 94.3828 172.679C94.3828 171.751 94.0708 171.751 94.0708 170.823C94.0708 169.894 94.4842 169.894 94.4842 168.966C94.4842 168.038 94.1176 168.038 94.1176 167.102C94.1176 166.173 94.1176 166.173 94.1176 165.245C94.1176 164.317 94.648 164.317 94.648 163.381C94.648 162.452 94.2034 162.452 94.2034 161.516C94.2034 160.588 94.1956 160.588 94.1956 159.652C94.1956 158.724 94.5388 158.724 94.5388 157.788C94.5388 156.859 94.687 156.859 94.687 155.923C94.687 154.995 94.2658 154.995 94.2658 154.059C94.2658 153.131 94.6792 153.131 94.6792 152.202C94.6792 151.274 94.6636 151.274 94.6636 150.338C94.6636 149.41 94.2502 149.41 94.2502 148.473C94.2502 147.537 94.6714 147.537 94.6714 146.609C94.6714 145.673 94.1098 145.673 94.1098 144.745C94.1098 143.809 94.3048 143.809 94.3048 142.88C94.3048 141.944 93.5559 141.507 94.2112 140.844C94.8664 140.189 95.3111 141.297 96.2393 141.297C97.1676 141.297 97.1676 141.11 98.1037 141.11C99.032 141.11 99.032 141.188 99.9681 141.188C100.896 141.188 100.896 141.297 101.825 141.297C102.753 141.297 102.753 140.782 103.681 140.782C104.61 140.782 104.61 141.188 105.538 141.188C106.466 141.188 106.466 140.844 107.402 140.844C108.33 140.844 108.33 140.759 109.259 140.759C110.187 140.759 110.187 141.18 111.115 141.18C112.044 141.18 112.044 140.821 112.972 140.821C113.9 140.821 113.9 141.016 114.836 141.016C115.765 141.016 115.765 141.211 116.693 141.211C117.621 141.211 117.621 140.891 118.557 140.891C119.485 140.891 119.485 140.922 120.422 140.922C121.35 140.922 121.35 140.985 122.286 140.985C123.214 140.985 123.214 141.25 124.15 141.25C125.079 141.25 125.079 141.25 126.015 141.25C126.943 141.25 126.943 141.234 127.879 141.234C128.807 141.234 128.807 140.907 129.736 140.907C130.664 140.907 130.664 141.071 131.6 141.071C132.528 141.071 132.528 141.188 133.464 141.188C134.4 141.188 134.4 141.133 135.329 141.133C136.265 141.133 136.265 140.954 137.193 140.954C138.129 140.954 138.129 141.258 139.057 141.258C139.994 141.258 140.282 140.345 140.937 141.008C141.593 141.663 141.164 141.952 141.164 142.88C141.164 143.809 140.75 143.809 140.75 144.745C140.75 145.673 141 145.673 141 146.609C141 147.537 141.086 147.537 141.086 148.466C141.086 149.394 141.054 149.394 141.054 150.322C141.054 151.251 140.828 151.251 140.828 152.179C140.828 153.107 140.742 153.107 140.742 154.043C140.742 154.972 141.203 154.972 141.203 155.9C141.203 156.828 141.047 156.828 141.047 157.756C141.047 158.685 140.649 158.685 140.649 159.613C140.649 160.541 140.664 160.541 140.664 161.477C140.664 162.406 140.75 162.406 140.75 163.334C140.75 164.262 141.226 164.262 141.226 165.198C141.226 166.127 140.906 166.127 140.906 167.063C140.906 167.991 141.062 167.991 141.062 168.927C141.062 169.855 141.093 169.855 141.093 170.791C141.093 171.72 141.078 171.72 141.078 172.656C141.078 173.584 141.125 173.584 141.125 174.52C141.125 175.448 140.711 175.448 140.711 176.377C140.711 177.305 141.031 177.305 141.031 178.241C141.031 179.169 140.836 179.169 140.836 180.105C140.836 181.041 141.187 181.042 141.187 181.97C141.187 182.906 140.742 182.906 140.742 183.834C140.742 184.77 140.586 184.809 140.75 185.73C140.922 186.611 141.452 186.744 140.789 187.407Z" stroke="#40EC80" stroke-miterlimit="10" stroke-linecap="round" stroke-linejoin="round"/>
<path d="M187.281 187.352C186.626 188.008 186.532 187.493 185.604 187.493C184.676 187.493 184.676 187.532 183.74 187.532C182.811 187.532 182.811 187.345 181.875 187.345C180.947 187.345 180.947 187.633 180.019 187.633C179.09 187.633 179.09 187.29 178.162 187.29C177.234 187.29 177.234 187.274 176.305 187.274C175.377 187.274 175.377 187.243 174.441 187.243C173.513 187.243 173.513 187.742 172.585 187.742C171.656 187.742 171.656 187.664 170.728 187.664C169.8 187.664 169.8 187.735 168.871 187.735C167.943 187.735 167.943 187.836 167.007 187.836C166.079 187.836 166.079 187.384 165.15 187.384C164.222 187.384 164.222 187.251 163.286 187.251C162.358 187.251 162.358 187.321 161.422 187.321C160.493 187.321 160.493 187.282 159.557 187.282C158.629 187.282 158.629 187.571 157.693 187.571C156.765 187.571 156.765 187.251 155.829 187.251C154.9 187.251 154.9 187.703 153.964 187.703C153.036 187.703 153.036 187.54 152.108 187.54C151.179 187.54 151.179 187.649 150.243 187.649C149.315 187.649 149.315 187.477 148.379 187.477C147.443 187.477 147.443 187.423 146.515 187.423C145.578 187.423 145.578 187.555 144.65 187.555C143.714 187.555 143.714 187.368 142.786 187.368C141.85 187.368 141.741 188.039 141.077 187.384C140.422 186.728 141.179 186.611 141.179 185.683C141.179 184.755 140.625 184.755 140.625 183.819C140.625 182.89 140.914 182.89 140.914 181.954C140.914 181.026 141.116 181.026 141.116 180.098C141.116 179.169 140.898 179.169 140.898 178.241C140.898 177.313 141.132 177.313 141.132 176.385C141.132 175.456 140.742 175.456 140.742 174.52C140.742 173.592 140.781 173.592 140.781 172.664C140.781 171.735 141.085 171.735 141.085 170.807C141.085 169.879 141.077 169.879 141.077 168.95C141.077 168.022 141.046 168.022 141.046 167.086C141.046 166.158 140.945 166.158 140.945 165.229C140.945 164.301 141.085 164.301 141.085 163.365C141.085 162.437 140.82 162.437 140.82 161.501C140.82 160.572 140.914 160.572 140.914 159.636C140.914 158.708 140.999 158.708 140.999 157.772C140.999 156.844 140.992 156.844 140.992 155.908C140.992 154.979 141.171 154.979 141.171 154.043C141.171 153.115 141.116 153.115 141.116 152.187C141.116 151.258 141.124 151.258 141.124 150.322C141.124 149.394 140.773 149.394 140.773 148.458C140.773 147.522 141.218 147.522 141.218 146.594C141.218 145.657 140.773 145.657 140.773 144.729C140.773 143.793 141.14 143.793 141.14 142.865C141.14 141.929 140.313 141.702 140.976 141.047C141.631 140.392 141.858 141.297 142.786 141.297C143.714 141.297 143.714 140.946 144.65 140.946C145.578 140.946 145.578 140.993 146.515 140.993C147.443 140.993 147.443 140.727 148.371 140.727C149.299 140.727 149.299 140.798 150.228 140.798C151.156 140.798 151.156 140.915 152.084 140.915C153.013 140.915 153.013 140.805 153.949 140.805C154.877 140.805 154.877 140.688 155.805 140.688C156.733 140.688 156.733 140.86 157.662 140.86C158.59 140.86 158.59 140.688 159.518 140.688C160.447 140.688 160.447 140.79 161.383 140.79C162.311 140.79 162.311 140.751 163.239 140.751C164.168 140.751 164.168 140.805 165.104 140.805C166.032 140.805 166.032 140.735 166.968 140.735C167.896 140.735 167.896 141.047 168.832 141.047C169.761 141.047 169.761 141.281 170.697 141.281C171.625 141.281 171.625 141.25 172.561 141.25C173.489 141.25 173.489 140.743 174.426 140.743C175.354 140.743 175.354 141.094 176.282 141.094C177.21 141.094 177.21 140.782 178.146 140.782C179.075 140.782 179.075 141.008 180.011 141.008C180.947 141.008 180.947 141.25 181.875 141.25C182.811 141.25 182.811 141.273 183.74 141.273C184.676 141.273 184.676 141.297 185.604 141.297C186.54 141.297 186.641 140.509 187.304 141.172C187.96 141.827 187.765 141.929 187.765 142.857C187.765 143.785 187.375 143.785 187.375 144.721C187.375 145.65 187.195 145.65 187.195 146.586C187.195 147.514 187.78 147.514 187.78 148.442C187.78 149.371 187.414 149.371 187.414 150.299C187.414 151.227 187.546 151.227 187.546 152.155C187.546 153.084 187.453 153.084 187.453 154.02C187.453 154.948 187.164 154.948 187.164 155.876C187.164 156.805 187.187 156.805 187.187 157.733C187.187 158.661 187.773 158.661 187.773 159.59C187.773 160.518 187.741 160.518 187.741 161.454C187.741 162.382 187.663 162.382 187.663 163.311C187.663 164.239 187.242 164.239 187.242 165.175C187.242 166.103 187.546 166.103 187.546 167.039C187.546 167.968 187.578 167.968 187.578 168.904C187.578 169.832 187.32 169.832 187.32 170.768C187.32 171.696 187.562 171.696 187.562 172.632C187.562 173.561 187.71 173.561 187.71 174.497C187.71 175.425 187.351 175.425 187.351 176.353C187.351 177.282 187.187 177.282 187.187 178.218C187.187 179.146 187.18 179.146 187.18 180.082C187.18 181.018 187.468 181.018 187.468 181.946C187.468 182.883 187.484 182.882 187.484 183.811C187.484 184.747 187.164 184.778 187.32 185.706C187.46 186.58 187.944 186.689 187.281 187.352Z" stroke="#40EC80" stroke-miterlimit="10" stroke-linecap="round" stroke-linejoin="round"/>
<path d="M280.695 187.68C280.04 188.335 279.619 187.781 278.69 187.781C277.762 187.781 277.762 187.461 276.826 187.461C275.898 187.461 275.898 187.633 274.962 187.633C274.033 187.633 274.033 187.43 273.105 187.43C272.177 187.43 272.177 187.508 271.248 187.508C270.32 187.508 270.32 187.625 269.392 187.625C268.464 187.625 268.464 187.789 267.527 187.789C266.599 187.789 266.599 187.477 265.671 187.477C264.743 187.477 264.743 187.633 263.814 187.633C262.886 187.633 262.886 187.579 261.958 187.579C261.029 187.579 261.029 187.711 260.093 187.711C259.165 187.711 259.165 187.641 258.237 187.641C257.309 187.641 257.309 187.345 256.372 187.345C255.444 187.345 255.444 187.337 254.508 187.337C253.58 187.337 253.58 187.282 252.644 187.282C251.715 187.282 251.715 187.789 250.779 187.789C249.851 187.789 249.851 187.742 248.915 187.742C247.987 187.742 247.987 187.555 247.051 187.555C246.122 187.555 246.122 187.75 245.194 187.75C244.266 187.75 244.266 187.61 243.33 187.61C242.401 187.61 242.401 187.235 241.465 187.235C240.529 187.235 240.529 187.618 239.601 187.618C238.665 187.618 238.665 187.703 237.737 187.703C236.8 187.703 236.8 187.368 235.872 187.368C234.936 187.368 234.593 188.257 233.938 187.602C233.282 186.947 233.867 186.603 233.867 185.675C233.867 184.747 234.172 184.747 234.172 183.811C234.172 182.882 234.101 182.883 234.101 181.946C234.101 181.018 233.821 181.018 233.821 180.09C233.821 179.162 234.14 179.162 234.14 178.233C234.14 177.305 234.195 177.305 234.195 176.377C234.195 175.448 233.828 175.448 233.828 174.512C233.828 173.584 233.992 173.584 233.992 172.656C233.992 171.727 234.257 171.727 234.257 170.799C234.257 169.871 233.743 169.871 233.743 168.943C233.743 168.014 233.828 168.014 233.828 167.078C233.828 166.15 234.031 166.15 234.031 165.222C234.031 164.293 233.953 164.293 233.953 163.357C233.953 162.429 234.304 162.429 234.304 161.493C234.304 160.565 233.75 160.565 233.75 159.629C233.75 158.7 234.211 158.7 234.211 157.764C234.211 156.836 233.969 156.836 233.969 155.9C233.969 154.972 234.023 154.972 234.023 154.035C234.023 153.107 234.156 153.107 234.156 152.179C234.156 151.251 234.242 151.251 234.242 150.314C234.242 149.386 234.25 149.386 234.25 148.45C234.25 147.514 234.023 147.514 234.023 146.586C234.023 145.65 234.016 145.65 234.016 144.721C234.016 143.785 234.078 143.785 234.078 142.857C234.078 141.921 233.423 141.71 234.078 141.047C234.733 140.392 234.952 140.985 235.88 140.985C236.808 140.985 236.808 141.227 237.744 141.227C238.673 141.227 238.673 140.93 239.609 140.93C240.537 140.93 240.537 140.876 241.465 140.876C242.394 140.876 242.394 141.117 243.322 141.117C244.25 141.117 244.25 140.899 245.178 140.899C246.107 140.899 246.107 141.047 247.043 141.047C247.971 141.047 247.971 140.86 248.899 140.86C249.828 140.86 249.828 140.829 250.756 140.829C251.684 140.829 251.684 141.117 252.612 141.117C253.541 141.117 253.541 141.078 254.477 141.078C255.405 141.078 255.405 141.141 256.333 141.141C257.262 141.141 257.262 140.72 258.198 140.72C259.126 140.72 259.126 141.039 260.062 141.039C260.99 141.039 260.99 140.829 261.927 140.829C262.855 140.829 262.855 141.016 263.791 141.016C264.719 141.016 264.719 140.688 265.655 140.688C266.584 140.688 266.584 141.024 267.52 141.024C268.448 141.024 268.448 140.891 269.376 140.891C270.305 140.891 270.305 141 271.241 141C272.169 141 272.169 140.751 273.105 140.751C274.041 140.751 274.041 140.751 274.969 140.751C275.905 140.751 275.905 141.273 276.834 141.273C277.77 141.273 277.77 141.281 278.698 141.281C279.626 141.281 279.79 140.431 280.453 141.086C281.109 141.742 280.711 141.905 280.711 142.834C280.711 143.762 280.687 143.762 280.687 144.698C280.687 145.626 280.867 145.626 280.867 146.562C280.867 147.491 280.438 147.491 280.438 148.419C280.438 149.347 280.328 149.347 280.328 150.275C280.328 151.204 280.328 151.204 280.328 152.132C280.328 153.06 280.477 153.06 280.477 153.996C280.477 154.925 280.313 154.925 280.313 155.853C280.313 156.781 280.375 156.781 280.375 157.71C280.375 158.638 280.82 158.638 280.82 159.566C280.82 160.494 280.859 160.494 280.859 161.431C280.859 162.359 280.484 162.359 280.484 163.287C280.484 164.215 280.562 164.215 280.562 165.151C280.562 166.08 280.874 166.08 280.874 167.016C280.874 167.944 280.867 167.944 280.867 168.88C280.867 169.809 280.874 169.808 280.874 170.745C280.874 171.673 280.711 171.673 280.711 172.609C280.711 173.537 280.484 173.537 280.484 174.473C280.484 175.402 280.742 175.402 280.742 176.33C280.742 177.258 280.36 177.258 280.36 178.194C280.36 179.123 280.773 179.123 280.773 180.059C280.773 180.995 280.383 180.995 280.383 181.923C280.383 182.859 280.399 182.859 280.399 183.787C280.399 184.723 280.477 184.723 280.703 185.628C280.929 186.681 281.35 187.017 280.695 187.68Z" stroke="#40EC80" stroke-miterlimit="10" stroke-linecap="round" stroke-linejoin="round"/>
<path d="M233.39 94.3911C232.735 95.0464 232.517 94.7422 231.588 94.7422C230.66 94.7422 230.66 94.1961 229.724 94.1961C228.796 94.1961 228.796 94.4068 227.86 94.4068C226.931 94.4068 226.931 94.7578 226.003 94.7578C225.075 94.7578 225.075 94.4926 224.147 94.4926C223.218 94.4926 223.218 94.2897 222.29 94.2897C221.362 94.2897 221.362 94.3132 220.426 94.3132C219.497 94.3132 219.497 94.2664 218.569 94.2664C217.641 94.2664 217.641 94.4379 216.712 94.4379C215.784 94.4379 215.784 94.2429 214.856 94.2429C213.928 94.2429 213.928 94.1493 212.992 94.1493C212.063 94.1493 212.063 94.5862 211.135 94.5862C210.207 94.5862 210.207 94.7188 209.271 94.7188C208.342 94.7188 208.342 94.7266 207.406 94.7266C206.478 94.7266 206.478 94.1884 205.542 94.1884C204.614 94.1884 204.614 94.5628 203.678 94.5628C202.749 94.5628 202.749 94.6954 201.813 94.6954C200.885 94.6954 200.885 94.7344 199.949 94.7344C199.02 94.7344 199.02 94.633 198.092 94.633C197.164 94.633 197.164 94.2585 196.228 94.2585C195.3 94.2585 195.3 94.6174 194.363 94.6174C193.427 94.6174 193.427 94.7422 192.499 94.7422C191.563 94.7422 191.563 94.5472 190.635 94.5472C189.699 94.5472 189.699 94.5862 188.77 94.5862C187.834 94.5862 187.733 94.9372 187.07 94.2742C186.415 93.6189 186.914 93.5097 186.914 92.5814C186.914 91.6531 186.781 91.6531 186.781 90.717C186.781 89.7887 187.046 89.7887 187.046 88.8526C187.046 87.9244 186.828 87.9244 186.828 86.9961C186.828 86.0678 186.976 86.0678 186.976 85.1395C186.976 84.2112 186.656 84.2112 186.656 83.2829C186.656 82.3546 186.844 82.3546 186.844 81.4185C186.844 80.4903 187.171 80.4903 187.171 79.562C187.171 78.6337 186.875 78.6337 186.875 77.7054C186.875 76.7772 187.187 76.7771 187.187 75.8489C187.187 74.9206 187.109 74.9206 187.109 73.9845C187.109 73.0562 187.023 73.0562 187.023 72.1279C187.023 71.1996 187.124 71.1996 187.124 70.2635C187.124 69.3352 186.625 69.3352 186.625 68.3991C186.625 67.4709 187.031 67.4709 187.031 66.5348C187.031 65.6065 187.218 65.6065 187.218 64.6704C187.218 63.7421 186.851 63.7421 186.851 62.806C186.851 61.8778 187.039 61.8777 187.039 60.9417C187.039 60.0134 187.195 60.0134 187.195 59.0851C187.195 58.1568 187.078 58.1568 187.078 57.2207C187.078 56.2925 186.82 56.2924 186.82 55.3564C186.82 54.4203 187.046 54.4203 187.046 53.492C187.046 52.5559 187.078 52.5559 187.078 51.6276C187.078 50.6915 186.867 50.6915 186.867 49.7633C186.867 48.8272 186.157 48.4761 186.82 47.8131C187.475 47.1578 187.834 48.1017 188.763 48.1017C189.691 48.1017 189.691 47.8833 190.627 47.8833C191.555 47.8833 191.555 48.2031 192.491 48.2031C193.42 48.2031 193.42 48.2031 194.348 48.2031C195.276 48.2031 195.276 48.1875 196.204 48.1875C197.133 48.1875 197.133 47.8365 198.061 47.8365C198.989 47.8365 198.989 48.1173 199.925 48.1173C200.854 48.1173 200.854 47.9301 201.782 47.9301C202.71 47.9301 202.71 47.8911 203.638 47.8911C204.567 47.8911 204.567 47.9925 205.495 47.9925C206.423 47.9925 206.423 47.6727 207.359 47.6727C208.288 47.6727 208.288 47.7039 209.216 47.7039C210.144 47.7039 210.144 48.0471 211.08 48.0471C212.009 48.0471 212.009 48.0081 212.945 48.0081C213.873 48.0081 213.873 48.0861 214.809 48.0861C215.737 48.0861 215.737 48.0783 216.674 48.0783C217.602 48.0783 217.602 47.7818 218.538 47.7818C219.466 47.7818 219.466 48.0705 220.402 48.0705C221.331 48.0705 221.331 47.8599 222.259 47.8599C223.187 47.8599 223.187 47.7897 224.123 47.7897C225.051 47.7897 225.051 47.8209 225.988 47.8209C226.924 47.8209 226.924 47.7039 227.852 47.7039C228.788 47.7039 228.788 47.6181 229.716 47.6181C230.652 47.6181 230.652 48.0003 231.581 48.0003C232.509 48.0003 232.868 47.1422 233.531 47.7975C234.186 48.4527 233.593 48.8115 233.593 49.7398C233.593 50.6681 233.211 50.6681 233.211 51.6042C233.211 52.5325 233.289 52.5325 233.289 53.4686C233.289 54.3969 233.663 54.3969 233.663 55.3252C233.663 56.2535 233.156 56.2535 233.156 57.1817C233.156 58.11 233.687 58.11 233.687 59.0383C233.687 59.9666 233.531 59.9666 233.531 60.9027C233.531 61.8309 233.718 61.8309 233.718 62.7592C233.718 63.6875 233.445 63.6875 233.445 64.6158C233.445 65.5441 233.749 65.5441 233.749 66.4724C233.749 67.4007 233.211 67.4007 233.211 68.3368C233.211 69.2651 233.609 69.2651 233.609 70.1933C233.609 71.1216 233.578 71.1216 233.578 72.0577C233.578 72.986 233.656 72.986 233.656 73.9221C233.656 74.8503 233.734 74.8504 233.734 75.7864C233.734 76.7147 233.445 76.7147 233.445 77.6508C233.445 78.5791 233.297 78.5791 233.297 79.5152C233.297 80.4434 233.702 80.4435 233.702 81.3795C233.702 82.3078 233.718 82.3078 233.718 83.2361C233.718 84.1644 233.679 84.1644 233.679 85.1005C233.679 86.0288 233.39 86.0288 233.39 86.9649C233.39 87.901 233.476 87.9009 233.476 88.8292C233.476 89.7653 233.585 89.7653 233.585 90.6936C233.585 91.6297 232.993 91.6999 233.18 92.6204C233.351 93.5877 234.054 93.7359 233.39 94.3911Z" stroke="#40EC80" stroke-miterlimit="10" stroke-linecap="round" stroke-linejoin="round"/>
<path d="M280.399 47.7585C279.744 48.4138 279.619 47.5947 278.691 47.5947C277.762 47.5947 277.762 47.9457 276.826 47.9457C275.898 47.9457 275.898 47.9379 274.962 47.9379C274.034 47.9379 274.034 47.6805 273.105 47.6805C272.177 47.6805 272.177 48.0705 271.249 48.0705C270.321 48.0705 270.321 47.7429 269.392 47.7429C268.464 47.7429 268.464 47.8755 267.528 47.8755C266.6 47.8755 266.6 47.6727 265.671 47.6727C264.743 47.6727 264.743 48.0315 263.815 48.0315C262.886 48.0315 262.886 48.1719 261.958 48.1719C261.03 48.1719 261.03 47.7663 260.094 47.7663C259.166 47.7663 259.166 47.6961 258.237 47.6961C257.309 47.6961 257.309 47.7663 256.373 47.7663C255.445 47.7663 255.445 48.1563 254.508 48.1563C253.58 48.1563 253.58 47.7117 252.644 47.7117C251.716 47.7117 251.716 48.1017 250.78 48.1017C249.851 48.1017 249.851 47.8755 248.915 47.8755C247.987 47.8755 247.987 48.0939 247.051 48.0939C246.123 48.0939 246.123 47.8209 245.194 47.8209C244.266 47.8209 244.266 48.1329 243.33 48.1329C242.402 48.1329 242.402 47.6649 241.466 47.6649C240.53 47.6649 240.53 47.8989 239.601 47.8989C238.665 47.8989 238.665 47.7351 237.737 47.7351C236.801 47.7351 236.801 48.1173 235.873 48.1173C234.936 48.1173 234.5 48.7414 233.837 48.0783C233.181 47.423 233.969 46.9784 233.969 46.0501C233.969 45.1219 234.047 45.1218 234.047 44.1858C234.047 43.2575 234.133 43.2575 234.133 42.3214C234.133 41.3931 234.273 41.3931 234.273 40.4648C234.273 39.5365 234.25 39.5366 234.25 38.6083C234.25 37.68 233.766 37.68 233.766 36.7517C233.766 35.8234 233.712 35.8234 233.712 34.8873C233.712 33.959 233.813 33.959 233.813 33.0307C233.813 32.1025 233.782 32.1025 233.782 31.1742C233.782 30.2459 233.766 30.2459 233.766 29.3176C233.766 28.3893 233.759 28.3893 233.759 27.4532C233.759 26.5249 234.188 26.5249 234.188 25.5966C234.188 24.6683 234.227 24.6684 234.227 23.7323C234.227 22.804 233.93 22.804 233.93 21.8679C233.93 20.9396 234.11 20.9396 234.11 20.0035C234.11 19.0752 233.977 19.0752 233.977 18.1392C233.977 17.2109 233.852 17.2109 233.852 16.2748C233.852 15.3465 234.25 15.3465 234.25 14.4104C234.25 13.4821 233.829 13.4821 233.829 12.5539C233.829 11.6256 234.242 11.6256 234.242 10.6895C234.242 9.76119 234.258 9.76118 234.258 8.82509C234.258 7.889 233.883 7.88904 233.883 6.96076C233.883 6.02467 233.766 6.02466 233.766 5.09637C233.766 4.16029 234.234 4.16027 234.234 3.23199C234.234 2.3037 233.548 2.23349 234.211 1.57043C234.866 0.915172 234.929 1.41441 235.857 1.41441C236.785 1.41441 236.785 1.47683 237.721 1.47683C238.65 1.47683 238.65 1.12579 239.586 1.12579C240.514 1.12579 240.514 1.43003 241.442 1.43003C242.371 1.43003 242.371 1.50801 243.299 1.50801C244.227 1.50801 244.227 1.0946 245.155 1.0946C246.084 1.0946 246.084 1.05561 247.02 1.05561C247.948 1.05561 247.948 1.20382 248.876 1.20382C249.805 1.20382 249.805 1.34423 250.733 1.34423C251.661 1.34423 251.661 1.25062 252.59 1.25062C253.518 1.25062 253.518 1.29743 254.454 1.29743C255.382 1.29743 255.382 1.34423 256.31 1.34423C257.239 1.34423 257.239 1.46902 258.175 1.46902C259.103 1.46902 259.103 1.11798 260.039 1.11798C260.968 1.11798 260.967 1.43783 261.904 1.43783C262.832 1.43783 262.832 1.17259 263.768 1.17259C264.696 1.17259 264.696 1.21939 265.632 1.21939C266.561 1.21939 266.561 1.274 267.497 1.274C268.425 1.274 268.425 1.32861 269.353 1.32861C270.282 1.32861 270.282 1.57824 271.218 1.57824C272.146 1.57824 272.146 1.60167 273.082 1.60167C274.018 1.60167 274.018 1.60167 274.946 1.60167C275.882 1.60167 275.882 1.48464 276.811 1.48464C277.747 1.48464 277.747 1.274 278.675 1.274C279.603 1.274 279.962 0.642166 280.617 1.29743C281.273 1.95269 280.547 2.30371 280.547 3.2398C280.547 4.16808 280.29 4.16809 280.29 5.10418C280.29 6.03247 280.508 6.03243 280.508 6.96852C280.508 7.8968 280.376 7.89681 280.376 8.82509C280.376 9.75338 280.711 9.75338 280.711 10.6817C280.711 11.61 280.344 11.61 280.344 12.5382C280.344 13.4665 280.321 13.4665 280.321 14.4026C280.321 15.3309 280.664 15.3309 280.664 16.2592C280.664 17.1875 280.227 17.1875 280.227 18.1158C280.227 19.0441 280.805 19.0441 280.805 19.9723C280.805 20.9006 280.454 20.9006 280.454 21.8367C280.454 22.765 280.368 22.765 280.368 23.6933C280.368 24.6215 280.774 24.6216 280.774 25.5576C280.774 26.4859 280.859 26.4859 280.859 27.422C280.859 28.3503 280.539 28.3503 280.539 29.2864C280.539 30.2147 280.812 30.2147 280.812 31.1507C280.812 32.079 280.532 32.079 280.532 33.0151C280.532 33.9434 280.383 33.9434 280.383 34.8795C280.383 35.8078 280.43 35.8078 280.43 36.7361C280.43 37.6644 280.274 37.6644 280.274 38.6005C280.274 39.5288 280.586 39.5287 280.586 40.4648C280.586 41.4009 280.391 41.4009 280.391 42.3292C280.391 43.2653 280.477 43.2653 280.477 44.1936C280.477 45.1297 280.602 45.0985 280.766 46.019C280.937 46.9004 281.054 47.0954 280.399 47.7585Z" fill="#40EC80"/>
<path d="M280.399 47.7585C279.744 48.4138 279.619 47.5947 278.691 47.5947C277.762 47.5947 277.762 47.9457 276.826 47.9457C275.898 47.9457 275.898 47.9379 274.962 47.9379C274.034 47.9379 274.034 47.6805 273.105 47.6805C272.177 47.6805 272.177 48.0705 271.249 48.0705C270.321 48.0705 270.321 47.7429 269.392 47.7429C268.464 47.7429 268.464 47.8755 267.528 47.8755C266.6 47.8755 266.6 47.6727 265.671 47.6727C264.743 47.6727 264.743 48.0315 263.815 48.0315C262.886 48.0315 262.886 48.1719 261.958 48.1719C261.03 48.1719 261.03 47.7663 260.094 47.7663C259.166 47.7663 259.166 47.6961 258.237 47.6961C257.309 47.6961 257.309 47.7663 256.373 47.7663C255.445 47.7663 255.445 48.1563 254.508 48.1563C253.58 48.1563 253.58 47.7117 252.644 47.7117C251.716 47.7117 251.716 48.1017 250.78 48.1017C249.851 48.1017 249.851 47.8755 248.915 47.8755C247.987 47.8755 247.987 48.0939 247.051 48.0939C246.123 48.0939 246.123 47.8209 245.194 47.8209C244.266 47.8209 244.266 48.1329 243.33 48.1329C242.402 48.1329 242.402 47.6649 241.466 47.6649C240.53 47.6649 240.53 47.8989 239.601 47.8989C238.665 47.8989 238.665 47.7351 237.737 47.7351C236.801 47.7351 236.801 48.1173 235.873 48.1173C234.936 48.1173 234.5 48.7414 233.837 48.0783C233.181 47.4231 233.969 46.9784 233.969 46.0501C233.969 45.1219 234.047 45.1218 234.047 44.1858C234.047 43.2575 234.133 43.2575 234.133 42.3214C234.133 41.3931 234.273 41.3931 234.273 40.4648C234.273 39.5365 234.25 39.5366 234.25 38.6083C234.25 37.68 233.766 37.68 233.766 36.7517C233.766 35.8234 233.712 35.8234 233.712 34.8873C233.712 33.959 233.813 33.959 233.813 33.0307C233.813 32.1025 233.782 32.1025 233.782 31.1742C233.782 30.2459 233.766 30.2459 233.766 29.3176C233.766 28.3893 233.759 28.3893 233.759 27.4532C233.759 26.5249 234.188 26.5249 234.188 25.5966C234.188 24.6683 234.227 24.6684 234.227 23.7323C234.227 22.804 233.93 22.804 233.93 21.8679C233.93 20.9396 234.11 20.9396 234.11 20.0035C234.11 19.0752 233.977 19.0752 233.977 18.1391C233.977 17.2109 233.852 17.2109 233.852 16.2748C233.852 15.3465 234.25 15.3465 234.25 14.4104C234.25 13.4821 233.829 13.4821 233.829 12.5539C233.829 11.6256 234.242 11.6256 234.242 10.6895C234.242 9.76119 234.258 9.76118 234.258 8.82509C234.258 7.889 233.883 7.88904 233.883 6.96076C233.883 6.02467 233.766 6.02466 233.766 5.09637C233.766 4.16029 234.234 4.16027 234.234 3.23199C234.234 2.3037 233.548 2.23349 234.211 1.57043C234.866 0.915172 234.929 1.41441 235.857 1.41441C236.785 1.41441 236.785 1.47683 237.721 1.47683C238.65 1.47683 238.65 1.12579 239.586 1.12579C240.514 1.12579 240.514 1.43003 241.442 1.43003C242.371 1.43003 242.371 1.50801 243.299 1.50801C244.227 1.50801 244.227 1.0946 245.155 1.0946C246.084 1.0946 246.084 1.05561 247.02 1.05561C247.948 1.05561 247.948 1.20382 248.876 1.20382C249.805 1.20382 249.805 1.34423 250.733 1.34423C251.661 1.34423 251.661 1.25062 252.59 1.25062C253.518 1.25062 253.518 1.29743 254.454 1.29743C255.382 1.29743 255.382 1.34423 256.31 1.34423C257.239 1.34423 257.239 1.46902 258.175 1.46902C259.103 1.46902 259.103 1.11798 260.039 1.11798C260.968 1.11798 260.967 1.43783 261.904 1.43783C262.832 1.43783 262.832 1.17259 263.768 1.17259C264.696 1.17259 264.696 1.21939 265.632 1.21939C266.561 1.21939 266.561 1.274 267.497 1.274C268.425 1.274 268.425 1.32861 269.353 1.32861C270.282 1.32861 270.282 1.57824 271.218 1.57824C272.146 1.57824 272.146 1.60167 273.082 1.60167C274.018 1.60167 274.018 1.60167 274.946 1.60167C275.882 1.60167 275.882 1.48464 276.811 1.48464C277.747 1.48464 277.747 1.274 278.675 1.274C279.603 1.274 279.962 0.642166 280.617 1.29743C281.273 1.95269 280.547 2.30371 280.547 3.2398C280.547 4.16808 280.29 4.16809 280.29 5.10418C280.29 6.03247 280.508 6.03243 280.508 6.96852C280.508 7.8968 280.376 7.89681 280.376 8.82509C280.376 9.75338 280.711 9.75338 280.711 10.6817C280.711 11.61 280.344 11.61 280.344 12.5382C280.344 13.4665 280.321 13.4665 280.321 14.4026C280.321 15.3309 280.664 15.3309 280.664 16.2592C280.664 17.1875 280.227 17.1875 280.227 18.1158C280.227 19.0441 280.805 19.0441 280.805 19.9723C280.805 20.9006 280.454 20.9006 280.454 21.8367C280.454 22.765 280.368 22.765 280.368 23.6933C280.368 24.6215 280.774 24.6216 280.774 25.5576C280.774 26.4859 280.859 26.4859 280.859 27.422C280.859 28.3503 280.539 28.3503 280.539 29.2864C280.539 30.2147 280.812 30.2147 280.812 31.1507C280.812 32.079 280.532 32.079 280.532 33.0151C280.532 33.9434 280.383 33.9434 280.383 34.8795C280.383 35.8078 280.43 35.8078 280.43 36.7361C280.43 37.6644 280.274 37.6644 280.274 38.6005C280.274 39.5288 280.586 39.5287 280.586 40.4648C280.586 41.4009 280.391 41.4009 280.391 42.3292C280.391 43.2653 280.477 43.2653 280.477 44.1936C280.477 45.1297 280.602 45.0985 280.766 46.019C280.937 46.9004 281.054 47.0954 280.399 47.7585Z" stroke="#40EC80" stroke-miterlimit="10" stroke-linecap="round" stroke-linejoin="round"/>
<path d="M280.524 140.969C279.869 141.625 279.619 141.281 278.683 141.281C277.755 141.281 277.755 141.149 276.818 141.149C275.89 141.149 275.89 140.907 274.954 140.907C274.026 140.907 274.026 140.829 273.098 140.829C272.169 140.829 272.169 140.899 271.241 140.899C270.313 140.899 270.313 140.923 269.384 140.923C268.456 140.923 268.456 140.891 267.52 140.891C266.592 140.891 266.592 140.829 265.663 140.829C264.735 140.829 264.735 141.047 263.807 141.047C262.879 141.047 262.879 141.289 261.95 141.289C261.022 141.289 261.022 141.281 260.086 141.281C259.158 141.281 259.158 140.689 258.229 140.689C257.301 140.689 257.301 140.923 256.365 140.923C255.437 140.923 255.437 141.047 254.501 141.047C253.572 141.047 253.572 141.047 252.636 141.047C251.708 141.047 251.708 141.125 250.772 141.125C249.844 141.125 249.844 141.079 248.908 141.079C247.979 141.079 247.979 141.118 247.043 141.118C246.115 141.118 246.115 140.728 245.187 140.728C244.258 140.728 244.258 141.235 243.322 141.235C242.394 141.235 242.394 141.141 241.458 141.141C240.522 141.141 240.522 141.125 239.593 141.125C238.657 141.125 238.657 140.681 237.729 140.681C236.793 140.681 236.793 140.767 235.865 140.767C234.929 140.767 234.835 141.469 234.172 140.806C233.517 140.15 234.242 140.049 234.242 139.121C234.242 138.192 233.977 138.192 233.977 137.256C233.977 136.328 233.977 136.328 233.977 135.392C233.977 134.464 234.188 134.464 234.188 133.535C234.188 132.607 234.071 132.607 234.071 131.679C234.071 130.75 234.266 130.75 234.266 129.822C234.266 128.894 233.798 128.894 233.798 127.958C233.798 127.029 233.883 127.029 233.883 126.101C233.883 125.173 234.071 125.173 234.071 124.245C234.071 123.316 234.297 123.316 234.297 122.388C234.297 121.46 233.946 121.46 233.946 120.524C233.946 119.595 233.829 119.595 233.829 118.667C233.829 117.739 233.821 117.739 233.821 116.803C233.821 115.874 233.907 115.874 233.907 114.938C233.907 114.01 234.141 114.01 234.141 113.074C234.141 112.146 233.969 112.146 233.969 111.21C233.969 110.281 233.993 110.281 233.993 109.345C233.993 108.417 234.219 108.417 234.219 107.481C234.219 106.553 234.281 106.553 234.281 105.624C234.281 104.696 234.125 104.696 234.125 103.76C234.125 102.832 234.297 102.832 234.297 101.896C234.297 100.959 234.086 100.96 234.086 100.031C234.086 99.0951 233.844 99.0951 233.844 98.1668C233.844 97.2307 233.922 97.2307 233.922 96.3025C233.922 95.3664 233.134 94.8984 233.79 94.2353C234.445 93.58 234.921 94.1807 235.849 94.1807C236.777 94.1807 236.777 94.3367 237.713 94.3367C238.642 94.3367 238.642 94.4849 239.578 94.4849C240.506 94.4849 240.506 94.5317 241.434 94.5317C242.363 94.5317 242.363 94.5317 243.291 94.5317C244.219 94.5317 244.219 94.3991 245.148 94.3991C246.076 94.3991 246.076 94.4693 247.012 94.4693C247.94 94.4693 247.94 94.3601 248.869 94.3601C249.797 94.3601 249.797 94.1416 250.725 94.1416C251.653 94.1416 251.653 94.4459 252.582 94.4459C253.51 94.4459 253.51 94.4693 254.446 94.4693C255.374 94.4693 255.374 94.2821 256.303 94.2821C257.231 94.2821 257.231 94.1573 258.167 94.1573C259.095 94.1573 259.095 94.1962 260.031 94.1962C260.96 94.1962 260.96 94.2431 261.896 94.2431C262.824 94.2431 262.824 94.2197 263.76 94.2197C264.688 94.2197 264.688 94.4381 265.624 94.4381C266.553 94.4381 266.553 94.3601 267.489 94.3601C268.417 94.3601 268.417 94.3601 269.345 94.3601C270.274 94.3601 270.274 94.4771 271.21 94.4771C272.138 94.4771 272.138 94.3133 273.074 94.3133C274.01 94.3133 274.01 94.5083 274.939 94.5083C275.875 94.5083 275.875 94.1962 276.803 94.1962C277.739 94.1962 277.739 94.3679 278.667 94.3679C279.596 94.3679 279.884 93.7516 280.539 94.4069C281.195 95.0621 280.805 95.343 280.805 96.2713C280.805 97.1996 280.282 97.1996 280.282 98.1357C280.282 99.0639 280.578 99.0639 280.578 100C280.578 100.928 280.274 100.928 280.274 101.857C280.274 102.785 280.274 102.785 280.274 103.713C280.274 104.641 280.82 104.641 280.82 105.57C280.82 106.498 280.68 106.498 280.68 107.434C280.68 108.362 280.337 108.362 280.337 109.291C280.337 110.219 280.352 110.219 280.352 111.147C280.352 112.076 280.703 112.076 280.703 113.004C280.703 113.932 280.43 113.932 280.43 114.868C280.43 115.796 280.368 115.796 280.368 116.725C280.368 117.653 280.602 117.653 280.602 118.589C280.602 119.517 280.29 119.517 280.29 120.453C280.29 121.382 280.539 121.382 280.539 122.318C280.539 123.246 280.422 123.246 280.422 124.182C280.422 125.11 280.812 125.111 280.812 126.047C280.812 126.975 280.352 126.975 280.352 127.911C280.352 128.839 280.578 128.839 280.578 129.768C280.578 130.696 280.555 130.696 280.555 131.632C280.555 132.56 280.836 132.56 280.836 133.496C280.836 134.432 280.812 134.432 280.812 135.361C280.812 136.297 280.805 136.297 280.805 137.225C280.805 138.161 280.524 138.146 280.719 139.058C280.922 140.049 281.187 140.306 280.524 140.969Z" fill="#40EC80"/>
<path d="M280.524 140.969C279.869 141.625 279.619 141.281 278.683 141.281C277.755 141.281 277.755 141.149 276.818 141.149C275.89 141.149 275.89 140.907 274.954 140.907C274.026 140.907 274.026 140.829 273.098 140.829C272.169 140.829 272.169 140.899 271.241 140.899C270.313 140.899 270.313 140.923 269.384 140.923C268.456 140.923 268.456 140.891 267.52 140.891C266.592 140.891 266.592 140.829 265.663 140.829C264.735 140.829 264.735 141.047 263.807 141.047C262.879 141.047 262.879 141.289 261.95 141.289C261.022 141.289 261.022 141.281 260.086 141.281C259.158 141.281 259.158 140.689 258.229 140.689C257.301 140.689 257.301 140.923 256.365 140.923C255.437 140.923 255.437 141.047 254.501 141.047C253.572 141.047 253.572 141.047 252.636 141.047C251.708 141.047 251.708 141.125 250.772 141.125C249.844 141.125 249.844 141.079 248.908 141.079C247.979 141.079 247.979 141.118 247.043 141.118C246.115 141.118 246.115 140.728 245.187 140.728C244.258 140.728 244.258 141.235 243.322 141.235C242.394 141.235 242.394 141.141 241.458 141.141C240.522 141.141 240.522 141.125 239.593 141.125C238.657 141.125 238.657 140.681 237.729 140.681C236.793 140.681 236.793 140.767 235.865 140.767C234.929 140.767 234.835 141.469 234.172 140.806C233.517 140.15 234.242 140.049 234.242 139.121C234.242 138.192 233.977 138.192 233.977 137.256C233.977 136.328 233.977 136.328 233.977 135.392C233.977 134.464 234.188 134.464 234.188 133.535C234.188 132.607 234.071 132.607 234.071 131.679C234.071 130.75 234.266 130.75 234.266 129.822C234.266 128.894 233.798 128.894 233.798 127.958C233.798 127.029 233.883 127.029 233.883 126.101C233.883 125.173 234.071 125.173 234.071 124.245C234.071 123.316 234.297 123.316 234.297 122.388C234.297 121.46 233.946 121.46 233.946 120.524C233.946 119.595 233.829 119.595 233.829 118.667C233.829 117.739 233.821 117.739 233.821 116.803C233.821 115.874 233.907 115.874 233.907 114.938C233.907 114.01 234.141 114.01 234.141 113.074C234.141 112.146 233.969 112.146 233.969 111.21C233.969 110.281 233.993 110.281 233.993 109.345C233.993 108.417 234.219 108.417 234.219 107.481C234.219 106.553 234.281 106.553 234.281 105.624C234.281 104.696 234.125 104.696 234.125 103.76C234.125 102.832 234.297 102.832 234.297 101.896C234.297 100.959 234.086 100.96 234.086 100.031C234.086 99.0951 233.844 99.0951 233.844 98.1668C233.844 97.2307 233.922 97.2307 233.922 96.3025C233.922 95.3664 233.134 94.8984 233.79 94.2353C234.445 93.58 234.921 94.1807 235.849 94.1807C236.777 94.1807 236.777 94.3367 237.713 94.3367C238.642 94.3367 238.642 94.4849 239.578 94.4849C240.506 94.4849 240.506 94.5317 241.434 94.5317C242.363 94.5317 242.363 94.5317 243.291 94.5317C244.219 94.5317 244.219 94.3991 245.148 94.3991C246.076 94.3991 246.076 94.4693 247.012 94.4693C247.94 94.4693 247.94 94.3601 248.869 94.3601C249.797 94.3601 249.797 94.1416 250.725 94.1416C251.653 94.1416 251.653 94.4459 252.582 94.4459C253.51 94.4459 253.51 94.4693 254.446 94.4693C255.374 94.4693 255.374 94.2821 256.303 94.2821C257.231 94.2821 257.231 94.1573 258.167 94.1573C259.095 94.1573 259.095 94.1962 260.031 94.1962C260.96 94.1962 260.96 94.2431 261.896 94.2431C262.824 94.2431 262.824 94.2197 263.76 94.2197C264.688 94.2197 264.688 94.4381 265.624 94.4381C266.553 94.4381 266.553 94.3601 267.489 94.3601C268.417 94.3601 268.417 94.3601 269.345 94.3601C270.274 94.3601 270.274 94.4771 271.21 94.4771C272.138 94.4771 272.138 94.3133 273.074 94.3133C274.01 94.3133 274.01 94.5083 274.939 94.5083C275.875 94.5083 275.875 94.1962 276.803 94.1962C277.739 94.1962 277.739 94.3679 278.667 94.3679C279.596 94.3679 279.884 93.7516 280.539 94.4069C281.195 95.0621 280.805 95.343 280.805 96.2713C280.805 97.1996 280.282 97.1996 280.282 98.1357C280.282 99.0639 280.578 99.0639 280.578 100C280.578 100.928 280.274 100.928 280.274 101.857C280.274 102.785 280.274 102.785 280.274 103.713C280.274 104.641 280.82 104.641 280.82 105.57C280.82 106.498 280.68 106.498 280.68 107.434C280.68 108.362 280.337 108.362 280.337 109.291C280.337 110.219 280.352 110.219 280.352 111.147C280.352 112.076 280.703 112.076 280.703 113.004C280.703 113.932 280.43 113.932 280.43 114.868C280.43 115.796 280.368 115.796 280.368 116.725C280.368 117.653 280.602 117.653 280.602 118.589C280.602 119.517 280.29 119.517 280.29 120.453C280.29 121.382 280.539 121.382 280.539 122.318C280.539 123.246 280.422 123.246 280.422 124.182C280.422 125.11 280.812 125.111 280.812 126.047C280.812 126.975 280.352 126.975 280.352 127.911C280.352 128.839 280.578 128.839 280.578 129.768C280.578 130.696 280.555 130.696 280.555 131.632C280.555 132.56 280.836 132.56 280.836 133.496C280.836 134.432 280.812 134.432 280.812 135.361C280.812 136.297 280.805 136.297 280.805 137.225C280.805 138.161 280.524 138.146 280.719 139.058C280.922 140.049 281.187 140.306 280.524 140.969Z" stroke="#40EC80" stroke-miterlimit="10" stroke-linecap="round" stroke-linejoin="round"/>
</svg>
