<svg width="600" height="327" viewBox="0 0 600 327" fill="none" xmlns="http://www.w3.org/2000/svg">
<path d="M326.627 115.888C332.671 115.888 337.571 110.988 337.571 104.944C337.571 98.8997 332.671 94 326.627 94C320.583 94 315.683 98.8997 315.683 104.944C315.683 110.988 320.583 115.888 326.627 115.888Z" fill="white"/>
<path d="M494.328 113.749H480.162C480.08 113.751 479.999 113.771 479.925 113.806C479.85 113.842 479.784 113.892 479.73 113.955C479.677 114.017 479.637 114.091 479.613 114.17C479.589 114.248 479.582 114.331 479.592 114.413L478.924 120.348C478.925 120.475 478.891 120.6 478.824 120.708C478.756 120.816 478.66 120.902 478.545 120.957C478.431 121.011 478.303 121.032 478.177 121.016C478.051 121 477.932 120.949 477.834 120.868C475.292 118.823 472.426 116.549 469.542 115.303C465.179 113.418 460.491 112.4 455.74 112.307H455.129C450.549 112.315 446.009 113.177 441.745 114.849C437.259 116.593 433.1 119.873 429.722 123.16C426.267 126.533 423.513 130.556 421.619 134.997C418.778 141.708 418.032 149.12 419.478 156.262C420.924 163.404 424.495 169.943 429.722 175.02C433.1 178.307 437.259 181.584 441.752 183.349C446.21 185.086 450.963 185.942 455.747 185.87C460.498 185.777 465.186 184.76 469.549 182.877C472.455 181.631 475.19 179.353 477.743 177.308C477.838 177.234 477.951 177.185 478.07 177.169C478.19 177.152 478.311 177.168 478.423 177.214C478.533 177.26 478.629 177.336 478.7 177.432C478.771 177.529 478.815 177.643 478.826 177.763L479.374 183.135C479.391 183.299 479.468 183.452 479.591 183.563C479.714 183.674 479.873 183.735 480.039 183.734H494.335C494.512 183.734 494.681 183.664 494.805 183.539C494.93 183.415 495 183.245 495 183.069V114.421C495 114.332 494.983 114.245 494.95 114.163C494.916 114.081 494.867 114.007 494.804 113.944C494.742 113.882 494.668 113.832 494.586 113.799C494.504 113.765 494.416 113.748 494.328 113.749V113.749ZM456.215 170.186C451.999 170.174 447.881 168.914 444.381 166.563C440.881 164.213 438.156 160.878 436.55 156.98C434.944 153.081 434.529 148.795 435.358 144.661C436.187 140.527 438.222 136.731 441.206 133.753C444.191 130.775 447.991 128.749 452.126 127.929C456.262 127.109 460.548 127.534 464.443 129.148C468.337 130.763 471.666 133.495 474.009 137.001C476.352 140.506 477.603 144.627 477.605 148.843C477.595 154.508 475.336 159.938 471.326 163.94C467.315 167.941 461.881 170.188 456.215 170.186V170.186Z" fill="white"/>
<path d="M400.251 122.496C397.008 119.336 393.081 116.351 388.89 114.676C380.386 111.267 370.878 111.367 362.447 114.952C360.519 115.773 358.634 117.226 356.843 118.421C356.745 118.485 356.633 118.523 356.516 118.53C356.399 118.538 356.283 118.514 356.178 118.462C356.073 118.41 355.984 118.332 355.919 118.235C355.854 118.138 355.816 118.025 355.808 117.909L355.415 114.313C355.391 114.155 355.311 114.012 355.19 113.909C355.068 113.805 354.914 113.749 354.754 113.75H340.898C340.722 113.751 340.553 113.821 340.429 113.946C340.304 114.07 340.234 114.239 340.233 114.415V183.063C340.233 183.15 340.25 183.237 340.283 183.318C340.317 183.398 340.366 183.471 340.428 183.533C340.489 183.595 340.563 183.644 340.643 183.677C340.724 183.711 340.81 183.728 340.898 183.728H355.637C355.814 183.728 355.983 183.658 356.108 183.533C356.233 183.409 356.304 183.24 356.305 183.063C356.305 183.063 356.276 141.122 356.305 141.05C357.395 138.06 358.71 135.786 360.965 133.633C364.906 129.871 370.171 127.814 375.618 127.908C380.964 128.006 385.425 130.258 389.108 134.083C392.769 137.88 394.773 142.975 394.68 148.249V183.081C394.68 183.168 394.698 183.253 394.731 183.332C394.765 183.412 394.814 183.484 394.876 183.544C394.938 183.604 395.011 183.651 395.092 183.683C395.172 183.715 395.258 183.73 395.344 183.728H410.084C410.447 183.728 410.748 183.285 410.748 182.918V147.028C410.699 142.447 409.745 137.92 407.943 133.708C406.14 129.496 403.524 125.681 400.244 122.482L400.251 122.496Z" fill="white"/>
<path d="M143.008 127.519C146.245 127.514 149.442 128.235 152.362 129.631C155.282 131.027 157.851 133.061 159.88 135.583C159.986 135.711 160.137 135.795 160.303 135.816C160.468 135.837 160.635 135.794 160.77 135.695L172.208 127.581C172.28 127.53 172.341 127.464 172.387 127.389C172.433 127.313 172.464 127.229 172.477 127.142C172.491 127.05 172.486 126.956 172.462 126.866C172.438 126.776 172.396 126.692 172.339 126.618C168.863 122.15 164.416 118.531 159.334 116.036C154.252 113.541 148.67 112.235 143.008 112.217C122.603 112.217 106 128.761 106 149.095C106 169.428 122.603 185.969 143.008 185.969C148.669 185.951 154.252 184.645 159.333 182.151C164.415 179.656 168.862 176.038 172.339 171.571C172.396 171.497 172.438 171.412 172.462 171.321C172.485 171.231 172.49 171.136 172.477 171.044C172.464 170.956 172.433 170.872 172.387 170.797C172.341 170.721 172.28 170.656 172.208 170.604L160.77 162.49C160.634 162.394 160.467 162.353 160.302 162.374C160.137 162.396 159.987 162.479 159.88 162.606C155.736 167.735 149.586 170.19 143.008 170.19C131.069 170.19 122.072 160.99 122.072 149.095C122.072 137.199 131.062 127.519 143.008 127.519Z" fill="white"/>
<path d="M315.215 176.54C326.675 171.008 332.247 162.073 332.247 149.233C332.247 131.392 320.533 112.185 294.835 112.185C276.601 112.185 256.98 123.779 256.98 149.233C256.98 160.369 260.554 169.686 267.314 176.169C274.004 182.584 283.521 185.976 294.835 185.976C307.762 185.976 316.087 191.693 316.087 201.272C316.087 210.621 305.626 216.12 294.552 216.12C283.477 216.12 273.532 210.377 273.18 199.731C273.177 199.556 273.106 199.389 272.982 199.266C272.858 199.142 272.69 199.072 272.515 199.07H257.885C257.711 199.068 257.543 199.135 257.418 199.256C257.293 199.377 257.22 199.543 257.216 199.717C257.176 208.797 260.064 216.534 265.57 222.044C272.065 228.546 282.079 231.982 294.534 231.982C312.695 231.982 332.247 222.371 332.247 201.272C332.247 193.51 329.301 183.129 315.266 177.76C315.145 177.714 315.04 177.633 314.964 177.528C314.888 177.422 314.844 177.297 314.839 177.167C314.833 177.037 314.866 176.908 314.933 176.797C315 176.685 315.098 176.596 315.215 176.54ZM294.817 170.046C281.992 170.046 273.024 161.328 273.024 148.866C273.024 135.91 281.578 127.538 294.817 127.538C307.192 127.538 316.174 136.506 316.174 148.866C316.171 161.336 307.388 170.046 294.813 170.046H294.817Z" fill="white"/>
<path d="M211.957 112.217C191.547 112.217 174.948 128.761 174.948 149.095C174.948 169.428 191.547 185.969 211.957 185.969C232.366 185.969 248.965 169.428 248.965 149.095C248.965 128.761 232.363 112.217 211.957 112.217ZM211.957 169.969C206.416 169.974 201.099 167.78 197.173 163.869C193.247 159.959 191.034 154.65 191.017 149.109C191.017 137.606 200.41 127.545 211.957 127.545C223.504 127.545 232.893 137.606 232.893 149.109C232.873 154.647 230.658 159.951 226.733 163.859C222.809 167.766 217.495 169.958 211.957 169.954V169.969Z" fill="white"/>
<path d="M341.322 199.674H352.625V201.283H343.087V206.629H351.63V208.239H343.087V213.72H352.749V215.318H341.322V199.674Z" fill="white"/>
<path d="M359.436 199.674H364.885C369.803 199.674 373.202 203.052 373.202 207.458V207.501C373.202 211.907 369.803 215.329 364.885 215.329H359.436V199.674ZM364.885 213.694C368.84 213.694 371.368 211.014 371.368 207.545V207.501C371.368 204.036 368.826 201.305 364.885 201.305H361.216V213.694H364.885Z" fill="white"/>
<path d="M379.813 208.78V199.674H381.578V208.664C381.578 212.041 383.369 213.941 386.366 213.941C389.25 213.941 391.087 212.198 391.087 208.776V199.674H392.853V208.642C392.853 213.204 390.237 215.576 386.315 215.576C382.392 215.576 379.813 213.204 379.813 208.78V208.78Z" fill="white"/>
<path d="M399.483 207.54V207.497C399.483 203.069 402.792 199.4 407.398 199.4C410.238 199.4 411.938 200.407 413.503 201.885L412.297 203.182C410.979 201.928 409.501 201.035 407.376 201.035C403.911 201.035 401.317 203.85 401.317 207.453V207.497C401.317 211.129 403.932 213.958 407.376 213.958C409.522 213.958 410.932 213.134 412.432 211.699L413.594 212.843C411.963 214.496 410.173 215.593 407.332 215.593C402.803 215.593 399.483 212.044 399.483 207.54Z" fill="white"/>
<path d="M425.593 199.557H427.245L434.379 215.313H432.479L430.645 211.176H422.124L420.268 215.313H418.452L425.593 199.557ZM429.951 209.6L426.395 201.609L422.818 209.6H429.951Z" fill="white"/>
<path d="M444.043 218.031L445.765 215.525C441.809 215.013 438.991 211.679 438.991 207.534V207.491C438.991 203.063 442.3 199.395 446.905 199.395C449.746 199.395 451.445 200.401 453.011 201.879L451.805 203.176C450.487 201.923 449.008 201.029 446.883 201.029C443.418 201.029 440.825 203.844 440.825 207.447V207.491C440.825 211.123 443.44 213.952 446.883 213.952C449.03 213.952 450.439 213.128 451.939 211.693L453.102 212.837C451.536 214.425 449.833 215.474 447.196 215.565L445.721 218.783L444.043 218.031Z" fill="white"/>
<path d="M465.108 199.557H466.764L473.898 215.314H471.998L470.182 211.177H461.642L459.776 215.314H457.959L465.108 199.557ZM462.318 197.948C462.765 196.405 463.368 195.667 464.421 195.667C465.402 195.667 466.677 196.539 467.418 196.539C467.999 196.539 468.242 196.227 468.58 195.489L469.67 195.802C469.223 197.345 468.62 198.061 467.57 198.061C466.586 198.061 465.311 197.189 464.574 197.189C463.993 197.189 463.746 197.501 463.408 198.261L462.318 197.948ZM469.474 209.6L465.918 201.61L462.34 209.6H469.474Z" fill="white"/>
<path d="M478.506 207.54V207.497C478.506 203.182 481.75 199.4 486.497 199.4C491.244 199.4 494.459 203.134 494.459 207.453V207.497C494.459 211.812 491.215 215.593 486.468 215.593C481.721 215.593 478.506 211.859 478.506 207.54ZM492.639 207.54V207.497C492.639 203.941 490.046 201.035 486.464 201.035C482.883 201.035 480.337 203.897 480.337 207.453V207.497C480.337 211.052 482.93 213.958 486.512 213.958C490.093 213.958 492.639 211.096 492.639 207.54Z" fill="white"/>
</svg>
