<svg width="450" height="317" viewBox="0 0 450 317" fill="none" xmlns="http://www.w3.org/2000/svg">
<path d="M202.646 107.923H183.741V207.678H202.646V107.923Z" fill="white"/>
<path d="M136.297 137.715C116.492 137.715 100.438 153.733 100.438 173.494C100.438 193.255 116.492 209.271 136.297 209.271C156.102 209.271 172.156 193.253 172.156 173.492C172.156 153.731 156.1 137.715 136.297 137.715ZM136.297 191.059C126.573 191.059 118.69 183.194 118.69 173.492C118.69 163.79 126.573 155.924 136.297 155.924C146.02 155.924 153.904 163.79 153.904 173.492C153.904 183.194 146.02 191.059 136.297 191.059Z" fill="white"/>
<path d="M276.63 165.248C270.772 162.854 265.581 160.593 265.581 156.204C265.581 152.879 268.775 150.884 272.37 150.884C277.694 150.884 282.622 153.544 286.216 156.736L294.043 142.654C286.132 137.918 281.691 136.119 272.372 136.119C259.592 136.119 247.345 143.301 247.345 157.532C247.345 169.768 256.531 174.556 264.917 178.147C271.839 181.206 278.23 183.334 278.23 188.255C278.23 192.511 273.172 194.373 269.311 194.373C262.522 194.373 258.128 191.314 252.803 186.127L245.268 199.485C253.179 205.799 259.325 209.269 270.241 209.269C283.821 209.269 297.132 202.22 297.132 186.792C297.13 173.494 285.683 168.972 276.63 165.248Z" fill="white"/>
<path d="M235.486 137.715H216.581V207.675H235.486V137.715Z" fill="white"/>
<path d="M343.637 191.183C341.24 192.38 338.976 193.178 336.048 193.178C332.054 193.178 330.457 190.651 329.923 186.528C329.657 184.533 329.657 182.671 329.657 180.543V153.409H347.495V137.715H329.657V122.287H313.682L310.754 137.715H302.368V153.409H310.754V182.538C310.754 186.661 311.021 190.784 312.085 194.242C314.615 203.286 321.937 209.271 332.854 209.271C338.312 209.271 344.967 207.808 349.495 205.148L343.637 191.183Z" fill="white"/>
<path d="M235.486 107.911H216.581V124.004H235.486V107.911Z" fill="white"/>
</svg>
